<svg width="164" height="19" viewBox="0 0 164 19" fill="none" xmlns="http://www.w3.org/2000/svg">
<path d="M5.006 0.799999H18.786C19.176 0.799999 19.358 0.982 19.358 1.372V3.842C19.358 4.232 19.176 4.414 18.786 4.414H5.76C4.772 4.414 4.382 4.96 4.382 5.87V6.754C4.382 7.716 4.824 8.21 5.734 8.21H15.484C18.474 8.21 20.034 9.822 20.034 12.682V14.762C20.034 17.284 18.578 19 15.432 19H1.028C0.638 19 0.43 18.818 0.43 18.428V15.958C0.43 15.568 0.638 15.386 1.028 15.386H14.678C15.666 15.386 16.056 14.84 16.056 13.93V12.864C16.056 11.902 15.614 11.408 14.704 11.408H4.954C1.964 11.408 0.404 9.796 0.404 6.936V5.038C0.404 2.516 1.86 0.799999 5.006 0.799999ZM23.607 0.799999H26.415C26.805 0.799999 26.987 0.982 26.987 1.372V8.288H30.653C32.291 8.288 32.785 8.106 33.539 7.118L38.011 1.138C38.193 0.903999 38.297 0.799999 38.765 0.799999H41.989C42.431 0.799999 42.509 1.19 42.327 1.424L37.283 7.95C36.685 8.73 36.217 9.276 35.723 9.692C36.425 10.134 37.049 10.732 37.699 11.564L43.029 18.324C43.159 18.506 43.211 19 42.691 19H39.363C38.921 19 38.817 18.896 38.635 18.662L33.851 12.474C33.149 11.564 32.551 11.304 30.939 11.304H26.987V18.428C26.987 18.818 26.805 19 26.415 19H23.607C23.217 19 23.009 18.818 23.009 18.428V1.372C23.009 0.982 23.217 0.799999 23.607 0.799999ZM44.1084 0.799999H47.5924C47.9044 0.799999 48.0604 0.877999 48.2164 1.112L55.1584 10.498L62.1524 1.112C62.3084 0.877999 62.4644 0.799999 62.7764 0.799999H66.1824C66.4684 0.799999 66.5984 1.086 66.4164 1.32L57.0824 13.436V18.428C57.0824 18.818 56.9004 19 56.5104 19H53.7024C53.3124 19 53.1044 18.818 53.1044 18.428V13.436L43.8744 1.32C43.6924 1.086 43.7964 0.799999 44.1084 0.799999ZM67.573 0.799999H71.057C71.239 0.799999 71.343 0.877999 71.421 1.138L75.633 15.126C75.659 15.282 75.737 15.308 75.841 15.308H75.971C76.075 15.308 76.127 15.282 76.179 15.126L80.391 2.308C80.781 1.138 81.379 0.799999 82.315 0.799999H84.889C86.033 0.799999 86.579 1.216 86.943 2.308L91.259 15.126C91.311 15.282 91.363 15.308 91.467 15.308H91.623C91.727 15.308 91.779 15.282 91.831 15.126L95.939 1.138C96.017 0.852 96.173 0.799999 96.355 0.799999H99.865C100.151 0.799999 100.177 1.086 100.073 1.398L95.081 17.024C94.587 18.584 94.067 19 93.079 19H90.037C89.023 19 88.555 18.558 88.035 17.024L83.953 4.674C83.927 4.544 83.875 4.492 83.745 4.492H83.641C83.537 4.492 83.459 4.544 83.433 4.674L79.299 17.024C78.779 18.558 78.311 19 77.297 19H74.333C73.163 19 72.643 18.636 72.149 17.024L67.365 1.398C67.261 1.06 67.287 0.799999 67.573 0.799999ZM109.521 0.799999H111.055C112.381 0.799999 113.187 1.216 114.045 2.776L122.651 18.402C122.833 18.74 122.755 19 122.339 19H119.037C118.699 19 118.569 18.922 118.439 18.662L116.593 15.308H104.373L102.579 18.662C102.449 18.922 102.293 19 101.981 19H98.6009C98.1589 19 98.0809 18.74 98.2629 18.402L106.791 2.776C107.649 1.216 108.429 0.799999 109.521 0.799999ZM110.093 4.674L106.011 12.292H114.955L110.821 4.674C110.743 4.544 110.665 4.492 110.535 4.492H110.379C110.249 4.492 110.171 4.544 110.093 4.674ZM118.99 0.799999H122.266C122.604 0.799999 122.734 0.903999 122.864 1.138L130.482 15.126C130.56 15.282 130.638 15.308 130.794 15.308H130.924C131.054 15.308 131.132 15.282 131.21 15.126L138.724 1.138C138.854 0.877999 139.01 0.799999 139.322 0.799999H142.728C143.144 0.799999 143.222 1.06 143.04 1.398L134.512 17.024C133.654 18.61 132.874 19 131.782 19H130.274C128.922 19 128.168 18.61 127.284 17.024L118.652 1.398C118.47 1.06 118.548 0.799999 118.99 0.799999ZM151.27 0.799999H162.71C163.1 0.799999 163.308 0.982 163.308 1.372V3.842C163.308 4.232 163.1 4.414 162.71 4.414H151.348C148.644 4.414 147.89 5.22 147.89 7.95V8.21H162.58C162.97 8.21 163.152 8.392 163.152 8.782V10.836C163.152 11.226 162.97 11.408 162.58 11.408H147.89V11.85C147.89 14.58 148.644 15.386 151.348 15.386H162.71C163.1 15.386 163.308 15.568 163.308 15.958V18.428C163.308 18.818 163.1 19 162.71 19H151.27C146.018 19 143.99 17.128 143.99 12.136V7.664C143.99 2.672 146.018 0.799999 151.27 0.799999Z" fill="white"/>
</svg>
