<svg width="319" height="333" viewBox="0 0 319 333" fill="none" xmlns="http://www.w3.org/2000/svg">
<g clip-path="url(#clip0_1668_36416)">
<path d="M134.235 185.846C134.235 185.846 133.55 74.1343 94.869 4.36148C92.2687 -0.328314 85.5192 -0.308028 82.9774 4.41518C65.9832 35.9931 24.7202 134.145 134.235 185.846Z" fill="url(#paint0_linear_1668_36416)"/>
<path opacity="0.5" d="M125.256 176.583C125.456 176.896 125.022 177.217 124.781 176.934C115.915 166.513 83.5619 117.887 86.2433 36.4598C86.2517 36.1984 86.6419 36.1877 86.6562 36.449C87.6884 55.7046 93.5739 127.189 125.256 176.584V176.583Z" fill="white"/>
<path opacity="0.63" d="M110.201 184.458C111.464 185.527 103.249 82.0174 44.7123 9.88653C41.3197 5.70629 34.7456 6.60725 32.9067 11.6682C20.6142 45.5086 -6.11047 149.016 110.201 184.458Z" fill="url(#paint1_linear_1668_36416)"/>
<path opacity="0.24" d="M99.935 176.561C100.18 176.843 99.7942 177.225 99.5149 176.979C89.1938 167.914 49.9834 124.311 40.8102 43.0286C40.7804 42.7673 41.167 42.7005 41.2183 42.9582C45.043 61.9382 61.2818 132.096 99.935 176.562V176.561Z" fill="white"/>
<path d="M314.859 128.231C314.813 126.15 312.819 124.438 310.372 124.438H217.943C215.464 124.438 213.031 126.24 213.031 128.349V316.851C213.031 317.865 213.719 318.838 214.562 319.555C215.406 320.271 216.657 320.672 217.85 320.67L314.491 320.445C315.694 320.443 316.87 320.029 317.711 319.297C318.553 318.566 319.026 317.555 319.004 316.531L314.859 128.231Z" fill="url(#paint2_linear_1668_36416)"/>
<g opacity="0.68">
<path d="M246.791 146.651L220.459 146.621L220.25 135.134H246.607L246.791 146.651Z" fill="url(#paint3_linear_1668_36416)"/>
<path d="M276.305 146.645L250.001 146.615L249.82 135.134H276.151L276.305 146.645Z" fill="url(#paint4_linear_1668_36416)"/>
<path d="M305.785 146.639L279.507 146.609L279.355 135.134H305.659L305.785 146.639Z" fill="url(#paint5_linear_1668_36416)"/>
<path d="M247.118 167.269L220.833 167.283L220.625 155.871L246.936 155.863L247.118 167.269Z" fill="url(#paint6_linear_1668_36416)"/>
<path d="M276.579 167.251L250.32 167.266L250.141 155.861L276.425 155.852L276.579 167.251Z" fill="url(#paint7_linear_1668_36416)"/>
<path d="M306.012 167.236L279.779 167.251L279.629 155.851L305.887 155.841L306.012 167.236Z" fill="url(#paint8_linear_1668_36416)"/>
<path d="M247.451 187.743L221.212 187.766L221.004 176.395L247.269 176.377L247.451 187.743Z" fill="url(#paint9_linear_1668_36416)"/>
<path d="M276.866 187.717L250.652 187.74L250.473 176.375L276.712 176.355L276.866 187.717Z" fill="url(#paint10_linear_1668_36416)"/>
<path d="M306.244 187.691L280.057 187.713L279.906 176.354L306.119 176.335L306.244 187.691Z" fill="url(#paint11_linear_1668_36416)"/>
<path d="M247.772 208.147L221.579 208.181L221.371 196.848L247.591 196.82L247.772 208.147Z" fill="url(#paint12_linear_1668_36416)"/>
<path d="M277.132 208.111L250.963 208.143L250.785 196.817L276.979 196.79L277.132 208.111Z" fill="url(#paint13_linear_1668_36416)"/>
<path d="M306.467 208.074L280.326 208.107L280.176 196.787L306.343 196.759L306.467 208.074Z" fill="url(#paint14_linear_1668_36416)"/>
<path d="M248.101 228.481L221.953 228.523L221.746 217.229L247.919 217.193L248.101 228.481Z" fill="url(#paint15_linear_1668_36416)"/>
<path d="M277.413 228.434L251.291 228.476L251.113 217.188L277.26 217.151L277.413 228.434Z" fill="url(#paint16_linear_1668_36416)"/>
<path d="M306.691 228.388L280.594 228.43L280.445 217.148L306.567 217.111L306.691 228.388Z" fill="url(#paint17_linear_1668_36416)"/>
<path d="M248.423 248.745L222.319 248.795L222.113 237.541L248.242 237.496L248.423 248.745Z" fill="url(#paint18_linear_1668_36416)"/>
<path d="M277.684 248.688L251.606 248.739L251.43 237.491L277.531 237.444L277.684 248.688Z" fill="url(#paint19_linear_1668_36416)"/>
<path d="M306.912 248.632L280.86 248.682L280.711 237.44L306.788 237.395L306.912 248.632Z" fill="url(#paint20_linear_1668_36416)"/>
<path d="M248.747 268.939L222.688 268.999L222.484 257.783L248.567 257.729L248.747 268.939Z" fill="url(#paint21_linear_1668_36416)"/>
<path d="M277.954 268.872L251.923 268.932L251.746 257.722L277.802 257.668L277.954 268.872Z" fill="url(#paint22_linear_1668_36416)"/>
<path d="M307.136 268.807L281.128 268.865L280.98 257.661L307.012 257.607L307.136 268.807Z" fill="url(#paint23_linear_1668_36416)"/>
<path d="M249.065 289.063L223.052 289.131L222.848 277.954L248.886 277.891L249.065 289.063Z" fill="url(#paint24_linear_1668_36416)"/>
<path d="M278.225 288.987L252.238 289.055L252.062 277.884L278.075 277.821L278.225 288.987Z" fill="url(#paint25_linear_1668_36416)"/>
<path d="M307.351 288.911L281.39 288.979L281.242 277.813L307.228 277.75L307.351 288.911Z" fill="url(#paint26_linear_1668_36416)"/>
<path d="M249.391 309.118L223.423 309.196L223.219 298.057L249.213 297.985L249.391 309.118Z" fill="url(#paint27_linear_1668_36416)"/>
<path d="M278.5 309.033L252.558 309.11L252.383 297.976L278.35 297.905L278.5 309.033Z" fill="url(#paint28_linear_1668_36416)"/>
<path d="M307.579 308.946L281.662 309.023L281.516 297.896L307.457 297.823L307.579 308.946Z" fill="url(#paint29_linear_1668_36416)"/>
</g>
<path d="M134.016 103.967C133.982 102.533 132.459 101.378 130.594 101.378H17.4638C15.5736 101.378 13.5664 102.568 13.5664 104.022V307.156C13.5664 308.242 14.3659 309.282 15.3648 310.049C16.3636 310.815 17.8373 311.244 19.2479 311.241L133.618 311.001C135.042 310.998 136.433 310.556 137.428 309.773C138.423 308.99 138.984 307.93 138.957 306.836L134.016 103.967Z" fill="url(#paint30_linear_1668_36416)"/>
<g style="mix-blend-mode:overlay">
<path d="M69.0466 115.773L32.0391 115.675L32.0522 112.113L69.0192 112.203L69.0466 115.773Z" fill="white"/>
</g>
<g style="mix-blend-mode:overlay">
<path d="M69.1525 128.895L31.9922 128.765L32.0065 125.173L69.1251 125.295L69.1525 128.895Z" fill="white"/>
</g>
<g style="mix-blend-mode:overlay">
<path d="M69.2518 142.126L31.9375 141.964L31.9518 138.342L69.2231 138.496L69.2518 142.126Z" fill="white"/>
</g>
<g style="mix-blend-mode:overlay">
<path d="M69.3549 155.466L31.8867 155.271L31.901 151.619L69.3275 151.807L69.3549 155.466Z" fill="white"/>
</g>
<g style="mix-blend-mode:overlay">
<path d="M69.4593 168.917L31.8359 168.688L31.8503 165.005L69.4306 165.226L69.4593 168.917Z" fill="white"/>
</g>
<g style="mix-blend-mode:overlay">
<path d="M69.6673 196.159L31.7266 195.86L31.7421 192.117L69.6387 192.405L69.6673 196.159Z" fill="white"/>
</g>
<g style="mix-blend-mode:overlay">
<path d="M69.9905 237.89L31.5664 237.484L31.5819 233.646L69.9606 234.041L69.9905 237.89Z" fill="white"/>
</g>
<g style="mix-blend-mode:overlay">
<path d="M69.5621 182.481L31.7812 182.218L31.7956 178.504L69.5335 178.759L69.5621 182.481Z" fill="white"/>
</g>
<g style="mix-blend-mode:overlay">
<path d="M69.7792 209.952L31.6797 209.619L31.694 205.844L69.7505 206.167L69.7792 209.952Z" fill="white"/>
</g>
<g style="mix-blend-mode:overlay">
<path d="M69.8817 223.862L31.6211 223.493L31.6354 219.685L69.853 220.045L69.8817 223.862Z" fill="white"/>
</g>
<g style="mix-blend-mode:overlay">
<path d="M70.1032 252.039L31.5156 251.596L31.5299 247.724L70.0733 248.156L70.1032 252.039Z" fill="white"/>
</g>
<g style="mix-blend-mode:overlay">
<path d="M70.2104 266.308L31.457 265.829L31.4725 261.923L70.1806 262.392L70.2104 266.308Z" fill="white"/>
</g>
<g style="mix-blend-mode:overlay">
<path d="M70.3267 280.701L31.4062 280.183L31.4206 276.244L70.2957 276.751L70.3267 280.701Z" fill="white"/>
</g>
<g style="mix-blend-mode:overlay">
<path d="M70.4364 295.22L31.3477 294.662L31.3632 290.688L70.4054 291.235L70.4364 295.22Z" fill="white"/>
</g>
<g style="mix-blend-mode:overlay">
<path d="M117.569 115.904L80.3296 115.804L80.2891 112.23L117.486 112.321L117.569 115.904Z" fill="white"/>
</g>
<g style="mix-blend-mode:overlay">
<path d="M117.871 129.067L80.4781 128.935L80.4375 125.332L117.789 125.454L117.871 129.067Z" fill="white"/>
</g>
<g style="mix-blend-mode:overlay">
<path d="M118.177 142.34L80.6277 142.176L80.5859 138.542L118.094 138.698L118.177 142.34Z" fill="white"/>
</g>
<g style="mix-blend-mode:overlay">
<path d="M118.482 155.722L80.7761 155.525L80.7344 151.862L118.397 152.05L118.482 155.722Z" fill="white"/>
</g>
<g style="mix-blend-mode:overlay">
<path d="M118.793 169.218L80.9285 168.988L80.8867 165.293L118.707 165.515L118.793 169.218Z" fill="white"/>
</g>
<g style="mix-blend-mode:overlay">
<path d="M119.421 196.55L81.2371 196.249L81.1953 192.494L119.335 192.784L119.421 196.55Z" fill="white"/>
</g>
<g style="mix-blend-mode:overlay">
<path d="M120.378 238.423L81.7043 238.014L81.6602 234.161L120.289 234.56L120.378 238.423Z" fill="white"/>
</g>
<g style="mix-blend-mode:overlay">
<path d="M119.104 182.826L81.0808 182.562L81.0391 178.836L119.018 179.093L119.104 182.826Z" fill="white"/>
</g>
<g style="mix-blend-mode:overlay">
<path d="M119.736 210.389L81.3906 210.054L81.3477 206.266L119.649 206.592L119.736 210.389Z" fill="white"/>
</g>
<g style="mix-blend-mode:overlay">
<path d="M120.061 224.346L81.5508 223.975L81.5078 220.154L119.972 220.515L120.061 224.346Z" fill="white"/>
</g>
<g style="mix-blend-mode:overlay">
<path d="M120.704 252.619L81.8633 252.174L81.8203 248.288L120.614 248.724L120.704 252.619Z" fill="white"/>
</g>
<g style="mix-blend-mode:overlay">
<path d="M121.033 266.939L82.0246 266.455L81.9805 262.535L120.943 263.009L121.033 266.939Z" fill="white"/>
</g>
<g style="mix-blend-mode:overlay">
<path d="M121.366 281.382L82.1887 280.86L82.1445 276.907L121.275 277.417L121.366 281.382Z" fill="white"/>
</g>
<g style="mix-blend-mode:overlay">
<path d="M121.702 295.95L82.3539 295.389L82.3086 291.402L121.61 291.952L121.702 295.95Z" fill="white"/>
</g>
<path d="M264.285 54.3657C262.026 52.7762 261.482 49.6449 263.071 47.3859C264.661 45.1269 267.792 44.5827 270.051 46.1723C272.31 47.7618 272.854 50.8931 271.265 53.1521C269.675 55.411 266.544 55.9552 264.285 54.3657ZM265.429 52.7404C266.792 53.6986 268.68 53.3704 269.638 52.0088C270.596 50.6461 270.268 48.7582 268.907 47.8C267.544 46.8417 265.656 47.1699 264.698 48.5315C263.739 49.8943 264.068 51.7821 265.429 52.7404Z" fill="white"/>
<path d="M258.429 44.1199C255.038 48.9386 256.199 55.6177 261.018 59.0091C261.316 59.2191 261.623 59.4101 261.934 59.5843C262.354 59.8182 262.45 60.3779 262.118 60.7263L261.033 61.8648C260.796 62.113 260.42 62.1595 260.125 61.9829C259.846 61.8158 259.57 61.638 259.301 61.4483C253.137 57.1105 251.653 48.5675 255.99 42.4039C256.318 41.9373 256.673 41.4982 257.048 41.0865C257.328 40.7786 257.808 40.7631 258.104 41.0566L259.192 42.1366C259.468 42.4099 259.478 42.849 259.218 43.1366C258.939 43.4445 258.674 43.7715 258.429 44.1199Z" fill="white"/>
<path d="M252.131 39.6854C246.294 47.9778 248.293 59.472 256.585 65.3086L256.593 65.3133C256.955 65.5687 257.014 66.083 256.707 66.404L255.643 67.521C255.28 67.5568 255.047 67.5807 254.684 67.6165C245.202 60.7942 242.953 47.5446 249.693 37.9693C250.281 37.134 250.921 36.356 251.603 35.6328C251.88 35.3381 252.349 35.3392 252.637 35.6244L253.721 36.702C253.998 36.9765 254.013 37.4228 253.747 37.7068C253.171 38.3202 252.631 38.9789 252.133 39.6854H252.131Z" fill="white"/>
<path d="M245.83 35.2521C237.764 46.7117 240.249 62.4792 251.255 70.9423C251.601 71.2084 251.647 71.7096 251.347 72.0258L250.291 73.1332C250.034 73.4017 249.613 73.4387 249.319 73.2108C237.157 63.7572 234.434 46.2642 243.392 33.5349C244.233 32.3392 245.153 31.2318 246.134 30.2055C246.413 29.9132 246.882 29.9132 247.17 30.1984L248.254 31.2748C248.536 31.5552 248.536 32.0063 248.261 32.2951C247.392 33.208 246.577 34.1913 245.83 35.2521Z" fill="white"/>
<path d="M281.045 44.3008H280.746C280.025 44.3008 279.441 44.8847 279.441 45.6051V65.2915C279.441 66.0118 280.025 66.5958 280.746 66.5958H281.045C281.766 66.5958 282.35 66.0118 282.35 65.2915V45.6051C282.35 44.8847 281.766 44.3008 281.045 44.3008Z" fill="url(#paint31_linear_1668_36416)"/>
<path d="M290.356 85.1507L286.641 85.5713L287.482 93.0012L291.197 92.5806L290.356 85.1507Z" fill="url(#paint32_linear_1668_36416)"/>
<path d="M294.286 77.1711C294.255 76.8978 294.055 76.6735 293.788 76.6102C293.521 76.547 293.241 76.6592 293.092 76.8907L289.963 81.7284C289.571 82.3358 289.413 83.0673 289.522 83.7821L290.988 93.4791C291.093 94.1713 291.439 94.8049 291.967 95.2668L295.549 98.404C295.751 98.5806 296.042 98.6152 296.28 98.4911C296.518 98.367 296.654 98.1081 296.624 97.8408L294.284 77.1699L294.286 77.1711Z" fill="url(#paint33_linear_1668_36416)"/>
<path d="M271.556 85.1736L270.715 92.6035L274.43 93.0242L275.271 85.5942L271.556 85.1736Z" fill="url(#paint34_linear_1668_36416)"/>
<path d="M267.613 77.1711C267.644 76.8978 267.843 76.6735 268.11 76.6102C268.377 76.547 268.657 76.6592 268.806 76.8907L271.935 81.7284C272.327 82.3358 272.485 83.0673 272.376 83.7821L270.91 93.4791C270.805 94.1713 270.459 94.8049 269.931 95.2668L266.349 98.404C266.147 98.5806 265.856 98.6152 265.618 98.4911C265.38 98.367 265.244 98.1081 265.274 97.8408L267.614 77.1699L267.613 77.1711Z" fill="url(#paint35_linear_1668_36416)"/>
<path d="M292.822 122.522L292.203 117.857C292.203 117.857 292.203 117.851 292.203 117.848L285.346 66.1366C285.258 65.4731 284.692 64.8979 284.023 64.8979H277.435C276.754 64.8979 276.038 65.4898 275.965 66.1676L275.328 70.7918V70.7954L269.734 123.684C269.654 124.418 270.255 125.076 270.989 125.156C271.038 125.161 271.123 125.165 271.17 125.165C271.844 125.165 272.44 124.658 272.514 123.974L272.98 119.767L281.315 116.715L289.671 119.066L290.177 122.871C290.273 123.601 290.942 124.112 291.677 124.019C292.408 123.922 292.923 123.251 292.825 122.519L292.822 122.522ZM277.916 74.3157L279.111 75.8133L277.505 78.1081L277.916 74.3169V74.3157ZM283.457 97.248L286.483 95.0713L287.085 99.5976L283.458 97.248H283.457ZM286.325 102.287L281.208 105.574L275.966 102.637L281.129 98.9222L286.325 102.287ZM281.05 95.6895L276.721 92.8851L280.9 89.0868L285.307 92.6262L281.05 95.6895ZM282.901 87.2693L285.172 85.2061L285.749 89.5581L282.9 87.2705L282.901 87.2693ZM284.204 77.9112L282.445 75.7083L283.678 73.9482L284.204 77.9112ZM284.335 82.3576L280.792 85.5772L277.427 82.8755L280.847 77.99L284.334 82.3588L284.335 82.3576ZM276.681 85.7001L278.791 87.3946L276.246 89.7073L276.68 85.7001H276.681ZM275.634 95.3625L278.723 97.3637L275.136 99.9449L275.634 95.3625ZM274.595 104.929L278.662 107.209L274.025 110.187L274.595 104.931V104.929ZM281.302 108.687L286.902 111.826L281.208 113.912L275.616 112.339L281.301 108.687H281.302ZM283.847 107.052L287.741 104.551L288.413 109.611L283.846 107.052H283.847ZM282.851 67.8061L283.157 70.0746L280.709 73.552L278.326 70.5961L278.631 67.8061H282.851ZM273.307 116.807L273.554 114.532L276.925 115.481L273.307 116.807ZM285.598 115.147L288.983 113.907L289.286 116.185L285.598 115.147Z" fill="url(#paint36_linear_1668_36416)"/>
<path d="M232.081 316.585C232.028 321.802 227.546 326.032 222.067 326.044L89.6482 326.333C84.1303 326.345 79.5515 322.118 79.4202 316.879L73.2495 70.2406C73.1027 64.3766 77.734 59.6343 83.5921 59.6617L224.153 60.3336C229.967 60.361 234.63 65.1284 234.571 70.9662L232.081 316.585Z" fill="url(#paint37_linear_1668_36416)"/>
<path d="M220.143 85.2013C220.182 79.5664 215.559 74.9673 209.815 74.9422L98.2526 74.4518C92.4733 74.4267 87.8862 79.0007 88.0103 84.6559L92.5962 294.358C92.7084 299.494 97.2514 303.642 102.741 303.633L208.729 303.465C214.187 303.457 218.639 299.308 218.675 294.188L220.142 85.2013H220.143Z" fill="url(#paint38_linear_1668_36416)"/>
<path d="M170.847 66.961C170.85 68.0541 169.971 68.936 168.883 68.9312L139.849 68.7999C138.76 68.7952 137.865 67.9037 137.852 66.8095C137.839 65.714 138.712 64.8297 139.804 64.8345L168.871 64.9705C169.961 64.9753 170.845 65.8667 170.847 66.961Z" fill="url(#paint39_linear_1668_36416)"/>
<g opacity="0.27">
<path d="M196.305 233.944L213.029 217.339L212.41 252.371L196.34 233.983L196.305 233.944Z" fill="white"/>
<path d="M188.227 241.966L211.866 269.032L212.106 269.309L211.424 290.755C211.371 292.812 210.269 294.792 208.526 296.255C206.989 297.542 204.994 298.332 202.905 298.5L169.504 260.559L188.227 241.963V241.966Z" fill="white"/>
<path d="M208.051 206.514L188.96 225.547L180.906 233.576L162.18 252.243L131.395 217.279L131.399 217.274L150.052 198.367L149.999 198.366L149.897 198.314V198.309L158.026 190.167L158.102 190.176L158.122 190.182L158.136 190.176L158.148 190.167L177.249 170.823L215.316 132.327L213.879 195.477L208.051 206.514Z" fill="white"/>
<path d="M188.177 298.546L131.207 298.589L161.573 268.438L188.177 298.546Z" fill="white"/>
<path d="M154.251 260.148L115.679 298.6L112.155 298.602C109.808 298.603 107.531 297.811 105.823 296.39C104.11 294.967 103.102 293.034 103.03 291.013L101.426 247.657L123.473 225.307L154.252 260.148H154.251Z" fill="white"/>
<path d="M116.03 216.871L100.883 232.306L99.6523 198.352L116.016 216.871H116.03Z" fill="white"/>
<path d="M177.898 153.897L147.285 118.298L179.537 84.9292L206.159 84.7585C211.826 84.7215 216.255 89.2085 216.116 94.8171L215.611 115.518L177.898 153.898V153.897Z" fill="white"/>
<path d="M118.922 85.3194L163.209 85.0342L139.692 109.466L118.922 85.3194Z" fill="white"/>
<path d="M139.15 126.716L169.758 162.179L150.68 181.596L142.651 189.77L124.239 208.782L99.5721 180.405V180.401L98.7582 168.774L98.6914 168.711L139.15 126.716Z" fill="white"/>
<path d="M103.689 85.624L131.555 117.918L97.9095 152.865L95.7925 95.7638C95.6052 90.8031 99.005 86.6169 103.69 85.624H103.689Z" fill="white"/>
</g>
<path d="M152.929 95.7705H104.378C103.52 95.7705 102.824 96.4661 102.824 97.3242V97.3338C102.824 98.1919 103.52 98.8875 104.378 98.8875H152.929C153.787 98.8875 154.482 98.1919 154.482 97.3338V97.3242C154.482 96.4661 153.787 95.7705 152.929 95.7705Z" fill="white"/>
<path d="M152.929 104.232H104.378C103.52 104.232 102.824 104.928 102.824 105.786V105.796C102.824 106.654 103.52 107.349 104.378 107.349H152.929C153.787 107.349 154.482 106.654 154.482 105.796V105.786C154.482 104.928 153.787 104.232 152.929 104.232Z" fill="white"/>
<path d="M152.929 112.693H104.378C103.52 112.693 102.824 113.389 102.824 114.247V114.257C102.824 115.115 103.52 115.81 104.378 115.81H152.929C153.787 115.81 154.482 115.115 154.482 114.257V114.247C154.482 113.389 153.787 112.693 152.929 112.693Z" fill="white"/>
<path d="M187.957 112.388C186.202 112.388 184.651 111.469 183.807 109.929C179.419 101.926 174.188 91.3863 174.188 86.6273C174.188 79.0353 180.364 72.8574 187.957 72.8574C195.551 72.8574 201.727 79.0341 201.727 86.6273C201.727 91.3875 196.496 101.926 192.108 109.929C191.264 111.469 189.713 112.388 187.957 112.388ZM187.957 75.0639C181.581 75.0639 176.394 80.2513 176.394 86.6273C176.394 89.928 179.801 98.0343 185.741 108.869C186.192 109.691 187.021 110.181 187.957 110.181C188.894 110.181 189.722 109.691 190.173 108.869C196.114 98.0343 199.521 89.928 199.521 86.6273C199.521 80.2513 194.333 75.0639 187.957 75.0639Z" fill="white"/>
<path d="M187.958 95.2801C183.354 95.2801 179.609 91.5342 179.609 86.9315C179.609 82.3289 183.355 78.583 187.958 78.583C192.561 78.583 196.306 82.3289 196.306 86.9315C196.306 91.5342 192.561 95.2801 187.958 95.2801ZM187.958 80.7883C184.571 80.7883 181.815 83.5437 181.815 86.9315C181.815 90.3194 184.57 93.0748 187.958 93.0748C191.346 93.0748 194.101 90.3194 194.101 86.9315C194.101 83.5437 191.346 80.7883 187.958 80.7883Z" fill="white"/>
<path d="M187.881 127.462C190.774 127.462 193.12 125.116 193.12 122.222C193.12 119.328 190.774 116.982 187.881 116.982C184.987 116.982 182.641 119.328 182.641 122.222C182.641 125.116 184.987 127.462 187.881 127.462Z" fill="white"/>
<path d="M197.421 302.539C197.035 302.539 196.652 302.383 196.373 302.075L193.663 299.083C193.139 298.505 193.183 297.612 193.761 297.088C194.338 296.564 195.232 296.608 195.756 297.186L198.466 300.178C198.99 300.756 198.946 301.649 198.368 302.173C198.097 302.417 197.758 302.539 197.419 302.539H197.421ZM190.645 295.061C190.259 295.061 189.876 294.904 189.597 294.596L186.887 291.606C186.363 291.027 186.407 290.134 186.985 289.611C187.562 289.087 188.456 289.131 188.98 289.71L191.69 292.7C192.214 293.279 192.17 294.172 191.592 294.695C191.321 294.94 190.982 295.062 190.644 295.062L190.645 295.061ZM183.869 287.583C183.484 287.583 183.101 287.427 182.821 287.119L180.111 284.128C179.587 283.55 179.632 282.657 180.209 282.133C180.787 281.609 181.68 281.653 182.204 282.231L184.914 285.223C185.438 285.8 185.394 286.694 184.817 287.218C184.546 287.463 184.207 287.584 183.868 287.584L183.869 287.583ZM177.093 280.105C176.708 280.105 176.325 279.948 176.046 279.64L173.336 276.65C172.812 276.071 172.856 275.178 173.433 274.655C174.011 274.131 174.905 274.175 175.429 274.752L178.139 277.744C178.663 278.323 178.618 279.216 178.041 279.739C177.77 279.984 177.431 280.106 177.092 280.106L177.093 280.105ZM170.318 272.627C169.932 272.627 169.549 272.471 169.27 272.163L166.56 269.171C166.036 268.592 166.08 267.7 166.658 267.176C167.236 266.652 168.129 266.696 168.653 267.275L171.363 270.267C171.887 270.846 171.843 271.738 171.265 272.262C170.994 272.507 170.655 272.628 170.316 272.628L170.318 272.627ZM163.542 265.149C163.156 265.149 162.773 264.992 162.494 264.684L159.784 261.693C159.26 261.114 159.304 260.221 159.882 259.697C160.459 259.175 161.353 259.218 161.877 259.795L164.587 262.787C165.111 263.366 165.067 264.258 164.489 264.782C164.218 265.027 163.88 265.149 163.541 265.149H163.542ZM156.766 257.67C156.381 257.67 155.998 257.514 155.718 257.206L153.008 254.214C152.484 253.635 152.529 252.743 153.106 252.219C153.684 251.696 154.578 251.739 155.101 252.317L157.811 255.308C158.335 255.887 158.291 256.78 157.714 257.304C157.443 257.548 157.104 257.67 156.765 257.67H156.766ZM149.99 250.193C149.605 250.193 149.222 250.036 148.943 249.728L146.233 246.737C145.709 246.158 145.753 245.265 146.33 244.741C146.908 244.219 147.802 244.262 148.326 244.839L151.036 247.831C151.56 248.41 151.515 249.302 150.938 249.826C150.667 250.071 150.328 250.193 149.989 250.193H149.99ZM143.215 242.714C142.829 242.714 142.446 242.558 142.167 242.25L139.457 239.258C138.933 238.679 138.977 237.787 139.555 237.263C140.132 236.74 141.026 236.783 141.55 237.361L144.26 240.352C144.784 240.931 144.74 241.824 144.162 242.348C143.891 242.592 143.552 242.714 143.213 242.714H143.215ZM136.439 235.236C136.053 235.236 135.67 235.08 135.391 234.772L132.681 231.781C132.157 231.202 132.201 230.309 132.779 229.785C133.357 229.261 134.25 229.306 134.774 229.884L137.484 232.876C138.008 233.455 137.964 234.347 137.386 234.871C137.116 235.116 136.777 235.238 136.438 235.238L136.439 235.236ZM129.663 227.758C129.278 227.758 128.895 227.602 128.615 227.294L126.216 224.645C126.089 224.505 125.97 224.363 125.855 224.218C125.372 223.606 125.476 222.717 126.089 222.234C126.703 221.751 127.59 221.856 128.074 222.468C128.149 222.563 128.228 222.656 128.31 222.748L130.71 225.397C131.234 225.975 131.189 226.869 130.612 227.393C130.341 227.637 130.002 227.759 129.663 227.759V227.758ZM125.773 219.037C125.656 219.037 125.535 219.022 125.417 218.992C124.662 218.796 124.208 218.024 124.405 217.269C124.748 215.951 125.429 214.734 126.376 213.748L126.847 213.258C127.388 212.696 128.283 212.678 128.845 213.218C129.407 213.759 129.425 214.653 128.884 215.216L128.413 215.706C127.8 216.344 127.36 217.13 127.139 217.98C126.975 218.616 126.401 219.038 125.773 219.038V219.037ZM132.059 211.283C131.707 211.283 131.355 211.152 131.081 210.889C130.518 210.348 130.5 209.455 131.04 208.891L133.836 205.981C134.377 205.419 135.271 205.4 135.834 205.94C136.397 206.481 136.415 207.375 135.874 207.938L133.079 210.848C132.802 211.137 132.431 211.283 132.059 211.283ZM139.05 204.006C138.698 204.006 138.346 203.875 138.071 203.612C137.508 203.071 137.49 202.178 138.031 201.614L140.827 198.704C141.367 198.142 142.261 198.124 142.824 198.663C143.388 199.204 143.406 200.099 142.865 200.661L140.069 203.571C139.792 203.86 139.421 204.006 139.05 204.006ZM146.04 196.729C145.688 196.729 145.336 196.598 145.062 196.335C144.499 195.795 144.481 194.901 145.021 194.337L147.817 191.427C148.358 190.865 149.252 190.847 149.815 191.386C150.378 191.927 150.396 192.821 149.856 193.384L147.06 196.295C146.783 196.583 146.412 196.729 146.04 196.729ZM153.031 189.452C152.679 189.452 152.327 189.321 152.052 189.058C151.489 188.518 151.471 187.623 152.012 187.061L154.808 184.15C155.348 183.588 156.242 183.57 156.805 184.109C157.369 184.65 157.387 185.545 156.846 186.107L154.05 189.018C153.773 189.306 153.402 189.452 153.031 189.452ZM160.022 182.175C159.67 182.175 159.317 182.044 159.043 181.781C158.48 181.241 158.462 180.347 159.002 179.784L161.798 176.873C162.339 176.311 163.233 176.293 163.796 176.833C164.359 177.373 164.377 178.267 163.837 178.83L161.041 181.741C160.764 182.029 160.393 182.175 160.022 182.175ZM167.012 174.898C166.66 174.898 166.308 174.767 166.034 174.504C165.47 173.964 165.452 173.07 165.993 172.507L168.789 169.596C169.33 169.034 170.223 169.016 170.787 169.556C171.35 170.096 171.368 170.99 170.827 171.553L168.031 174.464C167.754 174.753 167.383 174.898 167.012 174.898ZM174.003 167.621C173.651 167.621 173.299 167.49 173.024 167.227C172.461 166.687 172.443 165.793 172.983 165.23L175.779 162.319C176.32 161.757 177.214 161.739 177.777 162.279C178.34 162.819 178.358 163.713 177.818 164.276L175.022 167.187C174.745 167.476 174.374 167.621 174.003 167.621ZM180.993 160.344C180.641 160.344 180.289 160.213 180.015 159.95C179.451 159.41 179.433 158.516 179.974 157.953L182.77 155.042C183.311 154.48 184.204 154.462 184.768 155.002C185.331 155.542 185.349 156.436 184.808 156.999L182.012 159.91C181.735 160.199 181.364 160.344 180.993 160.344ZM187.984 153.067C187.632 153.067 187.28 152.936 187.005 152.674C186.442 152.133 186.424 151.239 186.965 150.676L189.761 147.765C190.301 147.203 191.195 147.185 191.758 147.725C192.321 148.265 192.339 149.159 191.799 149.722L189.003 152.633C188.726 152.922 188.355 153.067 187.984 153.067ZM194.974 145.79C194.622 145.79 194.27 145.659 193.996 145.397C193.432 144.856 193.415 143.962 193.955 143.399L196.521 140.728C196.582 140.665 196.641 140.601 196.697 140.534C197.209 139.944 198.102 139.882 198.69 140.395C199.279 140.907 199.342 141.8 198.829 142.388C198.74 142.488 198.651 142.587 198.557 142.685L195.991 145.356C195.714 145.645 195.343 145.79 194.972 145.79H194.974ZM199.247 137.221C198.59 137.221 198 136.759 197.864 136.09C197.687 135.215 197.281 134.396 196.693 133.72L196.276 133.243C195.763 132.654 195.825 131.762 196.413 131.25C197.002 130.737 197.894 130.797 198.406 131.387L198.823 131.864C199.732 132.908 200.358 134.175 200.633 135.527C200.788 136.291 200.295 137.037 199.53 137.192C199.435 137.212 199.341 137.221 199.247 137.221ZM193.366 129.161C192.972 129.161 192.579 128.997 192.3 128.676L192.052 128.39C191.54 127.802 191.601 126.91 192.189 126.398C192.777 125.886 193.67 125.948 194.182 126.536L194.43 126.821C194.942 127.41 194.881 128.302 194.293 128.814C194.025 129.047 193.695 129.161 193.366 129.161Z" fill="white"/>
<path d="M156.165 300.515H7.11914V314.189H156.165V300.515Z" fill="url(#paint40_linear_1668_36416)"/>
<path d="M8.21383 300.515H3.83789V317.471H8.21383V300.515Z" fill="url(#paint41_linear_1668_36416)"/>
<path d="M154.525 222.271C154.525 219.013 151.082 216.284 147.348 216.284H6.70196C2.96803 216.284 0.00976562 219.013 0.00976562 222.271V296.393C0.00976562 299.651 2.96803 302.429 6.70196 302.429H147.349C151.083 302.429 154.526 299.651 154.526 296.393V222.271H154.525Z" fill="url(#paint42_linear_1668_36416)"/>
<path d="M149.603 225.258C149.603 222.277 147.034 219.839 143.512 219.839H10.8316C7.31005 219.839 3.83984 222.277 3.83984 225.258V293.013C3.83984 295.994 7.31005 298.874 10.8316 298.874H143.513C147.035 298.874 149.604 295.994 149.604 293.013V225.258H149.603Z" fill="url(#paint43_linear_1668_36416)"/>
<path d="M203.378 276.277L194.139 247.78C193.908 247.064 193.24 246.64 192.488 246.64H155.348V314.189H205.567L203.378 276.278V276.277Z" fill="url(#paint44_linear_1668_36416)"/>
<path d="M205.844 303.837C205.347 303.51 204.743 303.334 204.05 303.347L165.346 304.093L165.176 315.09L203.844 316.04C205.262 316.04 206.489 315.357 206.489 314.398V305.082C206.489 304.613 206.342 304.164 205.844 303.837Z" fill="url(#paint45_linear_1668_36416)"/>
<path d="M196.163 274.298L190.578 252.145C190.383 251.375 189.69 250.741 188.895 250.741H167.055C166.586 250.741 166.136 251.025 165.81 251.362C165.483 251.698 165.307 252.199 165.321 252.668L165.845 270.405C165.87 271.237 166.481 271.946 167.303 272.078L194.204 276.43C194.781 276.523 195.367 276.323 195.761 275.892C196.156 275.461 196.307 274.863 196.163 274.296V274.298Z" fill="url(#paint46_linear_1668_36416)"/>
<path d="M195.045 250.569L194.76 250.617C194.277 250.697 193.85 250.977 193.585 251.39C193.32 251.802 193.241 252.307 193.368 252.781L199.455 275.418C199.69 276.294 200.56 276.841 201.45 276.673L203.373 276.313L195.044 250.572L195.045 250.569Z" fill="url(#paint47_linear_1668_36416)"/>
<path d="M174.216 277.816H167.379C166.473 277.816 165.738 278.551 165.738 279.457V280.278C165.738 281.184 166.473 281.919 167.379 281.919H174.216C175.122 281.919 175.857 281.184 175.857 280.278V279.457C175.857 278.551 175.122 277.816 174.216 277.816Z" fill="url(#paint48_linear_1668_36416)"/>
<path d="M157.933 226.693C157.351 226.65 156.611 226.832 156.183 227.229C155.754 227.626 155.344 228.163 155.344 228.747V246.64H177.993C177.993 246.64 176.776 228.068 157.932 226.693H157.933Z" fill="url(#paint49_linear_1668_36416)"/>
<path d="M178.568 333C188.288 333 196.167 325.12 196.167 315.401C196.167 305.681 188.288 297.801 178.568 297.801C168.848 297.801 160.969 305.681 160.969 315.401C160.969 325.12 168.848 333 178.568 333Z" fill="url(#paint50_linear_1668_36416)"/>
<path d="M179.951 329.642C187.807 328.865 193.544 321.867 192.767 314.012C191.99 306.157 184.992 300.419 177.137 301.196C169.282 301.973 163.544 308.971 164.321 316.826C165.098 324.681 172.096 330.419 179.951 329.642Z" fill="url(#paint51_linear_1668_36416)"/>
<path d="M190.574 320.702C190.525 320.702 190.476 320.692 190.428 320.672C190.239 320.592 190.149 320.372 190.23 320.183C190.87 318.669 191.194 317.061 191.194 315.402C191.194 308.631 185.686 303.122 178.914 303.122C176.812 303.122 174.74 303.661 172.92 304.681C172.74 304.783 172.512 304.718 172.411 304.538C172.31 304.358 172.374 304.13 172.555 304.03C174.487 302.947 176.686 302.375 178.915 302.375C186.099 302.375 191.944 308.218 191.944 315.402C191.944 317.161 191.599 318.868 190.92 320.474C190.859 320.617 190.721 320.703 190.575 320.703L190.574 320.702Z" fill="white"/>
<path d="M184.62 317.909C186.006 314.564 184.418 310.73 181.073 309.344C177.728 307.959 173.894 309.547 172.508 312.892C171.123 316.236 172.711 320.071 176.056 321.456C179.401 322.842 183.235 321.253 184.62 317.909Z" fill="url(#paint52_linear_1668_36416)"/>
<path d="M70.0563 333C79.7761 333 87.6555 325.121 87.6555 315.401C87.6555 305.681 79.7761 297.802 70.0563 297.802C60.3365 297.802 52.457 305.681 52.457 315.401C52.457 325.121 60.3365 333 70.0563 333Z" fill="url(#paint53_linear_1668_36416)"/>
<path d="M71.7036 329.598C79.5445 328.688 85.1631 321.594 84.2531 313.753C83.3431 305.912 76.2491 300.294 68.4082 301.204C60.5673 302.114 54.9486 309.208 55.8586 317.049C56.7686 324.89 63.8627 330.508 71.7036 329.598Z" fill="url(#paint54_linear_1668_36416)"/>
<path d="M82.0609 320.702C82.012 320.702 81.9631 320.692 81.9153 320.672C81.7256 320.592 81.6361 320.373 81.7172 320.182C82.3581 318.668 82.6827 317.06 82.6827 315.401C82.6827 308.63 77.1742 303.121 70.4021 303.121C68.3006 303.121 66.2278 303.66 64.408 304.68C64.2278 304.782 63.9999 304.717 63.8996 304.537C63.7982 304.357 63.8626 304.129 64.0428 304.029C65.9748 302.946 68.1741 302.374 70.4033 302.374C77.5871 302.374 83.4321 308.217 83.4321 315.401C83.4321 317.16 83.0872 318.867 82.4082 320.473C82.3473 320.615 82.2089 320.701 82.0633 320.701L82.0609 320.702Z" fill="white"/>
<path d="M76.3334 317.272C77.3822 313.807 75.4235 310.148 71.9586 309.099C68.4936 308.05 64.8345 310.009 63.7857 313.474C62.7369 316.939 64.6956 320.598 68.1606 321.647C71.6256 322.695 75.2847 320.737 76.3334 317.272Z" fill="url(#paint55_linear_1668_36416)"/>
<path d="M29.8024 333C39.5222 333 47.4016 325.121 47.4016 315.401C47.4016 305.681 39.5222 297.802 29.8024 297.802C20.0826 297.802 12.2031 305.681 12.2031 315.401C12.2031 325.121 20.0826 333 29.8024 333Z" fill="url(#paint56_linear_1668_36416)"/>
<path d="M31.4497 329.599C39.2906 328.689 44.9092 321.595 43.9992 313.754C43.0892 305.913 35.9952 300.294 28.1543 301.204C20.3133 302.114 14.6947 309.208 15.6047 317.049C16.5147 324.89 23.6087 330.509 31.4497 329.599Z" fill="url(#paint57_linear_1668_36416)"/>
<path d="M41.8065 320.702C41.7576 320.702 41.7086 320.692 41.6609 320.672C41.4712 320.592 41.3817 320.373 41.4628 320.182C42.1036 318.668 42.4282 317.06 42.4282 315.401C42.4282 308.63 36.9198 303.121 30.1476 303.121C28.0462 303.121 25.9734 303.66 24.1535 304.68C23.9734 304.782 23.7454 304.717 23.6452 304.537C23.5449 304.357 23.6082 304.129 23.7884 304.029C25.7204 302.946 27.9197 302.374 30.1488 302.374C37.3327 302.374 43.1776 308.217 43.1776 315.401C43.1776 317.16 42.8328 318.867 42.1538 320.473C42.0929 320.615 41.9545 320.701 41.8089 320.701L41.8065 320.702Z" fill="white"/>
<path d="M36.0795 317.273C37.1283 313.808 35.1696 310.149 31.7047 309.1C28.2397 308.051 24.5806 310.01 23.5318 313.475C22.483 316.94 24.4417 320.599 27.9067 321.648C31.3717 322.697 35.0308 320.738 36.0795 317.273Z" fill="url(#paint58_linear_1668_36416)"/>
<path d="M203.928 293.404H199.472C198.512 293.404 197.734 294.182 197.734 295.141V301.238C197.734 302.198 198.512 302.976 199.472 302.976H203.928C204.887 302.976 205.665 302.198 205.665 301.238V295.141C205.665 294.182 204.887 293.404 203.928 293.404Z" fill="url(#paint59_linear_1668_36416)"/>
<path opacity="0.8" d="M201.289 293.404V302.429H199.862C198.904 302.429 197.734 301.35 197.734 300.392V294.677C197.734 293.719 198.904 293.404 199.862 293.404H201.289Z" fill="white"/>
<path d="M158.354 291.317C158.148 291.317 157.98 291.15 157.98 290.943V250.742C157.98 250.536 158.148 250.369 158.354 250.369C158.56 250.369 158.727 250.536 158.727 250.742V290.943C158.727 291.15 158.56 291.317 158.354 291.317Z" fill="white"/>
<path d="M173.838 244.849C173.683 244.849 173.538 244.751 173.485 244.597C168.292 229.55 157.91 230.572 157.471 230.624C157.27 230.648 157.081 230.501 157.057 230.296C157.033 230.092 157.179 229.906 157.384 229.881C157.498 229.869 168.796 228.714 174.192 244.352C174.259 244.548 174.156 244.76 173.961 244.827C173.92 244.841 173.88 244.847 173.839 244.847L173.838 244.849Z" fill="white"/>
<path d="M70.3151 296.202C74.1421 296.275 77.283 293.193 77.283 289.366V258.939C77.283 254.942 74.0705 251.689 70.0729 251.646C58.0763 251.516 33.3338 251.509 13.0889 253.215C10.3264 253.448 8.1772 255.713 8.07696 258.482L6.18434 287.898C6.04352 291.788 9.11993 295.039 13.0126 295.113L70.3139 296.201L70.3151 296.202Z" fill="url(#paint60_linear_1668_36416)"/>
<path d="M70.3331 262.23C70.3844 264.818 70.3068 268.927 70.2447 271.581C70.2125 272.962 69.0001 274.014 67.6278 273.853L57.7553 272.696C56.4403 272.542 55.5131 271.329 55.71 270.02L56.9224 261.935C57.0942 260.787 58.0799 259.939 59.241 259.939H67.9906C69.265 259.939 70.3092 260.956 70.3342 262.23H70.3331Z" fill="white"/>
<path opacity="0.37" d="M44.5311 277.552L36.2947 278.441C35.142 278.565 34.1587 277.615 34.2434 276.459L36.0441 251.96C39.4964 251.85 42.9022 251.77 46.1874 251.714V275.706C46.1874 276.654 45.4726 277.45 44.5299 277.552H44.5311Z" fill="white"/>
<path d="M41.1593 273.305C41.1342 273.746 40.769 274.086 40.3335 274.086C40.3168 274.086 40.3012 274.086 40.2845 274.085C39.8275 274.058 39.479 273.667 39.5053 273.21L40.7476 251.828C41.3048 251.813 41.8574 251.801 42.4087 251.79L41.1593 273.307V273.305Z" fill="white"/>
<path d="M65.7711 269.949C65.9155 269.949 66.0372 269.837 66.0468 269.69L66.474 262.955C66.4835 262.803 66.3678 262.672 66.2162 262.662C66.0563 262.651 65.9334 262.769 65.9239 262.921L65.4966 269.657C65.4871 269.808 65.6028 269.939 65.7544 269.949C65.7604 269.949 65.7663 269.949 65.7711 269.949Z" fill="url(#paint61_linear_1668_36416)"/>
<path d="M64.8903 269.949C65.0382 269.949 65.1612 269.831 65.1659 269.681L65.3903 262.817C65.3951 262.665 65.2757 262.537 65.123 262.532C64.9475 262.524 64.8425 262.647 64.8378 262.799L64.6134 269.663C64.6086 269.816 64.728 269.944 64.8807 269.949H64.8903Z" fill="url(#paint62_linear_1668_36416)"/>
<path d="M63.7003 269.948C63.5476 269.94 63.4307 269.812 63.4378 269.659C63.5476 267.353 63.7564 262.956 63.7588 262.806C63.7588 262.654 63.8829 262.532 64.0345 262.532C64.186 262.532 64.3101 262.656 64.3101 262.808C64.3101 262.921 64.0416 268.556 63.9879 269.684C63.9808 269.832 63.8591 269.948 63.7123 269.948C63.7075 269.948 63.7039 269.948 63.6991 269.948H63.7003Z" fill="url(#paint63_linear_1668_36416)"/>
<path d="M61.872 270.224C62.1679 270.224 62.4126 269.989 62.4233 269.691C62.6572 263.041 62.6154 262.891 62.5892 262.791C62.5092 262.496 62.2025 262.323 61.9114 262.403C61.6417 262.477 61.4722 262.74 61.5092 263.01C61.5271 263.409 61.403 267.278 61.3207 269.652C61.3099 269.956 61.5486 270.212 61.8529 270.223C61.8589 270.223 61.866 270.223 61.8732 270.223L61.872 270.224Z" fill="url(#paint64_linear_1668_36416)"/>
<path d="M60.6702 269.949C60.8229 269.949 60.9458 269.826 60.9458 269.673V262.938C60.9458 262.786 60.8229 262.663 60.6702 262.663C60.5174 262.663 60.3945 262.786 60.3945 262.938V269.673C60.3945 269.826 60.5174 269.949 60.6702 269.949Z" fill="url(#paint65_linear_1668_36416)"/>
<path d="M59.7066 269.949C59.857 269.949 59.9799 269.83 59.9823 269.679C60.0348 267.339 60.1589 263.517 60.2687 263.057C60.3176 262.97 60.3164 262.861 60.2579 262.771C60.1744 262.642 60.0038 262.609 59.8761 262.692C59.7257 262.791 59.5825 262.884 59.4298 269.667C59.4262 269.82 59.5467 269.947 59.6995 269.95H59.7054L59.7066 269.949Z" fill="url(#paint66_linear_1668_36416)"/>
<path d="M67.2552 270.562C67.5475 270.562 67.791 270.333 67.8065 270.038L68.1752 262.966C68.1907 262.662 67.9569 262.402 67.6526 262.386C67.3638 262.366 67.0881 262.605 67.0726 262.909L66.7039 269.981C66.6883 270.285 66.9222 270.545 67.2265 270.561C67.2361 270.561 67.2456 270.561 67.2552 270.561V270.562Z" fill="url(#paint67_linear_1668_36416)"/>
<path d="M140.464 298.755C144.291 298.827 147.431 295.745 147.431 291.918V261.492C147.431 257.494 144.219 254.241 140.221 254.198C128.225 254.068 103.482 254.061 83.2374 255.767C80.4748 256 78.3256 258.265 78.2254 261.035L76.3328 290.45C76.192 294.34 79.2684 297.591 83.161 297.665L140.462 298.753L140.464 298.755Z" fill="url(#paint68_linear_1668_36416)"/>
<path d="M140.485 264.784C140.537 267.373 140.459 271.481 140.397 274.135C140.365 275.516 139.152 276.569 137.78 276.407L127.908 275.25C126.593 275.096 125.665 273.884 125.862 272.574L127.075 264.49C127.247 263.342 128.232 262.493 129.393 262.493H138.143C139.417 262.493 140.462 263.51 140.487 264.784H140.485Z" fill="white"/>
<path opacity="0.37" d="M114.68 280.104L106.443 280.993C105.29 281.117 104.307 280.167 104.392 279.011L106.193 254.512C109.645 254.402 113.051 254.322 116.336 254.266V278.258C116.336 279.207 115.621 280.003 114.678 280.104H114.68Z" fill="white"/>
<path d="M111.308 275.858C111.283 276.298 110.917 276.638 110.482 276.638C110.465 276.638 110.45 276.638 110.433 276.637C109.976 276.611 109.627 276.22 109.654 275.763L110.896 254.38C111.453 254.366 112.006 254.354 112.557 254.342L111.308 275.859V275.858Z" fill="white"/>
<path d="M135.92 272.502C136.064 272.502 136.186 272.389 136.195 272.243L136.622 265.508C136.632 265.356 136.516 265.225 136.365 265.215C136.205 265.203 136.082 265.321 136.072 265.474L135.645 272.209C135.636 272.361 135.751 272.492 135.903 272.502C135.909 272.502 135.915 272.502 135.92 272.502Z" fill="url(#paint69_linear_1668_36416)"/>
<path d="M135.043 272.501C135.191 272.501 135.314 272.383 135.318 272.234L135.543 265.37C135.547 265.217 135.428 265.09 135.275 265.085C135.1 265.077 134.995 265.199 134.99 265.352L134.766 272.216C134.761 272.369 134.88 272.497 135.033 272.501H135.043Z" fill="url(#paint70_linear_1668_36416)"/>
<path d="M133.849 272.5C133.696 272.493 133.579 272.364 133.586 272.212C133.696 269.906 133.905 265.509 133.907 265.358C133.907 265.207 134.031 265.085 134.183 265.085C134.334 265.085 134.459 265.209 134.459 265.361C134.459 265.474 134.19 271.109 134.136 272.237C134.129 272.385 134.008 272.5 133.861 272.5C133.856 272.5 133.852 272.5 133.848 272.5H133.849Z" fill="url(#paint71_linear_1668_36416)"/>
<path d="M132.02 272.778C132.316 272.778 132.561 272.542 132.572 272.244C132.806 265.594 132.764 265.445 132.738 265.344C132.658 265.05 132.351 264.877 132.06 264.957C131.79 265.031 131.621 265.293 131.658 265.563C131.676 265.962 131.551 269.831 131.469 272.205C131.458 272.509 131.697 272.766 132.001 272.776C132.007 272.776 132.014 272.776 132.022 272.776L132.02 272.778Z" fill="url(#paint72_linear_1668_36416)"/>
<path d="M130.819 272.502C130.971 272.502 131.094 272.379 131.094 272.226V265.491C131.094 265.338 130.971 265.215 130.819 265.215C130.666 265.215 130.543 265.338 130.543 265.491V272.226C130.543 272.379 130.666 272.502 130.819 272.502Z" fill="url(#paint73_linear_1668_36416)"/>
<path d="M129.855 272.502C130.005 272.502 130.128 272.382 130.131 272.232C130.183 269.892 130.307 266.07 130.417 265.61C130.466 265.523 130.465 265.413 130.406 265.324C130.323 265.195 130.152 265.161 130.025 265.245C129.874 265.344 129.731 265.437 129.578 272.22C129.575 272.373 129.695 272.499 129.848 272.503H129.854L129.855 272.502Z" fill="url(#paint74_linear_1668_36416)"/>
<path d="M137.404 273.115C137.696 273.115 137.939 272.886 137.955 272.591L138.324 265.52C138.339 265.215 138.105 264.955 137.801 264.94C137.512 264.919 137.237 265.158 137.221 265.462L136.852 272.534C136.837 272.838 137.071 273.098 137.375 273.114C137.385 273.114 137.394 273.114 137.404 273.114V273.115Z" fill="url(#paint75_linear_1668_36416)"/>
<path d="M59.2108 247.574V226.206C59.2108 223.398 56.9542 221.114 54.1475 221.084C45.7226 220.993 28.3465 220.988 14.1291 222.186C12.1888 222.349 10.6804 223.94 10.61 225.885L9.28062 246.543C9.18157 249.276 11.3427 251.559 14.0754 251.61L54.3169 252.375C57.0043 252.426 59.2108 250.261 59.2108 247.573V247.574Z" fill="url(#paint76_linear_1668_36416)"/>
<path d="M54.3311 228.519C54.3669 230.338 54.3132 233.222 54.269 235.086C54.2463 236.056 53.3943 236.795 52.4313 236.681L45.498 235.869C44.5744 235.76 43.924 234.909 44.0613 233.989L44.9121 228.311C45.0326 227.506 45.7248 226.909 46.5398 226.909H52.6843C53.5793 226.909 54.3132 227.623 54.3299 228.519H54.3311Z" fill="white"/>
<path opacity="0.37" d="M36.2085 239.278L30.4244 239.902C29.6153 239.989 28.9244 239.322 28.9841 238.511L30.249 221.305C32.6738 221.229 35.0653 221.173 37.3732 221.133V237.982C37.3732 238.648 36.8708 239.207 36.2097 239.278H36.2085Z" fill="white"/>
<path d="M33.8418 236.295C33.8239 236.605 33.5674 236.843 33.2619 236.843C33.25 236.843 33.2392 236.843 33.2273 236.843C32.9063 236.824 32.6616 236.55 32.6807 236.229L33.5531 221.213C33.9445 221.203 34.3323 221.195 34.7201 221.186L33.843 236.295H33.8418Z" fill="white"/>
<path d="M51.1274 233.939C51.2288 233.939 51.3147 233.86 51.3207 233.757L51.6202 229.028C51.6274 228.921 51.5462 228.829 51.4388 228.823C51.3266 228.814 51.2395 228.897 51.2336 229.004L50.934 233.733C50.9269 233.841 51.008 233.933 51.1154 233.939C51.119 233.939 51.1238 233.939 51.1274 233.939Z" fill="url(#paint77_linear_1668_36416)"/>
<path d="M50.5071 233.939C50.6109 233.939 50.6981 233.857 50.7004 233.752L50.858 228.932C50.8615 228.824 50.7768 228.735 50.6706 228.731C50.5465 228.725 50.4737 228.812 50.4701 228.919L50.3126 233.738C50.309 233.846 50.3938 233.935 50.5 233.939H50.5059H50.5071Z" fill="url(#paint78_linear_1668_36416)"/>
<path d="M49.6734 233.938C49.566 233.933 49.4837 233.842 49.4885 233.735C49.5649 232.115 49.7116 229.027 49.714 228.922C49.714 228.816 49.8011 228.73 49.9085 228.73C50.0159 228.73 50.103 228.817 50.103 228.923C50.103 229.003 49.9145 232.96 49.8763 233.753C49.8715 233.857 49.7856 233.938 49.683 233.938C49.6794 233.938 49.677 233.938 49.6734 233.938Z" fill="url(#paint79_linear_1668_36416)"/>
<path d="M48.3892 234.132C48.5969 234.132 48.7687 233.968 48.7759 233.758C48.9394 229.087 48.9107 228.982 48.8916 228.913C48.8355 228.705 48.6208 228.583 48.4155 228.641C48.2258 228.692 48.1076 228.877 48.1327 229.067C48.1446 229.347 48.0587 232.064 48.0002 233.731C47.9931 233.945 48.1601 234.125 48.3737 234.132C48.3785 234.132 48.3833 234.132 48.3881 234.132H48.3892Z" fill="url(#paint80_linear_1668_36416)"/>
<path d="M47.5488 233.939C47.6562 233.939 47.7433 233.852 47.7433 233.744V229.015C47.7433 228.908 47.6562 228.821 47.5488 228.821C47.4414 228.821 47.3555 228.908 47.3555 229.015V233.744C47.3555 233.852 47.4426 233.939 47.5488 233.939Z" fill="url(#paint81_linear_1668_36416)"/>
<path d="M46.8703 233.939C46.9754 233.939 47.0625 233.855 47.0637 233.749C47.1007 232.106 47.1878 229.421 47.2653 229.099C47.2999 229.038 47.2987 228.96 47.2582 228.897C47.1997 228.806 47.0792 228.782 46.9897 228.841C46.8835 228.91 46.7832 228.976 46.6758 233.74C46.6734 233.847 46.7582 233.935 46.8656 233.938H46.8703V233.939Z" fill="url(#paint82_linear_1668_36416)"/>
<path d="M52.1696 234.37C52.3748 234.37 52.5455 234.209 52.5562 234.002L52.8152 229.035C52.8259 228.822 52.6612 228.639 52.4476 228.627C52.2448 228.613 52.0514 228.781 52.0407 228.995L51.7817 233.962C51.771 234.175 51.9357 234.358 52.1493 234.37C52.1565 234.37 52.1624 234.37 52.1696 234.37Z" fill="url(#paint83_linear_1668_36416)"/>
<path d="M102.646 248.211V226.843C102.646 224.036 100.696 221.751 98.2699 221.722C90.9882 221.63 75.9714 221.625 63.6848 222.823C62.0082 222.987 60.7039 224.577 60.643 226.522L59.495 247.18C59.4091 249.913 61.2767 252.196 63.6395 252.247L98.4179 253.012C100.74 253.063 102.647 250.899 102.647 248.21L102.646 248.211Z" fill="url(#paint84_linear_1668_36416)"/>
<path d="M98.4298 229.156C98.4609 230.975 98.4143 233.859 98.3761 235.723C98.3559 236.692 97.6208 237.432 96.7878 237.319L90.7961 236.506C89.9978 236.397 89.4357 235.546 89.555 234.626L90.2901 228.949C90.3952 228.143 90.993 227.546 91.6971 227.546H97.0074C97.7807 227.546 98.4143 228.26 98.4298 229.156Z" fill="white"/>
<path opacity="0.37" d="M82.77 239.915L77.7712 240.539C77.0719 240.626 76.4752 239.959 76.5265 239.148L77.6196 221.942C79.7151 221.866 81.7819 221.81 83.776 221.771V238.619C83.776 239.285 83.3428 239.845 82.77 239.915Z" fill="white"/>
<path d="M80.7194 236.933C80.7038 237.242 80.4819 237.48 80.2182 237.48C80.2086 237.48 80.1991 237.48 80.1883 237.48C79.9115 237.461 79.6991 237.187 79.7158 236.866L80.47 221.85C80.8077 221.841 81.143 221.832 81.4783 221.823L80.7194 236.933Z" fill="white"/>
<path d="M95.6596 234.576C95.7479 234.576 95.8219 234.497 95.8267 234.394L96.0856 229.665C96.0916 229.558 96.0212 229.466 95.9293 229.46C95.8326 229.452 95.7575 229.534 95.7515 229.641L95.4925 234.371C95.4866 234.477 95.557 234.57 95.6489 234.576C95.6524 234.576 95.656 234.576 95.6596 234.576Z" fill="url(#paint85_linear_1668_36416)"/>
<path d="M95.1293 234.576C95.2188 234.576 95.2939 234.494 95.2963 234.389L95.4324 229.569C95.4347 229.462 95.3632 229.372 95.2701 229.368C95.1639 229.362 95.1006 229.45 95.097 229.556L94.961 234.376C94.9586 234.483 95.0302 234.573 95.1233 234.576H95.1293Z" fill="url(#paint86_linear_1668_36416)"/>
<path d="M94.3983 234.575C94.3052 234.57 94.2348 234.479 94.2384 234.372C94.3052 232.753 94.4317 229.664 94.4329 229.559C94.4329 229.453 94.5081 229.367 94.6 229.367C94.6919 229.367 94.7671 229.454 94.7671 229.561C94.7671 229.64 94.6036 233.598 94.5714 234.39C94.5666 234.494 94.4926 234.575 94.4043 234.575C94.4019 234.575 94.3995 234.575 94.3959 234.575H94.3983Z" fill="url(#paint87_linear_1668_36416)"/>
<path d="M93.2938 234.77C93.474 234.77 93.622 234.605 93.6279 234.395C93.7699 229.724 93.7449 229.619 93.7282 229.55C93.6792 229.342 93.4943 229.221 93.3165 229.278C93.153 229.329 93.0504 229.514 93.0718 229.704C93.0826 229.984 93.0074 232.701 92.9573 234.369C92.9501 234.582 93.0957 234.762 93.2807 234.77C93.2843 234.77 93.289 234.77 93.2926 234.77H93.2938Z" fill="url(#paint88_linear_1668_36416)"/>
<path d="M92.5655 234.576C92.6586 234.576 92.7326 234.489 92.7326 234.382V229.653C92.7326 229.545 92.6574 229.458 92.5655 229.458C92.4736 229.458 92.3984 229.545 92.3984 229.653V234.382C92.3984 234.489 92.4736 234.576 92.5655 234.576Z" fill="url(#paint89_linear_1668_36416)"/>
<path d="M91.9796 234.576C92.0703 234.576 92.1455 234.493 92.1467 234.386C92.1789 232.743 92.2541 230.058 92.3209 229.736C92.3507 229.675 92.3496 229.598 92.315 229.534C92.2636 229.444 92.161 229.42 92.0834 229.478C91.9916 229.547 91.9056 229.613 91.8126 234.377C91.8102 234.484 91.8842 234.573 91.976 234.575H91.9796V234.576Z" fill="url(#paint90_linear_1668_36416)"/>
<path d="M96.5623 235.007C96.739 235.007 96.8869 234.846 96.8965 234.639L97.1196 229.673C97.1292 229.459 96.9872 229.276 96.8022 229.265C96.6268 229.25 96.4597 229.418 96.4502 229.632L96.227 234.599C96.2175 234.812 96.3595 234.995 96.5444 235.007C96.5504 235.007 96.5564 235.007 96.5623 235.007Z" fill="url(#paint91_linear_1668_36416)"/>
<path d="M146.001 249.53V228.162C146.001 225.354 144.051 223.07 141.625 223.04C134.344 222.948 119.327 222.943 107.04 224.141C105.364 224.305 104.059 225.896 103.998 227.841L102.851 248.499C102.765 251.231 104.632 253.514 106.995 253.565L141.772 254.33C144.094 254.382 146.001 252.217 146.001 249.528V249.53Z" fill="url(#paint92_linear_1668_36416)"/>
<path d="M141.785 230.475C141.816 232.293 141.77 235.177 141.732 237.041C141.711 238.01 140.976 238.75 140.143 238.637L134.152 237.824C133.353 237.716 132.791 236.865 132.911 235.945L133.646 230.267C133.751 229.461 134.348 228.865 135.053 228.865H140.363C141.136 228.865 141.77 229.578 141.785 230.475Z" fill="white"/>
<path opacity="0.37" d="M126.125 241.233L121.127 241.858C120.427 241.945 119.831 241.278 119.882 240.466L120.975 223.261C123.071 223.184 125.137 223.128 127.131 223.089V239.937C127.131 240.603 126.698 241.163 126.125 241.233Z" fill="white"/>
<path d="M124.075 238.251C124.059 238.56 123.837 238.799 123.574 238.799C123.564 238.799 123.555 238.799 123.544 238.799C123.267 238.78 123.055 238.505 123.071 238.184L123.825 223.169C124.163 223.159 124.498 223.151 124.834 223.141L124.075 238.251Z" fill="white"/>
<path d="M139.004 235.893C139.004 235.893 139.011 235.893 139.015 235.893C139.103 235.893 139.177 235.814 139.182 235.712L139.441 230.983C139.447 230.875 139.377 230.783 139.285 230.777C139.187 230.769 139.113 230.851 139.107 230.959L138.848 235.688C138.842 235.795 138.912 235.887 139.004 235.893Z" fill="url(#paint93_linear_1668_36416)"/>
<path d="M138.485 235.893C138.574 235.893 138.649 235.811 138.652 235.706L138.788 230.886C138.79 230.778 138.719 230.689 138.626 230.685C138.519 230.679 138.456 230.767 138.453 230.873L138.316 235.693C138.314 235.8 138.386 235.889 138.479 235.893H138.485Z" fill="url(#paint94_linear_1668_36416)"/>
<path d="M137.754 235.893C137.661 235.888 137.59 235.798 137.594 235.69C137.661 234.071 137.787 230.983 137.788 230.878C137.788 230.771 137.864 230.686 137.955 230.686C138.047 230.686 138.123 230.773 138.123 230.879C138.123 230.959 137.959 234.916 137.927 235.708C137.922 235.812 137.848 235.893 137.76 235.893C137.757 235.893 137.755 235.893 137.751 235.893H137.754Z" fill="url(#paint95_linear_1668_36416)"/>
<path d="M136.633 236.088C136.633 236.088 136.642 236.088 136.645 236.088C136.826 236.088 136.974 235.923 136.979 235.713C137.122 231.042 137.096 230.937 137.08 230.868C137.031 230.661 136.846 230.539 136.668 230.596C136.505 230.647 136.402 230.832 136.423 231.022C136.434 231.303 136.359 234.02 136.309 235.687C136.302 235.901 136.447 236.081 136.632 236.088H136.633Z" fill="url(#paint96_linear_1668_36416)"/>
<path d="M135.921 235.893C136.014 235.893 136.088 235.806 136.088 235.699V230.969C136.088 230.862 136.013 230.775 135.921 230.775C135.829 230.775 135.754 230.862 135.754 230.969V235.699C135.754 235.806 135.829 235.893 135.921 235.893Z" fill="url(#paint97_linear_1668_36416)"/>
<path d="M135.335 235.893C135.426 235.893 135.501 235.81 135.502 235.704C135.534 234.061 135.61 231.376 135.676 231.053C135.706 230.992 135.705 230.915 135.67 230.852C135.619 230.761 135.516 230.737 135.439 230.796C135.347 230.865 135.261 230.93 135.168 235.694C135.166 235.802 135.24 235.89 135.332 235.892H135.335V235.893Z" fill="url(#paint98_linear_1668_36416)"/>
<path d="M139.9 236.324C139.9 236.324 139.912 236.324 139.918 236.324C140.094 236.324 140.242 236.163 140.252 235.957L140.475 230.99C140.485 230.776 140.343 230.594 140.158 230.582C139.982 230.568 139.815 230.736 139.806 230.949L139.582 235.916C139.573 236.13 139.715 236.312 139.9 236.324Z" fill="url(#paint99_linear_1668_36416)"/>
<path d="M260.519 302.512C259.184 302.777 251.578 307.303 251.578 302.129V296.348C251.578 296.348 260.903 302.435 260.519 302.512Z" fill="url(#paint100_linear_1668_36416)"/>
<path d="M255.759 292.797C255.759 292.797 259.102 287.156 259.519 281.62C259.937 276.084 259.258 273.661 259.884 272.052C260.511 270.443 263.557 264.332 263.697 266.169C263.837 268.005 262.722 269.921 262.722 269.921C262.722 269.921 264.655 271.458 264.324 273.229C263.993 274.999 263.314 275.178 263.314 275.178C263.314 275.178 263.209 279.009 263.036 279.009C262.863 279.009 266.1 298.23 262.479 298.648C258.857 299.065 255.932 301.642 255.758 292.798L255.759 292.797Z" fill="url(#paint101_linear_1668_36416)"/>
<path d="M265.313 271.866C265.346 271.612 267.687 266.519 267.268 265.94C266.85 265.361 266.426 264.844 265.768 266.561C265.111 268.279 264.327 272.949 264.58 272.977C264.833 273.004 265.192 272.779 265.313 271.866Z" fill="url(#paint102_linear_1668_36416)"/>
<path d="M287.217 327.347C287.217 327.347 288.985 325.88 291.334 326.094C292.973 326.382 294.895 327.83 296.134 328.906C296.35 329.093 296.423 329.391 296.317 329.653C296.21 329.914 295.948 330.085 295.658 330.079C292.585 330.015 286.574 329.833 286.574 329.379C286.574 328.771 287.217 327.347 287.217 327.347Z" fill="url(#paint103_linear_1668_36416)"/>
<path d="M286 324.761L287.41 327.425C287.41 327.425 290.597 327.686 290.492 326.432C290.387 325.179 289.604 323.664 289.604 323.664L286 324.76V324.761Z" fill="url(#paint104_linear_1668_36416)"/>
<path d="M249.994 326.575C252.204 314.512 253.813 306.766 253.813 306.766C253.813 306.766 278.3 290.968 280.807 294.834C283.314 298.699 290.498 325.075 290.498 325.075L285.708 326.381C285.708 326.381 276.55 313.976 275.715 303.386C273.357 311.109 271.16 329.567 253.02 330.097C252.119 330.123 251.255 329.741 250.668 329.057C250.081 328.373 249.832 327.46 249.994 326.575Z" fill="url(#paint105_linear_1668_36416)"/>
<path d="M302.922 326.276L305.847 329.044L308.145 326.746L305.115 323.247L302.922 326.276Z" fill="url(#paint106_linear_1668_36416)"/>
<path d="M238.555 266.196L236.113 275.196C236.001 275.609 236.139 276.056 236.46 276.299C237.635 277.189 240.709 278.959 244.924 277.238C245.406 277.041 245.737 276.544 245.779 275.978L246.357 268.138L238.554 266.196H238.555Z" fill="url(#paint107_linear_1668_36416)"/>
<path d="M252.85 258.937C252.85 258.937 252.372 267.453 249.361 270.316C246.35 273.178 239.887 271.768 237.219 265.607L240.531 254.401L252.85 258.938V258.937Z" fill="url(#paint108_linear_1668_36416)"/>
<path d="M241.487 262.033C241.74 262.091 241.984 261.911 242.001 261.653C242.051 260.867 242.211 259.305 242.712 258.208C242.712 258.208 242.31 257.13 245.55 258.534C248.789 259.937 253.652 261.99 256.267 260.297C258.817 258.647 260.911 251.26 253.966 253.188C253.702 253.26 253.436 253.068 253.434 252.794C253.421 251.61 253.072 248.914 250.258 248.279C247.625 247.685 246.319 248.963 245.8 249.71C245.647 249.93 245.331 249.954 245.151 249.756C244.298 248.818 242.029 246.862 239.073 248.478C236.639 249.808 236.379 251.4 236.503 252.367C236.544 252.68 236.243 252.92 235.944 252.813C235.139 252.522 233.878 252.443 232.811 254.041C231.337 256.25 233.848 257.842 234.596 258.251C234.719 258.318 234.801 258.439 234.814 258.579C234.912 259.654 235.289 264.443 237.866 266.888C238.089 267.099 238.65 266.888 238.745 266.595L240.188 262.128C240.255 261.92 240.47 261.799 240.682 261.848L241.489 262.034L241.487 262.033Z" fill="url(#paint109_linear_1668_36416)"/>
<path d="M241.841 262.644C241.841 262.644 240.352 258.235 238.797 259.841C237.242 261.446 239.633 264.483 241.609 264.931L241.841 262.644Z" fill="url(#paint110_linear_1668_36416)"/>
<path d="M252.856 290.395C252.856 290.395 264.015 295.095 266.104 292.693C268.194 290.291 267.045 276.817 267.045 276.817L271.745 275.562C271.745 275.562 277.526 299.343 267.706 302.895C260.577 305.474 246.988 297.08 246.988 297.08L252.857 290.395H252.856Z" fill="url(#paint111_linear_1668_36416)"/>
<path d="M242.361 274.133C244.16 274.528 246.131 276.247 247.674 277.896C249.436 279.779 250.616 282.138 251.055 284.679C251.069 284.761 251.084 284.845 251.098 284.927C254.981 289.184 258.402 291.939 260.703 292.958C256.664 298.695 254.479 300.875 254.479 300.875C254.479 300.875 254.013 300.775 253.232 300.573C253.991 307.418 254.402 312.719 254.402 312.719C254.402 312.719 246.512 320.55 236.957 322.778C228.255 316.371 226.924 298.043 226.924 298.043C226.242 276.304 236.283 272.798 242.361 274.135V274.133Z" fill="url(#paint112_linear_1668_36416)"/>
<path d="M236.957 322.777C236.957 322.777 240.874 334.424 260.209 327.895C269.583 324.729 282.71 306.376 282.71 306.376C282.71 306.376 285.949 315.255 302.871 327.164L306.632 323.786C306.632 323.786 289.5 294.259 280.726 297.323C271.951 300.388 234.275 315.221 236.957 322.777Z" fill="url(#paint113_linear_1668_36416)"/>
<path d="M304.422 327.695C305.137 327.703 308.146 326.381 308.146 326.381L310.949 327.129C313.392 326.753 315.491 327.585 316.904 328.431C317.213 328.616 317.361 328.984 317.268 329.331C317.175 329.678 316.862 329.923 316.503 329.929C313.737 329.974 309.194 330.021 306.892 329.883C303.445 329.677 302.923 329.776 304.421 327.695H304.422Z" fill="url(#paint114_linear_1668_36416)"/>
<path d="M249.374 299.549C249.429 299.549 249.48 299.51 249.493 299.454C249.51 299.387 249.47 299.321 249.403 299.305C249.373 299.298 246.409 298.556 243.222 296.735C240.292 295.059 236.567 292.1 235.467 287.519C235.451 287.452 235.385 287.411 235.318 287.427C235.251 287.442 235.21 287.509 235.226 287.576C236.348 292.245 240.129 295.253 243.104 296.952C246.32 298.79 249.313 299.538 249.343 299.545C249.353 299.547 249.363 299.549 249.373 299.549H249.374Z" fill="#E78456"/>
<path d="M274.222 264.675C274.303 264.469 274.288 264.236 274.181 264.041C274.073 263.847 273.885 263.711 273.666 263.669L268.221 262.63C268.01 262.589 267.801 262.714 267.738 262.92L263.549 276.423C263.531 276.482 263.537 276.545 263.566 276.599C263.595 276.652 263.643 276.693 263.702 276.71L268.254 278.076C268.627 278.188 269.024 277.995 269.165 277.632L274.222 264.674V264.675Z" fill="url(#paint115_linear_1668_36416)"/>
<path d="M272.503 264.809C272.547 264.691 272.536 264.559 272.473 264.45C272.41 264.34 272.301 264.265 272.177 264.244L268.562 263.635C268.353 263.599 268.151 263.724 268.087 263.927L264.53 275.431C264.511 275.491 264.518 275.556 264.55 275.611C264.581 275.666 264.634 275.705 264.696 275.719L267.935 276.499C268.047 276.526 268.161 276.464 268.202 276.357L272.503 264.809Z" fill="url(#paint116_linear_1668_36416)"/>
<path d="M270.763 263.694C270.755 263.736 270.682 263.757 270.601 263.739L269.412 263.489C269.331 263.472 269.274 263.423 269.282 263.381L269.29 263.341C269.299 263.299 269.372 263.278 269.453 263.295L270.641 263.546C270.722 263.563 270.78 263.612 270.771 263.653L270.763 263.694Z" fill="url(#paint117_linear_1668_36416)"/>
<path d="M271.804 275.821C271.875 275.222 273.885 271.409 273.101 269.947C272.317 268.484 272.005 265.978 271.247 266.682C270.489 267.387 271.429 269.842 271.09 270.574C270.752 271.305 269.447 273.163 269.277 274.611C269.106 276.058 268.139 278.121 270.176 278.409C272.213 278.697 271.804 275.822 271.804 275.822V275.821Z" fill="url(#paint118_linear_1668_36416)"/>
<path d="M250.274 284.459C250.298 284.459 250.323 284.452 250.344 284.437C250.4 284.399 250.414 284.322 250.376 284.265C250.145 283.929 244.694 276.051 241.556 277.38C241.493 277.406 241.464 277.479 241.49 277.542C241.516 277.606 241.589 277.634 241.652 277.608C244.607 276.354 250.117 284.325 250.173 284.406C250.197 284.441 250.235 284.46 250.274 284.46V284.459Z" fill="#E78456"/>
<path d="M262.449 277.071C262.394 277.032 262.381 276.954 262.422 276.898C263.297 275.686 262.73 274.267 262.488 273.661C262.394 273.427 262.362 273.347 262.406 273.27C262.476 273.147 262.96 271.764 262.828 270.966C262.82 270.922 262.811 270.905 262.811 270.902H262.809C262.622 270.902 261.949 271.735 261.33 272.735C261.294 272.793 261.218 272.811 261.161 272.775C261.102 272.739 261.084 272.663 261.12 272.604C261.499 271.991 262.431 270.576 262.861 270.659C262.939 270.675 263.039 270.733 263.071 270.925C263.209 271.76 262.755 273.096 262.638 273.357C262.65 273.399 262.686 273.489 262.717 273.569C262.973 274.213 263.576 275.72 262.622 277.042C262.599 277.076 262.56 277.094 262.522 277.094C262.497 277.094 262.472 277.087 262.451 277.07L262.449 277.071Z" fill="#F8A570"/>
</g>
<defs>
<linearGradient id="paint0_linear_1668_36416" x1="75.9903" y1="32.3302" x2="103.068" y2="130.482" gradientUnits="userSpaceOnUse">
<stop stop-color="#B37CFF"/>
<stop offset="1" stop-color="#F895E7"/>
</linearGradient>
<linearGradient id="paint1_linear_1668_36416" x1="9.55568" y1="-17.889" x2="86.3616" y2="170.952" gradientUnits="userSpaceOnUse">
<stop stop-color="#B37CFF"/>
<stop offset="1" stop-color="#F895E7"/>
</linearGradient>
<linearGradient id="paint2_linear_1668_36416" x1="383.126" y1="137.917" x2="160.805" y2="298.572" gradientUnits="userSpaceOnUse">
<stop stop-color="#CE1567"/>
<stop offset="1" stop-color="#7A1DBC"/>
</linearGradient>
<linearGradient id="paint3_linear_1668_36416" x1="165.977" y1="343.522" x2="254.742" y2="77.2279" gradientUnits="userSpaceOnUse">
<stop stop-color="#B37CFF"/>
<stop offset="1" stop-color="#F895E7"/>
</linearGradient>
<linearGradient id="paint4_linear_1668_36416" x1="192.767" y1="351.78" x2="281.533" y2="85.4809" gradientUnits="userSpaceOnUse">
<stop stop-color="#B37CFF"/>
<stop offset="1" stop-color="#F895E7"/>
</linearGradient>
<linearGradient id="paint5_linear_1668_36416" x1="219.523" y1="360.029" x2="308.291" y2="93.7257" gradientUnits="userSpaceOnUse">
<stop stop-color="#B37CFF"/>
<stop offset="1" stop-color="#F895E7"/>
</linearGradient>
<linearGradient id="paint6_linear_1668_36416" x1="172.815" y1="344.74" x2="261.59" y2="78.4145" gradientUnits="userSpaceOnUse">
<stop stop-color="#B37CFF"/>
<stop offset="1" stop-color="#F895E7"/>
</linearGradient>
<linearGradient id="paint7_linear_1668_36416" x1="199.551" y1="352.983" x2="288.327" y2="86.6527" gradientUnits="userSpaceOnUse">
<stop stop-color="#B37CFF"/>
<stop offset="1" stop-color="#F895E7"/>
</linearGradient>
<linearGradient id="paint8_linear_1668_36416" x1="226.262" y1="361.217" x2="315.04" y2="94.8836" gradientUnits="userSpaceOnUse">
<stop stop-color="#B37CFF"/>
<stop offset="1" stop-color="#F895E7"/>
</linearGradient>
<linearGradient id="paint9_linear_1668_36416" x1="179.607" y1="345.928" x2="268.385" y2="79.5954" gradientUnits="userSpaceOnUse">
<stop stop-color="#B37CFF"/>
<stop offset="1" stop-color="#F895E7"/>
</linearGradient>
<linearGradient id="paint10_linear_1668_36416" x1="206.299" y1="354.156" x2="295.078" y2="87.8199" gradientUnits="userSpaceOnUse">
<stop stop-color="#B37CFF"/>
<stop offset="1" stop-color="#F895E7"/>
</linearGradient>
<linearGradient id="paint11_linear_1668_36416" x1="232.957" y1="362.376" x2="321.737" y2="96.0345" gradientUnits="userSpaceOnUse">
<stop stop-color="#B37CFF"/>
<stop offset="1" stop-color="#F895E7"/>
</linearGradient>
<linearGradient id="paint12_linear_1668_36416" x1="186.367" y1="347.112" x2="275.147" y2="80.7713" gradientUnits="userSpaceOnUse">
<stop stop-color="#B37CFF"/>
<stop offset="1" stop-color="#F895E7"/>
</linearGradient>
<linearGradient id="paint13_linear_1668_36416" x1="213.004" y1="355.325" x2="301.786" y2="88.9809" gradientUnits="userSpaceOnUse">
<stop stop-color="#B37CFF"/>
<stop offset="1" stop-color="#F895E7"/>
</linearGradient>
<linearGradient id="paint14_linear_1668_36416" x1="239.622" y1="363.531" x2="328.404" y2="97.1818" gradientUnits="userSpaceOnUse">
<stop stop-color="#B37CFF"/>
<stop offset="1" stop-color="#F895E7"/>
</linearGradient>
<linearGradient id="paint15_linear_1668_36416" x1="193.112" y1="348.29" x2="281.895" y2="81.9424" gradientUnits="userSpaceOnUse">
<stop stop-color="#B37CFF"/>
<stop offset="1" stop-color="#F895E7"/>
</linearGradient>
<linearGradient id="paint16_linear_1668_36416" x1="219.705" y1="356.488" x2="308.489" y2="90.1356" gradientUnits="userSpaceOnUse">
<stop stop-color="#B37CFF"/>
<stop offset="1" stop-color="#F895E7"/>
</linearGradient>
<linearGradient id="paint17_linear_1668_36416" x1="246.265" y1="364.678" x2="335.05" y2="98.322" gradientUnits="userSpaceOnUse">
<stop stop-color="#B37CFF"/>
<stop offset="1" stop-color="#F895E7"/>
</linearGradient>
<linearGradient id="paint18_linear_1668_36416" x1="199.828" y1="349.463" x2="288.613" y2="83.1097" gradientUnits="userSpaceOnUse">
<stop stop-color="#B37CFF"/>
<stop offset="1" stop-color="#F895E7"/>
</linearGradient>
<linearGradient id="paint19_linear_1668_36416" x1="226.371" y1="357.646" x2="315.157" y2="91.2863" gradientUnits="userSpaceOnUse">
<stop stop-color="#B37CFF"/>
<stop offset="1" stop-color="#F895E7"/>
</linearGradient>
<linearGradient id="paint20_linear_1668_36416" x1="252.882" y1="365.822" x2="341.671" y2="99.4574" gradientUnits="userSpaceOnUse">
<stop stop-color="#B37CFF"/>
<stop offset="1" stop-color="#F895E7"/>
</linearGradient>
<linearGradient id="paint21_linear_1668_36416" x1="206.526" y1="350.632" x2="295.312" y2="84.2701" gradientUnits="userSpaceOnUse">
<stop stop-color="#B37CFF"/>
<stop offset="1" stop-color="#F895E7"/>
</linearGradient>
<linearGradient id="paint22_linear_1668_36416" x1="233.016" y1="358.8" x2="321.804" y2="92.4336" gradientUnits="userSpaceOnUse">
<stop stop-color="#B37CFF"/>
<stop offset="1" stop-color="#F895E7"/>
</linearGradient>
<linearGradient id="paint23_linear_1668_36416" x1="259.483" y1="366.961" x2="348.273" y2="100.589" gradientUnits="userSpaceOnUse">
<stop stop-color="#B37CFF"/>
<stop offset="1" stop-color="#F895E7"/>
</linearGradient>
<linearGradient id="paint24_linear_1668_36416" x1="213.195" y1="351.794" x2="301.984" y2="85.426" gradientUnits="userSpaceOnUse">
<stop stop-color="#B37CFF"/>
<stop offset="1" stop-color="#F895E7"/>
</linearGradient>
<linearGradient id="paint25_linear_1668_36416" x1="239.64" y1="359.948" x2="328.431" y2="93.5751" gradientUnits="userSpaceOnUse">
<stop stop-color="#B37CFF"/>
<stop offset="1" stop-color="#F895E7"/>
</linearGradient>
<linearGradient id="paint26_linear_1668_36416" x1="266.052" y1="368.094" x2="354.844" y2="101.716" gradientUnits="userSpaceOnUse">
<stop stop-color="#B37CFF"/>
<stop offset="1" stop-color="#F895E7"/>
</linearGradient>
<linearGradient id="paint27_linear_1668_36416" x1="219.85" y1="352.953" x2="308.642" y2="86.5745" gradientUnits="userSpaceOnUse">
<stop stop-color="#B37CFF"/>
<stop offset="1" stop-color="#F895E7"/>
</linearGradient>
<linearGradient id="paint28_linear_1668_36416" x1="246.246" y1="361.092" x2="335.04" y2="94.7101" gradientUnits="userSpaceOnUse">
<stop stop-color="#B37CFF"/>
<stop offset="1" stop-color="#F895E7"/>
</linearGradient>
<linearGradient id="paint29_linear_1668_36416" x1="272.613" y1="369.222" x2="361.409" y2="102.837" gradientUnits="userSpaceOnUse">
<stop stop-color="#B37CFF"/>
<stop offset="1" stop-color="#F895E7"/>
</linearGradient>
<linearGradient id="paint30_linear_1668_36416" x1="20.6834" y1="276.09" x2="173.151" y2="83.0818" gradientUnits="userSpaceOnUse">
<stop stop-color="#A737D5"/>
<stop offset="1" stop-color="#EF497A"/>
</linearGradient>
<linearGradient id="paint31_linear_1668_36416" x1="296.699" y1="27.4319" x2="243.419" y2="121.885" gradientUnits="userSpaceOnUse">
<stop stop-color="#53D8FF"/>
<stop offset="1" stop-color="#3840F7"/>
</linearGradient>
<linearGradient id="paint32_linear_1668_36416" x1="287.626" y1="166.342" x2="288.075" y2="139.209" gradientUnits="userSpaceOnUse">
<stop stop-color="#53D8FF"/>
<stop offset="1" stop-color="#3840F7"/>
</linearGradient>
<linearGradient id="paint33_linear_1668_36416" x1="307.646" y1="83.5972" x2="280.999" y2="91.8646" gradientUnits="userSpaceOnUse">
<stop stop-color="#53D8FF"/>
<stop offset="1" stop-color="#3840F7"/>
</linearGradient>
<linearGradient id="paint34_linear_1668_36416" x1="274.646" y1="186.221" x2="274.198" y2="159.089" gradientUnits="userSpaceOnUse">
<stop stop-color="#53D8FF"/>
<stop offset="1" stop-color="#3840F7"/>
</linearGradient>
<linearGradient id="paint35_linear_1668_36416" x1="254.252" y1="83.5972" x2="280.898" y2="91.8646" gradientUnits="userSpaceOnUse">
<stop stop-color="#53D8FF"/>
<stop offset="1" stop-color="#3840F7"/>
</linearGradient>
<linearGradient id="paint36_linear_1668_36416" x1="316.074" y1="38.3595" x2="262.793" y2="132.813" gradientUnits="userSpaceOnUse">
<stop stop-color="#53D8FF"/>
<stop offset="1" stop-color="#3840F7"/>
</linearGradient>
<linearGradient id="paint37_linear_1668_36416" x1="185.869" y1="213.247" x2="609.357" y2="503.811" gradientUnits="userSpaceOnUse">
<stop stop-color="#2B3582"/>
<stop offset="1" stop-color="#150E42"/>
</linearGradient>
<linearGradient id="paint38_linear_1668_36416" x1="200.743" y1="323.181" x2="21.4606" y2="-216.734" gradientUnits="userSpaceOnUse">
<stop stop-color="#53D8FF"/>
<stop offset="1" stop-color="#3840F7"/>
</linearGradient>
<linearGradient id="paint39_linear_1668_36416" x1="154.987" y1="28.0083" x2="154.31" y2="69.2844" gradientUnits="userSpaceOnUse">
<stop stop-color="#8D55D1"/>
<stop offset="1" stop-color="#1C2873"/>
</linearGradient>
<linearGradient id="paint40_linear_1668_36416" x1="81.6426" y1="278.307" x2="81.6426" y2="353.386" gradientUnits="userSpaceOnUse">
<stop stop-color="#CB236D"/>
<stop offset="1" stop-color="#4C246D"/>
</linearGradient>
<linearGradient id="paint41_linear_1668_36416" x1="4.90473" y1="304.608" x2="10.795" y2="327.626" gradientUnits="userSpaceOnUse">
<stop stop-color="#CB236D"/>
<stop offset="1" stop-color="#4C246D"/>
</linearGradient>
<linearGradient id="paint42_linear_1668_36416" x1="216.772" y1="136.939" x2="48.2466" y2="284.681" gradientUnits="userSpaceOnUse">
<stop stop-color="#FDF53F"/>
<stop offset="1" stop-color="#D93C65"/>
</linearGradient>
<linearGradient id="paint43_linear_1668_36416" x1="69.7702" y1="231.905" x2="106.744" y2="376.375" gradientUnits="userSpaceOnUse">
<stop stop-color="#FDF53F"/>
<stop offset="1" stop-color="#D93C65"/>
</linearGradient>
<linearGradient id="paint44_linear_1668_36416" x1="179.52" y1="293.87" x2="185.537" y2="424.257" gradientUnits="userSpaceOnUse">
<stop stop-color="#FDF53F"/>
<stop offset="1" stop-color="#D93C65"/>
</linearGradient>
<linearGradient id="paint45_linear_1668_36416" x1="177.516" y1="309.038" x2="233.339" y2="310.444" gradientUnits="userSpaceOnUse">
<stop stop-color="#CB236D"/>
<stop offset="1" stop-color="#4C246D"/>
</linearGradient>
<linearGradient id="paint46_linear_1668_36416" x1="190.677" y1="250.739" x2="133.359" y2="325.413" gradientUnits="userSpaceOnUse">
<stop stop-color="#2B3582"/>
<stop offset="1" stop-color="#150E42"/>
</linearGradient>
<linearGradient id="paint47_linear_1668_36416" x1="196.193" y1="263.587" x2="210.579" y2="263.95" gradientUnits="userSpaceOnUse">
<stop stop-color="#2B3582"/>
<stop offset="1" stop-color="#150E42"/>
</linearGradient>
<linearGradient id="paint48_linear_1668_36416" x1="188.663" y1="270.646" x2="160.599" y2="285.13" gradientUnits="userSpaceOnUse">
<stop stop-color="#FDF53F"/>
<stop offset="1" stop-color="#D93C65"/>
</linearGradient>
<linearGradient id="paint49_linear_1668_36416" x1="203.635" y1="218.039" x2="140.668" y2="250.538" gradientUnits="userSpaceOnUse">
<stop stop-color="#FDF53F"/>
<stop offset="1" stop-color="#D93C65"/>
</linearGradient>
<linearGradient id="paint50_linear_1668_36416" x1="160.969" y1="315.401" x2="196.167" y2="315.401" gradientUnits="userSpaceOnUse">
<stop stop-color="#2B3582"/>
<stop offset="1" stop-color="#150E42"/>
</linearGradient>
<linearGradient id="paint51_linear_1668_36416" x1="210.419" y1="275.687" x2="162.716" y2="335.177" gradientUnits="userSpaceOnUse">
<stop stop-color="#FDF53F"/>
<stop offset="1" stop-color="#D93C65"/>
</linearGradient>
<linearGradient id="paint52_linear_1668_36416" x1="185.025" y1="304.817" x2="167.135" y2="334.13" gradientUnits="userSpaceOnUse">
<stop stop-color="#2B3582"/>
<stop offset="1" stop-color="#150E42"/>
</linearGradient>
<linearGradient id="paint53_linear_1668_36416" x1="52.457" y1="315.401" x2="87.6555" y2="315.401" gradientUnits="userSpaceOnUse">
<stop stop-color="#2B3582"/>
<stop offset="1" stop-color="#150E42"/>
</linearGradient>
<linearGradient id="paint54_linear_1668_36416" x1="103.211" y1="286.798" x2="45.9656" y2="336.186" gradientUnits="userSpaceOnUse">
<stop stop-color="#FDF53F"/>
<stop offset="1" stop-color="#D93C65"/>
</linearGradient>
<linearGradient id="paint55_linear_1668_36416" x1="76.4917" y1="304.832" x2="58.6013" y2="334.145" gradientUnits="userSpaceOnUse">
<stop stop-color="#2B3582"/>
<stop offset="1" stop-color="#150E42"/>
</linearGradient>
<linearGradient id="paint56_linear_1668_36416" x1="12.2031" y1="315.401" x2="47.4016" y2="315.401" gradientUnits="userSpaceOnUse">
<stop stop-color="#2B3582"/>
<stop offset="1" stop-color="#150E42"/>
</linearGradient>
<linearGradient id="paint57_linear_1668_36416" x1="71.0812" y1="287.213" x2="2.05058" y2="334.356" gradientUnits="userSpaceOnUse">
<stop stop-color="#FDF53F"/>
<stop offset="1" stop-color="#D93C65"/>
</linearGradient>
<linearGradient id="paint58_linear_1668_36416" x1="36.2387" y1="304.829" x2="18.3482" y2="334.142" gradientUnits="userSpaceOnUse">
<stop stop-color="#2B3582"/>
<stop offset="1" stop-color="#150E42"/>
</linearGradient>
<linearGradient id="paint59_linear_1668_36416" x1="199.292" y1="303.946" x2="204.91" y2="290.517" gradientUnits="userSpaceOnUse">
<stop stop-color="#FDF53F"/>
<stop offset="1" stop-color="#D93C65"/>
</linearGradient>
<linearGradient id="paint60_linear_1668_36416" x1="99.6341" y1="234.637" x2="-42.5405" y2="333.829" gradientUnits="userSpaceOnUse">
<stop stop-color="#FDF53F"/>
<stop offset="1" stop-color="#D93C65"/>
</linearGradient>
<linearGradient id="paint61_linear_1668_36416" x1="62.647" y1="261.454" x2="80.3203" y2="287.135" gradientUnits="userSpaceOnUse">
<stop stop-color="#2B3582"/>
<stop offset="1" stop-color="#150E42"/>
</linearGradient>
<linearGradient id="paint62_linear_1668_36416" x1="62.0096" y1="261.89" x2="79.6827" y2="287.572" gradientUnits="userSpaceOnUse">
<stop stop-color="#2B3582"/>
<stop offset="1" stop-color="#150E42"/>
</linearGradient>
<linearGradient id="paint63_linear_1668_36416" x1="61.2445" y1="262.419" x2="78.9177" y2="288.099" gradientUnits="userSpaceOnUse">
<stop stop-color="#2B3582"/>
<stop offset="1" stop-color="#150E42"/>
</linearGradient>
<linearGradient id="paint64_linear_1668_36416" x1="59.9173" y1="263.331" x2="77.5905" y2="289.012" gradientUnits="userSpaceOnUse">
<stop stop-color="#2B3582"/>
<stop offset="1" stop-color="#150E42"/>
</linearGradient>
<linearGradient id="paint65_linear_1668_36416" x1="59.0377" y1="263.933" x2="76.711" y2="289.614" gradientUnits="userSpaceOnUse">
<stop stop-color="#2B3582"/>
<stop offset="1" stop-color="#150E42"/>
</linearGradient>
<linearGradient id="paint66_linear_1668_36416" x1="58.4978" y1="264.307" x2="76.171" y2="289.987" gradientUnits="userSpaceOnUse">
<stop stop-color="#2B3582"/>
<stop offset="1" stop-color="#150E42"/>
</linearGradient>
<linearGradient id="paint67_linear_1668_36416" x1="63.5546" y1="260.828" x2="81.2279" y2="286.508" gradientUnits="userSpaceOnUse">
<stop stop-color="#2B3582"/>
<stop offset="1" stop-color="#150E42"/>
</linearGradient>
<linearGradient id="paint68_linear_1668_36416" x1="169.784" y1="237.189" x2="27.6079" y2="336.382" gradientUnits="userSpaceOnUse">
<stop stop-color="#FDF53F"/>
<stop offset="1" stop-color="#D93C65"/>
</linearGradient>
<linearGradient id="paint69_linear_1668_36416" x1="132.794" y1="264.006" x2="150.468" y2="289.688" gradientUnits="userSpaceOnUse">
<stop stop-color="#2B3582"/>
<stop offset="1" stop-color="#150E42"/>
</linearGradient>
<linearGradient id="paint70_linear_1668_36416" x1="132.162" y1="264.444" x2="149.834" y2="290.125" gradientUnits="userSpaceOnUse">
<stop stop-color="#2B3582"/>
<stop offset="1" stop-color="#150E42"/>
</linearGradient>
<linearGradient id="paint71_linear_1668_36416" x1="131.393" y1="264.972" x2="149.066" y2="290.652" gradientUnits="userSpaceOnUse">
<stop stop-color="#2B3582"/>
<stop offset="1" stop-color="#150E42"/>
</linearGradient>
<linearGradient id="paint72_linear_1668_36416" x1="130.067" y1="265.885" x2="147.74" y2="291.565" gradientUnits="userSpaceOnUse">
<stop stop-color="#2B3582"/>
<stop offset="1" stop-color="#150E42"/>
</linearGradient>
<linearGradient id="paint73_linear_1668_36416" x1="129.187" y1="266.486" x2="146.861" y2="292.167" gradientUnits="userSpaceOnUse">
<stop stop-color="#2B3582"/>
<stop offset="1" stop-color="#150E42"/>
</linearGradient>
<linearGradient id="paint74_linear_1668_36416" x1="128.647" y1="266.86" x2="146.321" y2="292.54" gradientUnits="userSpaceOnUse">
<stop stop-color="#2B3582"/>
<stop offset="1" stop-color="#150E42"/>
</linearGradient>
<linearGradient id="paint75_linear_1668_36416" x1="133.702" y1="263.381" x2="151.375" y2="289.062" gradientUnits="userSpaceOnUse">
<stop stop-color="#2B3582"/>
<stop offset="1" stop-color="#150E42"/>
</linearGradient>
<linearGradient id="paint76_linear_1668_36416" x1="74.9078" y1="209.14" x2="-24.9393" y2="278.8" gradientUnits="userSpaceOnUse">
<stop stop-color="#FDF53F"/>
<stop offset="1" stop-color="#D93C65"/>
</linearGradient>
<linearGradient id="paint77_linear_1668_36416" x1="48.934" y1="227.972" x2="61.3446" y2="246.008" gradientUnits="userSpaceOnUse">
<stop stop-color="#2B3582"/>
<stop offset="1" stop-color="#150E42"/>
</linearGradient>
<linearGradient id="paint78_linear_1668_36416" x1="48.4844" y1="228.28" x2="60.8951" y2="246.315" gradientUnits="userSpaceOnUse">
<stop stop-color="#2B3582"/>
<stop offset="1" stop-color="#150E42"/>
</linearGradient>
<linearGradient id="paint79_linear_1668_36416" x1="47.9479" y1="228.65" x2="60.3597" y2="246.686" gradientUnits="userSpaceOnUse">
<stop stop-color="#2B3582"/>
<stop offset="1" stop-color="#150E42"/>
</linearGradient>
<linearGradient id="paint80_linear_1668_36416" x1="47.0169" y1="229.291" x2="59.4287" y2="247.327" gradientUnits="userSpaceOnUse">
<stop stop-color="#2B3582"/>
<stop offset="1" stop-color="#150E42"/>
</linearGradient>
<linearGradient id="paint81_linear_1668_36416" x1="46.402" y1="229.715" x2="58.8138" y2="247.749" gradientUnits="userSpaceOnUse">
<stop stop-color="#2B3582"/>
<stop offset="1" stop-color="#150E42"/>
</linearGradient>
<linearGradient id="paint82_linear_1668_36416" x1="46.0219" y1="229.976" x2="58.4325" y2="248.012" gradientUnits="userSpaceOnUse">
<stop stop-color="#2B3582"/>
<stop offset="1" stop-color="#150E42"/>
</linearGradient>
<linearGradient id="paint83_linear_1668_36416" x1="49.5705" y1="227.533" x2="61.9812" y2="245.569" gradientUnits="userSpaceOnUse">
<stop stop-color="#2B3582"/>
<stop offset="1" stop-color="#150E42"/>
</linearGradient>
<linearGradient id="paint84_linear_1668_36416" x1="117.781" y1="212.491" x2="27.7154" y2="275.328" gradientUnits="userSpaceOnUse">
<stop stop-color="#FDF53F"/>
<stop offset="1" stop-color="#D93C65"/>
</linearGradient>
<linearGradient id="paint85_linear_1668_36416" x1="93.4412" y1="228.604" x2="105.873" y2="246.669" gradientUnits="userSpaceOnUse">
<stop stop-color="#2B3582"/>
<stop offset="1" stop-color="#150E42"/>
</linearGradient>
<linearGradient id="paint86_linear_1668_36416" x1="93.0982" y1="228.921" x2="105.497" y2="246.937" gradientUnits="userSpaceOnUse">
<stop stop-color="#2B3582"/>
<stop offset="1" stop-color="#150E42"/>
</linearGradient>
<linearGradient id="paint87_linear_1668_36416" x1="92.6573" y1="229.287" x2="105.071" y2="247.328" gradientUnits="userSpaceOnUse">
<stop stop-color="#2B3582"/>
<stop offset="1" stop-color="#150E42"/>
</linearGradient>
<linearGradient id="paint88_linear_1668_36416" x1="91.9191" y1="229.939" x2="104.27" y2="247.887" gradientUnits="userSpaceOnUse">
<stop stop-color="#2B3582"/>
<stop offset="1" stop-color="#150E42"/>
</linearGradient>
<linearGradient id="paint89_linear_1668_36416" x1="91.4235" y1="230.358" x2="103.789" y2="248.325" gradientUnits="userSpaceOnUse">
<stop stop-color="#2B3582"/>
<stop offset="1" stop-color="#150E42"/>
</linearGradient>
<linearGradient id="paint90_linear_1668_36416" x1="91.1156" y1="230.613" x2="103.531" y2="248.654" gradientUnits="userSpaceOnUse">
<stop stop-color="#2B3582"/>
<stop offset="1" stop-color="#150E42"/>
</linearGradient>
<linearGradient id="paint91_linear_1668_36416" x1="93.9525" y1="228.18" x2="106.332" y2="246.171" gradientUnits="userSpaceOnUse">
<stop stop-color="#2B3582"/>
<stop offset="1" stop-color="#150E42"/>
</linearGradient>
<linearGradient id="paint92_linear_1668_36416" x1="161.138" y1="213.81" x2="71.0721" y2="276.647" gradientUnits="userSpaceOnUse">
<stop stop-color="#FDF53F"/>
<stop offset="1" stop-color="#D93C65"/>
</linearGradient>
<linearGradient id="paint93_linear_1668_36416" x1="136.797" y1="229.922" x2="149.229" y2="247.988" gradientUnits="userSpaceOnUse">
<stop stop-color="#2B3582"/>
<stop offset="1" stop-color="#150E42"/>
</linearGradient>
<linearGradient id="paint94_linear_1668_36416" x1="136.454" y1="230.238" x2="148.851" y2="248.255" gradientUnits="userSpaceOnUse">
<stop stop-color="#2B3582"/>
<stop offset="1" stop-color="#150E42"/>
</linearGradient>
<linearGradient id="paint95_linear_1668_36416" x1="136.012" y1="230.604" x2="148.427" y2="248.645" gradientUnits="userSpaceOnUse">
<stop stop-color="#2B3582"/>
<stop offset="1" stop-color="#150E42"/>
</linearGradient>
<linearGradient id="paint96_linear_1668_36416" x1="135.272" y1="231.257" x2="147.623" y2="249.205" gradientUnits="userSpaceOnUse">
<stop stop-color="#2B3582"/>
<stop offset="1" stop-color="#150E42"/>
</linearGradient>
<linearGradient id="paint97_linear_1668_36416" x1="134.779" y1="231.676" x2="147.143" y2="249.642" gradientUnits="userSpaceOnUse">
<stop stop-color="#2B3582"/>
<stop offset="1" stop-color="#150E42"/>
</linearGradient>
<linearGradient id="paint98_linear_1668_36416" x1="134.471" y1="231.932" x2="146.885" y2="249.971" gradientUnits="userSpaceOnUse">
<stop stop-color="#2B3582"/>
<stop offset="1" stop-color="#150E42"/>
</linearGradient>
<linearGradient id="paint99_linear_1668_36416" x1="137.308" y1="229.498" x2="149.688" y2="247.488" gradientUnits="userSpaceOnUse">
<stop stop-color="#2B3582"/>
<stop offset="1" stop-color="#150E42"/>
</linearGradient>
<linearGradient id="paint100_linear_1668_36416" x1="253.081" y1="298.296" x2="259.192" y2="307.593" gradientUnits="userSpaceOnUse">
<stop stop-color="#FDF53F"/>
<stop offset="0.66" stop-color="#E57A58"/>
<stop offset="1" stop-color="#D93C65"/>
</linearGradient>
<linearGradient id="paint101_linear_1668_36416" x1="260.438" y1="280.868" x2="259.915" y2="294.761" gradientUnits="userSpaceOnUse">
<stop stop-color="#F9B776"/>
<stop offset="1" stop-color="#F47960"/>
</linearGradient>
<linearGradient id="paint102_linear_1668_36416" x1="264.012" y1="266.218" x2="270.423" y2="277.142" gradientUnits="userSpaceOnUse">
<stop stop-color="#F9B776"/>
<stop offset="1" stop-color="#F47960"/>
</linearGradient>
<linearGradient id="paint103_linear_1668_36416" x1="287.937" y1="324.845" x2="295.102" y2="333.854" gradientUnits="userSpaceOnUse">
<stop stop-color="#2B3582"/>
<stop offset="1" stop-color="#150E42"/>
</linearGradient>
<linearGradient id="paint104_linear_1668_36416" x1="286.609" y1="323.158" x2="290.77" y2="328.389" gradientUnits="userSpaceOnUse">
<stop stop-color="#F9B776"/>
<stop offset="1" stop-color="#F47960"/>
</linearGradient>
<linearGradient id="paint105_linear_1668_36416" x1="248.725" y1="307.211" x2="280.853" y2="316.355" gradientUnits="userSpaceOnUse">
<stop stop-color="#53D8FF"/>
<stop offset="1" stop-color="#3840F7"/>
</linearGradient>
<linearGradient id="paint106_linear_1668_36416" x1="306.702" y1="322.413" x2="304.087" y2="331.587" gradientUnits="userSpaceOnUse">
<stop stop-color="#F9B776"/>
<stop offset="1" stop-color="#F47960"/>
</linearGradient>
<linearGradient id="paint107_linear_1668_36416" x1="240.596" y1="278.687" x2="241.856" y2="267.345" gradientUnits="userSpaceOnUse">
<stop stop-color="#F9B776"/>
<stop offset="1" stop-color="#F47960"/>
</linearGradient>
<linearGradient id="paint108_linear_1668_36416" x1="247.474" y1="268.328" x2="241.066" y2="252.268" gradientUnits="userSpaceOnUse">
<stop stop-color="#F9B776"/>
<stop offset="1" stop-color="#F47960"/>
</linearGradient>
<linearGradient id="paint109_linear_1668_36416" x1="241.209" y1="239" x2="248.133" y2="265.159" gradientUnits="userSpaceOnUse">
<stop stop-color="#2B3582"/>
<stop offset="1" stop-color="#150E42"/>
</linearGradient>
<linearGradient id="paint110_linear_1668_36416" x1="243.506" y1="270.653" x2="237.1" y2="254.594" gradientUnits="userSpaceOnUse">
<stop stop-color="#F9B776"/>
<stop offset="1" stop-color="#F47960"/>
</linearGradient>
<linearGradient id="paint111_linear_1668_36416" x1="268.17" y1="267.51" x2="253.873" y2="317.669" gradientUnits="userSpaceOnUse">
<stop stop-color="#F9B776"/>
<stop offset="1" stop-color="#F47960"/>
</linearGradient>
<linearGradient id="paint112_linear_1668_36416" x1="246.852" y1="280.519" x2="223.369" y2="362.906" gradientUnits="userSpaceOnUse">
<stop stop-color="#FDF53F"/>
<stop offset="0.66" stop-color="#E57A58"/>
<stop offset="1" stop-color="#D93C65"/>
</linearGradient>
<linearGradient id="paint113_linear_1668_36416" x1="281.914" y1="286.947" x2="261.791" y2="357.547" gradientUnits="userSpaceOnUse">
<stop stop-color="#53D8FF"/>
<stop offset="1" stop-color="#3840F7"/>
</linearGradient>
<linearGradient id="paint114_linear_1668_36416" x1="311.553" y1="325.334" x2="309.114" y2="333.89" gradientUnits="userSpaceOnUse">
<stop stop-color="#2B3582"/>
<stop offset="1" stop-color="#150E42"/>
</linearGradient>
<linearGradient id="paint115_linear_1668_36416" x1="276.659" y1="265.438" x2="246.651" y2="283.506" gradientUnits="userSpaceOnUse">
<stop stop-color="#2B3582"/>
<stop offset="1" stop-color="#150E42"/>
</linearGradient>
<linearGradient id="paint116_linear_1668_36416" x1="273.177" y1="255.52" x2="301.836" y2="167.524" gradientUnits="userSpaceOnUse">
<stop stop-color="#53D8FF"/>
<stop offset="1" stop-color="#3840F7"/>
</linearGradient>
<linearGradient id="paint117_linear_1668_36416" x1="269.984" y1="265.372" x2="269.201" y2="266.602" gradientUnits="userSpaceOnUse">
<stop stop-color="#8D55D1"/>
<stop offset="1" stop-color="#1C2873"/>
</linearGradient>
<linearGradient id="paint118_linear_1668_36416" x1="270.824" y1="276.565" x2="268.108" y2="303.726" gradientUnits="userSpaceOnUse">
<stop stop-color="#F9B776"/>
<stop offset="1" stop-color="#F47960"/>
</linearGradient>
<clipPath id="clip0_1668_36416">
<rect width="319" height="332.142" fill="white" transform="translate(0 0.85791)"/>
</clipPath>
</defs>
</svg>
