<svg width="384" height="439" viewBox="0 0 384 439" fill="none" xmlns="http://www.w3.org/2000/svg">
<path d="M383.216 295.678C381.309 296.132 378.93 297.004 376.206 298.33C374.862 299.039 373.427 299.802 371.865 300.62C370.321 301.437 368.741 302.473 367.052 303.454C360.315 307.523 352.56 312.701 343.625 318.224C338.195 321.675 333.019 325.018 328.171 328.306C323.413 331.667 318.891 334.846 314.986 338.062C307.087 344.366 301.239 350.306 298.516 354.629C301.257 350.342 304.38 342.622 310.263 333.776C313.15 329.308 316.837 324.712 321.195 320.116C325.626 315.593 330.856 311.233 336.849 307.418C346.746 301.278 356.79 298.606 364.908 297.442C373.063 296.188 379.384 296.55 383.198 295.696L383.216 295.678Z" fill="#19425E"/>
<path d="M377.144 275.591C373.93 276.445 369.281 279.225 363.869 283.185C358.421 287.109 352.246 291.977 344.982 296.991C340.569 300.134 336.338 303.114 332.361 306.038C328.456 309.018 324.715 311.834 321.501 314.667C314.963 320.226 310.151 325.494 308.081 329.327C310.151 325.53 312.148 318.701 316.524 310.691C318.648 306.658 321.481 302.462 324.931 298.248C328.454 294.106 332.703 290.074 337.661 286.531C345.869 280.827 354.514 278.337 361.47 277.264C368.463 276.119 373.93 276.445 377.108 275.591L377.144 275.591Z" fill="#19425E"/>
<path d="M374.143 247.259C372.545 247.659 370.547 248.477 368.295 249.73C367.206 250.402 366.025 251.129 364.754 251.928C363.501 252.71 362.248 253.709 360.904 254.653C355.547 258.577 349.645 263.555 342.835 268.896C338.712 272.238 334.79 275.472 331.158 278.706C327.617 281.994 324.221 285.136 321.442 288.315C315.704 294.564 311.818 300.54 310.457 304.645C311.836 300.576 312.653 293.511 316.011 284.974C317.609 280.687 319.987 276.183 323.038 271.623C326.179 267.137 330.138 262.741 334.914 258.871C342.85 252.622 351.531 249.842 358.487 248.733C360.249 248.496 361.884 248.187 363.446 248.096C364.989 247.987 366.424 247.896 367.75 247.805C370.384 247.678 372.545 247.659 374.143 247.241L374.143 247.259Z" fill="#19425E"/>
<path d="M321.209 191.672C322.008 194.886 324.897 199.481 327.441 206.055C330.021 212.575 332.329 221.111 331.985 230.974C331.714 236.985 330.716 242.689 329.3 247.883C327.793 253.06 325.996 257.746 323.999 261.797C320.095 269.97 315.919 275.711 314.194 279.67C315.937 275.692 317.153 268.681 317.842 260.09C318.24 255.804 318.421 251.1 318.675 246.142C318.856 241.201 319.036 235.952 319.235 230.485C319.543 221.567 320.486 213.685 321.12 206.983C321.791 200.299 322.008 194.886 321.209 191.672Z" fill="#19425E"/>
<path d="M46.0619 394.574C43.1375 393.249 37.9066 392.396 31.4766 389.528C25.1192 386.695 17.5446 381.557 12.1671 372.985C10.5502 370.37 9.2239 367.646 8.15187 364.939C7.11615 362.197 6.33472 359.473 5.80757 356.803C4.7351 351.445 4.6253 346.378 4.98781 341.892C5.73099 332.865 8.34534 326.399 9.16198 322.294C8.32718 326.435 8.94585 333.427 11.3446 341.291C13.7433 349.174 17.686 357.782 23.009 366.263C27.3692 373.2 31.3841 379.448 35.3625 384.496C39.3046 389.526 43.1194 393.285 46.0619 394.611L46.0619 394.574Z" fill="#19425E"/>
<path d="M28.4604 393.978C26.426 393.306 20.0881 397.902 14.3303 395.978C7.28281 393.618 3.5037 385.627 0.851824 384.738C3.5037 385.627 11.3311 381.521 18.3785 383.881C24.1363 385.806 26.426 393.306 28.4604 393.978Z" fill="#19425E"/>
<path d="M371.076 381.208C368.207 382.226 364.249 390.4 356.094 393.289C346.142 396.832 335.789 393.728 332.047 395.055C335.807 393.728 341.872 384.791 351.842 381.266C359.979 378.377 368.207 382.226 371.076 381.208Z" fill="#19425E"/>
<path d="M132.404 310.23C141.528 321.262 147.433 334.134 150.672 346.547C152.107 352.873 153.23 358.886 153.452 364.789C153.618 367.713 153.728 370.527 153.674 373.249C153.564 376.007 153.362 378.655 153.123 381.175C152.72 386.177 151.727 390.812 150.753 394.802C150.257 396.807 149.779 398.646 149.265 400.338C148.695 402.048 148.125 403.612 147.592 404.991C145.459 410.545 143.86 413.543 143.86 413.543C143.86 413.543 140.917 411.502 136.393 408.082C135.271 407.218 134.057 406.281 132.733 405.269C131.372 404.276 129.919 403.21 128.374 402.088C125.321 399.845 122.139 397.326 118.497 394.771C116.731 393.484 114.947 392.142 113.163 390.763C111.306 389.421 109.375 388.06 107.517 386.644C103.894 383.758 99.8473 380.981 96.2607 377.874C88.6647 371.88 81.4915 365.482 75.2744 357.906C68.947 350.441 63.9252 342.258 59.3814 333.707C56.9717 329.625 54.9664 325.138 52.7589 321.056C51.692 318.978 50.6986 316.845 49.7052 314.767C48.6566 312.781 47.6632 310.777 46.7066 308.809C44.8486 304.782 42.9354 301.196 41.2797 297.794C40.4519 296.066 39.6609 294.448 38.925 292.94C38.1524 291.45 37.4534 290.09 36.8095 288.839C34.2341 283.782 32.7623 280.509 32.7623 280.509C32.7623 280.509 35.9988 279.46 41.8467 278.356C43.3178 278.08 44.9361 277.804 46.7383 277.546C48.4853 277.344 50.3978 277.196 52.4391 277.067C56.5401 276.827 61.2663 276.661 66.2684 277.175C68.7879 277.377 71.4361 277.671 74.1763 278.038C76.8613 278.479 79.6199 279.085 82.4705 279.765C88.2452 281.033 93.9465 283.221 99.9236 285.758C111.547 291.144 123.171 299.271 132.404 310.211L132.404 310.23Z" fill="url(#paint0_linear_1659_25878)"/>
<path d="M106.157 288.975L104.281 287.945C104.466 290.961 104.779 294.878 105.276 299.328C105.7 303.852 106.252 309.001 107.118 314.279C107.541 316.927 107.909 319.759 108.425 322.536C108.903 325.35 109.621 328.053 110.21 330.958C110.836 333.827 111.572 336.678 112.455 339.473C113.375 342.249 114.184 345.173 115.325 347.932C113.67 345.633 112.143 343.224 110.359 341.018L105.098 334.343C103.314 332.137 101.364 330.077 99.5063 327.926C98.5499 326.878 97.6486 325.774 96.6738 324.763L93.6757 321.748C92.0387 320.111 90.5856 318.346 89.2244 316.562C87.8081 314.834 86.5205 313.032 85.3433 311.175C83.0623 307.368 80.9836 303.617 79.2543 299.7C77.5801 295.728 76.0347 291.94 74.7468 288.207C73.4589 284.474 72.4469 280.833 71.4717 277.726C70.828 277.652 70.2027 277.579 69.5775 277.505C71.1046 282.415 72.8711 288.575 75.3547 294.644C76.6425 297.623 77.8568 300.933 79.4205 303.967C80.1931 305.511 81.0209 307.001 81.9039 308.509C82.7317 310.053 83.633 311.58 84.5896 313.051C69.6546 299.426 52.4029 288.432 33.9564 280.159C33.1656 280.38 32.7427 280.509 32.7427 280.509C32.7427 280.509 32.945 280.932 33.2946 281.686C51.5572 289.885 68.6618 300.787 83.468 314.283C81.9047 313.492 80.3414 312.776 78.7598 312.169C77.1414 311.599 75.4862 311.158 73.8862 310.772C70.6126 310.055 67.523 309.467 64.3599 309.45C58.1073 309.303 52.5536 310.058 47.9563 311.383C48.1955 311.861 48.4346 312.321 48.6738 312.799C51.5793 311.971 54.8158 311.474 58.4018 311.198C61.9878 310.94 65.9233 310.921 69.8037 311.619C73.7393 312.262 77.8772 313.309 81.6659 315.24C83.597 316.177 85.5098 317.243 87.349 318.475C89.133 319.781 90.8251 321.27 92.4621 322.888L95.4234 325.885C96.3983 326.896 97.2995 327.981 98.2376 329.029C100.077 331.144 102.008 333.203 103.774 335.391L108.998 342.011C110.764 344.199 112.272 346.59 113.909 348.87C111.647 346.921 109.44 345.064 106.92 343.611C104.437 342.141 101.918 340.854 99.4163 339.751C96.9519 338.629 94.2484 337.894 91.7473 337.214C89.1909 336.571 86.7818 336.02 84.3174 335.726C79.3704 335.175 74.8832 335.102 70.9478 335.378C66.9388 335.747 63.5552 336.354 61.0358 336.906L61.8084 338.267C64.8611 337.641 69.1642 336.832 73.9272 336.812C78.7454 336.72 84.428 336.995 90.0924 338.465C95.9406 339.751 101.734 342.251 107.325 345.8C109.992 347.657 112.585 349.808 115.05 352.217C117.441 354.662 119.501 357.512 121.414 360.546C122.665 362.44 123.622 364.5 124.744 366.467C125.811 368.472 126.933 370.421 127.945 372.443L130.833 378.585L132.268 381.656C132.728 382.686 133.114 383.752 133.556 384.801C131.514 381.748 128.81 379.156 126.235 376.784C123.678 374.394 120.754 372.445 117.867 370.735C112.22 367.26 106.004 365.257 100.689 363.915C95.1904 362.684 90.2434 362.298 86.547 362.189C82.8322 362.097 80.1105 362.429 79.191 362.502L80.4969 363.826C82.6301 363.624 86.2713 363.549 91.108 363.972C93.4987 364.21 96.2389 364.523 99.0343 365.147C101.811 365.772 104.772 366.618 107.844 367.739C110.988 368.805 113.913 370.331 116.966 372.096C118.474 372.978 120 373.953 121.49 375.001C122.906 376.086 124.304 377.262 125.665 378.513C127.026 379.763 128.369 381.087 129.657 382.503C130.907 383.937 132.011 385.481 133.096 387.099C134.182 388.718 135.193 390.409 136.131 392.175C136.996 393.977 137.714 395.871 138.358 397.802C140.124 402.693 141.32 407.769 142.682 412.789C143.362 413.267 143.748 413.543 143.748 413.543C143.748 413.543 143.951 413.138 144.318 412.402C142.938 407.327 141.742 402.215 139.957 397.268C139.295 395.3 138.78 393.333 138.32 391.365C137.768 389.434 137.326 387.485 136.976 385.517C136.608 383.568 136.406 381.582 136.148 379.633C135.872 377.702 135.669 375.771 135.522 373.821C135.374 371.872 135.319 369.923 135.3 367.992C135.208 366.098 135.152 364.185 135.17 362.291C135.17 358.521 135.445 354.696 135.555 351.147C135.72 347.56 136.013 344.085 136.362 340.793C136.693 337.501 136.931 334.522 137.28 331.763C137.923 326.283 138.713 321.869 139.044 319.57L137.535 317.345C137.315 318.412 136.892 321.336 136.286 325.639C135.643 329.961 135.037 335.515 134.542 341.768C133.881 348.131 133.661 354.954 133.497 362.199C133.497 365.785 133.663 369.371 133.811 373.086C133.977 376.783 134.585 380.368 135.064 384.12C134.622 383.072 134.236 381.987 133.776 380.957L132.322 377.868L129.416 371.671C128.386 369.63 127.263 367.644 126.178 365.639C125.056 363.653 124.081 361.576 122.83 359.682C120.899 356.611 119.409 353.393 118.029 350.212C116.575 347.067 115.416 343.812 114.46 340.502C112.288 334.084 111 327.335 109.785 321.028C108.754 314.555 107.852 308.486 107.281 302.932C106.784 297.324 106.25 292.634 106.065 288.956L106.157 288.975Z" fill="#955043"/>
<path d="M58.5869 351.527C62.111 355.377 65.0722 359.699 68.0516 364.203C71.0129 368.67 73.956 373.337 76.8263 377.496C79.6785 381.655 82.4035 385.432 84.4381 388.084C86.4546 390.753 87.7444 392.424 87.7444 392.424C87.7444 392.424 87.2722 392.66 86.455 393.096C85.6014 393.496 84.3302 394.15 82.6775 394.75C79.3721 396.04 74.4684 397.421 68.3296 397.858C62.1907 398.313 54.853 397.66 47.2788 395.1C39.7591 392.541 32.0756 387.947 25.9537 381.246C19.8682 374.527 15.9982 366.463 14.1626 358.726C12.3087 350.953 12.362 343.579 13.3781 337.513C14.3942 331.428 16.2278 326.687 17.8256 323.509C18.57 321.928 19.3326 320.711 19.8229 319.912C20.3313 319.131 20.6218 318.677 20.6218 318.677C20.6218 318.677 22.1659 320.112 24.6364 322.363C27.0887 324.651 30.5764 327.702 34.4637 330.934C38.3328 334.185 42.7106 337.544 46.8885 340.922C51.0846 344.299 55.1172 347.659 58.605 351.545L58.5869 351.527Z" fill="url(#paint1_linear_1659_25878)"/>
<path d="M49.0862 342.738L48.4323 342.175C47.0887 344.881 45.3095 349.513 45.0199 355.216C44.6939 360.883 46.0572 367.657 50.2355 373.396C45.1674 369.074 40.626 364.153 36.7202 358.759C33.5047 354.328 32.4867 349.061 32.7947 344.393C33.1027 339.689 34.7185 335.566 36.4253 332.569L35.6987 331.988C34.3369 334.349 32.9389 337.437 32.2674 340.997C31.5778 344.539 31.5059 348.607 32.6508 352.603C26.5828 342.414 22.5852 330.973 21.1666 319.185C20.8033 318.859 20.6034 318.677 20.6034 318.677C20.6034 318.677 20.4582 318.913 20.1858 319.313C21.6226 331.227 25.6747 342.814 31.8154 353.111C25.8571 347.318 18.5187 342.815 13.0876 339.511L12.9606 340.655C16.3755 342.707 20.5897 345.321 24.6767 348.354C28.7819 351.404 32.6875 354.891 35.9211 359.34C39.8633 364.807 44.4774 369.782 49.5999 374.159C43.297 370.909 36.5038 368.603 30.2919 366.479C24.08 364.41 18.4493 362.685 14.9438 361.632L15.3436 362.904C19.6301 364.156 26.6412 366.262 34.0338 368.821C41.5172 371.417 49.1641 374.377 56.1937 379.243C60.6259 382.366 65.3849 385.017 70.3255 387.25C65.9664 386.416 61.5891 385.981 57.2846 385.727C52.9982 385.437 48.8026 385.329 44.9885 385.257C37.3602 385.113 31.3121 385.096 29.9862 385.168L31.2759 386.276C34.2001 386.203 41.8828 386.184 50.5827 386.418C54.9417 386.545 59.5369 386.798 64.1684 387.324C68.7999 387.868 73.4134 388.739 78.0632 390.319C81.0239 391.281 84.0208 392.152 87.0722 392.805C87.5081 392.569 87.7442 392.442 87.7442 392.442C87.7442 392.442 87.5807 392.224 87.29 391.825C84.275 391.171 81.3143 390.318 78.39 389.356C73.7765 387.795 69.98 384.926 67.2006 381.584C64.403 378.243 62.6406 374.374 61.6411 370.742C59.6239 363.441 60.8216 357.084 61.3661 354.796L60.7302 354.015C60.458 355.05 59.0784 359.936 59.8423 366.402C60.2242 369.616 61.1511 373.212 62.8953 376.754C64.6576 380.241 67.2554 383.655 70.7431 386.342C65.857 384.145 61.1706 381.513 56.7748 378.426C53.2872 375.993 50.6531 372.778 48.909 369.328C47.1648 365.877 46.2924 362.208 46.0194 358.794C45.5279 351.874 47.5611 346.007 49.1044 342.738L49.0862 342.738Z" fill="#955043"/>
<path d="M339.678 379.56C332.967 386.66 324.784 391.792 316.656 395.122C312.5 396.685 308.528 398.01 304.538 398.746C302.57 399.151 300.676 399.483 298.8 399.74C296.906 399.943 295.086 400.09 293.357 400.183C289.9 400.422 286.663 400.239 283.831 400.019C282.415 399.909 281.109 399.762 279.895 399.615C278.663 399.413 277.541 399.211 276.53 399.009C272.502 398.182 270.259 397.428 270.259 397.428C270.259 397.428 271.306 395.184 273.145 391.69C273.604 390.825 274.119 389.869 274.652 388.858C275.186 387.809 275.755 386.687 276.362 385.51C277.575 383.174 278.954 380.692 280.352 377.915C281.804 375.211 283.33 372.379 284.874 369.491C286.51 366.677 288.073 363.606 289.893 360.81C293.368 354.962 297.247 349.334 302.01 344.312C306.717 339.218 312.067 335.005 317.676 331.142C320.36 329.138 323.321 327.39 326.024 325.569C328.8 323.84 331.54 322.129 334.133 320.51C336.799 318.947 339.19 317.402 341.452 316.04C342.592 315.36 343.677 314.716 344.688 314.127C345.662 313.52 346.582 312.95 347.409 312.435C350.774 310.375 352.944 309.197 352.944 309.197C352.944 309.197 353.846 311.386 354.913 315.358C355.189 316.351 355.465 317.454 355.741 318.668C355.98 319.863 356.201 321.169 356.404 322.566C356.809 325.362 357.195 328.598 357.196 332.055C357.215 333.803 357.197 335.623 357.123 337.517C356.995 339.393 356.775 341.306 356.499 343.292C356.022 347.319 354.956 351.365 353.669 355.614C350.875 363.926 346.279 372.442 339.641 379.578L339.678 379.56Z" fill="url(#paint2_linear_1659_25878)"/>
<path d="M352.015 360.065L352.566 358.704C350.507 359.036 347.84 359.533 344.843 360.195C341.772 360.821 338.296 361.575 334.747 362.569C327.447 364.446 319.686 367.096 312.368 371.032C318.233 365.808 323.602 360.033 328.548 353.927C329.559 352.676 330.644 351.536 331.766 350.469C332.851 349.365 333.991 348.335 335.186 347.397C337.632 345.539 340.077 343.847 342.633 342.394C345.244 340.959 347.745 339.653 350.228 338.531C352.71 337.409 355.137 336.47 357.215 335.642L357.215 334.337C350.54 336.986 341.327 340.886 333.807 347.048C342.062 335.737 348.533 323.175 353.294 310.007C353.092 309.474 352.981 309.18 352.981 309.18C352.981 309.18 352.705 309.345 352.191 309.621C347.485 322.679 341.05 335.149 332.869 346.368C336.361 337.209 334.778 327.665 332.478 321.56L331.541 322.167C332.277 324.134 332.847 326.359 333.252 328.824C333.657 331.288 333.933 334.01 333.731 336.75C333.566 339.508 333.126 342.432 332.096 345.209C331.6 346.607 330.993 348.005 330.295 349.366C329.541 350.69 328.64 351.977 327.647 353.228C322.738 359.279 317.406 365.018 311.595 370.205C316.339 363.436 318.011 355.437 318.157 348.687C318.156 345.23 317.862 342.104 317.383 339.382C316.849 336.624 316.187 334.325 315.617 332.615L314.716 333.277C315.36 335.355 316.206 338.279 316.593 341.589C317.016 344.918 317.238 348.871 316.705 352.917C316.283 357.055 315.051 361.267 313.103 365.423C312.055 367.428 310.823 369.414 309.389 371.309C307.918 373.185 306.171 374.858 304.259 376.459C301.813 378.427 299.257 380.248 296.738 382.106C294.109 383.798 291.571 385.674 288.85 387.219C296.223 379.936 299.274 370.207 300.045 362.52C300.412 358.621 300.265 355.164 300.025 352.589C299.786 349.996 299.344 348.157 299.197 347.514L298.369 348.543C298.682 349.996 299.032 352.534 299.143 355.899C299.18 357.573 299.199 359.504 299.015 361.49C298.832 363.476 298.501 365.591 298.023 367.816C297.564 370.078 296.792 372.248 295.891 374.529C295.431 375.651 294.917 376.791 294.328 377.931C293.722 379.017 293.06 380.102 292.343 381.168C291.626 382.235 290.835 383.284 290.008 384.313C289.162 385.325 288.206 386.245 287.213 387.164C286.22 388.084 285.172 388.949 284.05 389.776C282.91 390.567 281.697 391.266 280.446 391.929C277.283 393.676 273.955 395.093 270.682 396.583C270.443 397.098 270.296 397.392 270.296 397.392C270.296 397.392 270.59 397.484 271.142 397.649C274.452 396.122 277.798 394.706 280.98 392.94C291.075 387.697 302.053 386.059 312.039 385.285C314.503 385.082 316.894 384.953 319.174 384.897C321.455 384.842 323.514 384.749 325.427 384.749C329.234 384.712 332.305 384.877 333.905 384.932L335.284 383.718C334.53 383.663 332.507 383.608 329.509 383.553C326.493 383.48 322.65 383.536 318.347 383.739C309.611 384.126 299.24 385.011 289.438 388.194C292.196 386.63 294.734 384.754 297.4 383.043C299.956 381.167 302.53 379.328 304.994 377.36C312.828 371.161 321.765 367.628 330.352 365.016C338.94 362.495 347.087 360.93 352.033 360.084L352.015 360.065Z" fill="#955043"/>
<path d="M67.7703 47.1929L203.627 8.99381C219.047 4.65821 235.101 13.6504 239.441 29.0879L331.569 356.745C335.905 372.165 326.912 388.219 311.475 392.559L175.618 430.758C160.198 435.094 144.145 426.102 139.804 410.664L47.6762 83.0067C43.3406 67.5869 52.3328 51.5335 67.7703 47.1929Z" fill="url(#paint3_linear_1659_25878)"/>
<path d="M205.001 13.8799L69.1439 52.079C56.404 55.6611 48.98 68.8927 52.5622 81.6327L144.69 409.29C148.272 422.03 161.504 429.454 174.244 425.872L310.101 387.673C322.841 384.091 330.265 370.859 326.683 358.119L234.555 30.4616C230.973 17.7217 217.741 10.2978 205.001 13.8799Z" fill="url(#paint4_linear_1659_25878)" stroke="#282723" stroke-width="0.298377" stroke-miterlimit="10"/>
<path d="M186.751 30.3032C188.39 36.1314 185.021 42.1559 179.25 43.7786L106.701 64.1773C100.912 65.8051 94.9099 62.396 93.2762 56.5856C92.8452 55.0528 91.2552 54.1536 89.7327 54.5817L71.4272 59.7287C63.0888 62.0732 58.2581 70.7782 60.6134 79.1551L153.535 409.634C155.895 418.029 164.567 422.918 172.888 420.578L308.479 382.454C316.818 380.11 321.648 371.405 319.293 363.028L226.372 32.5487C224.012 24.1539 215.339 19.2648 207.019 21.6043L188.713 26.7513C187.191 27.1793 186.302 28.7754 186.733 30.3082L186.751 30.3032Z" fill="url(#paint5_linear_1659_25878)"/>
<path d="M52.562 81.6325L47.6758 83.0063L48.0889 84.4757L52.9751 83.1019L52.562 81.6325Z" fill="#282723"/>
<path d="M144.277 407.82L139.391 409.194L139.804 410.664L144.69 409.29L144.277 407.82Z" fill="#282723"/>
<path d="M239.441 29.0881L234.555 30.4619L234.968 31.9313L239.854 30.5575L239.441 29.0881Z" fill="#282723"/>
<path d="M331.156 355.276L326.27 356.65L326.683 358.119L331.569 356.745L331.156 355.276Z" fill="#282723"/>
<path d="M153.28 41.9846L127.929 49.1127C126.92 49.3965 125.877 48.8111 125.593 47.802C125.309 46.7929 125.894 45.7495 126.904 45.4658L152.255 38.3377C153.264 38.054 154.307 38.6394 154.591 39.6485C154.875 40.6576 154.29 41.7009 153.28 41.9846Z" fill="#282723"/>
<path d="M165.515 36.5769C165.799 37.586 165.213 38.6293 164.204 38.913C163.195 39.1968 162.152 38.6114 161.868 37.6023C161.584 36.5932 162.17 35.5498 163.179 35.2661C164.188 34.9824 165.231 35.5678 165.515 36.5769Z" fill="#282723"/>
<path d="M62.3315 136.425L63.3937 136.126C63.9956 135.957 64.6307 136.313 64.8 136.915L71.5547 160.939C71.724 161.541 71.3677 162.176 70.7657 162.345L69.7035 162.644C69.438 162.718 69.1658 162.566 69.0911 162.3L61.9929 137.055C61.9182 136.789 62.0709 136.517 62.3365 136.442L62.3315 136.425Z" fill="url(#paint6_linear_1659_25878)"/>
<path d="M70.7006 166.184L71.7629 165.885C72.3648 165.716 72.9999 166.072 73.1691 166.674L79.9239 190.698C80.0931 191.3 79.7368 191.935 79.1349 192.104L78.0727 192.403C77.8071 192.478 77.5349 192.325 77.4603 192.059L70.362 166.814C70.2874 166.549 70.4401 166.276 70.7056 166.202L70.7006 166.184Z" fill="url(#paint7_linear_1659_25878)"/>
<path d="M270.178 138.408L269.116 138.707C268.514 138.876 267.879 138.519 267.71 137.917L252.587 84.1341C252.418 83.5322 252.775 82.8971 253.376 82.7278L254.439 82.4292C254.704 82.3545 254.976 82.5072 255.051 82.7728L270.522 137.795C270.597 138.061 270.444 138.333 270.178 138.408Z" fill="url(#paint8_linear_1659_25878)"/>
<path d="M233.1 56.4125L67.3242 103.024L137.749 353.494L256.914 141.106L233.1 56.4125Z" fill="url(#paint9_linear_1659_25878)"/>
<path d="M207.036 21.5993L188.731 26.7463C187.208 27.1744 186.318 28.7621 186.746 30.2846C188.373 36.0736 184.996 42.0665 179.225 43.6892L106.676 64.0879C100.887 65.7157 94.8937 62.3383 93.2709 56.567C92.8429 55.0445 91.2552 54.1536 89.7327 54.5817L71.4272 59.7287C63.0888 62.0732 58.2452 70.7325 60.5848 79.0532L125.27 309.111L244.435 96.7234L226.361 32.4417C224.016 24.1033 215.357 19.2598 207.036 21.5993Z" fill="url(#paint10_linear_1659_25878)"/>
<defs>
<linearGradient id="paint0_linear_1659_25878" x1="24.702" y1="247.151" x2="131.954" y2="365.014" gradientUnits="userSpaceOnUse">
<stop stop-color="#FAD553"/>
<stop offset="0.14" stop-color="#F2CB51"/>
<stop offset="0.37" stop-color="#DFB14E"/>
<stop offset="0.67" stop-color="#BF8749"/>
<stop offset="1" stop-color="#955043"/>
</linearGradient>
<linearGradient id="paint1_linear_1659_25878" x1="-4.55211" y1="314.34" x2="65.9131" y2="392.664" gradientUnits="userSpaceOnUse">
<stop stop-color="#FAD553"/>
<stop offset="0.14" stop-color="#F2CB51"/>
<stop offset="0.37" stop-color="#DFB14E"/>
<stop offset="0.67" stop-color="#BF8749"/>
<stop offset="1" stop-color="#955043"/>
</linearGradient>
<linearGradient id="paint2_linear_1659_25878" x1="313.731" y1="162.672" x2="313.791" y2="526.298" gradientUnits="userSpaceOnUse">
<stop stop-color="#FAD553"/>
<stop offset="0.14" stop-color="#F2CB51"/>
<stop offset="0.37" stop-color="#DFB14E"/>
<stop offset="0.67" stop-color="#BF8749"/>
<stop offset="1" stop-color="#955043"/>
</linearGradient>
<linearGradient id="paint3_linear_1659_25878" x1="241.695" y1="405.073" x2="16.0493" y2="-397.447" gradientUnits="userSpaceOnUse">
<stop stop-color="#19425E"/>
<stop offset="0.99" stop-color="#34ADC7"/>
</linearGradient>
<linearGradient id="paint4_linear_1659_25878" x1="122.896" y1="-17.4403" x2="251.316" y2="439.294" gradientUnits="userSpaceOnUse">
<stop stop-color="#19425E"/>
<stop offset="1" stop-color="#282723"/>
</linearGradient>
<linearGradient id="paint5_linear_1659_25878" x1="324.053" y1="698.534" x2="53.6324" y2="-263.775" gradientUnits="userSpaceOnUse">
<stop stop-color="#9D1AAC"/>
<stop offset="0.625" stop-color="#551D9F"/>
<stop offset="0.99" stop-color="#551D9F"/>
</linearGradient>
<linearGradient id="paint6_linear_1659_25878" x1="81.5106" y1="145.188" x2="5.4562" y2="166.572" gradientUnits="userSpaceOnUse">
<stop stop-color="#19425E"/>
<stop offset="0.99" stop-color="#34ADC7"/>
</linearGradient>
<linearGradient id="paint7_linear_1659_25878" x1="89.8797" y1="174.947" x2="13.8253" y2="196.331" gradientUnits="userSpaceOnUse">
<stop stop-color="#19425E"/>
<stop offset="0.99" stop-color="#34ADC7"/>
</linearGradient>
<linearGradient id="paint8_linear_1659_25878" x1="246.818" y1="114.774" x2="322.873" y2="93.3896" gradientUnits="userSpaceOnUse">
<stop stop-color="#19425E"/>
<stop offset="0.99" stop-color="#34ADC7"/>
</linearGradient>
<linearGradient id="paint9_linear_1659_25878" x1="105.02" y1="159.84" x2="235.324" y2="232.95" gradientUnits="userSpaceOnUse">
<stop offset="0.56" stop-color="#D2DBEA" stop-opacity="0"/>
<stop offset="0.68" stop-color="#D2DBEA" stop-opacity="0"/>
<stop offset="0.74" stop-color="#D2DBEA" stop-opacity="0.04"/>
<stop offset="0.79" stop-color="#D2DBEA" stop-opacity="0.1"/>
<stop offset="0.83" stop-color="#D2DBEA" stop-opacity="0.18"/>
<stop offset="0.87" stop-color="#D2DBEA" stop-opacity="0.28"/>
<stop offset="0.9" stop-color="#D2DBEA" stop-opacity="0.41"/>
<stop offset="0.93" stop-color="#D2DBEA" stop-opacity="0.57"/>
<stop offset="0.96" stop-color="#D2DBEA" stop-opacity="0.74"/>
<stop offset="0.98" stop-color="#D2DBEA" stop-opacity="0.94"/>
<stop offset="0.99" stop-color="#D2DBEA"/>
</linearGradient>
<linearGradient id="paint10_linear_1659_25878" x1="96.0742" y1="123.404" x2="219.012" y2="192.396" gradientUnits="userSpaceOnUse">
<stop offset="0.56" stop-color="#042967" stop-opacity="0"/>
<stop offset="0.68" stop-color="#D2DBEA" stop-opacity="0"/>
<stop offset="0.74" stop-color="#D2DBEA" stop-opacity="0.04"/>
<stop offset="0.79" stop-color="#D2DBEA" stop-opacity="0.1"/>
<stop offset="0.83" stop-color="#F3F8FF" stop-opacity="0.18"/>
<stop offset="0.87" stop-color="#D2DBEA" stop-opacity="0.28"/>
<stop offset="0.9" stop-color="#D2DBEA" stop-opacity="0.41"/>
<stop offset="0.93" stop-color="#D2DBEA" stop-opacity="0.57"/>
<stop offset="0.96" stop-color="#D2DBEA" stop-opacity="0.74"/>
<stop offset="0.98" stop-color="#D2DBEA" stop-opacity="0.94"/>
<stop offset="0.99" stop-color="#00235C"/>
</linearGradient>
</defs>
</svg>
