<svg width="357" height="334" viewBox="0 0 357 334" fill="none" xmlns="http://www.w3.org/2000/svg">
<g clip-path="url(#clip0_1668_32670)">
<path d="M155.38 110.27C154.04 110.27 152.77 110.59 151.64 111.13C149.76 108.27 146.52 106.38 142.84 106.38C140.85 106.38 139 106.94 137.41 107.9C137.48 107.4 137.53 106.9 137.53 106.38C137.53 100.56 132.82 95.8502 127 95.8502C126.92 95.8502 126.85 95.8502 126.77 95.8602C126.92 95.3002 127 94.7202 127 94.1102C127 90.3102 123.92 87.2302 120.12 87.2302C116.66 87.2302 113.81 89.7802 113.32 93.1002C113.03 89.4402 109.91 86.6301 106.21 86.7701C102.41 86.9101 99.4495 90.1102 99.5995 93.9002C99.6295 94.6302 99.7695 95.3302 99.9995 95.9802C94.9595 96.7602 91.0995 101.11 91.0995 106.37C91.0995 106.58 91.1195 106.79 91.1295 107C89.0995 107.72 87.3495 109.03 86.0795 110.72C84.4195 109.68 82.4595 109.07 80.3495 109.07C74.3695 109.07 69.5195 113.92 69.5195 119.9C69.5195 125.88 74.3695 130.73 80.3495 130.73C83.8995 130.73 87.0395 129.01 89.0195 126.37C90.6795 127.41 92.6395 128.02 94.7495 128.02C98.9695 128.02 102.62 125.6 104.41 122.07C106.22 125.26 109.64 127.42 113.57 127.42C116.79 127.42 119.67 125.97 121.6 123.69C123.39 126.95 126.85 129.17 130.84 129.17C133.65 129.17 136.19 128.06 138.08 126.27C139.51 126.99 141.12 127.41 142.83 127.41C145.33 127.41 147.62 126.53 149.43 125.08C150.98 126.56 153.07 127.47 155.37 127.47C160.13 127.47 163.98 123.61 163.98 118.86C163.98 114.11 160.12 110.25 155.37 110.25L155.38 110.27Z" fill="#FDFDFD"/>
<path d="M123.059 92.4598C123.059 92.4598 117.769 90.8298 109.799 77.5498L108.549 78.1698C108.549 78.1698 108.359 86.1098 107.049 96.0398L116.769 98.9498L123.069 92.4598H123.059Z" fill="#FDFDFD"/>
<path d="M95.2394 56.1598C93.2194 49.1098 88.6794 44.2298 85.0794 45.2598C81.4894 46.2898 80.2094 52.8398 82.2294 59.8898C84.6194 68.2398 94.1994 77.5598 94.1994 77.5598C94.1994 77.5598 97.5594 64.2698 95.2494 56.1598H95.2394Z" fill="#FDFDFD"/>
<path d="M119.548 49.1998C117.528 42.1498 112.988 37.2698 109.388 38.2998C105.798 39.3298 104.518 45.8798 106.538 52.9298C108.928 61.2898 118.508 70.5998 118.508 70.5998C118.508 70.5998 121.868 57.3098 119.558 49.1998H119.548Z" fill="#FDFDFD"/>
<path d="M109.549 52.6301C106.159 43.4801 99.6191 37.4701 94.9591 39.2001C90.2991 40.9301 89.2691 49.7501 92.6591 58.9001C96.6791 69.7401 110.339 81.1301 110.339 81.1301C110.339 81.1301 113.449 63.1501 109.549 52.6301Z" fill="#FF597B"/>
<path d="M81.6188 15.7799C80.4388 23.2399 79.9488 32.1299 82.1088 39.6799C86.2288 54.0999 95.5288 64.0799 102.879 61.9799C110.229 59.8799 112.839 46.4899 108.719 32.0699C106.209 23.2899 100.129 15.0699 94.8088 9.1499C94.4888 9.2999 94.1688 9.4399 93.8488 9.5899C89.8488 11.8099 85.8088 13.9299 81.6288 15.7799H81.6188Z" fill="#280948"/>
<path d="M96.2793 10.84C90.6493 4.27 85.4093 0 85.4093 0C85.4093 0 82.9193 7.16 81.5293 16.37C86.4893 14.63 91.4093 12.8 96.2893 10.84H96.2793Z" fill="#FF597B"/>
<path d="M98.9287 23.4498C99.9587 27.0598 97.8687 30.8298 94.2587 31.8598C90.6487 32.8898 86.8787 30.7998 85.8487 27.1898C84.8187 23.5798 86.9087 19.8098 90.5187 18.7798C94.1287 17.7498 97.8987 19.8398 98.9287 23.4498Z" fill="#F9FBFC"/>
<path d="M201.249 74.1001H187.869V108.77H201.249V74.1001Z" fill="#30334D"/>
<path d="M221.759 57.9702H208.379V108.76H221.759V57.9702Z" fill="#30334D"/>
<path d="M265.179 57.9702H251.799V108.76H265.179V57.9702Z" fill="#30334D"/>
<path d="M243.169 47.5898H229.789V108.77H243.169V47.5898Z" fill="#30334D"/>
<path d="M287.519 40.5601H274.139V108.76H287.519V40.5601Z" fill="#30334D"/>
<path d="M194.559 60.8102L236.479 28.1502L258.489 47.8302L280.829 19.7002" stroke="#30334D" stroke-miterlimit="10"/>
<path d="M196.329 60.81C196.329 61.79 195.539 62.58 194.559 62.58C193.579 62.58 192.789 61.79 192.789 60.81C192.789 59.83 193.579 59.04 194.559 59.04C195.539 59.04 196.329 59.83 196.329 60.81Z" fill="#30334D"/>
<path d="M238.249 28.3501C238.249 29.3301 237.459 30.1201 236.479 30.1201C235.499 30.1201 234.709 29.3301 234.709 28.3501C234.709 27.3701 235.499 26.5801 236.479 26.5801C237.459 26.5801 238.249 27.3701 238.249 28.3501Z" fill="#30334D"/>
<path d="M260.259 47.5903C260.259 48.5703 259.469 49.3603 258.489 49.3603C257.509 49.3603 256.719 48.5703 256.719 47.5903C256.719 46.6103 257.509 45.8203 258.489 45.8203C259.469 45.8203 260.259 46.6103 260.259 47.5903Z" fill="#30334D"/>
<path d="M282.599 19.7002C282.599 20.6802 281.809 21.4702 280.829 21.4702C279.849 21.4702 279.059 20.6802 279.059 19.7002C279.059 18.7202 279.849 17.9302 280.829 17.9302C281.809 17.9302 282.599 18.7202 282.599 19.7002Z" fill="#30334D"/>
<path d="M279.561 75.98H288.681" stroke="#F9FBFC" stroke-linecap="round" stroke-linejoin="round"/>
<path d="M284.121 73.3398H293.241" stroke="#F9FBFC" stroke-linecap="round" stroke-linejoin="round"/>
<path d="M150.57 75.4204H159.69" stroke="#F9FBFC" stroke-linecap="round" stroke-linejoin="round"/>
<path d="M155.131 72.7803H164.251" stroke="#F9FBFC" stroke-linecap="round" stroke-linejoin="round"/>
<path d="M324.189 89.5703H333.309" stroke="#30334D" stroke-linecap="round" stroke-linejoin="round"/>
<path d="M328.75 86.9302H337.87" stroke="#30334D" stroke-linecap="round" stroke-linejoin="round"/>
<path d="M18.1699 149.99H27.2899" stroke="#30334D" stroke-linecap="round" stroke-linejoin="round"/>
<path d="M22.7305 147.35H31.8505" stroke="#30334D" stroke-linecap="round" stroke-linejoin="round"/>
<path d="M317.352 27.5601V32.6701" stroke="#30334D" stroke-linecap="round" stroke-linejoin="round"/>
<path d="M319.911 30.1201H314.801" stroke="#30334D" stroke-linecap="round" stroke-linejoin="round"/>
<path d="M140.461 30.1201V35.2301" stroke="#30334D" stroke-linecap="round" stroke-linejoin="round"/>
<path d="M143.02 32.6699H137.91" stroke="#30334D" stroke-linecap="round" stroke-linejoin="round"/>
<path d="M336.71 56.56C338.118 56.56 339.26 55.4183 339.26 54.01C339.26 52.6016 338.118 51.46 336.71 51.46C335.302 51.46 334.16 52.6016 334.16 54.01C334.16 55.4183 335.302 56.56 336.71 56.56Z" stroke="#F9C921" stroke-linecap="round" stroke-linejoin="round"/>
<path d="M51.4398 91.4299C51.4398 92.8399 50.2998 93.9799 48.8898 93.9799C47.4798 93.9799 46.3398 92.8399 46.3398 91.4299C46.3398 90.0199 47.4798 88.8799 48.8898 88.8799C50.2998 88.8799 51.4398 90.0199 51.4398 91.4299Z" stroke="#FCFCFC" stroke-linecap="round" stroke-linejoin="round"/>
<path d="M285.06 117.55H71.6202C62.2977 117.55 54.7402 125.107 54.7402 134.43V270.95C54.7402 280.272 62.2977 287.83 71.6202 287.83H285.06C294.383 287.83 301.94 280.272 301.94 270.95V134.43C301.94 125.107 294.383 117.55 285.06 117.55Z" fill="#30334D"/>
<path d="M285.83 271.72V133.66H70.8401V271.72H285.83Z" fill="#4B7EFF"/>
<path d="M42.1797 269.21H318.17V270.06C318.17 283.79 307.03 294.93 293.3 294.93H67.0497C53.3297 294.93 42.1797 283.79 42.1797 270.06V269.21Z" fill="#A5B7C6"/>
<path d="M200.009 282.07H158.549C151.449 282.07 145.689 276.31 145.689 269.21H212.869C212.869 276.31 207.109 282.07 200.009 282.07Z" fill="#3E4261"/>
<path d="M137.91 157.93V163.04" stroke="#30334D" stroke-linecap="round" stroke-linejoin="round"/>
<path d="M140.46 160.479H135.35" stroke="#30334D" stroke-linecap="round" stroke-linejoin="round"/>
<g style="mix-blend-mode:multiply" opacity="0.54">
<path d="M153.35 204.26H78.5195V254.28H153.35V204.26Z" fill="#4B7EFF"/>
</g>
<g style="mix-blend-mode:multiply" opacity="0.54">
<path d="M277.05 145.18H158.91V254.28H277.05V145.18Z" fill="#4B7EFF"/>
</g>
<g style="mix-blend-mode:multiply" opacity="0.54">
<path d="M155.17 145.67H80.3398V180.11H155.17V145.67Z" fill="#4B7EFF"/>
</g>
<g filter="url(#filter0_d_1668_32670)">
<path d="M319.73 99.8799H167V246.45H319.73V99.8799Z" fill="#FCF7F7"/>
<path d="M310.219 109.84H175.699V168.7H310.219V109.84Z" fill="#A8DBFF"/>
<path d="M310.219 162.28H175.699V168.7H310.219V162.28Z" fill="#4B7EFF"/>
<path d="M209.77 112.49V160.55" stroke="#30334D" stroke-width="0.5" stroke-miterlimit="10"/>
<path d="M245.631 112.49V160.55" stroke="#30334D" stroke-width="0.5" stroke-miterlimit="10"/>
<path d="M281.49 112.49V160.55" stroke="#30334D" stroke-width="0.5" stroke-miterlimit="10"/>
<path d="M180.76 139.86L202.55 127.16C206.98 124.58 212.49 124.71 216.79 127.51L218.4 128.56C223.62 131.95 230.48 131.36 235.04 127.12L236.51 125.76C241.67 120.96 249.65 120.91 254.87 125.65C260.23 130.51 268.47 130.31 273.59 125.19L275.46 123.32C279.15 119.63 284.63 118.38 289.55 120.11L302.81 124.76" stroke="#4B7EFF" stroke-width="0.5" stroke-miterlimit="10"/>
<path d="M182.319 139.86C182.319 140.72 181.619 141.42 180.759 141.42C179.899 141.42 179.199 140.72 179.199 139.86C179.199 139 179.899 138.3 180.759 138.3C181.619 138.3 182.319 139 182.319 139.86Z" fill="#4B7EFF"/>
<path d="M211.331 125.88C211.331 126.74 210.631 127.44 209.771 127.44C208.911 127.44 208.211 126.74 208.211 125.88C208.211 125.02 208.911 124.32 209.771 124.32C210.631 124.32 211.331 125.02 211.331 125.88Z" fill="#4B7EFF"/>
<path d="M247.19 122.25C247.19 123.11 246.49 123.81 245.63 123.81C244.77 123.81 244.07 123.11 244.07 122.25C244.07 121.39 244.77 120.69 245.63 120.69C246.49 120.69 247.19 121.39 247.19 122.25Z" fill="#4B7EFF"/>
<path d="M283.05 119.33C283.05 120.19 282.35 120.89 281.49 120.89C280.63 120.89 279.93 120.19 279.93 119.33C279.93 118.47 280.63 117.77 281.49 117.77C282.35 117.77 283.05 118.47 283.05 119.33Z" fill="#4B7EFF"/>
<path d="M304.36 125.37C304.36 126.23 303.66 126.93 302.8 126.93C301.94 126.93 301.24 126.23 301.24 125.37C301.24 124.51 301.94 123.81 302.8 123.81C303.66 123.81 304.36 124.51 304.36 125.37Z" fill="#4B7EFF"/>
<path d="M184.109 165.49H199.769" stroke="#FAFCFB" stroke-width="0.5" stroke-miterlimit="10"/>
<path d="M219.811 165.49H235.461" stroke="#FAFCFB" stroke-width="0.5" stroke-miterlimit="10"/>
<path d="M255.5 165.49H271.15" stroke="#FAFCFB" stroke-width="0.5" stroke-miterlimit="10"/>
<path d="M291.199 165.49H306.849" stroke="#FAFCFB" stroke-width="0.5" stroke-miterlimit="10"/>
<path d="M310.219 190.08H175.699V239.22H310.219V190.08Z" fill="#A8DBFF"/>
<path d="M305.819 192.95H234.209C232.596 192.95 231.289 194.257 231.289 195.87V205.62C231.289 207.232 232.596 208.54 234.209 208.54H305.819C307.432 208.54 308.739 207.232 308.739 205.62V195.87C308.739 194.257 307.432 192.95 305.819 192.95Z" fill="#3E4261"/>
<path d="M240.67 197.68H299.37" stroke="#FCFCFC" stroke-width="0.5" stroke-miterlimit="10"/>
<path d="M240.67 200.74H299.37" stroke="#FCFCFC" stroke-width="0.5" stroke-miterlimit="10"/>
<path d="M240.67 203.81H299.37" stroke="#FCFCFC" stroke-width="0.5" stroke-miterlimit="10"/>
<path d="M298.059 211.73L300.339 207.78H295.779L298.059 211.73L300.339 207.78H295.779L298.059 211.73Z" fill="#3E4261"/>
<path d="M235.689 233.16H307.299C308.911 233.16 310.219 231.852 310.219 230.24V220.49C310.219 218.877 308.911 217.57 307.299 217.57H235.689C234.076 217.57 232.769 218.877 232.769 220.49V230.24C232.769 231.852 234.076 233.16 235.689 233.16Z" fill="#676DA1"/>
<path d="M300.84 222.3H242.15" stroke="#FCFCFC" stroke-width="0.5" stroke-miterlimit="10"/>
<path d="M300.84 225.36H242.15" stroke="#FCFCFC" stroke-width="0.5" stroke-miterlimit="10"/>
<path d="M300.84 228.43H242.15" stroke="#FCFCFC" stroke-width="0.5" stroke-miterlimit="10"/>
<path d="M243.45 236.35L241.17 232.4H245.73L243.45 236.35L241.17 232.4H245.73L243.45 236.35Z" fill="#676DA1"/>
<path d="M186 199.41C186 200.15 185.4 200.74 184.67 200.74C183.94 200.74 183.34 200.14 183.34 199.41C183.34 198.68 183.94 198.08 184.67 198.08C185.4 198.08 186 198.68 186 199.41Z" fill="#F9FBFC"/>
<path d="M217.321 197.61H191.221C190.486 197.61 189.891 198.205 189.891 198.94V199.9C189.891 200.634 190.486 201.23 191.221 201.23H217.321C218.055 201.23 218.651 200.634 218.651 199.9V198.94C218.651 198.205 218.055 197.61 217.321 197.61Z" fill="#30334D"/>
<path d="M186 207.03C186 207.77 185.4 208.36 184.67 208.36C183.94 208.36 183.34 207.76 183.34 207.03C183.34 206.3 183.94 205.7 184.67 205.7C185.4 205.7 186 206.3 186 207.03Z" fill="#F9FBFC"/>
<path d="M217.321 205.22H191.221C190.486 205.22 189.891 205.815 189.891 206.55V207.51C189.891 208.244 190.486 208.84 191.221 208.84H217.321C218.055 208.84 218.651 208.244 218.651 207.51V206.55C218.651 205.815 218.055 205.22 217.321 205.22Z" fill="#30334D"/>
<path d="M186 214.65C186 215.39 185.4 215.98 184.67 215.98C183.94 215.98 183.34 215.38 183.34 214.65C183.34 213.92 183.94 213.32 184.67 213.32C185.4 213.32 186 213.92 186 214.65Z" fill="#F9FBFC"/>
<path d="M217.321 212.84H191.221C190.486 212.84 189.891 213.435 189.891 214.17V215.13C189.891 215.864 190.486 216.46 191.221 216.46H217.321C218.055 216.46 218.651 215.864 218.651 215.13V214.17C218.651 213.435 218.055 212.84 217.321 212.84Z" fill="#30334D"/>
<path d="M186 222.27C186 223.01 185.4 223.6 184.67 223.6C183.94 223.6 183.34 223 183.34 222.27C183.34 221.54 183.94 220.94 184.67 220.94C185.4 220.94 186 221.54 186 222.27Z" fill="#F9FBFC"/>
<path d="M217.321 220.46H191.221C190.486 220.46 189.891 221.055 189.891 221.79V222.75C189.891 223.484 190.486 224.08 191.221 224.08H217.321C218.055 224.08 218.651 223.484 218.651 222.75V221.79C218.651 221.055 218.055 220.46 217.321 220.46Z" fill="#30334D"/>
<path d="M186 229.89C186 230.63 185.4 231.22 184.67 231.22C183.94 231.22 183.34 230.62 183.34 229.89C183.34 229.16 183.94 228.56 184.67 228.56C185.4 228.56 186 229.16 186 229.89Z" fill="#F9FBFC"/>
<path d="M217.321 228.08H191.221C190.486 228.08 189.891 228.676 189.891 229.41V230.37C189.891 231.105 190.486 231.7 191.221 231.7H217.321C218.055 231.7 218.651 231.105 218.651 230.37V229.41C218.651 228.676 218.055 228.08 217.321 228.08Z" fill="#30334D"/>
<path d="M228.949 194.1V235.2" stroke="#30334D" stroke-width="0.5" stroke-miterlimit="10"/>
<path d="M310.219 173.5H175.699V183.93H310.219V173.5Z" fill="#4B7EFF"/>
</g>
<path d="M106.29 153.27L94.0195 160.48V146.06L106.29 153.27ZM117.76 159.96V146.56C117.76 146.56 117.76 140.1 111.3 140.1H86.7295C86.7295 140.1 80.2695 140.1 80.2695 146.56V159.96C80.2695 159.96 80.2695 166.42 86.7295 166.42H111.3C111.3 166.42 117.76 166.42 117.76 159.96Z" fill="#F9FBFC"/>
<path d="M315.969 176.39C315.969 176.39 310.549 176.07 309.839 172.92C308.859 168.5 310.569 164.82 314.789 167.25C318.189 169.2 319.709 167.51 321.779 168.11C323.519 168.61 331.449 171.88 330.199 178.66C328.959 185.44 323.239 184.45 322.709 181.61C322.179 178.77 315.959 176.39 315.959 176.39H315.969Z" fill="#2627A1"/>
<path d="M314.7 317.28C313.4 318.55 306.039 320.44 305.569 321.16C305.409 321.41 305.369 321.75 305.499 322.03C305.869 322.8 307.199 322.42 307.839 322.39C308.629 322.35 317.019 321.93 317.019 321.96L317.109 322.43L319.909 322.29L319.67 316.04C319.67 316.04 317.25 316.04 314.7 317.28Z" fill="#1B1F30"/>
<path d="M327.311 317.28C326.011 318.55 318.651 320.44 318.181 321.16C318.021 321.41 317.981 321.75 318.111 322.03C318.481 322.8 319.811 322.42 320.451 322.39C321.241 322.35 329.631 321.93 329.631 321.96L329.721 322.43L332.521 322.29L332.281 316.04C332.281 316.04 329.861 316.04 327.311 317.28Z" fill="#1B1F30"/>
<path d="M315.61 236.52C315.61 236.52 303.9 267.61 304.1 274.14C304.3 280.68 314.7 317.64 314.7 317.64L321.36 316.95C321.36 316.95 315.14 281.39 315.11 277.59C315.08 273.79 321.93 262.48 321.93 262.48L323.2 235.56L315.61 236.51V236.52Z" fill="#249AE7"/>
<path d="M319.72 236.34C319.72 236.34 318.36 266.19 319.72 274.84C321.08 283.49 327.09 317.29 327.09 317.29H332.57C332.57 317.29 330.63 290.74 329.57 277.58C328.51 264.42 333.13 259.65 333.56 252.05C333.99 244.46 332.05 238.1 329.22 234.21L319.73 236.33L319.72 236.34Z" fill="#249AE7"/>
<path d="M310.32 246.99L334.47 245.76C334.47 245.76 332.33 193.73 322.4 193.43C312.46 193.14 305.46 208.67 310.33 246.99H310.32Z" fill="#F9C921"/>
<path d="M312.67 200.62L299.79 196.3C299.03 196.05 298.34 195.63 297.75 195.08L285.94 183.88C285.17 183.15 284.68 182.17 284.55 181.11L284.32 179.14C284.23 178.38 283.95 177.66 283.51 177.04L280.8 173.41C280.44 172.93 279.69 173.32 279.87 173.89L280.88 177.02L279.76 178.66C278.95 179.85 279.04 181.47 280 182.59L294.51 199.65C295.22 200.48 296.11 201.15 297.11 201.6L309.69 207.27L312.66 200.62H312.67Z" fill="#FFBA76"/>
<path d="M306.07 197.15L303.1 205.62L313.64 209.53C316.18 210.47 318.99 209.27 319.99 206.77C320.01 206.72 320.03 206.68 320.04 206.63C321.11 203.8 319.32 200.61 316.4 199.85L306.07 197.15Z" fill="#FFD334"/>
<path d="M324.681 196.05L314.761 197.61L315.321 196.18C316.301 196.22 313.821 189.93 313.821 189.93C307.981 189.29 311.081 181.88 311.321 179.94C312.081 173.94 314.571 172.76 318.111 172.64C321.641 172.53 325.421 175.83 325.391 179.34C325.361 182.85 322.881 186.5 322.881 186.5C322.171 192.08 323.841 195.47 324.671 196.03L324.681 196.05Z" fill="#FFBA76"/>
<path d="M323.161 182.97C323.751 181.83 325.051 181.34 326.061 181.86C327.071 182.38 327.411 183.73 326.821 184.87C326.231 186.01 324.931 186.5 323.921 185.98C322.911 185.46 322.571 184.11 323.161 182.97Z" fill="#FFBA76"/>
<path d="M312.649 175.39C312.649 175.39 313.619 174.4 315.349 175.32C317.079 176.24 316.439 178.03 319.929 178.13C323.419 178.23 321.509 181.27 323.879 181.8C326.249 182.33 327.529 179.58 326.869 176.95C326.219 174.32 313.859 166.32 312.639 175.39H312.649Z" fill="#2627A1"/>
<path opacity="0.05" d="M311.73 331.07C336.284 331.07 356.19 328.384 356.19 325.07C356.19 321.756 336.284 319.07 311.73 319.07C287.175 319.07 267.27 321.756 267.27 325.07C267.27 328.384 287.175 331.07 311.73 331.07Z" fill="#30334D"/>
<path d="M137.9 194.82H63.0703V229.26H137.9V194.82Z" fill="#FAFCFB"/>
<path d="M63.3103 208.68C63.3103 208.68 65.6903 206.19 66.2303 205.12C66.7703 204.05 65.2403 204.28 64.1603 205.12C63.0803 205.96 63.0803 204.4 63.0803 204.4V198.52C63.0803 198.52 61.3203 199.02 61.5503 203.57C61.7803 208.12 60.3203 209.37 60.3203 209.37L62.0103 210.2L63.3103 208.7V208.68Z" fill="#FFBE87"/>
<path d="M65.0306 209.16L59.4206 205.77L53.2906 217.77C52.5606 218.07 51.7306 217.77 51.3606 217.08C48.7306 212.18 39.0406 196.14 37.4206 197.19C33.2906 199.88 27.0306 204.89 34.1906 212.66C39.3706 218.27 45.7506 226.24 48.8206 229.14C49.9606 230.22 51.6506 230.47 53.0606 229.78C57.9906 227.36 61.5306 217.39 65.0306 209.15V209.16Z" fill="#4B7EFF"/>
<path d="M35.1309 323.72H39.1309V314.93H35.1309V323.72Z" fill="#FFBE87"/>
<path d="M44.7307 322.346L48.6953 322.877L49.8624 314.165L45.8978 313.634L44.7307 322.346Z" fill="#FFBE87"/>
<path d="M40.3197 243.479C40.7897 250.439 43.0797 284.879 42.8697 287.429C42.6397 290.269 40.1497 319.059 40.1497 319.059H34.1497C32.3897 304.919 32.8197 294.639 34.0297 290.549C34.7497 288.099 31.5197 266.009 31.2897 263.679C31.0597 261.359 28.4997 257.3 27.3997 251.96C26.6597 248.33 28.0197 245.149 28.9597 243.479H40.3097H40.3197Z" fill="#280948"/>
<path opacity="0.17" d="M36.6203 243.479C35.7503 246.019 34.9103 250.31 36.4703 255.38C37.2103 257.78 37.5503 262.09 42.3603 269.98C38.9603 264.16 33.7903 258.54 32.7503 255.38C30.0403 247.16 34.3403 245.399 36.6203 243.479Z" fill="#B772FF"/>
<path d="M50.8203 243.48C52.4203 250.02 59.9403 280.82 60.1403 284.82C60.3603 289.3 50.5103 317.49 50.5103 317.49H43.9103C43.9103 317.49 45.4103 300.24 47.3203 294.49C48.7003 290.35 51.9003 287.43 51.1303 284.81C50.7503 283.51 35.1503 259.05 34.0203 255.37C32.4603 250.3 33.3003 246.01 34.1703 243.47H50.8103L50.8203 243.48Z" fill="#280948"/>
<path d="M42.0099 200.95C42.0099 200.95 41.8599 197.36 42.7999 197.32C43.7399 197.28 48.6099 198.54 48.6299 194.15C48.6499 189.71 48.2299 176.97 39.1199 177.18C27.9699 177.44 31.1999 187.69 32.2799 191.23C33.3599 194.77 32.2499 200.48 32.2499 200.48L42.0099 200.95Z" fill="#FFBE87"/>
<path d="M28.3196 244.77C27.5096 244.59 24.8996 218.52 25.0196 207.87C25.1396 197.22 42.0896 196 46.8296 203.94C51.5996 211.91 51.2796 245.39 51.2796 245.39C51.2796 245.39 40.0796 247.37 28.3096 244.77H28.3196Z" fill="#349EE5"/>
<path d="M42.2998 199.9C42.2998 199.9 43.8698 198.25 42.8298 197.97C41.7498 197.68 38.6398 198.34 37.1098 197.68C35.5798 197.02 33.4498 194.54 32.0998 195.78C30.7398 197.02 31.0398 199.91 31.0398 199.91C31.0398 199.91 39.8898 201.27 42.3098 199.91L42.2998 199.9Z" fill="#4B7EFF"/>
<path d="M31.0202 199.73C31.0202 199.73 31.2702 201.72 31.7902 201.73L30.3602 201.68C30.3602 201.68 30.2402 199.92 31.0202 199.72V199.73Z" fill="#280948"/>
<path d="M48.3008 180.69C48.3308 181.58 48.3008 182.56 47.7308 183.25C46.7108 184.47 44.7708 184.02 43.2308 184.38C41.1508 184.87 39.7708 186.94 39.3508 189.03C38.9308 191.12 39.2408 193.28 39.3708 195.41C39.6708 200.32 38.9508 205.3 37.2608 209.92C36.1208 213.03 34.4108 216.15 31.5208 217.78C29.6908 218.82 27.5508 219.17 25.6908 220.15C24.4808 220.78 23.4208 221.68 22.5808 222.75C21.8708 223.67 21.3208 224.72 20.4608 225.5C18.3908 227.4 14.6808 227.03 13.0208 224.76C11.5408 222.72 11.8008 219.89 12.6608 217.52C13.5208 215.15 14.9108 212.99 15.5708 210.56C16.3108 207.87 16.1408 204.91 17.4608 202.46C18.6508 200.24 20.8708 198.76 22.2708 196.67C26.1508 190.87 22.8508 181.99 27.4608 176.76C30.3408 173.49 35.1908 173.02 39.5408 172.78C44.9708 172.48 48.1008 175.1 48.3008 180.67V180.69Z" fill="#280948"/>
<path d="M37.0898 188.38C37.0898 189.88 38.3098 191.1 39.8098 191.1C41.3098 191.1 42.5298 189.88 42.5298 188.38C42.5298 186.88 41.3098 185.66 39.8098 185.66C38.3098 185.66 37.0898 186.88 37.0898 188.38Z" fill="#FFBE87"/>
<path d="M74.8692 227.94C75.0692 227.73 75.2092 227.57 75.2592 227.49C75.5692 227.06 74.9992 226.86 74.6092 227.1C74.5192 227.15 73.6692 228.02 73.3992 228.26C73.5292 228.12 74.2692 227.33 74.3092 227.27C74.5592 226.91 74.1092 226.67 73.7692 226.85C73.6592 226.91 73.4992 227.05 73.1092 227.39C72.3692 228.03 71.5192 228.91 70.5992 229.27C70.1092 229.46 69.4992 229.45 68.9692 229.28H66.2192C66.1492 229.37 66.0892 229.45 66.0492 229.53C65.6992 230.07 65.5292 230.98 65.2392 231.24C64.9492 231.5 63.9492 231.99 63.9492 231.99L65.5592 235.14C65.5592 235.14 67.1592 233.94 67.7892 233.88C68.4192 233.84 70.8592 233.44 71.2292 233.28C71.3892 233.22 71.9792 232.83 72.6592 232.36L73.6292 231.58L74.4792 230.74C74.4792 230.74 75.3292 229.73 75.4092 229.61C75.6592 229.25 75.0992 229.05 74.7592 229.22C74.7092 229.24 74.6192 229.31 74.4992 229.4C74.9992 228.89 75.4092 228.48 75.4892 228.36C75.7192 228.02 75.2292 227.8 74.8892 227.93L74.8692 227.94Z" fill="#FFBE87"/>
<path d="M69.0091 235.32L65.5491 229.75L54.6291 237.65C53.8391 237.59 53.2391 236.95 53.2191 236.16C53.0991 230.6 48.1991 202.92 46.2791 203.12C41.3791 203.64 38.1491 213.28 39.9391 224.42C41.1491 231.96 44.0591 241.77 45.4791 245.75C46.0091 247.23 47.3891 248.22 48.9691 248.25C54.4591 248.34 62.1491 241.06 69.0091 235.32Z" fill="#4B7EFF"/>
<path d="M103.75 202.09H69.7305V206.42H103.75V202.09Z" fill="#7B7CB8"/>
<path d="M103.75 209.88H69.7305V214.21H103.75V209.88Z" fill="#7B7CB8"/>
<path d="M103.75 217.68H69.7305V222.01H103.75V217.68Z" fill="#7B7CB8"/>
<path d="M48.8892 321.53C50.1492 322.76 57.8792 324.85 58.3192 325.55C58.4792 325.8 58.5192 326.12 58.3892 326.39C58.0292 327.13 56.7492 326.76 56.1192 326.73C55.3592 326.69 47.2492 326.29 47.2392 326.32L47.1592 326.77L44.4492 326.64L44.6892 320.6C44.6892 320.6 46.4192 320.33 48.8892 321.53Z" fill="#1B1F30"/>
<path d="M39.1291 321.4C40.3891 322.63 48.2991 325.32 48.7391 326.01C48.8991 326.26 48.9391 326.58 48.8091 326.85C48.4491 327.59 47.1691 327.22 46.5391 327.19C45.7791 327.15 37.6691 326.75 37.6591 326.78L37.5791 327.23L34.8691 327.1L35.1091 321.06C35.1091 321.06 36.6591 320.2 39.1291 321.4Z" fill="#1B1F30"/>
<path opacity="0.05" d="M44.46 333.31C69.0146 333.31 88.92 330.624 88.92 327.31C88.92 323.996 69.0146 321.31 44.46 321.31C19.9054 321.31 0 323.996 0 327.31C0 330.624 19.9054 333.31 44.46 333.31Z" fill="#30334D"/>
<path d="M121.74 200.99L124.73 203.5H128.63L129.31 207.35L132.3 209.86L130.35 213.24L131.03 217.09L127.36 218.42L125.41 221.8L121.74 220.47L118.07 221.8L116.12 218.42L112.45 217.09L113.13 213.24L111.17 209.86L114.16 207.35L114.84 203.5H118.75L121.74 200.99Z" fill="#FF597B"/>
</g>
<defs>
<filter id="filter0_d_1668_32670" x="166" y="98.8799" width="156.73" height="150.57" filterUnits="userSpaceOnUse" color-interpolation-filters="sRGB">
<feFlood flood-opacity="0" result="BackgroundImageFix"/>
<feColorMatrix in="SourceAlpha" type="matrix" values="0 0 0 0 0 0 0 0 0 0 0 0 0 0 0 0 0 0 127 0" result="hardAlpha"/>
<feOffset dx="1" dy="1"/>
<feGaussianBlur stdDeviation="1"/>
<feColorMatrix type="matrix" values="0 0 0 0 0 0 0 0 0 0 0 0 0 0 0 0 0 0 0.1 0"/>
<feBlend mode="normal" in2="BackgroundImageFix" result="effect1_dropShadow_1668_32670"/>
<feBlend mode="normal" in="SourceGraphic" in2="effect1_dropShadow_1668_32670" result="shape"/>
</filter>
<clipPath id="clip0_1668_32670">
<rect width="356.18" height="333.31" fill="white"/>
</clipPath>
</defs>
</svg>
