<svg width="288" height="393" viewBox="0 0 288 393" fill="none" xmlns="http://www.w3.org/2000/svg">
<path style="mix-blend-mode:multiply" opacity="0.4" d="M108.042 325.824L12.2564 371.737H85.2544L148.499 332.365V324.038L152.854 320.113L159.256 314.369V307.737L138.035 323.702L108.042 325.824Z" fill="url(#paint0_linear_66_568)"/>
<g opacity="0.2">
<path opacity="0.09" d="M88.4125 296.886L99.8034 290.529C100.273 290.262 121.646 278.59 122.052 278.831L129.397 275.227C132.708 273.312 137.578 272.677 141.79 272.677C145.456 272.677 149.375 273.819 152.001 275.342L203.412 304.638L214.384 310.88L276.768 346.419C278.785 347.586 280.649 349.375 281.613 351.139C282.375 352.534 282.844 354.044 282.895 355.643C283.021 359.766 280.484 363.674 275.918 366.313L264.527 372.67C264.058 372.936 242.684 384.609 242.278 384.368L234.934 387.971C231.623 389.887 226.752 390.522 222.541 390.522C218.875 390.522 214.955 389.38 212.33 387.857L160.918 358.561L149.959 352.319L87.5753 316.78C85.5584 315.613 83.6938 313.824 82.7297 312.06C81.9686 310.664 81.4993 309.155 81.4486 307.556C81.3217 303.432 83.8587 299.525 88.4252 296.886H88.4125Z" fill="black"/>
<path opacity="0.18" d="M89.5541 297.799L100.641 291.671C101.567 291.138 121.583 280.607 122.395 281.064L129.524 278.12C132.505 276.395 137.693 276.281 141.485 276.281C144.783 276.281 148.957 277.689 151.329 279.059L201.23 307.518L211.873 313.583L272.417 348.106C274.231 349.147 276.299 351.024 277.199 352.598C277.973 353.943 278.506 355.364 278.594 356.886C278.835 360.845 276.425 364.664 271.948 367.252L260.861 373.38C259.935 373.913 239.919 384.444 239.107 383.987L231.978 386.931C228.997 388.657 223.809 388.771 220.016 388.771C216.718 388.771 212.545 387.362 210.173 385.992L160.271 357.533L149.629 351.469L89.0847 316.945C87.2708 315.892 85.2032 314.027 84.3026 312.453C83.5289 311.109 82.9961 309.688 82.9073 308.165C82.6663 304.206 85.0764 300.387 89.5541 297.799Z" fill="black"/>
<path opacity="0.27" d="M90.683 298.7L101.465 292.8C102.86 292.001 121.507 282.599 122.712 283.297L129.625 281.013C132.276 279.478 137.769 279.897 141.143 279.897C144.073 279.897 148.513 281.571 150.618 282.777L199.011 310.398L209.336 316.285L268.053 349.806C269.664 350.733 271.935 352.687 272.772 354.07C273.559 355.364 274.142 356.683 274.282 358.142C274.637 361.936 272.366 365.654 267.965 368.204L257.183 374.104C255.787 374.903 237.141 384.305 235.936 383.607L229.023 385.891C226.371 387.426 220.879 387.007 217.505 387.007C214.575 387.007 210.135 385.332 208.029 384.127L159.637 356.506L149.312 350.618L90.5942 317.097C88.9833 316.171 86.7127 314.217 85.8755 312.834C85.0891 311.54 84.5056 310.22 84.366 308.761C84.0108 304.968 86.2814 301.25 90.683 298.7Z" fill="black"/>
<path opacity="0.36" d="M91.8247 299.601L102.302 293.929C104.154 292.851 121.443 284.591 123.054 285.517L129.752 283.893C132.073 282.548 137.87 283.487 140.826 283.487C143.388 283.487 148.094 285.416 149.933 286.482L196.816 313.278L206.812 318.988L263.69 351.494C265.098 352.306 267.584 354.336 268.345 355.529C269.106 356.721 269.791 358.003 269.982 359.386C270.464 363.014 268.307 366.643 263.994 369.143L253.517 374.814C251.665 375.893 234.376 384.152 232.765 383.226L226.067 384.85C223.746 386.195 217.949 385.256 214.993 385.256C212.431 385.256 207.725 383.328 205.886 382.262L159.003 355.465L149.007 349.756L92.1291 317.249C90.7211 316.437 88.2349 314.407 87.4738 313.215C86.7127 312.022 86.0278 310.741 85.8502 309.358C85.3682 305.729 87.5245 302.1 91.8373 299.601H91.8247Z" fill="black"/>
<path opacity="0.45" d="M92.9663 300.502L103.139 295.059C105.461 293.714 121.38 286.583 123.384 287.75L129.853 286.786C131.845 285.631 137.959 287.103 140.483 287.103C142.678 287.103 147.65 289.298 149.223 290.212L194.596 316.171L204.275 321.703L259.326 353.207C260.531 353.905 263.233 356.011 263.918 357.013C264.73 358.206 265.44 359.348 265.669 360.642C266.265 364.106 264.248 367.645 259.999 370.094L249.826 375.537C247.504 376.882 231.585 384.013 229.581 382.846L223.112 383.81C221.12 384.964 215.006 383.493 212.482 383.493C210.287 383.493 205.315 381.298 203.742 380.384L158.369 354.425L148.69 348.893L93.6386 317.389C92.4336 316.691 89.7317 314.585 89.0467 313.583C88.2349 312.39 87.5246 311.248 87.2963 309.954C86.7001 306.49 88.7169 302.95 92.9663 300.502Z" fill="black"/>
<path opacity="0.55" d="M94.0953 301.415L103.951 296.2C106.742 294.589 121.291 288.6 123.701 289.996L129.955 289.692C131.617 288.74 138.035 290.719 140.141 290.719C141.967 290.719 147.206 293.181 148.513 293.942L192.376 319.077L201.725 324.431L254.938 354.92C255.94 355.503 258.87 357.673 259.466 358.498C260.29 359.652 261.064 360.693 261.331 361.911C262.054 365.197 260.164 368.648 255.99 371.059L246.134 376.273C243.344 377.885 228.794 383.873 226.384 382.478L220.131 382.782C218.469 383.734 212.05 381.754 209.945 381.754C208.118 381.754 202.879 379.293 201.573 378.532L157.709 353.397L148.361 348.043L95.1481 317.554C94.146 316.97 91.2158 314.801 90.6197 313.976C89.7951 312.821 89.0214 311.781 88.755 310.563C88.032 307.277 89.922 303.826 94.0953 301.415Z" fill="black"/>
<path opacity="0.64" d="M95.2369 302.316L104.788 297.33C108.036 295.452 121.228 290.592 124.044 292.216L130.082 292.559C131.414 291.798 138.137 294.297 139.824 294.297C141.295 294.297 146.775 297.025 147.828 297.634L190.182 321.931L199.213 327.108L250.599 356.582C251.398 357.051 254.57 359.284 255.052 359.931C255.889 361.035 256.726 361.974 257.03 363.129C257.88 366.25 256.104 369.612 252.02 371.972L242.468 376.958C239.221 378.836 226.029 383.696 223.213 382.071L217.175 381.729C215.843 382.49 209.12 379.991 207.433 379.991C205.962 379.991 200.482 377.263 199.429 376.654L157.075 352.357L148.043 347.18L96.6576 317.706C95.8457 317.237 92.6872 315.004 92.2052 314.357C91.368 313.253 90.5308 312.314 90.2264 311.159C89.3765 308.038 91.1524 304.676 95.2369 302.316Z" fill="black"/>
<path opacity="0.73" d="M96.3785 303.217L105.626 298.459C109.342 296.315 121.164 292.584 124.374 294.45L130.196 295.452C131.185 294.881 138.238 297.913 139.494 297.913C140.597 297.913 146.344 300.895 147.13 301.352L187.975 324.811L196.677 329.81L246.223 358.282C246.832 358.624 250.333 360.858 250.612 361.39C251.665 362.279 252.362 363.294 252.718 364.372C253.694 367.328 252.045 370.602 248.037 372.911L238.79 377.669C235.073 379.813 223.251 383.543 220.042 381.678L214.22 380.676C213.23 381.247 206.177 378.214 204.922 378.214C203.818 378.214 198.072 375.233 197.285 374.776L156.441 351.316L147.739 346.317L98.1924 317.846C97.5835 317.491 94.0825 315.27 93.8035 314.737C92.7506 313.849 92.053 312.834 91.6978 311.756C90.7211 308.799 92.3701 305.526 96.3785 303.217Z" fill="black"/>
<path opacity="0.82" d="M97.5201 304.13L106.463 299.601C110.636 297.19 121.101 294.602 124.716 296.683L130.31 298.345C130.97 297.964 138.327 301.517 139.164 301.517C139.9 301.517 145.912 304.765 146.432 305.069L185.768 327.704L194.152 332.526L241.872 359.982C242.278 360.21 246.02 362.507 246.198 362.862C247.289 363.674 248.024 364.626 248.418 365.628C249.521 368.419 247.986 371.591 244.067 373.862L235.124 378.392C230.951 380.803 220.486 383.391 216.871 381.31L211.277 379.648C210.617 380.029 203.26 376.476 202.423 376.476C201.687 376.476 195.674 373.228 195.154 372.924L155.819 350.289L147.434 345.467L99.7145 318.011C99.3086 317.782 95.5666 315.486 95.3891 315.131C94.2982 314.319 93.5625 313.367 93.1692 312.365C92.0657 309.573 93.6005 306.401 97.5201 304.13Z" fill="black"/>
<path opacity="0.91" d="M98.6491 305.031L107.275 300.73C111.917 298.053 121 296.594 125.021 298.916L130.399 301.237C130.729 301.047 138.39 305.133 138.822 305.133C139.189 305.133 145.468 308.647 145.735 308.799L183.561 330.597L191.615 335.241L237.496 361.695C237.699 361.809 241.669 364.169 241.758 364.347C242.874 365.082 243.661 365.958 244.092 366.897C245.322 369.511 243.914 372.606 240.071 374.827L231.445 379.128C226.803 381.805 217.708 383.264 213.699 380.942L208.321 378.62C207.991 378.811 200.33 374.725 199.899 374.725C199.531 374.725 193.252 371.211 192.985 371.058L155.16 349.261L147.105 344.617L101.224 318.163C101.021 318.049 97.0508 315.689 96.962 315.511C95.8458 314.775 95.0593 313.9 94.628 312.961C93.3976 310.347 94.8056 307.251 98.6491 305.031Z" fill="black"/>
<path d="M210.528 380.562L154.538 348.233L98.5476 315.905C94.1206 313.354 94.6787 308.888 99.7907 305.945L108.112 301.872C113.224 298.928 120.936 298.598 125.363 301.161L181.353 333.49L237.344 365.818C241.771 368.369 241.213 372.835 236.101 375.778L227.779 379.851C222.668 382.795 214.955 383.125 210.528 380.562Z" fill="black"/>
</g>
<path style="mix-blend-mode:color-dodge" d="M216.854 119.016C230.87 113.255 236.255 94.0356 228.881 76.0887C221.508 58.1419 204.169 48.2634 190.153 54.0245C176.137 59.7856 170.752 79.0047 178.126 96.9516C185.499 114.898 202.839 124.777 216.854 119.016Z" fill="url(#paint1_radial_66_568)"/>
<path d="M210.604 372.797L112.691 316.26C101.643 309.878 92.6873 292.775 92.6873 278.044V17.2207C92.6873 9.73494 86.5352 8.07283 90.2645 5.38302C90.404 5.28151 99.0043 1.37367 99.1692 1.31023C103.178 -0.224995 107.478 -0.910138 112.691 2.09687L210.604 58.6338C221.653 65.0157 230.608 82.1189 230.608 96.8495V357.66C230.608 365.488 228.084 371.071 224.05 373.621C223.809 373.774 213.446 378.696 213.179 378.785C209.615 379.978 215.425 375.563 210.604 372.784V372.797Z" fill="url(#paint2_linear_66_568)"/>
<path style="mix-blend-mode:color-dodge" d="M209.704 58.9383L111.79 2.3887C106.577 -0.618313 204.287 60.7399 204.287 60.7399C215.336 67.1219 224.291 84.2251 224.291 98.9556C224.291 98.9556 229.708 365.793 229.708 357.965V97.154C229.708 82.4234 220.752 65.3076 209.704 58.9383Z" fill="url(#paint3_radial_66_568)"/>
<path style="mix-blend-mode:screen" opacity="0.6" d="M202.994 376.273L105.08 319.724C94.0318 313.342 85.0764 296.238 85.0764 281.508V20.6972C85.0764 5.96665 94.0318 -0.808644 105.08 5.57333L202.994 62.1102C214.042 68.4922 222.997 85.5954 222.997 100.326V361.137C222.997 375.867 214.042 382.642 202.994 376.26V376.273Z" fill="url(#paint4_radial_66_568)"/>
<path d="M201.256 377.212L103.342 320.675C92.294 314.293 83.3386 297.19 83.3386 282.459V21.6361C83.3386 6.90555 92.294 0.130259 103.342 6.51223L201.256 63.0618C212.304 69.4438 221.26 86.547 221.26 101.278V362.088C221.26 376.819 212.304 383.594 201.256 377.212Z" fill="url(#paint5_linear_66_568)"/>
<path d="M86.0659 284.185V23.0444C86.0659 10.1282 93.9177 4.20302 103.596 9.78566L200.989 66.0307C210.668 71.6261 218.52 86.6231 218.52 99.5392V360.68C218.52 373.596 210.668 379.521 200.989 373.939L103.596 317.694C93.9177 312.098 86.0659 297.101 86.0659 284.185Z" fill="url(#paint6_linear_66_568)"/>
<path d="M89.9728 285.771V25.9626C89.9728 15.1526 96.5435 10.1917 104.649 14.8608L199.962 69.9005C208.068 74.5823 214.638 87.1306 214.638 97.9406V357.749C214.638 368.559 208.068 373.52 199.962 368.851L104.649 313.811C96.5435 309.129 89.9728 296.581 89.9728 285.771Z" fill="url(#paint7_linear_66_568)"/>
<path d="M105.74 17.741C98.1036 13.3256 91.9135 16.8655 91.9135 25.6328V288.372C91.9135 297.139 98.1036 307.822 105.74 312.238L198.846 366.009C206.482 370.424 212.672 366.884 212.672 358.117V95.365C212.672 86.5977 206.482 75.9146 198.846 71.4992L105.74 17.7283V17.741Z" fill="url(#paint8_linear_66_568)"/>
<path d="M223.885 161.621V144.01C223.885 141.764 225.255 139.138 226.942 138.174C228.629 137.197 229.999 138.237 229.999 140.483V158.094C229.999 160.339 228.629 162.966 226.942 163.93C225.255 164.907 223.885 163.867 223.885 161.621Z" fill="url(#paint9_linear_66_568)"/>
<path d="M225.725 163.638C224.849 163.638 224.545 162.547 224.545 161.621V144.01C224.545 142.005 225.788 139.595 227.272 138.745C227.589 138.567 227.894 138.466 228.16 138.466C229.035 138.466 229.34 139.557 229.34 140.483V158.094C229.34 160.098 228.097 162.509 226.613 163.359C226.295 163.537 225.991 163.638 225.725 163.638Z" fill="url(#paint10_linear_66_568)"/>
<path style="mix-blend-mode:color-dodge" d="M225.446 162.078V144.467C225.446 142.462 226.689 140.051 228.173 139.201C228.452 139.036 228.718 138.96 228.959 138.935C228.769 138.656 228.515 138.466 228.16 138.466C227.894 138.466 227.589 138.567 227.272 138.745C225.801 139.595 224.545 142.005 224.545 144.01V161.621C224.545 162.547 224.849 163.638 225.725 163.638C225.75 163.638 225.788 163.625 225.826 163.625C225.56 163.219 225.446 162.623 225.446 162.078Z" fill="url(#paint11_radial_66_568)"/>
<g style="mix-blend-mode:multiply">
<path d="M198.858 71.5119L105.753 17.741C98.1163 13.3256 91.9262 16.8655 91.9262 25.6328V288.372C91.9262 297.139 98.1163 307.822 105.753 312.238L198.858 366.009C206.495 370.424 212.685 366.884 212.685 358.117V95.365C212.685 86.5977 206.495 75.9146 198.858 71.4992V71.5119ZM211.48 358.104C211.48 360.819 210.845 363.065 209.628 364.575C208.511 365.958 206.939 366.694 205.061 366.694C203.361 366.694 201.421 366.098 199.455 364.956L106.349 311.185C99.055 306.972 93.1186 296.733 93.1186 288.372V25.6201C93.1186 20.3293 95.5794 17.0431 99.537 17.0431C101.237 17.0431 103.178 17.6395 105.144 18.7814L198.25 72.5523C205.543 76.7647 211.48 87.0037 211.48 95.365V358.104Z" fill="#BCBEC0"/>
</g>
<g opacity="0.8">
<path d="M139.57 38.8535L160.715 50.2725L134.927 95.5172V161.075L115.05 186.869L108.289 226.202L92.6365 247.771V208.87L102.784 175.032L118.006 156.419L124.78 129.774L121.393 94.6798L139.57 38.8535Z" fill="url(#paint12_linear_66_568)"/>
<path d="M197.222 123.849L212.685 132.781V129.419L197.222 120.487V70.5603L194.317 68.8855V118.812L184.702 113.267L175.696 89.8838L91.9135 41.5052V44.8675L110.23 55.4491V106.606L91.9135 96.0247V99.387L110.23 109.969V139.886L91.9135 129.279V132.642L113.135 144.936V111.656L175.861 147.88V200.686L168.06 196.182L141.067 204.328L91.9135 175.945V179.308L125.008 198.415V248.418L91.9135 263.149V266.333L126.137 251.095L156.415 302.823L127.811 324.989L130.526 326.562L178.981 289.019L194.317 297.799V361.669H197.222V299.461L212.444 308.178L212.685 307.759V304.955L197.222 296.099V253.239L212.685 262.159V258.797L197.222 249.877V216.356L212.685 225.288V221.926L197.222 212.994V160.187L212.685 169.119V165.757L197.222 156.825V123.849ZM127.913 200.065L140.166 207.145L140.712 207.462L167.705 199.316L175.874 204.036V237.557L164.331 230.896L127.913 247.111V200.077V200.065ZM194.317 294.411L178.753 285.492L158.749 300.996L128.826 249.877L164.178 234.144L175.886 240.907V240.996H176.039L194.33 251.552V294.424L194.317 294.411ZM194.317 248.19L178.778 239.219V205.698L194.317 214.668V248.19ZM194.317 211.319L178.778 202.349V149.542L194.317 158.512V211.319ZM194.317 155.163L113.135 108.281V57.1239L173.349 91.9012L182.356 115.285L194.305 122.187V155.163H194.317Z" fill="#A56EF4"/>
</g>
<path d="M143.863 313.032L111.07 315.375L9.25641 364.737H83.5867L152.227 321.486C153.045 320.972 153.545 320.07 153.545 319.098V311.621L158.698 306.921L165.256 300.967V296.737L143.863 313.032Z" fill="url(#paint13_radial_66_568)"/>
<path d="M197.856 161.824L197.92 155.15L197.729 155.048V96.8749L192.846 92.6118V152.359L145.735 126.349V203.63L161.337 232.787V297.786L167.147 296.441V231.328L151.544 202.171V136.156L197.856 161.824Z" fill="#DC3DAA"/>
<path d="M171.028 301.225C171.028 305.919 167.717 307.81 163.62 305.45C159.536 303.09 156.212 297.368 156.212 292.673C156.212 287.979 159.523 286.088 163.62 288.448C167.705 290.808 171.028 296.53 171.028 301.225Z" fill="#FF63CE"/>
<path d="M171.028 238.306C171.028 243 167.717 244.891 163.62 242.531C159.536 240.171 156.212 234.449 156.212 229.754C156.212 225.06 159.523 223.169 163.62 225.529C167.705 227.889 171.028 233.611 171.028 238.306Z" fill="white"/>
<path d="M168.935 249.89C167.159 249.89 165.269 249.319 163.303 248.177C156.593 244.307 151.138 234.893 151.138 227.191C151.138 221.71 153.954 218.17 158.305 218.17C160.081 218.17 161.971 218.741 163.937 219.883C170.648 223.753 176.102 233.167 176.102 240.869C176.102 246.35 173.286 249.89 168.935 249.89ZM158.305 219.439C154.665 219.439 152.407 222.408 152.407 227.191C152.407 234.487 157.582 243.406 163.937 247.086C165.688 248.088 167.413 248.634 168.935 248.634C172.576 248.634 174.833 245.665 174.833 240.881C174.833 233.586 169.658 224.666 163.303 220.987C161.553 219.985 159.827 219.439 158.305 219.439Z" fill="white"/>
<path d="M155.096 212.173C157.969 210.493 157.939 205.095 155.029 200.117C152.119 195.138 147.432 192.464 144.559 194.143C141.686 195.823 141.716 201.221 144.626 206.2C147.536 211.178 152.223 213.853 155.096 212.173Z" fill="#FF63CE"/>
<path d="M155.756 137.121C155.756 141.815 152.445 143.706 148.348 141.346C144.251 138.986 140.94 133.264 140.94 128.569C140.94 123.875 144.251 121.984 148.348 124.344C152.445 126.704 155.756 132.426 155.756 137.121Z" fill="#FF63CE"/>
<path d="M201.738 159.641C201.738 164.336 198.427 166.226 194.33 163.867C190.233 161.507 186.922 155.784 186.922 151.09C186.922 146.395 190.233 144.505 194.33 146.865C198.427 149.225 201.738 154.947 201.738 159.641Z" fill="#FF63CE"/>
<path d="M201.738 100.326C201.738 105.02 198.427 106.911 194.33 104.551C190.233 102.191 186.922 96.4688 186.922 91.7743C186.922 87.0798 190.233 85.1894 194.33 87.5493C198.427 89.9092 201.738 95.6314 201.738 100.326Z" fill="#FF63CE"/>
<g opacity="0.5">
<path d="M79.4104 345.094C79.1972 345.094 78.9841 344.982 78.865 344.781C78.6894 344.48 78.796 344.097 79.0906 343.922L81.8051 342.348C82.106 342.172 82.4885 342.279 82.664 342.574C82.8395 342.875 82.733 343.257 82.4383 343.433L79.7238 345.007C79.6235 345.063 79.5169 345.088 79.4104 345.088V345.094Z" fill="#F1F2F2"/>
<path d="M17.8868 380.749C17.6674 380.749 17.4605 380.636 17.3414 380.435C17.1659 380.134 17.2724 379.752 17.5671 379.576L22.6952 376.604C22.9961 376.428 23.3785 376.535 23.554 376.83C23.7295 377.131 23.623 377.513 23.3283 377.689L18.2003 380.661C18.1 380.717 17.9934 380.742 17.8868 380.742V380.749ZM28.1429 374.804C27.9298 374.804 27.7166 374.691 27.5975 374.491C27.422 374.19 27.5286 373.807 27.8232 373.632L32.9513 370.659C33.2522 370.484 33.6346 370.59 33.8101 370.885C33.9857 371.186 33.8791 371.569 33.5845 371.744L28.4564 374.716C28.3561 374.773 28.2495 374.798 28.1429 374.798V374.804ZM38.3991 368.86C38.1859 368.86 37.9728 368.747 37.8537 368.546C37.6781 368.245 37.7847 367.863 38.0794 367.687L43.2074 364.715C43.5083 364.539 43.8907 364.646 44.0663 364.941C44.2418 365.242 44.1352 365.624 43.8406 365.8L38.7125 368.772C38.6122 368.828 38.5056 368.853 38.3991 368.853V368.86ZM48.6552 362.915C48.4421 362.915 48.2289 362.802 48.1098 362.602C47.9343 362.301 48.0408 361.918 48.3355 361.743L53.4636 358.77C53.7645 358.595 54.1469 358.701 54.3224 358.996C54.4979 359.297 54.3914 359.68 54.0967 359.855L48.9687 362.827C48.8684 362.884 48.7618 362.909 48.6552 362.909V362.915ZM58.9113 356.971C58.6982 356.971 58.485 356.858 58.3659 356.657C58.1904 356.356 58.297 355.974 58.5916 355.798L63.7197 352.826C64.0206 352.65 64.403 352.757 64.5785 353.052C64.7541 353.353 64.6475 353.735 64.3529 353.911L59.2248 356.883C59.1245 356.939 59.0179 356.964 58.9113 356.964V356.971ZM69.1675 351.026C68.9543 351.026 68.7412 350.913 68.6221 350.713C68.4465 350.412 68.5531 350.029 68.8478 349.854L73.9758 346.881C74.2767 346.706 74.6592 346.812 74.8347 347.107C75.0102 347.408 74.9036 347.791 74.609 347.966L69.4809 350.938C69.3806 350.995 69.2741 351.02 69.1675 351.02V351.026Z" fill="#F1F2F2"/>
</g>
<path d="M66.4679 375.486L51.741 366.935L67.1402 364.131L66.4679 375.486Z" fill="#9C5F56"/>
<path d="M128.205 340.595L113.49 332.043L128.889 329.239L128.205 340.595Z" fill="#9C5F56"/>
<path d="M104.535 347.218C104.535 350.009 105.499 352.001 107.072 352.953C107.122 352.978 112.031 355.82 112.07 355.846C113.706 356.759 112.653 354.691 115.139 353.257C120.124 350.377 124.171 343.399 124.171 337.677C124.171 334.847 126.784 334.822 125.186 333.883C125.135 333.858 119.921 330.965 119.871 330.94C118.247 330.064 116.014 330.216 113.566 331.637C108.581 334.518 104.535 341.496 104.535 347.218Z" fill="url(#paint14_linear_66_568)"/>
<path d="M109.761 350.187C109.761 355.909 113.807 358.218 118.792 355.338C123.777 352.458 127.824 345.48 127.824 339.758C127.824 334.035 123.777 331.726 118.792 334.606C113.807 337.486 109.761 344.465 109.761 350.187Z" fill="url(#paint15_linear_66_568)"/>
<path style="mix-blend-mode:screen" d="M118.361 334.391C120.746 333.008 122.928 332.817 124.539 333.629C123.029 333.211 121.164 333.528 119.135 334.695C114.15 337.575 110.103 344.554 110.103 350.276C110.103 353.257 111.207 355.313 112.957 356.188C110.75 355.567 109.33 353.372 109.33 349.971C109.33 344.249 113.376 337.271 118.361 334.391Z" fill="url(#paint16_radial_66_568)"/>
<path style="mix-blend-mode:multiply" d="M111.537 349.134C111.537 353.537 114.644 355.313 118.488 353.105C122.331 350.898 125.439 345.518 125.439 341.103C125.439 336.687 122.331 334.924 118.488 337.131C114.644 339.339 111.537 344.719 111.537 349.134ZM116.129 346.355C116.129 346.355 116.129 346.444 116.129 346.482C116.129 346.52 116.129 346.571 116.129 346.609C116.129 346.85 116.027 347.142 115.837 347.37L113.68 350.047C113.363 350.453 112.945 350.504 112.843 350.149C112.704 349.667 112.64 349.109 112.64 348.5C112.64 347.891 112.716 347.256 112.843 346.609C112.945 346.14 113.363 345.708 113.68 345.734L115.837 345.911C116.027 345.924 116.141 346.089 116.129 346.343V346.355ZM114.34 342.79C115.063 341.534 115.976 340.392 116.991 339.491C117.359 339.174 117.714 339.275 117.714 339.707V342.562C117.714 342.815 117.6 343.107 117.41 343.336C117.346 343.412 117.283 343.488 117.219 343.577C117.042 343.818 116.814 343.945 116.623 343.932L114.467 343.754C114.137 343.729 114.074 343.259 114.34 342.803V342.79ZM119.997 337.753C121.025 337.474 121.926 337.563 122.649 337.981C122.915 338.134 122.851 338.679 122.522 339.085L120.365 341.762C120.175 341.991 119.947 342.13 119.769 342.092C119.706 342.092 119.642 342.079 119.579 342.079C119.389 342.079 119.274 341.915 119.274 341.661V338.806C119.274 338.375 119.63 337.854 119.997 337.753ZM124.145 340.087C124.285 340.57 124.348 341.128 124.348 341.737C124.348 342.346 124.272 342.98 124.145 343.627C124.044 344.097 123.625 344.528 123.308 344.503L121.152 344.325C120.961 344.313 120.847 344.148 120.86 343.894C120.86 343.856 120.86 343.805 120.86 343.767C120.86 343.729 120.86 343.678 120.86 343.64C120.86 343.399 120.961 343.107 121.152 342.879L123.308 340.202C123.638 339.796 124.044 339.745 124.145 340.1V340.087ZM122.649 347.459C121.926 348.715 121.012 349.857 119.997 350.758C119.63 351.075 119.274 350.974 119.274 350.542V347.687C119.274 347.434 119.389 347.142 119.579 346.914C119.642 346.837 119.706 346.761 119.769 346.672C119.947 346.431 120.175 346.305 120.365 346.317L122.522 346.495C122.851 346.52 122.915 346.99 122.649 347.446V347.459ZM116.991 352.496C115.964 352.775 115.063 352.687 114.34 352.268C114.074 352.116 114.137 351.57 114.467 351.164L116.623 348.487C116.814 348.258 117.042 348.119 117.219 348.157C117.283 348.157 117.346 348.17 117.41 348.17C117.6 348.17 117.714 348.335 117.714 348.588V351.443C117.714 351.874 117.359 352.395 116.991 352.496Z" fill="url(#paint17_linear_66_568)"/>
<path d="M111.968 349.311C111.968 353.727 115.076 355.49 118.919 353.283C122.763 351.062 125.87 345.695 125.87 341.28C125.87 336.865 122.763 335.101 118.919 337.309C115.076 339.529 111.968 344.896 111.968 349.311ZM116.56 346.533C116.56 346.533 116.56 346.622 116.56 346.66C116.56 346.698 116.56 346.748 116.56 346.787C116.56 347.028 116.458 347.319 116.268 347.548L114.112 350.225C113.795 350.631 113.376 350.682 113.275 350.326C113.135 349.844 113.072 349.286 113.072 348.677C113.072 348.068 113.148 347.434 113.275 346.787C113.376 346.317 113.795 345.886 114.112 345.911L116.268 346.089C116.458 346.101 116.573 346.266 116.56 346.52V346.533ZM114.771 342.968C115.494 341.711 116.408 340.57 117.422 339.669C117.79 339.352 118.145 339.453 118.145 339.884V342.739C118.145 342.993 118.031 343.285 117.841 343.513C117.778 343.589 117.714 343.665 117.651 343.754C117.473 343.995 117.245 344.122 117.055 344.109L114.898 343.932C114.568 343.906 114.505 343.437 114.771 342.98V342.968ZM120.429 337.93C121.456 337.651 122.357 337.74 123.08 338.159C123.346 338.311 123.283 338.857 122.953 339.263L120.797 341.94C120.606 342.168 120.378 342.308 120.2 342.27C120.137 342.27 120.074 342.257 120.01 342.257C119.82 342.257 119.706 342.092 119.706 341.838V338.984C119.706 338.552 120.061 338.032 120.429 337.93ZM124.577 340.265C124.716 340.747 124.78 341.305 124.78 341.914C124.78 342.523 124.703 343.158 124.577 343.805C124.475 344.274 124.057 344.706 123.739 344.68L121.583 344.503C121.393 344.49 121.279 344.325 121.291 344.071C121.291 344.033 121.291 343.983 121.291 343.944C121.291 343.906 121.291 343.856 121.291 343.818C121.291 343.577 121.393 343.285 121.583 343.056L123.739 340.379C124.057 339.973 124.475 339.922 124.577 340.278V340.265ZM123.08 347.637C122.357 348.893 121.444 350.035 120.429 350.935C120.061 351.253 119.706 351.151 119.706 350.72V347.865C119.706 347.611 119.82 347.319 120.01 347.091C120.074 347.015 120.137 346.939 120.2 346.85C120.378 346.609 120.606 346.482 120.797 346.495L122.953 346.672C123.283 346.698 123.346 347.167 123.08 347.624V347.637ZM117.422 352.674C116.395 352.953 115.494 352.864 114.771 352.445C114.505 352.293 114.568 351.747 114.898 351.341L117.055 348.664C117.245 348.436 117.473 348.296 117.651 348.334C117.714 348.334 117.778 348.347 117.841 348.347C118.031 348.347 118.145 348.512 118.145 348.766V351.621C118.145 352.052 117.79 352.572 117.422 352.674Z" fill="url(#paint18_linear_66_568)"/>
<path d="M42.646 382.922C42.646 385.713 43.61 387.705 45.1829 388.656C45.2337 388.682 50.1427 391.524 50.1807 391.549C51.8171 392.463 50.7642 390.395 53.2504 388.961C58.2355 386.081 62.282 379.102 62.282 373.38C62.282 370.551 64.895 370.526 63.2967 369.587C63.246 369.561 58.0326 366.668 57.9818 366.643C56.3582 365.768 54.1257 365.92 51.6775 367.341C46.6924 370.221 42.646 377.199 42.646 382.922Z" fill="url(#paint19_linear_66_568)"/>
<path d="M47.8721 385.891C47.8721 391.613 51.9186 393.922 56.9036 391.042C61.8887 388.162 65.9352 381.183 65.9352 375.461C65.9352 369.739 61.8887 367.43 56.9036 370.31C51.9186 373.19 47.8721 380.168 47.8721 385.891Z" fill="url(#paint20_linear_66_568)"/>
<path style="mix-blend-mode:screen" d="M56.4723 370.081C58.8571 368.698 61.0388 368.508 62.6498 369.32C61.1403 368.901 59.2757 369.219 57.2461 370.386C52.261 373.266 48.2146 380.244 48.2146 385.967C48.2146 388.948 49.3181 391.004 51.0686 391.879C48.8615 391.257 47.4408 389.062 47.4408 385.662C47.4408 379.94 51.4872 372.962 56.4723 370.081Z" fill="url(#paint21_radial_66_568)"/>
<path style="mix-blend-mode:multiply" d="M49.6479 384.837C49.6479 389.24 52.7557 391.016 56.5992 388.809C60.4426 386.601 63.5504 381.221 63.5504 376.806C63.5504 372.391 60.4426 370.627 56.5992 372.835C52.7557 375.042 49.6479 380.422 49.6479 384.837ZM54.2398 382.059C54.2398 382.059 54.2398 382.148 54.2398 382.186C54.2398 382.224 54.2398 382.274 54.2398 382.313C54.2398 382.554 54.1383 382.845 53.9481 383.074L51.7917 385.751C51.4746 386.157 51.056 386.208 50.9545 385.852C50.8149 385.37 50.7515 384.812 50.7515 384.203C50.7515 383.594 50.8276 382.96 50.9545 382.313C51.056 381.843 51.4746 381.412 51.7917 381.437L53.9481 381.615C54.1383 381.627 54.2525 381.792 54.2398 382.046V382.059ZM52.4513 378.494C53.1743 377.237 54.0876 376.096 55.1024 375.195C55.4702 374.878 55.8254 374.979 55.8254 375.41V378.265C55.8254 378.519 55.7113 378.811 55.521 379.039C55.4576 379.115 55.3941 379.191 55.3307 379.28C55.1531 379.521 54.9248 379.648 54.7345 379.635L52.5781 379.458C52.2483 379.432 52.1849 378.963 52.4513 378.506V378.494ZM58.1087 373.456C59.1361 373.177 60.0367 373.266 60.7598 373.685C61.0261 373.837 60.9627 374.383 60.6329 374.789L58.4765 377.466C58.2863 377.694 58.0579 377.834 57.8803 377.796C57.8169 377.796 57.7535 377.783 57.6901 377.783C57.4998 377.783 57.3856 377.618 57.3856 377.364V374.51C57.3856 374.078 57.7408 373.558 58.1087 373.456ZM62.2566 375.791C62.3961 376.273 62.4595 376.831 62.4595 377.44C62.4595 378.049 62.3834 378.684 62.2566 379.331C62.1551 379.8 61.7365 380.232 61.4194 380.206L59.263 380.029C59.0727 380.016 58.9585 379.851 58.9712 379.597C58.9712 379.559 58.9712 379.509 58.9712 379.47C58.9712 379.432 58.9712 379.382 58.9712 379.344C58.9712 379.103 59.0727 378.811 59.263 378.582L61.4194 375.905C61.7365 375.499 62.1551 375.448 62.2566 375.804V375.791ZM60.7598 383.163C60.0367 384.419 59.1234 385.561 58.1087 386.461C57.7408 386.779 57.3856 386.677 57.3856 386.246V383.391C57.3856 383.137 57.4998 382.845 57.6901 382.617C57.7535 382.541 57.8169 382.465 57.8803 382.376C58.0579 382.135 58.2863 382.008 58.4765 382.021L60.6329 382.198C60.9627 382.224 61.0261 382.693 60.7598 383.15V383.163ZM55.1024 388.2C54.0749 388.479 53.1743 388.39 52.4513 387.971C52.1849 387.819 52.2483 387.273 52.5781 386.867L54.7345 384.19C54.9248 383.962 55.1531 383.822 55.3307 383.86C55.3941 383.86 55.4576 383.873 55.521 383.873C55.7113 383.873 55.8254 384.038 55.8254 384.292V387.147C55.8254 387.578 55.4702 388.098 55.1024 388.2Z" fill="url(#paint22_linear_66_568)"/>
<path d="M50.0792 385.002C50.0792 389.418 53.187 391.181 57.0305 388.974C60.8739 386.753 63.9817 381.386 63.9817 376.971C63.9817 372.556 60.8739 370.792 57.0305 373C53.187 375.22 50.0792 380.587 50.0792 385.002ZM54.6711 382.224C54.6711 382.224 54.6711 382.313 54.6711 382.351C54.6711 382.389 54.6711 382.439 54.6711 382.477C54.6711 382.719 54.5696 383.01 54.3793 383.239L52.2229 385.916C51.9058 386.322 51.4872 386.373 51.3857 386.017C51.2462 385.535 51.1828 384.977 51.1828 384.368C51.1828 383.759 51.2589 383.125 51.3857 382.477C51.4872 382.008 51.9058 381.577 52.2229 381.602L54.3793 381.78C54.5696 381.792 54.6838 381.957 54.6711 382.211V382.224ZM52.8826 378.658C53.6056 377.402 54.5189 376.26 55.5337 375.36C55.9015 375.042 56.2567 375.144 56.2567 375.575V378.43C56.2567 378.684 56.1425 378.976 55.9523 379.204C55.8888 379.28 55.8254 379.356 55.762 379.445C55.5844 379.686 55.3561 379.813 55.1658 379.8L53.0094 379.623C52.6796 379.597 52.6162 379.128 52.8826 378.671V378.658ZM58.5399 373.621C59.5674 373.342 60.468 373.431 61.1911 373.85C61.4574 374.002 61.394 374.548 61.0642 374.954L58.9078 377.631C58.7175 377.859 58.4892 377.999 58.3116 377.961C58.2482 377.961 58.1848 377.948 58.1214 377.948C57.9311 377.948 57.8169 377.783 57.8169 377.529V374.674C57.8169 374.243 58.1721 373.723 58.5399 373.621ZM62.6878 375.956C62.8274 376.438 62.8908 376.996 62.8908 377.605C62.8908 378.214 62.8147 378.849 62.6878 379.496C62.5864 379.965 62.1678 380.397 61.8506 380.371L59.6942 380.194C59.504 380.181 59.3898 380.016 59.4025 379.762C59.4025 379.724 59.4025 379.673 59.4025 379.635C59.4025 379.597 59.4025 379.547 59.4025 379.509C59.4025 379.267 59.504 378.976 59.6942 378.747L61.8506 376.07C62.1678 375.664 62.5864 375.613 62.6878 375.969V375.956ZM61.1911 383.328C60.468 384.584 59.5547 385.726 58.5399 386.626C58.1721 386.944 57.8169 386.842 57.8169 386.411V383.556C57.8169 383.302 57.9311 383.01 58.1214 382.782C58.1848 382.706 58.2482 382.63 58.3116 382.541C58.4892 382.3 58.7175 382.173 58.9078 382.186L61.0642 382.363C61.394 382.389 61.4574 382.858 61.1911 383.315V383.328ZM55.5337 388.365C54.5062 388.644 53.6056 388.555 52.8826 388.136C52.6162 387.984 52.6796 387.438 53.0094 387.032L55.1658 384.355C55.3561 384.127 55.5844 383.987 55.762 384.025C55.8254 384.025 55.8888 384.038 55.9523 384.038C56.1425 384.038 56.2567 384.203 56.2567 384.457V387.312C56.2567 387.743 55.9015 388.263 55.5337 388.365Z" fill="url(#paint23_linear_66_568)"/>
<path d="M6.45653 316.805C6.95123 316.044 7.62352 315.41 8.40998 314.953L97.2537 263.745C98.9915 262.743 101.123 262.717 102.873 263.681L128.598 277.765C129.777 278.412 130.691 279.452 131.185 280.709L135.815 299.486C136.069 300.121 136.196 300.793 136.209 301.478V332.526C136.259 334.632 135.143 336.598 133.304 337.639L128.078 340.62C128.23 339.745 128.306 338.882 128.306 338.045C128.306 331.675 123.816 329.113 118.26 332.323C112.704 335.533 108.213 343.285 108.213 349.641C108.213 350.403 108.277 351.113 108.404 351.76L66.4299 375.486C66.4679 375.055 66.4933 374.624 66.4933 374.205C66.4933 367.836 62.0029 365.273 56.447 368.483C50.8911 371.693 46.4007 379.445 46.4007 385.802C46.4007 386.157 46.4134 386.487 46.4388 386.817L40.4769 390.369C38.8152 391.308 36.8111 391.359 35.0986 390.522L3.19655 372.251C1.24311 371.287 0 369.282 0 367.1V359.474C0 358.358 6.40579 316.818 6.40579 316.818L6.45653 316.805Z" fill="url(#paint24_radial_66_568)"/>
<g style="mix-blend-mode:multiply">
<path d="M39.4368 333.388C40.2233 331.777 41.4664 330.445 43.0139 329.557L130.348 279.262C130.691 279.693 130.97 280.188 131.185 280.709L135.815 299.486C136.069 300.121 136.196 300.793 136.209 301.478V332.526C136.259 334.632 135.143 336.598 133.304 337.639L128.078 340.62C128.23 339.745 128.306 338.882 128.306 338.045C128.306 331.675 123.816 329.113 118.26 332.323C112.704 335.533 108.213 343.285 108.213 349.641C108.213 350.403 108.277 351.113 108.404 351.76L66.4299 375.486C66.4679 375.055 66.4933 374.624 66.4933 374.205C66.4933 367.836 62.0029 365.273 56.447 368.483C50.8911 371.693 46.4007 379.445 46.4007 385.802C46.4007 386.157 46.4134 386.487 46.4388 386.817L40.477 390.369C39.2973 391.042 37.94 391.245 36.6462 391.016V379.026C36.6462 377.542 39.3861 333.401 39.3861 333.401L39.4368 333.388Z" fill="#E8DCDC"/>
</g>
<path d="M6.45658 316.805C6.95128 316.044 7.62357 315.41 8.41002 314.953L97.2538 263.745C98.9916 262.743 101.123 262.717 102.873 263.681L128.598 277.765C129.283 278.146 129.866 278.653 130.336 279.262L43.0139 329.557C41.4664 330.445 40.2106 331.777 39.4368 333.388C39.4368 333.388 36.697 377.517 36.697 379.014V390.991C36.1642 390.902 35.6441 390.75 35.1621 390.509L3.26002 372.238C1.30657 371.274 0.0634766 369.269 0.0634766 367.087V359.462C0.0634766 358.345 6.46925 316.805 6.46925 316.805H6.45658Z" fill="url(#paint25_radial_66_568)"/>
<path d="M103.025 306.465V320.295C103.025 320.789 103.216 321.259 103.583 321.601C103.926 321.931 104.383 322.109 104.852 322.109C105.156 322.109 105.435 322.033 105.714 321.893L127.608 309.688C128.902 308.99 129.714 307.645 129.714 306.16V291.658C129.714 290.656 128.902 289.844 127.9 289.844C127.583 289.844 127.266 289.933 126.987 290.098L105.03 303.001C103.812 303.712 103.051 305.031 103.051 306.452L103.025 306.465Z" fill="black"/>
<path d="M127.875 290.63C128.382 290.63 128.928 291.036 128.928 291.684V306.186C128.928 307.378 128.281 308.469 127.228 309.028L105.334 321.233C104.928 321.449 104.421 321.373 104.104 321.068C103.901 320.865 103.786 320.599 103.786 320.307V306.477C103.786 305.336 104.395 304.257 105.385 303.686L127.342 290.783C127.507 290.681 127.684 290.643 127.875 290.643V290.63Z" fill="url(#paint26_linear_66_568)"/>
<path d="M41.0224 342.536V356.366C41.0224 356.861 41.2127 357.33 41.5805 357.673C41.923 358.003 42.3797 358.18 42.849 358.18C43.1534 358.18 43.4325 358.104 43.7116 357.965L65.6054 345.759C66.8992 345.061 67.7111 343.716 67.7111 342.232V327.73C67.7111 326.727 66.8992 325.915 65.8971 325.915C65.58 325.915 65.2629 326.004 64.9838 326.169L43.0266 339.073C41.8089 339.783 41.0478 341.103 41.0478 342.524L41.0224 342.536Z" fill="black"/>
<path d="M65.8718 326.702C66.3792 326.702 66.9246 327.108 66.9246 327.755V342.257C66.9246 343.45 66.2777 344.541 65.2249 345.099L43.331 357.305C42.9251 357.521 42.4177 357.444 42.1006 357.14C41.8977 356.937 41.7835 356.67 41.7835 356.379V342.549C41.7835 341.407 42.3924 340.329 43.3818 339.758L65.339 326.854C65.5039 326.753 65.6815 326.715 65.8718 326.715V326.702Z" fill="url(#paint27_linear_66_568)"/>
<path d="M74.5228 313.646V316.082C74.5228 316.475 74.675 316.843 74.9667 317.123C75.2331 317.376 75.601 317.529 75.9688 317.529C76.2098 317.529 76.4382 317.465 76.6538 317.351L94.0826 307.632C95.1227 307.074 95.757 306.008 95.757 304.828V301.872C95.757 301.072 95.1101 300.425 94.3109 300.425C94.0572 300.425 93.8035 300.489 93.5879 300.628L76.1084 310.905C75.1316 311.476 74.5354 312.53 74.5354 313.659L74.5228 313.646Z" fill="black"/>
<path d="M94.311 301.034C94.7169 301.034 95.1481 301.352 95.1481 301.872V304.828C95.1481 305.78 94.6281 306.642 93.7909 307.099L76.3621 316.818C76.045 316.996 75.6391 316.932 75.3854 316.678C75.2205 316.526 75.1317 316.311 75.1317 316.082V313.646C75.1317 312.733 75.6264 311.882 76.4128 311.426L93.8924 301.149C94.0192 301.072 94.1714 301.034 94.311 301.034Z" fill="url(#paint28_linear_66_568)"/>
<path d="M4.19862 367.176L4.92166 372.099C4.92166 372.099 0.54543 369.701 0.240997 368.686C-0.0634367 367.671 0.0253586 361.428 0.0253586 361.428L1.33188 362.849C2.8921 363.788 3.94493 365.374 4.21131 367.176H4.19862Z" fill="url(#paint29_linear_66_568)"/>
<path style="mix-blend-mode:multiply" d="M4.19865 367.176L4.92169 372.099C4.92169 372.099 1.96614 367.645 1.66171 366.643C1.35728 365.641 0.0253906 361.428 0.0253906 361.428L1.33192 362.849C2.89214 363.788 3.94496 365.374 4.21134 367.176H4.19865Z" fill="url(#paint30_linear_66_568)"/>
<path style="mix-blend-mode:screen" d="M38.1684 327.983L15.7418 315.219C14.7143 314.636 14.7143 313.164 15.7418 312.568L98.0403 265.521C99.1185 264.9 100.438 264.9 101.529 265.509L124.31 278.272C125.224 278.78 125.224 280.087 124.323 280.607L41.8723 327.983C40.718 328.643 39.31 328.643 38.1557 327.983H38.1684Z" fill="url(#paint31_linear_66_568)"/>
<path style="mix-blend-mode:multiply" d="M63.0938 367.506L111.296 339.618C109.418 342.79 108.251 346.393 108.251 349.629C108.251 350.39 108.315 351.101 108.442 351.748L66.4679 375.474C66.506 375.042 66.5314 374.611 66.5314 374.192C66.5314 370.729 65.1995 368.394 63.0938 367.506Z" fill="url(#paint32_linear_66_568)"/>
<path style="mix-blend-mode:multiply" d="M128.319 338.045C128.319 334.822 127.164 332.576 125.312 331.561L136.082 325.243L136.221 332.526C136.259 334.632 135.143 336.598 133.316 337.639L128.09 340.62C128.243 339.745 128.319 338.882 128.319 338.045Z" fill="url(#paint33_linear_66_568)"/>
<path d="M1.12895 366.707L2.4989 369.257C2.4989 369.257 4.51577 367.544 4.09718 366.757C3.67858 365.971 1.11627 366.707 1.11627 366.707H1.12895Z" fill="url(#paint34_linear_66_568)"/>
<path d="M2.85408 368.47C2.89213 369.13 2.43548 369.422 1.85198 369.117C1.2558 368.813 0.748411 368.039 0.723042 367.379C0.684988 366.719 1.14164 366.427 1.72514 366.732C2.32132 367.036 2.82871 367.81 2.85408 368.47Z" fill="url(#paint35_linear_66_568)"/>
<path d="M0.507385 364.575L1.50948 366.427C1.50948 366.427 2.9809 365.184 2.67647 364.6C2.37204 364.017 0.507385 364.562 0.507385 364.562V364.575Z" fill="url(#paint36_linear_66_568)"/>
<path d="M1.77583 365.856C1.8012 366.339 1.47139 366.554 1.04011 366.326C0.608832 366.11 0.240974 365.539 0.215604 365.057C0.190235 364.575 0.52004 364.359 0.95132 364.588C1.3826 364.803 1.75046 365.374 1.77583 365.856Z" fill="url(#paint37_linear_66_568)"/>
<path d="M38.9675 381.5C37.0267 382.693 36.2657 382.274 34.198 381.31C32.4349 380.473 30.3419 381.412 29.7964 383.289L28.9719 386.119L34.0078 388.745C37.0521 389.951 36.4813 389.76 38.7899 388.656L39.1958 388.415L38.9675 381.5Z" fill="url(#paint38_linear_66_568)"/>
<path style="mix-blend-mode:multiply" d="M38.9675 381.5C37.0267 382.693 36.2657 382.274 34.198 381.31C32.4349 380.473 30.3419 381.412 29.7964 383.289L28.9719 386.119L34.8323 386.398C39.0056 385.472 38.9675 381.5 38.9675 381.5Z" fill="url(#paint39_linear_66_568)"/>
<path d="M30.7351 383.442L32.549 387.273C32.549 387.273 38.0542 383.86 37.5088 382.693C36.9633 381.513 30.7351 383.454 30.7351 383.454V383.442Z" fill="url(#paint40_linear_66_568)"/>
<path d="M32.6831 387.126C33.2758 386.779 33.2719 385.669 32.6743 384.647C32.0768 383.625 31.112 383.077 30.5193 383.423C29.9266 383.77 29.9305 384.88 30.528 385.902C31.1255 386.924 32.0904 387.472 32.6831 387.126Z" fill="url(#paint41_linear_66_568)"/>
<path d="M34.4898 384.203L35.9232 387.248C35.9232 387.248 38.9421 384.863 38.5109 383.936C38.0796 382.998 34.4898 384.203 34.4898 384.203Z" fill="url(#paint42_linear_66_568)"/>
<path d="M36.3925 386.36C36.3925 387.121 35.8471 387.438 35.1875 387.045C34.5152 386.664 33.9824 385.725 33.9824 384.952C33.9824 384.178 34.5279 383.873 35.1875 384.266C35.8598 384.647 36.3925 385.586 36.3925 386.36Z" fill="url(#paint43_linear_66_568)"/>
<path d="M36.735 382.148C37.9654 382.148 37.8893 382.16 38.9675 381.5L39.1958 388.415C39.1958 388.415 37.6736 389.519 36.6462 389.506L36.7223 382.148H36.735Z" fill="url(#paint44_radial_66_568)"/>
<path d="M27.4117 378.658L26.7901 380.321C26.2827 381.653 24.7479 382.275 23.4667 381.64C21.1581 380.498 19.3061 379.534 16.3379 377.77C13.0272 375.804 11.1499 374.484 9.76722 373.558C9.13299 373.139 8.73977 372.441 8.70171 371.693L8.52413 368.635C8.48607 368.077 9.10763 367.722 9.57696 368.026C11.5177 369.32 14.7523 371.528 18.2279 373.507C22.1095 375.715 25.3821 377.073 27.0565 377.808C27.3863 377.948 27.5512 378.329 27.4244 378.671L27.4117 378.658Z" fill="#9C5F56"/>
<path d="M9.13303 367.912C9.08229 368.013 9.04424 368.128 9.05692 368.267L9.23451 371.325C9.27256 372.086 9.66579 372.771 10.3 373.19C11.6953 374.116 13.56 375.436 16.8707 377.402C19.8389 379.166 21.7036 380.13 23.9995 381.272C24.6972 381.615 25.4836 381.589 26.1179 381.272C25.4075 381.894 24.3674 382.084 23.4541 381.627C21.1455 380.485 19.2935 379.521 16.3253 377.758C13.0146 375.791 11.1372 374.471 9.75459 373.545C9.12035 373.127 8.72713 372.429 8.68908 371.68L8.51149 368.622C8.48612 368.229 8.79054 367.937 9.13303 367.912Z" fill="url(#paint45_radial_66_568)"/>
<path style="mix-blend-mode:screen" d="M135.562 311.185L42.2782 364.118L47.5043 366.186L135.65 316.704L135.562 311.185Z" fill="url(#paint46_linear_66_568)"/>
<path d="M38.0669 342.98C37.7244 348.905 37.3946 356.683 36.8618 365.691C36.8238 366.288 36.3291 366.757 35.7202 366.757C32.2573 366.757 25.0777 363.928 18.8876 360.35C10.9596 355.77 5.87305 352.23 3.01899 347.573C2.77798 347.18 2.70187 346.698 2.77798 346.241C3.97034 338.463 5.04854 331.206 5.98721 325.332C6.13943 324.418 7.15421 323.923 7.95335 324.393L37.0267 341.077C37.7117 341.47 38.1176 342.206 38.0669 342.993V342.98Z" fill="url(#paint47_linear_66_568)"/>
<path d="M36.2149 365.019C36.773 355.782 36.9252 349.299 37.2804 343.171C37.3185 342.536 36.9887 341.94 36.4305 341.623L7.4206 324.964C7.1669 324.811 6.8371 324.976 6.78636 325.281C5.77159 331.739 4.84559 337.651 3.61517 345.848C6.34239 350.58 11.6319 354.222 19.4203 358.713C25.2046 362.05 32.4095 365.019 35.8597 365.019C35.8597 365.019 36.1007 365.019 36.2149 365.019Z" fill="url(#paint48_linear_66_568)"/>
<path opacity="0.7" d="M3.7674 344.871C4.93439 337.182 5.82232 331.485 6.79904 325.281C6.84978 324.989 7.17958 324.824 7.43328 324.964L36.4432 341.623C37.0014 341.94 37.3312 342.536 37.2931 343.171C37.2043 344.718 37.1282 346.292 37.0521 347.916C33.437 348.626 29.4666 349.02 25.3187 349.02C16.9341 349.02 9.33599 347.434 3.78008 344.871H3.7674Z" fill="url(#paint49_linear_66_568)"/>
<path d="M5.04854 353.727C7.35716 357.508 11.4797 360.375 17.8982 364.067C22.9086 366.96 28.7182 369.257 31.5216 369.257C32.0036 369.257 32.0036 369.79 31.5216 369.79C28.7182 369.79 22.9086 367.493 17.8982 364.6C11.4797 360.896 7.35716 358.028 5.04854 354.26C4.85827 353.943 4.94706 353.549 5.04854 353.727Z" fill="#9C5F56"/>
<path d="M95.3637 291.417L78.3028 281.267C77.288 280.683 77.4148 279.668 78.5818 278.996L94.4885 269.531C95.6555 268.858 97.4187 268.782 98.4334 269.366L115.494 279.516C116.509 280.1 116.382 281.115 115.215 281.787L99.3087 291.252C98.1417 291.925 96.3785 292.001 95.3637 291.417Z" fill="black"/>
<path d="M97.0762 290.986C97.7358 290.986 98.3954 290.821 98.8901 290.542L114.797 281.089C115.253 280.823 115.355 280.582 115.355 280.518C115.355 280.467 115.266 280.353 115.088 280.252L98.0149 270.102C97.7104 269.924 97.2411 269.822 96.7337 269.822C96.0741 269.822 95.4145 269.987 94.9198 270.266L79.0131 279.719C78.5565 279.985 78.455 280.226 78.455 280.29C78.455 280.341 78.5438 280.455 78.7214 280.556L95.795 290.707C96.0995 290.884 96.5688 290.986 97.0762 290.986Z" fill="url(#paint50_linear_66_568)"/>
<path d="M47.796 321.957L91.571 296.632L89.1355 293.574L50.7135 315.854L47.796 321.957Z" fill="url(#paint51_linear_66_568)"/>
<path d="M27.1833 309.929L47.8087 321.957L50.7262 315.854L30.1008 303.838L27.1833 309.929Z" fill="url(#paint52_linear_66_568)"/>
<path d="M30.1008 303.838L50.7262 315.854L89.1355 293.574L68.4848 281.546L30.1008 303.838Z" fill="url(#paint53_radial_66_568)"/>
<path style="mix-blend-mode:screen" d="M30.1008 303.838L50.7262 315.854L89.1355 293.574L68.4848 281.546L30.1008 303.838Z" fill="url(#paint54_linear_66_568)"/>
<path d="M32.4856 336.116C32.9422 336.357 33.4877 336.04 33.4877 335.52C33.4877 335.025 33.437 335.456 33.6399 333.388C33.7414 332.323 33.1833 331.308 32.2319 330.825L12.9892 319.965C12.875 319.901 12.7609 319.876 12.634 319.876C12.2535 319.876 11.9237 320.155 11.8729 320.523C11.6446 321.969 11.5685 322.413 11.4797 322.972C11.3782 323.682 11.7334 324.38 12.355 324.723L32.4983 336.116H32.4856Z" fill="url(#paint55_linear_66_568)"/>
<path d="M11.0231 323.2C10.9216 323.911 11.2641 324.608 11.8983 324.964L32.4602 336.586C33.0818 336.928 33.8429 336.484 33.8556 335.774C33.8556 335.203 33.8555 335.482 34.0458 333.439C34.16 332.208 33.5131 331.028 32.4095 330.47L13.1668 319.609C12.9004 319.47 12.6086 319.444 12.3042 319.521C11.8476 319.647 11.5178 320.053 11.4417 320.523C11.188 322.096 11.0992 322.604 11.0104 323.2H11.0231ZM33.4877 335.431C33.4877 335.989 32.8915 336.345 32.4095 336.078L12.355 324.735C11.7207 324.393 11.3656 323.695 11.4797 322.984C11.5558 322.426 11.6319 321.995 11.8729 320.536C11.9364 320.155 12.2535 319.889 12.634 319.889C12.7609 319.889 12.875 319.914 12.9892 319.977L32.2319 330.838C33.1833 331.32 33.7414 332.335 33.6399 333.401C33.4496 335.342 33.4877 334.936 33.4877 335.444V335.431Z" fill="url(#paint56_linear_66_568)"/>
<path d="M13.7756 322.007L30.4687 331.675L30.4814 333.35L13.7756 323.669V322.007Z" fill="url(#paint57_linear_66_568)"/>
<path d="M93.5752 303.483L76.8821 313.164L76.8694 314.826L93.5752 305.145V303.483Z" fill="url(#paint58_linear_66_568)"/>
<path d="M99.0043 306.998C98.6872 306.998 98.37 307.086 98.091 307.251L72.1888 322.299C70.971 323.01 70.21 324.329 70.21 325.75V367.975C70.21 368.47 70.4002 368.94 70.7681 369.282C71.1106 369.612 71.5672 369.79 72.0366 369.79C72.341 369.79 72.6201 369.714 72.8991 369.574L98.7379 354.628C100.032 353.93 100.844 352.585 100.844 351.1V308.825C100.844 307.822 100.032 307.01 99.0296 307.01L99.0043 306.998Z" fill="black"/>
<path d="M99.0043 307.759C99.5117 307.759 100.057 308.165 100.057 308.812V351.088C100.057 352.281 99.4102 353.372 98.3573 353.93L87.7402 359.969C87.3343 360.185 86.8269 360.109 86.5098 359.804C86.3069 359.601 86.1927 359.335 86.1927 359.043V316.818C86.1927 315.676 86.8016 314.598 87.791 314.027L98.4715 307.886C98.6364 307.784 98.814 307.746 99.0043 307.746V307.759Z" fill="url(#paint59_linear_66_568)"/>
<path d="M83.7826 316.678C84.29 316.678 84.8354 317.084 84.8354 317.732V360.007C84.8354 361.2 84.1885 362.291 83.1357 362.849L72.5185 368.889C72.1126 369.105 71.6052 369.028 71.2881 368.724C71.0852 368.521 70.971 368.254 70.971 367.963V325.738C70.971 324.596 71.5799 323.517 72.5693 322.946L83.2498 316.805C83.4147 316.704 83.5923 316.666 83.7826 316.666V316.678Z" fill="url(#paint60_linear_66_568)"/>
<path opacity="0.7" d="M127.875 290.63C127.684 290.63 127.507 290.681 127.342 290.77L105.385 303.674C104.395 304.257 103.786 305.323 103.786 306.465V313.925C103.786 312.783 104.395 311.705 105.385 311.134L127.342 298.23C127.507 298.129 127.684 298.091 127.875 298.091C128.382 298.091 128.927 298.497 128.927 299.144V291.684C128.927 291.036 128.382 290.63 127.875 290.63Z" fill="url(#paint61_linear_66_568)"/>
<path opacity="0.7" d="M65.8717 326.702C65.6815 326.702 65.5039 326.753 65.339 326.841L43.3817 339.745C42.3923 340.329 41.7834 341.394 41.7834 342.536V349.997C41.7834 348.855 42.3923 347.776 43.3817 347.205L65.339 334.302C65.5039 334.2 65.6815 334.162 65.8717 334.162C66.3791 334.162 66.9246 334.568 66.9246 335.215V327.755C66.9246 327.108 66.3791 326.702 65.8717 326.702Z" fill="url(#paint62_linear_66_568)"/>
<path opacity="0.7" d="M99.0043 307.759C98.814 307.759 98.6364 307.81 98.4715 307.899L87.791 314.039C86.8016 314.61 86.1927 315.689 86.1927 316.831V324.291C86.1927 323.149 86.8016 322.071 87.791 321.5L98.4715 315.359C98.6364 315.257 98.814 315.219 99.0043 315.219C99.5117 315.219 100.057 315.625 100.057 316.272V308.812C100.057 308.165 99.5117 307.759 99.0043 307.759Z" fill="url(#paint63_linear_66_568)"/>
<path opacity="0.7" d="M83.7826 316.678C83.5923 316.678 83.4147 316.729 83.2498 316.818L72.5693 322.959C71.5799 323.543 70.971 324.608 70.971 325.75V333.211C70.971 332.069 71.5799 330.99 72.5693 330.419L83.2498 324.278C83.4147 324.177 83.5923 324.139 83.7826 324.139C84.29 324.139 84.8354 324.545 84.8354 325.192V317.732C84.8354 317.084 84.29 316.678 83.7826 316.678Z" fill="url(#paint64_linear_66_568)"/>
<g style="mix-blend-mode:multiply">
<path opacity="0.4" d="M74.6046 65.9795C80.834 62.337 80.7708 50.6353 74.4633 39.8431C68.1559 29.0509 57.9928 23.255 51.7633 26.8975C45.5339 30.54 45.5972 42.2417 51.9046 53.0339C58.2121 63.8261 68.3752 69.622 74.6046 65.9795Z" fill="url(#paint65_linear_66_568)"/>
</g>
<g style="mix-blend-mode:multiply">
<path opacity="0.4" d="M74.6038 118.698C80.8332 115.055 80.77 103.354 74.4625 92.5616C68.1551 81.7694 57.992 75.9734 51.7626 79.6159C45.5332 83.2585 45.5964 94.9601 51.9039 105.752C58.2113 116.545 68.3744 122.34 74.6038 118.698Z" fill="url(#paint66_linear_66_568)"/>
</g>
<g style="mix-blend-mode:multiply">
<path opacity="0.4" d="M74.603 171.404C80.8324 167.761 80.7692 156.059 74.4617 145.267C68.1543 134.475 57.9912 128.679 51.7618 132.322C45.5324 135.964 45.5956 147.666 51.9031 158.458C58.2105 169.25 68.3736 175.046 74.603 171.404Z" fill="url(#paint67_linear_66_568)"/>
</g>
<g style="mix-blend-mode:multiply">
<path opacity="0.4" d="M74.6022 224.122C80.8317 220.48 80.7684 208.778 74.461 197.986C68.1535 187.193 57.9904 181.397 51.761 185.04C45.5316 188.683 45.5948 200.384 51.9023 211.176C58.2097 221.969 68.3728 227.765 74.6022 224.122Z" fill="url(#paint68_linear_66_568)"/>
</g>
<path opacity="0.4" d="M60.0239 72.3112C66.2533 68.6687 66.1901 56.967 59.8826 46.1748C53.5752 35.3826 43.4121 29.5866 37.1827 33.2292C30.9533 36.8717 31.0165 48.5733 37.324 59.3655C43.6314 70.1577 53.7945 75.9537 60.0239 72.3112Z" fill="url(#paint69_linear_66_568)"/>
<path d="M41.3902 32.776C36.329 32.776 33.1832 36.8868 33.1832 43.4972C33.1832 53.4571 40.2486 65.6374 48.9249 70.6491C51.3604 72.0575 53.6817 72.768 55.8127 72.768C60.8739 72.768 64.0198 68.6571 64.0198 62.0468C64.0198 52.0868 56.9544 39.9065 48.278 34.8949C45.8426 33.4865 43.5213 32.776 41.3902 32.776ZM55.8001 74.0368C53.4407 74.0368 50.9038 73.2628 48.278 71.7403C39.2465 66.5256 31.902 53.8631 31.902 43.4972C31.902 36.2144 35.6187 31.5072 41.3775 31.5072C43.7369 31.5072 46.2738 32.2812 48.8996 33.791C57.9311 39.0057 65.2756 51.6808 65.2756 62.0341C65.2756 69.3169 61.5589 74.0241 55.8001 74.0241V74.0368Z" fill="#A56EF4"/>
<path opacity="0.4" d="M60.0232 125.03C66.2526 121.387 66.1894 109.685 59.8819 98.8932C53.5745 88.101 43.4113 82.305 37.1819 85.9475C30.9525 89.5901 31.0158 101.292 37.3232 112.084C43.6307 122.876 53.7938 128.672 60.0232 125.03Z" fill="url(#paint70_linear_66_568)"/>
<path d="M41.3903 85.4938C36.3291 85.4938 33.1833 89.6047 33.1833 96.215C33.1833 106.175 40.2487 118.355 48.925 123.367C51.3605 124.775 53.6818 125.486 55.8128 125.486C60.874 125.486 64.0198 121.375 64.0198 114.765C64.0198 104.805 56.9544 92.6244 48.2781 87.6127C45.8426 86.2043 43.5213 85.4938 41.3903 85.4938ZM55.8001 126.755C53.4408 126.755 50.9038 125.981 48.2781 124.458C39.2466 119.243 31.9021 106.568 31.9021 96.215C31.9021 88.9322 35.6187 84.225 41.3776 84.225C43.7369 84.225 46.2739 84.999 48.8996 86.5215C57.9312 91.7362 65.2756 104.399 65.2756 114.765C65.2756 122.047 61.559 126.755 55.8001 126.755Z" fill="#A56EF4"/>
<path opacity="0.4" d="M60.0224 177.748C66.2518 174.105 66.1886 162.404 59.8811 151.612C53.5737 140.819 43.4105 135.023 37.1811 138.666C30.9517 142.308 31.015 154.01 37.3224 164.802C43.6299 175.595 53.793 181.39 60.0224 177.748Z" fill="url(#paint71_linear_66_568)"/>
<path d="M41.3903 138.212C36.3291 138.212 33.1833 142.323 33.1833 148.933C33.1833 158.893 40.2487 171.073 48.925 176.085C51.3605 177.493 53.6818 178.204 55.8128 178.204C60.874 178.204 64.0325 174.093 64.0325 167.483C64.0325 157.523 56.9671 145.342 48.2908 140.331C45.8553 138.922 43.534 138.212 41.403 138.212H41.3903ZM55.8001 179.472C53.4408 179.472 50.9038 178.699 48.2781 177.176C39.2466 171.961 31.9021 159.286 31.9021 148.933C31.9021 141.65 35.6187 136.943 41.3776 136.943C43.7369 136.943 46.2739 137.717 48.8996 139.239C57.9312 144.454 65.2756 157.117 65.2756 167.483C65.2756 174.765 61.559 179.472 55.7874 179.472H55.8001Z" fill="#A56EF4"/>
<path opacity="0.4" d="M60.0216 230.466C66.251 226.824 66.1878 215.122 59.8803 204.33C53.5729 193.538 43.4097 187.742 37.1803 191.384C30.9509 195.027 31.0142 206.729 37.3216 217.521C43.6291 228.313 53.7922 234.109 60.0216 230.466Z" fill="url(#paint72_linear_66_568)"/>
<path d="M41.3902 190.93C36.329 190.93 33.1832 195.04 33.1832 201.651C33.1832 211.611 40.2486 223.791 48.9249 228.803C51.3604 230.211 53.6817 230.922 55.8127 230.922C60.8739 230.922 64.0324 226.811 64.0324 220.2C64.0324 210.24 56.9671 198.06 48.2907 193.048C45.8552 191.64 43.5339 190.93 41.4029 190.93H41.3902ZM55.8001 232.19C53.4407 232.19 50.9038 231.416 48.278 229.894C39.2465 224.679 31.902 212.004 31.902 201.651C31.902 194.368 35.6187 189.661 41.3775 189.661C43.7369 189.661 46.2738 190.435 48.8996 191.957C57.9311 197.172 65.2756 209.834 65.2756 220.2C65.2756 227.483 61.5589 232.19 55.7874 232.19H55.8001Z" fill="#A56EF4"/>
<path d="M105.486 33.9179C105.486 36.2779 103.824 37.2294 101.77 36.0368C99.7146 34.8568 98.0529 31.9767 98.0529 29.6168C98.0529 27.2568 99.7146 26.3052 101.77 27.4979C103.824 28.6779 105.486 31.558 105.486 33.9179Z" fill="white"/>
<path d="M105.486 46.1236C105.486 48.4835 103.824 49.4351 101.77 48.2425C99.7146 47.0625 98.0529 44.1824 98.0529 41.8224C98.0529 39.4625 99.7146 38.5109 101.77 39.7036C103.824 40.8835 105.486 43.7637 105.486 46.1236Z" fill="white"/>
<path d="M105.486 58.3419C105.486 60.7019 103.824 61.6535 101.77 60.4608C99.7146 59.2808 98.0529 56.4007 98.0529 54.0408C98.0529 51.6808 99.7146 50.7292 101.77 51.9219C103.824 53.1019 105.486 55.982 105.486 58.3419Z" fill="white"/>
<path d="M105.486 70.5476C105.486 72.9076 103.824 73.8591 101.77 72.6665C99.7146 71.4865 98.0529 68.6064 98.0529 66.2465C98.0529 63.8865 99.7146 62.9349 101.77 64.1276C103.824 65.3076 105.486 68.1877 105.486 70.5476Z" fill="white"/>
<path d="M50.092 50.7039L40.033 44.8929V51.8839L50.092 57.6949V62.6558L59.6689 59.7376L50.092 45.7303V50.7039Z" fill="white"/>
<path d="M48.6332 94.7687C44.8025 92.561 41.6947 94.3246 41.6947 98.7273C41.6947 106.987 48.6332 117.924 48.6332 117.924C48.6332 117.924 55.5718 114.993 55.5718 106.733C55.5718 102.343 52.464 96.9763 48.6332 94.7687ZM48.6332 106.34C46.8954 105.338 45.4874 102.902 45.4874 100.897C45.4874 98.8922 46.8954 98.0929 48.6332 99.0952C50.3711 100.098 51.7791 102.534 51.7791 104.538C51.7791 106.543 50.3711 107.342 48.6332 106.34Z" fill="white"/>
<path d="M55.7113 168.053L53.0094 163.524C52.5528 162.737 51.8678 162.268 51.3351 162.306L50.612 161.063C52.5147 159.274 52.3245 155.048 50.0412 151.09C47.5423 146.776 43.4832 144.429 40.9716 145.85C38.4728 147.284 38.4728 151.94 40.9716 156.254C43.2676 160.212 46.8573 162.496 49.3689 161.76L50.092 163.004C49.7875 163.435 49.8509 164.273 50.3076 165.046L53.0094 169.576C53.5549 170.515 54.4301 171.022 54.9756 170.705L55.724 170.287C56.2694 169.982 56.2694 168.967 55.724 168.028L55.7113 168.053ZM48.4937 158.842C46.8447 159.781 44.1682 158.233 42.5192 155.391C40.8702 152.549 40.8702 149.479 42.5192 148.54C44.1682 147.601 46.8447 149.149 48.4937 151.991C50.1427 154.833 50.1427 157.903 48.4937 158.842ZM46.6798 150.811L44.3585 149.466V151.699L42.405 150.57V153.234L44.3585 154.363V156.596L46.6798 157.941V155.708L48.6332 156.837V154.173L46.6798 153.044V150.811Z" fill="white"/>
<path d="M56.3709 221.38L53.669 216.851C53.2124 216.064 52.5274 215.595 51.9947 215.633L51.2716 214.389C53.1743 212.6 52.9841 208.375 50.7008 204.417C48.2019 200.103 44.1428 197.756 41.6312 199.177C39.1324 200.61 39.1324 205.267 41.6312 209.581C43.9272 213.539 47.517 215.823 50.0285 215.087L50.7515 216.331C50.4471 216.762 50.5106 217.599 50.9672 218.373L53.669 222.903C54.2145 223.842 55.0897 224.349 55.6352 224.032L56.3836 223.613C56.929 223.309 56.929 222.294 56.3836 221.355L56.3709 221.38ZM49.1533 212.169C47.5043 213.108 44.8278 211.56 43.1788 208.718C41.5298 205.876 41.5298 202.805 43.1788 201.866C44.8278 200.928 47.5043 202.475 49.1533 205.318C50.8023 208.16 50.8023 211.23 49.1533 212.169ZM43.0646 206.574L49.2928 210.164V207.5L43.0646 203.909V206.574Z" fill="white"/>
<defs>
<linearGradient id="paint0_linear_66_568" x1="12.2564" y1="339.737" x2="159.256" y2="339.737" gradientUnits="userSpaceOnUse">
<stop offset="0.02" stop-color="#45108A"/>
<stop offset="1" stop-color="#3D065F"/>
</linearGradient>
<radialGradient id="paint1_radial_66_568" cx="0" cy="0" r="1" gradientUnits="userSpaceOnUse" gradientTransform="translate(205.672 93.5048) rotate(-22.3449) scale(27.5131 34.9265)">
<stop stop-color="#972A74"/>
<stop offset="0.04" stop-color="#8A266A"/>
<stop offset="0.19" stop-color="#601A49"/>
<stop offset="0.35" stop-color="#3D112F"/>
<stop offset="0.51" stop-color="#22091A"/>
<stop offset="0.67" stop-color="#0F040B"/>
<stop offset="0.83" stop-color="#030102"/>
<stop offset="1"/>
</radialGradient>
<linearGradient id="paint2_linear_66_568" x1="60.3666" y1="11.968" x2="188.301" y2="233.521" gradientUnits="userSpaceOnUse">
<stop offset="0.06" stop-color="#200041"/>
<stop offset="0.26" stop-color="#210143"/>
<stop offset="0.36" stop-color="#25084A"/>
<stop offset="0.43" stop-color="#2C1357"/>
<stop offset="0.47" stop-color="#311B61"/>
<stop offset="0.48" stop-color="#351F65"/>
<stop offset="0.5" stop-color="#422C72"/>
<stop offset="0.51" stop-color="#574188"/>
<stop offset="0.52" stop-color="#755FA6"/>
<stop offset="0.53" stop-color="#8770B8"/>
<stop offset="0.54" stop-color="#7D66AE"/>
<stop offset="0.56" stop-color="#5C458C"/>
<stop offset="0.59" stop-color="#442E74"/>
<stop offset="0.61" stop-color="#351F66"/>
<stop offset="0.63" stop-color="#311B61"/>
<stop offset="0.67" stop-color="#2A1054"/>
<stop offset="0.75" stop-color="#220446"/>
<stop offset="0.81" stop-color="#200041"/>
<stop offset="1" stop-color="#200041"/>
</linearGradient>
<radialGradient id="paint3_radial_66_568" cx="0" cy="0" r="1" gradientUnits="userSpaceOnUse" gradientTransform="translate(259.111 102.001) scale(240.008 240.066)">
<stop stop-color="#711F56"/>
<stop offset="0.16" stop-color="#6B1D51"/>
<stop offset="0.36" stop-color="#5C1946"/>
<stop offset="0.58" stop-color="#421232"/>
<stop offset="0.82" stop-color="#1F0818"/>
<stop offset="1"/>
</radialGradient>
<radialGradient id="paint4_radial_66_568" cx="0" cy="0" r="1" gradientUnits="userSpaceOnUse" gradientTransform="translate(218.964 84.8468) scale(141.397 141.431)">
<stop stop-color="#AF8AFC"/>
<stop offset="1" stop-color="#10054D"/>
</radialGradient>
<linearGradient id="paint5_linear_66_568" x1="230.367" y1="216.305" x2="-160.542" y2="93.9602" gradientUnits="userSpaceOnUse">
<stop offset="0.19" stop-color="#3D065F"/>
<stop offset="0.93" stop-color="#3D065F"/>
</linearGradient>
<linearGradient id="paint6_linear_66_568" x1="235.466" y1="367.633" x2="36.8715" y2="-51.8904" gradientUnits="userSpaceOnUse">
<stop stop-color="#311B61"/>
<stop offset="0.2" stop-color="#290E52"/>
<stop offset="0.49" stop-color="#200041"/>
<stop offset="1" stop-color="#0F001F"/>
</linearGradient>
<linearGradient id="paint7_linear_66_568" x1="89.9728" y1="191.868" x2="214.625" y2="191.868" gradientUnits="userSpaceOnUse">
<stop stop-color="#311B61"/>
<stop offset="0.2" stop-color="#290E52"/>
<stop offset="0.49" stop-color="#200041"/>
<stop offset="1" stop-color="#0F001F"/>
</linearGradient>
<linearGradient id="paint8_linear_66_568" x1="248.887" y1="306.807" x2="-98.7737" y2="-106.732" gradientUnits="userSpaceOnUse">
<stop offset="0.03" stop-color="#7C1DC9"/>
<stop offset="0.21" stop-color="#6E41D1"/>
<stop offset="0.62" stop-color="#4C9BE8"/>
<stop offset="1" stop-color="#2AF6FF"/>
</linearGradient>
<linearGradient id="paint9_linear_66_568" x1="3545.15" y1="-9243.94" x2="3533.98" y2="-9211.69" gradientUnits="userSpaceOnUse">
<stop stop-color="#311B61"/>
<stop offset="0.2" stop-color="#290E52"/>
<stop offset="0.49" stop-color="#200041"/>
<stop offset="1" stop-color="#0F001F"/>
</linearGradient>
<linearGradient id="paint10_linear_66_568" x1="232.676" y1="151.306" x2="217.302" y2="150.633" gradientUnits="userSpaceOnUse">
<stop stop-color="#3D065F"/>
<stop offset="1" stop-color="#5F27BD"/>
</linearGradient>
<radialGradient id="paint11_radial_66_568" cx="0" cy="0" r="1" gradientUnits="userSpaceOnUse" gradientTransform="translate(224.938 144.733) scale(9.03155 9.03372)">
<stop stop-color="#711F56"/>
<stop offset="0.16" stop-color="#6B1D51"/>
<stop offset="0.36" stop-color="#5C1946"/>
<stop offset="0.58" stop-color="#421232"/>
<stop offset="0.82" stop-color="#1F0818"/>
<stop offset="1"/>
</radialGradient>
<linearGradient id="paint12_linear_66_568" x1="-46.4007" y1="179.752" x2="303.921" y2="101.238" gradientUnits="userSpaceOnUse">
<stop offset="0.04" stop-color="#138BBD"/>
<stop offset="0.23" stop-color="#169AC6"/>
<stop offset="0.59" stop-color="#1EC2DF"/>
<stop offset="1" stop-color="#2AF6FF"/>
</linearGradient>
<radialGradient id="paint13_radial_66_568" cx="0" cy="0" r="1" gradientUnits="userSpaceOnUse" gradientTransform="translate(164.17 301.963) scale(117.167 117.562)">
<stop offset="0.02" stop-color="#DC3DAA"/>
<stop offset="0.26" stop-color="#7C1DC9"/>
<stop offset="0.49" stop-color="#6617B0"/>
<stop offset="0.81" stop-color="#4E1294"/>
<stop offset="0.99" stop-color="#45108A"/>
</radialGradient>
<linearGradient id="paint14_linear_66_568" x1="106.628" y1="352.813" x2="122.476" y2="331.578" gradientUnits="userSpaceOnUse">
<stop stop-color="#010002"/>
<stop offset="0.03" stop-color="#030005"/>
<stop offset="0.19" stop-color="#0F0318"/>
<stop offset="0.36" stop-color="#160524"/>
<stop offset="0.54" stop-color="#190628"/>
<stop offset="0.7" stop-color="#0B0212"/>
<stop offset="0.86" stop-color="#020004"/>
<stop offset="1"/>
</linearGradient>
<linearGradient id="paint15_linear_66_568" x1="127.824" y1="344.972" x2="109.761" y2="344.972" gradientUnits="userSpaceOnUse">
<stop stop-color="#100221"/>
<stop offset="1" stop-color="#10054D"/>
</linearGradient>
<radialGradient id="paint16_radial_66_568" cx="0" cy="0" r="1" gradientUnits="userSpaceOnUse" gradientTransform="translate(116.94 344.668) rotate(180) scale(9.75455 9.75693)">
<stop stop-color="white"/>
<stop offset="1"/>
</radialGradient>
<linearGradient id="paint17_linear_66_568" x1="125.452" y1="345.125" x2="111.537" y2="345.125" gradientUnits="userSpaceOnUse">
<stop stop-color="#BCBEC0"/>
<stop offset="1" stop-color="#E6E7E8"/>
</linearGradient>
<linearGradient id="paint18_linear_66_568" x1="125.883" y1="345.289" x2="111.981" y2="345.289" gradientUnits="userSpaceOnUse">
<stop stop-color="#BCBEC0"/>
<stop offset="1" stop-color="#E6E7E8"/>
</linearGradient>
<linearGradient id="paint19_linear_66_568" x1="44.739" y1="388.504" x2="60.5872" y2="367.268" gradientUnits="userSpaceOnUse">
<stop stop-color="#010002"/>
<stop offset="0.03" stop-color="#030005"/>
<stop offset="0.19" stop-color="#0F0318"/>
<stop offset="0.36" stop-color="#160524"/>
<stop offset="0.54" stop-color="#190628"/>
<stop offset="0.7" stop-color="#0B0212"/>
<stop offset="0.86" stop-color="#020004"/>
<stop offset="1"/>
</linearGradient>
<linearGradient id="paint20_linear_66_568" x1="65.9352" y1="380.676" x2="47.8721" y2="380.676" gradientUnits="userSpaceOnUse">
<stop stop-color="#100221"/>
<stop offset="1" stop-color="#10054D"/>
</linearGradient>
<radialGradient id="paint21_radial_66_568" cx="0" cy="0" r="1" gradientUnits="userSpaceOnUse" gradientTransform="translate(55.0516 380.359) rotate(180) scale(9.75455 9.75693)">
<stop stop-color="white"/>
<stop offset="1"/>
</radialGradient>
<linearGradient id="paint22_linear_66_568" x1="63.5631" y1="380.815" x2="49.6479" y2="380.815" gradientUnits="userSpaceOnUse">
<stop stop-color="#BCBEC0"/>
<stop offset="1" stop-color="#E6E7E8"/>
</linearGradient>
<linearGradient id="paint23_linear_66_568" x1="63.9944" y1="380.993" x2="50.0919" y2="380.993" gradientUnits="userSpaceOnUse">
<stop stop-color="#BCBEC0"/>
<stop offset="1" stop-color="#E6E7E8"/>
</linearGradient>
<radialGradient id="paint24_radial_66_568" cx="0" cy="0" r="1" gradientUnits="userSpaceOnUse" gradientTransform="translate(63.9944 289.666) rotate(180) scale(108.911 108.938)">
<stop stop-color="#FEECA8"/>
<stop offset="1" stop-color="#FFA98C"/>
</radialGradient>
<radialGradient id="paint25_radial_66_568" cx="0" cy="0" r="1" gradientUnits="userSpaceOnUse" gradientTransform="translate(61.2292 289.653) rotate(-180) scale(107.528 107.555)">
<stop stop-color="#FEECA8"/>
<stop offset="1" stop-color="#FFA98C"/>
</radialGradient>
<linearGradient id="paint26_linear_66_568" x1="131.401" y1="295.566" x2="88.989" y2="325.918" gradientUnits="userSpaceOnUse">
<stop offset="0.12" stop-color="#45108A"/>
<stop offset="0.35" stop-color="#43148C"/>
<stop offset="0.6" stop-color="#402192"/>
<stop offset="0.87" stop-color="#3A379C"/>
<stop offset="1" stop-color="#3746A3"/>
</linearGradient>
<linearGradient id="paint27_linear_66_568" x1="138.2" y1="285.619" x2="35.4888" y2="355.15" gradientUnits="userSpaceOnUse">
<stop offset="0.12" stop-color="#45108A"/>
<stop offset="0.35" stop-color="#43148C"/>
<stop offset="0.6" stop-color="#402192"/>
<stop offset="0.87" stop-color="#3A379C"/>
<stop offset="1" stop-color="#3746A3"/>
</linearGradient>
<linearGradient id="paint28_linear_66_568" x1="141.092" y1="271.345" x2="72.5715" y2="317.729" gradientUnits="userSpaceOnUse">
<stop stop-color="#25054D"/>
<stop offset="1" stop-color="#1B2B69"/>
</linearGradient>
<linearGradient id="paint29_linear_66_568" x1="4.5965" y1="366.625" x2="0.0236726" y2="366.866" gradientUnits="userSpaceOnUse">
<stop stop-color="#BCBEC0"/>
<stop offset="1" stop-color="#E6E7E8"/>
</linearGradient>
<linearGradient id="paint30_linear_66_568" x1="4.59654" y1="366.625" x2="0.264381" y2="366.854" gradientUnits="userSpaceOnUse">
<stop stop-color="#9C9C9C"/>
<stop offset="0.31" stop-color="#C7C7C7"/>
<stop offset="0.59" stop-color="#E5E5E5"/>
<stop offset="0.83" stop-color="#F8F8F8"/>
<stop offset="1" stop-color="white"/>
</linearGradient>
<linearGradient id="paint31_linear_66_568" x1="92.8014" y1="332.005" x2="56.3584" y2="275.603" gradientUnits="userSpaceOnUse">
<stop stop-color="#9C9C9C"/>
<stop offset="0.01" stop-color="#989898"/>
<stop offset="0.26" stop-color="#626262"/>
<stop offset="0.49" stop-color="#383838"/>
<stop offset="0.7" stop-color="#191919"/>
<stop offset="0.88" stop-color="#060606"/>
<stop offset="1"/>
</linearGradient>
<linearGradient id="paint32_linear_66_568" x1="92.0277" y1="362.735" x2="87.2184" y2="354.832" gradientUnits="userSpaceOnUse">
<stop stop-color="#9C9090"/>
<stop offset="0.08" stop-color="#A79C9C"/>
<stop offset="0.36" stop-color="#CDC6C6"/>
<stop offset="0.62" stop-color="#E8E5E5"/>
<stop offset="0.85" stop-color="#F9F8F8"/>
<stop offset="1" stop-color="white"/>
</linearGradient>
<linearGradient id="paint33_linear_66_568" x1="134.927" y1="337.588" x2="130.473" y2="330.268" gradientUnits="userSpaceOnUse">
<stop stop-color="#9C9090"/>
<stop offset="0.08" stop-color="#A79C9C"/>
<stop offset="0.36" stop-color="#CDC6C6"/>
<stop offset="0.62" stop-color="#E8E5E5"/>
<stop offset="0.85" stop-color="#F9F8F8"/>
<stop offset="1" stop-color="white"/>
</linearGradient>
<linearGradient id="paint34_linear_66_568" x1="4.15865" y1="367.716" x2="1.15654" y2="367.874" gradientUnits="userSpaceOnUse">
<stop stop-color="#BCBEC0"/>
<stop offset="1" stop-color="#E6E7E8"/>
</linearGradient>
<linearGradient id="paint35_linear_66_568" x1="0.724626" y1="367.965" x2="2.80203" y2="367.855" gradientUnits="userSpaceOnUse">
<stop stop-color="#BCBEC0"/>
<stop offset="0.69" stop-color="#E8E9EA"/>
<stop offset="1" stop-color="white"/>
</linearGradient>
<linearGradient id="paint36_linear_66_568" x1="2.72293" y1="365.301" x2="0.518855" y2="365.417" gradientUnits="userSpaceOnUse">
<stop stop-color="#BCBEC0"/>
<stop offset="1" stop-color="#E6E7E8"/>
</linearGradient>
<linearGradient id="paint37_linear_66_568" x1="0.212911" y1="365.489" x2="1.73297" y2="365.409" gradientUnits="userSpaceOnUse">
<stop stop-color="#BCBEC0"/>
<stop offset="0.69" stop-color="#E8E9EA"/>
<stop offset="1" stop-color="white"/>
</linearGradient>
<linearGradient id="paint38_linear_66_568" x1="39.2085" y1="385.281" x2="28.9719" y2="385.281" gradientUnits="userSpaceOnUse">
<stop stop-color="#BCBEC0"/>
<stop offset="1" stop-color="#E6E7E8"/>
</linearGradient>
<linearGradient id="paint39_linear_66_568" x1="33.8682" y1="387.197" x2="34.1094" y2="379.356" gradientUnits="userSpaceOnUse">
<stop stop-color="#9C9C9C"/>
<stop offset="0.31" stop-color="#C7C7C7"/>
<stop offset="0.59" stop-color="#E5E5E5"/>
<stop offset="0.83" stop-color="#F8F8F8"/>
<stop offset="1" stop-color="white"/>
</linearGradient>
<linearGradient id="paint40_linear_66_568" x1="37.5468" y1="384.787" x2="30.7351" y2="384.787" gradientUnits="userSpaceOnUse">
<stop stop-color="#BCBEC0"/>
<stop offset="1" stop-color="#E6E7E8"/>
</linearGradient>
<linearGradient id="paint41_linear_66_568" x1="30.0855" y1="385.279" x2="33.1298" y2="385.279" gradientUnits="userSpaceOnUse">
<stop stop-color="#BCBEC0"/>
<stop offset="0.69" stop-color="#E8E9EA"/>
<stop offset="1" stop-color="white"/>
</linearGradient>
<linearGradient id="paint42_linear_66_568" x1="38.5616" y1="385.408" x2="34.4898" y2="385.408" gradientUnits="userSpaceOnUse">
<stop stop-color="#BCBEC0"/>
<stop offset="1" stop-color="#E6E7E8"/>
</linearGradient>
<linearGradient id="paint43_linear_66_568" x1="33.9697" y1="385.662" x2="36.3925" y2="385.662" gradientUnits="userSpaceOnUse">
<stop stop-color="#BCBEC0"/>
<stop offset="0.69" stop-color="#E8E9EA"/>
<stop offset="1" stop-color="white"/>
</linearGradient>
<radialGradient id="paint44_radial_66_568" cx="0" cy="0" r="1" gradientUnits="userSpaceOnUse" gradientTransform="translate(37.5341 371.195) rotate(180) scale(2.16908 3.62326)">
<stop stop-color="#FF63CE"/>
<stop offset="1" stop-color="#9F19AB"/>
</radialGradient>
<radialGradient id="paint45_radial_66_568" cx="0" cy="0" r="1" gradientUnits="userSpaceOnUse" gradientTransform="translate(14.1689 379.686) rotate(180) scale(23.1877 23.1933)">
<stop stop-color="#FEECA8"/>
<stop offset="1" stop-color="#FFA98C"/>
</radialGradient>
<linearGradient id="paint46_linear_66_568" x1="92.1799" y1="343.018" x2="88.1447" y2="336.358" gradientUnits="userSpaceOnUse">
<stop stop-color="#9C9C9C"/>
<stop offset="0.01" stop-color="#989898"/>
<stop offset="0.26" stop-color="#626262"/>
<stop offset="0.49" stop-color="#383838"/>
<stop offset="0.7" stop-color="#191919"/>
<stop offset="0.88" stop-color="#060606"/>
<stop offset="1"/>
</linearGradient>
<linearGradient id="paint47_linear_66_568" x1="38.0795" y1="345.48" x2="2.76529" y2="345.48" gradientUnits="userSpaceOnUse">
<stop stop-color="#100221"/>
<stop offset="1" stop-color="#10054D"/>
</linearGradient>
<linearGradient id="paint48_linear_66_568" x1="32.6251" y1="374.979" x2="15.2905" y2="331.336" gradientUnits="userSpaceOnUse">
<stop stop-color="#25054D"/>
<stop offset="1" stop-color="#1B2B69"/>
</linearGradient>
<linearGradient id="paint49_linear_66_568" x1="25.306" y1="321.36" x2="19.6587" y2="346.773" gradientUnits="userSpaceOnUse">
<stop offset="0.23" stop-color="#45108A"/>
<stop offset="0.43" stop-color="#43178D"/>
<stop offset="0.73" stop-color="#3D2C97"/>
<stop offset="1" stop-color="#3746A3"/>
</linearGradient>
<linearGradient id="paint50_linear_66_568" x1="104.852" y1="259.862" x2="92.6694" y2="291.314" gradientUnits="userSpaceOnUse">
<stop offset="0.74" stop-color="#45108A"/>
<stop offset="1" stop-color="#3746A3"/>
</linearGradient>
<linearGradient id="paint51_linear_66_568" x1="62.8908" y1="293.384" x2="72.9159" y2="316.829" gradientUnits="userSpaceOnUse">
<stop offset="0.04" stop-color="#FFA98C"/>
<stop offset="0.32" stop-color="#FEB892"/>
<stop offset="0.86" stop-color="#FEE0A3"/>
<stop offset="1" stop-color="#FEECA8"/>
</linearGradient>
<linearGradient id="paint52_linear_66_568" x1="42.367" y1="311.73" x2="15.8418" y2="320.836" gradientUnits="userSpaceOnUse">
<stop offset="0.04" stop-color="#FFA98C"/>
<stop offset="0.32" stop-color="#FEB892"/>
<stop offset="0.86" stop-color="#FEE0A3"/>
<stop offset="1" stop-color="#FEECA8"/>
</linearGradient>
<radialGradient id="paint53_radial_66_568" cx="0" cy="0" r="1" gradientUnits="userSpaceOnUse" gradientTransform="translate(59.6182 298.7) rotate(180) scale(77.4529 77.4717)">
<stop stop-color="#FEECA8"/>
<stop offset="1" stop-color="#FFA98C"/>
</radialGradient>
<linearGradient id="paint54_linear_66_568" x1="62.9416" y1="316.209" x2="56.0632" y2="280.011" gradientUnits="userSpaceOnUse">
<stop stop-color="#9C9C9C"/>
<stop offset="0.01" stop-color="#989898"/>
<stop offset="0.26" stop-color="#626262"/>
<stop offset="0.49" stop-color="#383838"/>
<stop offset="0.7" stop-color="#191919"/>
<stop offset="0.88" stop-color="#060606"/>
<stop offset="1"/>
</linearGradient>
<linearGradient id="paint55_linear_66_568" x1="33.6526" y1="328.047" x2="11.4543" y2="328.047" gradientUnits="userSpaceOnUse">
<stop stop-color="#25054D"/>
<stop offset="1" stop-color="#1B2B69"/>
</linearGradient>
<linearGradient id="paint56_linear_66_568" x1="34.0712" y1="328.085" x2="10.9977" y2="328.085" gradientUnits="userSpaceOnUse">
<stop stop-color="#100221"/>
<stop offset="1" stop-color="#10054D"/>
</linearGradient>
<linearGradient id="paint57_linear_66_568" x1="24.304" y1="339.39" x2="21.2963" y2="323.238" gradientUnits="userSpaceOnUse">
<stop offset="0.04" stop-color="#138BBD"/>
<stop offset="0.23" stop-color="#169AC6"/>
<stop offset="0.59" stop-color="#1EC2DF"/>
<stop offset="1" stop-color="#2AF6FF"/>
</linearGradient>
<linearGradient id="paint58_linear_66_568" x1="83.0469" y1="320.865" x2="86.0673" y2="304.714" gradientUnits="userSpaceOnUse">
<stop offset="0.04" stop-color="#138BBD"/>
<stop offset="0.23" stop-color="#169AC6"/>
<stop offset="0.59" stop-color="#1EC2DF"/>
<stop offset="1" stop-color="#2AF6FF"/>
</linearGradient>
<linearGradient id="paint59_linear_66_568" x1="119.148" y1="310.436" x2="62.942" y2="361.237" gradientUnits="userSpaceOnUse">
<stop offset="0.12" stop-color="#45108A"/>
<stop offset="0.35" stop-color="#43148C"/>
<stop offset="0.6" stop-color="#402192"/>
<stop offset="0.87" stop-color="#3A379C"/>
<stop offset="1" stop-color="#3746A3"/>
</linearGradient>
<linearGradient id="paint60_linear_66_568" x1="116.877" y1="307.632" x2="60.6714" y2="358.433" gradientUnits="userSpaceOnUse">
<stop offset="0.12" stop-color="#45108A"/>
<stop offset="0.35" stop-color="#43148C"/>
<stop offset="0.6" stop-color="#402192"/>
<stop offset="0.87" stop-color="#3A379C"/>
<stop offset="1" stop-color="#3746A3"/>
</linearGradient>
<linearGradient id="paint61_linear_66_568" x1="109.685" y1="288.271" x2="119.05" y2="308.493" gradientUnits="userSpaceOnUse">
<stop offset="0.23" stop-color="#45108A"/>
<stop offset="0.43" stop-color="#43178D"/>
<stop offset="0.73" stop-color="#3D2C97"/>
<stop offset="1" stop-color="#3746A3"/>
</linearGradient>
<linearGradient id="paint62_linear_66_568" x1="45.0942" y1="312.986" x2="54.4595" y2="339.046" gradientUnits="userSpaceOnUse">
<stop offset="0.23" stop-color="#45108A"/>
<stop offset="0.43" stop-color="#43178D"/>
<stop offset="0.73" stop-color="#3D2C97"/>
<stop offset="1" stop-color="#3746A3"/>
</linearGradient>
<linearGradient id="paint63_linear_66_568" x1="87.6261" y1="303.166" x2="94.4152" y2="319.583" gradientUnits="userSpaceOnUse">
<stop offset="0.23" stop-color="#45108A"/>
<stop offset="0.43" stop-color="#43178D"/>
<stop offset="0.73" stop-color="#3D2C97"/>
<stop offset="1" stop-color="#3746A3"/>
</linearGradient>
<linearGradient id="paint64_linear_66_568" x1="72.7215" y1="309.497" x2="78.8255" y2="328.224" gradientUnits="userSpaceOnUse">
<stop offset="0.23" stop-color="#45108A"/>
<stop offset="0.43" stop-color="#43178D"/>
<stop offset="0.73" stop-color="#3D2C97"/>
<stop offset="1" stop-color="#3746A3"/>
</linearGradient>
<linearGradient id="paint65_linear_66_568" x1="71.2656" y1="41.4665" x2="51.6017" y2="53.5157" gradientUnits="userSpaceOnUse">
<stop stop-color="white"/>
<stop offset="1" stop-color="#B086CC"/>
</linearGradient>
<linearGradient id="paint66_linear_66_568" x1="71.4941" y1="93.6268" x2="51.8425" y2="106.678" gradientUnits="userSpaceOnUse">
<stop stop-color="white"/>
<stop offset="1" stop-color="#B086CC"/>
</linearGradient>
<linearGradient id="paint67_linear_66_568" x1="71.7116" y1="145.73" x2="52.0471" y2="159.834" gradientUnits="userSpaceOnUse">
<stop stop-color="white"/>
<stop offset="1" stop-color="#B086CC"/>
</linearGradient>
<linearGradient id="paint68_linear_66_568" x1="71.9274" y1="197.801" x2="52.2625" y2="213.022" gradientUnits="userSpaceOnUse">
<stop stop-color="white"/>
<stop offset="1" stop-color="#B086CC"/>
</linearGradient>
<linearGradient id="paint69_linear_66_568" x1="88.8409" y1="102.842" x2="3.4982" y2="-3.34751" gradientUnits="userSpaceOnUse">
<stop offset="0.03" stop-color="#7C1DC9"/>
<stop offset="0.21" stop-color="#6E41D1"/>
<stop offset="0.62" stop-color="#4C9BE8"/>
<stop offset="1" stop-color="#2AF6FF"/>
</linearGradient>
<linearGradient id="paint70_linear_66_568" x1="85.5685" y1="151.5" x2="11.214" y2="58.9603" gradientUnits="userSpaceOnUse">
<stop offset="0.03" stop-color="#7C1DC9"/>
<stop offset="0.21" stop-color="#6E41D1"/>
<stop offset="0.62" stop-color="#4C9BE8"/>
<stop offset="1" stop-color="#2AF6FF"/>
</linearGradient>
<linearGradient id="paint71_linear_66_568" x1="82.3086" y1="200.146" x2="18.9297" y2="121.281" gradientUnits="userSpaceOnUse">
<stop offset="0.03" stop-color="#7C1DC9"/>
<stop offset="0.21" stop-color="#6E41D1"/>
<stop offset="0.62" stop-color="#4C9BE8"/>
<stop offset="1" stop-color="#2AF6FF"/>
</linearGradient>
<linearGradient id="paint72_linear_66_568" x1="79.0252" y1="248.798" x2="26.6345" y2="183.595" gradientUnits="userSpaceOnUse">
<stop offset="0.03" stop-color="#7C1DC9"/>
<stop offset="0.21" stop-color="#6E41D1"/>
<stop offset="0.62" stop-color="#4C9BE8"/>
<stop offset="1" stop-color="#2AF6FF"/>
</linearGradient>
</defs>
</svg>
