<svg width="377" height="340" viewBox="0 0 377 340" fill="none" xmlns="http://www.w3.org/2000/svg">
<g clip-path="url(#clip0_1668_44227)">
<path d="M0.167005 166.453C2.48351 135.111 31.7826 120.179 46.2253 113.404C81.493 96.8762 152.43 87.9972 260.502 133.267C339.512 166.359 359.202 210.481 360.999 243.349C362.405 269.158 361.07 297.308 321.334 323.484C285.251 347.248 216.489 351.906 166.294 292.508C102.129 216.606 -4.73785 232.909 0.167005 166.453Z" fill="url(#paint0_radial_1668_44227)"/>
<path d="M17.7525 151.001C19.6081 137.771 35.2209 125.996 49.2736 120.049C83.5957 105.53 166.198 81.6009 268.018 128.466C342.466 162.729 359.768 205.409 360.336 236.775C360.785 261.402 346.744 284.043 324.643 294.896C287.543 313.115 213.119 335.365 167.167 277.067C108.427 202.536 7.58826 223.486 17.7525 151.001Z" fill="url(#paint1_radial_1668_44227)"/>
<path style="mix-blend-mode:lighten" d="M245.786 304.177C221.357 304.177 196.135 295.735 175.889 270.068C151.731 239.423 117.433 224.645 89.871 212.775C56.8253 198.54 30.7173 187.297 37.0877 156.687C39.4633 145.243 54.887 133.089 68.1833 127.473C102.375 113.014 173.088 94.9015 262.498 136.045C330.362 167.269 345.195 206.426 345.68 233.76C346.082 255.928 333.376 276.606 313.32 286.454C296.159 294.884 271.41 304.165 245.786 304.177ZM152.901 111.938C116.05 111.938 87.0227 120.782 68.6324 128.561C55.4307 134.141 40.4561 146.283 38.2342 156.924C32.0647 186.587 57.7709 197.665 90.332 211.687C118.012 223.616 152.464 238.454 176.811 269.335C217.775 321.296 279.588 301.706 312.8 285.402C332.443 275.755 344.888 255.502 344.498 233.784C344.013 206.781 329.299 168.085 262.002 137.121C221.132 118.311 184.198 111.938 152.901 111.938Z" fill="url(#paint2_linear_1668_44227)"/>
<path opacity="0.7" d="M176.494 303.491L176.34 287.306L345.646 189.259C343.188 185.393 340.363 181.504 337.113 177.602C336.593 176.975 336.061 176.349 335.517 175.722C335.458 175.663 335.411 175.592 335.352 175.533C334.855 174.966 334.347 174.398 333.839 173.831C333.756 173.736 333.674 173.653 333.603 173.559C333.106 173.015 332.598 172.471 332.09 171.915C331.995 171.821 331.901 171.714 331.806 171.62C331.298 171.076 330.766 170.532 330.234 169.988C330.14 169.894 330.057 169.799 329.962 169.716C329.395 169.149 328.828 168.569 328.249 168.002C328.19 167.943 328.13 167.884 328.071 167.825C325.471 165.271 322.67 162.729 319.656 160.187C319.526 160.081 319.385 159.962 319.254 159.856C318.652 159.348 318.049 158.851 317.423 158.343C317.222 158.177 317.021 158.012 316.82 157.858C316.253 157.409 315.685 156.948 315.118 156.498C314.882 156.309 314.645 156.132 314.397 155.943C313.841 155.517 313.286 155.08 312.719 154.654C312.459 154.453 312.199 154.264 311.939 154.063C311.383 153.637 310.804 153.223 310.237 152.798C309.965 152.597 309.693 152.408 309.421 152.207C308.83 151.781 308.239 151.355 307.637 150.942C307.365 150.752 307.105 150.563 306.833 150.374C306.195 149.925 305.545 149.487 304.895 149.038C304.658 148.873 304.422 148.719 304.185 148.553C303.393 148.021 302.578 147.478 301.763 146.946C301.656 146.875 301.562 146.815 301.455 146.745C300.51 146.13 299.552 145.515 298.583 144.9C298.477 144.829 298.37 144.77 298.264 144.699C297.425 144.167 296.574 143.647 295.711 143.115C295.404 142.926 295.097 142.748 294.789 142.559C294.116 142.145 293.43 141.744 292.733 141.33C292.366 141.117 291.988 140.892 291.61 140.679C290.972 140.313 290.334 139.935 289.684 139.568C289.27 139.332 288.856 139.095 288.443 138.871C287.816 138.516 287.178 138.161 286.54 137.818C286.102 137.582 285.665 137.334 285.228 137.097C284.59 136.754 283.951 136.411 283.313 136.069C282.864 135.832 282.403 135.584 281.942 135.347C281.292 135.005 280.63 134.662 279.968 134.319C279.507 134.082 279.047 133.846 278.586 133.609C277.9 133.255 277.191 132.912 276.494 132.557C276.045 132.333 275.607 132.108 275.146 131.883C274.366 131.493 273.563 131.115 272.771 130.725C272.392 130.536 272.014 130.358 271.624 130.169C270.431 129.602 269.225 129.034 268.008 128.478C266.412 127.745 264.828 127.036 263.245 126.338C262.772 126.126 262.299 125.936 261.826 125.724C260.704 125.239 259.593 124.754 258.47 124.281C257.95 124.068 257.442 123.856 256.922 123.643C255.846 123.194 254.77 122.744 253.695 122.319C253.199 122.118 252.702 121.917 252.206 121.728C251.107 121.29 250.019 120.864 248.92 120.439C248.459 120.261 248.01 120.096 247.549 119.919C246.403 119.481 245.256 119.056 244.11 118.63C243.72 118.488 243.33 118.346 242.94 118.204C241.711 117.755 240.481 117.318 239.252 116.904C238.957 116.797 238.649 116.691 238.354 116.596C237.007 116.135 235.671 115.686 234.336 115.249C234.158 115.19 233.969 115.13 233.792 115.071C232.279 114.575 230.766 114.09 229.253 113.629C229.253 113.629 229.253 113.629 229.242 113.629L44.5 220.602C56.2362 225.733 69.5325 230.639 83.3606 236.432C83.727 236.586 84.0816 236.74 84.448 236.893C85.2044 237.213 85.9726 237.544 86.729 237.863C87.2254 238.076 87.7218 238.288 88.2182 238.501C88.9273 238.809 89.6365 239.116 90.3456 239.423C90.9011 239.672 91.4566 239.908 92.0121 240.156C92.6976 240.452 93.3712 240.759 94.0567 241.067C94.6477 241.339 95.2386 241.599 95.8296 241.871C96.4914 242.166 97.1533 242.474 97.8152 242.781C98.4416 243.077 99.068 243.372 99.6944 243.668C100.321 243.963 100.959 244.259 101.585 244.566C102.283 244.897 102.98 245.24 103.677 245.583C104.245 245.867 104.812 246.139 105.379 246.423C106.597 247.037 107.826 247.652 109.043 248.291C109.504 248.527 109.953 248.775 110.414 249.012C111.23 249.437 112.033 249.863 112.849 250.3C113.393 250.596 113.924 250.892 114.456 251.187C115.189 251.589 115.91 251.991 116.643 252.393C117.198 252.712 117.766 253.031 118.321 253.351C119.03 253.753 119.727 254.167 120.437 254.58C121.004 254.911 121.559 255.254 122.127 255.585C122.836 256.011 123.533 256.436 124.242 256.874C124.798 257.217 125.353 257.56 125.897 257.902C126.618 258.352 127.339 258.813 128.06 259.286C128.592 259.629 129.123 259.971 129.644 260.314C130.412 260.823 131.168 261.343 131.936 261.851C132.409 262.171 132.894 262.49 133.366 262.821C134.3 263.471 135.234 264.133 136.168 264.807C136.463 265.02 136.759 265.221 137.054 265.434C138.271 266.32 139.477 267.231 140.671 268.153C141.037 268.437 141.392 268.72 141.758 269.004C142.597 269.666 143.448 270.328 144.287 271.014C144.748 271.38 145.197 271.771 145.646 272.137C146.391 272.752 147.124 273.367 147.856 273.993C148.341 274.407 148.814 274.833 149.298 275.247C149.996 275.861 150.705 276.488 151.39 277.115C151.875 277.552 152.359 278.001 152.832 278.439C153.518 279.077 154.203 279.727 154.889 280.389C155.361 280.839 155.834 281.3 156.295 281.761C156.993 282.447 157.678 283.144 158.375 283.854C158.813 284.303 159.262 284.752 159.699 285.201C160.444 285.982 161.188 286.786 161.933 287.601C162.299 288.003 162.666 288.393 163.032 288.795C164.131 290.013 165.218 291.255 166.282 292.52C169.603 296.457 173.019 300.098 176.494 303.491Z" fill="#0F054C"/>
<path d="M0.390725 217.339L0.426182 225.579H0.44982C0.473458 226.194 0.851663 226.785 1.61989 227.223L119.076 294.873C120.837 295.889 123.922 295.759 125.967 294.577L375.322 150.173C376.445 149.523 376.989 148.695 376.989 147.903H377.013L376.977 139.687L363.976 146.863L258.362 86.0347C256.601 85.0179 253.517 85.148 251.472 86.3302L12.6942 224.61C13.3088 223.936 13.7461 223.439 13.7461 223.404C13.7461 223.286 0.378906 217.339 0.378906 217.339H0.390725Z" fill="url(#paint3_linear_1668_44227)"/>
<path d="M125.069 295.002L125.022 261.532L119.656 258.446L119.704 295.168C121.228 295.747 123.344 295.676 125.057 295.002H125.069Z" fill="url(#paint4_linear_1668_44227)"/>
<path d="M258.314 70.4048L375.77 138.055C377.531 139.072 377.318 140.857 375.286 142.027L125.93 286.443C123.897 287.625 120.812 287.755 119.039 286.738L1.58304 219.088C-0.177979 218.072 0.0347619 216.286 2.06762 215.116L251.423 70.7004C253.456 69.5181 256.541 69.388 258.314 70.4048Z" fill="url(#paint5_linear_1668_44227)"/>
<path d="M119.039 286.738L1.58251 219.088C0.530625 218.485 0.199695 217.61 0.518806 216.747C0.648815 217.244 1.0152 217.705 1.6416 218.071L119.098 285.721C120.859 286.738 123.944 286.608 125.988 285.426L375.344 141.022C376.171 140.549 376.68 139.97 376.892 139.379C377.129 140.277 376.585 141.282 375.273 142.039L125.929 286.443C123.897 287.625 120.812 287.755 119.039 286.738Z" fill="white"/>
<path d="M238.778 78.0303L362.628 149.357L138.577 279.124L14.7148 207.785L238.778 78.0303Z" fill="#24126A"/>
<path d="M238.778 78.0303L362.628 149.357L138.577 279.124L14.7148 207.785L238.778 78.0303Z" fill="#24126A"/>
<path style="mix-blend-mode:lighten" opacity="0.5" d="M238.778 78.0303L362.628 149.357L138.577 279.124L14.7148 207.785L238.778 78.0303Z" fill="url(#paint6_radial_1668_44227)"/>
<path d="M61.0679 241.327L83.512 254.214C84.1621 254.592 84.5403 255.018 84.1266 255.538C83.9848 255.715 83.7957 255.881 83.5357 256.023C82.5311 256.602 81.0064 256.673 80.1318 256.165L57.4868 243.124C57.4158 243.089 57.3213 243.065 57.2977 242.994C57.1086 242.273 57.1677 242.107 58.1013 241.564L58.4086 241.504C59.4132 240.925 60.1815 240.819 61.0561 241.327H61.0679Z" fill="#5761D7"/>
<path d="M57.3119 242.994C57.4538 242.817 57.6429 242.651 57.9029 242.509C58.9075 241.93 60.4321 241.859 61.3067 242.367L83.9518 255.408C84.0227 255.443 84.07 255.491 84.1291 255.538C84.5427 255.018 84.4364 254.427 83.7863 254.048L61.1413 241.008C60.2667 240.499 58.742 240.57 57.7374 241.15C56.8155 241.682 56.6501 242.474 57.3119 242.982V242.994Z" fill="#BCBEFF"/>
<path opacity="0.2" d="M90.4764 199.344L82.3568 194.651C81.0686 193.906 81.0686 192.7 82.3568 191.955C83.6451 191.21 85.737 191.21 87.0253 191.955L95.1449 196.649C96.4332 197.394 96.4332 198.6 95.1449 199.344C93.8566 200.089 91.7647 200.089 90.4764 199.344Z" fill="#42E8E0"/>
<path opacity="0.6" d="M107.281 209.051L99.1615 204.357C97.8732 203.612 97.8732 202.406 99.1615 201.662C100.45 200.917 102.542 200.917 103.83 201.662L111.95 206.355C113.238 207.1 113.238 208.306 111.95 209.051C110.661 209.796 108.569 209.796 107.281 209.051Z" fill="#42E8E0"/>
<path d="M124.09 218.757L115.97 214.064C114.682 213.319 114.682 212.113 115.97 211.368C117.258 210.623 119.35 210.623 120.639 211.368L128.758 216.062C130.046 216.807 130.046 218.013 128.758 218.757C127.47 219.502 125.378 219.502 124.09 218.757Z" fill="#42E8E0"/>
<path opacity="0.6" d="M140.894 228.464L132.775 223.77C131.487 223.026 131.487 221.82 132.775 221.075C134.063 220.33 136.155 220.33 137.443 221.075L145.563 225.768C146.851 226.513 146.851 227.719 145.563 228.464C144.275 229.209 142.183 229.209 140.894 228.464Z" fill="#42E8E0"/>
<path opacity="0.2" d="M157.703 238.171L149.583 233.477C148.295 232.732 148.295 231.526 149.583 230.781C150.872 230.036 152.964 230.036 154.252 230.781L162.371 235.475C163.66 236.22 163.66 237.426 162.371 238.171C161.083 238.915 158.991 238.915 157.703 238.171Z" fill="#42E8E0"/>
<path opacity="0.2" d="M185.155 217.942C222.968 217.942 253.622 200.236 253.622 178.394C253.622 156.553 222.968 138.847 185.155 138.847C147.341 138.847 116.688 156.553 116.688 178.394C116.688 200.236 147.341 217.942 185.155 217.942Z" fill="#42E8E0"/>
<path d="M185.153 200.834C206.609 200.834 224.002 190.787 224.002 178.394C224.002 166.001 206.609 155.955 185.153 155.955C163.698 155.955 146.305 166.001 146.305 178.394C146.305 190.787 163.698 200.834 185.153 200.834Z" fill="#42E8E0"/>
<g opacity="0.3">
<path d="M273.184 38.4832C274.035 43.2951 277.604 55.4016 292.331 63.7722C313.298 73.455 327.823 86.1882 332.681 100.399C333.023 101.333 333.496 102.575 333.945 103.461C334.292 102.886 334.465 101.905 334.465 100.517V76.6472C334.465 62.6372 333.673 59.5396 332.681 55.6381C327.811 41.4271 313.298 28.6939 292.331 19.0111C275.607 13.608 271.553 29.2969 273.184 38.495V38.4832Z" fill="#42E8E0"/>
<path d="M119.442 9.84847C141.638 3.40505 167.9 -0.224554 195.922 7.93617e-05C199.622 0.0355478 203.286 0.13013 206.902 0.283827C231.509 2.53016 240.267 28.5285 225.422 39.902C218.615 45.1277 210.401 45.0686 206.902 45.0449C203.286 44.8794 199.622 44.7848 195.922 44.7612C167.9 44.5366 141.638 48.1543 119.442 54.5978C97.0334 60.0599 95.7097 37.2774 103.546 23.3383C106.181 18.6565 111.074 12.5086 119.442 9.83665V9.84847Z" fill="#42E8E0"/>
<path d="M52.4531 111.004C53.0677 103.911 53.5523 98.3065 60.7736 88.5291C75.9964 66.0539 72.9235 39.9374 64.5084 41.1433C63.1493 41.3325 61.7428 42.7985 60.7736 43.7561C55.6679 50.4242 52.7604 57.577 52.4768 65.0608C52.4649 65.451 52.4531 65.8529 52.4531 66.2431V111.004Z" fill="#42E8E0"/>
</g>
<path d="M235.303 116.504L230.461 118.465L247.208 159.845L252.05 157.884L235.303 116.504Z" fill="#42E8E0"/>
<path d="M143.208 113.499C152.183 113.499 159.459 106.221 159.459 97.2427C159.459 88.2645 152.183 80.9863 143.208 80.9863C134.233 80.9863 126.957 88.2645 126.957 97.2427C126.957 106.221 134.233 113.499 143.208 113.499Z" fill="url(#paint7_radial_1668_44227)"/>
<path d="M227.098 121.278C227.098 152.822 208.317 178.394 185.152 178.394C161.987 178.394 143.207 152.822 143.207 121.278C143.207 89.7351 161.987 80.2769 185.152 80.2769C208.317 80.2769 227.098 89.7351 227.098 121.278Z" fill="url(#paint8_radial_1668_44227)"/>
<g style="mix-blend-mode:lighten">
<path d="M227.098 121.278C227.098 152.822 208.317 178.394 185.152 178.394C161.987 178.394 143.207 152.822 143.207 121.278C143.207 89.7351 161.987 80.2769 185.152 80.2769C208.317 80.2769 227.098 89.7351 227.098 121.278Z" fill="url(#paint9_linear_1668_44227)"/>
</g>
<path d="M185.153 113.771C200.962 113.771 213.778 106.371 213.778 97.2426C213.778 88.1143 200.962 80.7144 185.153 80.7144C169.343 80.7144 156.527 88.1143 156.527 97.2426C156.527 106.371 169.343 113.771 185.153 113.771Z" fill="#393091"/>
<path d="M164.918 89.9597C176.099 83.5045 194.218 83.5045 205.398 89.9597C210.019 92.6317 212.726 95.9775 213.53 99.4534C214.676 94.5233 211.97 89.3449 205.398 85.5617C194.218 79.1064 176.099 79.1064 164.918 85.5617C158.359 89.3568 155.652 94.5233 156.799 99.4534C157.602 95.9775 160.309 92.6317 164.918 89.9597Z" fill="#453C9E"/>
<path d="M152.108 57.9556L157.285 49.0294C160.334 45.8727 162.769 41.6756 163.998 37.4548L169.245 28.4104L161.705 24.0833C161.469 23.9177 161.209 23.7759 160.949 23.6458C158.809 22.6291 155.949 22.901 152.829 24.7099C146.163 28.5641 140.75 37.9278 140.75 45.6244C140.75 49.4786 142.097 52.1742 144.284 53.4393L152.108 57.9556Z" fill="url(#paint10_radial_1668_44227)"/>
<path d="M172.674 36.1543C172.674 43.851 167.272 53.2264 160.595 57.0689C153.929 60.9231 148.516 57.8019 148.516 50.0934C148.516 42.3849 153.917 33.0213 160.595 29.1789C167.26 25.3246 172.674 28.4459 172.674 36.1543Z" fill="#BCBEFF"/>
<path d="M186.82 100.577C210.449 100.577 229.604 81.415 229.604 57.778C229.604 34.141 210.449 14.9795 186.82 14.9795C163.19 14.9795 144.035 34.141 144.035 57.778C144.035 81.415 163.19 100.577 186.82 100.577Z" fill="url(#paint11_radial_1668_44227)"/>
<g style="mix-blend-mode:lighten">
<path d="M186.82 100.577C210.449 100.577 229.604 81.415 229.604 57.778C229.604 34.141 210.449 14.9795 186.82 14.9795C163.19 14.9795 144.035 34.141 144.035 57.778C144.035 81.415 163.19 100.577 186.82 100.577Z" fill="url(#paint12_linear_1668_44227)"/>
</g>
<path d="M210.764 86.7202L215.941 77.794C218.99 74.6373 221.425 70.4402 222.654 66.2195L227.902 57.1751L220.361 52.8479C220.125 52.6824 219.865 52.5405 219.605 52.4105C217.466 51.3937 214.605 51.6656 211.485 53.4745C204.819 57.3288 199.406 66.6924 199.406 74.389C199.406 78.2433 200.754 80.9389 202.94 82.2039L210.764 86.7202Z" fill="url(#paint13_radial_1668_44227)"/>
<path style="mix-blend-mode:lighten" d="M210.764 86.7202L215.941 77.794C218.99 74.6373 221.425 70.4402 222.654 66.2195L227.902 57.1751L220.361 52.8479C220.125 52.6824 219.865 52.5405 219.605 52.4105C217.466 51.3937 214.605 51.6656 211.485 53.4745C204.819 57.3288 199.406 66.6924 199.406 74.389C199.406 78.2433 200.754 80.9389 202.94 82.2039L210.764 86.7202Z" fill="url(#paint14_linear_1668_44227)"/>
<path d="M231.318 64.919C231.318 72.6156 225.917 81.9911 219.239 85.8335C212.573 89.6877 207.16 86.5665 207.16 78.8581C207.16 71.1496 212.561 61.7859 219.239 57.9435C225.905 54.0893 231.318 57.2105 231.318 64.919Z" fill="#BCBEFF"/>
<path d="M207.716 78.9646C207.716 71.268 213.117 61.8925 219.795 58.0501C222.099 56.7141 224.262 56.2175 226.094 56.4658C224.144 56.0402 221.78 56.4895 219.239 57.9555C212.573 61.8097 207.16 71.1734 207.16 78.87C207.16 83.9065 209.465 86.9804 212.928 87.4297C209.772 86.7322 207.716 83.7292 207.716 78.9646Z" fill="white"/>
<path d="M227.869 66.9052C227.869 72.4146 224.004 79.1063 219.241 81.861C214.478 84.6157 210.613 82.3812 210.613 76.8718C210.613 71.3624 214.478 64.6707 219.241 61.916C224.004 59.1612 227.869 61.3958 227.869 66.9052Z" fill="#393091"/>
<path d="M224.205 60.8756C225.103 61.9278 225.623 63.5003 225.623 65.522C225.623 71.0314 221.758 77.7231 216.995 80.4778C215.151 81.5418 213.438 81.8611 212.031 81.53C213.58 83.3507 216.227 83.6108 219.253 81.8611C224.016 79.1063 227.88 72.4146 227.88 66.9052C227.88 63.5357 226.427 61.3958 224.205 60.8638V60.8756Z" fill="#453C9E"/>
<path d="M168.493 86.0909C174.031 83.7849 175.283 74.1357 171.29 64.5389C167.296 54.9421 159.569 49.0317 154.031 51.3378C148.493 53.6438 147.241 63.2929 151.235 72.8897C155.228 82.4866 162.955 88.3969 168.493 86.0909Z" fill="#393091"/>
<path d="M167.908 70.7594C167.507 73.8215 165.202 74.7791 162.755 72.8993C160.309 71.0195 158.642 67.0234 159.044 63.9731C159.446 60.911 161.751 59.9533 164.197 61.8332C166.644 63.7012 168.31 67.7091 167.908 70.7594Z" fill="#42E8E0"/>
<path d="M162.532 82.7241C155.795 77.5693 151.209 66.5741 152.308 58.1563C152.758 54.7277 154.069 52.2567 155.937 50.8853C152.415 51.2163 149.744 54.2075 149.07 59.3858C147.983 67.8037 152.557 78.7989 159.293 83.9536C163.288 87.0039 167.141 87.3231 169.848 85.3251C167.649 85.5261 165.12 84.7103 162.532 82.7241Z" fill="#453C9E"/>
<path d="M159.873 83.682C153.136 78.5273 148.55 67.5321 149.649 59.1143C150.157 55.2127 151.788 52.5644 154.069 51.3467C151.493 52.4107 149.626 55.1773 149.07 59.3862C147.983 67.804 152.557 78.7992 159.293 83.954C162.91 86.7205 166.408 87.2289 169.056 85.822C166.491 86.8742 163.229 86.2476 159.873 83.682Z" fill="#42E8E0"/>
<path d="M248.823 120.652C247.086 129.46 238.529 135.182 229.735 133.432C220.93 131.694 215.21 123.135 216.959 114.338C218.697 105.53 227.253 99.8081 236.047 101.558C244.852 103.296 250.572 111.856 248.823 120.652Z" fill="url(#paint15_radial_1668_44227)"/>
<g style="mix-blend-mode:lighten">
<path d="M248.823 120.652C247.086 129.46 238.529 135.182 229.735 133.432C220.93 131.694 215.21 123.135 216.959 114.338C218.697 105.53 227.253 99.8081 236.047 101.558C244.852 103.296 250.572 111.856 248.823 120.652Z" fill="url(#paint16_linear_1668_44227)"/>
</g>
<path d="M258.799 171.348C257.877 179.068 251.058 193.693 244.888 192.96C238.719 192.227 235.528 176.408 236.45 168.676C237.371 160.955 243.115 155.292 249.285 156.025C255.454 156.758 259.709 163.616 258.787 171.336L258.799 171.348Z" fill="url(#paint17_radial_1668_44227)"/>
<path style="mix-blend-mode:lighten" d="M258.799 171.348C257.877 179.068 251.058 193.693 244.888 192.96C238.719 192.227 235.528 176.408 236.45 168.676C237.371 160.955 243.115 155.292 249.285 156.025C255.454 156.758 259.709 163.616 258.787 171.336L258.799 171.348Z" fill="url(#paint18_linear_1668_44227)"/>
<path d="M100.223 121.657C99.2774 121.657 98.3674 121.148 97.9064 120.25C97.2327 118.973 97.7291 117.389 99.0056 116.715L132.548 99.158C133.824 98.4841 135.408 98.9806 136.082 100.258C136.755 101.534 136.259 103.119 134.982 103.793L101.44 121.349C101.05 121.55 100.637 121.645 100.235 121.645L100.223 121.657Z" fill="#42E8E0"/>
<path d="M100.815 131.41C93.9954 135.146 78.1344 138.102 75.1443 132.652C72.1541 127.202 83.1693 115.414 89.9888 111.678C96.8083 107.942 104.751 109.325 107.741 114.776C110.731 120.226 107.623 127.674 100.803 131.41H100.815Z" fill="url(#paint19_radial_1668_44227)"/>
<path style="mix-blend-mode:lighten" d="M100.815 131.41C93.9954 135.146 78.1344 138.102 75.1443 132.652C72.1541 127.202 83.1693 115.414 89.9888 111.678C96.8083 107.942 104.751 109.325 107.741 114.776C110.731 120.226 107.623 127.674 100.803 131.41H100.815Z" fill="url(#paint20_linear_1668_44227)"/>
<g opacity="0.5">
<path d="M68.846 124.128C67.8295 132.344 63.5629 137.239 59.0835 131.115C53.3395 123.265 52.7841 115.592 52.4531 111.004V66.2432C52.4531 73.2423 54.7815 80.0049 59.0835 86.3537C68.5505 102.019 69.6733 117.471 68.846 124.128Z" fill="#42E8E0"/>
<path d="M201.701 132.333C198.167 132.427 194.598 132.463 191.005 132.427C162.864 132.191 136.803 128.112 115.045 121.267C93.3096 115.462 91.9977 138.209 99.5854 152.254C104.987 162.256 112.291 164.999 115.045 166.028C136.803 172.873 162.864 176.964 191.005 177.189C194.598 177.212 198.167 177.189 201.701 177.094C227.23 175.214 233.919 150.682 221.982 139.226C218.649 136.033 212.433 132.238 201.701 132.321V132.333Z" fill="#42E8E0"/>
<path d="M334.454 96.6394C334.336 115.993 333.189 119.517 331.759 123.986C325.779 138.102 310.272 150.575 288.561 159.891C269.556 165.507 264.309 145.739 272.038 131.091C277.298 121.124 285.488 116.762 288.561 115.13C310.272 105.814 325.779 93.3408 331.759 79.2244C332.196 78.2904 332.811 77.049 333.402 76.1978C333.544 76.1741 333.745 76.1505 333.887 76.1387C334.253 77.1791 334.407 77.6047 334.454 82.8895V96.663V96.6394Z" fill="#42E8E0"/>
</g>
<path d="M316.974 253.469C319.578 253.469 321.689 251.357 321.689 248.752C321.689 246.147 319.578 244.035 316.974 244.035C314.369 244.035 312.258 246.147 312.258 248.752C312.258 251.357 314.369 253.469 316.974 253.469Z" fill="#42E8E0"/>
<path opacity="0.5" d="M244.675 48.7219C245.876 48.7219 246.849 47.7479 246.849 46.5465C246.849 45.3451 245.876 44.3711 244.675 44.3711C243.474 44.3711 242.5 45.3451 242.5 46.5465C242.5 47.7479 243.474 48.7219 244.675 48.7219Z" fill="#42E8E0"/>
<path opacity="0.5" d="M86.0067 158.142C87.2078 158.142 88.1814 157.168 88.1814 155.966C88.1814 154.765 87.2078 153.791 86.0067 153.791C84.8057 153.791 83.832 154.765 83.832 155.966C83.832 157.168 84.8057 158.142 86.0067 158.142Z" fill="#42E8E0"/>
<path opacity="0.8" d="M130.765 69.719C130.765 70.3456 130.257 70.854 129.631 70.854C129.004 70.854 128.496 70.3456 128.496 69.719C128.496 69.0924 129.004 68.584 129.631 68.584C130.257 68.584 130.765 69.0924 130.765 69.719Z" fill="#42E8E0"/>
</g>
<defs>
<radialGradient id="paint0_radial_1668_44227" cx="0" cy="0" r="1" gradientUnits="userSpaceOnUse" gradientTransform="translate(307.73 325.51) rotate(-2.09068) scale(230.273 230.348)">
<stop stop-color="#42E8E0"/>
<stop offset="1" stop-color="#180D5B"/>
</radialGradient>
<radialGradient id="paint1_radial_1668_44227" cx="0" cy="0" r="1" gradientUnits="userSpaceOnUse" gradientTransform="translate(239.629 115.154) scale(210.944 211.013)">
<stop stop-color="#2B237C"/>
<stop offset="1" stop-color="#180D5B"/>
</radialGradient>
<linearGradient id="paint2_linear_1668_44227" x1="36.1186" y1="207.466" x2="345.68" y2="207.466" gradientUnits="userSpaceOnUse">
<stop stop-color="#180D5B"/>
<stop offset="0.1" stop-color="#191761"/>
<stop offset="0.26" stop-color="#1F3372"/>
<stop offset="0.48" stop-color="#28608D"/>
<stop offset="0.73" stop-color="#349FB3"/>
<stop offset="1" stop-color="#42E8E0"/>
</linearGradient>
<linearGradient id="paint3_linear_1668_44227" x1="146.301" y1="-241.979" x2="195.729" y2="254.091" gradientUnits="userSpaceOnUse">
<stop stop-color="#5761D7"/>
<stop offset="0.18" stop-color="#5B65D8"/>
<stop offset="0.39" stop-color="#6A72DE"/>
<stop offset="0.61" stop-color="#8188E8"/>
<stop offset="0.85" stop-color="#A2A6F5"/>
<stop offset="1" stop-color="#BCBEFF"/>
</linearGradient>
<linearGradient id="paint4_linear_1668_44227" x1="130.873" y1="271.515" x2="112.315" y2="282.256" gradientUnits="userSpaceOnUse">
<stop stop-color="#C0BFF6"/>
<stop offset="0.29" stop-color="#C4C3F6"/>
<stop offset="0.64" stop-color="#D2D2F9"/>
<stop offset="1" stop-color="#E9E9FD"/>
</linearGradient>
<linearGradient id="paint5_linear_1668_44227" x1="-2272.86" y1="-1387.49" x2="-2401.12" y2="-1164.78" gradientUnits="userSpaceOnUse">
<stop stop-color="#C0BFF6"/>
<stop offset="0.29" stop-color="#C4C3F6"/>
<stop offset="0.64" stop-color="#D2D2F9"/>
<stop offset="1" stop-color="#E9E9FD"/>
</linearGradient>
<radialGradient id="paint6_radial_1668_44227" cx="0" cy="0" r="1" gradientUnits="userSpaceOnUse" gradientTransform="translate(185.498 145.465) scale(167.06 91.9134)">
<stop stop-color="#42E8E0"/>
<stop offset="0.12" stop-color="#39BDC0"/>
<stop offset="0.28" stop-color="#2E899A"/>
<stop offset="0.45" stop-color="#255E7A"/>
<stop offset="0.6" stop-color="#1E3D61"/>
<stop offset="0.75" stop-color="#192550"/>
<stop offset="0.88" stop-color="#171645"/>
<stop offset="1" stop-color="#161242"/>
</radialGradient>
<radialGradient id="paint7_radial_1668_44227" cx="0" cy="0" r="1" gradientUnits="userSpaceOnUse" gradientTransform="translate(220.942 45.3339) rotate(11.2036) scale(93.7725 93.8009)">
<stop stop-color="#C0BFF6"/>
<stop offset="1" stop-color="#393091"/>
</radialGradient>
<radialGradient id="paint8_radial_1668_44227" cx="0" cy="0" r="1" gradientUnits="userSpaceOnUse" gradientTransform="translate(212.096 112.917) scale(72.2566 98.2271)">
<stop stop-color="#C0BFF6"/>
<stop offset="1" stop-color="#393091"/>
</radialGradient>
<linearGradient id="paint9_linear_1668_44227" x1="187.289" y1="178.635" x2="187.289" y2="80.4457" gradientUnits="userSpaceOnUse">
<stop stop-color="#41E6DF"/>
<stop offset="0.14" stop-color="#3FB6CA"/>
<stop offset="0.27" stop-color="#3D8CB8"/>
<stop offset="0.41" stop-color="#3B6BAA"/>
<stop offset="0.55" stop-color="#3A519F"/>
<stop offset="0.69" stop-color="#393E97"/>
<stop offset="0.84" stop-color="#393392"/>
<stop offset="1" stop-color="#393091"/>
</linearGradient>
<radialGradient id="paint10_radial_1668_44227" cx="0" cy="0" r="1" gradientUnits="userSpaceOnUse" gradientTransform="translate(142.925 -8.64224) scale(50.7623 50.7789)">
<stop stop-color="#C0BFF6"/>
<stop offset="1" stop-color="#393091"/>
</radialGradient>
<radialGradient id="paint11_radial_1668_44227" cx="0" cy="0" r="1" gradientUnits="userSpaceOnUse" gradientTransform="translate(213.519 51.441) scale(72.3082 72.3319)">
<stop stop-color="#C0BFF6"/>
<stop offset="1" stop-color="#393091"/>
</radialGradient>
<linearGradient id="paint12_linear_1668_44227" x1="180.863" y1="100.163" x2="192.784" y2="15.3944" gradientUnits="userSpaceOnUse">
<stop stop-color="#41E6DF"/>
<stop offset="0.14" stop-color="#3FB6CA"/>
<stop offset="0.27" stop-color="#3D8CB8"/>
<stop offset="0.41" stop-color="#3B6BAA"/>
<stop offset="0.55" stop-color="#3A519F"/>
<stop offset="0.69" stop-color="#393E97"/>
<stop offset="0.84" stop-color="#393392"/>
<stop offset="1" stop-color="#393091"/>
</linearGradient>
<radialGradient id="paint13_radial_1668_44227" cx="0" cy="0" r="1" gradientUnits="userSpaceOnUse" gradientTransform="translate(212.939 50.6725) scale(34.334 34.3452)">
<stop stop-color="#C0BFF6"/>
<stop offset="1" stop-color="#393091"/>
</radialGradient>
<linearGradient id="paint14_linear_1668_44227" x1="206.025" y1="84.9941" x2="218.099" y2="51.8337" gradientUnits="userSpaceOnUse">
<stop stop-color="#41E6DF"/>
<stop offset="0.14" stop-color="#3FB6CA"/>
<stop offset="0.27" stop-color="#3D8CB8"/>
<stop offset="0.41" stop-color="#3B6BAA"/>
<stop offset="0.55" stop-color="#3A519F"/>
<stop offset="0.69" stop-color="#393E97"/>
<stop offset="0.84" stop-color="#393392"/>
<stop offset="1" stop-color="#393091"/>
</linearGradient>
<radialGradient id="paint15_radial_1668_44227" cx="0" cy="0" r="1" gradientUnits="userSpaceOnUse" gradientTransform="translate(242.539 106.908) rotate(11.2036) scale(33.8971 33.9074)">
<stop stop-color="#C0BFF6"/>
<stop offset="1" stop-color="#393091"/>
</radialGradient>
<linearGradient id="paint16_linear_1668_44227" x1="219.767" y1="127.057" x2="246.06" y2="107.962" gradientUnits="userSpaceOnUse">
<stop stop-color="#41E6DF"/>
<stop offset="0.14" stop-color="#3FB6CA"/>
<stop offset="0.27" stop-color="#3D8CB8"/>
<stop offset="0.41" stop-color="#3B6BAA"/>
<stop offset="0.55" stop-color="#3A519F"/>
<stop offset="0.69" stop-color="#393E97"/>
<stop offset="0.84" stop-color="#393392"/>
<stop offset="1" stop-color="#393091"/>
</linearGradient>
<radialGradient id="paint17_radial_1668_44227" cx="0" cy="0" r="1" gradientUnits="userSpaceOnUse" gradientTransform="translate(263.153 162.417) rotate(6.80221) scale(28.8908 47.4337)">
<stop stop-color="#C0BFF6"/>
<stop offset="1" stop-color="#393091"/>
</radialGradient>
<linearGradient id="paint18_linear_1668_44227" x1="236.224" y1="173.531" x2="258.617" y2="176.201" gradientUnits="userSpaceOnUse">
<stop stop-color="#41E6DF"/>
<stop offset="0.14" stop-color="#3FB6CA"/>
<stop offset="0.27" stop-color="#3D8CB8"/>
<stop offset="0.41" stop-color="#3B6BAA"/>
<stop offset="0.55" stop-color="#3A519F"/>
<stop offset="0.69" stop-color="#393E97"/>
<stop offset="0.84" stop-color="#393392"/>
<stop offset="1" stop-color="#393091"/>
</linearGradient>
<radialGradient id="paint19_radial_1668_44227" cx="0" cy="0" r="1" gradientUnits="userSpaceOnUse" gradientTransform="translate(111.267 108.679) rotate(61.2779) scale(28.8979 47.4219)">
<stop stop-color="#C0BFF6"/>
<stop offset="1" stop-color="#393091"/>
</radialGradient>
<linearGradient id="paint20_linear_1668_44227" x1="104.999" y1="114.483" x2="80.0786" y2="108.095" gradientUnits="userSpaceOnUse">
<stop stop-color="#41E6DF"/>
<stop offset="0.14" stop-color="#3FB6CA"/>
<stop offset="0.27" stop-color="#3D8CB8"/>
<stop offset="0.41" stop-color="#3B6BAA"/>
<stop offset="0.55" stop-color="#3A519F"/>
<stop offset="0.69" stop-color="#393E97"/>
<stop offset="0.84" stop-color="#393392"/>
<stop offset="1" stop-color="#393091"/>
</linearGradient>
<clipPath id="clip0_1668_44227">
<rect width="377" height="340" fill="white"/>
</clipPath>
</defs>
</svg>
