<svg width="376" height="281" viewBox="0 0 376 281" fill="none" xmlns="http://www.w3.org/2000/svg">
<g clip-path="url(#clip0_1668_28764)">
<path d="M314.49 138.17C317.681 65.3842 256.577 3.58743 178.011 0.14344C99.4456 -3.30055 33.169 52.9124 29.9783 125.699C26.7877 198.485 87.8913 260.282 166.457 263.726C245.023 267.17 311.299 210.957 314.49 138.17Z" fill="url(#paint0_linear_1668_28764)"/>
<path opacity="0.26" d="M164.538 227.98C226.247 227.98 276.272 180.723 276.272 122.428C276.272 64.1336 226.247 16.8765 164.538 16.8765C102.829 16.8765 52.8047 64.1336 52.8047 122.428C52.8047 180.723 102.829 227.98 164.538 227.98Z" fill="url(#paint1_linear_1668_28764)"/>
<g opacity="0.68">
<g style="mix-blend-mode:soft-light">
<path d="M208.62 132.582C208.587 155.848 206.991 179.162 202.89 202.099C201.852 207.829 200.649 213.531 199.215 219.179C197.776 224.825 196.117 230.421 194.084 235.894C192.035 241.351 189.655 246.73 186.428 251.647C184.802 254.086 182.958 256.425 180.681 258.349C179.544 259.305 178.294 260.152 176.92 260.774C175.548 261.39 174.049 261.782 172.528 261.808C171.009 261.853 169.488 261.554 168.09 260.992C166.686 260.434 165.406 259.626 164.241 258.702C161.912 256.839 160.026 254.527 158.371 252.106C155.088 247.225 152.676 241.857 150.604 236.407C148.546 230.944 146.869 225.352 145.417 219.709C143.969 214.065 142.754 208.365 141.707 202.638C139.618 191.18 138.194 179.612 137.233 168.013C136.279 156.411 135.799 144.772 135.741 133.132C135.713 127.313 135.872 121.495 136.079 115.679C136.298 109.865 136.617 104.053 137.046 98.2496C137.907 86.6438 139.193 75.066 141.104 63.5815C142.063 57.8402 143.181 52.125 144.525 46.4583C145.873 40.7936 147.441 35.1754 149.384 29.6786C150.36 26.933 151.429 24.2154 152.646 21.5631C153.863 18.9109 155.224 16.3165 156.823 13.8639C158.427 11.4225 160.271 9.09128 162.565 7.22479C163.713 6.30088 164.976 5.49456 166.361 4.94955C167.741 4.39707 169.237 4.11709 170.727 4.17495C172.216 4.21788 173.685 4.58931 175.04 5.18472C176.397 5.78387 177.644 6.59952 178.788 7.52343C181.078 9.38432 182.973 11.6596 184.655 14.0487C187.998 18.8605 190.517 24.165 192.699 29.5629C194.866 34.9757 196.654 40.5304 198.213 46.141C199.766 51.7536 201.08 57.4314 202.218 63.1391C206.72 85.9961 208.549 109.314 208.617 132.584L208.62 132.582ZM206.898 132.582C206.918 120.989 206.478 109.393 205.514 97.839C204.564 86.2873 203.125 74.7673 200.983 63.3762C199.911 57.6815 198.665 52.0186 197.183 46.4173C195.693 40.8197 193.976 35.28 191.884 29.8821C189.776 24.501 187.333 19.2132 184.091 14.4369C182.462 12.0646 180.623 9.81361 178.417 7.98072C177.314 7.06987 176.117 6.26915 174.822 5.67934C173.529 5.097 172.134 4.71624 170.716 4.67891C169.299 4.63411 167.884 4.91968 166.574 5.4591C165.258 5.99291 164.05 6.7787 162.951 7.68582C160.749 9.51497 158.964 11.8164 157.413 14.2372C155.866 16.6673 154.548 19.2468 153.372 21.8842C152.195 24.5234 151.164 27.2298 150.225 29.9661C148.355 35.4442 146.858 41.0474 145.578 46.6973C144.301 52.349 143.25 58.0511 142.358 63.7793C140.579 75.2358 139.424 86.7875 138.694 98.3579C137.955 109.932 137.701 121.53 137.722 133.125C137.692 144.718 138.078 156.314 138.941 167.875C139.809 179.434 141.139 190.965 143.131 202.381C144.128 208.089 145.294 213.766 146.69 219.386C148.088 225.005 149.712 230.569 151.709 235.994C153.718 241.405 156.066 246.729 159.239 251.524C160.836 253.902 162.652 256.156 164.855 257.942C165.956 258.829 167.153 259.596 168.448 260.123C169.74 260.649 171.124 260.942 172.511 260.895C173.898 260.86 175.264 260.494 176.534 259.912C177.805 259.326 178.977 258.519 180.054 257.601C182.208 255.751 183.986 253.469 185.556 251.07C188.673 246.238 190.988 240.901 192.974 235.483C194.945 230.048 196.548 224.478 197.933 218.856C199.312 213.233 200.464 207.553 201.451 201.843C203.428 190.424 204.742 178.893 205.615 167.334C206.5 155.775 206.909 144.176 206.905 132.582H206.898Z" fill="white"/>
</g>
<g style="mix-blend-mode:soft-light">
<path d="M267.314 132.582C267.234 147.564 265.307 162.554 261.296 177.004C257.216 191.419 251.064 205.289 242.712 217.738C238.534 223.957 233.803 229.811 228.517 235.121C223.233 240.431 217.387 245.194 211.043 249.189C204.693 253.166 197.834 256.35 190.655 258.51C183.481 260.675 175.99 261.804 168.493 261.812C160.995 261.812 153.503 260.688 146.324 258.528C139.14 256.375 132.277 253.196 125.92 249.222C119.568 245.233 113.715 240.472 108.423 235.166C103.128 229.857 98.3874 224.004 94.2009 217.787C85.8315 205.334 79.6665 191.46 75.5677 177.038C73.5501 169.812 72.0494 162.445 71.0564 155.013C70.0672 147.579 69.5707 140.081 69.5371 132.582C69.5763 125.082 70.0765 117.586 71.0695 110.152C72.0681 102.72 73.5725 95.3546 75.5957 88.1332C79.7057 73.7164 85.8801 59.8522 94.255 47.412C98.4434 41.1985 103.184 35.3527 108.479 30.0518C113.773 24.7529 119.622 19.9971 125.972 16.0215C132.328 12.0589 139.189 8.90269 146.36 6.74877C153.525 4.58551 161.006 3.45815 168.494 3.45068C175.983 3.46375 183.46 4.59857 190.624 6.76556C197.791 8.92509 204.646 12.0869 210.996 16.0551C217.339 20.0363 223.181 24.7958 228.465 30.0966C233.751 35.4012 238.484 41.247 242.661 47.4606C251.019 59.8988 257.181 73.7575 261.272 88.1668C265.292 102.61 267.228 117.598 267.317 132.58L267.314 132.582ZM265.339 132.582C265.317 117.769 263.473 102.94 259.564 88.6409C255.633 74.3641 249.717 60.5801 241.569 48.1848C237.499 41.9936 232.875 36.1571 227.696 30.8526C222.514 25.5555 216.792 20.7642 210.533 16.7811C204.268 12.8204 197.5 9.63249 190.405 7.4767C183.313 5.31904 175.91 4.18421 168.491 4.15995C161.073 4.19168 153.671 5.3321 146.582 7.49536C139.491 9.65675 132.729 12.8522 126.471 16.8166C120.22 20.8034 114.505 25.6003 109.332 30.8992C104.162 36.2057 99.5483 42.044 95.4869 48.2352C87.3565 60.6286 81.4528 74.407 77.5406 88.6763C75.592 95.8194 74.1809 103.102 73.2253 110.441C72.2678 117.78 71.7937 125.181 71.7788 132.584C71.7993 139.986 72.2771 147.387 73.2402 154.724C74.2015 162.061 75.6163 169.342 77.5705 176.481C81.492 190.745 87.4069 204.514 95.541 216.895C99.6043 223.08 104.22 228.911 109.388 234.21C114.56 239.501 120.27 244.293 126.521 248.267C132.779 252.222 139.538 255.391 146.617 257.552C153.693 259.719 161.083 260.863 168.491 260.903C175.899 260.873 183.29 259.732 190.37 257.573C197.453 255.417 204.217 252.251 210.481 248.302C216.738 244.332 222.456 239.544 227.638 234.255C232.815 228.958 237.441 223.127 241.513 216.941C249.666 204.559 255.592 190.784 259.532 176.513C263.45 162.22 265.305 147.394 265.337 132.58L265.339 132.582Z" fill="white"/>
</g>
<g style="mix-blend-mode:soft-light">
<path d="M53.1757 81.4457L82.8528 81.2068L112.53 81.0706L171.884 80.9604L231.238 81.0818L260.916 81.2311L290.593 81.4905C290.641 81.4905 290.679 81.5297 290.679 81.5783C290.679 81.6249 290.639 81.6641 290.593 81.6641L260.916 81.9236L231.238 82.071L171.884 82.1923L112.53 82.0822L82.8528 81.946L53.1757 81.707C53.1047 81.707 53.0469 81.6473 53.0469 81.5764C53.0469 81.5055 53.1047 81.4476 53.1757 81.4476V81.4457Z" fill="white"/>
</g>
<g style="mix-blend-mode:soft-light">
<path d="M87.6055 31.7373C94.6291 31.6253 101.653 31.5787 108.676 31.4984L129.747 31.3622C136.771 31.3043 143.794 31.3099 150.818 31.2931L171.889 31.2539L214.028 31.3752L235.099 31.5227C242.123 31.6104 249.146 31.6627 256.17 31.7821C256.218 31.7821 256.256 31.8232 256.256 31.8698C256.256 31.9165 256.216 31.9538 256.17 31.9557C249.146 32.0752 242.123 32.1256 235.099 32.2151L214.028 32.3645L171.889 32.4858L150.818 32.4466C143.794 32.4279 136.771 32.4354 129.747 32.3775L108.676 32.2413C101.653 32.161 94.6291 32.1125 87.6055 32.0024C87.5346 32.0024 87.4767 31.9426 87.4786 31.8698C87.4786 31.7989 87.5364 31.7429 87.6055 31.7429V31.7373Z" fill="white"/>
</g>
<g style="mix-blend-mode:soft-light">
<path d="M42.8632 131.152L75.1198 130.913L107.376 130.777L171.888 130.667L236.399 130.788L268.656 130.937L300.912 131.197C300.961 131.197 301 131.236 300.998 131.284C300.998 131.333 300.959 131.37 300.912 131.37L268.656 131.63L236.399 131.779L171.888 131.9L107.376 131.79L75.1198 131.654L42.8632 131.415C42.7922 131.415 42.7344 131.355 42.7344 131.284C42.7344 131.213 42.7922 131.156 42.8632 131.156V131.152Z" fill="white"/>
</g>
<g style="mix-blend-mode:soft-light">
<path d="M53.1757 180.858L82.8528 180.619L112.53 180.483L171.884 180.373L231.238 180.494L260.916 180.642L290.593 180.901C290.641 180.901 290.679 180.94 290.679 180.989C290.679 181.038 290.639 181.075 290.593 181.075L260.916 181.334L231.238 181.484L171.884 181.605L112.53 181.495L82.8528 181.359L53.1757 181.12C53.1047 181.12 53.0469 181.06 53.0469 180.989C53.0469 180.918 53.1047 180.86 53.1757 180.86V180.858Z" fill="white"/>
</g>
<g style="mix-blend-mode:soft-light">
<path d="M260.412 231.151H91.8519C91.5999 231.151 91.3965 230.948 91.3965 230.696C91.3965 230.444 91.5999 230.24 91.8519 230.24H260.412C260.664 230.24 260.868 230.444 260.868 230.696C260.868 230.948 260.664 231.151 260.412 231.151Z" fill="white"/>
</g>
</g>
<path d="M375.7 191.882C377.473 175.909 370.972 157.914 367.418 141.239C365.54 132.423 364.482 123.642 365.55 114.641C366.612 105.693 370.402 95.9093 366.195 87.204C357.718 69.6684 339.59 78.5305 329.56 92.3891C317.919 108.473 315.587 134.085 311.714 153.89C309.38 165.83 305.635 178.13 304.637 190.242C302.983 210.306 308.052 223.986 317.978 232.964C327.499 241.576 341.526 242.876 352.48 236.187C362.378 230.143 372.836 217.649 375.698 191.88L375.7 191.882Z" fill="url(#paint2_linear_1668_28764)"/>
<path d="M336.231 267.032C336.108 266.976 336.011 266.862 335.981 266.721C334.247 258.458 330.663 235.772 329.508 209.052C328.661 189.439 329.179 170.477 331.05 152.697C333.39 130.463 337.864 110.02 344.346 91.9371C344.429 91.7076 344.682 91.5862 344.914 91.6702C345.145 91.7505 345.265 92.0062 345.181 92.2376C338.723 110.251 334.266 130.622 331.932 152.781C330.066 170.516 329.547 189.429 330.393 208.998C331.544 235.662 335.119 258.297 336.849 266.539C336.899 266.778 336.746 267.014 336.505 267.064C336.41 267.084 336.313 267.071 336.231 267.034V267.032Z" fill="url(#paint3_linear_1668_28764)"/>
<path d="M0.819659 268.072C28.2215 244.619 130.705 241.196 175.023 269.341C177.089 270.653 175.525 272.803 172.51 272.794L4.51717 272.314C0.873787 272.303 -1.26334 269.854 0.819659 268.072Z" fill="url(#paint4_linear_1668_28764)"/>
<path d="M205.144 209.769L199.623 259.286H263.679L255.336 209.769H205.144Z" fill="url(#paint5_linear_1668_28764)"/>
<path d="M277.479 269.417H183.728C181.18 269.417 179.269 267.605 179.761 265.656L180.965 260.899C181.327 259.467 182.901 258.418 184.771 258.359L275.15 255.538C277.102 255.477 278.833 256.514 279.258 258L281.427 265.578C281.991 267.547 280.068 269.416 277.481 269.416L277.479 269.417Z" fill="url(#paint6_linear_1668_28764)"/>
<path d="M124.785 102.949V216.357C124.785 225.686 132.219 233.316 141.546 233.557C182.969 234.624 289.656 237.215 329.087 236.633C335.864 236.532 341.354 231.11 341.55 224.334C342.309 197.989 343.545 134.635 338.976 105.221C338.013 99.0259 332.785 94.3952 326.521 94.1955C291.813 93.0849 176.423 89.5591 137.011 90.4457C130.213 90.5987 124.785 96.1515 124.785 102.949Z" fill="url(#paint7_linear_1668_28764)"/>
<path d="M131.902 102.397V210.142C131.902 215.588 136.276 220.027 141.722 220.109L323.417 222.824C328.817 222.905 333.242 218.561 333.263 213.16L333.63 106.376C333.645 102.514 330.569 99.3508 326.708 99.2575L139.777 94.7088C135.46 94.6043 131.902 98.0741 131.902 102.393V102.397Z" fill="url(#paint8_linear_1668_28764)"/>
<path opacity="0.65" d="M334.915 227.218H334.909L131.895 223.108C131.74 223.105 131.617 222.978 131.619 222.821C131.623 222.666 131.755 222.539 131.907 222.545L334.921 226.655C335.076 226.658 335.199 226.785 335.197 226.942C335.193 227.095 335.068 227.218 334.915 227.218Z" fill="white"/>
<path d="M234.194 259.624C234.041 259.624 233.916 259.501 233.912 259.348C233.91 259.193 234.033 259.064 234.188 259.062L238.061 259.006H238.065C238.218 259.006 238.343 259.13 238.347 259.283C238.349 259.438 238.226 259.566 238.071 259.568L234.198 259.624H234.194Z" fill="white"/>
<path d="M183.231 266.769C183.216 266.769 183.201 266.769 183.186 266.765C183.033 266.741 182.928 266.597 182.953 266.444L183.505 262.983C183.8 261.136 185.372 259.775 187.244 259.747L228.321 259.146C228.467 259.152 228.605 259.267 228.607 259.422C228.609 259.577 228.486 259.706 228.331 259.708L187.253 260.309C185.655 260.331 184.313 261.494 184.061 263.071L183.509 266.532C183.487 266.67 183.367 266.769 183.233 266.769H183.231Z" fill="white"/>
<g opacity="0.49">
<path opacity="0.5" d="M165.166 151.583H140.511C137.142 151.583 134.46 153.959 134.624 156.798L137.43 205.125C137.583 207.774 140.173 209.853 143.317 209.853H165.166C168.421 209.853 171.06 207.628 171.06 204.882V156.555C171.06 153.81 168.421 151.585 165.166 151.585V151.583Z" fill="white"/>
<path opacity="0.5" d="M217.578 151.583H181.017C178.065 151.583 175.67 153.808 175.67 156.553V204.881C175.67 207.626 178.065 209.851 181.017 209.851H217.578C220.531 209.851 222.926 207.626 222.926 204.881V156.553C222.926 153.808 220.531 151.583 217.578 151.583Z" fill="white"/>
<path d="M159.916 102.602V126.023L135.969 126.861C136.951 138.318 146.559 147.31 158.27 147.31C170.633 147.31 180.654 137.289 180.654 124.926C180.654 112.562 171.51 103.444 159.916 102.601V102.602Z" fill="white"/>
<path d="M221.166 118.847H187.562C186.562 118.847 185.742 118.027 185.742 117.027C185.742 116.026 186.562 115.207 187.562 115.207H221.166C222.167 115.207 222.986 116.026 222.986 117.027C222.986 118.027 222.167 118.847 221.166 118.847Z" fill="white"/>
<path d="M221.166 106.824H187.562C186.557 106.824 185.742 107.639 185.742 108.644C185.742 109.649 186.557 110.464 187.562 110.464H221.166C222.171 110.464 222.986 109.649 222.986 108.644C222.986 107.639 222.171 106.824 221.166 106.824Z" fill="white"/>
<path d="M221.166 126.874H187.562C186.562 126.874 185.742 126.055 185.742 125.054C185.742 124.054 186.562 123.234 187.562 123.234H221.166C222.167 123.234 222.986 124.054 222.986 125.054C222.986 126.055 222.167 126.874 221.166 126.874Z" fill="white"/>
<path d="M221.166 135.854H187.562C186.562 135.854 185.742 135.035 185.742 134.034C185.742 133.034 186.562 132.214 187.562 132.214H221.166C222.167 132.214 222.986 133.034 222.986 134.034C222.986 135.035 222.167 135.854 221.166 135.854Z" fill="white"/>
<path d="M187.562 140.435H221.166C222.17 140.435 222.986 141.25 222.986 142.254C222.986 143.259 222.17 144.074 221.166 144.074H187.562C186.558 144.074 185.742 143.259 185.742 142.254C185.742 141.25 186.558 140.435 187.562 140.435Z" fill="white"/>
</g>
<path opacity="0.5" d="M249.416 133.756C256.833 133.756 262.845 128.167 262.845 121.273C262.845 114.379 256.833 108.79 249.416 108.79C241.999 108.79 235.986 114.379 235.986 121.273C235.986 128.167 241.999 133.756 249.416 133.756Z" fill="white"/>
<path opacity="0.5" d="M282.793 133.756C290.209 133.756 296.222 128.167 296.222 121.273C296.222 114.379 290.209 108.79 282.793 108.79C275.376 108.79 269.363 114.379 269.363 121.273C269.363 128.167 275.376 133.756 282.793 133.756Z" fill="white"/>
<path opacity="0.5" d="M316.172 134.165C323.588 134.165 329.601 128.576 329.601 121.682C329.601 114.788 323.588 109.199 316.172 109.199C308.755 109.199 302.742 114.788 302.742 121.682C302.742 128.576 308.755 134.165 316.172 134.165Z" fill="white"/>
<path d="M257.397 118.634C257.813 119.573 258.043 120.601 258.043 121.68C258.043 126.109 254.181 129.698 249.416 129.698C244.651 129.698 240.789 126.109 240.789 121.68C240.789 117.251 244.651 113.662 249.416 113.662C249.562 113.662 249.707 113.665 249.851 113.671V111.638C249.707 111.633 249.562 111.629 249.416 111.629C243.445 111.629 238.605 116.129 238.605 121.678C238.605 127.227 243.445 131.727 249.416 131.727C255.387 131.727 260.227 127.227 260.227 121.678C260.227 120.312 259.932 119.009 259.402 117.822L257.395 118.632L257.397 118.634Z" fill="url(#paint9_linear_1668_28764)"/>
<path d="M287.244 128.465C285.913 129.245 284.338 129.698 282.647 129.698C277.883 129.698 274.02 126.109 274.02 121.68C274.02 117.251 277.881 113.662 282.647 113.662C282.792 113.662 282.938 113.665 283.082 113.671V111.638C282.938 111.633 282.792 111.629 282.647 111.629C276.676 111.629 271.836 116.129 271.836 121.678C271.836 127.227 276.676 131.727 282.647 131.727C284.73 131.727 286.676 131.178 288.326 130.228L287.242 128.461L287.244 128.465Z" fill="url(#paint10_linear_1668_28764)"/>
<path d="M323.368 126.189C321.815 128.308 319.2 129.7 316.235 129.7C311.469 129.7 307.608 126.111 307.608 121.682C307.608 117.253 311.469 113.663 316.235 113.663C316.38 113.663 316.526 113.667 316.669 113.673V111.64C316.526 111.635 316.38 111.631 316.235 111.631C310.264 111.631 305.424 116.131 305.424 121.68C305.424 127.229 310.264 131.729 316.235 131.729C319.928 131.729 323.189 130.006 325.14 127.38L323.368 126.189Z" fill="url(#paint11_linear_1668_28764)"/>
<g opacity="0.64">
<path opacity="0.5" d="M260.359 139.044H238.474C237.101 139.044 235.986 140.08 235.986 141.357C235.986 142.633 237.101 143.669 238.474 143.669H260.359C261.733 143.669 262.847 142.633 262.847 141.357C262.847 140.08 261.733 139.044 260.359 139.044Z" fill="white"/>
<path opacity="0.5" d="M293.736 139.044H271.851C270.478 139.044 269.363 140.08 269.363 141.357C269.363 142.633 270.478 143.669 271.851 143.669H293.736C295.11 143.669 296.224 142.633 296.224 141.357C296.224 140.08 295.11 139.044 293.736 139.044Z" fill="white"/>
<path opacity="0.5" d="M305.228 143.667H327.113C328.487 143.667 329.601 142.631 329.601 141.355C329.601 140.078 328.487 139.042 327.113 139.042H305.228C303.855 139.042 302.74 140.078 302.74 141.355C302.74 142.631 303.855 143.667 305.228 143.667Z" fill="white"/>
<path opacity="0.5" d="M260.359 146.237H238.474C237.101 146.237 235.986 147.273 235.986 148.55V162.164C235.986 163.441 237.101 164.477 238.474 164.477H260.359C261.733 164.477 262.847 163.441 262.847 162.164V148.55C262.847 147.273 261.733 146.237 260.359 146.237Z" fill="white"/>
<path opacity="0.5" d="M293.736 146.237H271.851C270.478 146.237 269.363 147.273 269.363 148.55V162.164C269.363 163.441 270.478 164.477 271.851 164.477H293.736C295.11 164.477 296.224 163.441 296.224 162.164V148.55C296.224 147.273 295.11 146.237 293.736 146.237Z" fill="white"/>
<path opacity="0.5" d="M327.113 146.237H305.228C303.855 146.237 302.74 147.273 302.74 148.55V162.164C302.74 163.441 303.855 164.477 305.228 164.477H327.113C328.487 164.477 329.601 163.441 329.601 162.164V148.55C329.601 147.273 328.487 146.237 327.113 146.237Z" fill="white"/>
</g>
<path d="M179.93 182.693V201.039C179.93 203.908 182.431 206.233 185.518 206.233H212.55C215.719 206.233 218.29 203.844 218.29 200.899V173.275C218.29 170.951 215.202 169.854 213.534 171.586L208.31 177.014C206.299 179.102 202.895 179.397 200.504 177.687L200.004 177.329C198.16 176.011 195.576 176.069 193.805 177.471L190.944 179.731C188.741 181.473 185.663 181.893 183.015 180.816C181.559 180.224 179.928 181.215 179.928 182.691L179.93 182.693Z" fill="url(#paint12_linear_1668_28764)"/>
<g opacity="0.5">
<path d="M241.846 190.792H237.316V209.853H241.846V190.792Z" fill="white"/>
<path d="M249.417 197.342H244.887V209.853H249.417V197.342Z" fill="white"/>
<path d="M256.987 181.152H252.457V209.853H256.987V181.152Z" fill="white"/>
<path d="M264.557 202.958H260.027V209.853H264.557V202.958Z" fill="white"/>
<path d="M272.128 184.989H267.598V209.853H272.128V184.989Z" fill="white"/>
<path d="M279.696 189.293H275.166V209.853H279.696V189.293Z" fill="white"/>
<path d="M287.268 193.973H282.738V209.853H287.268V193.973Z" fill="white"/>
<path d="M294.839 175.351H290.309V209.853H294.839V175.351Z" fill="white"/>
<path d="M302.409 179H297.879V209.853H302.409V179Z" fill="white"/>
<path d="M309.979 184.521H305.449V209.852H309.979V184.521Z" fill="white"/>
<path d="M317.549 203.598H313.02V209.853H317.549V203.598Z" fill="white"/>
<path d="M325.12 191.447H320.59V209.853H325.12V191.447Z" fill="white"/>
</g>
<path opacity="0.54" d="M249.173 175.351H229.239C228.363 175.351 227.652 176.011 227.652 176.825C227.652 177.639 228.362 178.3 229.239 178.3H249.173C250.048 178.3 250.759 177.639 250.759 176.825C250.759 176.011 250.05 175.351 249.173 175.351Z" fill="white"/>
<path opacity="0.5" d="M249.173 170.737H229.239C228.363 170.737 227.652 171.398 227.652 172.211C227.652 173.025 228.362 173.686 229.239 173.686H249.173C250.048 173.686 250.759 173.025 250.759 172.211C250.759 171.398 250.05 170.737 249.173 170.737Z" fill="white"/>
<path opacity="0.54" d="M285.136 175.351H265.202C264.326 175.351 263.615 176.011 263.615 176.825C263.615 177.639 264.324 178.3 265.202 178.3H285.136C286.011 178.3 286.722 177.639 286.722 176.825C286.722 176.011 286.013 175.351 285.136 175.351Z" fill="white"/>
<path opacity="0.5" d="M285.136 170.737H265.202C264.326 170.737 263.615 171.398 263.615 172.211C263.615 173.025 264.324 173.686 265.202 173.686H285.136C286.011 173.686 286.722 173.025 286.722 172.211C286.722 171.398 286.013 170.737 285.136 170.737Z" fill="white"/>
<path d="M241.846 196.272H237.316V209.853H241.846V196.272Z" fill="url(#paint13_linear_1668_28764)"/>
<path d="M249.417 200.94H244.887V209.853H249.417V200.94Z" fill="url(#paint14_linear_1668_28764)"/>
<path d="M256.987 189.405H252.457V209.853H256.987V189.405Z" fill="url(#paint15_linear_1668_28764)"/>
<path d="M264.557 204.94H260.027V209.853H264.557V204.94Z" fill="url(#paint16_linear_1668_28764)"/>
<path d="M272.128 188.485H267.598V209.853H272.128V188.485Z" fill="url(#paint17_linear_1668_28764)"/>
<path d="M279.696 195.205H275.166V209.851H279.696V195.205Z" fill="url(#paint18_linear_1668_28764)"/>
<path d="M287.268 198.54H282.738V209.853H287.268V198.54Z" fill="url(#paint19_linear_1668_28764)"/>
<path d="M294.839 185.271H290.309V209.853H294.839V185.271Z" fill="url(#paint20_linear_1668_28764)"/>
<path d="M302.409 182.753H297.879V209.853H302.409V182.753Z" fill="url(#paint21_linear_1668_28764)"/>
<path d="M309.979 191.806H305.449V209.853H309.979V191.806Z" fill="url(#paint22_linear_1668_28764)"/>
<path d="M317.549 205.396H313.02V209.853H317.549V205.396Z" fill="url(#paint23_linear_1668_28764)"/>
<path d="M325.12 196.739H320.59V209.853H325.12V196.739Z" fill="url(#paint24_linear_1668_28764)"/>
<path d="M158.236 124.592V102.806C146.143 103.051 136.394 112.839 136.213 124.948L158.236 124.59V124.592Z" fill="url(#paint25_linear_1668_28764)"/>
<path d="M135.7 177.684H133.896V206.45H135.7V177.684Z" fill="url(#paint26_linear_1668_28764)"/>
<path d="M138.711 187.57H136.908V206.45H138.711V187.57Z" fill="url(#paint27_linear_1668_28764)"/>
<path d="M141.727 163.138H139.924V206.45H141.727V163.138Z" fill="url(#paint28_linear_1668_28764)"/>
<path d="M144.739 196.044H142.936V206.45H144.739V196.044Z" fill="url(#paint29_linear_1668_28764)"/>
<path d="M147.752 168.928H145.949V206.45H147.752V168.928Z" fill="url(#paint30_linear_1668_28764)"/>
<path d="M150.766 175.425H148.963V206.45H150.766V175.425Z" fill="url(#paint31_linear_1668_28764)"/>
<path d="M153.78 182.486H151.977V206.45H153.78V182.486Z" fill="url(#paint32_linear_1668_28764)"/>
<path d="M156.793 154.381H154.99V206.45H156.793V154.381Z" fill="url(#paint33_linear_1668_28764)"/>
<path d="M159.807 159.889H158.004V206.45H159.807V159.889Z" fill="url(#paint34_linear_1668_28764)"/>
<path d="M162.819 168.223H161.016V206.45H162.819V168.223Z" fill="url(#paint35_linear_1668_28764)"/>
<path d="M165.834 197.011H164.031V206.45H165.834V197.011Z" fill="url(#paint36_linear_1668_28764)"/>
<path d="M168.846 178.673H167.043V206.45H168.846V178.673Z" fill="url(#paint37_linear_1668_28764)"/>
<path d="M308.582 202.784C308.582 202.784 312.918 212.79 315.587 211.456C318.256 210.121 320.257 199.114 320.257 199.114C320.257 199.114 311.917 197.114 308.582 202.784Z" fill="url(#paint38_linear_1668_28764)"/>
<path d="M323.68 264.88C323.68 264.88 324.042 266.932 324.219 268.964C324.288 269.758 323.676 270.448 322.881 270.48C320.176 270.592 314.388 270.812 312.313 270.719C312.001 270.706 311.796 270.385 311.912 270.095C312.009 269.853 312.195 269.655 312.432 269.547L321.991 265.153L323.678 264.88H323.68Z" fill="url(#paint39_linear_1668_28764)"/>
<path d="M323.977 263.674L323.686 266.129C323.686 266.129 322.011 266.909 320.867 266.03L321.56 263.293L323.975 263.672L323.977 263.674Z" fill="url(#paint40_linear_1668_28764)"/>
<path d="M323.758 217.527C323.883 218.167 324.434 249.515 321.084 263.564C321.029 263.794 321.145 264.029 321.364 264.118C321.877 264.328 322.885 264.632 324.092 264.673C324.466 264.686 324.802 264.443 324.906 264.083C325.864 260.824 330.453 244.494 331.052 228.894C331.721 211.463 331.052 228.301 331.052 228.301L330.66 217.525H323.758V217.527Z" fill="url(#paint41_linear_1668_28764)"/>
<path d="M334.676 265.952C334.676 265.952 335.253 266.988 335.811 269.741C335.911 270.237 335.564 270.713 335.058 270.763C334.164 270.851 332.791 270.965 331.687 270.958C331.18 270.954 330.784 270.511 330.844 270.008C330.965 269.003 331.346 267.353 332.52 266.069L334.672 265.954L334.676 265.952Z" fill="url(#paint42_linear_1668_28764)"/>
<path d="M335.184 262.793L334.503 266.506C334.503 266.506 333.829 267.006 332.498 266.644L332.823 262.649L335.182 262.793H335.184Z" fill="url(#paint43_linear_1668_28764)"/>
<path d="M337.02 218.489C339.76 235.028 336.426 259.367 335.301 264.13C335.232 264.421 334.997 264.645 334.702 264.694C334.2 264.778 333.373 264.845 332.559 264.608C332.279 264.526 332.081 264.274 332.07 263.981C331.919 260.13 332.191 236.485 329.638 227.142C329.509 226.668 329.22 226.255 328.819 225.972L323.863 222.448L323.482 216.753L337.022 218.489H337.02Z" fill="url(#paint44_linear_1668_28764)"/>
<path d="M319.257 187.775C329.263 186.775 336.834 189.308 336.834 189.308C339.283 203.592 337.261 220.067 337.261 220.067C330.904 221.734 323.731 219.048 323.731 219.048C322.675 213.077 317.743 196.275 317.743 196.275C313.73 195.777 316.735 188.029 319.257 187.775Z" fill="url(#paint45_linear_1668_28764)"/>
<path d="M333.684 197.259L336.834 189.306C336.834 189.306 344.505 194.519 345.767 201.127C344.317 201.233 341.68 201.61 339.098 202.915C338.531 199.794 333.684 197.259 333.684 197.259Z" fill="url(#paint46_linear_1668_28764)"/>
<path d="M326.312 204.742C326.312 204.742 334.924 209.61 337.83 205.453C338.433 204.591 338.579 203.732 338.43 202.915C341.011 201.612 343.648 201.235 345.098 201.126C345.479 203.118 345.278 205.238 344.107 207.379C339.017 216.691 325.172 206.864 325.172 206.864L326.312 204.74V204.742Z" fill="url(#paint47_linear_1668_28764)"/>
<path d="M327.347 210.9L322.647 194.484C322.593 194.297 322.435 194.161 322.242 194.138C321.391 194.04 318.924 193.76 316.074 193.519C312.641 193.228 308.656 192.992 306.274 193.194C305.937 193.222 305.731 193.58 305.882 193.885C307.238 196.625 312.807 207.771 315.598 211.422C315.691 211.543 315.833 211.614 315.986 211.613L326.892 211.512C327.209 211.508 327.437 211.204 327.349 210.9H327.347Z" fill="url(#paint48_linear_1668_28764)"/>
<path d="M315.584 192.097L312.176 191.529C311.995 191.499 311.845 191.673 311.903 191.847L312.241 192.869C312.271 192.959 312.347 193.022 312.441 193.035L315.72 193.474C315.89 193.497 316.03 193.343 315.991 193.175L315.782 192.283C315.759 192.188 315.681 192.113 315.584 192.099V192.097Z" fill="url(#paint49_linear_1668_28764)"/>
<path d="M318.135 194.982L317.855 193.519C317.827 193.371 317.706 193.261 317.556 193.246L310.673 192.548C310.441 192.524 310.255 192.737 310.311 192.963L310.748 194.784C310.783 194.93 310.91 195.036 311.059 195.044L317.786 195.382C318.004 195.393 318.176 195.195 318.135 194.98V194.982Z" fill="url(#paint50_linear_1668_28764)"/>
<path d="M326.211 206.933C326.211 206.933 326.866 204.24 326.601 203.286C326.336 202.331 325.824 201.102 324.118 201.375C322.412 201.647 320.4 202.366 320.4 202.366C320.4 202.366 320.501 203.611 321.798 203.21L320.994 203.831C320.994 203.831 321.11 204.828 322.203 204.296L321.455 205.121C321.455 205.121 321.925 205.939 322.732 205.414C323.538 204.89 323.924 207.258 326.209 206.933H326.211Z" fill="url(#paint51_linear_1668_28764)"/>
<path d="M308.733 202.928C308.733 202.928 306.749 200.994 306.463 200.044C306.18 199.094 305.961 197.782 307.552 197.107C309.142 196.431 311.229 195.972 311.229 195.972C311.229 195.972 311.803 197.08 310.491 197.428L311.503 197.528C311.503 197.528 311.934 198.434 310.725 198.564L311.796 198.867C311.796 198.867 311.831 199.809 310.87 199.792C309.909 199.776 310.84 201.987 308.731 202.926L308.733 202.928Z" fill="url(#paint52_linear_1668_28764)"/>
<path d="M326.876 181.105L329.489 188.662C329.532 188.787 329.482 188.926 329.366 188.991C328.653 189.385 326.087 190.523 322.994 188.562C322.671 188.358 322.453 188.024 322.404 187.645L321.559 181.105H326.878H326.876Z" fill="url(#paint53_linear_1668_28764)"/>
<path d="M321.19 174.105C321.19 174.105 318.321 179.507 318.689 181.689C319.056 183.871 322.612 183.714 325.718 181.943L327.889 176.11L321.19 174.105Z" fill="url(#paint54_linear_1668_28764)"/>
<path d="M325.583 179.078C325.456 179.022 325.409 178.867 325.486 178.751C325.715 178.4 326.146 177.683 326.284 177.056C326.284 177.056 326.8 176.726 324.972 176.287C323.143 175.849 320.416 175.169 319.843 173.613C319.285 172.095 320.752 168.278 323.096 171.319C323.186 171.434 323.36 171.436 323.449 171.32C323.834 170.82 324.843 169.783 326.245 170.412C327.557 170.999 327.705 171.961 327.686 172.446C327.681 172.588 327.807 172.7 327.949 172.672C328.612 172.545 330.204 172.437 330.947 174.07C331.559 175.416 331.162 176.175 330.799 176.549C330.682 176.67 330.734 176.868 330.895 176.916C331.331 177.049 331.893 177.42 331.837 178.441C331.759 179.852 330.182 179.729 329.732 179.664C329.659 179.652 329.584 179.679 329.534 179.733C329.149 180.158 327.412 181.971 325.534 182.189C325.372 182.208 325.245 182.047 325.299 181.892L326.113 179.527C326.15 179.417 326.098 179.298 325.991 179.249L325.588 179.07L325.583 179.078Z" fill="url(#paint55_linear_1668_28764)"/>
<path d="M325.254 179.414C325.254 179.414 327.298 178.012 327.447 179.192C327.596 180.371 325.607 180.901 324.621 180.461L325.254 179.412V179.414Z" fill="url(#paint56_linear_1668_28764)"/>
<path d="M336.471 183.828C336.601 183.578 336.973 183.617 337.049 183.889C337.329 184.899 338.009 186.661 339.433 187.286C339.504 187.318 339.573 187.35 339.638 187.381C339.704 187.187 339.703 186.963 339.549 186.726C339.106 186.049 339.905 185.125 339.905 185.125C339.905 185.125 339.957 185.939 340.577 186.452C341.111 186.894 341.367 187.876 341.001 188.682C340.23 191.676 339.074 195.637 343.573 198.53C348.069 201.423 354.402 193.07 354.402 193.07L351.259 203.034C351.259 203.034 346.408 206.614 340.766 201.58C335.123 196.546 338.864 189.22 338.864 189.22C338.864 189.22 334.559 187.484 336.473 183.828H336.471Z" fill="url(#paint57_linear_1668_28764)"/>
<path d="M355.191 178.43C355.191 178.43 353.888 172.586 360.581 174.133C360.581 174.133 363.831 173.603 363.995 176.67C363.995 176.67 366.089 178.049 364.557 180.703C364.557 180.703 370.781 178.299 373.493 183.755C376.205 189.211 373.712 192.212 371.099 192.994C371.099 192.994 373.215 194.058 372.213 196.458C371.211 198.859 366.136 200.552 363.136 197.632C363.136 197.632 354.605 198.76 354.776 192.733C354.776 192.733 350.808 190.17 354.976 185.19C359.144 180.211 355.189 178.43 355.189 178.43H355.191Z" fill="url(#paint58_linear_1668_28764)"/>
<path d="M354.822 191.975C356.168 191.572 360.084 190.827 363.809 194.265C364.44 194.848 364.7 195.734 364.474 196.565C363.473 200.249 360.834 211.131 363.148 215.84C363.148 215.84 359.07 220.336 354.619 216.712C354.619 216.712 352.621 208.01 350.007 204.189C348.202 201.552 352.887 194.286 354.072 192.529C354.251 192.264 354.516 192.067 354.822 191.975Z" fill="url(#paint59_linear_1668_28764)"/>
<path d="M358.537 184.657C358.537 184.657 360.526 190.284 360.676 192.767C360.676 192.767 358.477 193.767 356.405 192.08C356.405 192.08 356.188 186.46 355.873 185.454L358.537 184.659V184.657Z" fill="url(#paint60_linear_1668_28764)"/>
<path d="M355.772 176.985C355.772 176.985 350.568 184.267 353.679 186.381C356.789 188.496 360.494 183.322 360.494 183.322C360.494 183.322 361.701 179.337 360.438 177.984C359.176 176.633 355.772 176.985 355.772 176.985Z" fill="url(#paint61_linear_1668_28764)"/>
<path d="M358.182 175.244C358.182 175.244 355.791 175.81 355.457 176.892C355.123 177.973 358.846 178.977 359.89 179.026L360.731 183.389C360.731 183.389 363.218 179.283 362.232 176.913C361.247 174.542 358.182 175.244 358.182 175.244Z" fill="url(#paint62_linear_1668_28764)"/>
<path d="M359.486 182.786C359.486 182.786 361.511 180.44 362.318 181.971C363.124 183.499 360.494 184.647 359.585 183.897L359.488 182.786H359.486Z" fill="url(#paint63_linear_1668_28764)"/>
<path d="M349.425 234.984C349.44 235.38 348.747 238.514 348.368 240.184C348.217 240.856 348.322 241.56 348.665 242.159L361.738 264.163C361.897 264.43 362.01 264.718 362.081 265.02C362.32 266.052 362.819 268.583 362.559 270.884L361.883 272.29L364.808 271.625L365.445 263.771L364.616 263.265C363.901 262.829 363.343 262.177 363.024 261.403C361.842 258.532 358.906 251.221 358.149 247.66C357.288 243.611 352.794 240.323 352.794 240.323L353.583 238.456L349.423 234.986L349.425 234.984Z" fill="url(#paint64_linear_1668_28764)"/>
<path d="M368.058 268.921C368.058 268.921 366.479 266.416 366.292 265.442C366.106 264.468 365.589 262.747 364.616 263.264C364.616 263.264 364.157 267.999 364.316 269.849C364.474 271.698 362.223 271.639 362.223 271.639C362.223 271.639 361.604 271.726 361.15 272.18C360.837 272.494 361.061 273.037 361.503 273.067C362.238 273.113 363.409 273.126 364.637 272.889C365.066 272.807 365.383 272.441 365.41 272.005L365.734 266.554L367.726 269.07L368.058 268.919V268.921Z" fill="url(#paint65_linear_1668_28764)"/>
<path d="M357.233 238.488C357.233 238.488 357.694 258.17 357.756 260.964C357.817 263.76 357.315 269.955 354.512 271.807L355.731 272.71C355.731 272.71 357.254 271.415 358.743 268.923C360.415 266.123 360.921 265.612 360.921 265.612L360.367 264.475C360.124 263.977 360.053 263.415 360.165 262.872C360.77 259.941 362.79 250.193 363.342 248.093C363.993 245.614 364.038 242.305 361.776 239.535C359.514 236.765 357.233 238.488 357.233 238.488Z" fill="url(#paint66_linear_1668_28764)"/>
<path d="M359.82 273.597C359.907 273.597 359.98 273.535 359.993 273.449C360.087 272.792 360.475 270.162 360.792 269.481C361.156 268.701 362.345 265.418 360.792 265.14C360.792 265.14 356.93 270.782 356.189 271.542C355.448 272.303 354.513 271.807 354.513 271.807C354.513 271.807 353.791 272.02 353.246 272.716C352.987 273.046 353.227 273.533 353.649 273.537L356.249 273.561C357.005 273.569 357.685 273.11 357.964 272.408C358.422 271.264 359.209 269.587 360.126 268.843L359.65 273.403C359.639 273.503 359.719 273.593 359.82 273.595V273.597Z" fill="url(#paint67_linear_1668_28764)"/>
<path d="M354.003 214.59C354.003 214.59 354.59 216.458 353.69 219.534L348.103 239.039C348.016 239.345 348.182 239.666 348.481 239.774C350.151 240.373 355.644 242.068 363.142 241.551C363.519 241.525 363.836 241.258 363.918 240.888C364.413 238.665 366.098 231.078 366.445 229.52C367.769 223.58 369.245 217.175 362.748 213.3C359.754 214.582 356.962 215.338 354.003 214.588V214.59Z" fill="url(#paint68_linear_1668_28764)"/>
<path d="M364.342 195.001C364.342 195.001 370.698 200.283 372.275 207.499C373.852 214.717 362.989 215.484 362.989 215.484C362.989 215.484 361.515 213.837 359.764 214.424C358.013 215.011 359.628 211.549 361.677 211.558C363.726 211.568 362.776 213.188 365.675 211.874C368.497 210.595 370.242 206.64 363.039 200.645C362.621 200.298 362.289 199.854 362.088 199.35C360.688 195.828 361.798 193.519 364.342 194.999V195.001Z" fill="url(#paint69_linear_1668_28764)"/>
<path d="M35.6049 255.197C16.7197 254.288 0.18827 230.474 5.43683 218.185C8.98315 209.881 20.1746 212.223 25.9346 202.723C33.2867 190.595 19.3664 179.646 19.764 157.541C20.1018 138.73 30.7259 116.517 41.9826 115.321C53.7639 114.069 69.4349 135.503 66.6763 153.623C64.8826 165.408 56.2295 169.654 58.0176 179.134C60.0932 190.133 72.817 190.105 77.0465 199.819C84.6449 217.267 60.5878 256.397 35.6049 255.197Z" fill="url(#paint70_linear_1668_28764)"/>
<path d="M46.9022 258.271C46.8089 258.311 46.7062 258.333 46.5998 258.331C46.2228 258.324 45.9372 258.025 45.9652 257.663C49.6105 208.929 35.8806 160.087 35.7406 159.598C35.6417 159.254 35.8601 158.885 36.2259 158.775C36.5917 158.664 36.9669 158.853 37.0658 159.196C37.2058 159.685 50.9954 208.739 47.3334 257.691C47.3147 257.95 47.1392 258.171 46.9041 258.271H46.9022Z" fill="url(#paint71_linear_1668_28764)"/>
<path d="M43.8509 203.15C42.3801 189.898 47.7724 174.97 50.7214 161.135C52.2799 153.822 53.1572 146.536 52.2725 139.07C51.3915 131.647 48.2465 123.529 51.7368 116.308C58.7697 101.76 73.808 109.111 82.1306 120.61C91.7879 133.954 93.7215 155.202 96.9356 171.632C98.873 181.538 101.979 191.742 102.808 201.791C104.179 218.436 99.9743 229.785 91.7393 237.234C83.8404 244.379 72.2047 245.458 63.1149 239.908C54.9042 234.895 46.2269 224.529 43.8546 203.152L43.8509 203.15Z" fill="url(#paint72_linear_1668_28764)"/>
<path d="M76.5952 265.496C76.6979 265.449 76.7781 265.356 76.8024 265.236C78.2415 258.383 81.2148 239.561 82.1723 217.395C82.876 201.123 82.4448 185.394 80.8919 170.643C78.9507 152.198 75.2383 135.238 69.8609 120.237C69.7919 120.046 69.5828 119.945 69.3906 120.014C69.1983 120.082 69.0994 120.293 69.1685 120.485C74.5272 135.43 78.2247 152.329 80.1602 170.712C81.7094 185.425 82.1387 201.117 81.4388 217.35C80.4831 239.471 77.5173 258.248 76.0819 265.087C76.0409 265.285 76.1678 265.481 76.3656 265.522C76.4459 265.539 76.5243 265.528 76.5934 265.496H76.5952Z" fill="url(#paint73_linear_1668_28764)"/>
<path d="M106.075 260.886C97.4871 261.446 88.0203 250.904 85.9056 240.483C83.7293 229.76 90.7939 226.33 92.6361 212.096C94.7303 195.928 86.6484 192.373 83.9868 169.85C83.3858 164.767 79.9123 135.361 89.6199 131.226C98.5958 127.404 120.083 144.661 121.768 163.313C122.97 176.612 113.22 180.83 114.666 196.326C115.935 209.921 123.862 211.172 125.214 224.306C126.86 240.297 117.347 260.15 106.073 260.884L106.075 260.886Z" fill="url(#paint74_linear_1668_28764)"/>
<path d="M104.946 264.72C109.519 247.608 108.696 220.161 107.199 200.147C105.578 178.479 102.846 160.618 102.818 160.441L102.094 160.553C102.122 160.73 104.851 178.568 106.469 200.208C107.96 220.163 108.783 247.52 104.238 264.531L104.946 264.72Z" fill="url(#paint75_linear_1668_28764)"/>
<path d="M106.658 224.213C105.291 215.209 108.563 204.875 110.197 195.354C111.061 190.32 111.46 185.325 110.65 180.254C109.846 175.212 107.477 169.759 109.661 164.734C114.062 154.614 124.526 159.218 130.521 166.837C137.477 175.679 139.377 190.126 142.02 201.252C143.612 207.958 146.013 214.838 146.853 221.671C148.245 232.993 145.684 240.853 140.268 246.161C135.073 251.253 127.161 252.308 120.808 248.769C115.066 245.571 108.862 238.736 106.658 224.211V224.213Z" fill="url(#paint76_linear_1668_28764)"/>
<path d="M130.596 266.256C130.891 266.256 131.153 266.043 131.205 265.741C131.227 265.605 133.506 251.854 133.566 232.885C133.622 215.37 131.742 189.682 122.479 166.78C122.35 166.464 121.992 166.311 121.676 166.438C121.361 166.565 121.208 166.925 121.337 167.241C130.522 189.95 132.386 215.458 132.334 232.857C132.276 251.729 130.012 265.399 129.99 265.536C129.934 265.872 130.16 266.191 130.496 266.247C130.531 266.252 130.565 266.256 130.598 266.256H130.596Z" fill="url(#paint77_linear_1668_28764)"/>
<path d="M122.72 30.0578C124.236 23.6319 120.257 17.1932 113.831 15.6765C107.405 14.1599 100.966 18.1396 99.4493 24.5655C97.9326 30.9914 101.912 37.4302 108.338 38.9468C114.764 40.4635 121.203 36.4837 122.72 30.0578Z" fill="url(#paint78_linear_1668_28764)"/>
<path d="M123.024 26.6729H99.1351C99.1351 26.6729 98.1832 33.3082 108.854 51.4841C109.319 52.2773 110.17 52.7514 111.09 52.7514C112.01 52.7514 112.861 52.2866 113.328 51.4934C123.997 33.3157 123.026 26.6729 123.026 26.6729H123.024Z" fill="url(#paint79_linear_1668_28764)"/>
<path opacity="0.8" d="M111.084 53.1398V53.207H111.088C110.046 53.207 109.076 52.634 108.553 51.7437C102.315 41.1196 100.031 34.4021 99.2113 30.643C98.978 29.7788 98.8436 28.9315 98.8007 28.0617C98.7279 27.1732 98.7839 26.7981 98.7895 26.7589L98.8212 26.5685C99.3028 20.1459 104.648 15.1475 111.088 15.1475C117.527 15.1475 123.005 20.2168 123.371 26.6898C123.38 26.7738 123.397 26.9903 123.392 27.3487V27.3935C123.392 28.5675 123.226 29.7303 122.899 30.8502C122.052 34.6056 119.752 41.2577 113.622 51.7026C113.096 52.5985 112.161 53.1417 111.084 53.1417V53.1398ZM99.4596 27.2106C99.4558 27.3897 99.4614 27.6455 99.4932 28.0318C99.5324 28.8531 99.6593 29.6463 99.8814 30.4676L99.8851 30.4806C100.691 34.1894 102.954 40.8229 109.149 51.376C109.548 52.0554 110.287 52.4772 111.082 52.4772C111.799 52.4772 112.618 52.0516 113.021 51.3666C119.114 40.989 121.387 34.3928 122.221 30.6878L122.227 30.6673C122.537 29.6071 122.626 28.5059 122.626 27.3953L122.557 27.3468V27.3431C122.557 26.9978 122.615 26.8093 122.61 26.7607L122.643 26.7402C122.304 20.6293 117.23 15.8437 111.071 15.8437C104.912 15.8437 99.8422 20.6965 99.4913 26.8615L99.482 27.2143H99.4596V27.2106Z" fill="white"/>
<path d="M116.009 32.1564C118.705 29.4601 118.705 25.0887 116.009 22.3925C113.313 19.6962 108.941 19.6962 106.245 22.3925C103.549 25.0887 103.549 29.4601 106.245 32.1564C108.941 34.8526 113.313 34.8526 116.009 32.1564Z" fill="white"/>
<path d="M111.128 34.5646C107.11 34.5646 103.84 31.2945 103.84 27.2759C103.84 23.2574 107.11 19.9873 111.128 19.9873C115.147 19.9873 118.417 23.2574 118.417 27.2759C118.417 31.2945 115.147 34.5646 111.128 34.5646ZM111.128 20.7582C107.535 20.7582 104.611 23.6829 104.611 27.2759C104.611 30.8689 107.535 33.7937 111.128 33.7937C114.721 33.7937 117.646 30.8689 117.646 27.2759C117.646 23.6829 114.721 20.7582 111.128 20.7582Z" fill="url(#paint80_linear_1668_28764)"/>
<path d="M104.578 20.0865C104.546 20.0865 104.513 20.0734 104.49 20.0454C104.449 19.9969 104.455 19.9241 104.503 19.883C106.443 18.2181 108.921 17.2998 111.48 17.2998C111.544 17.2998 111.596 17.3521 111.596 17.4155C111.596 17.479 111.544 17.5312 111.48 17.5312C108.975 17.5312 106.551 18.429 104.655 20.0585C104.632 20.0771 104.606 20.0865 104.58 20.0865H104.578Z" fill="white"/>
<path d="M100.883 28.1312C100.82 28.1312 100.768 28.0789 100.768 28.0155C100.768 26.0165 101.322 24.066 102.371 22.375C102.404 22.3208 102.475 22.304 102.53 22.3376C102.584 22.3712 102.6 22.4422 102.567 22.4963C101.54 24.15 100.999 26.0575 100.999 28.0136C100.999 28.0771 100.947 28.1293 100.883 28.1293V28.1312Z" fill="white"/>
<path d="M218.729 20.6204C223.398 15.9517 223.398 8.3823 218.729 3.71364C214.061 -0.955015 206.491 -0.955009 201.822 3.71365C197.154 8.38231 197.154 15.9517 201.822 20.6203C206.491 25.289 214.061 25.289 218.729 20.6204Z" fill="url(#paint81_linear_1668_28764)"/>
<path d="M222.21 11.5254H198.321C198.321 11.5254 197.369 18.1607 208.039 36.3366C208.504 37.1299 209.355 37.6039 210.275 37.6039C211.196 37.6039 212.047 37.1392 212.513 36.3459C223.182 18.1682 222.212 11.5254 222.212 11.5254H222.21Z" fill="url(#paint82_linear_1668_28764)"/>
<path opacity="0.8" d="M210.272 37.9938V38.061H210.275C209.234 38.061 208.263 37.488 207.741 36.5977C201.503 25.9736 199.218 19.2561 198.399 15.497C198.166 14.6329 198.031 13.7855 197.988 12.9157C197.915 12.0272 197.971 11.6521 197.977 11.6129L198.009 11.4225C198.49 4.99992 203.836 0.00146484 210.275 0.00146484C216.715 0.00146484 222.193 5.07084 222.559 11.5438C222.568 11.6278 222.585 11.8443 222.579 12.2027V12.2475C222.579 13.4215 222.413 14.5843 222.086 15.7042C221.239 19.4596 218.94 26.1117 212.81 36.5566C212.284 37.4525 211.349 37.9957 210.272 37.9957V37.9938ZM198.647 12.0646C198.643 12.2437 198.649 12.4995 198.681 12.8858C198.72 13.7071 198.847 14.5003 199.069 15.3216L199.073 15.3347C199.879 19.0434 202.141 25.6769 208.336 36.23C208.735 36.9094 209.475 37.3312 210.27 37.3312C210.986 37.3312 211.806 36.9056 212.209 36.2206C218.301 25.843 220.575 19.2468 221.409 15.5418L221.414 15.5213C221.724 14.4611 221.814 13.3599 221.814 12.2493L221.745 12.2008V12.1971C221.745 11.8518 221.803 11.6633 221.797 11.6147L221.831 11.5942C221.491 5.48334 216.418 0.697664 210.258 0.697664C204.099 0.697664 199.03 5.55053 198.679 11.7155L198.669 12.0683H198.647V12.0646Z" fill="white"/>
<path d="M215.195 17.0099C217.891 14.3137 217.891 9.9422 215.195 7.24597C212.498 4.54974 208.127 4.54974 205.431 7.24597C202.735 9.9422 202.735 14.3137 205.431 17.0099C208.127 19.7061 212.498 19.7061 215.195 17.0099Z" fill="white"/>
<path d="M210.314 19.4171C206.295 19.4171 203.025 16.147 203.025 12.1285C203.025 8.10993 206.295 4.83984 210.314 4.83984C214.333 4.83984 217.603 8.10993 217.603 12.1285C217.603 16.147 214.333 19.4171 210.314 19.4171ZM210.314 5.6107C206.721 5.6107 203.796 8.53549 203.796 12.1285C203.796 15.7215 206.721 18.6462 210.314 18.6462C213.907 18.6462 216.832 15.7215 216.832 12.1285C216.832 8.53549 213.907 5.6107 210.314 5.6107Z" fill="url(#paint83_linear_1668_28764)"/>
<path d="M203.766 4.94047C203.734 4.94047 203.7 4.92741 203.678 4.89941C203.637 4.85088 203.642 4.77809 203.691 4.73703C205.63 3.07212 208.109 2.15381 210.668 2.15381C210.731 2.15381 210.784 2.20607 210.784 2.26953C210.784 2.33299 210.731 2.38525 210.668 2.38525C208.163 2.38525 205.738 3.28303 203.842 4.91248C203.82 4.93114 203.794 4.94047 203.767 4.94047H203.766Z" fill="white"/>
<path d="M200.069 12.9847C200.005 12.9847 199.953 12.9325 199.953 12.869C199.953 10.87 200.507 8.91951 201.556 7.22847C201.59 7.17435 201.661 7.15755 201.715 7.19114C201.769 7.22474 201.786 7.29567 201.752 7.3498C200.726 9.0035 200.185 10.9111 200.185 12.8671C200.185 12.9306 200.132 12.9829 200.069 12.9829V12.9847Z" fill="white"/>
<path d="M178.245 58.9451C182.913 54.2764 182.913 46.707 178.245 42.0383C173.576 37.3697 166.007 37.3697 161.338 42.0383C156.669 46.707 156.669 54.2764 161.338 58.9451C166.007 63.6137 173.576 63.6137 178.245 58.9451Z" fill="url(#paint84_linear_1668_28764)"/>
<path d="M181.727 49.8516H157.838C157.838 49.8516 156.886 56.4869 167.557 74.6628C168.022 75.456 168.873 75.9301 169.793 75.9301C170.713 75.9301 171.564 75.4654 172.031 74.6721C182.7 56.4944 181.729 49.8516 181.729 49.8516H181.727Z" fill="url(#paint85_linear_1668_28764)"/>
<path opacity="0.8" d="M169.787 76.3185V76.3857H169.791C168.749 76.3857 167.779 75.8127 167.256 74.9224C161.018 64.2983 158.734 57.5808 157.914 53.8217C157.681 52.9576 157.547 52.1102 157.504 51.2404C157.431 50.3519 157.487 49.9768 157.493 49.9376L157.524 49.7472C158.006 43.3246 163.352 38.3262 169.791 38.3262C176.23 38.3262 181.708 43.3955 182.074 49.8685C182.084 49.9525 182.1 50.169 182.095 50.5274V50.5722C182.095 51.7462 181.929 52.909 181.602 54.0289C180.755 57.7843 178.455 64.4365 172.326 74.8813C171.799 75.7772 170.864 76.3204 169.787 76.3204V76.3185ZM158.163 50.3893C158.159 50.5685 158.165 50.8242 158.196 51.2105C158.235 52.0318 158.362 52.825 158.585 53.6463L158.588 53.6594C159.395 57.3681 161.657 64.0016 167.852 74.5547C168.251 75.2341 168.99 75.6559 169.785 75.6559C170.502 75.6559 171.321 75.2303 171.725 74.5453C177.817 64.1677 180.09 57.5715 180.925 53.8665L180.93 53.846C181.24 52.7858 181.33 51.6846 181.33 50.5741L181.26 50.5255V50.5218C181.26 50.1765 181.318 49.988 181.313 49.9395L181.346 49.9189C181.007 43.808 175.934 39.0224 169.774 39.0224C163.615 39.0224 158.545 43.8752 158.194 50.0402L158.185 50.393H158.163V50.3893Z" fill="white"/>
<path d="M174.714 55.3365C177.41 52.6403 177.41 48.2689 174.714 45.5726C172.018 42.8764 167.647 42.8764 164.95 45.5726C162.254 48.2689 162.254 52.6403 164.95 55.3366C167.647 58.0328 172.018 58.0328 174.714 55.3365Z" fill="white"/>
<path d="M169.832 57.7433C165.813 57.7433 162.543 54.4732 162.543 50.4546C162.543 46.4361 165.813 43.166 169.832 43.166C173.85 43.166 177.12 46.4361 177.12 50.4546C177.12 54.4732 173.85 57.7433 169.832 57.7433ZM169.832 43.9369C166.239 43.9369 163.314 46.8598 163.314 50.4546C163.314 54.0495 166.239 56.9724 169.832 56.9724C173.425 56.9724 176.349 54.0476 176.349 50.4546C176.349 46.8617 173.425 43.9369 169.832 43.9369Z" fill="url(#paint86_linear_1668_28764)"/>
<path d="M163.283 43.2666C163.251 43.2666 163.218 43.2536 163.195 43.2256C163.154 43.1771 163.16 43.1043 163.208 43.0632C165.148 41.3983 167.626 40.48 170.185 40.48C170.249 40.48 170.301 40.5322 170.301 40.5957C170.301 40.6592 170.249 40.7114 170.185 40.7114C167.681 40.7114 165.256 41.6092 163.36 43.2386C163.337 43.2573 163.311 43.2666 163.285 43.2666H163.283Z" fill="white"/>
<path d="M159.586 51.3094C159.523 51.3094 159.471 51.2572 159.471 51.1937C159.471 49.1947 160.025 47.2442 161.074 45.5532C161.108 45.4991 161.179 45.4823 161.233 45.5159C161.287 45.5494 161.304 45.6204 161.27 45.6745C160.243 47.3282 159.702 49.2358 159.702 51.1918C159.702 51.2553 159.65 51.3076 159.586 51.3076V51.3094Z" fill="white"/>
<path d="M98.9753 89.7092C103.644 85.0406 103.644 77.4712 98.9753 72.8025C94.3066 68.1339 86.7372 68.1339 82.0686 72.8025C77.3999 77.4712 77.3999 85.0406 82.0686 89.7092C86.7372 94.3779 94.3066 94.3779 98.9753 89.7092Z" fill="url(#paint87_linear_1668_28764)"/>
<path d="M102.456 80.6133H78.5667C78.5667 80.6133 77.6148 87.2486 88.2855 105.424C88.7503 106.218 89.6014 106.692 90.5216 106.692C91.4418 106.692 92.2929 106.227 92.7595 105.434C103.428 87.2561 102.458 80.6133 102.458 80.6133H102.456Z" fill="url(#paint88_linear_1668_28764)"/>
<path opacity="0.8" d="M90.5176 107.082V107.149H90.5214C89.4799 107.149 88.5093 106.576 87.9867 105.686C81.7489 95.062 79.4643 88.3445 78.6449 84.5854C78.4116 83.7212 78.2772 82.8738 78.2343 82.0041C78.1615 81.1156 78.2175 80.7405 78.2231 80.7013L78.2548 80.5109C78.7364 74.0883 84.082 69.0898 90.5214 69.0898C96.9608 69.0898 102.439 74.1592 102.805 80.6322C102.814 80.7162 102.831 80.9327 102.825 81.2911V81.3359C102.825 82.5099 102.659 83.6727 102.333 84.7926C101.485 88.548 99.1856 95.2001 93.0561 105.645C92.5297 106.541 91.5946 107.084 90.5176 107.084V107.082ZM78.8932 81.1529C78.8894 81.3321 78.895 81.5878 78.9268 81.9742C78.966 82.7955 79.0929 83.5887 79.315 84.41L79.3187 84.423C80.125 88.1317 82.3872 94.7652 88.5821 105.318C88.9815 105.998 89.7207 106.42 90.5158 106.42C91.2325 106.42 92.0519 105.994 92.4551 105.309C98.5473 94.9314 100.821 88.3352 101.655 84.6302L101.661 84.6097C101.97 83.5495 102.06 82.4483 102.06 81.3377L101.991 81.2892V81.2855C101.991 80.9402 102.049 80.7517 102.043 80.7031L102.077 80.6826C101.737 74.5717 96.664 69.786 90.5046 69.786C84.3452 69.786 79.2758 74.6389 78.9249 80.8039L78.9156 81.1567H78.8932V81.1529Z" fill="white"/>
<path d="M96.9403 83.8582C98.3995 80.3354 96.7266 76.2967 93.2038 74.8376C89.681 73.3784 85.6423 75.0512 84.1831 78.574C82.7239 82.0968 84.3968 86.1355 87.9196 87.5947C91.4424 89.0539 95.4811 87.381 96.9403 83.8582Z" fill="white"/>
<path d="M90.5621 88.505C86.5435 88.505 83.2734 85.2349 83.2734 81.2164C83.2734 77.1978 86.5435 73.9277 90.5621 73.9277C94.5806 73.9277 97.8507 77.1978 97.8507 81.2164C97.8507 85.2349 94.5806 88.505 90.5621 88.505ZM90.5621 74.6986C86.9691 74.6986 84.0443 77.6234 84.0443 81.2164C84.0443 84.8094 86.9691 87.7341 90.5621 87.7341C94.1551 87.7341 97.0798 84.8094 97.0798 81.2164C97.0798 77.6234 94.1551 74.6986 90.5621 74.6986Z" fill="url(#paint89_linear_1668_28764)"/>
<path d="M84.0136 74.0284C83.9819 74.0284 83.9483 74.0153 83.9259 73.9873C83.8848 73.9388 83.8904 73.866 83.9389 73.8249C85.8782 72.16 88.3569 71.2417 90.9159 71.2417C90.9793 71.2417 91.0316 71.294 91.0316 71.3574C91.0316 71.4209 90.9793 71.4731 90.9159 71.4731C88.411 71.4731 85.9865 72.3709 84.0901 74.0004C84.0677 74.019 84.0416 74.0284 84.0155 74.0284H84.0136Z" fill="white"/>
<path d="M80.3169 82.0726C80.2534 82.0726 80.2012 82.0204 80.2012 81.9569C80.2012 79.9579 80.7555 78.0074 81.8045 76.3164C81.8381 76.2622 81.909 76.2454 81.9631 76.279C82.0173 76.3126 82.0341 76.3836 82.0005 76.4377C80.9739 78.0914 80.4326 79.9989 80.4326 81.955C80.4326 82.0185 80.3804 82.0707 80.3169 82.0707V82.0726Z" fill="white"/>
<g opacity="0.6">
<path d="M196.573 79.7171C198.102 72.4658 201.902 74.9538 208.269 72.7233C214.632 70.4929 212.771 62.5361 216.72 60.0798C221.987 56.8059 226.824 59.8446 230.099 64.1412C235.544 71.2787 239.267 65.4739 245.774 68.367C249.501 70.0244 247.911 72.3463 252.954 73.2796C256.478 73.9328 260.292 72.3948 263.765 73.3356C266.337 74.0318 268.204 75.2524 268.771 77.7442C268.045 78.0858 267.293 78.3956 266.518 78.6737C256.796 82.179 243.532 81.0087 233.705 81.5238C230.355 81.6993 195.489 84.8536 196.572 79.7152L196.573 79.7171Z" fill="white"/>
<path d="M282.223 55.3109C283.894 53.2708 286.386 52.4309 288.827 53.0412C291.488 53.7076 292.993 56.2497 295.47 57.267C299.791 59.042 305.767 55.5349 309.05 60.1096C313.065 65.7053 316.167 61.5076 316.167 65.3059C316.167 69.1042 288.431 66.3045 274.746 66.5042C272.769 66.5322 264.185 66.3885 267.879 62.2841C269.027 61.0093 270.664 60.7965 272.191 60.4979C274.181 60.1096 278.912 59.895 280.355 58.3477C281.131 57.5152 281.43 56.3169 282.13 55.4247C282.162 55.3855 282.192 55.3463 282.223 55.3072V55.3109Z" fill="white"/>
</g>
<path d="M124.317 192.58C124.317 192.58 120.965 193.698 118.794 198.485C118.2 199.794 114.977 200.027 114.645 202.713C114.473 204.1 113.446 205.21 112.065 205.421C108.625 205.947 103.324 207.734 102.477 213.706C101.829 218.264 104.153 219.993 106.593 220.592C108.385 221.03 109.573 222.774 109.211 224.582C108.864 226.316 109.381 228.323 112.386 229.907C119.121 233.461 125.845 221.49 125.845 221.49L127.223 200.587L124.317 192.58Z" fill="url(#paint90_linear_1668_28764)"/>
<path d="M145.956 191.932C145.956 191.932 137.568 205.201 127.594 207.764C127.594 207.764 129.537 213.3 131.037 213.932C131.037 213.932 143.31 203.693 146.462 193.817L145.956 191.932Z" fill="url(#paint91_linear_1668_28764)"/>
<path d="M105.827 276.794L105.554 279.028C105.502 279.452 105.17 279.788 104.744 279.836C104.027 279.918 102.878 280.002 101.752 279.883C101.258 279.831 100.938 279.33 101.088 278.858C101.362 277.996 101.864 276.7 102.587 275.937H105.065C105.524 275.937 105.879 276.338 105.823 276.794H105.827Z" fill="url(#paint92_linear_1668_28764)"/>
<path d="M125.245 250.613L125.663 253.075C125.663 253.075 124.261 267.269 124.013 272.947C123.974 273.837 124.204 274.717 124.672 275.476L127.11 279.433L120.917 275.779L120.794 275.023L121.807 273.628L120.48 257.728C120.402 256.795 120.594 255.858 121.034 255.029L122.315 252.623L125.245 250.613Z" fill="url(#paint93_linear_1668_28764)"/>
<path d="M127.516 280.006H125.54C125.17 280.006 124.821 279.836 124.595 279.543C123.979 278.742 122.703 277.18 122.092 277.139C121.271 277.085 121.375 280.006 121.375 280.006H120.914L120.33 276.376C120.183 275.463 120.638 274.558 121.458 274.13C121.458 274.13 121.646 275.519 122.663 276.133C123.682 276.747 126.807 278.948 126.807 278.948C126.807 278.948 127.19 278.894 127.61 278.968C128.233 279.08 128.145 280.004 127.512 280.004L127.516 280.006Z" fill="url(#paint94_linear_1668_28764)"/>
<path d="M116.763 251.783C116.763 251.783 108.554 267.355 107.247 270.91C105.943 274.466 105.485 277.432 105.468 277.714C105.44 278.152 104.895 278.574 103.391 278.574C102.615 278.574 102.234 278.263 102.047 277.962C101.889 277.704 101.879 277.383 102.014 277.113C102.488 276.152 103.996 273.081 104.554 271.687C105.22 270.024 106.654 262.487 107.439 259.866C108.225 257.246 109.114 254.403 112.537 251.785C112.537 251.785 114.887 249.483 116.761 251.785L116.763 251.783Z" fill="url(#paint95_linear_1668_28764)"/>
<path d="M121.949 226.266C124.067 217.292 118.701 212.217 118.701 212.217C122.087 208.968 128.254 207.489 128.254 207.489C128.254 207.489 134.139 211.792 133.441 215.159C133.032 217.133 129.305 226.981 129.305 226.981C129.305 226.981 125.857 228.612 121.949 226.264V226.266Z" fill="url(#paint96_linear_1668_28764)"/>
<path d="M117.253 230.708C118.116 228.112 121.949 226.266 121.949 226.266C125.858 228.614 129.305 226.983 129.305 226.983C129.305 226.983 130.078 229.937 129.544 232.683C129.01 235.429 125.664 253.074 125.664 253.074C120.389 254.144 112.277 251.999 112.277 251.999C115.637 246.034 116.391 233.305 117.253 230.708Z" fill="url(#paint97_linear_1668_28764)"/>
<path d="M124.408 201.56L122.687 209.292C122.523 209.974 123.142 209.862 123.831 209.733C124.958 209.52 126.412 209.082 126.898 208.204C126.946 208.115 126.972 208.014 126.985 207.913L127.724 202.551C127.782 202.125 127.553 201.713 127.161 201.539L125.733 200.906C125.184 200.662 124.548 200.975 124.406 201.562L124.408 201.56Z" fill="url(#paint98_linear_1668_28764)"/>
<path d="M127.708 194.51C127.708 194.51 129.541 195.751 130.328 198.911C131.116 202.071 129.836 203.204 128.523 203.135C127.211 203.066 125.309 202.659 123.661 200.393C122.013 198.127 125.306 192.994 127.708 194.51Z" fill="url(#paint99_linear_1668_28764)"/>
<path d="M125.322 199.116C125.322 199.116 124.65 194.588 128.409 195.281L129.168 196.072C129.168 196.072 131.009 194 128.972 192.434C126.936 190.868 124.11 191.27 122.548 194.12C120.984 196.972 120.416 198.975 121.727 200.748C123.037 202.519 124.023 201 124.023 201C124.023 201 123.422 199.465 123.92 198.808C124.418 198.15 125.062 199.191 125.062 199.191L125.32 199.116H125.322Z" fill="url(#paint100_linear_1668_28764)"/>
<path d="M145.898 194.663C145.924 194.937 144.905 195.126 144.582 193.959C144.672 193.453 144.828 191.234 145.219 190.889C147.287 189.054 150.977 186.988 150.977 186.988C151.389 187.617 150.848 188.033 150.848 188.033L149.006 189.276C149.198 189.913 149.478 190.474 149.51 191.2C149.534 191.751 149.33 192.289 148.965 192.707C148.599 193.125 148.104 193.666 147.66 194.077C146.818 194.853 145.898 194.663 145.898 194.663Z" fill="url(#paint101_linear_1668_28764)"/>
<path d="M146.887 193.754L146.629 193.647C146.667 193.556 147.549 191.411 147.975 190.967C148.139 190.795 148.22 190.646 148.212 190.527C148.208 190.458 148.173 190.39 148.108 190.323L146.607 191.126L145.946 192.16L145.711 192.009L146.411 190.913L148.147 189.985L148.219 190.045C148.393 190.187 148.483 190.338 148.494 190.51C148.507 190.713 148.404 190.928 148.18 191.161C147.857 191.499 147.141 193.149 146.891 193.756L146.887 193.754Z" fill="url(#paint102_linear_1668_28764)"/>
<path d="M118.702 212.217C118.702 212.217 109.17 231.787 105.719 233.499C105.719 233.499 102.213 233.865 100.069 234.514C99.5293 234.677 99.548 235.444 100.091 235.591C101.584 235.998 104.059 236.34 106.327 235.108C106.327 235.108 105.108 236.933 105.819 237.644C105.819 237.644 107.443 235.716 108.054 235.108C108.589 234.572 118.351 223.929 122.454 217.512C122.786 216.993 122.554 215.454 122.325 214.882C121.795 213.568 120.619 211.472 118.702 212.219V212.217Z" fill="url(#paint103_linear_1668_28764)"/>
<path opacity="0.44" d="M125.922 192.83C125.115 193.095 124.393 193.578 123.74 194.114C123.083 194.652 122.514 195.292 122.034 195.988C121.554 196.686 121.168 197.446 120.899 198.248C120.765 198.65 120.658 199.056 120.58 199.475C120.5 199.893 120.432 200.318 120.304 200.74C120.179 201.158 119.973 201.576 119.656 201.899C119.346 202.226 118.965 202.461 118.585 202.666C118.202 202.872 117.814 203.049 117.448 203.254C117.08 203.458 116.748 203.704 116.449 203.995C115.852 204.574 115.421 205.313 115.203 206.117C115.087 206.522 114.997 206.944 114.844 207.36C114.695 207.773 114.456 208.185 114.098 208.475C113.747 208.77 113.325 208.947 112.905 209.068C112.483 209.19 112.056 209.261 111.634 209.333C110.796 209.468 109.978 209.686 109.2 210.015C107.658 210.666 106.243 211.758 105.486 213.262C105.11 214.007 104.931 214.854 105.04 215.683C105.152 216.504 105.514 217.313 106.13 217.873C106.436 218.153 106.798 218.373 107.197 218.488C107.597 218.602 108.024 218.615 108.437 218.546C109.258 218.418 110.047 217.891 110.357 217.098L110.422 217.122C110.12 217.951 109.312 218.516 108.459 218.668C108.031 218.75 107.584 218.744 107.158 218.634C106.731 218.52 106.34 218.294 106.01 218.005C105.346 217.419 104.959 216.573 104.83 215.711C104.705 214.839 104.885 213.94 105.269 213.156C105.652 212.368 106.215 211.68 106.878 211.116C107.541 210.55 108.297 210.104 109.092 209.761C109.889 209.421 110.734 209.19 111.583 209.052C112.005 208.977 112.421 208.904 112.821 208.788C113.218 208.671 113.601 208.507 113.905 208.247C114.213 207.991 114.424 207.642 114.568 207.254C114.714 206.868 114.803 206.452 114.924 206.035C115.156 205.192 115.619 204.402 116.253 203.794C116.569 203.488 116.929 203.224 117.312 203.015C117.692 202.803 118.083 202.627 118.456 202.429C118.827 202.231 119.184 202.009 119.464 201.716C119.751 201.429 119.942 201.061 120.067 200.664C120.194 200.268 120.266 199.848 120.352 199.428C120.436 199.006 120.552 198.586 120.694 198.177C120.979 197.36 121.382 196.587 121.881 195.883C122.387 195.185 122.978 194.547 123.658 194.015C124.333 193.487 125.071 193.015 125.899 192.763L125.92 192.83H125.922Z" fill="white"/>
<path opacity="0.44" d="M121.376 198.687C121.35 199.237 121.318 199.79 121.217 200.339C121.118 200.885 120.958 201.434 120.661 201.923C120.514 202.166 120.332 202.394 120.122 202.59C119.913 202.786 119.685 202.954 119.455 203.112C118.992 203.422 118.544 203.723 118.136 204.079C117.32 204.779 116.637 205.654 116.422 206.7C116.178 207.735 116.245 208.883 115.782 209.972C115.547 210.509 115.157 210.974 114.701 211.327C114.246 211.681 113.731 211.941 113.201 212.137C112.131 212.521 111.024 212.657 109.964 212.898C108.913 213.135 107.863 213.537 107.118 214.313C106.758 214.696 106.44 215.17 106.433 215.698C106.427 216.23 106.674 216.739 106.914 217.228L106.853 217.262C106.58 216.79 106.293 216.286 106.272 215.698C106.263 215.409 106.339 215.116 106.466 214.86C106.591 214.602 106.756 214.367 106.942 214.152C107.713 213.296 108.813 212.852 109.884 212.575C110.961 212.29 112.062 212.161 113.066 211.78C114.061 211.409 114.998 210.767 115.405 209.805C115.832 208.848 115.788 207.715 116.051 206.612C116.18 206.058 116.418 205.514 116.753 205.051C117.079 204.581 117.484 204.178 117.921 203.825C118.77 203.084 119.888 202.715 120.456 201.798C120.754 201.356 120.934 200.837 121.055 200.307C121.176 199.775 121.238 199.228 121.301 198.681L121.37 198.687H121.376Z" fill="white"/>
</g>
<defs>
<linearGradient id="paint0_linear_1668_28764" x1="166.439" y1="118.736" x2="108.311" y2="-14.0049" gradientUnits="userSpaceOnUse">
<stop stop-color="#551D9F"/>
<stop offset="1" stop-color="#771CA5"/>
</linearGradient>
<linearGradient id="paint1_linear_1668_28764" x1="52.8047" y1="122.428" x2="276.272" y2="122.428" gradientUnits="userSpaceOnUse">
<stop stop-color="#B37CFF"/>
<stop offset="1" stop-color="#F895E7"/>
</linearGradient>
<linearGradient id="paint2_linear_1668_28764" x1="315.658" y1="155.583" x2="387.899" y2="163.982" gradientUnits="userSpaceOnUse">
<stop stop-color="#CB236D"/>
<stop offset="0.87" stop-color="#5D246D"/>
<stop offset="1" stop-color="#4C246D"/>
</linearGradient>
<linearGradient id="paint3_linear_1668_28764" x1="371.283" y1="-1.86327" x2="324.256" y2="261.267" gradientUnits="userSpaceOnUse">
<stop stop-color="#C32B78"/>
<stop offset="1" stop-color="#593092"/>
</linearGradient>
<linearGradient id="paint4_linear_1668_28764" x1="88.3075" y1="232.183" x2="87.6057" y2="313.745" gradientUnits="userSpaceOnUse">
<stop stop-color="#B37CFF"/>
<stop offset="1" stop-color="#F895E7"/>
</linearGradient>
<linearGradient id="paint5_linear_1668_28764" x1="232.925" y1="284.491" x2="229.601" y2="218.672" gradientUnits="userSpaceOnUse">
<stop stop-color="#2B3582"/>
<stop offset="1" stop-color="#150E42"/>
</linearGradient>
<linearGradient id="paint6_linear_1668_28764" x1="233.132" y1="259.656" x2="202.549" y2="326.806" gradientUnits="userSpaceOnUse">
<stop stop-color="#2B3582"/>
<stop offset="1" stop-color="#150E42"/>
</linearGradient>
<linearGradient id="paint7_linear_1668_28764" x1="124.785" y1="163.511" x2="342.296" y2="163.511" gradientUnits="userSpaceOnUse">
<stop stop-color="#2B3582"/>
<stop offset="1" stop-color="#150E42"/>
</linearGradient>
<linearGradient id="paint8_linear_1668_28764" x1="144.206" y1="79.1517" x2="384.453" y2="295.463" gradientUnits="userSpaceOnUse">
<stop stop-color="#53D8FF"/>
<stop offset="1" stop-color="#3840F7"/>
</linearGradient>
<linearGradient id="paint9_linear_1668_28764" x1="267.269" y1="104.74" x2="221.689" y2="147.996" gradientUnits="userSpaceOnUse">
<stop stop-color="#FDF53F"/>
<stop offset="1" stop-color="#D93C65"/>
</linearGradient>
<linearGradient id="paint10_linear_1668_28764" x1="297.056" y1="107.797" x2="257.458" y2="145.377" gradientUnits="userSpaceOnUse">
<stop stop-color="#FDF53F"/>
<stop offset="1" stop-color="#D93C65"/>
</linearGradient>
<linearGradient id="paint11_linear_1668_28764" x1="330.75" y1="107.907" x2="291.151" y2="145.487" gradientUnits="userSpaceOnUse">
<stop stop-color="#FDF53F"/>
<stop offset="1" stop-color="#D93C65"/>
</linearGradient>
<linearGradient id="paint12_linear_1668_28764" x1="198.811" y1="166.462" x2="200.211" y2="263.949" gradientUnits="userSpaceOnUse">
<stop stop-color="#FDF53F"/>
<stop offset="1" stop-color="#D93C65"/>
</linearGradient>
<linearGradient id="paint13_linear_1668_28764" x1="286.065" y1="159.261" x2="211.294" y2="229.718" gradientUnits="userSpaceOnUse">
<stop stop-color="#FDF53F"/>
<stop offset="1" stop-color="#D93C65"/>
</linearGradient>
<linearGradient id="paint14_linear_1668_28764" x1="293.076" y1="162.123" x2="216.178" y2="234.584" gradientUnits="userSpaceOnUse">
<stop stop-color="#FDF53F"/>
<stop offset="1" stop-color="#D93C65"/>
</linearGradient>
<linearGradient id="paint15_linear_1668_28764" x1="292.342" y1="164.178" x2="219.189" y2="233.113" gradientUnits="userSpaceOnUse">
<stop stop-color="#FDF53F"/>
<stop offset="1" stop-color="#D93C65"/>
</linearGradient>
<linearGradient id="paint16_linear_1668_28764" x1="304.939" y1="167.211" x2="224.324" y2="243.175" gradientUnits="userSpaceOnUse">
<stop stop-color="#FDF53F"/>
<stop offset="1" stop-color="#D93C65"/>
</linearGradient>
<linearGradient id="paint17_linear_1668_28764" x1="307.664" y1="163.549" x2="222.042" y2="244.23" gradientUnits="userSpaceOnUse">
<stop stop-color="#FDF53F"/>
<stop offset="1" stop-color="#D93C65"/>
</linearGradient>
<linearGradient id="paint18_linear_1668_28764" x1="308.046" y1="173.682" x2="233.607" y2="243.827" gradientUnits="userSpaceOnUse">
<stop stop-color="#FDF53F"/>
<stop offset="1" stop-color="#D93C65"/>
</linearGradient>
<linearGradient id="paint19_linear_1668_28764" x1="313.895" y1="176.973" x2="238.26" y2="248.244" gradientUnits="userSpaceOnUse">
<stop stop-color="#FDF53F"/>
<stop offset="1" stop-color="#D93C65"/>
</linearGradient>
<linearGradient id="paint20_linear_1668_28764" x1="313.819" y1="177.542" x2="241.256" y2="245.919" gradientUnits="userSpaceOnUse">
<stop stop-color="#FDF53F"/>
<stop offset="1" stop-color="#D93C65"/>
</linearGradient>
<linearGradient id="paint21_linear_1668_28764" x1="322.796" y1="174.959" x2="235.954" y2="256.789" gradientUnits="userSpaceOnUse">
<stop stop-color="#FDF53F"/>
<stop offset="1" stop-color="#D93C65"/>
</linearGradient>
<linearGradient id="paint22_linear_1668_28764" x1="324.917" y1="184.618" x2="251.316" y2="253.975" gradientUnits="userSpaceOnUse">
<stop stop-color="#FDF53F"/>
<stop offset="1" stop-color="#D93C65"/>
</linearGradient>
<linearGradient id="paint23_linear_1668_28764" x1="334.91" y1="189.131" x2="253.632" y2="265.72" gradientUnits="userSpaceOnUse">
<stop stop-color="#FDF53F"/>
<stop offset="1" stop-color="#D93C65"/>
</linearGradient>
<linearGradient id="paint24_linear_1668_28764" x1="335.511" y1="191.369" x2="260.581" y2="261.976" gradientUnits="userSpaceOnUse">
<stop stop-color="#FDF53F"/>
<stop offset="1" stop-color="#D93C65"/>
</linearGradient>
<linearGradient id="paint25_linear_1668_28764" x1="134.891" y1="91.8816" x2="184.344" y2="180.082" gradientUnits="userSpaceOnUse">
<stop stop-color="#B37CFF"/>
<stop offset="1" stop-color="#F895E7"/>
</linearGradient>
<linearGradient id="paint26_linear_1668_28764" x1="136.868" y1="89.2495" x2="131.03" y2="379.16" gradientUnits="userSpaceOnUse">
<stop stop-color="#B37CFF"/>
<stop offset="1" stop-color="#F895E7"/>
</linearGradient>
<linearGradient id="paint27_linear_1668_28764" x1="139.971" y1="89.6694" x2="134.144" y2="379.083" gradientUnits="userSpaceOnUse">
<stop stop-color="#B37CFF"/>
<stop offset="1" stop-color="#F895E7"/>
</linearGradient>
<linearGradient id="paint28_linear_1668_28764" x1="142.742" y1="89.5538" x2="136.898" y2="379.783" gradientUnits="userSpaceOnUse">
<stop stop-color="#B37CFF"/>
<stop offset="1" stop-color="#F895E7"/>
</linearGradient>
<linearGradient id="paint29_linear_1668_28764" x1="146.066" y1="90.5749" x2="140.263" y2="378.824" gradientUnits="userSpaceOnUse">
<stop stop-color="#B37CFF"/>
<stop offset="1" stop-color="#F895E7"/>
</linearGradient>
<linearGradient id="paint30_linear_1668_28764" x1="148.816" y1="90.03" x2="142.974" y2="380.164" gradientUnits="userSpaceOnUse">
<stop stop-color="#B37CFF"/>
<stop offset="1" stop-color="#F895E7"/>
</linearGradient>
<linearGradient id="paint31_linear_1668_28764" x1="151.891" y1="90.3116" x2="146.053" y2="380.291" gradientUnits="userSpaceOnUse">
<stop stop-color="#B37CFF"/>
<stop offset="1" stop-color="#F895E7"/>
</linearGradient>
<linearGradient id="paint32_linear_1668_28764" x1="154.969" y1="90.6347" x2="149.134" y2="380.356" gradientUnits="userSpaceOnUse">
<stop stop-color="#B37CFF"/>
<stop offset="1" stop-color="#F895E7"/>
</linearGradient>
<linearGradient id="paint33_linear_1668_28764" x1="157.7" y1="90.6011" x2="151.855" y2="380.939" gradientUnits="userSpaceOnUse">
<stop stop-color="#B37CFF"/>
<stop offset="1" stop-color="#F895E7"/>
</linearGradient>
<linearGradient id="paint34_linear_1668_28764" x1="160.764" y1="90.8455" x2="154.919" y2="381.12" gradientUnits="userSpaceOnUse">
<stop stop-color="#B37CFF"/>
<stop offset="1" stop-color="#F895E7"/>
</linearGradient>
<linearGradient id="paint35_linear_1668_28764" x1="163.855" y1="91.1162" x2="158.012" y2="381.263" gradientUnits="userSpaceOnUse">
<stop stop-color="#B37CFF"/>
<stop offset="1" stop-color="#F895E7"/>
</linearGradient>
<linearGradient id="paint36_linear_1668_28764" x1="167.137" y1="92.1988" x2="161.34" y2="380.184" gradientUnits="userSpaceOnUse">
<stop stop-color="#B37CFF"/>
<stop offset="1" stop-color="#F895E7"/>
</linearGradient>
<linearGradient id="paint37_linear_1668_28764" x1="169.977" y1="91.661" x2="164.141" y2="381.537" gradientUnits="userSpaceOnUse">
<stop stop-color="#B37CFF"/>
<stop offset="1" stop-color="#F895E7"/>
</linearGradient>
<linearGradient id="paint38_linear_1668_28764" x1="320.257" y1="205.177" x2="308.582" y2="205.177" gradientUnits="userSpaceOnUse">
<stop stop-color="#F9B776"/>
<stop offset="1" stop-color="#F47960"/>
</linearGradient>
<linearGradient id="paint39_linear_1668_28764" x1="318.259" y1="247.033" x2="318.009" y2="274.489" gradientUnits="userSpaceOnUse">
<stop stop-color="#CB236D"/>
<stop offset="1" stop-color="#4C246D"/>
</linearGradient>
<linearGradient id="paint40_linear_1668_28764" x1="323.977" y1="264.873" x2="320.869" y2="264.873" gradientUnits="userSpaceOnUse">
<stop stop-color="#F9B776"/>
<stop offset="1" stop-color="#F47960"/>
</linearGradient>
<linearGradient id="paint41_linear_1668_28764" x1="491.908" y1="30.5277" x2="437.028" y2="99.4085" gradientUnits="userSpaceOnUse">
<stop stop-color="#53D8FF"/>
<stop offset="1" stop-color="#3840F7"/>
</linearGradient>
<linearGradient id="paint42_linear_1668_28764" x1="333.543" y1="247.173" x2="333.293" y2="274.627" gradientUnits="userSpaceOnUse">
<stop stop-color="#CB236D"/>
<stop offset="1" stop-color="#4C246D"/>
</linearGradient>
<linearGradient id="paint43_linear_1668_28764" x1="335.184" y1="264.712" x2="332.5" y2="264.712" gradientUnits="userSpaceOnUse">
<stop stop-color="#F9B776"/>
<stop offset="1" stop-color="#F47960"/>
</linearGradient>
<linearGradient id="paint44_linear_1668_28764" x1="494.832" y1="32.8573" x2="439.951" y2="101.736" gradientUnits="userSpaceOnUse">
<stop stop-color="#53D8FF"/>
<stop offset="1" stop-color="#3840F7"/>
</linearGradient>
<linearGradient id="paint45_linear_1668_28764" x1="325.829" y1="192.46" x2="341.981" y2="234.953" gradientUnits="userSpaceOnUse">
<stop stop-color="#FDF53F"/>
<stop offset="1" stop-color="#D93C65"/>
</linearGradient>
<linearGradient id="paint46_linear_1668_28764" x1="335.813" y1="188.666" x2="351.966" y2="231.158" gradientUnits="userSpaceOnUse">
<stop stop-color="#FDF53F"/>
<stop offset="1" stop-color="#D93C65"/>
</linearGradient>
<linearGradient id="paint47_linear_1668_28764" x1="345.274" y1="206.257" x2="325.174" y2="206.257" gradientUnits="userSpaceOnUse">
<stop stop-color="#F9B776"/>
<stop offset="1" stop-color="#F47960"/>
</linearGradient>
<linearGradient id="paint48_linear_1668_28764" x1="323.398" y1="186.4" x2="314.597" y2="207.047" gradientUnits="userSpaceOnUse">
<stop stop-color="#2B3582"/>
<stop offset="1" stop-color="#150E42"/>
</linearGradient>
<linearGradient id="paint49_linear_1668_28764" x1="312.17" y1="184.707" x2="314.524" y2="195.046" gradientUnits="userSpaceOnUse">
<stop stop-color="#2B3582"/>
<stop offset="1" stop-color="#150E42"/>
</linearGradient>
<linearGradient id="paint50_linear_1668_28764" x1="313.402" y1="189.043" x2="314.527" y2="195.8" gradientUnits="userSpaceOnUse">
<stop stop-color="#2B3582"/>
<stop offset="1" stop-color="#150E42"/>
</linearGradient>
<linearGradient id="paint51_linear_1668_28764" x1="326.664" y1="204.15" x2="320.402" y2="204.15" gradientUnits="userSpaceOnUse">
<stop stop-color="#F9B776"/>
<stop offset="1" stop-color="#F47960"/>
</linearGradient>
<linearGradient id="paint52_linear_1668_28764" x1="306.901" y1="200.813" x2="312.207" y2="197.485" gradientUnits="userSpaceOnUse">
<stop stop-color="#F9B776"/>
<stop offset="1" stop-color="#F47960"/>
</linearGradient>
<linearGradient id="paint53_linear_1668_28764" x1="329.506" y1="185.39" x2="321.559" y2="185.39" gradientUnits="userSpaceOnUse">
<stop stop-color="#F9B776"/>
<stop offset="1" stop-color="#F47960"/>
</linearGradient>
<linearGradient id="paint54_linear_1668_28764" x1="319.769" y1="180.253" x2="328.507" y2="174.922" gradientUnits="userSpaceOnUse">
<stop stop-color="#F9B776"/>
<stop offset="1" stop-color="#F47960"/>
</linearGradient>
<linearGradient id="paint55_linear_1668_28764" x1="333.134" y1="169.304" x2="321.845" y2="178.222" gradientUnits="userSpaceOnUse">
<stop stop-color="#2B3582"/>
<stop offset="1" stop-color="#150E42"/>
</linearGradient>
<linearGradient id="paint56_linear_1668_28764" x1="322.065" y1="182.241" x2="329.927" y2="177.444" gradientUnits="userSpaceOnUse">
<stop stop-color="#F9B776"/>
<stop offset="1" stop-color="#F47960"/>
</linearGradient>
<linearGradient id="paint57_linear_1668_28764" x1="334.557" y1="176.81" x2="351.464" y2="203.903" gradientUnits="userSpaceOnUse">
<stop stop-color="#F9B776"/>
<stop offset="1" stop-color="#F47960"/>
</linearGradient>
<linearGradient id="paint58_linear_1668_28764" x1="381.501" y1="174.406" x2="364.426" y2="185.792" gradientUnits="userSpaceOnUse">
<stop stop-color="#2B3582"/>
<stop offset="1" stop-color="#150E42"/>
</linearGradient>
<linearGradient id="paint59_linear_1668_28764" x1="357.172" y1="199.689" x2="368.895" y2="234.859" gradientUnits="userSpaceOnUse">
<stop stop-color="#53D8FF"/>
<stop offset="1" stop-color="#3840F7"/>
</linearGradient>
<linearGradient id="paint60_linear_1668_28764" x1="355.393" y1="195.645" x2="358.563" y2="188.605" gradientUnits="userSpaceOnUse">
<stop stop-color="#F9B776"/>
<stop offset="1" stop-color="#F47960"/>
</linearGradient>
<linearGradient id="paint61_linear_1668_28764" x1="355.228" y1="178.537" x2="361.662" y2="192.463" gradientUnits="userSpaceOnUse">
<stop stop-color="#F9B776"/>
<stop offset="1" stop-color="#F47960"/>
</linearGradient>
<linearGradient id="paint62_linear_1668_28764" x1="376.91" y1="167.525" x2="359.835" y2="178.911" gradientUnits="userSpaceOnUse">
<stop stop-color="#2B3582"/>
<stop offset="1" stop-color="#150E42"/>
</linearGradient>
<linearGradient id="paint63_linear_1668_28764" x1="358.255" y1="177.139" x2="364.687" y2="191.064" gradientUnits="userSpaceOnUse">
<stop stop-color="#F9B776"/>
<stop offset="1" stop-color="#F47960"/>
</linearGradient>
<linearGradient id="paint64_linear_1668_28764" x1="373.175" y1="283.193" x2="349.56" y2="240.575" gradientUnits="userSpaceOnUse">
<stop stop-color="#F9B776"/>
<stop offset="1" stop-color="#F47960"/>
</linearGradient>
<linearGradient id="paint65_linear_1668_28764" x1="368.082" y1="268.157" x2="361.062" y2="268.091" gradientUnits="userSpaceOnUse">
<stop stop-color="#2B3582"/>
<stop offset="1" stop-color="#150E42"/>
</linearGradient>
<linearGradient id="paint66_linear_1668_28764" x1="346.254" y1="251.576" x2="382.063" y2="263.4" gradientUnits="userSpaceOnUse">
<stop stop-color="#F9B776"/>
<stop offset="1" stop-color="#F47960"/>
</linearGradient>
<linearGradient id="paint67_linear_1668_28764" x1="361.56" y1="269.363" x2="353.191" y2="269.284" gradientUnits="userSpaceOnUse">
<stop stop-color="#2B3582"/>
<stop offset="1" stop-color="#150E42"/>
</linearGradient>
<linearGradient id="paint68_linear_1668_28764" x1="346.172" y1="244.138" x2="378.996" y2="202.226" gradientUnits="userSpaceOnUse">
<stop stop-color="#2B3582"/>
<stop offset="1" stop-color="#150E42"/>
</linearGradient>
<linearGradient id="paint69_linear_1668_28764" x1="370.897" y1="217.449" x2="337.047" y2="167.267" gradientUnits="userSpaceOnUse">
<stop stop-color="#F9B776"/>
<stop offset="1" stop-color="#F47960"/>
</linearGradient>
<linearGradient id="paint70_linear_1668_28764" x1="58.6035" y1="111.397" x2="37.9559" y2="367.73" gradientUnits="userSpaceOnUse">
<stop stop-color="#CB236D"/>
<stop offset="0.87" stop-color="#5D246D"/>
<stop offset="1" stop-color="#4C246D"/>
</linearGradient>
<linearGradient id="paint71_linear_1668_28764" x1="-2.64101" y1="102.504" x2="92.1398" y2="316.008" gradientUnits="userSpaceOnUse">
<stop stop-color="#C32B78"/>
<stop offset="1" stop-color="#593092"/>
</linearGradient>
<linearGradient id="paint72_linear_1668_28764" x1="82.7562" y1="275.673" x2="57.3344" y2="78.9345" gradientUnits="userSpaceOnUse">
<stop stop-color="#7A2DDB"/>
<stop offset="1" stop-color="#7077FF"/>
</linearGradient>
<linearGradient id="paint73_linear_1668_28764" x1="21.7758" y1="-100.52" x2="60.7906" y2="117.776" gradientUnits="userSpaceOnUse">
<stop stop-color="#C32B78"/>
<stop offset="1" stop-color="#593092"/>
</linearGradient>
<linearGradient id="paint74_linear_1668_28764" x1="47.8218" y1="106.891" x2="135.92" y2="253.97" gradientUnits="userSpaceOnUse">
<stop stop-color="#53D8FF"/>
<stop offset="1" stop-color="#3840F7"/>
</linearGradient>
<linearGradient id="paint75_linear_1668_28764" x1="131.128" y1="26.7868" x2="101.242" y2="229.495" gradientUnits="userSpaceOnUse">
<stop stop-color="#C32B78"/>
<stop offset="1" stop-color="#593092"/>
</linearGradient>
<linearGradient id="paint76_linear_1668_28764" x1="146.294" y1="268.522" x2="118.273" y2="194.217" gradientUnits="userSpaceOnUse">
<stop stop-color="#CE1567"/>
<stop offset="1" stop-color="#7A1DBC"/>
</linearGradient>
<linearGradient id="paint77_linear_1668_28764" x1="74.8643" y1="-21.3579" x2="118.945" y2="178.749" gradientUnits="userSpaceOnUse">
<stop stop-color="#C32B78"/>
<stop offset="1" stop-color="#593092"/>
</linearGradient>
<linearGradient id="paint78_linear_1668_28764" x1="99.1284" y1="27.3172" x2="123.04" y2="27.3172" gradientUnits="userSpaceOnUse">
<stop stop-color="#CB236D"/>
<stop offset="1" stop-color="#4C246D"/>
</linearGradient>
<linearGradient id="paint79_linear_1668_28764" x1="99.1127" y1="39.7121" x2="123.047" y2="39.7121" gradientUnits="userSpaceOnUse">
<stop stop-color="#CB236D"/>
<stop offset="1" stop-color="#4C246D"/>
</linearGradient>
<linearGradient id="paint80_linear_1668_28764" x1="134.316" y1="8.71372" x2="54.3555" y2="72.7193" gradientUnits="userSpaceOnUse">
<stop stop-color="#FDF53F"/>
<stop offset="1" stop-color="#D93C65"/>
</linearGradient>
<linearGradient id="paint81_linear_1668_28764" x1="198.319" y1="12.1687" x2="222.231" y2="12.1687" gradientUnits="userSpaceOnUse">
<stop stop-color="#CB236D"/>
<stop offset="1" stop-color="#4C246D"/>
</linearGradient>
<linearGradient id="paint82_linear_1668_28764" x1="198.298" y1="24.5665" x2="222.234" y2="24.5665" gradientUnits="userSpaceOnUse">
<stop stop-color="#CB236D"/>
<stop offset="1" stop-color="#4C246D"/>
</linearGradient>
<linearGradient id="paint83_linear_1668_28764" x1="233.503" y1="-6.43187" x2="153.541" y2="57.5718" gradientUnits="userSpaceOnUse">
<stop stop-color="#FDF53F"/>
<stop offset="1" stop-color="#D93C65"/>
</linearGradient>
<linearGradient id="paint84_linear_1668_28764" x1="157.836" y1="50.4908" x2="181.748" y2="50.4908" gradientUnits="userSpaceOnUse">
<stop stop-color="#CB236D"/>
<stop offset="1" stop-color="#4C246D"/>
</linearGradient>
<linearGradient id="paint85_linear_1668_28764" x1="157.816" y1="62.8908" x2="181.75" y2="62.8908" gradientUnits="userSpaceOnUse">
<stop stop-color="#CB236D"/>
<stop offset="1" stop-color="#4C246D"/>
</linearGradient>
<linearGradient id="paint86_linear_1668_28764" x1="193.021" y1="31.8924" x2="113.059" y2="95.898" gradientUnits="userSpaceOnUse">
<stop stop-color="#FDF53F"/>
<stop offset="1" stop-color="#D93C65"/>
</linearGradient>
<linearGradient id="paint87_linear_1668_28764" x1="78.567" y1="81.2564" x2="102.479" y2="81.2563" gradientUnits="userSpaceOnUse">
<stop stop-color="#CB236D"/>
<stop offset="1" stop-color="#4C246D"/>
</linearGradient>
<linearGradient id="paint88_linear_1668_28764" x1="78.5443" y1="93.6544" x2="102.478" y2="93.6544" gradientUnits="userSpaceOnUse">
<stop stop-color="#CB236D"/>
<stop offset="1" stop-color="#4C246D"/>
</linearGradient>
<linearGradient id="paint89_linear_1668_28764" x1="113.749" y1="62.656" x2="33.7891" y2="126.662" gradientUnits="userSpaceOnUse">
<stop stop-color="#FDF53F"/>
<stop offset="1" stop-color="#D93C65"/>
</linearGradient>
<linearGradient id="paint90_linear_1668_28764" x1="129.401" y1="178.988" x2="119.552" y2="203.696" gradientUnits="userSpaceOnUse">
<stop stop-color="#2B3582"/>
<stop offset="1" stop-color="#150E42"/>
</linearGradient>
<linearGradient id="paint91_linear_1668_28764" x1="139.634" y1="198.258" x2="124.463" y2="219.227" gradientUnits="userSpaceOnUse">
<stop stop-color="#F9B776"/>
<stop offset="1" stop-color="#F47960"/>
</linearGradient>
<linearGradient id="paint92_linear_1668_28764" x1="105.832" y1="277.942" x2="101.054" y2="277.942" gradientUnits="userSpaceOnUse">
<stop stop-color="#2B3582"/>
<stop offset="1" stop-color="#150E42"/>
</linearGradient>
<linearGradient id="paint93_linear_1668_28764" x1="126.029" y1="296.79" x2="119.151" y2="216.398" gradientUnits="userSpaceOnUse">
<stop stop-color="#F9B776"/>
<stop offset="1" stop-color="#F47960"/>
</linearGradient>
<linearGradient id="paint94_linear_1668_28764" x1="128.041" y1="277.068" x2="120.306" y2="277.068" gradientUnits="userSpaceOnUse">
<stop stop-color="#2B3582"/>
<stop offset="1" stop-color="#150E42"/>
</linearGradient>
<linearGradient id="paint95_linear_1668_28764" x1="112.193" y1="297.986" x2="105.314" y2="217.574" gradientUnits="userSpaceOnUse">
<stop stop-color="#F9B776"/>
<stop offset="1" stop-color="#F47960"/>
</linearGradient>
<linearGradient id="paint96_linear_1668_28764" x1="131.567" y1="208.895" x2="114.994" y2="232.351" gradientUnits="userSpaceOnUse">
<stop offset="0.28" stop-color="#FDF53F"/>
<stop offset="1" stop-color="#D93C65"/>
</linearGradient>
<linearGradient id="paint97_linear_1668_28764" x1="135.767" y1="217.869" x2="115.977" y2="250.967" gradientUnits="userSpaceOnUse">
<stop offset="0.28" stop-color="#FDF53F"/>
<stop offset="1" stop-color="#D93C65"/>
</linearGradient>
<linearGradient id="paint98_linear_1668_28764" x1="126.784" y1="217.548" x2="125.492" y2="208.096" gradientUnits="userSpaceOnUse">
<stop stop-color="#F9B776"/>
<stop offset="1" stop-color="#F47960"/>
</linearGradient>
<linearGradient id="paint99_linear_1668_28764" x1="129.177" y1="206.064" x2="122.015" y2="184.192" gradientUnits="userSpaceOnUse">
<stop stop-color="#F9B776"/>
<stop offset="1" stop-color="#F47960"/>
</linearGradient>
<linearGradient id="paint100_linear_1668_28764" x1="130.192" y1="188.452" x2="121.916" y2="201.228" gradientUnits="userSpaceOnUse">
<stop stop-color="#2B3582"/>
<stop offset="1" stop-color="#150E42"/>
</linearGradient>
<linearGradient id="paint101_linear_1668_28764" x1="141.455" y1="199.577" x2="126.285" y2="220.545" gradientUnits="userSpaceOnUse">
<stop stop-color="#F9B776"/>
<stop offset="1" stop-color="#F47960"/>
</linearGradient>
<linearGradient id="paint102_linear_1668_28764" x1="145.709" y1="191.869" x2="148.49" y2="191.869" gradientUnits="userSpaceOnUse">
<stop stop-color="#F9B776"/>
<stop offset="1" stop-color="#F47960"/>
</linearGradient>
<linearGradient id="paint103_linear_1668_28764" x1="99.6749" y1="224.853" x2="122.621" y2="224.853" gradientUnits="userSpaceOnUse">
<stop stop-color="#F9B776"/>
<stop offset="1" stop-color="#F47960"/>
</linearGradient>
<clipPath id="clip0_1668_28764">
<rect width="376" height="280.007" fill="white"/>
</clipPath>
</defs>
</svg>
