<svg width="346" height="341" viewBox="0 0 346 341" fill="none" xmlns="http://www.w3.org/2000/svg">
<g clip-path="url(#clip0_1668_32972)">
<path d="M93.2547 200.274C93.2547 200.274 94.2876 156.831 74.2789 145.203C54.2691 133.576 16.2247 126.306 14.798 63.9261C13.9632 27.4063 13.0592 11.4388 12.4536 4.47612C12.217 1.76016 14.6308 -0.431918 17.3096 0.0733754C36.2606 3.64387 97.8221 18.3382 110.729 60.3569C126.031 110.17 93.2547 200.274 93.2547 200.274Z" fill="url(#paint0_linear_1668_32972)"/>
<path d="M31.9648 17.4293C52.7673 35.9815 76.8207 68.8157 89.6413 101.65C91.2872 107.061 96.1011 118.568 98.1917 139.014C100.059 156.067 99.1304 174.086 96.8665 186.014C96.7228 186.768 95.9959 187.264 95.2416 187.12C93.945 186.874 94.1171 185.479 94.1295 185.524C96.7154 165.145 95.6417 139.78 89.7169 116.893C82.1474 88.7908 65.2646 61.5446 47.8035 38.4361L46.0065 36.1611C32.4775 18.7867 29.629 18.6591 30.8947 17.4479C31.1932 17.1618 31.6614 17.1593 31.9648 17.4293Z" fill="#222669"/>
<path d="M125.408 283.798C128.115 285.125 99.7788 249.492 90.9027 193.528C86.7204 167.156 86.6659 134.115 71.6433 121.382C59.141 110.784 16.5948 117.474 2.67448 120.017C0.934437 120.334 0.349882 122.532 1.70352 123.669C8.37885 129.276 22.6596 142.5 26.3812 155.828C31.2855 173.395 47.9874 184.569 62.9394 187.592C77.8914 190.617 86.2089 193.551 93.4923 217.463C100.777 241.374 117.717 280.026 125.409 283.798H125.408Z" fill="url(#paint1_linear_1668_32972)"/>
<path d="M22.2518 127.439C40.0126 128.183 59.0775 136.285 68.7524 151.483L69.6651 152.933C71.7742 156.334 83.7267 180.506 90.3661 200.544C90.449 200.794 90.3128 201.063 90.0639 201.146C89.6391 201.286 89.4273 200.819 89.4669 200.861C84.8413 189.542 78.1982 175.189 72.9074 164.457C67.234 152.746 63.2635 144.815 50.3216 137.217C35.917 129.035 22.1552 128.193 22.1973 128.202C21.9867 128.181 21.8344 127.993 21.8555 127.783C21.8765 127.581 22.0511 127.432 22.2518 127.44V127.439Z" fill="#1F5AA9"/>
<path d="M113.263 288.485C114.869 289.332 104.213 270.992 103.396 254.834C102.579 238.676 98.9325 211.096 84.9986 194.599C71.0646 178.101 55.8042 176.596 36.5771 191.594C20.5538 204.093 10.5594 210.399 4.69777 211.572C3.24629 211.862 2.50568 213.5 3.21161 214.802C6.97159 221.725 17.6001 237.628 35.4464 236.508C58.2106 235.08 85.7998 220.282 94.209 232.627C102.618 244.972 101.538 251.88 101.796 257.731C102.055 263.581 102.631 282.881 113.262 288.487L113.263 288.485Z" fill="url(#paint2_linear_1668_32972)"/>
<path d="M43.0367 211.403C50.0105 204.718 61.3685 198.148 71.2948 199.373C84.2095 201.454 92.8131 210.078 97.5056 222.916C99.3398 228.368 100.095 231.277 101.179 237.96C101.266 238.494 100.478 238.653 100.348 238.132C99.559 234.994 98.7775 231.707 97.6072 228.308C90.7993 206.379 76.2684 203.426 75.7037 202.977C74.6052 203.086 67.9447 198.1 52.1419 206.603C49.1906 208.209 46.3186 210.042 43.6213 212.065L43.6064 212.076C43.4107 212.222 43.1345 212.182 42.9884 211.988C42.8534 211.807 42.8769 211.557 43.0367 211.405V211.403Z" fill="#222669"/>
<g opacity="0.3">
<path d="M256.634 55.2419C256.1 55.0809 255.765 54.5397 255.871 53.9799C256.105 52.7575 256.395 51.5265 256.734 50.3214C256.899 49.7357 257.508 49.3938 258.094 49.5586C258.102 49.561 258.108 49.5623 258.115 49.5647C258.689 49.7381 259.021 50.3388 258.857 50.9184C258.535 52.0627 258.259 53.2318 258.037 54.3935C257.923 54.9917 257.346 55.383 256.748 55.2691C256.71 55.2617 256.673 55.2518 256.635 55.2419H256.634ZM259.479 46.0723C259.438 46.0599 259.397 46.045 259.356 46.0277C258.799 45.785 258.543 45.1348 258.787 44.5774C259.287 43.4319 259.841 42.295 260.432 41.2014C260.722 40.6664 261.389 40.467 261.926 40.7568C262.461 41.0466 262.661 41.7154 262.371 42.2504C261.807 43.2907 261.282 44.3694 260.807 45.4592C260.581 45.9769 260.006 46.2333 259.479 46.0735V46.0723ZM264.272 37.7572C264.154 37.7213 264.041 37.6656 263.936 37.5888C263.447 37.2272 263.342 36.5373 263.703 36.0481C264.444 35.0438 265.238 34.0604 266.061 33.1229C266.464 32.6659 267.16 32.6226 267.617 33.0238C268.074 33.4263 268.118 34.1223 267.716 34.5793C266.933 35.4698 266.179 36.4036 265.476 37.3572C265.192 37.7424 264.704 37.8897 264.271 37.7585L264.272 37.7572ZM270.805 30.7215C270.61 30.6633 270.431 30.5494 270.288 30.3846C269.892 29.9227 269.944 29.2267 270.406 28.8304C271.353 28.0167 272.347 27.2352 273.36 26.5058C273.854 26.1503 274.542 26.263 274.898 26.7559C275.253 27.2501 275.142 27.9387 274.648 28.2941C273.687 28.9864 272.742 29.7295 271.842 30.5023C271.546 30.7562 271.153 30.8255 270.805 30.7203V30.7215ZM278.743 25.3193C278.471 25.2376 278.23 25.0506 278.088 24.7794C277.803 24.2406 278.01 23.5743 278.548 23.2907C279.649 22.7086 280.79 22.1662 281.941 21.6782C282.501 21.4405 283.148 21.7018 283.386 22.2616C283.624 22.8213 283.363 23.4691 282.802 23.7069C281.708 24.17 280.623 24.6865 279.577 25.2388C279.309 25.38 279.011 25.3998 278.743 25.3193ZM287.679 21.807C287.326 21.7005 287.035 21.4206 286.932 21.038C286.773 20.4497 287.121 19.8453 287.71 19.6868C288.915 19.3623 290.148 19.0861 291.376 18.8657C291.975 18.7579 292.547 19.1567 292.655 19.7561C292.763 20.3543 292.364 20.9277 291.766 21.0355C290.599 21.246 289.427 21.5073 288.282 21.8157C288.076 21.8714 287.868 21.864 287.678 21.807H287.679ZM327.094 30.9742C326.948 30.9296 326.809 30.8553 326.687 30.7475C325.796 29.9673 324.86 29.2143 323.904 28.5121C323.413 28.1517 323.308 27.4619 323.668 26.9714C324.029 26.481 324.719 26.3757 325.209 26.7361C326.216 27.4767 327.203 28.2681 328.141 29.0905C328.599 29.4917 328.643 30.1877 328.242 30.646C327.949 30.9816 327.495 31.0955 327.094 30.9742ZM297.163 20.363C296.726 20.2305 296.399 19.8329 296.38 19.3499C296.357 18.7418 296.831 18.2291 297.439 18.2056C298.686 18.1573 299.949 18.1622 301.195 18.2217C301.803 18.2527 302.273 18.7666 302.244 19.3747C302.216 19.9828 301.699 20.4522 301.091 20.4237C299.909 20.368 298.708 20.363 297.525 20.4088C297.398 20.4138 297.277 20.3977 297.163 20.363ZM319.209 25.4989C319.139 25.4779 319.07 25.4494 319.004 25.4147C317.962 24.8524 316.88 24.3286 315.791 23.8567C315.232 23.614 314.976 22.965 315.218 22.4065C315.461 21.8479 316.11 21.5891 316.669 21.8343C317.814 22.3322 318.952 22.8833 320.05 23.474C320.586 23.7626 320.787 24.4314 320.497 24.9664C320.244 25.4357 319.7 25.6475 319.209 25.4989ZM306.732 21.0751C306.2 20.9141 305.864 20.3741 305.97 19.8156C306.082 19.2174 306.659 18.8248 307.258 18.9375C308.482 19.1691 309.713 19.4577 310.916 19.7933C310.923 19.7945 310.931 19.797 310.938 19.7995C311.51 19.9729 311.842 20.5723 311.68 21.1507C311.517 21.7365 310.909 22.0795 310.323 21.916C309.18 21.5965 308.011 21.324 306.848 21.1036C306.808 21.0962 306.77 21.0863 306.732 21.0751Z" fill="url(#paint3_linear_1668_32972)"/>
<path d="M332.427 36.5804C332.219 36.5172 332.028 36.3934 331.883 36.2101C331.53 35.7643 331.162 35.3196 330.79 34.8849C330.393 34.4242 330.445 33.7282 330.906 33.3307C331.367 32.9331 332.064 32.9851 332.46 33.4471C332.853 33.9028 333.239 34.371 333.611 34.8404C333.989 35.3172 333.908 36.0107 333.431 36.3884C333.137 36.6213 332.761 36.6807 332.427 36.5792V36.5804Z" fill="url(#paint4_linear_1668_32972)"/>
</g>
<g opacity="0.3">
<path d="M341.343 68.975C340.834 68.8214 340.497 68.3161 340.57 67.7724C340.647 67.2089 340.713 66.6355 340.766 66.0658C340.823 65.4602 341.361 65.0143 341.966 65.0713C342.574 65.1283 343.018 65.6658 342.961 66.2714C342.905 66.8708 342.836 67.4752 342.755 68.0684C342.673 68.6715 342.119 69.0938 341.515 69.0121C341.456 69.0047 341.399 68.9911 341.343 68.975Z" fill="url(#paint5_linear_1668_32972)"/>
<path d="M286.433 104.351C285.948 104.205 285.463 104.049 284.979 103.884C284.403 103.688 284.094 103.063 284.289 102.486C284.485 101.91 285.114 101.599 285.688 101.796C286.805 102.175 287.934 102.508 289.059 102.788C289.649 102.936 290.009 103.533 289.861 104.124C289.714 104.715 289.116 105.074 288.525 104.927C287.829 104.753 287.125 104.559 286.433 104.349V104.351ZM279.609 101.643C279.55 101.626 279.491 101.603 279.435 101.574C278.335 101.025 277.245 100.424 276.197 99.7858C275.677 99.4699 275.512 98.7913 275.828 98.2724C276.145 97.7522 276.824 97.5862 277.343 97.9033C278.338 98.5089 279.373 99.0798 280.418 99.6025C280.963 99.8737 281.183 100.536 280.912 101.08C280.668 101.568 280.113 101.796 279.608 101.643H279.609ZM294.235 105.937C293.738 105.787 293.402 105.299 293.46 104.764C293.526 104.159 294.069 103.722 294.674 103.786C295.832 103.911 297.01 103.988 298.177 104.014C298.785 104.029 299.269 104.533 299.254 105.141C299.24 105.749 298.735 106.232 298.127 106.218C296.897 106.191 295.656 106.109 294.437 105.978C294.368 105.971 294.3 105.957 294.235 105.937ZM271.669 96.5199C271.536 96.4791 271.407 96.4122 271.292 96.3193C270.339 95.5428 269.409 94.7167 268.527 93.8634C268.09 93.4399 268.078 92.7426 268.501 92.3054C268.925 91.867 269.622 91.8559 270.059 92.2794C270.898 93.0894 271.781 93.8746 272.685 94.6115C273.157 94.9954 273.227 95.6902 272.842 96.162C272.551 96.5187 272.084 96.6462 271.669 96.5212V96.5199ZM303.677 105.903C303.27 105.779 302.953 105.423 302.901 104.974C302.832 104.369 303.265 103.822 303.869 103.753C305.025 103.62 306.192 103.436 307.337 103.205C307.934 103.085 308.515 103.471 308.635 104.068C308.755 104.665 308.369 105.246 307.772 105.366C306.567 105.609 305.338 105.803 304.121 105.943C303.967 105.961 303.816 105.946 303.676 105.904L303.677 105.903ZM312.883 103.797C312.557 103.698 312.281 103.45 312.16 103.105C311.96 102.53 312.264 101.902 312.838 101.702C313.941 101.318 315.04 100.883 316.105 100.41C316.661 100.162 317.313 100.412 317.561 100.968C317.808 101.525 317.557 102.176 317.001 102.424C315.88 102.922 314.723 103.38 313.563 103.782C313.335 103.862 313.098 103.862 312.883 103.797ZM321.411 99.735C321.163 99.6594 320.94 99.4984 320.793 99.2606C320.472 98.743 320.632 98.0643 321.15 97.7435C322.143 97.128 323.121 96.4654 324.058 95.7719C324.547 95.409 325.237 95.5118 325.6 96.001C325.961 96.4902 325.86 97.18 325.37 97.5429C324.386 98.2723 323.355 98.9708 322.31 99.6186C322.03 99.7919 321.703 99.8241 321.411 99.7362V99.735ZM328.849 93.9092C328.677 93.8572 328.516 93.7631 328.381 93.6256C327.955 93.1909 327.962 92.4937 328.397 92.0676C329.232 91.2503 330.041 90.3895 330.801 89.5065C331.199 89.0458 331.895 88.9938 332.355 89.3913C332.816 89.7889 332.868 90.4849 332.471 90.9456C331.669 91.8757 330.817 92.7822 329.939 93.643C329.642 93.934 329.221 94.0232 328.848 93.9105L328.849 93.9092ZM334.83 86.5899C334.733 86.5602 334.639 86.5168 334.55 86.4599C334.038 86.1292 333.892 85.4468 334.223 84.9366C334.855 83.9582 335.454 82.9402 336.003 81.9098C336.289 81.3723 336.957 81.1704 337.494 81.4552C338.031 81.7413 338.234 82.4089 337.948 82.9464C337.371 84.0312 336.741 85.1025 336.074 86.1329C335.802 86.5552 335.288 86.7286 334.831 86.5899H334.83ZM339.053 78.1424C339.032 78.1362 339.01 78.1287 338.989 78.1201C338.418 77.9095 338.127 77.2754 338.337 76.7045C338.636 75.8983 338.912 75.0747 339.159 74.2536C339.249 73.9563 339.335 73.6591 339.418 73.3619C339.582 72.7748 340.19 72.433 340.776 72.5965C341.373 72.7501 341.704 73.3668 341.541 73.9539C341.454 74.2672 341.363 74.5793 341.269 74.8926C341.007 75.7558 340.716 76.624 340.403 77.4711C340.2 78.021 339.605 78.3108 339.052 78.1436L339.053 78.1424Z" fill="url(#paint6_linear_1668_32972)"/>
<path d="M265.037 89.7518C264.828 89.6886 264.634 89.5623 264.49 89.3777C264.122 88.9084 263.756 88.4217 263.405 87.9325C263.049 87.4383 263.162 86.7497 263.656 86.3943C264.15 86.0389 264.839 86.1503 265.194 86.6457C265.529 87.1101 265.875 87.5721 266.225 88.0179C266.6 88.496 266.516 89.1895 266.038 89.5648C265.744 89.7951 265.37 89.8521 265.038 89.7518H265.037Z" fill="url(#paint7_linear_1668_32972)"/>
</g>
<path d="M270.156 77.9458C270.24 78.1489 270.443 78.2765 270.662 78.2641L276.92 77.8951C278.624 80.2754 280.72 82.4018 283.163 84.1642L282.773 90.4172C282.76 90.6364 282.886 90.8407 283.089 90.9249L290.032 93.8143C290.235 93.8985 290.469 93.8452 290.615 93.6805L294.776 88.9966C297.749 89.4895 300.733 89.4772 303.624 89.0078L307.773 93.7078C307.918 93.8725 308.152 93.927 308.355 93.8427L315.306 90.9769C315.51 90.8927 315.637 90.6896 315.625 90.4704L315.256 84.2124C317.636 82.5083 319.762 80.4128 321.523 77.9694L327.776 78.3595C327.996 78.3731 328.2 78.2468 328.284 78.0437L331.174 71.1008C331.258 70.8977 331.205 70.6637 331.04 70.5175L326.356 66.3563C326.849 63.384 326.837 60.3993 326.367 57.5087L331.067 53.3598C331.232 53.2149 331.286 52.9809 331.202 52.7778L328.336 45.8262C328.252 45.6231 328.049 45.4956 327.83 45.508L321.572 45.877C319.868 43.4967 317.772 41.3703 315.329 39.6079L315.719 33.3549C315.732 33.1357 315.606 32.9314 315.403 32.8471L308.46 29.9578C308.257 29.8736 308.023 29.9268 307.877 30.0916L303.716 34.7754C300.743 34.2825 297.757 34.2949 294.868 34.7643L290.72 30.0643C290.575 29.8996 290.341 29.8451 290.138 29.9293L283.187 32.7951C282.984 32.8793 282.856 33.0825 282.869 33.3017L283.238 39.5596C280.857 41.2637 278.731 43.3592 276.97 45.8027L270.717 45.4126C270.498 45.399 270.293 45.5253 270.209 45.7284L267.32 52.6712C267.235 52.8744 267.289 53.1084 267.453 53.2546L272.137 57.4158C271.644 60.3881 271.657 63.3728 272.126 66.2634L267.426 70.4122C267.261 70.5571 267.207 70.7912 267.291 70.9943L270.157 77.9458H270.156Z" fill="url(#paint8_linear_1668_32972)"/>
<path opacity="0.56" d="M297.058 69.1206C293.53 68.0555 291.216 64.5296 291.772 60.7783C292.382 56.6554 296.234 53.7983 300.357 54.4089C302.354 54.7048 304.117 55.76 305.319 57.3812C306.522 59.0023 307.022 60.995 306.726 62.9927C306.116 67.1155 302.264 69.9726 298.141 69.3621C297.77 69.3063 297.408 69.2258 297.058 69.1193V69.1206ZM300.936 56.3409C300.664 56.2591 300.384 56.196 300.098 56.1526C296.937 55.6845 293.985 57.8753 293.516 61.0359C293.047 64.1964 295.237 67.1502 298.399 67.6183C301.559 68.0865 304.512 65.8956 304.981 62.7351C305.208 61.2031 304.825 59.676 303.903 58.4326C303.153 57.422 302.119 56.6975 300.936 56.3409Z" fill="white"/>
<path opacity="0.56" d="M294.047 79.6154C293.441 79.4321 292.841 79.2179 292.249 78.9714C292.062 78.8934 291.877 78.8129 291.693 78.7299C290.786 78.3175 289.914 77.8345 289.089 77.2871C289.078 77.2797 289.067 77.2723 289.056 77.2648C289.024 77.2438 288.993 77.2227 288.961 77.2004C288.899 77.1583 288.837 77.1162 288.776 77.0741C288.615 76.9627 288.552 76.7633 288.605 76.5849C288.619 76.5416 288.639 76.4995 288.666 76.4611C288.805 76.2604 289.08 76.2121 289.279 76.3508C290.308 77.0654 291.421 77.6735 292.587 78.1578C298.378 80.5691 304.736 79.6625 309.535 76.3149C312.205 74.4535 314.392 71.8366 315.734 68.6154C315.969 68.0507 316.173 67.4785 316.348 66.9001C317.522 63.0113 317.325 58.8724 315.756 55.0666C313.954 50.6948 310.557 47.2866 306.191 45.4697C297.174 41.7184 286.796 45.9998 283.044 55.0121C282.813 55.5682 282.611 56.1329 282.438 56.7051C281.688 59.1857 281.49 61.8026 281.868 64.3687C281.878 64.4356 281.872 64.5 281.854 64.5607C281.806 64.7192 281.671 64.8443 281.496 64.869C281.255 64.9037 281.031 64.739 280.996 64.4963C280.601 61.8026 280.808 59.0545 281.594 56.4512C281.775 55.8505 281.988 55.2573 282.231 54.674C286.168 45.2121 297.071 40.7202 306.531 44.6561C311.114 46.5633 314.68 50.1412 316.572 54.731C318.219 58.7263 318.426 63.072 317.194 67.154C317.011 67.7609 316.795 68.3615 316.549 68.9547C314.641 73.5383 311.063 77.1038 306.474 78.9962C302.477 80.6434 298.13 80.8502 294.047 79.6167V79.6154Z" fill="white"/>
<g opacity="0.3">
<path d="M217.952 10.3096C217.803 10.0211 217.855 9.65695 218.103 9.42164C218.565 8.98199 219.047 8.54977 219.535 8.1386C219.852 7.87109 220.326 7.91072 220.594 8.229C220.862 8.54605 220.82 9.02038 220.503 9.28789C220.038 9.68048 219.579 10.0917 219.137 10.5115C218.837 10.7976 218.361 10.7852 218.075 10.4855C218.024 10.4322 217.983 10.3728 217.951 10.3109L217.952 10.3096Z" fill="url(#paint9_linear_1668_32972)"/>
<path d="M222.487 6.72567C222.313 6.38757 222.42 5.96402 222.746 5.75224C223.668 5.15282 224.63 4.59428 225.606 4.0927C225.811 3.98743 226.019 3.8834 226.227 3.78061C226.601 3.59855 227.047 3.78061 227.233 4.12614C227.415 4.49891 227.26 4.94848 226.888 5.13177C226.688 5.22961 226.489 5.32869 226.293 5.429C225.362 5.90829 224.444 6.44083 223.566 7.01176C223.218 7.2384 222.752 7.13932 222.526 6.79131C222.512 6.76902 222.498 6.74673 222.487 6.72443V6.72567ZM229.501 3.30504C229.485 3.27284 229.47 3.24063 229.457 3.20596C229.322 2.81336 229.53 2.38486 229.923 2.24986C231.181 1.81516 232.479 1.45601 233.777 1.17983C234.183 1.09314 234.582 1.35569 234.669 1.75943C234.754 2.16565 234.495 2.56443 234.089 2.65113C232.851 2.91368 231.614 3.25797 230.412 3.67162C230.054 3.79423 229.668 3.63323 229.499 3.30627L229.501 3.30504ZM237.135 1.68636C237.091 1.60215 237.063 1.50678 237.054 1.40647C237.019 0.992822 237.327 0.629952 237.74 0.594037C239.065 0.482575 240.412 0.451613 241.742 0.504867C242.157 0.520967 242.479 0.870214 242.462 1.28634C242.446 1.70122 242.096 2.02322 241.682 2.00712C240.414 1.95635 239.13 1.98607 237.867 2.09258C237.554 2.11859 237.27 1.95016 237.135 1.6876V1.68636ZM244.933 1.99474C244.863 1.85603 244.833 1.69503 244.86 1.53032C244.928 1.12038 245.315 0.842968 245.725 0.911084C247.039 1.12781 248.351 1.42752 249.626 1.80278C250.023 1.92043 250.251 2.33903 250.134 2.73658C250.016 3.13413 249.599 3.362 249.2 3.24559C247.986 2.88767 246.734 2.60159 245.481 2.39476C245.237 2.35513 245.04 2.20032 244.934 1.99598L244.933 1.99474ZM252.42 4.19797C252.321 4.00477 252.306 3.76946 252.399 3.5552C252.563 3.175 253.006 3.00037 253.387 3.16509C254.608 3.69391 255.807 4.30324 256.953 4.97696C257.312 5.1875 257.431 5.64821 257.22 6.00613C257.009 6.36404 256.549 6.48417 256.191 6.27363C255.099 5.63211 253.954 5.05003 252.789 4.54598C252.623 4.47415 252.497 4.34906 252.42 4.20044V4.19797ZM259.143 8.15115C259.015 7.90098 259.033 7.58764 259.215 7.34986C259.468 7.02043 259.94 6.9585 260.269 7.21115C261.324 8.02111 262.34 8.90413 263.285 9.8367C263.58 10.1302 263.583 10.6045 263.292 10.8993C263.001 11.1953 262.524 11.1978 262.23 10.9067C261.328 10.0175 260.361 9.17535 259.355 8.40255C259.263 8.3332 259.194 8.24527 259.145 8.14991L259.143 8.15115ZM264.695 13.6264C264.534 13.3131 264.611 12.9192 264.899 12.6938C265.224 12.4362 265.697 12.492 265.955 12.8177C266.776 13.858 267.544 14.9639 268.235 16.1046C268.444 16.4637 268.337 16.9219 267.981 17.1374C267.626 17.3529 267.164 17.239 266.949 16.8848C266.291 15.7962 265.559 14.741 264.776 13.749C264.745 13.7106 264.719 13.6685 264.697 13.6264H264.695ZM270.116 23.9589C270.096 23.9205 270.079 23.8796 270.067 23.8363C269.743 22.7898 269.357 21.7421 268.919 20.7216C268.853 20.5667 268.787 20.4157 268.719 20.2658C268.55 19.8868 268.718 19.4422 269.096 19.2713C269.475 19.1004 269.932 19.2664 270.09 19.6478C270.162 19.8076 270.233 19.9686 270.302 20.1308C270.76 21.1959 271.164 22.2944 271.503 23.3929C271.626 23.7892 271.403 24.2103 271.007 24.3329C270.654 24.4419 270.281 24.2772 270.117 23.9589H270.116Z" fill="url(#paint10_linear_1668_32972)"/>
</g>
<g opacity="0.3">
<path d="M211.817 48.1818C211.63 47.8165 211.77 47.3681 212.133 47.1749C212.499 46.9805 212.954 47.1192 213.148 47.4858C213.734 48.5893 214.392 49.6667 215.105 50.6885C215.338 51.029 215.26 51.4972 214.919 51.735C214.579 51.9727 214.111 51.8885 213.873 51.5492C213.126 50.4779 212.436 49.3484 211.822 48.1917C211.821 48.1892 211.818 48.1855 211.817 48.183V48.1818ZM210.222 44.6831C210.209 44.6584 210.198 44.6348 210.188 44.6088C209.718 43.3877 209.317 42.1269 208.996 40.8588C208.894 40.4563 209.137 40.0476 209.539 39.946C209.942 39.8432 210.351 40.0897 210.453 40.4897C210.759 41.6997 211.142 42.9035 211.592 44.0689C211.741 44.4553 211.548 44.8912 211.161 45.0398C210.798 45.1798 210.395 45.02 210.222 44.6831ZM216.209 54.4744C216.056 54.1784 216.116 53.8057 216.375 53.5716C216.683 53.2942 217.157 53.3202 217.436 53.6286C218.272 54.5587 219.171 55.4442 220.11 56.264C220.422 56.539 220.454 57.0121 220.182 57.3241C219.909 57.6362 219.434 57.6697 219.121 57.396C218.138 56.5377 217.196 55.6076 216.319 54.633C216.274 54.5834 216.238 54.5302 216.209 54.4744ZM208.343 37.2387C208.303 37.1632 208.277 37.079 208.266 36.9886C208.103 35.6894 208.017 34.368 208.014 33.0589C208.012 32.644 208.348 32.3059 208.763 32.3047C209.177 32.3047 209.515 32.6391 209.516 33.054C209.52 34.3011 209.6 35.5619 209.756 36.8003C209.808 37.2115 209.516 37.588 209.105 37.64C208.783 37.6809 208.483 37.5112 208.343 37.2375V37.2387ZM221.991 59.5187C221.87 59.2822 221.877 58.9874 222.037 58.7533C222.27 58.409 222.738 58.3199 223.081 58.5527C224.112 59.2524 225.199 59.8977 226.308 60.4674C226.679 60.6569 226.823 61.1101 226.633 61.4792C226.443 61.8483 225.99 61.9944 225.621 61.8037C224.458 61.2055 223.319 60.5305 222.236 59.7961C222.128 59.7231 222.045 59.6264 221.99 59.5187H221.991ZM228.815 63.0285C228.722 62.8477 228.702 62.6297 228.778 62.4241C228.921 62.0353 229.354 61.8359 229.744 61.9795C230.917 62.413 232.125 62.7796 233.337 63.0681C233.74 63.1647 233.99 63.5697 233.894 63.9735C233.797 64.3772 233.392 64.6261 232.99 64.5308C231.719 64.2286 230.452 63.8447 229.222 63.3914C229.039 63.3233 228.898 63.192 228.815 63.031V63.0285ZM236.284 64.8032C236.218 64.6757 236.189 64.5295 236.206 64.376C236.252 63.9636 236.625 63.6663 237.037 63.7134C238.279 63.8546 239.54 63.919 240.786 63.9066C241.2 63.9029 241.54 64.236 241.544 64.6509C241.548 65.0658 241.214 65.4051 240.8 65.4101C239.493 65.4225 238.17 65.3543 236.867 65.207C236.607 65.1772 236.394 65.0187 236.283 64.8032H236.284Z" fill="url(#paint11_linear_1668_32972)"/>
<path d="M208.322 29.5268C208.255 29.398 208.225 29.2482 208.244 29.0934C208.321 28.4543 208.417 27.8153 208.53 27.1936C208.604 26.7849 208.994 26.5136 209.403 26.5879C209.81 26.6622 210.082 27.0524 210.009 27.4611C209.901 28.0543 209.809 28.6648 209.736 29.2742C209.687 29.6866 209.311 29.9801 208.9 29.9306C208.643 29.8996 208.432 29.7423 208.322 29.5281V29.5268Z" fill="url(#paint12_linear_1668_32972)"/>
</g>
<path d="M217.244 25.6421C217.179 25.7907 217.215 25.9641 217.335 26.0743L220.745 29.2089C220.355 31.3365 220.302 33.541 220.621 35.7442L217.099 38.7475C216.975 38.8528 216.932 39.0249 216.991 39.176L219.021 44.3478C219.08 44.4989 219.229 44.5955 219.391 44.5893L224.016 44.3949C225.28 46.2266 226.82 47.8069 228.552 49.1011L228.186 53.7181C228.173 53.8803 228.264 54.0326 228.412 54.097L233.505 56.3188C233.653 56.3832 233.827 56.3473 233.937 56.2272L237.072 52.8177C239.199 53.2078 241.404 53.2611 243.607 52.9416L246.61 56.4637C246.716 56.5876 246.888 56.6309 247.039 56.5715L252.211 54.5416C252.362 54.4822 252.458 54.3336 252.452 54.1713L252.258 49.5469C254.089 48.2824 255.67 46.743 256.964 45.0104L261.581 45.377C261.743 45.3894 261.894 45.299 261.96 45.1504L264.182 40.0578C264.246 39.9092 264.21 39.7358 264.09 39.6256L260.68 36.491C261.071 34.3634 261.124 32.1589 260.804 29.9557L264.327 26.9524C264.45 26.8471 264.494 26.675 264.434 26.5239L262.404 21.352C262.345 21.2009 262.196 21.1044 262.034 21.1105L257.41 21.305C256.145 19.4733 254.606 17.893 252.873 16.5988L253.24 11.9818C253.252 11.8196 253.162 11.6673 253.013 11.6029L247.921 9.38105C247.772 9.31665 247.599 9.35256 247.488 9.47269L244.354 12.8822C242.226 12.4921 240.022 12.4388 237.818 12.7583L234.815 9.23615C234.71 9.1123 234.538 9.06895 234.387 9.1284L229.215 11.1582C229.064 11.2177 228.967 11.3663 228.973 11.5285L229.168 16.153C227.336 17.4174 225.756 18.9569 224.462 20.6895L219.845 20.3229C219.682 20.3105 219.531 20.4009 219.466 20.5495L217.244 25.6421Z" fill="url(#paint13_linear_1668_32972)"/>
<path opacity="0.56" d="M235.651 35.4395C235.097 34.3608 234.903 33.1384 235.105 31.921C235.353 30.4224 236.17 29.1109 237.405 28.2279C239.953 26.4036 243.511 26.9919 245.336 29.5407C247.159 32.0956 246.571 35.6475 244.023 37.473C242.789 38.3573 241.284 38.7078 239.785 38.4588C238.287 38.2111 236.975 37.395 236.091 36.159C235.926 35.9287 235.779 35.6872 235.651 35.4395ZM244.433 30.9389C244.34 30.7593 244.234 30.5834 244.114 30.415C242.771 28.54 240.154 28.1078 238.279 29.449C237.372 30.0992 236.77 31.064 236.588 32.1662C236.406 33.2684 236.663 34.3744 237.313 35.2834C237.964 36.1912 238.928 36.7919 240.031 36.9752C241.133 37.1572 242.24 36.8996 243.148 36.2494C244.853 35.0283 245.366 32.752 244.433 30.9389Z" fill="white"/>
<path opacity="0.56" d="M228.24 39.3726C228.022 38.9503 227.825 38.5119 227.647 38.0611C227.294 37.1644 227.033 36.2306 226.869 35.2832C226.862 35.2411 226.855 35.1977 226.848 35.1556C226.794 34.8262 226.963 34.5116 227.246 34.3667C227.314 34.3321 227.389 34.306 227.47 34.2937C227.88 34.2268 228.264 34.5054 228.332 34.9141C228.477 35.7996 228.717 36.674 229.046 37.5124C229.064 37.5583 229.083 37.6053 229.101 37.6499C229.898 39.6265 231.159 41.3294 232.762 42.6496C233.632 43.3667 234.605 43.9698 235.66 44.4416C235.668 44.4454 235.677 44.4491 235.686 44.4528C235.712 44.4639 235.738 44.4763 235.765 44.4875C238.864 45.8386 242.302 45.903 245.449 44.6683C245.856 44.5085 246.251 44.3302 246.635 44.132C249.217 42.8044 251.246 40.6457 252.424 37.9484C253.775 34.8497 253.839 31.4118 252.603 28.2648C251.367 25.1216 248.982 22.641 245.884 21.2898C242.786 19.9386 239.348 19.8742 236.201 21.109C235.801 21.2663 235.41 21.4434 235.029 21.6378C233.382 22.4849 231.939 23.6837 230.807 25.1513C230.738 25.2417 230.651 25.3123 230.556 25.3606C230.306 25.4894 229.991 25.4708 229.753 25.2875C229.425 25.0337 229.363 24.563 229.617 24.2336C230.883 22.5914 232.498 21.2502 234.341 20.3015C234.767 20.0823 235.204 19.8841 235.651 19.7095C239.172 18.3274 243.019 18.3992 246.485 19.9114C249.95 21.4235 252.622 24.1915 254.003 27.7149C255.385 31.2347 255.313 35.0826 253.801 38.549C252.484 41.5672 250.214 43.9809 247.325 45.4671C246.896 45.6875 246.453 45.8882 245.997 46.0665C239.182 48.7416 231.517 45.7482 228.239 39.3726H228.24Z" fill="white"/>
<path d="M250.258 44.3203L71.0487 95.5321L64.361 228.911C64.3301 229.554 64.3053 230.193 64.2793 230.833C84.5282 234.842 120.189 237.503 160.805 237.503C201.422 237.503 240.547 234.576 260.181 230.237C260.163 229.795 260.15 229.357 260.131 228.911L250.258 44.3216V44.3203Z" fill="url(#paint14_linear_1668_32972)"/>
<path d="M64.2802 230.833C63.1718 258.386 66.6791 283.474 82.1884 305.787L90.044 314.66C98.9374 324.707 110.144 331.736 122.403 334.918C133.056 337.682 147.033 340.243 162.246 340.243C177.46 340.243 191.437 337.682 202.09 334.918C214.349 331.736 225.556 324.707 234.449 314.66L242.305 305.787C257.954 283.274 261.383 261.711 260.181 230.238C240.547 234.576 203.402 237.504 160.805 237.504C118.208 237.504 84.5279 234.842 64.279 230.833H64.2802Z" fill="url(#paint15_linear_1668_32972)"/>
<path d="M250.518 43.9485C253.446 55.2581 205.761 75.5838 164.078 89.3494C122.394 103.114 74.031 105.105 71.1045 93.7954C68.1768 82.4858 111.794 62.1601 153.478 48.3946C195.163 34.6303 247.592 32.6388 250.52 43.9485H250.518Z" fill="url(#paint16_linear_1668_32972)"/>
<g opacity="0.8">
<path d="M164.991 128.136H164.621C158.651 128.136 153.811 132.976 153.811 138.947V168.778C153.811 174.748 158.651 179.588 164.621 179.588H164.991C170.962 179.588 175.802 174.748 175.802 168.778V138.947C175.802 132.976 170.962 128.136 164.991 128.136Z" fill="white"/>
<path d="M186.824 196.185H167.088V188.716H178.906C184.503 188.716 187.005 182.88 187.005 177.285V150.451C187.005 149.219 185.748 148.219 184.515 148.219C183.283 148.219 182.026 149.219 182.026 150.451V177.285C182.026 180.419 182.042 182.907 178.908 182.907H155.208C152.074 182.907 147.172 180.421 147.172 177.285V151.089C147.172 149.856 145.915 148.857 144.683 148.857C143.45 148.857 142.193 149.856 142.193 151.089V177.285C142.193 182.881 149.613 188.716 155.208 188.716H162.939V196.185H147.291C146.059 196.185 145.059 197.442 145.059 198.674C145.059 199.907 146.059 201.164 147.291 201.164H186.824C188.056 201.164 189.056 199.907 189.056 198.674C189.056 197.442 188.056 196.185 186.824 196.185Z" fill="white"/>
</g>
<g opacity="0.4">
<path d="M166.395 109.818C136.41 109.818 112.016 134.214 112.016 164.199C112.016 194.185 136.411 218.586 166.395 218.586C196.38 218.586 220.783 194.191 220.783 164.199C220.783 134.207 196.387 109.818 166.395 109.818ZM166.395 216.389C137.622 216.389 114.211 192.979 114.211 164.198C114.211 135.417 137.621 112.014 166.395 112.014C195.17 112.014 218.587 135.425 218.587 164.198C218.587 192.971 195.176 216.389 166.395 216.389Z" fill="white"/>
</g>
<path d="M337.935 111.929C337.758 111.171 336.741 111.022 336.352 111.697C334.912 114.195 331.894 118.423 327.668 119.112C327.455 119.147 327.252 119.186 327.055 119.226C327.015 118.665 327.168 118.066 327.742 117.542C329.387 116.042 327.891 113.03 327.891 113.03C327.891 113.03 327.191 115.163 325.19 116.104C323.466 116.915 322.11 119.358 322.527 121.755C322.527 130.265 322.884 141.612 308.914 146.235C294.944 150.859 283.803 124.25 283.803 124.25L285.34 152.961C285.34 152.961 295.811 165.832 314.305 156.29C332.799 146.748 327.86 124.66 327.86 124.66C327.86 124.66 340.522 122.986 337.936 111.931L337.935 111.929Z" fill="url(#paint17_linear_1668_32972)"/>
<path d="M287.739 88.5314C287.739 88.5314 296.705 74.7089 277.956 72.2766C277.956 72.2766 270.085 67.7896 266.716 75.5412C266.716 75.5412 259.99 77.0917 261.398 85.408C261.398 85.408 247.65 73.2351 235.42 84.7045C223.19 96.1752 226.74 106.31 232.73 110.834C232.73 110.834 226.249 111.545 226.53 118.698C226.813 125.851 238.28 135.085 248.814 130.432C248.814 130.432 269.737 141.525 275.078 125.819C275.078 125.819 287.771 123.016 281.799 106.173C275.827 89.3302 287.738 88.5314 287.738 88.5314H287.739Z" fill="url(#paint18_linear_1668_32972)"/>
<path d="M282.239 116.38C278.537 115.27 267.759 113.222 257.507 122.682C255.768 124.287 255.057 126.725 255.678 129.009C258.431 139.145 265.697 169.096 259.326 182.056C259.326 182.056 270.552 194.43 282.799 184.457C282.799 184.457 288.294 160.509 295.491 149.996C300.46 142.737 287.567 122.739 284.306 117.908C283.812 117.176 283.084 116.635 282.239 116.382V116.38Z" fill="url(#paint19_linear_1668_32972)"/>
<path d="M272.017 96.2383C272.017 96.2383 266.543 111.723 266.131 118.555C266.131 118.555 272.182 121.307 277.883 116.663C277.883 116.663 278.481 101.196 279.345 98.4266L272.017 96.2395V96.2383Z" fill="url(#paint20_linear_1668_32972)"/>
<path d="M287.624 84.2438C287.624 84.2438 294.058 108.017 284.006 110.488C273.955 112.959 269.365 96.0587 269.365 96.0587C269.365 96.0587 270.075 84.6203 274.629 82.3452C279.183 80.0689 287.624 84.2438 287.624 84.2438Z" fill="url(#paint21_linear_1668_32972)"/>
<path d="M283.079 77.4449C283.079 77.4449 288.701 81.1987 288.527 84.3097C288.354 87.4207 277.785 86.4336 275.046 85.5593L268.69 96.0095C268.69 96.0095 266.217 83.0353 271.032 77.8635C275.847 72.6929 283.079 77.4449 283.079 77.4449Z" fill="url(#paint22_linear_1668_32972)"/>
<path d="M272.481 95.6441C272.481 95.6441 269.507 87.6511 265.963 90.8228C262.418 93.9933 268.096 99.4772 271.163 98.4133L272.481 95.6441Z" fill="url(#paint23_linear_1668_32972)"/>
<path d="M297.095 234.738C297.053 235.825 298.961 244.448 300 249.048C300.419 250.898 300.127 252.835 299.185 254.482L263.208 315.035C262.773 315.767 262.456 316.56 262.263 317.39C261.604 320.231 260.236 327.196 260.95 333.531L262.812 337.396L254.763 335.568L253.012 313.952L255.291 312.563C257.26 311.363 258.792 309.568 259.67 307.435C262.923 299.533 271.002 279.418 273.084 269.615C275.45 258.474 287.822 249.425 287.822 249.425L285.649 244.286L297.096 234.736L297.095 234.738Z" fill="url(#paint24_linear_1668_32972)"/>
<path d="M245.818 328.13C245.818 328.13 250.165 321.24 250.677 318.556C251.188 315.873 252.611 311.136 255.291 312.563C255.291 312.563 256.555 325.594 256.119 330.685C255.683 335.777 261.875 335.613 261.875 335.613C261.875 335.613 263.582 335.853 264.831 337.102C265.694 337.965 265.076 339.461 263.859 339.539C261.833 339.669 258.614 339.704 255.236 339.051C254.054 338.823 253.179 337.818 253.108 336.618L252.216 321.62L246.734 328.543L245.82 328.129L245.818 328.13Z" fill="url(#paint25_linear_1668_32972)"/>
<path d="M275.602 244.382C275.602 244.382 274.333 298.545 274.162 306.239C273.989 313.931 275.377 330.978 283.088 336.075L279.732 338.559C279.732 338.559 275.539 334.995 271.442 328.135C266.84 320.429 265.448 319.021 265.448 319.021L266.975 315.894C267.644 314.524 267.841 312.976 267.532 311.484C265.868 303.417 260.308 276.591 258.792 270.814C257.003 263.993 256.875 254.887 263.102 247.263C269.33 239.64 275.602 244.384 275.602 244.384V244.382Z" fill="url(#paint26_linear_1668_32972)"/>
<path d="M268.48 341C268.241 341.002 268.038 340.831 268.003 340.594C267.747 338.788 266.678 331.549 265.804 329.674C264.802 327.528 261.531 318.492 265.805 317.724C265.805 317.724 276.431 333.25 278.471 335.343C280.51 337.436 283.085 336.073 283.085 336.073C283.085 336.073 285.073 336.66 286.571 338.576C287.285 339.488 286.62 340.826 285.463 340.838L278.306 340.906C276.228 340.926 274.358 339.662 273.585 337.733C272.325 334.586 270.161 329.97 267.638 327.923L268.948 340.473C268.978 340.753 268.76 340.997 268.479 341H268.48Z" fill="url(#paint27_linear_1668_32972)"/>
<path d="M284.492 178.615C284.492 178.615 282.879 183.756 285.356 192.224L300.728 245.901C300.97 246.744 300.514 247.628 299.689 247.924C295.091 249.573 279.976 254.237 259.343 252.815C258.304 252.744 257.434 252.008 257.207 250.991C255.847 244.872 251.209 223.993 250.254 219.703C246.616 203.356 242.552 185.728 260.427 175.068C268.665 178.597 276.349 180.676 284.492 178.614V178.615Z" fill="url(#paint28_linear_1668_32972)"/>
<path d="M256.039 124.705C256.039 124.705 238.55 139.24 234.21 159.1C229.869 178.96 259.766 181.071 259.766 181.071C259.766 181.071 263.824 176.54 268.643 178.156C273.462 179.772 269.016 170.246 263.378 170.272C257.741 170.296 260.353 174.755 252.377 171.142C244.608 167.624 239.807 156.74 259.628 140.243C260.778 139.287 261.694 138.067 262.246 136.678C266.097 126.985 263.043 120.632 256.039 124.706V124.705Z" fill="url(#paint29_linear_1668_32972)"/>
<path d="M311.066 132.026L317.336 104.376C317.406 104.063 317.658 103.823 317.975 103.767C319.378 103.523 323.443 102.832 328.144 102.168C333.806 101.368 340.392 100.609 344.359 100.72C344.923 100.737 345.295 101.311 345.074 101.83C343.082 106.498 334.88 125.492 330.594 131.805C330.451 132.014 330.221 132.144 329.968 132.156L311.878 133C311.352 133.025 310.947 132.54 311.063 132.026H311.066Z" fill="url(#paint30_linear_1668_32972)"/>
<path d="M328.08 110.322C328.15 111.586 329.232 112.553 330.495 112.482C331.758 112.412 332.725 111.331 332.655 110.067C332.584 108.804 331.503 107.837 330.24 107.907C328.976 107.978 328.009 109.059 328.08 110.322Z" fill="url(#paint31_linear_1668_32972)"/>
<path d="M318.688 112.365L319.974 106.895C320.13 106.231 320.629 105.711 321.273 105.538C326.184 104.223 339.783 103.242 339.919 103.232L339.872 102.582C339.312 102.621 326.075 103.577 321.103 104.907C320.226 105.143 319.55 105.846 319.338 106.744L318.053 112.216L318.687 112.364L318.688 112.365Z" fill="white"/>
<path d="M339.611 114.369C340.657 117.812 339.136 121.683 335.048 125.982L330.601 125.026C326.801 124.21 326.082 119.999 329.434 118.023C331.48 116.817 334.585 115.602 339.611 114.368V114.369Z" fill="url(#paint32_linear_1668_32972)"/>
</g>
<defs>
<linearGradient id="paint0_linear_1668_32972" x1="13.8206" y1="100.721" x2="114.921" y2="99.2744" gradientUnits="userSpaceOnUse">
<stop stop-color="#CE1567"/>
<stop offset="1" stop-color="#7A1DBC"/>
</linearGradient>
<linearGradient id="paint1_linear_1668_32972" x1="19.0299" y1="211.098" x2="107.186" y2="193.163" gradientUnits="userSpaceOnUse">
<stop stop-color="#2B3582"/>
<stop offset="1" stop-color="#150E42"/>
</linearGradient>
<linearGradient id="paint2_linear_1668_32972" x1="2.94286" y1="234.87" x2="113.428" y2="234.87" gradientUnits="userSpaceOnUse">
<stop stop-color="#CE1567"/>
<stop offset="1" stop-color="#7A1DBC"/>
</linearGradient>
<linearGradient id="paint3_linear_1668_32972" x1="262.531" y1="31.1002" x2="322.703" y2="49.2788" gradientUnits="userSpaceOnUse">
<stop stop-color="#B37CFF"/>
<stop offset="1" stop-color="#F895E7"/>
</linearGradient>
<linearGradient id="paint4_linear_1668_32972" x1="330.415" y1="34.3149" x2="333.93" y2="35.3769" gradientUnits="userSpaceOnUse">
<stop stop-color="#B37CFF"/>
<stop offset="1" stop-color="#F895E7"/>
</linearGradient>
<linearGradient id="paint5_linear_1668_32972" x1="340.544" y1="66.6782" x2="342.956" y2="67.4067" gradientUnits="userSpaceOnUse">
<stop stop-color="#B37CFF"/>
<stop offset="1" stop-color="#F895E7"/>
</linearGradient>
<linearGradient id="paint6_linear_1668_32972" x1="273.205" y1="76.2683" x2="335.184" y2="94.9927" gradientUnits="userSpaceOnUse">
<stop stop-color="#B37CFF"/>
<stop offset="1" stop-color="#F895E7"/>
</linearGradient>
<linearGradient id="paint7_linear_1668_32972" x1="263.081" y1="87.4655" x2="266.55" y2="88.5135" gradientUnits="userSpaceOnUse">
<stop stop-color="#B37CFF"/>
<stop offset="1" stop-color="#F895E7"/>
</linearGradient>
<linearGradient id="paint8_linear_1668_32972" x1="423.139" y1="167.756" x2="231.386" y2="3.90897" gradientUnits="userSpaceOnUse">
<stop stop-color="#A737D5"/>
<stop offset="1" stop-color="#EF497A"/>
</linearGradient>
<linearGradient id="paint9_linear_1668_32972" x1="218.842" y1="8.48215" x2="219.747" y2="10.2422" gradientUnits="userSpaceOnUse">
<stop stop-color="#B37CFF"/>
<stop offset="1" stop-color="#F895E7"/>
</linearGradient>
<linearGradient id="paint10_linear_1668_32972" x1="238.241" y1="-2.39297" x2="255.97" y2="32.0889" gradientUnits="userSpaceOnUse">
<stop stop-color="#B37CFF"/>
<stop offset="1" stop-color="#F895E7"/>
</linearGradient>
<linearGradient id="paint11_linear_1668_32972" x1="213.098" y1="29.9924" x2="233.334" y2="69.3491" gradientUnits="userSpaceOnUse">
<stop stop-color="#B37CFF"/>
<stop offset="1" stop-color="#F895E7"/>
</linearGradient>
<linearGradient id="paint12_linear_1668_32972" x1="208.411" y1="26.9323" x2="209.795" y2="29.6241" gradientUnits="userSpaceOnUse">
<stop stop-color="#B37CFF"/>
<stop offset="1" stop-color="#F895E7"/>
</linearGradient>
<linearGradient id="paint13_linear_1668_32972" x1="254.249" y1="254.16" x2="237.212" y2="-23.8136" gradientUnits="userSpaceOnUse">
<stop stop-color="#A737D5"/>
<stop offset="1" stop-color="#EF497A"/>
</linearGradient>
<linearGradient id="paint14_linear_1668_32972" x1="186.164" y1="4.09747" x2="143.209" y2="336.022" gradientUnits="userSpaceOnUse">
<stop stop-color="#561DA0"/>
<stop offset="1" stop-color="#3840F7"/>
</linearGradient>
<linearGradient id="paint15_linear_1668_32972" x1="192.578" y1="8.06595" x2="149.716" y2="339.278" gradientUnits="userSpaceOnUse">
<stop stop-color="#5E1DA1"/>
<stop offset="1" stop-color="#3840F7"/>
</linearGradient>
<linearGradient id="paint16_linear_1668_32972" x1="164.722" y1="56.5127" x2="74.2378" y2="340.094" gradientUnits="userSpaceOnUse">
<stop stop-color="#53D8FF"/>
<stop offset="1" stop-color="#3840F7"/>
</linearGradient>
<linearGradient id="paint17_linear_1668_32972" x1="347.885" y1="94.56" x2="284.232" y2="155.163" gradientUnits="userSpaceOnUse">
<stop stop-color="#F9B776"/>
<stop offset="1" stop-color="#F47960"/>
</linearGradient>
<linearGradient id="paint18_linear_1668_32972" x1="223.905" y1="52.7135" x2="257.022" y2="98.4592" gradientUnits="userSpaceOnUse">
<stop stop-color="#2B3582"/>
<stop offset="1" stop-color="#150E42"/>
</linearGradient>
<linearGradient id="paint19_linear_1668_32972" x1="271.424" y1="155.91" x2="312.532" y2="-14.6174" gradientUnits="userSpaceOnUse">
<stop stop-color="#FDF53F"/>
<stop offset="0.66" stop-color="#E57A58"/>
<stop offset="1" stop-color="#D93C65"/>
</linearGradient>
<linearGradient id="paint20_linear_1668_32972" x1="280.73" y1="126.184" x2="272.009" y2="106.814" gradientUnits="userSpaceOnUse">
<stop stop-color="#F9B776"/>
<stop offset="1" stop-color="#F47960"/>
</linearGradient>
<linearGradient id="paint21_linear_1668_32972" x1="287.703" y1="88.568" x2="257.753" y2="118.314" gradientUnits="userSpaceOnUse">
<stop stop-color="#F9B776"/>
<stop offset="1" stop-color="#F47960"/>
</linearGradient>
<linearGradient id="paint22_linear_1668_32972" x1="242.343" y1="39.365" x2="275.462" y2="85.1107" gradientUnits="userSpaceOnUse">
<stop stop-color="#2B3582"/>
<stop offset="1" stop-color="#150E42"/>
</linearGradient>
<linearGradient id="paint23_linear_1668_32972" x1="281.239" y1="82.0597" x2="251.289" y2="111.805" gradientUnits="userSpaceOnUse">
<stop stop-color="#F9B776"/>
<stop offset="1" stop-color="#F47960"/>
</linearGradient>
<linearGradient id="paint24_linear_1668_32972" x1="231.743" y1="367.462" x2="296.734" y2="250.176" gradientUnits="userSpaceOnUse">
<stop stop-color="#F9B776"/>
<stop offset="1" stop-color="#F47960"/>
</linearGradient>
<linearGradient id="paint25_linear_1668_32972" x1="245.764" y1="326.079" x2="265.082" y2="325.897" gradientUnits="userSpaceOnUse">
<stop stop-color="#2B3582"/>
<stop offset="1" stop-color="#150E42"/>
</linearGradient>
<linearGradient id="paint26_linear_1668_32972" x1="305.827" y1="280.451" x2="207.285" y2="312.989" gradientUnits="userSpaceOnUse">
<stop stop-color="#F9B776"/>
<stop offset="1" stop-color="#F47960"/>
</linearGradient>
<linearGradient id="paint27_linear_1668_32972" x1="263.705" y1="329.399" x2="286.734" y2="329.182" gradientUnits="userSpaceOnUse">
<stop stop-color="#2B3582"/>
<stop offset="1" stop-color="#150E42"/>
</linearGradient>
<linearGradient id="paint28_linear_1668_32972" x1="306.415" y1="155.019" x2="251.603" y2="263.122" gradientUnits="userSpaceOnUse">
<stop stop-color="#2B3582"/>
<stop offset="1" stop-color="#150E42"/>
</linearGradient>
<linearGradient id="paint29_linear_1668_32972" x1="238.018" y1="186.512" x2="331.173" y2="48.4114" gradientUnits="userSpaceOnUse">
<stop stop-color="#F9B776"/>
<stop offset="1" stop-color="#F47960"/>
</linearGradient>
<linearGradient id="paint30_linear_1668_32972" x1="323.088" y1="99.832" x2="345.681" y2="175.16" gradientUnits="userSpaceOnUse">
<stop stop-color="#2B3582"/>
<stop offset="1" stop-color="#150E42"/>
</linearGradient>
<linearGradient id="paint31_linear_1668_32972" x1="330.824" y1="107.617" x2="328.723" y2="119.181" gradientUnits="userSpaceOnUse">
<stop stop-color="#53D8FF"/>
<stop offset="1" stop-color="#3840F7"/>
</linearGradient>
<linearGradient id="paint32_linear_1668_32972" x1="339.351" y1="109.611" x2="330.226" y2="125.638" gradientUnits="userSpaceOnUse">
<stop stop-color="#F9B776"/>
<stop offset="1" stop-color="#F47960"/>
</linearGradient>
<clipPath id="clip0_1668_32972">
<rect width="344.179" height="341" fill="white" transform="translate(0.962891)"/>
</clipPath>
</defs>
</svg>
