<svg width="159" height="161" viewBox="0 0 159 161" fill="none" xmlns="http://www.w3.org/2000/svg">
<g filter="url(#filter0_d_246_3033)">
<path d="M54.2247 20.7327C55.3411 20.7327 56.2462 19.8277 56.2462 18.7112V14.8106C56.2462 13.6941 55.3411 12.7891 54.2247 12.7891C53.1082 12.7891 52.2031 13.6941 52.2031 14.8106V18.7112C52.2031 19.8274 53.1082 20.7327 54.2247 20.7327Z" fill="url(#paint0_linear_246_3033)"/>
<path d="M81.3258 30.7736L84.0838 28.0154C84.8733 27.2259 84.8733 25.9459 84.0838 25.1567C83.2943 24.3669 82.0143 24.3672 81.2251 25.1567L78.4671 27.9149C77.6776 28.7044 77.6776 29.9844 78.4671 30.7736C78.8617 31.1685 79.3792 31.3656 79.8966 31.3656C80.4138 31.3656 80.9309 31.1682 81.3258 30.7736Z" fill="url(#paint1_linear_246_3033)"/>
<path d="M27.1257 79.2552L24.3675 82.0132C23.578 82.8026 23.578 84.0824 24.3675 84.8719C24.7621 85.2667 25.2796 85.4639 25.797 85.4639C26.3144 85.4639 26.8316 85.2665 27.2265 84.8719L29.9847 82.1139C30.7742 81.3244 30.7742 80.0447 29.9847 79.2552C29.1952 78.4657 27.9152 78.4657 27.1257 79.2552Z" fill="url(#paint2_linear_246_3033)"/>
<path d="M94.4297 57.0362C95.5461 57.0362 96.4512 56.1312 96.4512 55.0147C96.4512 53.8982 95.5461 52.9932 94.4297 52.9932H90.5293C89.4129 52.9932 88.5078 53.8982 88.5078 55.0147C88.5078 56.1312 89.4129 57.0362 90.5293 57.0362H94.4297Z" fill="url(#paint3_linear_246_3033)"/>
<path d="M17.9221 52.9932H14.0215C12.905 52.9932 12 53.8982 12 55.0147C12 56.1312 12.905 57.0362 14.0215 57.0362H17.9221C19.0386 57.0362 19.9436 56.1312 19.9436 55.0147C19.9436 53.8982 19.0383 52.9932 17.9221 52.9932Z" fill="url(#paint4_linear_246_3033)"/>
<path d="M81.3258 79.2552C80.5363 78.4657 79.2563 78.4657 78.4671 79.2552C77.6776 80.0447 77.6776 81.3247 78.4671 82.1139L80.9945 84.6413C81.3891 85.0359 81.9065 85.2333 82.424 85.2333C82.9414 85.2333 83.4586 85.0359 83.8535 84.6413C84.643 83.8518 84.643 82.5718 83.8535 81.7826L81.3258 79.2552Z" fill="url(#paint5_linear_246_3033)"/>
<path d="M27.1255 30.7735C27.5201 31.1681 28.0375 31.3655 28.5549 31.3655C29.0724 31.3655 29.5896 31.1681 29.9844 30.7735C30.7739 29.984 30.7739 28.704 29.9844 27.9148L27.2262 25.1566C26.4367 24.3671 25.1567 24.3671 24.3675 25.1566C23.578 25.9461 23.578 27.226 24.3675 28.0153L27.1255 30.7735Z" fill="url(#paint6_linear_246_3033)"/>
<path d="M47.7524 69.9875C47.9113 69.8289 48.0969 69.792 48.3046 69.8776C48.5122 69.9638 48.6173 70.1211 48.6173 70.3458C48.6173 73.0194 50.7923 75.1945 53.466 75.1945H54.9838C57.6575 75.1945 59.8325 73.0194 59.8325 70.3458C59.8325 70.1211 59.9379 69.9636 60.1453 69.8776C60.3529 69.792 60.5385 69.8286 60.6974 69.9875C61.6133 70.9034 62.8308 71.4076 64.1258 71.4076C65.4209 71.4076 66.6387 70.9034 67.5545 69.9875L68.6279 68.9141C69.5437 67.9983 70.0479 66.7808 70.0479 65.4858C70.0479 64.1907 69.5437 62.9729 68.6279 62.0571C68.469 61.8982 68.4321 61.7123 68.518 61.5049C68.6042 61.2972 68.7615 61.1922 68.9861 61.1922C71.6598 61.1922 73.8349 59.0171 73.8349 56.3435V54.8256C73.8349 52.152 71.6595 49.9769 68.9861 49.9769C68.7615 49.9769 68.6042 49.8716 68.518 49.6642C68.4321 49.4565 68.469 49.2709 68.6279 49.112C69.5437 48.1962 70.0479 46.9787 70.0479 45.6834C70.0479 44.3883 69.5437 43.1705 68.6279 42.255L67.5548 41.1816C66.639 40.2658 65.4212 39.7615 64.1261 39.7615C62.831 39.7615 61.6133 40.2658 60.6977 41.1816C60.5385 41.3402 60.3529 41.3771 60.1455 41.2915C59.9379 41.2053 59.8328 41.048 59.8328 40.8233C59.8328 38.1497 57.6577 35.9746 54.9841 35.9746H53.4663C50.7926 35.9746 48.6175 38.1497 48.6175 40.8233C48.6175 41.048 48.5122 41.2055 48.3048 41.2915C48.0971 41.3774 47.9116 41.3402 47.7526 41.1816C46.8368 40.2658 45.6191 39.7615 44.3242 39.7615C43.0292 39.7615 41.8114 40.2658 40.8956 41.1818L39.8225 42.255C38.9066 43.1708 38.4024 44.3886 38.4024 45.6836C38.4024 46.9787 38.9066 48.1965 39.8225 49.1123C39.9814 49.2712 40.0183 49.4571 39.9321 49.6645C39.8462 49.8721 39.6886 49.9772 39.4639 49.9772C36.7903 49.9772 34.6152 52.1523 34.6152 54.8259V56.3437C34.6152 59.0174 36.7903 61.1925 39.4639 61.1925C39.6886 61.1925 39.8462 61.2978 39.9321 61.5052C40.0183 61.7129 39.9811 61.8984 39.8225 62.0574C38.9066 62.9732 38.4024 64.1909 38.4024 65.486C38.4024 66.7811 38.9066 67.9989 39.8225 68.9144L40.8959 69.9878C42.7859 71.8779 45.862 71.8779 47.7524 69.9875ZM39.4637 57.1491C39.0192 57.1491 38.658 56.7876 38.658 56.3435V54.8256C38.658 54.3812 39.0195 54.02 39.4637 54.02C41.3104 54.02 42.9605 52.9175 43.667 51.2114C44.3738 49.5053 43.9865 47.5589 42.6806 46.253C42.4754 46.0478 42.4447 45.8081 42.4447 45.6834C42.4447 45.5586 42.4751 45.3192 42.6809 45.1134L43.754 44.0403C44.0681 43.7259 44.5793 43.7257 44.8934 44.0403C46.1992 45.3461 48.1456 45.7329 49.8515 45.0267C51.5579 44.3201 52.6603 42.67 52.6603 40.8233C52.6603 40.3789 53.0218 40.0177 53.466 40.0177H54.9838C55.4283 40.0177 55.7895 40.3792 55.7895 40.8233C55.7895 42.67 56.892 44.3201 58.5981 45.0267C60.3042 45.7337 62.2503 45.3464 63.5564 44.0403C63.7617 43.835 64.0014 43.8043 64.1261 43.8043C64.2508 43.8043 64.4903 43.8347 64.6958 44.0403L65.7692 45.1137C66.0833 45.4277 66.0833 45.939 65.7692 46.253C64.4633 47.5589 64.0763 49.505 64.7828 51.2111C65.4896 52.9172 67.1394 54.0197 68.9861 54.0197C69.4306 54.0197 69.7921 54.3812 69.7921 54.8254V56.3432C69.7921 56.7876 69.4306 57.1489 68.9861 57.1489C67.1394 57.1489 65.4896 58.2513 64.7828 59.9574C64.076 61.6636 64.4631 63.6099 65.7692 64.9155C66.0833 65.2296 66.0833 65.7408 65.7692 66.0549L64.6958 67.1283C64.3815 67.4424 63.8705 67.4424 63.5564 67.1283C62.2506 65.8225 60.3039 65.4354 58.5983 66.1419C56.8922 66.8487 55.7897 68.4985 55.7897 70.3452C55.7897 70.7897 55.4283 71.1509 54.9841 71.1509H53.4663C53.0218 71.1509 52.6606 70.7894 52.6606 70.3452C52.6606 68.4983 51.5581 66.8484 49.8517 66.1419C49.2856 65.9073 48.693 65.7934 48.106 65.7934C46.9244 65.7934 45.7661 66.2556 44.8937 67.128C44.5793 67.4424 44.0684 67.4421 43.7543 67.128L42.6809 66.0546C42.4756 65.8494 42.4449 65.6097 42.4449 65.4849C42.4449 65.3602 42.4754 65.1208 42.6809 64.9153C43.9867 63.6094 44.3738 61.6633 43.6673 59.9572C42.9602 58.2516 41.3104 57.1491 39.4637 57.1491Z" fill="url(#paint7_linear_246_3033)"/>
<path d="M54.2266 62.6016C58.0959 62.6016 61.2442 59.4536 61.2442 55.584C61.2442 51.7144 58.0962 48.5664 54.2266 48.5664C50.3572 48.5664 47.209 51.7144 47.209 55.584C47.209 59.4536 50.357 62.6016 54.2266 62.6016ZM54.2266 52.6095C55.8667 52.6095 57.2011 53.9439 57.2011 55.584C57.2011 57.2241 55.8667 58.5585 54.2266 58.5585C52.5865 58.5585 51.2521 57.2241 51.2521 55.584C51.2521 53.9439 52.5865 52.6095 54.2266 52.6095Z" fill="url(#paint8_linear_246_3033)"/>
<path d="M146.362 87.0844L140.332 74.4262C140.1 73.9392 139.974 73.3967 139.967 72.8574L139.852 63.585C139.852 35.2383 117.03 12.0972 88.9792 12.0003C88.9199 12 88.8607 12 88.8011 12C79.6828 12 70.7377 14.4318 62.922 19.0375C61.9601 19.6042 61.6399 20.8436 62.2066 21.8054C62.7733 22.7673 64.0127 23.0876 64.9745 22.5209C72.1688 18.2814 80.4042 16.0431 88.8011 16.0431C88.8558 16.0431 88.9105 16.0431 88.9652 16.0433C114.794 16.1328 135.808 37.46 135.809 63.6101L135.924 72.9073C135.938 74.027 136.2 75.1532 136.681 76.1646L142.712 88.8228C143.921 91.3618 142.055 94.2437 139.309 94.2439C134.985 94.1933 131.435 97.6928 131.435 102.042L131.434 118.37C131.434 122.275 127.966 125.264 124.108 124.7L109.994 122.63C105.713 122.002 101.874 125.324 101.874 129.646V132.769C101.874 133.49 101.254 134.055 100.536 133.988L60.2838 130.266C59.6536 130.208 59.1715 129.68 59.1715 129.047V123.465C59.1715 122.348 58.2664 121.443 57.1499 121.443C56.0335 121.443 55.1284 122.348 55.1284 123.465V129.044C55.1284 129.444 54.7844 129.758 54.3858 129.721V129.721C50.4039 129.352 46.9609 132.493 46.9609 136.491V143.062C46.9609 146.807 50.0079 149.857 53.7533 149.861L106.875 149.911H106.882C110.637 149.911 113.681 146.873 113.681 143.112V141.403C113.681 137.869 111.027 134.958 107.508 134.633L107.029 134.589C106.399 134.53 105.917 134.002 105.917 133.369V129.645C105.917 127.784 107.562 126.361 109.407 126.63L123.521 128.7C129.824 129.625 135.477 124.733 135.477 118.37L135.478 102.042C135.478 99.9611 137.169 98.2625 139.289 98.2867C145.042 98.287 148.84 92.2876 146.362 87.0844ZM109.638 141.403V143.113C109.638 144.635 108.406 145.869 106.882 145.869C106.881 145.869 106.88 145.869 106.879 145.869L53.7568 145.818C52.2387 145.816 51.0037 144.58 51.0037 143.062V136.491C51.0037 134.88 52.3837 133.596 54.0133 133.747L56.942 134.018V134.018C56.9435 134.018 56.9449 134.018 56.9463 134.018L107.136 138.659C108.562 138.791 109.638 139.97 109.638 141.403Z" fill="url(#paint9_linear_246_3033)"/>
<path d="M50.2419 116.036H58.7779C63.8588 116.036 68.0894 112.33 68.9105 107.48C68.984 107.045 69.2609 106.673 69.6309 106.434C70.9005 105.614 71.7435 104.188 71.7435 102.568V92.8087C71.7435 91.5365 71.2246 90.3836 70.3876 89.5495C70.0105 89.1738 69.7963 88.636 69.9554 88.128C71.5033 83.1841 74.041 78.5306 77.3857 74.5446C94.0509 54.6853 79.4996 24.5757 53.7956 24.9169C28.4568 25.2701 14.8661 54.9902 30.9435 74.397C34.3335 78.489 36.9046 83.1994 38.4714 88.1469C38.6317 88.6532 38.4206 89.1906 38.0465 89.5676C37.2202 90.4001 36.7089 91.5456 36.7089 92.8084V102.568C36.7089 104.378 37.7606 105.945 39.2846 106.696C39.7261 106.914 40.0725 107.309 40.1697 107.791C41.1156 112.488 45.2709 116.036 50.2419 116.036ZM41.3127 103.129C41.0032 103.129 40.7517 102.877 40.7517 102.568V92.8087C40.7517 92.4992 41.0032 92.2476 41.3127 92.2476H67.1353C67.142 92.2481 67.1487 92.2489 67.1555 92.2492C67.4569 92.2584 67.6999 92.5051 67.6999 92.8087V102.568C67.6999 102.877 67.448 103.129 67.1388 103.129H41.3127ZM58.7779 111.993H50.2419C47.8335 111.993 45.7409 110.62 44.7035 108.616C44.341 107.915 44.9252 107.172 45.714 107.172H63.3059C64.0946 107.172 64.6789 107.915 64.3163 108.616C63.279 110.62 61.1863 111.993 58.7779 111.993ZM53.8519 28.9595C76.2724 28.6637 88.587 54.9062 74.2886 71.9458C70.5138 76.444 67.6706 81.7145 65.9761 87.3117C65.8168 87.8378 65.3361 88.2045 64.7864 88.2045H43.6356C43.0875 88.2045 42.6078 87.8399 42.4472 87.3158C40.7361 81.7314 37.8659 76.416 34.0568 71.8178C20.1261 55.0021 31.9202 29.2655 53.8519 28.9595Z" fill="url(#paint10_linear_246_3033)"/>
</g>
<defs>
<filter id="filter0_d_246_3033" x="0.974246" y="0.974246" width="157.184" height="159.963" filterUnits="userSpaceOnUse" color-interpolation-filters="sRGB">
<feFlood flood-opacity="0" result="BackgroundImageFix"/>
<feColorMatrix in="SourceAlpha" type="matrix" values="0 0 0 0 0 0 0 0 0 0 0 0 0 0 0 0 0 0 127 0" result="hardAlpha"/>
<feMorphology radius="3.67525" operator="dilate" in="SourceAlpha" result="effect1_dropShadow_246_3033"/>
<feOffset/>
<feGaussianBlur stdDeviation="3.67525"/>
<feComposite in2="hardAlpha" operator="out"/>
<feColorMatrix type="matrix" values="0 0 0 0 0 0 0 0 0 0 0 0 0 0 0 0 0 0 0.03 0"/>
<feBlend mode="normal" in2="BackgroundImageFix" result="effect1_dropShadow_246_3033"/>
<feBlend mode="normal" in="SourceGraphic" in2="effect1_dropShadow_246_3033" result="shape"/>
</filter>
<linearGradient id="paint0_linear_246_3033" x1="53.9073" y1="14.8809" x2="57.1467" y2="15.4312" gradientUnits="userSpaceOnUse">
<stop stop-color="#8372F2"/>
<stop offset="1" stop-color="#ED6FCB"/>
</linearGradient>
<linearGradient id="paint1_linear_246_3033" x1="80.7416" y1="26.3554" x2="85.7861" y2="28.0389" gradientUnits="userSpaceOnUse">
<stop stop-color="#8372F2"/>
<stop offset="1" stop-color="#ED6FCB"/>
</linearGradient>
<linearGradient id="paint2_linear_246_3033" x1="26.6422" y1="80.454" x2="31.687" y2="82.1378" gradientUnits="userSpaceOnUse">
<stop stop-color="#8372F2"/>
<stop offset="1" stop-color="#ED6FCB"/>
</linearGradient>
<linearGradient id="paint3_linear_246_3033" x1="91.856" y1="54.0578" x2="96.4353" y2="57.0605" gradientUnits="userSpaceOnUse">
<stop stop-color="#8372F2"/>
<stop offset="1" stop-color="#ED6FCB"/>
</linearGradient>
<linearGradient id="paint4_linear_246_3033" x1="15.3483" y1="54.0578" x2="19.9276" y2="57.0607" gradientUnits="userSpaceOnUse">
<stop stop-color="#8372F2"/>
<stop offset="1" stop-color="#ED6FCB"/>
</linearGradient>
<linearGradient id="paint5_linear_246_3033" x1="80.6445" y1="80.3933" x2="85.5181" y2="82.0199" gradientUnits="userSpaceOnUse">
<stop stop-color="#8372F2"/>
<stop offset="1" stop-color="#ED6FCB"/>
</linearGradient>
<linearGradient id="paint6_linear_246_3033" x1="26.6421" y1="26.3554" x2="31.6868" y2="28.0391" gradientUnits="userSpaceOnUse">
<stop stop-color="#8372F2"/>
<stop offset="1" stop-color="#ED6FCB"/>
</linearGradient>
<linearGradient id="paint7_linear_246_3033" x1="51.1464" y1="46.3025" x2="80.2371" y2="56.0114" gradientUnits="userSpaceOnUse">
<stop stop-color="#8372F2"/>
<stop offset="1" stop-color="#ED6FCB"/>
</linearGradient>
<linearGradient id="paint8_linear_246_3033" x1="53.1248" y1="52.2623" x2="63.5353" y2="55.7368" gradientUnits="userSpaceOnUse">
<stop stop-color="#8372F2"/>
<stop offset="1" stop-color="#ED6FCB"/>
</linearGradient>
<linearGradient id="paint9_linear_246_3033" x1="89.1836" y1="48.3167" x2="167.178" y2="67.2237" gradientUnits="userSpaceOnUse">
<stop stop-color="#8372F2"/>
<stop offset="1" stop-color="#ED6FCB"/>
</linearGradient>
<linearGradient id="paint10_linear_246_3033" x1="49.5007" y1="48.9096" x2="97.0398" y2="59.4436" gradientUnits="userSpaceOnUse">
<stop stop-color="#8372F2"/>
<stop offset="1" stop-color="#ED6FCB"/>
</linearGradient>
</defs>
</svg>
