<svg width="82" height="82" viewBox="0 0 82 82" fill="none" xmlns="http://www.w3.org/2000/svg">
<g filter="url(#filter0_i_3517_22170)">
<circle cx="41" cy="41" r="41" fill="url(#paint0_linear_3517_22170)"/>
</g>
<g clip-path="url(#clip0_3517_22170)">
<g filter="url(#filter1_di_3517_22170)">
<path fill-rule="evenodd" clip-rule="evenodd" d="M52.0583 24.1843L52.5365 24.2443C53.8002 24.4187 55.4727 24.6531 56.4196 25.6018C57.1958 26.3762 57.494 27.6362 57.6721 28.7612L57.7771 29.485C58.0133 31.1912 58.0752 33.4262 57.6721 35.9087C56.8771 40.8081 54.269 46.6543 47.7196 51.1806C47.684 51.5331 47.6821 51.8893 47.6896 52.2456L47.7083 52.7781C47.7383 53.5975 47.7683 54.415 47.5396 55.2118C47.1833 56.4493 45.914 57.265 44.7271 57.85L44.1458 58.1256L43.3958 58.4556C41.9933 59.0518 40.0996 59.6631 38.9127 58.4743C38.2002 57.7637 37.9077 56.7212 37.6696 55.6843L37.5815 55.2962C37.4822 54.8062 37.357 54.3218 37.2065 53.845C37.1127 53.5712 37.0115 53.2918 36.9027 53.0106C36.783 53.1575 36.656 53.2983 36.5221 53.4325C35.8752 54.0793 34.9096 54.5312 34.1146 54.8481C33.2465 55.1912 32.264 55.4912 31.3546 55.7387L30.8877 55.8625L29.9933 56.0856L29.1833 56.2731L28.214 56.4793L27.6083 56.5975C27.3063 56.6534 26.9952 56.635 26.7018 56.5439C26.4085 56.4528 26.1417 56.2917 25.9245 56.0744C25.7073 55.8572 25.5462 55.5905 25.455 55.2971C25.3639 55.0037 25.3455 54.6926 25.4015 54.3906L25.5627 53.5825L25.8515 52.2737L26.084 51.3175L26.2602 50.6425C26.5077 49.735 26.8077 48.7525 27.1527 47.8862C27.4677 47.0893 27.9196 46.1237 28.5665 45.4768L28.7165 45.3325L28.5965 45.2837C28.276 45.1619 27.9514 45.0512 27.6233 44.9518L27.104 44.7925C25.8027 44.3987 24.4115 43.975 23.5471 43.1087C22.4971 42.0606 22.8515 40.465 23.3577 39.1375L23.564 38.6237L23.8958 37.8737L24.1715 37.2925C24.7565 36.1075 25.5721 34.8381 26.8096 34.4818C27.4658 34.2943 28.1483 34.2831 28.8346 34.3018L29.2471 34.315C29.7833 34.3337 30.3177 34.3543 30.8408 34.3037C35.3671 27.7525 41.2133 25.1443 46.1127 24.3493C48.0781 24.027 50.0781 23.9715 52.0583 24.1843ZM33.6608 47.95C33.3657 47.7315 33.0131 47.6045 32.6465 47.5845C32.2799 47.5645 31.9154 47.6524 31.5983 47.8375L31.3921 47.9762L31.2177 48.1318L30.9833 48.4281C30.4958 49.1331 30.2183 50.1081 30.0027 51.0193L29.8002 51.8968L29.7046 52.2962L30.0627 52.21L30.8465 52.03C31.9302 51.7768 33.1321 51.4487 33.8708 50.7831C34.192 50.462 34.3858 50.0353 34.4162 49.5822C34.4465 49.1291 34.3114 48.6803 34.0358 48.3193L33.8821 48.1431L33.8371 48.1L33.6608 47.95ZM47.129 34.8737C46.7808 34.5254 46.3674 34.2491 45.9125 34.0606C45.4575 33.872 44.9699 33.775 44.4774 33.7749C43.985 33.7748 43.4973 33.8717 43.0423 34.0601C42.5873 34.2485 42.1738 34.5246 41.8255 34.8728C41.4772 35.2209 41.2009 35.6343 41.0124 36.0893C40.8238 36.5442 40.7268 37.0318 40.7267 37.5243C40.7266 38.0168 40.8235 38.5044 41.0119 38.9595C41.2003 39.4145 41.4764 39.8279 41.8246 40.1762C42.5277 40.8796 43.4815 41.2749 44.4761 41.2751C45.4707 41.2752 46.4246 40.8803 47.128 40.1772C47.8314 39.474 48.2267 38.5202 48.2269 37.5256C48.227 36.531 47.8321 35.5771 47.129 34.8737Z" fill="white"/>
</g>
</g>
<defs>
<filter id="filter0_i_3517_22170" x="0" y="0" width="86" height="88" filterUnits="userSpaceOnUse" color-interpolation-filters="sRGB">
<feFlood flood-opacity="0" result="BackgroundImageFix"/>
<feBlend mode="normal" in="SourceGraphic" in2="BackgroundImageFix" result="shape"/>
<feColorMatrix in="SourceAlpha" type="matrix" values="0 0 0 0 0 0 0 0 0 0 0 0 0 0 0 0 0 0 127 0" result="hardAlpha"/>
<feOffset dx="4" dy="6"/>
<feGaussianBlur stdDeviation="4"/>
<feComposite in2="hardAlpha" operator="arithmetic" k2="-1" k3="1"/>
<feColorMatrix type="matrix" values="0 0 0 0 0 0 0 0 0 0 0 0 0 0 0 0 0 0 0.25 0"/>
<feBlend mode="normal" in2="shape" result="effect1_innerShadow_3517_22170"/>
</filter>
<filter id="filter1_di_3517_22170" x="18.8672" y="21.0576" width="43.0977" height="46.0967" filterUnits="userSpaceOnUse" color-interpolation-filters="sRGB">
<feFlood flood-opacity="0" result="BackgroundImageFix"/>
<feColorMatrix in="SourceAlpha" type="matrix" values="0 0 0 0 0 0 0 0 0 0 0 0 0 0 0 0 0 0 127 0" result="hardAlpha"/>
<feOffset dy="4"/>
<feGaussianBlur stdDeviation="2"/>
<feComposite in2="hardAlpha" operator="out"/>
<feColorMatrix type="matrix" values="0 0 0 0 0 0 0 0 0 0 0 0 0 0 0 0 0 0 0.25 0"/>
<feBlend mode="normal" in2="BackgroundImageFix" result="effect1_dropShadow_3517_22170"/>
<feBlend mode="normal" in="SourceGraphic" in2="effect1_dropShadow_3517_22170" result="shape"/>
<feColorMatrix in="SourceAlpha" type="matrix" values="0 0 0 0 0 0 0 0 0 0 0 0 0 0 0 0 0 0 127 0" result="hardAlpha"/>
<feOffset dy="-3"/>
<feGaussianBlur stdDeviation="2"/>
<feComposite in2="hardAlpha" operator="arithmetic" k2="-1" k3="1"/>
<feColorMatrix type="matrix" values="0 0 0 0 0 0 0 0 0 0 0 0 0 0 0 0 0 0 0.25 0"/>
<feBlend mode="normal" in2="shape" result="effect2_innerShadow_3517_22170"/>
</filter>
<linearGradient id="paint0_linear_3517_22170" x1="34.5631" y1="21.5933" x2="95.3857" y2="41.8926" gradientUnits="userSpaceOnUse">
<stop stop-color="#8372F2"/>
<stop offset="1" stop-color="#ED6FCB"/>
</linearGradient>
<clipPath id="clip0_3517_22170">
<rect width="45" height="45" fill="white" transform="translate(18 19)"/>
</clipPath>
</defs>
</svg>
