<svg width="314" height="285" viewBox="0 0 314 285" fill="none" xmlns="http://www.w3.org/2000/svg">
<path d="M141.879 237.743H165.678C168.342 237.743 170.496 239.906 170.496 242.561V279.851C170.496 282.514 168.332 284.669 165.678 284.669H141.879C139.215 284.669 137.061 282.505 137.061 279.851V242.561C137.061 239.897 139.224 237.743 141.879 237.743Z" fill="url(#paint0_linear_585_3693)"/>
<path d="M234.412 113.391C234.412 68.1377 197.194 31.5841 151.696 32.6568C108.388 33.6841 73.2703 69.3559 72.8976 112.673C72.6703 139.181 85.2154 162.753 104.751 177.644C115.187 185.589 121.26 197.989 121.26 211.107V232.761H186.04V211.107C186.04 197.953 192.185 185.571 202.631 177.589C221.939 162.835 234.402 139.581 234.402 113.4L234.412 113.391Z" fill="url(#paint1_radial_585_3693)"/>
<path d="M118.688 228.197H188.886V272.514C188.886 276.56 185.604 279.841 181.559 279.841H126.015C121.969 279.841 118.688 276.56 118.688 272.514V228.197Z" fill="url(#paint2_linear_585_3693)"/>
<path d="M2.48196 284.195C2.30015 284.195 2.12743 284.086 2.0547 283.895C1.60926 282.696 1.2729 281.496 1.04564 280.332C1.00018 280.086 1.15472 279.85 1.40017 279.796C1.64562 279.75 1.88198 279.905 1.93652 280.159C2.1547 281.277 2.48196 282.432 2.90922 283.577C3.00013 283.814 2.87286 284.077 2.64559 284.159C2.59105 284.177 2.53651 284.186 2.49105 284.186L2.48196 284.195ZM1.23654 275.278C1.23654 275.278 1.20018 275.278 1.182 275.278C0.936547 275.25 0.754735 275.023 0.782007 274.778C0.918367 273.532 1.20018 272.314 1.60926 271.141C1.69107 270.905 1.9547 270.778 2.19106 270.859C2.42742 270.941 2.55469 271.205 2.47287 271.441C2.09106 272.55 1.82743 273.705 1.69107 274.878C1.6638 275.114 1.46381 275.287 1.23654 275.287V275.278ZM4.65463 266.987C4.55463 266.987 4.45464 266.95 4.37282 266.887C4.17283 266.732 4.14556 266.441 4.3001 266.25C4.67281 265.778 5.0728 265.323 5.48188 264.896C5.92733 264.441 6.38186 263.996 6.85458 263.569C7.03639 263.396 7.32729 263.405 7.50001 263.596C7.67274 263.778 7.65456 264.069 7.47274 264.241C7.01821 264.66 6.57277 265.096 6.13641 265.541C5.74551 265.941 5.36371 266.378 5.01826 266.823C4.92735 266.932 4.79099 266.996 4.66372 266.996L4.65463 266.987ZM11.309 260.814C11.1817 260.814 11.0454 260.76 10.9545 260.651C10.7908 260.46 10.8181 260.169 11.0181 260.014C11.909 259.278 12.8544 258.478 13.7544 257.651C13.9362 257.478 14.2271 257.496 14.3998 257.678C14.5726 257.86 14.5544 258.151 14.3726 258.323C13.4544 259.16 12.4999 259.969 11.5999 260.714C11.5181 260.787 11.409 260.823 11.309 260.823V260.814ZM17.7452 254.424C17.6543 254.424 17.5543 254.396 17.4725 254.333C17.2725 254.187 17.227 253.896 17.3816 253.696C18.027 252.833 18.6815 251.851 19.3724 250.705C19.4997 250.487 19.7815 250.424 19.9997 250.551C20.2179 250.678 20.2815 250.96 20.1542 251.178C19.4452 252.351 18.7815 253.351 18.1179 254.242C18.027 254.36 17.8907 254.424 17.7543 254.424H17.7452ZM22.4542 246.651C22.3814 246.651 22.2996 246.633 22.236 246.596C22.0178 246.478 21.936 246.196 22.0633 245.978C22.5905 245.033 23.2269 243.915 23.9178 242.824C24.0541 242.615 24.3359 242.551 24.545 242.678C24.7541 242.815 24.8177 243.097 24.6905 243.306C24.0087 244.387 23.3814 245.487 22.8633 246.424C22.7814 246.569 22.6269 246.66 22.4633 246.66L22.4542 246.651ZM27.5813 239.169C27.4722 239.169 27.354 239.133 27.2722 239.042C27.0904 238.869 27.0813 238.578 27.254 238.397C27.654 237.969 28.0722 237.56 28.4995 237.188C28.9904 236.751 29.5085 236.342 30.0449 235.951C30.2449 235.806 30.5358 235.851 30.6812 236.051C30.8267 236.251 30.7812 236.542 30.5812 236.688C30.0722 237.06 29.5722 237.451 29.1085 237.869C28.7086 238.224 28.3086 238.615 27.9177 239.024C27.8268 239.115 27.7086 239.169 27.5904 239.169H27.5813ZM35.0993 234.215C34.9175 234.215 34.7448 234.106 34.672 233.924C34.5811 233.688 34.6993 233.424 34.9266 233.333C36.0175 232.906 37.1629 232.533 38.4356 232.197C38.681 232.133 38.9265 232.279 38.9901 232.524C39.0537 232.77 38.9083 233.015 38.6628 233.079C37.4265 233.406 36.3084 233.76 35.2538 234.179C35.1993 234.197 35.1448 234.215 35.0902 234.215H35.0993ZM43.9082 232.033C43.69 232.033 43.49 231.87 43.4627 231.642C43.4264 231.397 43.5991 231.16 43.8445 231.124C44.899 230.97 46.0536 230.815 47.4626 230.651C47.7172 230.633 47.9353 230.806 47.9626 231.051C47.9899 231.297 47.8172 231.524 47.5626 231.551C46.1626 231.715 45.0172 231.86 43.9718 232.015C43.9445 232.015 43.9263 232.015 43.9082 232.015V232.033ZM52.9443 230.96C52.717 230.96 52.517 230.788 52.4898 230.56C52.4625 230.315 52.6352 230.088 52.8897 230.061C54.2988 229.897 55.4351 229.751 56.4806 229.588C56.726 229.551 56.9624 229.724 56.9987 229.97C57.0351 230.215 56.8624 230.451 56.6169 230.488C55.5624 230.651 54.417 230.797 52.9897 230.97C52.9716 230.97 52.9534 230.97 52.9352 230.97L52.9443 230.96ZM61.8986 229.406C61.6986 229.406 61.5168 229.27 61.4623 229.07C61.3986 228.824 61.5441 228.579 61.7804 228.515C63.0168 228.179 64.1258 227.815 65.1713 227.388C65.3985 227.288 65.6712 227.406 65.7621 227.633C65.8531 227.87 65.744 228.133 65.5167 228.224C64.4349 228.67 63.2895 229.051 62.0168 229.388C61.9804 229.397 61.935 229.406 61.8986 229.406ZM70.0802 225.597C69.9439 225.597 69.8075 225.533 69.7166 225.415C69.562 225.215 69.6075 224.933 69.8075 224.779C70.5257 224.233 71.1984 223.642 71.8074 222.997C72.0074 222.788 72.1983 222.579 72.3892 222.37C72.5529 222.179 72.8438 222.161 73.0347 222.324C73.2256 222.488 73.2438 222.779 73.0801 222.961C72.8801 223.188 72.6802 223.406 72.4711 223.624C71.8256 224.297 71.1166 224.924 70.362 225.497C70.2802 225.561 70.1802 225.588 70.0893 225.588L70.0802 225.597ZM75.7982 218.624C75.7255 218.624 75.6437 218.606 75.5801 218.57C75.3619 218.452 75.2801 218.17 75.4073 217.952C75.971 216.943 76.48 215.943 77.08 214.743C77.1891 214.515 77.4709 214.434 77.6891 214.543C77.9164 214.652 78.0073 214.925 77.8891 215.152C77.4073 216.106 76.8073 217.288 76.1982 218.388C76.1164 218.534 75.9619 218.624 75.7982 218.624ZM80.0618 210.597C79.98 210.597 79.8981 210.579 79.8254 210.534C79.6072 210.406 79.5436 210.125 79.6709 209.906C79.8436 209.625 80.0163 209.343 80.1981 209.061C80.6799 208.316 81.2163 207.579 81.7708 206.87C81.9254 206.679 82.2163 206.643 82.4072 206.797C82.6072 206.952 82.6344 207.243 82.4799 207.434C81.9345 208.116 81.4254 208.834 80.9527 209.552C80.7799 209.825 80.6072 210.088 80.4436 210.37C80.3618 210.516 80.2072 210.588 80.0527 210.588L80.0618 210.597ZM85.8707 203.652C85.7434 203.652 85.6253 203.598 85.5344 203.498C85.3707 203.316 85.3798 203.025 85.5707 202.852C86.4525 202.061 87.407 201.279 88.4252 200.534C88.6252 200.379 88.907 200.425 89.0615 200.625C89.207 200.825 89.1706 201.116 88.9706 201.261C87.9798 201.998 87.0434 202.761 86.1889 203.525C86.098 203.607 85.998 203.643 85.8889 203.643L85.8707 203.652ZM93.2523 198.38C93.0978 198.38 92.9433 198.298 92.8614 198.152C92.7342 197.934 92.8069 197.661 93.0251 197.534C94.0251 196.952 95.1068 196.361 96.2432 195.789C96.4704 195.67 96.7432 195.761 96.8522 195.989C96.9613 196.216 96.8795 196.489 96.6523 196.598C95.5341 197.17 94.4705 197.743 93.4796 198.325C93.4069 198.37 93.3342 198.389 93.2523 198.389V198.38ZM101.379 194.316C101.207 194.316 101.034 194.216 100.961 194.043C100.861 193.816 100.961 193.543 101.198 193.443C102.307 192.952 103.434 192.48 104.552 192.016C104.788 191.916 105.052 192.034 105.143 192.261C105.243 192.498 105.125 192.761 104.897 192.852C103.779 193.316 102.67 193.789 101.561 194.271C101.498 194.298 101.443 194.307 101.379 194.307V194.316ZM109.788 190.843C109.606 190.843 109.434 190.734 109.37 190.562C109.279 190.325 109.388 190.062 109.625 189.971L112.997 188.607C113.225 188.516 113.497 188.625 113.588 188.852C113.679 189.089 113.57 189.352 113.343 189.443L109.97 190.807C109.916 190.825 109.861 190.843 109.797 190.843H109.788ZM118.188 187.371C118.015 187.371 117.843 187.271 117.77 187.098C117.67 186.871 117.77 186.598 118.006 186.498C119.115 186.016 120.224 185.534 121.333 185.043C121.561 184.943 121.833 185.043 121.933 185.271C122.033 185.498 121.933 185.771 121.706 185.871C120.597 186.362 119.488 186.853 118.37 187.334C118.315 187.362 118.252 187.371 118.188 187.371ZM126.479 183.644C126.306 183.644 126.142 183.544 126.07 183.38C125.961 183.153 126.07 182.88 126.288 182.771C127.388 182.262 128.479 181.734 129.57 181.207C129.797 181.098 130.07 181.189 130.179 181.416C130.288 181.644 130.197 181.916 129.97 182.025C128.879 182.553 127.779 183.08 126.679 183.589C126.615 183.616 126.551 183.634 126.488 183.634L126.479 183.644ZM134.651 179.662C134.488 179.662 134.324 179.571 134.242 179.416C134.133 179.189 134.215 178.916 134.442 178.807C135.524 178.262 136.597 177.707 137.669 177.144C137.888 177.026 138.169 177.116 138.278 177.335C138.397 177.562 138.306 177.835 138.088 177.944C137.015 178.507 135.933 179.062 134.851 179.607C134.788 179.644 134.715 179.653 134.642 179.653L134.651 179.662ZM142.697 175.435C142.533 175.435 142.378 175.353 142.297 175.198C142.178 174.98 142.26 174.698 142.478 174.58L143.033 174.28C143.906 173.798 144.778 173.317 145.651 172.826C145.869 172.698 146.151 172.78 146.269 172.998C146.396 173.217 146.315 173.498 146.096 173.617C145.224 174.107 144.342 174.598 143.469 175.08L142.915 175.38C142.842 175.416 142.769 175.435 142.697 175.435ZM150.578 170.908C150.424 170.908 150.278 170.835 150.187 170.689C150.06 170.471 150.124 170.198 150.342 170.062C151.369 169.435 152.396 168.789 153.405 168.135C153.614 167.998 153.896 168.053 154.033 168.271C154.169 168.48 154.114 168.762 153.896 168.898C152.878 169.562 151.851 170.208 150.805 170.844C150.733 170.889 150.651 170.908 150.569 170.908H150.578ZM158.142 165.871C158.005 165.871 157.869 165.808 157.778 165.689C157.632 165.489 157.669 165.199 157.878 165.053C158.878 164.317 159.842 163.58 160.742 162.853C160.932 162.699 161.223 162.726 161.378 162.917C161.532 163.108 161.505 163.399 161.314 163.553C160.405 164.289 159.423 165.044 158.414 165.78C158.332 165.844 158.242 165.871 158.142 165.871ZM165.132 160.071C165.014 160.071 164.896 160.026 164.805 159.926C164.632 159.744 164.641 159.453 164.823 159.281C165.705 158.444 166.56 157.581 167.36 156.717C167.532 156.535 167.814 156.526 168.005 156.69C168.187 156.862 168.196 157.144 168.032 157.335C167.214 158.208 166.35 159.081 165.45 159.935C165.36 160.017 165.25 160.062 165.141 160.062L165.132 160.071ZM234.149 157.581C234.021 157.581 233.894 157.526 233.803 157.426C233.031 156.526 232.203 155.662 231.321 154.835C231.14 154.662 231.131 154.372 231.303 154.19C231.476 154.008 231.767 153.999 231.949 154.172C232.849 155.017 233.703 155.908 234.494 156.835C234.658 157.026 234.64 157.308 234.449 157.481C234.367 157.553 234.258 157.59 234.149 157.59V157.581ZM171.196 153.317C171.105 153.317 171.005 153.29 170.923 153.226C170.723 153.072 170.678 152.79 170.832 152.59C171.55 151.626 172.241 150.635 172.878 149.626C173.014 149.417 173.296 149.354 173.505 149.481C173.714 149.617 173.778 149.899 173.65 150.108C173.005 151.135 172.305 152.153 171.568 153.135C171.478 153.253 171.341 153.317 171.205 153.317H171.196ZM227.385 151.544C227.294 151.544 227.203 151.517 227.131 151.463C226.167 150.799 225.14 150.153 224.085 149.554C223.867 149.426 223.785 149.154 223.913 148.935C224.04 148.717 224.313 148.644 224.531 148.763C225.613 149.372 226.658 150.026 227.649 150.717C227.858 150.863 227.903 151.144 227.767 151.353C227.676 151.481 227.54 151.553 227.394 151.553L227.385 151.544ZM219.413 147.217C219.349 147.217 219.295 147.208 219.24 147.181C218.158 146.726 217.031 146.29 215.867 145.89C215.631 145.808 215.504 145.545 215.586 145.308C215.667 145.072 215.922 144.945 216.167 145.026C217.34 145.435 218.495 145.872 219.595 146.335C219.822 146.435 219.931 146.699 219.84 146.935C219.767 147.108 219.595 147.217 219.422 147.217H219.413ZM175.868 145.535C175.805 145.535 175.741 145.526 175.677 145.49C175.45 145.381 175.35 145.108 175.459 144.881C175.968 143.79 176.432 142.672 176.841 141.563C176.923 141.326 177.187 141.208 177.423 141.29C177.659 141.372 177.777 141.636 177.696 141.872C177.287 143.008 176.814 144.154 176.287 145.263C176.214 145.426 176.041 145.526 175.877 145.526L175.868 145.535ZM210.786 144.354C210.786 144.354 210.713 144.354 210.677 144.335C209.54 144.045 208.349 143.772 207.149 143.535C206.904 143.49 206.74 143.245 206.795 142.999C206.84 142.754 207.086 142.59 207.331 142.645C208.54 142.89 209.749 143.163 210.904 143.454C211.149 143.517 211.295 143.763 211.231 144.008C211.177 144.217 210.995 144.354 210.795 144.354H210.786ZM201.859 142.645C201.859 142.645 201.813 142.645 201.795 142.645C200.622 142.481 199.413 142.345 198.204 142.217C197.959 142.19 197.777 141.972 197.795 141.717C197.822 141.472 198.031 141.29 198.295 141.308C199.513 141.426 200.731 141.572 201.922 141.736C202.168 141.772 202.35 141.999 202.313 142.245C202.286 142.472 202.086 142.636 201.868 142.636L201.859 142.645ZM192.804 141.808C192.804 141.808 192.786 141.808 192.777 141.808C191.568 141.736 190.359 141.681 189.15 141.626C188.895 141.617 188.704 141.408 188.714 141.154C188.723 140.899 188.895 140.69 189.186 140.717C190.404 140.772 191.613 140.826 192.822 140.899C193.077 140.917 193.268 141.126 193.25 141.381C193.241 141.626 193.032 141.808 192.795 141.808H192.804ZM183.723 141.436C183.723 141.436 183.714 141.436 183.705 141.436L180.068 141.317C179.814 141.317 179.623 141.099 179.632 140.845C179.641 140.59 179.859 140.39 180.105 140.408L183.741 140.526C183.995 140.526 184.186 140.745 184.177 140.999C184.177 141.245 183.968 141.436 183.723 141.436ZM174.641 141.09C174.641 141.09 174.623 141.09 174.614 141.09C173.396 141.026 172.187 140.954 170.978 140.872C170.723 140.854 170.541 140.636 170.559 140.39C170.578 140.136 170.823 139.954 171.041 139.972C172.25 140.054 173.45 140.126 174.659 140.19C174.914 140.199 175.105 140.417 175.087 140.663C175.077 140.908 174.878 141.09 174.632 141.09H174.641ZM165.587 140.381C165.587 140.381 165.55 140.381 165.532 140.381C164.287 140.236 163.069 140.072 161.914 139.899C161.669 139.863 161.496 139.626 161.532 139.381C161.569 139.136 161.805 138.963 162.051 138.999C163.196 139.172 164.405 139.336 165.641 139.472C165.887 139.499 166.069 139.726 166.041 139.972C166.014 140.208 165.814 140.372 165.587 140.372V140.381ZM156.623 138.89C156.623 138.89 156.56 138.89 156.523 138.881C155.314 138.608 154.114 138.299 152.978 137.972C152.733 137.899 152.596 137.654 152.669 137.408C152.742 137.163 152.987 137.027 153.233 137.099C154.36 137.417 155.533 137.727 156.733 137.999C156.978 138.054 157.132 138.299 157.078 138.545C157.033 138.754 156.842 138.899 156.633 138.899L156.623 138.89ZM178.759 136.945C178.759 136.945 178.696 136.945 178.668 136.936C178.423 136.881 178.268 136.645 178.314 136.399C178.559 135.218 178.741 134.027 178.859 132.854C178.886 132.608 179.114 132.427 179.359 132.445C179.614 132.472 179.796 132.69 179.768 132.945C179.65 134.145 179.459 135.372 179.205 136.581C179.159 136.799 178.968 136.945 178.759 136.945ZM147.942 136.227C147.887 136.227 147.824 136.217 147.769 136.19C146.578 135.699 145.46 135.172 144.442 134.618C144.224 134.499 144.142 134.218 144.26 133.999C144.378 133.781 144.66 133.699 144.878 133.818C145.869 134.363 146.96 134.872 148.115 135.354C148.351 135.445 148.46 135.717 148.36 135.945C148.287 136.117 148.115 136.227 147.942 136.227ZM140.197 131.563C140.087 131.563 139.978 131.527 139.897 131.445C139.497 131.081 139.106 130.709 138.742 130.318C138.26 129.809 137.806 129.263 137.388 128.69C137.242 128.49 137.288 128.2 137.488 128.054C137.688 127.909 137.978 127.945 138.124 128.154C138.515 128.69 138.951 129.209 139.406 129.69C139.751 130.063 140.124 130.418 140.506 130.763C140.697 130.927 140.706 131.218 140.542 131.409C140.451 131.509 140.324 131.563 140.206 131.563H140.197ZM179.377 127.918C179.141 127.918 178.941 127.736 178.923 127.5C178.832 126.3 178.668 125.109 178.423 123.963C178.368 123.718 178.532 123.472 178.777 123.427C179.023 123.381 179.268 123.536 179.314 123.781C179.559 124.972 179.732 126.2 179.832 127.436C179.85 127.69 179.659 127.909 179.414 127.927C179.405 127.927 179.386 127.927 179.377 127.927V127.918ZM135.324 124.027C135.124 124.027 134.942 123.9 134.888 123.7C134.524 122.454 134.342 121.209 134.333 119.991C134.333 119.736 134.533 119.536 134.788 119.536C135.033 119.536 135.242 119.736 135.242 119.991C135.242 121.127 135.424 122.291 135.76 123.445C135.833 123.691 135.697 123.936 135.451 124.009C135.406 124.018 135.369 124.027 135.324 124.027ZM177.241 119.127C177.068 119.127 176.896 119.027 176.823 118.854C176.341 117.745 175.768 116.691 175.141 115.718C175.005 115.509 175.068 115.227 175.277 115.091C175.487 114.954 175.768 115.018 175.905 115.227C176.559 116.236 177.15 117.336 177.65 118.491C177.75 118.718 177.65 118.991 177.414 119.091C177.35 119.118 177.296 119.127 177.232 119.127H177.241ZM136.051 115.2C135.979 115.2 135.906 115.182 135.842 115.145C135.615 115.027 135.533 114.754 135.651 114.536C136.215 113.445 136.96 112.427 137.869 111.5C138.042 111.318 138.333 111.318 138.515 111.5C138.697 111.673 138.697 111.964 138.515 112.145C137.669 113.009 136.978 113.954 136.46 114.954C136.378 115.109 136.224 115.2 136.06 115.2H136.051ZM171.959 111.827C171.859 111.827 171.75 111.791 171.668 111.718C170.787 110.973 169.805 110.291 168.759 109.7C168.541 109.573 168.459 109.3 168.587 109.082C168.714 108.864 168.987 108.782 169.205 108.909C170.305 109.527 171.332 110.245 172.259 111.027C172.45 111.191 172.478 111.473 172.314 111.664C172.223 111.773 172.096 111.827 171.968 111.827H171.959ZM142.615 109.136C142.451 109.136 142.287 109.045 142.206 108.882C142.097 108.655 142.187 108.382 142.415 108.273C143.478 107.745 144.633 107.282 145.86 106.9C146.096 106.827 146.351 106.955 146.433 107.2C146.506 107.436 146.378 107.691 146.133 107.773C144.96 108.136 143.842 108.582 142.824 109.091C142.76 109.127 142.687 109.136 142.624 109.136H142.615ZM163.941 107.691C163.941 107.691 163.86 107.691 163.814 107.673C162.705 107.355 161.532 107.1 160.314 106.918C160.069 106.882 159.896 106.646 159.932 106.4C159.969 106.155 160.205 105.982 160.451 106.018C161.705 106.209 162.914 106.473 164.06 106.8C164.305 106.873 164.441 107.118 164.369 107.364C164.314 107.564 164.132 107.691 163.932 107.691H163.941ZM151.324 106.691C151.096 106.691 150.896 106.518 150.869 106.282C150.842 106.036 151.024 105.809 151.269 105.782C152.205 105.682 153.151 105.618 154.087 105.6C154.314 105.6 154.551 105.6 154.787 105.6H154.951C155.205 105.6 155.405 105.8 155.405 106.055C155.405 106.309 155.205 106.509 154.951 106.509H154.787C154.56 106.509 154.333 106.509 154.105 106.509C153.196 106.527 152.278 106.582 151.369 106.682C151.351 106.682 151.333 106.682 151.314 106.682L151.324 106.691Z" fill="#50448C"/>
<path d="M277.693 184.362C277.056 184.362 276.411 184.343 275.774 184.316C275.52 184.307 275.329 184.089 275.338 183.844C275.347 183.589 275.556 183.407 275.811 183.407C276.456 183.434 277.093 183.453 277.747 183.453C278.302 183.453 278.856 183.444 279.411 183.425H279.429C279.674 183.425 279.874 183.616 279.883 183.862C279.883 184.116 279.692 184.325 279.447 184.334C278.865 184.353 278.311 184.371 277.693 184.362ZM284.847 183.78C284.629 183.78 284.438 183.625 284.401 183.398C284.356 183.153 284.529 182.916 284.774 182.871C285.956 182.671 287.138 182.425 288.292 182.125C288.538 182.062 288.783 182.207 288.847 182.453C288.91 182.698 288.765 182.944 288.52 183.007C287.347 183.307 286.138 183.571 284.92 183.771C284.892 183.771 284.865 183.771 284.847 183.771V183.78ZM270.365 183.762C270.365 183.762 270.32 183.762 270.293 183.762C269.102 183.571 267.893 183.325 266.693 183.044C266.447 182.989 266.302 182.744 266.356 182.498C266.411 182.253 266.656 182.098 266.902 182.162C268.075 182.444 269.265 182.68 270.438 182.871C270.684 182.907 270.856 183.144 270.811 183.389C270.774 183.616 270.584 183.771 270.365 183.771V183.762ZM261.575 181.489C261.52 181.489 261.475 181.489 261.42 181.462C260.284 181.053 259.138 180.598 258.011 180.107C257.784 180.007 257.675 179.735 257.784 179.507C257.884 179.28 258.157 179.171 258.384 179.28C259.484 179.771 260.611 180.216 261.729 180.616C261.966 180.698 262.093 180.962 262.002 181.198C261.938 181.389 261.757 181.498 261.575 181.498V181.489ZM293.574 181.298C293.392 181.298 293.228 181.189 293.156 181.016C293.056 180.789 293.174 180.516 293.401 180.425C294.538 179.962 295.628 179.444 296.647 178.898C296.865 178.78 297.147 178.862 297.265 179.08C297.383 179.298 297.301 179.58 297.083 179.698C296.037 180.262 294.91 180.789 293.756 181.271C293.701 181.298 293.638 181.307 293.583 181.307L293.574 181.298ZM253.339 177.68C253.266 177.68 253.184 177.662 253.111 177.616C252.057 177.007 251.002 176.353 250.002 175.68C249.793 175.544 249.739 175.253 249.875 175.053C250.02 174.844 250.302 174.789 250.502 174.926C251.493 175.589 252.52 176.235 253.557 176.835C253.775 176.962 253.848 177.235 253.72 177.453C253.639 177.598 253.484 177.68 253.329 177.68H253.339ZM301.401 176.735C301.274 176.735 301.137 176.68 301.046 176.571C300.892 176.38 300.919 176.089 301.11 175.935C302.056 175.162 302.919 174.335 303.674 173.471C303.837 173.28 304.128 173.262 304.319 173.435C304.51 173.598 304.528 173.889 304.355 174.08C303.565 174.98 302.665 175.844 301.683 176.644C301.601 176.716 301.492 176.744 301.392 176.744L301.401 176.735ZM245.902 172.471C245.802 172.471 245.693 172.435 245.611 172.362C244.675 171.571 243.766 170.735 242.902 169.889C242.721 169.717 242.721 169.426 242.902 169.244C243.075 169.062 243.366 169.062 243.548 169.244C244.393 170.071 245.284 170.889 246.211 171.671C246.402 171.835 246.43 172.117 246.266 172.317C246.175 172.426 246.048 172.48 245.921 172.48L245.902 172.471ZM307.037 169.698C306.974 169.698 306.901 169.68 306.837 169.653C306.61 169.544 306.519 169.271 306.628 169.044C307.128 168.026 307.574 166.944 307.974 165.735C308.055 165.499 308.31 165.362 308.546 165.453C308.783 165.535 308.91 165.789 308.828 166.026C308.41 167.271 307.955 168.389 307.437 169.444C307.355 169.608 307.201 169.698 307.028 169.698H307.037ZM239.557 165.98C239.421 165.98 239.294 165.926 239.203 165.808C238.43 164.853 237.694 163.862 237.021 162.862C236.875 162.653 236.93 162.371 237.139 162.235C237.348 162.099 237.63 162.144 237.766 162.353C238.439 163.335 239.157 164.308 239.912 165.244C240.066 165.435 240.039 165.726 239.839 165.88C239.757 165.944 239.657 165.98 239.557 165.98ZM309.783 161.053C309.783 161.053 309.719 161.053 309.692 161.053C309.446 160.999 309.292 160.762 309.337 160.517C309.564 159.417 309.764 158.317 309.946 157.217L309.992 156.962C310.028 156.717 310.273 156.544 310.51 156.59C310.755 156.626 310.928 156.862 310.883 157.108L310.837 157.371C310.646 158.481 310.446 159.59 310.219 160.699C310.173 160.917 309.983 161.062 309.773 161.062L309.783 161.053ZM48.2712 159.644C48.1893 159.644 48.1166 159.626 48.0439 159.58C47.0439 158.99 46.1621 158.235 45.4258 157.326C45.2712 157.135 45.2985 156.844 45.4985 156.69C45.6894 156.535 45.9803 156.562 46.1348 156.762C46.7985 157.59 47.5984 158.271 48.4984 158.808C48.7166 158.935 48.7893 159.217 48.6621 159.426C48.5802 159.571 48.4257 159.653 48.2712 159.653V159.644ZM43.5622 152.562C43.3531 152.562 43.1622 152.417 43.1167 152.199C42.8895 151.09 42.7713 149.899 42.7713 148.672V148.49C42.7713 148.244 42.9804 148.035 43.2258 148.035C43.4804 148.035 43.6804 148.244 43.6804 148.49V148.663C43.6804 149.835 43.7895 150.953 44.0076 152.008C44.0622 152.253 43.8985 152.499 43.6531 152.544C43.6258 152.544 43.5895 152.553 43.5622 152.553V152.562ZM311.283 152.09C311.283 152.09 311.237 152.09 311.219 152.09C310.973 152.053 310.801 151.826 310.828 151.581C310.992 150.39 311.146 149.19 311.283 147.981C311.31 147.735 311.537 147.554 311.783 147.581C312.028 147.608 312.21 147.835 312.183 148.081C312.046 149.29 311.892 150.499 311.719 151.699C311.692 151.926 311.492 152.09 311.273 152.09H311.283ZM43.9985 143.563C43.9985 143.563 43.9167 143.563 43.8804 143.545C43.6349 143.481 43.4986 143.226 43.5622 142.981C43.6985 142.49 43.8531 141.999 44.0167 141.526C44.2531 140.872 44.5076 140.208 44.8076 139.499C44.9076 139.272 45.1712 139.163 45.4076 139.254C45.6349 139.354 45.7439 139.617 45.653 139.854C45.3621 140.545 45.1076 141.19 44.8803 141.826C44.7167 142.281 44.5713 142.745 44.444 143.217C44.3894 143.417 44.2076 143.554 44.0076 143.554L43.9985 143.563ZM312.264 143.045C312.264 143.045 312.237 143.045 312.228 143.045C311.973 143.026 311.792 142.808 311.81 142.554C311.901 141.354 311.983 140.145 312.037 138.936C312.046 138.69 312.273 138.49 312.51 138.499C312.764 138.508 312.955 138.726 312.946 138.972C312.892 140.19 312.81 141.399 312.719 142.617C312.701 142.854 312.501 143.035 312.264 143.035V143.045ZM47.553 135.181C47.4894 135.181 47.4257 135.163 47.3621 135.136C47.1348 135.027 47.0348 134.772 47.1439 134.545C47.6984 133.436 48.2257 132.363 48.7348 131.281C48.8439 131.054 49.1075 130.954 49.3348 131.063C49.562 131.172 49.662 131.436 49.5529 131.663C49.0439 132.745 48.5166 133.827 47.9803 134.899C47.8984 135.063 47.7257 135.172 47.553 135.172V135.181ZM312.628 133.963C312.373 133.963 312.173 133.763 312.173 133.508C312.173 132.299 312.155 131.081 312.11 129.89C312.11 129.636 312.301 129.427 312.546 129.418C312.783 129.399 313.01 129.609 313.019 129.854C313.064 131.054 313.082 132.281 313.082 133.508C313.082 133.763 312.882 133.963 312.628 133.963ZM51.1529 126.872C51.1529 126.872 51.062 126.872 51.0165 126.854C50.7802 126.781 50.6438 126.527 50.7165 126.29C50.9893 125.381 51.1984 124.527 51.3529 123.663C51.4074 123.381 51.4438 123.1 51.4893 122.818C51.5256 122.572 51.7529 122.4 51.9983 122.427C52.2438 122.463 52.4165 122.691 52.3892 122.936C52.3529 123.227 52.2983 123.527 52.2529 123.818C52.0892 124.718 51.8802 125.609 51.5893 126.545C51.5256 126.745 51.3529 126.863 51.1529 126.863V126.872ZM312.21 124.89C311.983 124.89 311.783 124.718 311.755 124.481C311.637 123.272 311.492 122.063 311.328 120.891C311.292 120.645 311.464 120.409 311.71 120.372C311.955 120.336 312.192 120.509 312.228 120.754C312.401 121.945 312.546 123.163 312.664 124.39C312.692 124.636 312.51 124.863 312.255 124.89C312.237 124.89 312.228 124.89 312.21 124.89ZM52.0074 117.891C51.7802 117.891 51.5802 117.718 51.5529 117.482C51.4347 116.336 51.2256 115.154 50.9347 113.963C50.8711 113.718 51.0256 113.473 51.2711 113.418C51.5165 113.354 51.762 113.509 51.8165 113.754C52.1165 114.982 52.3347 116.209 52.4529 117.391C52.4801 117.636 52.2983 117.863 52.0529 117.891C52.0347 117.891 52.0165 117.891 52.0074 117.891ZM310.819 115.909C310.61 115.909 310.419 115.763 310.373 115.554C310.11 114.363 309.819 113.182 309.501 112.054C309.437 111.809 309.573 111.564 309.819 111.491C310.064 111.418 310.31 111.564 310.383 111.809C310.701 112.964 311.001 114.154 311.264 115.363C311.319 115.609 311.164 115.854 310.919 115.909C310.883 115.909 310.855 115.918 310.819 115.918V115.909ZM49.6529 109.145C49.4802 109.145 49.3075 109.045 49.2348 108.864C48.7893 107.8 48.2712 106.7 47.6984 105.609C47.5803 105.382 47.6712 105.109 47.8893 105C48.1166 104.882 48.3893 104.973 48.4984 105.191C49.0802 106.309 49.6075 107.427 50.062 108.518C50.162 108.745 50.0529 109.018 49.8166 109.109C49.762 109.136 49.6984 109.145 49.6438 109.145H49.6529ZM308.237 107.209C308.055 107.209 307.883 107.1 307.81 106.918C307.383 105.791 306.91 104.673 306.41 103.6C306.301 103.373 306.41 103.1 306.637 103C306.864 102.9 307.137 103 307.237 103.218C307.746 104.318 308.219 105.455 308.655 106.6C308.746 106.836 308.628 107.1 308.392 107.191C308.337 107.209 308.283 107.218 308.228 107.218L308.237 107.209ZM45.3531 101.146C45.2076 101.146 45.0531 101.073 44.9712 100.937C44.4894 100.191 43.9894 99.4548 43.4895 98.7275L42.944 97.9457C42.7986 97.7366 42.844 97.4548 43.0531 97.3094C43.2622 97.1639 43.544 97.2094 43.6895 97.4185L44.244 98.2093C44.7531 98.9457 45.2531 99.6911 45.7439 100.446C45.8803 100.655 45.8167 100.937 45.6076 101.073C45.5349 101.118 45.444 101.146 45.3621 101.146H45.3531ZM304.283 99.0366C304.128 99.0366 303.983 98.9548 303.892 98.8184C303.274 97.7912 302.61 96.7821 301.928 95.8094C301.783 95.6003 301.828 95.3185 302.037 95.1731C302.237 95.0276 302.528 95.0731 302.674 95.2822C303.374 96.273 304.046 97.3094 304.674 98.3548C304.801 98.573 304.737 98.8457 304.519 98.9821C304.446 99.0275 304.365 99.0457 304.283 99.0457V99.0366ZM40.0986 93.7367C39.9623 93.7367 39.8259 93.6731 39.735 93.5549L39.6441 93.4367C38.9532 92.5004 38.2532 91.5641 37.5714 90.6277C37.426 90.4277 37.4714 90.1368 37.6714 89.9914C37.8714 89.8459 38.1623 89.8914 38.3078 90.0914C38.9896 91.0277 39.6805 91.9641 40.3714 92.9004L40.4623 93.0186C40.6077 93.2186 40.5714 93.5095 40.3714 93.6549C40.2895 93.7186 40.1986 93.7458 40.0986 93.7458V93.7367ZM298.901 91.7459C298.774 91.7459 298.656 91.6913 298.565 91.5913C297.819 90.755 297.001 89.9005 296.074 88.9732C295.892 88.8005 295.892 88.5096 296.074 88.3278C296.256 88.146 296.537 88.146 296.719 88.3278C297.656 89.2641 298.483 90.1368 299.246 90.9823C299.41 91.1732 299.401 91.455 299.21 91.6277C299.119 91.7095 299.019 91.7459 298.91 91.7459H298.901ZM34.826 86.3369C34.6806 86.3369 34.5351 86.2642 34.4442 86.1278C33.7261 85.037 33.0988 84.0188 32.5079 83.0188C32.3807 82.8007 32.4534 82.5279 32.6716 82.4007C32.8897 82.2734 33.1625 82.3461 33.2897 82.5643C33.8624 83.5552 34.4897 84.5552 35.1988 85.6279C35.3351 85.8369 35.2806 86.1188 35.0715 86.2551C34.9988 86.3097 34.9079 86.3278 34.826 86.3278V86.3369ZM292.456 85.346C292.347 85.346 292.238 85.3097 292.147 85.2279L291.647 84.7642C290.929 84.0915 290.201 83.4188 289.492 82.7461C289.31 82.5734 289.301 82.2825 289.474 82.1007C289.647 81.9189 289.938 81.9098 290.119 82.0825C290.829 82.7552 291.556 83.4279 292.274 84.0915L292.774 84.5642C292.956 84.737 292.965 85.0188 292.801 85.2097C292.71 85.3097 292.592 85.3551 292.465 85.3551L292.456 85.346ZM285.938 79.0189C285.82 79.0189 285.692 78.9735 285.601 78.8735C284.701 77.9099 283.911 77.0099 283.183 76.1099C283.029 75.919 283.056 75.6281 283.256 75.4736C283.447 75.319 283.738 75.3463 283.892 75.5463C284.601 76.4281 285.374 77.319 286.265 78.2553C286.438 78.4371 286.429 78.728 286.247 78.9008C286.156 78.9826 286.047 79.028 285.938 79.028V79.0189ZM30.4443 78.4008C30.2716 78.4008 30.0989 78.3008 30.0262 78.1281C29.6716 77.3008 29.3535 76.4735 29.0717 75.6645C28.9535 75.3372 28.8535 75.0099 28.7444 74.6736C28.6717 74.4372 28.808 74.1827 29.0444 74.1009C29.2898 74.0282 29.5353 74.1645 29.6171 74.4009C29.7171 74.719 29.8171 75.0372 29.9262 75.3554C30.1989 76.1463 30.5171 76.9554 30.8625 77.7553C30.9625 77.9826 30.8625 78.2553 30.6262 78.3553C30.5716 78.3826 30.508 78.3917 30.4443 78.3917V78.4008ZM280.447 71.8009C280.292 71.8009 280.138 71.7191 280.056 71.5737C279.483 70.5828 278.929 69.5101 278.365 68.3101C278.256 68.0829 278.365 67.8101 278.583 67.7101C278.811 67.601 279.083 67.7101 279.183 67.9283C279.738 69.101 280.274 70.1464 280.838 71.1191C280.965 71.3373 280.892 71.61 280.674 71.7373C280.602 71.7828 280.52 71.8009 280.447 71.8009ZM28.0444 69.6646C27.8171 69.6646 27.6262 69.4919 27.5899 69.2646C27.4444 68.0556 27.3626 66.8192 27.3535 65.5829C27.3535 65.3284 27.5535 65.1284 27.808 65.1284C28.0535 65.1284 28.2626 65.3284 28.2626 65.5829C28.2717 66.7829 28.3535 67.9829 28.4989 69.1556C28.5262 69.401 28.3535 69.6283 28.099 69.6646C28.0808 69.6646 28.0626 69.6646 28.0444 69.6646ZM132.978 64.5648C132.214 64.5557 131.414 64.5193 130.624 64.4375C130.378 64.4102 130.196 64.183 130.224 63.9375C130.251 63.6921 130.478 63.5102 130.724 63.5375C131.487 63.6193 132.251 63.683 132.978 63.6648C133.414 63.6648 133.842 63.6466 134.278 63.6193C134.533 63.5921 134.742 63.7921 134.76 64.0375C134.778 64.292 134.587 64.5011 134.342 64.5193C133.887 64.5557 133.433 64.5648 132.978 64.5648ZM276.638 63.5557C276.456 63.5557 276.283 63.4466 276.22 63.2648L275.783 62.1648C275.483 61.4012 275.183 60.6467 274.874 59.8922C274.783 59.6558 274.893 59.3922 275.129 59.3013C275.356 59.2104 275.629 59.3194 275.72 59.5558C276.029 60.3103 276.329 61.0739 276.629 61.8376L277.065 62.9375C277.156 63.1739 277.047 63.4375 276.811 63.5284C276.756 63.5466 276.702 63.5648 276.647 63.5648L276.638 63.5557ZM139.587 63.283C139.414 63.283 139.242 63.183 139.169 63.0012C139.069 62.7739 139.178 62.5012 139.414 62.4103L139.651 62.3103C140.632 61.8739 141.578 61.3285 142.478 60.674C142.687 60.5285 142.969 60.574 143.114 60.7739C143.26 60.9739 143.214 61.2649 143.014 61.4103C142.069 62.0921 141.06 62.6739 140.023 63.1375L139.769 63.2466C139.714 63.2739 139.651 63.283 139.596 63.283H139.587ZM125.369 63.2284C125.324 63.2284 125.269 63.2284 125.224 63.2012C124.096 62.8103 122.978 62.3466 121.887 61.8012L122.024 61.3558L122.233 60.9467C123.351 61.5012 124.433 61.9557 125.524 62.3285C125.76 62.4103 125.887 62.6648 125.806 62.9103C125.742 63.1012 125.56 63.2193 125.378 63.2193L125.369 63.2284ZM28.1989 60.6103C28.1989 60.6103 28.1535 60.6103 28.1262 60.6103C27.8808 60.574 27.7081 60.3376 27.7444 60.0921C27.9262 58.8922 28.1717 57.674 28.4808 56.4832C28.5444 56.2377 28.7989 56.0923 29.0353 56.1559C29.2807 56.2195 29.4262 56.465 29.3626 56.7104C29.0626 57.874 28.8262 59.0558 28.6444 60.2285C28.608 60.4558 28.4171 60.6194 28.1989 60.6194V60.6103ZM117.333 59.0467C117.242 59.0467 117.16 59.0195 117.078 58.9649C116.133 58.3195 115.169 57.6195 114.124 56.8013C113.924 56.6468 113.888 56.365 114.042 56.165C114.197 55.965 114.479 55.9286 114.679 56.0832C115.715 56.8831 116.669 57.574 117.597 58.2104C117.806 58.3558 117.86 58.6376 117.715 58.8376C117.624 58.9649 117.488 59.0376 117.342 59.0376L117.333 59.0467ZM146.669 57.7286C146.569 57.7286 146.469 57.6922 146.387 57.6286C146.196 57.474 146.16 57.1831 146.323 56.9922C147.023 56.1195 147.723 55.1377 148.396 54.0741C148.532 53.865 148.814 53.8014 149.023 53.9287C149.232 54.065 149.296 54.3468 149.169 54.5559C148.478 55.6559 147.759 56.665 147.032 57.5649C146.941 57.674 146.814 57.7286 146.678 57.7286H146.669ZM273.102 55.1923C272.938 55.1923 272.774 55.1014 272.693 54.9377C272.502 54.5559 272.311 54.1741 272.102 53.7923C271.738 53.1196 271.347 52.4469 270.947 51.7924C270.811 51.5833 270.874 51.3015 271.093 51.1651C271.302 51.0378 271.584 51.1015 271.72 51.3106C272.138 51.9742 272.538 52.6651 272.902 53.356C273.111 53.7378 273.311 54.1287 273.502 54.5196C273.611 54.7468 273.52 55.0196 273.293 55.1286C273.229 55.165 273.156 55.1741 273.093 55.1741L273.102 55.1923ZM110.17 53.456C110.07 53.456 109.96 53.4196 109.879 53.3469L108.751 52.3923C108.197 51.9287 107.651 51.4651 107.097 51.0015C106.906 50.8378 106.879 50.556 107.042 50.3651C107.206 50.1742 107.488 50.1469 107.679 50.3106C108.233 50.7742 108.779 51.2378 109.333 51.7105L110.46 52.6651C110.651 52.8287 110.679 53.1105 110.515 53.3014C110.424 53.4105 110.297 53.465 110.17 53.465V53.456ZM30.6716 51.8833C30.608 51.8833 30.5534 51.8742 30.4989 51.8469C30.2716 51.7469 30.1625 51.4833 30.2534 51.2469C30.7352 50.1197 31.2716 49.0015 31.8534 47.9288C31.9716 47.7107 32.2443 47.6288 32.4716 47.747C32.6897 47.8652 32.7716 48.147 32.6534 48.3652C32.0898 49.4106 31.5625 50.5015 31.0989 51.6015C31.0261 51.7742 30.8534 51.8833 30.6807 51.8833H30.6716ZM151.387 49.9742C151.323 49.9742 151.25 49.956 151.187 49.9288C150.959 49.8197 150.869 49.547 150.978 49.3197C151.441 48.3561 151.923 47.3107 152.487 46.0289C152.587 45.8016 152.859 45.6925 153.087 45.7925C153.314 45.8925 153.423 46.1652 153.323 46.3925C152.759 47.6834 152.268 48.7379 151.796 49.7106C151.714 49.8742 151.559 49.9651 151.387 49.9651V49.9742ZM103.161 47.6561C103.061 47.6561 102.961 47.6197 102.879 47.5561C101.933 46.8107 100.97 46.0743 100.006 45.3471C99.8062 45.1925 99.7607 44.9107 99.9153 44.7107C100.07 44.5107 100.352 44.4653 100.552 44.6198C101.524 45.3471 102.488 46.0925 103.442 46.8379C103.642 46.9925 103.67 47.2834 103.515 47.4743C103.424 47.5834 103.288 47.647 103.161 47.647V47.6561ZM268.111 47.6197C267.984 47.6197 267.856 47.5652 267.765 47.4561C266.993 46.5561 266.166 45.6743 265.302 44.838C265.12 44.6653 265.12 44.3744 265.293 44.1926C265.466 44.0107 265.756 44.0107 265.938 44.1835C266.82 45.038 267.675 45.938 268.456 46.8652C268.62 47.0561 268.602 47.347 268.411 47.5016C268.329 47.5743 268.22 47.6107 268.111 47.6107V47.6197ZM35.2079 44.0289C35.117 44.0289 35.017 44.0017 34.9351 43.938C34.7351 43.7835 34.6988 43.5017 34.8442 43.3017C35.5897 42.3199 36.3896 41.3745 37.2169 40.4836C37.3896 40.3018 37.6805 40.2927 37.8623 40.4654C38.0441 40.6381 38.0532 40.929 37.8805 41.1108C37.0714 41.9744 36.2896 42.9017 35.5715 43.8562C35.4806 43.9744 35.3442 44.038 35.2079 44.038V44.0289ZM95.8336 42.2835C95.7427 42.2835 95.6608 42.2562 95.579 42.2017C94.5609 41.5108 93.5427 40.8563 92.5427 40.2381C92.3337 40.1018 92.2609 39.829 92.3973 39.6109C92.5337 39.3927 92.8064 39.329 93.0246 39.4654C94.0336 40.0927 95.0609 40.7563 96.0881 41.4472C96.2972 41.5835 96.3517 41.8744 96.2154 42.0744C96.1245 42.2017 95.9881 42.2744 95.8336 42.2744V42.2835ZM155.077 41.6654C155.014 41.6654 154.959 41.6563 154.896 41.629C154.668 41.529 154.559 41.2654 154.659 41.029L156.105 37.6927C156.205 37.4655 156.468 37.3564 156.705 37.4564C156.932 37.5564 157.041 37.82 156.941 38.0564L155.496 41.3926C155.423 41.5654 155.25 41.6654 155.077 41.6654ZM261.447 41.4563C261.357 41.4563 261.257 41.429 261.175 41.3654C260.22 40.6654 259.211 39.9927 258.184 39.3654C257.966 39.2381 257.902 38.9563 258.029 38.7382C258.157 38.52 258.438 38.4563 258.657 38.5836C259.702 39.22 260.729 39.9109 261.711 40.6199C261.911 40.7654 261.957 41.0563 261.811 41.2563C261.72 41.3745 261.584 41.4381 261.447 41.4381V41.4563ZM214.794 37.9654L214.721 37.5109V37.0564C215.84 37.0382 216.958 36.8746 218.203 36.5564C218.449 36.4928 218.694 36.6382 218.758 36.8837C218.821 37.1291 218.676 37.3746 218.43 37.4382C217.121 37.7745 215.93 37.9473 214.794 37.9654ZM88.0519 37.5836C87.9792 37.5836 87.9065 37.5655 87.8429 37.5291C86.7611 36.9564 85.6702 36.42 84.6066 35.92C84.3793 35.811 84.2793 35.5473 84.3884 35.3201C84.4975 35.0928 84.7611 34.9928 84.9884 35.1019C86.0702 35.6019 87.1702 36.1473 88.261 36.7291C88.4792 36.8473 88.5701 37.12 88.4519 37.3473C88.3701 37.5018 88.2156 37.5927 88.0519 37.5927V37.5836ZM41.5804 37.5836C41.4441 37.5836 41.3077 37.52 41.2168 37.4018C41.0622 37.2018 41.0986 36.92 41.2986 36.7655C42.2804 36.011 43.3076 35.3201 44.344 34.6928C44.5622 34.5655 44.8349 34.6383 44.9712 34.8473C45.0985 35.0655 45.0258 35.3382 44.8167 35.4746C43.8076 36.0837 42.8077 36.7564 41.8531 37.4836C41.7713 37.5473 41.6713 37.5746 41.5804 37.5746V37.5836ZM253.593 36.92C253.529 36.92 253.466 36.9109 253.411 36.8837C252.32 36.4019 251.193 35.9564 250.066 35.5655C249.83 35.4837 249.702 35.2292 249.784 34.9837C249.866 34.7474 250.13 34.6201 250.366 34.7019C251.52 35.1019 252.666 35.5473 253.784 36.0473C254.011 36.1473 254.12 36.42 254.011 36.6473C253.939 36.82 253.766 36.92 253.593 36.92ZM209.422 36.92C209.358 36.92 209.303 36.9109 209.24 36.8837C208.149 36.42 207.058 35.8019 205.994 35.0473C205.794 34.9019 205.74 34.6201 205.885 34.411C206.031 34.2019 206.313 34.1565 206.522 34.3019C207.531 35.0201 208.567 35.6019 209.594 36.0382C209.822 36.1382 209.931 36.4019 209.831 36.6382C209.758 36.8109 209.585 36.9109 209.412 36.9109L209.422 36.92ZM223.485 35.7291C223.303 35.7291 223.121 35.611 223.058 35.4291C222.976 35.1928 223.094 34.9292 223.33 34.8473C223.848 34.6564 224.367 34.4746 224.885 34.3019C225.53 34.0837 226.176 33.8928 226.821 33.711C227.067 33.6474 227.312 33.7928 227.376 34.0292C227.439 34.2746 227.303 34.5201 227.057 34.5837C226.421 34.7564 225.794 34.9473 225.167 35.1564C224.658 35.3292 224.148 35.511 223.639 35.6928C223.585 35.711 223.539 35.7201 223.485 35.7201V35.7291ZM244.957 34.1655C244.957 34.1655 244.893 34.1655 244.866 34.1565C243.693 33.911 242.493 33.7201 241.312 33.5837C241.066 33.5565 240.884 33.3292 240.912 33.0838C240.939 32.8383 241.175 32.6565 241.412 32.6838C242.621 32.8201 243.839 33.0201 245.039 33.2656C245.284 33.3201 245.448 33.5565 245.393 33.8019C245.348 34.0201 245.157 34.1655 244.948 34.1655H244.957ZM79.7612 33.9019C79.7067 33.9019 79.6613 33.9019 79.6067 33.8746C78.4795 33.4656 77.325 33.0928 76.1795 32.7656C75.9341 32.6929 75.7977 32.4474 75.8704 32.202C75.9432 31.9565 76.1886 31.8202 76.4341 31.8929C77.5977 32.2292 78.7704 32.611 79.9249 33.0201C80.1612 33.1019 80.2794 33.3656 80.1976 33.6019C80.134 33.7837 79.9522 33.9019 79.7703 33.9019H79.7612ZM232.294 33.5747C232.066 33.5747 231.866 33.4019 231.839 33.1747C231.812 32.9292 231.994 32.7019 232.239 32.6747C233.448 32.5292 234.685 32.4474 235.912 32.4201H235.921C236.166 32.4201 236.366 32.6201 236.375 32.8656C236.375 33.1201 236.184 33.3201 235.93 33.3292C234.73 33.3565 233.53 33.4383 232.348 33.5747C232.33 33.5747 232.312 33.5747 232.294 33.5747ZM158.696 33.3383C158.632 33.3383 158.577 33.3292 158.514 33.3019C158.286 33.2019 158.177 32.9383 158.277 32.7019L159.723 29.3657C159.823 29.1384 160.086 29.0293 160.323 29.1293C160.55 29.2293 160.659 29.4929 160.559 29.7293L159.114 33.0656C159.041 33.2383 158.868 33.3383 158.696 33.3383ZM49.4984 33.1928C49.3166 33.1928 49.1439 33.0838 49.0711 32.9019C48.9802 32.6656 49.0984 32.402 49.3348 32.3201C50.4711 31.8929 51.6529 31.5111 52.8438 31.202C53.0892 31.1383 53.3347 31.2838 53.3983 31.5292C53.4619 31.7747 53.3165 32.0201 53.071 32.0838C51.9074 32.3929 50.762 32.7565 49.6529 33.1747C49.5984 33.1928 49.5439 33.2019 49.4893 33.2019L49.4984 33.1928ZM70.9978 31.5474C70.9978 31.5474 70.9433 31.5474 70.916 31.5474C69.7342 31.3383 68.5343 31.1747 67.3525 31.0565C67.107 31.0293 66.9161 30.8111 66.9434 30.5565C66.9707 30.3111 67.1979 30.1293 67.4434 30.1475C68.6434 30.2656 69.8706 30.4384 71.0797 30.6475C71.3251 30.6929 71.4887 30.9293 71.4524 31.1747C71.416 31.3929 71.2251 31.5474 71.0069 31.5474H70.9978ZM202.24 31.4838C202.113 31.4838 201.994 31.4383 201.904 31.3383C201.131 30.4929 200.358 29.5657 199.549 28.5202C199.395 28.3202 199.431 28.0384 199.631 27.8839C199.831 27.7293 200.113 27.7657 200.267 27.9657C201.058 28.993 201.813 29.8929 202.576 30.7293C202.749 30.9111 202.731 31.202 202.549 31.3747C202.458 31.4565 202.349 31.4929 202.24 31.4929V31.4838ZM58.3254 31.0838C58.0982 31.0838 57.8982 30.9111 57.8709 30.6838C57.8436 30.4384 58.0254 30.2111 58.2709 30.1838C59.4709 30.0475 60.7072 29.9657 61.9344 29.9384C62.1708 29.9202 62.389 30.1293 62.3981 30.3838C62.3981 30.6384 62.2072 30.8384 61.9526 30.8474C60.7436 30.8747 59.5436 30.9565 58.3709 31.0929C58.3527 31.0929 58.3345 31.0929 58.3164 31.0929L58.3254 31.0838ZM162.323 24.9931C162.259 24.9931 162.205 24.984 162.141 24.9567C161.914 24.8567 161.805 24.5931 161.905 24.3567L162.75 22.4022C162.95 21.9477 163.15 21.4841 163.359 21.0204C163.459 20.7932 163.732 20.6932 163.959 20.7932C164.186 20.8932 164.286 21.1659 164.186 21.3931C163.977 21.8568 163.777 22.3113 163.577 22.7658L162.732 24.7203C162.659 24.8931 162.486 24.9931 162.314 24.9931H162.323ZM196.749 24.2476C196.604 24.2476 196.458 24.1749 196.367 24.0476C195.876 23.3113 195.395 22.5749 194.931 21.8568C194.749 21.575 194.558 21.2932 194.367 21.0113C194.222 20.8023 194.276 20.5204 194.486 20.3841C194.695 20.2477 194.976 20.2932 195.113 20.5023C195.304 20.7932 195.495 21.075 195.686 21.3659C196.149 22.084 196.631 22.8113 197.122 23.5476C197.258 23.7567 197.204 24.0385 196.995 24.1749C196.922 24.2294 196.831 24.2476 196.74 24.2476H196.749ZM191.431 16.8842C191.304 16.8842 191.177 16.8296 191.086 16.7296C190.267 15.7933 189.431 14.9206 188.595 14.1388C188.413 13.9661 188.404 13.6843 188.577 13.4934C188.749 13.3115 189.031 13.3024 189.222 13.4752C190.077 14.2752 190.94 15.1751 191.777 16.1296C191.94 16.3206 191.922 16.6024 191.731 16.7751C191.649 16.8478 191.54 16.8842 191.431 16.8842ZM166.25 16.8024C166.168 16.8024 166.086 16.7842 166.014 16.7387C165.795 16.6115 165.732 16.3296 165.859 16.1115C166.55 14.957 167.241 13.957 167.977 13.0752C168.141 12.8843 168.423 12.857 168.613 13.0115C168.804 13.1752 168.832 13.457 168.677 13.6479C167.977 14.5024 167.304 15.4569 166.641 16.5751C166.559 16.7205 166.404 16.7933 166.25 16.7933V16.8024ZM184.577 10.9752C184.495 10.9752 184.422 10.9571 184.349 10.9116C183.268 10.2843 182.186 9.80254 181.131 9.47528C180.895 9.40255 180.759 9.14801 180.831 8.91165C180.904 8.6753 181.159 8.53894 181.395 8.61166C182.522 8.95711 183.668 9.46618 184.804 10.1298C185.022 10.2571 185.095 10.5298 184.968 10.748C184.886 10.8934 184.731 10.9752 184.577 10.9752ZM172.459 10.3116C172.295 10.3116 172.141 10.2298 172.059 10.0753C171.941 9.85708 172.023 9.57527 172.241 9.45709C172.877 9.11165 173.532 8.82984 174.213 8.61166C174.732 8.43894 175.268 8.31167 175.804 8.21167C176.041 8.16622 176.286 8.32985 176.331 8.58439C176.377 8.82984 176.213 9.06619 175.959 9.11165C175.468 9.19346 174.977 9.32073 174.495 9.47528C173.877 9.67527 173.259 9.9389 172.677 10.2571C172.604 10.2934 172.532 10.3116 172.459 10.3116Z" fill="#50448C"/>
<path d="M231.666 68.2558C233.202 66.7195 238.311 65.365 239.729 64.6105C241.138 63.856 242.138 62.3196 243.138 61.3197C244.138 60.3197 244.965 59.3197 244.965 58.6106C244.965 57.9016 244.402 57.547 244.402 57.547C245.529 56.4198 248.947 54.2744 247.947 53.2744C246.947 52.2744 241.738 57.2289 241.738 57.2289C242.038 55.7198 239.729 56.6107 239.729 56.6107C239.984 55.3198 237.538 56.0743 237.538 56.0743C237.538 54.9198 235.111 56.538 234.157 57.5016C233.202 58.4561 232.729 59.1015 232.729 60.0379C232.729 60.9742 228.375 64.7468 228.375 64.7468C229.13 67.1922 231.666 68.2558 231.666 68.2558Z" fill="#FCA475"/>
<path d="M240.493 60.9924C240.438 60.9924 240.384 60.9743 240.347 60.9379C240.257 60.8561 240.238 60.7106 240.329 60.6197C241.257 59.5561 242.311 58.6107 243.475 57.8107C243.766 57.6107 244.075 57.438 244.429 57.5198C244.702 57.5834 244.929 57.8016 245.038 58.1016C245.129 58.3471 245.138 58.6107 245.138 58.8289C245.138 58.9561 245.038 59.0561 244.911 59.0561C244.784 59.0561 244.684 58.9561 244.684 58.8289C244.684 58.638 244.684 58.4289 244.611 58.2562C244.566 58.1289 244.466 57.9925 244.32 57.9562C244.138 57.9198 243.929 58.038 243.729 58.1743C242.602 58.9561 241.575 59.8743 240.675 60.9106C240.629 60.9652 240.566 60.9924 240.502 60.9924H240.493Z" fill="#E07E58"/>
<path d="M238.364 61.5561C238.228 61.5561 238.091 61.5288 237.973 61.4742C237.619 61.3106 237.437 60.8924 237.564 60.5561C237.609 60.4379 237.737 60.3743 237.855 60.4197C237.973 60.4652 238.037 60.5924 237.991 60.7106C237.946 60.8288 238.037 60.9924 238.173 61.0561C238.319 61.1288 238.528 61.1106 238.709 61.0106C238.9 60.9106 239.064 60.7288 239.209 60.5561C239.619 60.0652 239.973 59.5016 240.309 58.9561C240.546 58.5743 240.791 58.1743 241.064 57.8016L241.109 57.738C241.255 57.538 241.382 57.3562 241.446 57.1562C241.5 56.9835 241.491 56.7471 241.355 56.6198C241.237 56.5198 241.037 56.4926 240.746 56.538C240.437 56.5926 240.128 56.6835 239.846 56.8198C239.737 56.8744 239.6 56.8198 239.546 56.7107C239.491 56.6016 239.546 56.4653 239.655 56.4107C239.982 56.2562 240.328 56.1471 240.673 56.0926C241.109 56.0198 241.437 56.0835 241.655 56.2835C241.909 56.5107 242 56.9107 241.882 57.2925C241.8 57.5653 241.637 57.7925 241.482 58.0107L241.437 58.0743C241.173 58.438 240.937 58.8289 240.7 59.2016C240.355 59.7561 239.991 60.3379 239.564 60.8561C239.391 61.0652 239.191 61.2743 238.928 61.4197C238.755 61.5106 238.564 61.5652 238.382 61.5652L238.364 61.5561Z" fill="#E07E58"/>
<path d="M236.794 61.3379C236.794 61.3379 236.766 61.3379 236.757 61.3379C236.312 61.3289 235.83 61.0289 235.803 60.5561C235.803 60.4289 235.894 60.3198 236.021 60.3198C236.139 60.3016 236.248 60.4107 236.257 60.538C236.266 60.738 236.53 60.8834 236.766 60.8925C236.866 60.8925 237.012 60.8834 237.139 60.8016C237.275 60.7107 237.375 60.5471 237.484 60.3743L237.512 60.3289C237.712 60.0016 237.939 59.6834 238.157 59.3744C238.375 59.0744 238.594 58.7653 238.784 58.4562C239.23 57.729 239.421 57.0562 239.366 56.4563C239.357 56.329 239.33 56.2472 239.294 56.2108C239.23 56.1563 239.094 56.1472 238.984 56.1563C238.53 56.1654 238.084 56.229 237.648 56.329C237.521 56.3654 237.403 56.2835 237.375 56.1563C237.348 56.0381 237.421 55.9108 237.548 55.8835C238.021 55.7745 238.494 55.7108 238.975 55.7017C239.121 55.7017 239.412 55.6926 239.612 55.8835C239.775 56.0381 239.812 56.2654 239.83 56.4108C239.894 57.1108 239.684 57.8744 239.184 58.6926C238.984 59.0198 238.757 59.338 238.539 59.638C238.321 59.938 238.103 60.2471 237.912 60.5561C237.757 60.8107 237.621 61.038 237.394 61.1834C237.23 61.2925 237.021 61.347 236.803 61.347L236.794 61.3379Z" fill="#E07E58"/>
<path d="M235.211 60.8927C235.211 60.8927 235.12 60.8927 235.074 60.8836C235.002 60.8745 234.902 60.8563 234.811 60.7654C234.747 60.7018 234.711 60.62 234.692 60.5472C234.565 60.0563 234.647 59.5563 234.738 59.0836C234.847 58.5473 234.983 58.0109 235.12 57.4746C235.147 57.3564 235.274 57.2837 235.392 57.3109C235.511 57.3382 235.583 57.4655 235.556 57.5837C235.42 58.1109 235.292 58.6382 235.183 59.1654C235.102 59.5836 235.02 60.02 235.129 60.42C235.365 60.4472 235.62 60.3381 235.838 60.12C236.047 59.9109 236.192 59.6291 236.329 59.3382C236.802 58.3564 237.229 57.3019 237.165 56.2292C237.165 56.0655 237.12 55.9746 237.083 55.9655C237.056 55.9564 236.992 55.9655 236.965 55.9655C236.52 56.0019 236.092 56.1928 235.765 56.4928C235.674 56.5746 235.529 56.5655 235.447 56.4746C235.365 56.3837 235.374 56.2382 235.465 56.1564C235.865 55.7928 236.392 55.5655 236.938 55.511C237.047 55.511 237.156 55.5019 237.274 55.5474C237.492 55.6383 237.611 55.8655 237.629 56.2019C237.692 57.3837 237.247 58.5018 236.747 59.5382C236.592 59.8654 236.429 60.1836 236.174 60.4472C235.902 60.729 235.547 60.8836 235.22 60.8836L235.211 60.8927Z" fill="#E07E58"/>
<path d="M219.084 263.997V273.115C222.638 274.578 226.157 273.296 226.157 273.296L226.866 264.715L219.084 264.006V263.997Z" fill="#FCA676"/>
<path d="M203.747 283.96C201.92 283.96 200.365 282.005 203.483 280.087C206.592 278.178 219.092 273.105 219.092 273.105C220.956 274.124 226.165 273.287 226.165 273.287C226.165 273.287 228.746 280.005 229.274 281.469C229.81 282.932 227.983 283.469 224.874 283.469C221.765 283.469 203.756 283.96 203.756 283.96H203.747Z" fill="url(#paint3_linear_585_3693)"/>
<path d="M243.492 264.751L244.192 273.823C247.865 275.287 251.274 273.996 251.274 273.996L251.328 265.451L243.492 264.742V264.751Z" fill="#FCA676"/>
<path d="M228.911 284.668C227.084 284.668 225.529 282.714 228.648 280.796C231.757 278.887 244.256 273.814 244.256 273.814C246.12 274.832 251.329 273.996 251.329 273.996C251.329 273.996 253.911 280.714 254.438 282.177C254.974 283.641 253.147 284.177 250.038 284.177C246.929 284.177 228.92 284.668 228.92 284.668H228.911Z" fill="url(#paint4_linear_585_3693)"/>
<path d="M227.348 160.653C223.794 167.771 215.703 212.725 215.703 220.515C215.703 228.306 217.885 270.705 217.885 270.705L227.885 271.496C227.885 271.496 230.175 221.897 231.475 218.461C232.775 215.025 235.503 209.179 235.503 209.179C235.503 209.179 240.302 255.16 241.139 259.896C241.966 264.642 243.493 272.269 243.493 272.269L252.384 271.323C252.384 271.323 251.748 224.261 252.22 216.916C252.693 209.561 258.747 169.799 258.747 161.708C254.884 157.835 231.494 158.272 227.348 160.644V160.653Z" fill="url(#paint5_linear_585_3693)"/>
<path d="M243.001 99.2824C239.165 96.4279 223.293 91.1644 219.266 89.419C215.238 87.6736 214.048 86.4918 214.048 86.4918L232.311 68.2287C227.802 65.7378 228.874 64.0742 228.874 64.0742C213.938 74.3921 200.657 83.401 199.939 86.1282C199.23 88.8554 198.875 90.9917 205.511 94.7825C212.148 98.5733 231.238 111.5 235.511 111.5C239.783 111.5 248.265 103.182 243.001 99.2733V99.2824Z" fill="url(#paint6_linear_585_3693)"/>
<path d="M261.883 82.9736C259.637 86.9463 256.319 97.6369 256.319 97.6369C248.701 98.5369 244.302 96.5915 243.338 94.8642L247.756 83.9009L261.874 82.9827L261.883 82.9736Z" fill="url(#paint7_linear_585_3693)"/>
<path d="M252.701 61.1471C247.792 62.8653 245.811 65.9107 242.829 74.6741C240.874 80.4103 238.284 88.1373 240.72 88.9282C244.902 90.2918 255.474 88.7555 260.41 84.6374C265.337 80.5285 268.165 72.8741 267.346 68.8469C266.528 64.8289 260.083 58.5563 252.71 61.138L252.701 61.1471Z" fill="url(#paint8_linear_585_3693)"/>
<path d="M254.874 76.5285C255.674 75.274 257.128 74.5194 258.592 74.7467C259.983 74.9649 261.028 75.9467 260.037 78.0739C258.228 81.9465 256.274 82.0102 255.956 82.9738C255.637 83.9374 255.01 86.9373 255.774 88.4464C256.537 89.9554 258.356 91.9372 258.565 92.0008C258.765 92.0644 261.019 83.3829 265.064 80.6193C268.01 80.2738 269.583 78.3557 269.473 74.674C271.719 72.7559 271.273 68.1287 267.783 66.9924C267.346 60.3198 261.255 57.629 258.646 59.4471C253.892 52.6836 240.492 58.1108 245.492 66.2197C247.838 70.0105 253.065 66.7287 253.065 66.7287C253.81 69.8014 257.092 69.4014 257.092 69.4014C253.537 73.474 253.319 76.6648 253.965 77.0921C254.265 77.2921 254.601 76.9557 254.865 76.5376L254.874 76.5285Z" fill="url(#paint9_linear_585_3693)"/>
<path d="M256.483 97.146C248.238 98.6823 243.347 94.8643 243.347 94.8643C243.347 94.8643 234.084 98.3369 230.984 107.228C224.948 124.554 227.348 145.954 227.348 160.653C227.348 160.653 250.684 159.653 258.747 164.153C258.747 164.153 263.72 115.655 261.883 108.782C260.047 101.91 259.32 99.9914 256.474 97.146H256.483Z" fill="url(#paint10_linear_585_3693)"/>
<path d="M243.539 95.0278C242.293 95.9642 240.912 97.8914 241.984 98.5187C243.057 99.1368 255.12 98.8277 257.202 97.655C256.911 96.6278 256.448 96.5823 256.448 96.5823C253.493 96.4187 244.684 95.6096 243.53 95.0369L243.539 95.0278Z" fill="white"/>
<path d="M261.883 160.481C260.519 160.008 260.046 158.462 257.737 158.462C255.428 158.462 252.319 159.881 251.656 159.881C250.992 159.881 250.256 161.435 251.365 161.717C251.21 161.717 244.447 163.617 244.447 163.617C244.447 163.617 242.983 164.126 243.183 165.017C243.383 165.908 244.538 165.835 244.538 165.835C243.383 165.899 242.656 167.326 243.165 167.835C243.674 168.344 244.92 168.035 244.92 168.035C243.938 168.389 244.074 169.526 244.901 169.898C245.72 170.28 247.856 169.68 247.856 169.68C246.901 170.035 247.192 171.571 248.638 171.417C250.083 171.262 254.992 169.726 256.383 169.517C257.774 169.308 262.565 166.153 263.346 165.362C264.128 164.58 264.855 163.344 264.855 163.344C264.855 163.344 263.837 159.999 261.892 160.471L261.883 160.481Z" fill="#FCA475"/>
<path d="M251.684 161.962C251.603 161.962 251.53 161.962 251.448 161.953C251.294 161.944 251.085 161.907 250.921 161.789C250.694 161.626 250.575 161.335 250.594 160.989C250.621 160.508 250.894 160.053 251.303 159.798C251.412 159.735 251.548 159.762 251.612 159.871C251.675 159.98 251.648 160.117 251.539 160.18C251.257 160.353 251.057 160.68 251.039 161.008C251.039 161.153 251.066 161.335 251.175 161.417C251.248 161.471 251.366 161.489 251.466 161.498C252.075 161.544 252.675 161.362 253.312 161.171C253.803 161.017 254.321 160.862 254.848 160.826C254.984 160.808 255.084 160.908 255.093 161.035C255.103 161.162 255.012 161.271 254.884 161.28C254.403 161.317 253.939 161.462 253.448 161.607C252.875 161.78 252.284 161.962 251.675 161.962H251.684Z" fill="#E07E58"/>
<path d="M244.848 165.989C244.611 165.989 244.375 165.971 244.139 165.917C243.957 165.88 243.766 165.826 243.593 165.726C243.148 165.453 242.957 164.835 243.184 164.353C243.239 164.244 243.375 164.189 243.484 164.244C243.593 164.298 243.648 164.435 243.593 164.544C243.466 164.807 243.584 165.18 243.83 165.335C243.948 165.407 244.093 165.444 244.23 165.471C244.784 165.58 245.366 165.507 245.866 165.426C246.102 165.38 246.284 165.362 246.466 165.335C246.702 165.307 246.911 165.28 247.175 165.217C248.129 164.98 249.266 164.635 250.375 164.226C250.493 164.18 250.62 164.244 250.666 164.362C250.711 164.48 250.648 164.607 250.529 164.653C249.411 165.062 248.257 165.426 247.284 165.662C246.993 165.735 246.766 165.762 246.529 165.789C246.357 165.807 246.175 165.835 245.957 165.871C245.62 165.935 245.239 165.989 244.848 165.989Z" fill="#E07E58"/>
<path d="M244.21 168.244C244.138 168.244 244.056 168.244 243.983 168.235C243.583 168.189 243.247 167.989 243.065 167.699C242.856 167.362 242.856 166.899 243.065 166.517C243.238 166.217 243.529 165.962 243.92 165.789C244.029 165.735 244.165 165.789 244.22 165.899C244.274 166.008 244.22 166.144 244.11 166.199C243.901 166.289 243.62 166.462 243.465 166.735C243.329 166.971 243.32 167.262 243.447 167.453C243.556 167.626 243.774 167.744 244.038 167.78C244.292 167.808 244.565 167.762 244.856 167.708C245.401 167.599 245.983 167.499 246.565 167.408C246.883 167.353 247.192 167.308 247.483 167.253C249.056 166.98 250.292 166.717 251.574 166.262C251.692 166.217 251.819 166.28 251.865 166.399C251.91 166.517 251.847 166.644 251.728 166.689C250.41 167.153 249.156 167.417 247.565 167.699C247.265 167.753 246.956 167.799 246.638 167.853C246.065 167.944 245.483 168.044 244.947 168.153C244.701 168.198 244.456 168.244 244.21 168.244Z" fill="#E07E58"/>
<path d="M245.985 170.235C245.776 170.235 245.567 170.217 245.358 170.18C244.812 170.09 244.439 169.899 244.212 169.59C244.021 169.335 243.967 168.99 244.049 168.662C244.13 168.326 244.339 168.053 244.63 167.917C244.739 167.862 244.876 167.917 244.93 168.026C244.985 168.135 244.93 168.271 244.821 168.326C244.658 168.408 244.53 168.571 244.485 168.771C244.439 168.971 244.467 169.181 244.576 169.326C244.73 169.535 245.003 169.671 245.43 169.744C246.267 169.881 247.094 169.671 247.967 169.453C248.203 169.39 248.439 169.335 248.676 169.281C249.948 168.999 251.148 168.671 252.139 168.344C252.266 168.308 252.385 168.371 252.43 168.49C252.466 168.608 252.403 168.735 252.285 168.781C251.285 169.108 250.067 169.435 248.776 169.726C248.539 169.78 248.312 169.835 248.076 169.899C247.394 170.071 246.694 170.253 245.985 170.253V170.235Z" fill="#E07E58"/>
<path d="M248.71 171.589C248.529 171.589 248.347 171.571 248.156 171.526C247.72 171.426 247.374 171.198 247.183 170.88C246.938 170.48 246.992 169.953 247.301 169.662C247.392 169.58 247.538 169.58 247.62 169.662C247.71 169.753 247.701 169.898 247.62 169.98C247.465 170.126 247.447 170.416 247.574 170.635C247.701 170.844 247.947 170.998 248.256 171.071C248.819 171.198 249.429 171.044 249.974 170.898L253.538 169.98C253.656 169.953 253.783 170.026 253.81 170.144C253.838 170.262 253.765 170.389 253.647 170.416L250.083 171.335C249.656 171.444 249.183 171.571 248.701 171.571L248.71 171.589Z" fill="#E07E58"/>
<path d="M257.628 99.2824C250.673 97.8642 245.946 109.373 253.601 116.164C259.073 121.009 276.291 136.409 276.291 136.409L261.882 160.481C264.909 161.781 264.555 164.153 264.555 164.153C264.555 164.153 288.036 138.9 288.627 137.118C289.218 135.336 286.845 130.118 282.582 125.854C278.309 121.582 265.273 100.837 257.628 99.2824Z" fill="url(#paint11_linear_585_3693)"/>
<path d="M237.466 225.334C237.357 225.334 237.266 225.261 237.239 225.152C235.175 214.116 232.921 179.462 232.902 179.117C232.902 178.989 232.984 178.88 233.111 178.871C233.257 178.853 233.348 178.962 233.357 179.08C233.384 179.426 235.63 214.052 237.693 225.07C237.72 225.197 237.639 225.315 237.511 225.334C237.493 225.334 237.484 225.334 237.466 225.334Z" fill="#3C4FA0"/>
<path d="M241.611 76.9192C243.192 76.4374 244.938 78.1828 245.856 79.5192C246.774 80.8555 249.719 80.6646 254.038 74.6738L255.047 76.2192C252.583 79.9192 251.001 88.1098 249.456 88.7371C247.91 89.3644 242.901 90.1825 240.538 89.3098C238.174 88.4371 237.992 86.8008 238.456 84.2645C238.929 81.7282 240.847 77.9101 241.611 76.9283V76.9192Z" fill="url(#paint12_linear_585_3693)"/>
<path d="M241.265 78.792C242.311 79.392 244.774 80.2011 244.538 80.7374C243.911 82.1737 240.747 81.6737 240.483 80.7374C240.229 79.792 240.911 78.9738 241.265 78.8011V78.792Z" fill="url(#paint13_linear_585_3693)"/>
<path d="M275.993 136.827C275.902 136.827 275.811 136.79 275.747 136.727C270.102 130.89 263.957 125.445 257.493 120.545L257.266 120.373C254.148 118.009 250.921 115.555 249.721 111.855C249.666 111.673 249.757 111.482 249.939 111.427C250.121 111.373 250.312 111.464 250.366 111.646C251.503 115.145 254.648 117.527 257.675 119.827L257.902 120C264.393 124.927 270.557 130.4 276.229 136.254C276.356 136.39 276.356 136.609 276.229 136.736C276.166 136.799 276.075 136.836 275.993 136.836V136.827Z" fill="#50448C"/>
<path d="M97.6981 95.6101C117.756 95.6101 134.015 79.3503 134.015 59.2928C134.015 39.2354 117.756 22.9756 97.6981 22.9756C77.6406 22.9756 61.3809 39.2354 61.3809 59.2928C61.3809 79.3503 77.6406 95.6101 97.6981 95.6101Z" fill="url(#paint14_linear_585_3693)"/>
<path d="M97.6977 90.5643C114.969 90.5643 128.97 76.5634 128.97 59.2924C128.97 42.0214 114.969 28.0205 97.6977 28.0205C80.4267 28.0205 66.4258 42.0214 66.4258 59.2924C66.4258 76.5634 80.4267 90.5643 97.6977 90.5643Z" fill="url(#paint15_linear_585_3693)"/>
<path d="M94.6697 43.7021H100.733C103.933 43.7021 106.533 46.3021 106.533 49.502V58.5927H88.8789V49.502C88.8789 46.3021 91.4788 43.7021 94.6788 43.7021H94.6697Z" fill="url(#paint16_linear_585_3693)"/>
<path d="M102.87 41.7932C102.87 43.0023 102.452 44.1113 101.752 45.0022C100.806 46.1931 99.3336 46.9658 97.6882 46.9658C96.0428 46.9658 94.5792 46.1931 93.6338 45.0022C92.9338 44.1204 92.5156 43.0023 92.5156 41.7932C92.5156 41.1932 92.6156 40.6296 92.7974 40.0932C92.9883 39.5387 93.2702 39.0296 93.6247 38.5842C94.5701 37.3933 96.0337 36.6206 97.6791 36.6206C99.3245 36.6206 100.788 37.3933 101.743 38.5842C102.097 39.0387 102.379 39.5478 102.57 40.0932C102.752 40.6205 102.852 41.1932 102.852 41.7932H102.87Z" fill="url(#paint17_linear_585_3693)"/>
<path d="M78.3611 49.5205H84.4246C87.6245 49.5205 90.2244 52.1204 90.2244 55.3204V64.411H72.5703V55.3204C72.5703 52.1204 75.1702 49.5205 78.3702 49.5205H78.3611Z" fill="url(#paint18_linear_585_3693)"/>
<path d="M86.5613 47.6023C86.5613 48.8113 86.1431 49.9204 85.4432 50.8113C84.4977 52.0022 83.025 52.7749 81.3796 52.7749C79.7342 52.7749 78.2706 52.0022 77.3252 50.8113C76.6252 49.9295 76.207 48.8113 76.207 47.6023C76.207 47.0023 76.307 46.4387 76.4888 45.9023C76.6797 45.3478 76.9616 44.8387 77.3161 44.3933C78.2615 43.2024 79.7251 42.4297 81.3705 42.4297C83.0159 42.4297 84.4795 43.2024 85.4341 44.3933C85.7886 44.8478 86.0704 45.3569 86.2613 45.9023C86.4431 46.4296 86.5431 47.0023 86.5431 47.6023H86.5613Z" fill="url(#paint19_linear_585_3693)"/>
<path d="M110.988 49.5205H117.051C120.251 49.5205 122.851 52.1204 122.851 55.3204V64.411H105.197V55.3204C105.197 52.1204 107.797 49.5205 110.997 49.5205H110.988Z" fill="url(#paint20_linear_585_3693)"/>
<path d="M119.188 47.6023C119.188 48.8113 118.77 49.9204 118.07 50.8113C117.125 52.0022 115.652 52.7749 114.007 52.7749C112.361 52.7749 110.898 52.0022 109.952 50.8113C109.252 49.9295 108.834 48.8113 108.834 47.6023C108.834 47.0023 108.934 46.4387 109.116 45.9023C109.307 45.3478 109.589 44.8387 109.943 44.3933C110.888 43.2024 112.352 42.4297 113.997 42.4297C115.643 42.4297 117.106 43.2024 118.061 44.3933C118.416 44.8478 118.697 45.3569 118.888 45.9023C119.07 46.4296 119.17 47.0023 119.17 47.6023H119.188Z" fill="url(#paint21_linear_585_3693)"/>
<path d="M94.6697 54.8291H100.733C103.933 54.8291 106.533 57.429 106.533 60.629V69.7196H88.8789V60.629C88.8789 57.429 91.4788 54.8291 94.6788 54.8291H94.6697Z" fill="url(#paint22_linear_585_3693)"/>
<path d="M102.87 52.9202C102.87 54.1292 102.452 55.2383 101.752 56.1292C100.806 57.32 99.3336 58.0927 97.6882 58.0927C96.0428 58.0927 94.5792 57.32 93.6338 56.1292C92.9338 55.2474 92.5156 54.1292 92.5156 52.9202C92.5156 52.3202 92.6156 51.7565 92.7974 51.2202C92.9883 50.6657 93.2702 50.1566 93.6247 49.7111C94.5701 48.5203 96.0337 47.7476 97.6791 47.7476C99.3245 47.7476 100.788 48.5203 101.743 49.7111C102.097 50.1657 102.379 50.6748 102.57 51.2202C102.752 51.7475 102.852 52.3202 102.852 52.9202H102.87Z" fill="url(#paint23_linear_585_3693)"/>
<path d="M78.3611 60.647H84.4246C87.6245 60.647 90.2244 63.2469 90.2244 66.4468V75.5375H72.5703V66.4468C72.5703 63.2469 75.1702 60.647 78.3702 60.647H78.3611Z" fill="url(#paint24_linear_585_3693)"/>
<path d="M86.5613 58.738C86.5613 59.9471 86.1431 61.0561 85.4432 61.947C84.4977 63.1379 83.025 63.9106 81.3796 63.9106C79.7342 63.9106 78.2706 63.1379 77.3252 61.947C76.6252 61.0652 76.207 59.9471 76.207 58.738C76.207 58.138 76.307 57.5744 76.4888 57.0381C76.6797 56.4835 76.9616 55.9745 77.3161 55.529C78.2615 54.3381 79.7251 53.5654 81.3705 53.5654C83.0159 53.5654 84.4795 54.3381 85.4341 55.529C85.7886 55.9835 86.0704 56.4926 86.2613 57.0381C86.4431 57.5653 86.5431 58.138 86.5431 58.738H86.5613Z" fill="url(#paint25_linear_585_3693)"/>
<path d="M110.988 60.647H117.051C120.251 60.647 122.851 63.2469 122.851 66.4468V75.5375H105.197V66.4468C105.197 63.2469 107.797 60.647 110.997 60.647H110.988Z" fill="url(#paint26_linear_585_3693)"/>
<path d="M119.188 58.738C119.188 59.9471 118.77 61.0561 118.07 61.947C117.125 63.1379 115.652 63.9106 114.007 63.9106C112.361 63.9106 110.898 63.1379 109.952 61.947C109.252 61.0652 108.834 59.9471 108.834 58.738C108.834 58.138 108.934 57.5744 109.116 57.0381C109.307 56.4835 109.589 55.9745 109.943 55.529C110.888 54.3381 112.352 53.5654 113.997 53.5654C115.643 53.5654 117.106 54.3381 118.061 55.529C118.416 55.9835 118.697 56.4926 118.888 57.0381C119.07 57.5653 119.17 58.138 119.17 58.738H119.188Z" fill="url(#paint27_linear_585_3693)"/>
<path d="M94.6697 65.9473H100.733C103.933 65.9473 106.533 68.5472 106.533 71.7471V80.8378H88.8789V71.7471C88.8789 68.5472 91.4788 65.9473 94.6788 65.9473H94.6697Z" fill="url(#paint28_linear_585_3693)"/>
<path d="M102.87 64.0383C102.87 65.2474 102.452 66.3564 101.752 67.2473C100.806 68.4382 99.3336 69.2109 97.6882 69.2109C96.0428 69.2109 94.5792 68.4382 93.6338 67.2473C92.9338 66.3655 92.5156 65.2474 92.5156 64.0383C92.5156 63.4383 92.6156 62.8747 92.7974 62.3384C92.9883 61.7838 93.2702 61.2748 93.6247 60.8293C94.5701 59.6384 96.0337 58.8657 97.6791 58.8657C99.3245 58.8657 100.788 59.6384 101.743 60.8293C102.097 61.2838 102.379 61.7929 102.57 62.3384C102.752 62.8656 102.852 63.4383 102.852 64.0383H102.87Z" fill="url(#paint29_linear_585_3693)"/>
<path d="M34.0255 262.306H21.4531V284.669H34.0255V262.306Z" fill="url(#paint30_linear_585_3693)"/>
<path d="M51.8165 245.624H39.2441V284.668H51.8165V245.624Z" fill="url(#paint31_linear_585_3693)"/>
<path d="M51.8165 242.061H39.2441V245.615H51.8165V242.061Z" fill="url(#paint32_linear_585_3693)"/>
<path d="M69.5978 249.542H57.0254V284.669H69.5978V249.542Z" fill="url(#paint33_linear_585_3693)"/>
<path d="M87.3869 243.96H74.8145V284.668H87.3869V243.96Z" fill="url(#paint34_linear_585_3693)"/>
<path d="M105.168 210.998H92.5957V284.669H105.168V210.998Z" fill="url(#paint35_linear_585_3693)"/>
<path d="M105.168 210.998H92.5957V226.061H105.168V210.998Z" fill="url(#paint36_linear_585_3693)"/>
<path d="M34.0255 262.306H21.4531V269.833H34.0255V262.306Z" fill="url(#paint37_linear_585_3693)"/>
<path d="M183.65 46.675C180.177 52.7021 173.668 56.7565 166.214 56.7565C155.096 56.7565 146.078 47.7386 146.078 36.6207C146.078 25.5028 155.096 16.4849 166.214 16.4849C171.259 16.4849 175.868 18.3394 179.395 21.4029L166.214 36.6207L183.65 46.675Z" fill="url(#paint38_linear_585_3693)"/>
<path d="M186.342 36.6113C186.342 40.2749 185.369 43.7021 183.651 46.6656L166.215 36.6113L179.396 21.3936C183.651 25.0844 186.342 30.5297 186.342 36.6113Z" fill="url(#paint39_linear_585_3693)"/>
<path d="M82.6874 167.926V166.363C82.6874 164.872 81.642 163.581 80.1784 163.281C79.0693 163.054 78.1966 162.236 77.8239 161.172C77.5966 160.536 77.3421 159.908 77.0512 159.299C76.5603 158.281 76.6057 157.09 77.2239 156.145C78.0421 154.899 77.8693 153.245 76.8148 152.19L75.7148 151.09C74.6603 150.036 73.0058 149.863 71.7604 150.681C70.815 151.299 69.6241 151.345 68.6059 150.854C67.9969 150.563 67.3787 150.299 66.7333 150.081C65.6697 149.709 64.8515 148.836 64.6242 147.727C64.3242 146.263 63.0334 145.218 61.5425 145.218H59.9789C58.488 145.218 57.1971 146.263 56.8971 147.727C56.6699 148.836 55.8517 149.709 54.7881 150.081C54.1427 150.309 53.5245 150.563 52.9154 150.854C51.8973 151.345 50.7064 151.299 49.761 150.681C48.5155 149.863 46.861 150.036 45.8065 151.09L44.7066 152.19C43.652 153.245 43.4793 154.899 44.2975 156.145C44.9156 157.09 44.9611 158.281 44.4702 159.299C44.1793 159.908 43.9157 160.526 43.6975 161.172C43.3248 162.236 42.4521 163.054 41.343 163.281C39.8794 163.581 38.834 164.872 38.834 166.363V167.926C38.834 169.417 39.8794 170.708 41.343 171.008C42.4521 171.235 43.3248 172.053 43.6975 173.117C43.9248 173.762 44.1793 174.381 44.4702 174.99C44.9611 176.008 44.9156 177.199 44.2975 178.144C43.4793 179.39 43.652 181.044 44.7066 182.099L45.8065 183.199C46.861 184.253 48.5155 184.426 49.761 183.608C50.7064 182.99 51.8973 182.944 52.9154 183.435C53.5245 183.726 54.1427 183.989 54.7881 184.208C55.8517 184.58 56.6699 185.453 56.8971 186.562C57.1971 188.026 58.488 189.071 59.9789 189.071H61.5425C63.0334 189.071 64.3242 188.026 64.6242 186.562C64.8515 185.453 65.6697 184.58 66.7333 184.208C67.3787 183.98 67.9969 183.726 68.6059 183.435C69.6241 182.944 70.815 182.99 71.7604 183.608C73.0058 184.426 74.6603 184.253 75.7148 183.199L76.8148 182.099C77.8693 181.044 78.0421 179.39 77.2239 178.144C76.6057 177.199 76.5603 176.008 77.0512 174.99C77.3421 174.381 77.5966 173.762 77.8239 173.117C78.1966 172.053 79.0693 171.235 80.1784 171.008C81.642 170.699 82.6874 169.417 82.6874 167.926ZM59.4334 174.781C56.2244 174.244 53.6427 171.663 53.1245 168.454C52.2609 163.163 56.7699 158.645 62.0788 159.517C65.2878 160.045 67.8787 162.636 68.4059 165.845C69.2696 171.144 64.7333 175.662 59.4425 174.781H59.4334Z" fill="url(#paint40_linear_585_3693)"/>
<path d="M115.905 160.054V158.763C115.905 157.527 115.032 156.454 113.823 156.209C112.905 156.018 112.178 155.345 111.869 154.454C111.687 153.918 111.469 153.4 111.223 152.9C110.814 152.054 110.85 151.063 111.369 150.281C112.05 149.245 111.905 147.872 111.032 147L110.114 146.082C109.241 145.209 107.869 145.063 106.832 145.745C106.051 146.263 105.06 146.291 104.214 145.891C103.714 145.645 103.196 145.436 102.66 145.245C101.778 144.936 101.096 144.209 100.905 143.291C100.651 142.073 99.5872 141.209 98.3508 141.209H97.06C95.8236 141.209 94.7509 142.082 94.5055 143.291C94.3146 144.209 93.6419 144.936 92.751 145.245C92.2146 145.427 91.6965 145.645 91.1965 145.891C90.351 146.3 89.3602 146.263 88.5784 145.745C87.542 145.063 86.1693 145.209 85.2966 146.082L84.3785 147C83.5058 147.872 83.3603 149.245 84.0421 150.281C84.5603 151.063 84.5875 152.054 84.1876 152.9C83.9421 153.4 83.733 153.918 83.5421 154.454C83.233 155.336 82.5058 156.018 81.5876 156.209C80.3786 156.463 79.5059 157.527 79.5059 158.772V160.063C79.5059 161.299 80.3786 162.372 81.5876 162.618C82.5058 162.808 83.233 163.481 83.5421 164.372C83.7239 164.908 83.9421 165.427 84.1876 165.927C84.5966 166.772 84.5603 167.763 84.0421 168.545C83.3603 169.581 83.5058 170.954 84.3785 171.826L85.2966 172.745C86.1693 173.617 87.542 173.763 88.5784 173.081C89.3602 172.563 90.351 172.535 91.1965 172.935C91.6965 173.181 92.2146 173.39 92.751 173.581C93.6328 173.89 94.3146 174.617 94.5055 175.535C94.76 176.754 95.8236 177.617 97.06 177.617H98.3508C99.5872 177.617 100.66 176.744 100.905 175.535C101.096 174.617 101.769 173.89 102.66 173.581C103.196 173.399 103.714 173.181 104.214 172.935C105.06 172.526 106.051 172.563 106.832 173.081C107.869 173.763 109.241 173.617 110.114 172.745L111.032 171.826C111.905 170.954 112.05 169.581 111.369 168.545C110.85 167.763 110.823 166.772 111.223 165.927C111.469 165.427 111.678 164.908 111.869 164.372C112.178 163.49 112.905 162.808 113.823 162.618C115.032 162.363 115.905 161.299 115.905 160.054ZM96.6054 165.745C93.9419 165.299 91.8055 163.154 91.3692 160.49C90.651 156.1 94.3964 152.345 98.8054 153.072C101.469 153.509 103.623 155.663 104.051 158.327C104.769 162.727 101.005 166.472 96.6054 165.745Z" fill="url(#paint41_linear_585_3693)"/>
<path d="M59.0797 109.68C61.6925 98.7206 54.9265 87.7183 43.9674 85.1055C33.0082 82.4926 22.006 89.2586 19.3931 100.218C16.7802 111.177 23.5462 122.179 34.5054 124.792C45.4645 127.405 56.4668 120.639 59.0797 109.68Z" fill="url(#paint42_linear_585_3693)"/>
<path d="M39.2439 122.118C48.7179 122.118 56.398 114.438 56.398 104.964C56.398 95.4902 48.7179 87.8101 39.2439 87.8101C29.77 87.8101 22.0898 95.4902 22.0898 104.964C22.0898 114.438 29.77 122.118 39.2439 122.118Z" fill="url(#paint43_linear_585_3693)"/>
<path d="M41.5266 100.655C41.5266 99.3827 40.4175 98.5827 38.7267 98.5827C37.0358 98.5827 35.7995 99.31 34.9722 100.501L31.8359 98.6645C33.2359 96.5373 35.6722 95.1919 39.163 95.1919C43.0447 95.1919 45.7447 96.9282 45.7447 99.9827C45.7447 104.128 41.3902 104.592 41.3902 107.337H37.4812C37.4812 103.71 41.5175 102.91 41.5175 100.655H41.5266ZM36.9722 111.482C36.9722 110.164 38.0085 109.173 39.4539 109.173C40.8993 109.173 41.9448 110.155 41.9448 111.482C41.9448 112.81 40.9084 113.837 39.4539 113.837C37.9994 113.837 36.9722 112.773 36.9722 111.482Z" fill="#FFC431"/>
<path d="M229.252 47.4341C235.511 45.1362 238.722 38.1996 236.424 31.9406C234.126 25.6817 227.189 22.4707 220.93 24.7685C214.672 27.0664 211.46 34.0031 213.758 40.262C216.056 46.5209 222.993 49.732 229.252 47.4341Z" fill="url(#paint44_linear_585_3693)"/>
<path d="M228.586 45.6471C233.851 43.7171 236.555 37.884 234.625 32.6185C232.695 27.353 226.862 24.6491 221.596 26.5791C216.331 28.5091 213.627 34.3422 215.557 39.6077C217.487 44.8732 223.32 47.5771 228.586 45.6471Z" fill="url(#paint45_linear_585_3693)"/>
<path d="M223.975 38.9387C223.639 38.9387 223.302 38.9023 222.966 38.8296C221.739 38.566 220.693 37.8296 220.02 36.7751C218.621 34.5933 219.257 31.6934 221.439 30.2934C223.62 28.8935 226.52 29.5298 227.92 31.7116C229.32 33.8934 228.684 36.7933 226.502 38.1932C225.739 38.6841 224.866 38.9387 223.975 38.9387ZM223.966 31.1661C223.393 31.1661 222.82 31.3207 222.311 31.657C220.884 32.5752 220.466 34.4842 221.384 35.9115C221.83 36.6024 222.511 37.0842 223.32 37.2569C224.12 37.4296 224.948 37.2842 225.639 36.8387C227.066 35.9206 227.484 34.0115 226.566 32.5843C225.975 31.6661 224.984 31.1661 223.975 31.1661H223.966Z" fill="#FFC431"/>
<path d="M229.202 43.2201C228.938 43.2201 228.675 43.0928 228.52 42.8474L225.375 37.9475C225.138 37.5748 225.248 37.0748 225.62 36.8294C225.993 36.593 226.493 36.7021 226.738 37.0748L229.884 41.9747C230.12 42.3474 230.011 42.8474 229.638 43.0928C229.502 43.1838 229.356 43.2201 229.202 43.2201Z" fill="#FFC431"/>
<path d="M38.827 195.752C39.5452 199.607 42.5633 202.634 46.4178 203.343C42.5633 204.061 39.5361 207.079 38.827 210.934C38.1089 207.079 35.0908 204.052 31.2363 203.343C35.0908 202.625 38.118 199.607 38.827 195.752Z" fill="url(#paint46_linear_585_3693)"/>
<path d="M283.585 228.034C284.303 231.888 287.321 234.915 291.176 235.624C287.321 236.343 284.294 239.361 283.585 243.215C282.867 239.361 279.849 236.333 275.994 235.624C279.849 234.906 282.876 231.888 283.585 228.034Z" fill="url(#paint47_linear_585_3693)"/>
<path d="M288.722 97.0459C289.44 100.9 292.458 103.928 296.312 104.637C292.458 105.355 289.431 108.373 288.722 112.227C288.003 108.373 284.985 105.346 281.131 104.637C284.985 103.918 288.013 100.9 288.722 97.0459Z" fill="url(#paint48_linear_585_3693)"/>
<path d="M134.024 0.884766C134.742 4.73921 137.761 7.76641 141.615 8.47548C137.761 9.19364 134.733 12.2117 134.024 16.0662C133.306 12.2117 130.288 9.18455 126.434 8.47548C130.288 7.75732 133.315 4.73921 134.024 0.884766Z" fill="url(#paint49_linear_585_3693)"/>
<path d="M183.869 69.1196C184.351 71.6923 186.36 73.7104 188.942 74.1922C186.369 74.674 184.351 76.6831 183.869 79.2648C183.388 76.6922 181.379 74.674 178.797 74.1922C181.37 73.7104 183.388 71.7014 183.869 69.1196Z" fill="url(#paint50_linear_585_3693)"/>
<path d="M21.4554 144.381C21.9372 146.954 23.9463 148.972 26.528 149.454C23.9553 149.936 21.9372 151.945 21.4554 154.527C20.9736 151.954 18.9646 149.936 16.3828 149.454C18.9555 148.972 20.9736 146.963 21.4554 144.381Z" fill="url(#paint51_linear_585_3693)"/>
<defs>
<linearGradient id="paint0_linear_585_3693" x1="136.333" y1="261.86" x2="170.223" y2="260.588" gradientUnits="userSpaceOnUse">
<stop stop-color="#263681"/>
<stop offset="1" stop-color="#1A1248"/>
</linearGradient>
<radialGradient id="paint1_radial_585_3693" cx="0" cy="0" r="1" gradientUnits="userSpaceOnUse" gradientTransform="translate(147.377 55.0108) scale(166.541 166.541)">
<stop stop-color="#FFD042"/>
<stop offset="1" stop-color="#F2830B"/>
</radialGradient>
<linearGradient id="paint2_linear_585_3693" x1="117.915" y1="255.224" x2="187.813" y2="252.606" gradientUnits="userSpaceOnUse">
<stop stop-color="#5A32B0"/>
<stop offset="0.28" stop-color="#8968BB"/>
<stop offset="0.75" stop-color="#623CB2"/>
<stop offset="1" stop-color="#7855B7"/>
</linearGradient>
<linearGradient id="paint3_linear_585_3693" x1="203.974" y1="275.115" x2="228.983" y2="283.26" gradientUnits="userSpaceOnUse">
<stop stop-color="#263681"/>
<stop offset="1" stop-color="#1A1248"/>
</linearGradient>
<linearGradient id="paint4_linear_585_3693" x1="229.148" y1="275.823" x2="254.147" y2="283.968" gradientUnits="userSpaceOnUse">
<stop stop-color="#263681"/>
<stop offset="1" stop-color="#1A1248"/>
</linearGradient>
<linearGradient id="paint5_linear_585_3693" x1="211.985" y1="207.379" x2="267.338" y2="225.406" gradientUnits="userSpaceOnUse">
<stop stop-color="#263681"/>
<stop offset="1" stop-color="#1A1248"/>
</linearGradient>
<linearGradient id="paint6_linear_585_3693" x1="208.293" y1="64.3833" x2="236.502" y2="117.491" gradientUnits="userSpaceOnUse">
<stop stop-color="#9571CB"/>
<stop offset="1" stop-color="#6237C0"/>
</linearGradient>
<linearGradient id="paint7_linear_585_3693" x1="250.972" y1="96.9746" x2="252.664" y2="88.675" gradientUnits="userSpaceOnUse">
<stop stop-color="#FFC085"/>
<stop offset="1" stop-color="#FA976E"/>
</linearGradient>
<linearGradient id="paint8_linear_585_3693" x1="243.445" y1="72.7897" x2="265.116" y2="79.8436" gradientUnits="userSpaceOnUse">
<stop stop-color="#FFC085"/>
<stop offset="1" stop-color="#FA976E"/>
</linearGradient>
<linearGradient id="paint9_linear_585_3693" x1="241.95" y1="69.5114" x2="268.911" y2="78.2873" gradientUnits="userSpaceOnUse">
<stop stop-color="#263681"/>
<stop offset="1" stop-color="#1A1248"/>
</linearGradient>
<linearGradient id="paint10_linear_585_3693" x1="245.202" y1="97.6824" x2="244.311" y2="138.763" gradientUnits="userSpaceOnUse">
<stop stop-color="#9571CB"/>
<stop offset="1" stop-color="#6237C0"/>
</linearGradient>
<linearGradient id="paint11_linear_585_3693" x1="270.173" y1="93.1189" x2="267.855" y2="161.59" gradientUnits="userSpaceOnUse">
<stop stop-color="#9571CB"/>
<stop offset="1" stop-color="#6237C0"/>
</linearGradient>
<linearGradient id="paint12_linear_585_3693" x1="260.712" y1="57.1485" x2="243.392" y2="86.6921" gradientUnits="userSpaceOnUse">
<stop stop-color="#263681"/>
<stop offset="1" stop-color="#1A1248"/>
</linearGradient>
<linearGradient id="paint13_linear_585_3693" x1="240.429" y1="80.2192" x2="244.556" y2="80.2192" gradientUnits="userSpaceOnUse">
<stop stop-color="#FFC085"/>
<stop offset="1" stop-color="#FA976E"/>
</linearGradient>
<linearGradient id="paint14_linear_585_3693" x1="97.489" y1="19.6575" x2="97.889" y2="94.3556" gradientUnits="userSpaceOnUse">
<stop stop-color="#9571CB"/>
<stop offset="1" stop-color="#6237C0"/>
</linearGradient>
<linearGradient id="paint15_linear_585_3693" x1="97.525" y1="25.166" x2="97.8613" y2="89.4826" gradientUnits="userSpaceOnUse">
<stop stop-color="#F5F0FF"/>
<stop offset="1" stop-color="#D2C1F7"/>
</linearGradient>
<linearGradient id="paint16_linear_585_3693" x1="98.5787" y1="59.5745" x2="96.3787" y2="45.1657" gradientUnits="userSpaceOnUse">
<stop stop-color="#263681"/>
<stop offset="1" stop-color="#1A1248"/>
</linearGradient>
<linearGradient id="paint17_linear_585_3693" x1="97.6973" y1="36.8751" x2="97.6973" y2="49.8384" gradientUnits="userSpaceOnUse">
<stop stop-color="#FFC085"/>
<stop offset="1" stop-color="#FA976E"/>
</linearGradient>
<linearGradient id="paint18_linear_585_3693" x1="84.5518" y1="48.5114" x2="79.0611" y2="67.4655" gradientUnits="userSpaceOnUse">
<stop stop-color="#9571CB"/>
<stop offset="1" stop-color="#6237C0"/>
</linearGradient>
<linearGradient id="paint19_linear_585_3693" x1="81.3887" y1="42.6933" x2="81.3887" y2="55.6566" gradientUnits="userSpaceOnUse">
<stop stop-color="#FFC085"/>
<stop offset="1" stop-color="#FA976E"/>
</linearGradient>
<linearGradient id="paint20_linear_585_3693" x1="113.024" y1="49.5023" x2="114.597" y2="65.6655" gradientUnits="userSpaceOnUse">
<stop stop-color="#F2830B"/>
<stop offset="1" stop-color="#FAAD1E"/>
</linearGradient>
<linearGradient id="paint21_linear_585_3693" x1="114.016" y1="42.6933" x2="114.016" y2="55.6566" gradientUnits="userSpaceOnUse">
<stop stop-color="#FFC085"/>
<stop offset="1" stop-color="#FA976E"/>
</linearGradient>
<linearGradient id="paint22_linear_585_3693" x1="98.5787" y1="70.7105" x2="96.3787" y2="56.2927" gradientUnits="userSpaceOnUse">
<stop stop-color="#9571CB"/>
<stop offset="1" stop-color="#6237C0"/>
</linearGradient>
<linearGradient id="paint23_linear_585_3693" x1="97.6973" y1="48.0021" x2="97.6973" y2="60.9654" gradientUnits="userSpaceOnUse">
<stop stop-color="#FFC085"/>
<stop offset="1" stop-color="#FA976E"/>
</linearGradient>
<linearGradient id="paint24_linear_585_3693" x1="84.5518" y1="59.647" x2="79.061" y2="78.6011" gradientUnits="userSpaceOnUse">
<stop stop-color="#F2830B"/>
<stop offset="1" stop-color="#FAAD1E"/>
</linearGradient>
<linearGradient id="paint25_linear_585_3693" x1="81.3887" y1="53.82" x2="81.3887" y2="66.7833" gradientUnits="userSpaceOnUse">
<stop stop-color="#FFC085"/>
<stop offset="1" stop-color="#FA976E"/>
</linearGradient>
<linearGradient id="paint26_linear_585_3693" x1="113.024" y1="60.6288" x2="114.597" y2="76.792" gradientUnits="userSpaceOnUse">
<stop stop-color="#9571CB"/>
<stop offset="1" stop-color="#6237C0"/>
</linearGradient>
<linearGradient id="paint27_linear_585_3693" x1="114.016" y1="53.82" x2="114.016" y2="66.7833" gradientUnits="userSpaceOnUse">
<stop stop-color="#FFC085"/>
<stop offset="1" stop-color="#FA976E"/>
</linearGradient>
<linearGradient id="paint28_linear_585_3693" x1="98.5787" y1="81.8196" x2="96.3787" y2="67.4109" gradientUnits="userSpaceOnUse">
<stop stop-color="#263681"/>
<stop offset="1" stop-color="#1A1248"/>
</linearGradient>
<linearGradient id="paint29_linear_585_3693" x1="97.6973" y1="59.1203" x2="97.6973" y2="72.0836" gradientUnits="userSpaceOnUse">
<stop stop-color="#FFC085"/>
<stop offset="1" stop-color="#FA976E"/>
</linearGradient>
<linearGradient id="paint30_linear_585_3693" x1="27.7348" y1="284.669" x2="27.7348" y2="262.306" gradientUnits="userSpaceOnUse">
<stop stop-color="#6237C0"/>
<stop offset="1" stop-color="#9571CB"/>
</linearGradient>
<linearGradient id="paint31_linear_585_3693" x1="45.5258" y1="285.818" x2="45.5258" y2="246.683" gradientUnits="userSpaceOnUse">
<stop stop-color="#6237C0"/>
<stop offset="1" stop-color="#9571CB"/>
</linearGradient>
<linearGradient id="paint32_linear_585_3693" x1="45.6803" y1="246.506" x2="45.4076" y2="241.879" gradientUnits="userSpaceOnUse">
<stop stop-color="#F2830B"/>
<stop offset="1" stop-color="#FAAD1E"/>
</linearGradient>
<linearGradient id="paint33_linear_585_3693" x1="63.307" y1="284.53" x2="63.307" y2="249.42" gradientUnits="userSpaceOnUse">
<stop stop-color="#6237C0"/>
<stop offset="1" stop-color="#9571CB"/>
</linearGradient>
<linearGradient id="paint34_linear_585_3693" x1="81.0961" y1="284.674" x2="81.0961" y2="243.956" gradientUnits="userSpaceOnUse">
<stop stop-color="#6237C0"/>
<stop offset="1" stop-color="#9571CB"/>
</linearGradient>
<linearGradient id="paint35_linear_585_3693" x1="98.8774" y1="283.669" x2="98.8774" y2="210.065" gradientUnits="userSpaceOnUse">
<stop stop-color="#6237C0"/>
<stop offset="1" stop-color="#9571CB"/>
</linearGradient>
<linearGradient id="paint36_linear_585_3693" x1="99.4501" y1="228.334" x2="98.4592" y2="211.289" gradientUnits="userSpaceOnUse">
<stop stop-color="#F2830B"/>
<stop offset="1" stop-color="#FAAD1E"/>
</linearGradient>
<linearGradient id="paint37_linear_585_3693" x1="28.0348" y1="271.196" x2="27.5166" y2="262.278" gradientUnits="userSpaceOnUse">
<stop stop-color="#F2830B"/>
<stop offset="1" stop-color="#FAAD1E"/>
</linearGradient>
<linearGradient id="paint38_linear_585_3693" x1="165.723" y1="56.8111" x2="163.405" y2="16.6121" gradientUnits="userSpaceOnUse">
<stop stop-color="#F2830B"/>
<stop offset="1" stop-color="#FAAD1E"/>
</linearGradient>
<linearGradient id="paint39_linear_585_3693" x1="178.696" y1="10.5211" x2="175.76" y2="42.7475" gradientUnits="userSpaceOnUse">
<stop stop-color="#9571CB"/>
<stop offset="1" stop-color="#6237C0"/>
</linearGradient>
<linearGradient id="paint40_linear_585_3693" x1="63.0697" y1="184.853" x2="58.1517" y2="147.209" gradientUnits="userSpaceOnUse">
<stop stop-color="#F2830B"/>
<stop offset="1" stop-color="#FAAD1E"/>
</linearGradient>
<linearGradient id="paint41_linear_585_3693" x1="99.0963" y1="143.673" x2="96.5509" y2="172.335" gradientUnits="userSpaceOnUse">
<stop stop-color="#9571CB"/>
<stop offset="1" stop-color="#6237C0"/>
</linearGradient>
<linearGradient id="paint42_linear_585_3693" x1="49.9968" y1="68.0602" x2="35.6244" y2="117.304" gradientUnits="userSpaceOnUse">
<stop stop-color="#FFE14D"/>
<stop offset="1" stop-color="#F7A523"/>
</linearGradient>
<linearGradient id="paint43_linear_585_3693" x1="48.2892" y1="73.9377" x2="36.2077" y2="115.346" gradientUnits="userSpaceOnUse">
<stop stop-color="#FAAD1E"/>
<stop offset="1" stop-color="#F2830B"/>
</linearGradient>
<linearGradient id="paint44_linear_585_3693" x1="231.468" y1="14.2813" x2="222.959" y2="43.4169" gradientUnits="userSpaceOnUse">
<stop stop-color="#FFE14D"/>
<stop offset="1" stop-color="#F7A523"/>
</linearGradient>
<linearGradient id="paint45_linear_585_3693" x1="230.453" y1="17.7475" x2="223.307" y2="42.2468" gradientUnits="userSpaceOnUse">
<stop stop-color="#FAAD1E"/>
<stop offset="1" stop-color="#F2830B"/>
</linearGradient>
<linearGradient id="paint46_linear_585_3693" x1="36.2998" y1="197.725" x2="41.3633" y2="208.961" gradientUnits="userSpaceOnUse">
<stop stop-color="#9571CB"/>
<stop offset="1" stop-color="#6237C0"/>
</linearGradient>
<linearGradient id="paint47_linear_585_3693" x1="281.058" y1="230.015" x2="286.112" y2="241.252" gradientUnits="userSpaceOnUse">
<stop stop-color="#9571CB"/>
<stop offset="1" stop-color="#6237C0"/>
</linearGradient>
<linearGradient id="paint48_linear_585_3693" x1="286.194" y1="99.0186" x2="291.249" y2="110.255" gradientUnits="userSpaceOnUse">
<stop stop-color="#9571CB"/>
<stop offset="1" stop-color="#6237C0"/>
</linearGradient>
<linearGradient id="paint49_linear_585_3693" x1="131.497" y1="2.85744" x2="136.552" y2="14.0935" gradientUnits="userSpaceOnUse">
<stop stop-color="#9571CB"/>
<stop offset="1" stop-color="#6237C0"/>
</linearGradient>
<linearGradient id="paint50_linear_585_3693" x1="182.188" y1="70.4378" x2="185.56" y2="77.9467" gradientUnits="userSpaceOnUse">
<stop stop-color="#9571CB"/>
<stop offset="1" stop-color="#6237C0"/>
</linearGradient>
<linearGradient id="paint51_linear_585_3693" x1="19.7645" y1="145.699" x2="23.1463" y2="153.208" gradientUnits="userSpaceOnUse">
<stop stop-color="#9571CB"/>
<stop offset="1" stop-color="#6237C0"/>
</linearGradient>
</defs>
</svg>
