<svg width="301" height="249" viewBox="0 0 301 249" fill="none" xmlns="http://www.w3.org/2000/svg">
<path d="M244.973 44.5589C244.973 42.2637 244.744 40.0258 244.301 37.8665L255.497 31.4029L245.016 13.2418L233.854 19.684C230.48 16.6595 226.476 14.3143 222.071 12.8557V0H201.1V12.8629C199.141 13.5135 197.261 14.3286 195.48 15.3082C195.266 15.4226 195.058 15.5513 194.851 15.6728C194.644 15.7944 194.429 15.9088 194.222 16.0375C192.484 17.0885 190.833 18.304 189.295 19.6768L178.156 13.2418L167.674 31.4029L178.814 37.8379C178.392 39.8542 178.163 41.8919 178.127 43.9225C178.127 44.1656 178.127 44.4159 178.127 44.659C178.127 44.8949 178.127 45.1309 178.127 45.374C178.17 47.4046 178.399 49.4423 178.814 51.4658L167.674 57.9008L178.156 76.0618L189.295 69.6268C192.756 72.7156 196.789 75.0036 201.093 76.4193V89.3037H222.064V76.3764C224.159 75.6757 226.211 74.7605 228.199 73.6094C230.229 72.4368 232.095 71.0783 233.776 69.5696L245.008 76.0547L255.49 57.8937L244.258 51.4086C244.715 49.1992 244.965 46.9041 244.965 44.5589H244.973ZM225.317 59.338C225.224 59.4238 225.138 59.5024 225.046 59.5882C224.681 59.9171 224.309 60.2246 223.93 60.5249C223.751 60.6607 223.573 60.7966 223.387 60.9324C223.072 61.1612 222.758 61.3757 222.429 61.5831C222.171 61.7475 221.907 61.9048 221.642 62.0621C221.378 62.2194 221.106 62.3624 220.834 62.5054C220.491 62.6842 220.141 62.8486 219.79 63.0059C219.583 63.0989 219.376 63.1847 219.168 63.2705C218.718 63.4492 218.267 63.6208 217.803 63.771C217.688 63.8067 217.567 63.8496 217.452 63.8854C215.6 64.4431 213.634 64.7577 211.596 64.7577C200.442 64.7577 191.398 55.7129 191.398 44.5589C191.398 41.8276 191.948 39.225 192.928 36.8512C192.978 36.7368 193.021 36.6295 193.071 36.5151C193.249 36.1004 193.457 35.6929 193.664 35.2853C193.8 35.0279 193.936 34.7777 194.079 34.5274C194.222 34.2772 194.372 34.0341 194.529 33.791C194.772 33.412 195.023 33.0331 195.294 32.6684C195.366 32.5683 195.437 32.4754 195.509 32.3753C197.075 30.3375 199.055 28.5571 201.422 27.1915C211.082 21.6145 223.43 24.9249 229.007 34.5846C230.022 36.3507 230.744 38.2025 231.18 40.0901C231.209 40.2117 231.23 40.3261 231.259 40.4476C231.359 40.9267 231.445 41.4057 231.509 41.8848C231.538 42.1064 231.566 42.3352 231.588 42.5569C231.631 42.943 231.659 43.3291 231.674 43.7152C231.688 44.0226 231.695 44.3301 231.695 44.6304C231.695 44.9378 231.695 45.2453 231.674 45.5527C231.652 45.9388 231.631 46.3178 231.588 46.7039C231.566 46.9327 231.538 47.1543 231.509 47.3831C231.445 47.8622 231.359 48.3412 231.259 48.8131C231.23 48.9347 231.209 49.0562 231.18 49.1778C230.737 51.0654 230.022 52.9172 229.007 54.6833C227.991 56.4494 226.74 57.9938 225.324 59.3165L225.317 59.338Z" fill="#EBEBF2"/>
<path d="M294.792 108.423C294.792 107.129 294.664 105.87 294.413 104.648L300.727 101.001L294.814 90.7625L288.522 94.3947C286.62 92.6858 284.36 91.3702 281.879 90.548V83.2979H270.06V90.548C268.959 90.9126 267.894 91.3774 266.893 91.9279C266.771 91.9923 266.657 92.0638 266.535 92.1281C266.421 92.1996 266.299 92.264 266.185 92.3355C265.205 92.9289 264.276 93.6153 263.404 94.3875L257.126 90.7625L251.213 101.001L257.491 104.626C257.255 105.763 257.126 106.914 257.104 108.058C257.104 108.194 257.104 108.337 257.104 108.473C257.104 108.609 257.104 108.738 257.104 108.873C257.126 110.017 257.255 111.169 257.491 112.305L251.213 115.931L257.126 126.169L263.404 122.544C265.356 124.282 267.629 125.576 270.053 126.37V133.634H281.872V126.348C283.052 125.955 284.21 125.433 285.326 124.789C286.47 124.124 287.521 123.359 288.472 122.516L294.799 126.169L300.712 115.931L294.385 112.277C294.642 111.033 294.785 109.739 294.785 108.416L294.792 108.423ZM283.71 116.753C283.66 116.803 283.61 116.846 283.552 116.896C283.352 117.082 283.138 117.253 282.923 117.425C282.823 117.504 282.723 117.582 282.616 117.654C282.437 117.782 282.258 117.904 282.079 118.018C281.936 118.111 281.786 118.204 281.636 118.29C281.486 118.376 281.336 118.462 281.179 118.54C280.986 118.64 280.792 118.733 280.592 118.826C280.478 118.876 280.356 118.926 280.242 118.976C279.992 119.077 279.734 119.177 279.47 119.255C279.405 119.277 279.341 119.298 279.27 119.32C278.226 119.634 277.117 119.813 275.966 119.813C269.681 119.813 264.583 114.715 264.583 108.43C264.583 106.893 264.891 105.427 265.449 104.083C265.477 104.019 265.499 103.954 265.527 103.897C265.627 103.661 265.742 103.432 265.863 103.203C265.942 103.06 266.013 102.917 266.099 102.774C266.178 102.631 266.264 102.496 266.349 102.36C266.485 102.145 266.628 101.931 266.778 101.723C266.821 101.666 266.857 101.616 266.9 101.559C267.787 100.408 268.902 99.4068 270.232 98.6418C275.68 95.4958 282.637 97.3619 285.783 102.81C286.355 103.804 286.763 104.848 287.013 105.913C287.027 105.978 287.042 106.049 287.056 106.114C287.113 106.385 287.156 106.65 287.199 106.921C287.213 107.05 287.227 107.172 287.242 107.3C287.263 107.515 287.278 107.737 287.292 107.951C287.299 108.123 287.306 108.294 287.306 108.466C287.306 108.637 287.306 108.816 287.292 108.988C287.285 109.202 287.263 109.424 287.242 109.638C287.227 109.767 287.213 109.896 287.199 110.017C287.163 110.289 287.113 110.554 287.056 110.825C287.042 110.897 287.027 110.961 287.013 111.033C286.763 112.098 286.362 113.142 285.79 114.136C285.218 115.13 284.51 116.002 283.717 116.753H283.71Z" fill="#EBEBF2"/>
<path d="M64.8775 178.565C64.2268 176.892 63.426 175.319 62.4894 173.86L68.8458 165.959L56.0329 155.649L49.698 163.521C46.3733 162.263 42.784 161.683 39.1517 161.869L35.5052 152.46L20.1685 158.402L23.815 167.811C22.5637 168.841 21.4269 169.97 20.3973 171.193C20.2757 171.336 20.1613 171.486 20.0398 171.636C19.9182 171.786 19.7967 171.929 19.6823 172.08C18.7099 173.338 17.8447 174.697 17.1083 176.141L7.14114 174.589L4.61719 190.841L14.5843 192.393C14.8489 193.987 15.2564 195.546 15.807 197.04C15.8713 197.219 15.9428 197.398 16.0143 197.584C16.0787 197.755 16.143 197.934 16.2145 198.106C16.8223 199.579 17.5659 201.001 18.4453 202.367L12.1176 210.225L24.9304 220.535L31.2581 212.677C34.6615 213.95 38.258 214.486 41.8116 214.3L45.4581 223.724L60.7948 217.782L57.134 208.33C58.4639 207.222 59.708 205.971 60.8377 204.569C61.9889 203.132 62.9684 201.616 63.7764 200.036L73.8222 201.595L76.3461 185.343L66.3004 183.784C66.0144 182.04 65.5424 180.295 64.8775 178.572V178.565ZM54.6887 194.938C54.6458 195.024 54.6029 195.11 54.56 195.196C54.3884 195.539 54.2025 195.868 54.0095 196.197C53.9165 196.347 53.8236 196.497 53.7235 196.647C53.559 196.904 53.3874 197.148 53.2087 197.398C53.0657 197.591 52.9227 197.784 52.7654 197.97C52.6152 198.156 52.4579 198.342 52.3006 198.52C52.1004 198.749 51.8931 198.971 51.6786 199.185C51.557 199.314 51.4283 199.436 51.2996 199.557C51.0208 199.815 50.7348 200.072 50.4416 200.308C50.3701 200.372 50.2915 200.429 50.2128 200.487C49.0188 201.423 47.6674 202.203 46.1731 202.782C38.0149 205.942 28.8414 201.888 25.6811 193.73C24.9089 191.735 24.5729 189.676 24.6158 187.659C24.6158 187.567 24.6158 187.474 24.6229 187.373C24.6372 187.016 24.6658 186.666 24.7087 186.308C24.7373 186.086 24.7588 185.858 24.7945 185.636C24.8303 185.414 24.8732 185.193 24.9161 184.971C24.9876 184.621 25.0662 184.278 25.1592 183.934C25.1806 183.841 25.2092 183.748 25.2378 183.663C25.8027 181.725 26.7465 179.866 28.0907 178.2C33.5747 171.386 43.5419 170.306 50.3558 175.79C51.5999 176.791 52.651 177.95 53.509 179.201C53.5662 179.28 53.6162 179.358 53.6663 179.444C53.8736 179.766 54.0738 180.095 54.2597 180.424C54.3455 180.581 54.4313 180.731 54.51 180.896C54.6458 181.167 54.7817 181.439 54.9032 181.718C54.9962 181.939 55.0891 182.161 55.1749 182.383C55.2607 182.612 55.3465 182.833 55.4252 183.062C55.5181 183.348 55.6111 183.634 55.6897 183.927C55.7398 184.099 55.7827 184.27 55.8256 184.442C55.9114 184.814 55.99 185.186 56.0472 185.557C56.0615 185.65 56.0758 185.75 56.0901 185.843C56.3046 187.345 56.3046 188.904 56.0615 190.484C55.8184 192.064 55.3394 193.551 54.6816 194.917L54.6887 194.938Z" fill="#EBEBF2"/>
<path d="M144.807 36.8937H1.82845C0.820298 36.8937 -0.00195312 36.0715 -0.00195312 35.0633C-0.00195312 34.0552 0.820298 33.2329 1.82845 33.2329H144.807C145.815 33.2329 146.638 34.0552 146.638 35.0633C146.638 36.0715 145.815 36.8937 144.807 36.8937Z" fill="#EBEBF2"/>
<path d="M144.807 50.0065H1.82845C0.820298 50.0065 -0.00195312 49.1843 -0.00195312 48.1761C-0.00195312 47.168 0.820298 46.3457 1.82845 46.3457H144.807C145.815 46.3457 146.638 47.168 146.638 48.1761C146.638 49.1843 145.815 50.0065 144.807 50.0065Z" fill="#EBEBF2"/>
<path d="M144.807 63.113H1.82845C0.820298 63.113 -0.00195312 62.2907 -0.00195312 61.2825C-0.00195312 60.2744 0.820298 59.4521 1.82845 59.4521H144.807C145.815 59.4521 146.638 60.2744 146.638 61.2825C146.638 62.2907 145.815 63.113 144.807 63.113Z" fill="#EBEBF2"/>
<path d="M144.807 72.5649H1.82845C0.817546 72.5649 -0.00195312 73.3844 -0.00195312 74.3953C-0.00195312 75.4063 0.817546 76.2257 1.82845 76.2257H144.807C145.818 76.2257 146.638 75.4063 146.638 74.3953C146.638 73.3844 145.818 72.5649 144.807 72.5649Z" fill="#EBEBF2"/>
<path d="M144.807 89.339H1.82845C0.820298 89.339 -0.00195312 88.5168 -0.00195312 87.5086C-0.00195312 86.5005 0.820298 85.6782 1.82845 85.6782H144.807C145.815 85.6782 146.638 86.5005 146.638 87.5086C146.638 88.5168 145.815 89.339 144.807 89.339Z" fill="#EBEBF2"/>
<path d="M144.807 102.445H1.82845C0.820298 102.445 -0.00195312 101.623 -0.00195312 100.615C-0.00195312 99.6064 0.820298 98.7842 1.82845 98.7842H144.807C145.815 98.7842 146.638 99.6064 146.638 100.615C146.638 101.623 145.815 102.445 144.807 102.445Z" fill="#EBEBF2"/>
<path d="M144.807 115.558H1.82845C0.820298 115.558 -0.00195312 114.736 -0.00195312 113.728C-0.00195312 112.72 0.820298 111.897 1.82845 111.897H144.807C145.815 111.897 146.638 112.72 146.638 113.728C146.638 114.736 145.815 115.558 144.807 115.558Z" fill="#EBEBF2"/>
<path d="M144.807 128.671H1.82845C0.820298 128.671 -0.00195312 127.849 -0.00195312 126.841C-0.00195312 125.833 0.820298 125.01 1.82845 125.01H144.807C145.815 125.01 146.638 125.833 146.638 126.841C146.638 127.849 145.815 128.671 144.807 128.671Z" fill="#EBEBF2"/>
<path d="M144.807 141.777H1.82845C0.820298 141.777 -0.00195312 140.955 -0.00195312 139.947C-0.00195312 138.938 0.820298 138.116 1.82845 138.116H144.807C145.815 138.116 146.638 138.938 146.638 139.947C146.638 140.955 145.815 141.777 144.807 141.777Z" fill="#EBEBF2"/>
<path d="M145.273 235.178C205.907 235.178 255.061 230.537 255.061 224.811C255.061 219.085 205.907 214.443 145.273 214.443C84.6383 214.443 35.4844 219.085 35.4844 224.811C35.4844 230.537 84.6383 235.178 145.273 235.178Z" fill="#46108B"/>
<path d="M177.083 225.361H113.455L124.395 193.808H166.144L177.083 225.361Z" fill="url(#paint0_linear_520_3889)"/>
<path d="M43.3203 97.8267H247.224V198.799C247.224 204.841 242.319 209.739 236.285 209.739H54.2598C48.2181 209.739 43.3203 204.834 43.3203 198.799V97.8267Z" fill="url(#paint1_linear_520_3889)"/>
<path d="M54.2598 66.4595H236.278C242.319 66.4595 247.217 71.3644 247.217 77.399V183.848H43.3203V77.399C43.3203 71.3572 48.2252 66.4595 54.2598 66.4595Z" fill="#3D3D89"/>
<path d="M239.373 77.5063H51.5137V172.58H239.373V77.5063Z" fill="url(#paint2_linear_520_3889)"/>
<path style="mix-blend-mode:multiply" d="M145.272 201.387C148.55 201.387 151.207 198.73 151.207 195.453C151.207 192.175 148.55 189.518 145.272 189.518C141.995 189.518 139.338 192.175 139.338 195.453C139.338 198.73 141.995 201.387 145.272 201.387Z" fill="url(#paint3_linear_520_3889)"/>
<path d="M193.663 225.361H96.8809C96.8809 222.115 99.5121 219.477 102.765 219.477H187.786C191.032 219.477 193.671 222.108 193.671 225.361H193.663Z" fill="url(#paint4_linear_520_3889)"/>
<path d="M236.857 248.377C261.426 248.377 281.344 245.528 281.344 242.013C281.344 238.499 261.426 235.65 236.857 235.65C212.287 235.65 192.369 238.499 192.369 242.013C192.369 245.528 212.287 248.377 236.857 248.377Z" fill="#46108B"/>
<path d="M259.115 141.333H214.599C211.088 141.333 208.242 144.179 208.242 147.69V233.197C208.242 236.707 211.088 239.553 214.599 239.553H259.115C262.625 239.553 265.471 236.707 265.471 233.197V147.69C265.471 144.179 262.625 141.333 259.115 141.333Z" fill="#4B4BA0"/>
<path d="M265.471 148.169H208.242V232.31H265.471V148.169Z" fill="url(#paint5_linear_520_3889)"/>
<path d="M251.107 169.833H222.614C219.104 169.833 216.258 172.679 216.258 176.19V204.683C216.258 208.193 219.104 211.039 222.614 211.039H251.107C254.618 211.039 257.463 208.193 257.463 204.683V176.19C257.463 172.679 254.618 169.833 251.107 169.833Z" fill="url(#paint6_linear_520_3889)"/>
<g filter="url(#filter0_d_520_3889)">
<path d="M236.857 206.213C228.162 206.213 221.084 199.134 221.084 190.44C221.084 181.746 228.162 174.667 236.857 174.667C245.551 174.667 252.63 181.746 252.63 190.44C252.63 199.134 245.551 206.213 236.857 206.213ZM236.857 177.577C229.764 177.577 224.001 183.347 224.001 190.44C224.001 197.533 229.771 203.296 236.857 203.296C243.943 203.296 249.713 197.526 249.713 190.44C249.713 183.354 243.943 177.577 236.857 177.577Z" fill="white"/>
<path d="M235.72 196.439L230.207 191.584L232.516 188.96L235.391 191.491L240.882 185.22L243.513 187.515L235.72 196.439Z" fill="white"/>
</g>
<path d="M244.029 151.508H229.686C227.476 151.508 225.682 149.713 225.682 147.504H248.033C248.033 149.713 246.238 151.508 244.029 151.508Z" fill="#4B4BA0"/>
<path opacity="0.15" d="M242.034 148.169H231.681C231.309 148.169 231.016 147.869 231.016 147.504C231.016 147.133 231.316 146.839 231.681 146.839H242.034C242.398 146.839 242.699 147.14 242.699 147.504C242.699 147.876 242.398 148.169 242.034 148.169Z" fill="white"/>
<path d="M194.837 56.5137H82.3173C78.8068 56.5137 75.9609 59.3595 75.9609 62.87V130.902C75.9609 134.413 78.8068 137.259 82.3173 137.259H194.837C198.348 137.259 201.193 134.413 201.193 130.902V62.87C201.193 59.3595 198.348 56.5137 194.837 56.5137Z" fill="url(#paint7_linear_520_3889)"/>
<path d="M194.836 62.8701H82.3164V130.902H194.836V62.8701Z" fill="#3D3D89"/>
<path d="M106.019 71.958H94.3145V73.5382H106.019V71.958Z" fill="#FFC700"/>
<path d="M133.675 71.958H109.723V73.5382H133.675V71.958Z" fill="#FFC700"/>
<path d="M110.988 78.3643H99.2832V79.9444H110.988V78.3643Z" fill="white"/>
<path d="M183.131 78.3643H114.691V79.9444H183.131V78.3643Z" fill="#1E9AFF"/>
<path d="M110.988 84.313H99.2832V85.8931H110.988V84.313Z" fill="white"/>
<path d="M183.131 84.313H114.691V85.8931H183.131V84.313Z" fill="#1E9AFF"/>
<path d="M110.988 90.2617H99.2832V91.8419H110.988V90.2617Z" fill="white"/>
<path d="M183.131 90.2617H114.691V91.8419H183.131V90.2617Z" fill="#1E9AFF"/>
<path d="M110.988 96.2036H99.2832V97.7838H110.988V96.2036Z" fill="white"/>
<path d="M106.019 102.496H94.3145V104.076H106.019V102.496Z" fill="#FFC700"/>
<path d="M133.675 102.496H109.723V104.076H133.675V102.496Z" fill="#FFC700"/>
<path d="M158.821 108.902H114.691V110.482H158.821V108.902Z" fill="white"/>
<path d="M158.821 114.851H114.691V116.431H158.821V114.851Z" fill="white"/>
<path d="M110.982 114.851H107.1V116.431H110.982V114.851Z" fill="#1E9AFF"/>
<path d="M110.988 120.8H99.2832V122.38H110.988V120.8Z" fill="#1E9AFF"/>
<path d="M158.821 120.8H114.691V122.38H158.821V120.8Z" fill="white"/>
<path d="M183.633 108.902H162.004V110.482H183.633V108.902Z" fill="white"/>
<path d="M183.633 114.851H162.004V116.431H183.633V114.851Z" fill="white"/>
<path d="M183.633 120.8H162.004V122.38H183.633V120.8Z" fill="white"/>
<path d="M183.131 96.2036H114.691V97.7838H183.131V96.2036Z" fill="#1E9AFF"/>
<path d="M55.5399 88.2886H19.2821C15.7716 88.2886 12.9258 91.1344 12.9258 94.6449V130.903C12.9258 134.413 15.7716 137.259 19.2821 137.259H55.5399C59.0504 137.259 61.8962 134.413 61.8962 130.903V94.6449C61.8962 91.1344 59.0504 88.2886 55.5399 88.2886Z" fill="url(#paint8_linear_520_3889)"/>
<g filter="url(#filter1_d_520_3889)">
<path d="M48.6971 112.748C48.6971 111.976 48.6184 111.218 48.4683 110.489L52.2506 108.301L48.7042 102.166L44.929 104.347C43.785 103.325 42.4337 102.531 40.9465 102.038V97.6904H33.8608V102.038C33.1959 102.259 32.5667 102.531 31.9661 102.867C31.8946 102.903 31.8231 102.946 31.7516 102.989C31.6801 103.031 31.6086 103.067 31.5371 103.11C30.9508 103.468 30.3931 103.875 29.8711 104.34L26.103 102.166L22.5566 108.301L26.3247 110.475C26.1817 111.154 26.103 111.847 26.0887 112.534C26.0887 112.62 26.0887 112.698 26.0887 112.784C26.0887 112.863 26.0887 112.941 26.0887 113.027C26.103 113.714 26.1817 114.4 26.3247 115.086L22.5566 117.26L26.103 123.395L29.8711 121.221C31.0437 122.265 32.4022 123.037 33.8608 123.516V127.871H40.9465V123.502C41.6543 123.266 42.3479 122.951 43.02 122.565C43.7064 122.165 44.3356 121.707 44.9076 121.2L48.7042 123.388L52.2506 117.253L48.454 115.065C48.6113 114.314 48.6899 113.542 48.6899 112.748H48.6971ZM42.0547 117.746C42.0547 117.746 41.9904 117.803 41.9618 117.832C41.8402 117.939 41.7115 118.047 41.5828 118.147C41.5256 118.197 41.4613 118.24 41.3969 118.282C41.2897 118.361 41.1824 118.433 41.0752 118.504C40.9894 118.561 40.8964 118.611 40.8106 118.669C40.7177 118.719 40.6319 118.769 40.5389 118.819C40.4245 118.876 40.303 118.933 40.1886 118.99C40.1171 119.019 40.0456 119.055 39.9812 119.083C39.8311 119.148 39.6738 119.205 39.5165 119.255C39.4736 119.269 39.4378 119.283 39.3949 119.291C38.7657 119.484 38.1079 119.584 37.4144 119.584C33.6463 119.584 30.5861 116.531 30.5861 112.756C30.5861 111.833 30.772 110.954 31.1009 110.153C31.1152 110.117 31.1295 110.081 31.151 110.038C31.2153 109.895 31.2797 109.76 31.3512 109.624C31.3941 109.538 31.4441 109.452 31.4942 109.366C31.5442 109.281 31.5943 109.202 31.6443 109.116C31.7301 108.987 31.8088 108.859 31.9017 108.737C31.9232 108.701 31.9518 108.673 31.9732 108.637C32.5023 107.951 33.1744 107.35 33.9681 106.885C37.2356 104.998 41.4041 106.12 43.2917 109.381C43.6349 109.974 43.878 110.603 44.0281 111.24C44.0353 111.283 44.0424 111.318 44.0567 111.361C44.0925 111.526 44.1211 111.683 44.1425 111.847C44.1497 111.926 44.164 111.998 44.1711 112.076C44.1854 112.205 44.1926 112.334 44.1997 112.47C44.1997 112.57 44.1997 112.677 44.1997 112.777C44.1997 112.884 44.1997 112.984 44.1997 113.092C44.1997 113.22 44.1854 113.349 44.1711 113.478C44.164 113.556 44.1568 113.628 44.1425 113.706C44.1211 113.871 44.0925 114.028 44.0567 114.193C44.0496 114.236 44.0424 114.271 44.0281 114.314C43.878 114.951 43.6349 115.58 43.2917 116.173C42.9485 116.767 42.5266 117.296 42.0476 117.739L42.0547 117.746Z" fill="white"/>
</g>
<path d="M112.089 148.413H63.1259C59.6154 148.413 56.7695 151.258 56.7695 154.769V184.67C56.7695 188.181 59.6154 191.027 63.1259 191.027H112.089C115.6 191.027 118.446 188.181 118.446 184.67V154.769C118.446 151.258 115.6 148.413 112.089 148.413Z" fill="url(#paint9_linear_520_3889)"/>
<g filter="url(#filter2_d_520_3889)">
<path d="M78.6924 159.667L67.0879 169.72L78.6924 179.766V174.317L73.3728 169.72L78.6924 165.115V159.667Z" fill="white"/>
<path d="M96.5312 179.766L108.143 169.72L96.5312 159.667V165.115L101.851 169.72L96.5312 174.317V179.766Z" fill="white"/>
<path d="M86.4934 183.047H81.5742L88.7385 156.392H93.6506L86.4934 183.047Z" fill="white"/>
</g>
<path d="M277.018 31.2451H221.698C218.188 31.2451 215.342 34.091 215.342 37.6015V92.9211C215.342 96.4317 218.188 99.2775 221.698 99.2775H277.018C280.528 99.2775 283.374 96.4317 283.374 92.9211V37.6015C283.374 34.091 280.528 31.2451 277.018 31.2451Z" fill="url(#paint10_linear_520_3889)"/>
<g filter="url(#filter3_d_520_3889)">
<path d="M266.214 52.7169C264.813 52.7169 263.483 53.0315 262.296 53.5892C260.666 47.769 255.332 43.5005 248.99 43.5005C242.648 43.5005 237.486 47.6332 235.763 53.3103C234.747 52.9242 233.653 52.7169 232.509 52.7169C227.419 52.7169 223.293 56.8424 223.293 61.9332H275.431C275.431 56.8424 271.305 52.7169 266.214 52.7169Z" fill="white"/>
<path d="M239.773 77.4417L249.362 87.0299L258.95 77.4417H252.486V66.1304H246.23V77.4417H239.773Z" fill="white"/>
</g>
<path d="M55.5399 28.1709H19.2821C15.7716 28.1709 12.9258 31.0167 12.9258 34.5273V70.785C12.9258 74.2955 15.7716 77.1413 19.2821 77.1413H55.5399C59.0504 77.1413 61.8962 74.2955 61.8962 70.785V34.5273C61.8962 31.0167 59.0504 28.1709 55.5399 28.1709Z" fill="url(#paint11_linear_520_3889)"/>
<path d="M56.1127 33.9551H18.7109V71.3568H56.1127V33.9551Z" fill="#3D3D89"/>
<path d="M28.4782 41.2339H25.0391V42.814H28.4782V41.2339Z" fill="white"/>
<path d="M47.8755 41.2339H30.2793V42.814H47.8755V41.2339Z" fill="#1E9AFF"/>
<path d="M30.3873 46.5469H25.0391V48.127H30.3873V46.5469Z" fill="white"/>
<path d="M49.7837 46.5469H32.1875V48.127H49.7837V46.5469Z" fill="#1E9AFF"/>
<path d="M28.4782 56.5352H25.0391V58.1153H28.4782V56.5352Z" fill="white"/>
<path d="M47.8755 56.5352H30.2793V58.1153H47.8755V56.5352Z" fill="#1E9AFF"/>
<path d="M30.3873 61.8403H25.0391V63.4205H30.3873V61.8403Z" fill="white"/>
<path d="M49.7837 61.8403H32.1875V63.4205H49.7837V61.8403Z" fill="#1E9AFF"/>
<path d="M27.2115 51.8589H21.8633V53.439H27.2115V51.8589Z" fill="white"/>
<path d="M52.9584 51.8589H29.0059V53.439H52.9584V51.8589Z" fill="#1E9AFF"/>
<g style="mix-blend-mode:multiply">
<path d="M160.946 147.076H146.604V161.419H160.946V147.076Z" fill="#A7C8FF"/>
</g>
<g style="mix-blend-mode:multiply">
<path d="M181.78 147.076H167.438V161.419H181.78V147.076Z" fill="#A7C8FF"/>
</g>
<g style="mix-blend-mode:multiply">
<path d="M202.624 147.076H188.281V161.419H202.624V147.076Z" fill="#A7C8FF"/>
</g>
<g style="mix-blend-mode:multiply">
<path d="M231.187 108.115H209.559V109.695H231.187V108.115Z" fill="#A7C8FF"/>
</g>
<g style="mix-blend-mode:multiply">
<path d="M231.187 114.057H209.559V115.637H231.187V114.057Z" fill="#A7C8FF"/>
</g>
<g style="mix-blend-mode:multiply">
<path d="M231.187 120.006H209.559V121.586H231.187V120.006Z" fill="#A7C8FF"/>
</g>
<defs>
<filter id="filter0_d_520_3889" x="215.721" y="171.986" width="42.2699" height="42.2709" filterUnits="userSpaceOnUse" color-interpolation-filters="sRGB">
<feFlood flood-opacity="0" result="BackgroundImageFix"/>
<feColorMatrix in="SourceAlpha" type="matrix" values="0 0 0 0 0 0 0 0 0 0 0 0 0 0 0 0 0 0 127 0" result="hardAlpha"/>
<feOffset dy="2.68125"/>
<feGaussianBlur stdDeviation="2.68125"/>
<feColorMatrix type="matrix" values="0 0 0 0 0.117647 0 0 0 0 0.521569 0 0 0 0 1 0 0 0 0.4 0"/>
<feBlend mode="normal" in2="BackgroundImageFix" result="effect1_dropShadow_520_3889"/>
<feBlend mode="normal" in="SourceGraphic" in2="effect1_dropShadow_520_3889" result="shape"/>
</filter>
<filter id="filter1_d_520_3889" x="17.1941" y="95.0092" width="40.4184" height="40.9052" filterUnits="userSpaceOnUse" color-interpolation-filters="sRGB">
<feFlood flood-opacity="0" result="BackgroundImageFix"/>
<feColorMatrix in="SourceAlpha" type="matrix" values="0 0 0 0 0 0 0 0 0 0 0 0 0 0 0 0 0 0 127 0" result="hardAlpha"/>
<feOffset dy="2.68125"/>
<feGaussianBlur stdDeviation="2.68125"/>
<feColorMatrix type="matrix" values="0 0 0 0 0.117647 0 0 0 0 0.521569 0 0 0 0 1 0 0 0 0.4 0"/>
<feBlend mode="normal" in2="BackgroundImageFix" result="effect1_dropShadow_520_3889"/>
<feBlend mode="normal" in="SourceGraphic" in2="effect1_dropShadow_520_3889" result="shape"/>
</filter>
<filter id="filter2_d_520_3889" x="61.7254" y="153.711" width="51.7797" height="37.3803" filterUnits="userSpaceOnUse" color-interpolation-filters="sRGB">
<feFlood flood-opacity="0" result="BackgroundImageFix"/>
<feColorMatrix in="SourceAlpha" type="matrix" values="0 0 0 0 0 0 0 0 0 0 0 0 0 0 0 0 0 0 127 0" result="hardAlpha"/>
<feOffset dy="2.68125"/>
<feGaussianBlur stdDeviation="2.68125"/>
<feColorMatrix type="matrix" values="0 0 0 0 0.117647 0 0 0 0 0.521569 0 0 0 0 1 0 0 0 0.4 0"/>
<feBlend mode="normal" in2="BackgroundImageFix" result="effect1_dropShadow_520_3889"/>
<feBlend mode="normal" in="SourceGraphic" in2="effect1_dropShadow_520_3889" result="shape"/>
</filter>
<filter id="filter3_d_520_3889" x="217.93" y="40.8192" width="62.8637" height="54.2543" filterUnits="userSpaceOnUse" color-interpolation-filters="sRGB">
<feFlood flood-opacity="0" result="BackgroundImageFix"/>
<feColorMatrix in="SourceAlpha" type="matrix" values="0 0 0 0 0 0 0 0 0 0 0 0 0 0 0 0 0 0 127 0" result="hardAlpha"/>
<feOffset dy="2.68125"/>
<feGaussianBlur stdDeviation="2.68125"/>
<feColorMatrix type="matrix" values="0 0 0 0 0.117647 0 0 0 0 0.521569 0 0 0 0 1 0 0 0 0.4 0"/>
<feBlend mode="normal" in2="BackgroundImageFix" result="effect1_dropShadow_520_3889"/>
<feBlend mode="normal" in="SourceGraphic" in2="effect1_dropShadow_520_3889" result="shape"/>
</filter>
<linearGradient id="paint0_linear_520_3889" x1="124.209" y1="193.994" x2="166.329" y2="236.115" gradientUnits="userSpaceOnUse">
<stop offset="0.23" stop-color="#A7C8FF"/>
<stop offset="0.45" stop-color="#AACAFF"/>
<stop offset="0.67" stop-color="#B6D2FF"/>
<stop offset="0.89" stop-color="#CAE0FF"/>
<stop offset="1" stop-color="#D8E9FF"/>
</linearGradient>
<linearGradient id="paint1_linear_520_3889" x1="67.9164" y1="73.2306" x2="222.621" y2="227.935" gradientUnits="userSpaceOnUse">
<stop stop-color="#D8E9FF"/>
<stop offset="1" stop-color="#A7C8FF"/>
</linearGradient>
<linearGradient id="paint2_linear_520_3889" x1="74.7155" y1="54.3117" x2="216.178" y2="195.775" gradientUnits="userSpaceOnUse">
<stop stop-color="#562BFF"/>
<stop offset="1" stop-color="#7DA5FF"/>
</linearGradient>
<linearGradient id="paint3_linear_520_3889" x1="141.075" y1="191.256" x2="149.469" y2="199.65" gradientUnits="userSpaceOnUse">
<stop stop-color="#A7C8FF"/>
<stop offset="1" stop-color="#D8E9FF"/>
</linearGradient>
<linearGradient id="paint4_linear_520_3889" x1="120.462" y1="199.335" x2="170.076" y2="248.949" gradientUnits="userSpaceOnUse">
<stop stop-color="#A7C8FF"/>
<stop offset="1" stop-color="#73ABFF"/>
</linearGradient>
<linearGradient id="paint5_linear_520_3889" x1="201.514" y1="154.904" x2="272.199" y2="225.589" gradientUnits="userSpaceOnUse">
<stop stop-color="#562BFF"/>
<stop offset="1" stop-color="#7DA5FF"/>
</linearGradient>
<linearGradient id="paint6_linear_520_3889" x1="236.846" y1="210.876" x2="236.846" y2="169.69" gradientUnits="userSpaceOnUse">
<stop stop-color="#6237C0"/>
<stop offset="1" stop-color="#9571CB"/>
</linearGradient>
<linearGradient id="paint7_linear_520_3889" x1="138.532" y1="136.94" x2="138.532" y2="56.2324" gradientUnits="userSpaceOnUse">
<stop stop-color="#6237C0"/>
<stop offset="1" stop-color="#9571CB"/>
</linearGradient>
<linearGradient id="paint8_linear_520_3889" x1="37.3933" y1="137.066" x2="37.3933" y2="88.118" gradientUnits="userSpaceOnUse">
<stop stop-color="#6237C0"/>
<stop offset="1" stop-color="#9571CB"/>
</linearGradient>
<linearGradient id="paint9_linear_520_3889" x1="87.5852" y1="190.858" x2="87.5852" y2="148.264" gradientUnits="userSpaceOnUse">
<stop stop-color="#6237C0"/>
<stop offset="1" stop-color="#9571CB"/>
</linearGradient>
<linearGradient id="paint10_linear_520_3889" x1="249.333" y1="99.0088" x2="249.333" y2="31.0081" gradientUnits="userSpaceOnUse">
<stop stop-color="#6237C0"/>
<stop offset="1" stop-color="#9571CB"/>
</linearGradient>
<linearGradient id="paint11_linear_520_3889" x1="37.3933" y1="76.9479" x2="37.3933" y2="28.0003" gradientUnits="userSpaceOnUse">
<stop stop-color="#6237C0"/>
<stop offset="1" stop-color="#9571CB"/>
</linearGradient>
</defs>
</svg>
