<svg width="192" height="215" viewBox="0 0 192 215" fill="none" xmlns="http://www.w3.org/2000/svg">
<g opacity="0.3">
<path d="M86.5131 44.4708L86.5687 88.2832L73.9695 88.2991L73.914 44.4868C73.8924 27.4289 60.2928 13.5706 43.6045 13.5918C26.9161 13.6129 13.3517 27.5096 13.3733 44.5635L13.4288 88.3759L0.821981 88.3918L0.766459 44.5795C0.735843 20.4204 19.943 0.742718 43.5843 0.712758C67.2255 0.682799 86.4825 20.3118 86.5131 44.4708ZM37.35 69.0112L37.3337 56.0967L49.9714 56.0807L49.9877 68.9952L37.35 69.0112Z" fill="#FF3392"/>
<path d="M185.087 44.3458L185.143 88.1582L172.544 88.1742L172.488 44.3618C172.467 27.3039 158.867 13.4457 142.175 13.4668C125.483 13.488 111.922 27.3846 111.944 44.4385L111.999 88.2509L99.4001 88.2668L99.3446 44.4545C99.3101 20.2954 118.517 0.617723 142.159 0.587763C165.8 0.557804 185.057 20.1868 185.087 44.3458ZM135.928 68.8862L135.912 55.9717L148.549 55.9557L148.566 68.8702L135.928 68.8862Z" fill="#00CCFF"/>
<path d="M86.6178 127.163L86.7288 214.788L76.8623 214.801L76.7678 140.248C69.6041 141.163 62.9686 145.248 57.828 151.973C51.9602 159.653 48.7356 169.866 48.7494 180.728L48.7926 214.836L38.926 214.849L38.8828 180.741C38.869 169.874 35.6186 159.67 29.7314 152.009C24.5737 145.296 17.9279 141.228 10.7619 140.331L10.8564 214.884L0.982137 214.897L0.871094 127.272L7.66592 127.263C18.6271 127.249 28.9362 132.802 36.692 142.894C39.5333 146.593 41.9088 150.745 43.7799 155.225C45.6396 150.744 48.0008 146.586 50.8366 142.876C58.5668 132.764 68.8579 127.186 79.8229 127.172L86.6178 127.163Z" fill="#7AC943"/>
<path d="M191.857 170.842C191.888 195.001 171.197 214.68 145.733 214.713L99.5524 214.771L99.4414 127.146L145.622 127.088C171.086 127.056 191.827 146.683 191.857 170.842ZM178.283 170.859C178.261 153.801 163.617 139.944 145.638 139.967L113.032 140.008L113.11 201.879L145.716 201.838C163.696 201.815 178.305 187.917 178.283 170.859Z" fill="#F1B320"/>
</g>
</svg>
