<svg width="210" height="57" viewBox="0 0 210 57" fill="none" xmlns="http://www.w3.org/2000/svg">
<path fill-rule="evenodd" clip-rule="evenodd" d="M24.2338 0.0371426C19.731 0.587082 15.4632 2.13358 11.8781 4.51428C9.79879 5.89505 6.54887 9.12873 5.22475 11.1344C2.55826 15.1728 1.14079 19.3677 0.719881 24.4656C0.0324568 32.7898 2.96107 40.9464 8.61841 46.4644C14.1046 51.8157 22.1405 54.5955 30.1239 53.904C36.6482 53.3386 41.7851 51.0929 46.8192 46.6044L48.6211 44.9979L44.2605 40.7521L39.8997 36.5063L38.3327 37.8842C34.8807 40.9199 31.2598 42.2183 26.8882 41.9883C23.8853 41.8302 21.2143 40.9571 18.8763 39.3693C17.6378 38.5283 15.5485 36.3201 14.7883 35.0489C13.0338 32.1146 12.2267 28.0291 12.7255 24.6079C13.8154 17.1319 19.1858 12.3174 26.8073 11.9834C31.4546 11.7797 34.7887 12.9326 38.4408 16.0064L40.0406 17.3528L44.2708 13.1116L48.5009 8.87016L47.0359 7.4779C43.3196 3.94607 38.722 1.53172 33.6193 0.432348C32.2587 0.139284 31.2342 0.0579426 28.377 0.0165112C26.4238 -0.011899 24.5594 -0.00276689 24.2338 0.0371426ZM25.1885 18.1126C22.2462 18.8587 19.6432 21.2504 18.7246 24.052C18.2708 25.4363 18.2708 28.3703 18.7246 29.7547C19.6581 32.6018 22.2888 34.9889 25.2659 35.6907C31.382 37.1323 37.0534 31.9297 36.2277 25.635C35.9097 23.2109 34.2469 20.5963 32.2027 19.3065C30.223 18.0573 27.341 17.5667 25.1885 18.1126Z" fill="white"/>
<circle cx="27.2773" cy="26.9883" r="9.13183" fill="#FF3D2E"/>
<path d="M70.5541 44.9946H72.9411V46.1166C72.9411 46.234 72.9044 46.333 72.8311 46.4136C72.7651 46.4943 72.6588 46.5346 72.5121 46.5346H70.5541V50.6816H68.8271V46.5346H61.8421C61.6954 46.5346 61.5671 46.4943 61.4571 46.4136C61.3544 46.3256 61.2884 46.2193 61.2591 46.0946L61.0611 45.0936L68.7281 34.9186H70.5541V44.9946ZM68.8271 38.4936C68.8271 38.303 68.8308 38.0976 68.8381 37.8776C68.8528 37.6576 68.8784 37.4303 68.9151 37.1956L63.1841 44.9946H68.8271V38.4936ZM88.7137 44.1036V50.6816H86.5907V34.9186H91.0457C92.0431 34.9186 92.9047 35.0213 93.6307 35.2266C94.3567 35.4246 94.9544 35.7143 95.4237 36.0956C95.9004 36.477 96.2524 36.939 96.4797 37.4816C96.7071 38.017 96.8207 38.6183 96.8207 39.2856C96.8207 39.843 96.7327 40.3636 96.5567 40.8476C96.3807 41.3316 96.1241 41.768 95.7867 42.1566C95.4567 42.538 95.0497 42.8643 94.5657 43.1356C94.0891 43.407 93.5464 43.6123 92.9377 43.7516C93.2017 43.9056 93.4364 44.1293 93.6417 44.4226L98.2397 50.6816H96.3477C95.9591 50.6816 95.6731 50.5313 95.4897 50.2306L91.3977 44.5986C91.2731 44.4226 91.1374 44.298 90.9907 44.2246C90.8441 44.144 90.6241 44.1036 90.3307 44.1036H88.7137ZM88.7137 42.5526H90.9467C91.5701 42.5526 92.1164 42.4793 92.5857 42.3326C93.0624 42.1786 93.4584 41.966 93.7737 41.6946C94.0964 41.416 94.3384 41.086 94.4997 40.7046C94.6611 40.3233 94.7417 39.9016 94.7417 39.4396C94.7417 38.501 94.4301 37.7933 93.8067 37.3166C93.1907 36.84 92.2704 36.6016 91.0457 36.6016H88.7137V42.5526ZM113.652 34.9186V36.6566H106.084V41.8926H112.211V43.5646H106.084V48.9436H113.652V50.6816H103.939V34.9186H113.652ZM118.306 34.9186H120.011C120.202 34.9186 120.356 34.9663 120.473 35.0616C120.59 35.157 120.678 35.278 120.737 35.4246L125.192 46.5456C125.295 46.795 125.386 47.0663 125.467 47.3596C125.555 47.653 125.639 47.9573 125.72 48.2726C125.786 47.9573 125.856 47.653 125.929 47.3596C126.01 47.0663 126.101 46.795 126.204 46.5456L130.637 35.4246C130.688 35.3 130.776 35.1863 130.901 35.0836C131.026 34.9736 131.18 34.9186 131.363 34.9186H133.079L126.655 50.6816H124.73L118.306 34.9186ZM141.025 50.6816H138.891V34.9186H141.025V50.6816ZM158.364 34.9186V36.6566H150.796V41.8926H156.923V43.5646H150.796V48.9436H158.364V50.6816H148.651V34.9186H158.364ZM163.085 34.9186H164.856C165.046 34.9186 165.204 34.9663 165.329 35.0616C165.453 35.157 165.538 35.278 165.582 35.4246L168.838 46.3806C168.896 46.5786 168.948 46.7913 168.992 47.0186C169.043 47.246 169.091 47.4843 169.135 47.7336C169.186 47.4843 169.237 47.246 169.289 47.0186C169.34 46.784 169.399 46.5713 169.465 46.3806L173.172 35.4246C173.216 35.3 173.3 35.1863 173.425 35.0836C173.557 34.9736 173.714 34.9186 173.898 34.9186H174.514C174.704 34.9186 174.858 34.9663 174.976 35.0616C175.1 35.157 175.188 35.278 175.24 35.4246L178.925 46.3806C179.057 46.762 179.174 47.1983 179.277 47.6896C179.321 47.4476 179.361 47.2166 179.398 46.9966C179.434 46.7766 179.482 46.5713 179.541 46.3806L182.808 35.4246C182.844 35.2926 182.925 35.1753 183.05 35.0726C183.182 34.97 183.339 34.9186 183.523 34.9186H185.184L180.267 50.6816H178.353L174.36 38.6586C174.279 38.4313 174.206 38.1673 174.14 37.8666C174.103 38.0133 174.066 38.1563 174.03 38.2956C174 38.4276 173.967 38.5486 173.931 38.6586L169.916 50.6816H168.002L163.085 34.9186ZM198.737 37.3826C198.671 37.4926 198.601 37.577 198.528 37.6356C198.454 37.687 198.359 37.7126 198.242 37.7126C198.117 37.7126 197.97 37.6503 197.802 37.5256C197.64 37.401 197.431 37.2653 197.175 37.1186C196.925 36.9646 196.621 36.8253 196.262 36.7006C195.91 36.576 195.481 36.5136 194.975 36.5136C194.498 36.5136 194.076 36.5796 193.71 36.7116C193.343 36.8363 193.035 37.0086 192.786 37.2286C192.544 37.4486 192.36 37.709 192.236 38.0096C192.111 38.303 192.049 38.622 192.049 38.9666C192.049 39.4066 192.155 39.7733 192.368 40.0666C192.588 40.3526 192.874 40.5983 193.226 40.8036C193.585 41.009 193.988 41.1886 194.436 41.3426C194.89 41.4893 195.352 41.6433 195.822 41.8046C196.298 41.966 196.76 42.1493 197.208 42.3546C197.662 42.5526 198.066 42.8056 198.418 43.1136C198.777 43.4216 199.063 43.7993 199.276 44.2466C199.496 44.694 199.606 45.244 199.606 45.8966C199.606 46.586 199.488 47.235 199.254 47.8436C199.019 48.445 198.674 48.9693 198.22 49.4166C197.772 49.864 197.219 50.216 196.559 50.4726C195.906 50.7293 195.162 50.8576 194.326 50.8576C193.306 50.8576 192.375 50.6743 191.532 50.3076C190.696 49.9336 189.981 49.4313 189.387 48.8006L190.003 47.7886C190.061 47.708 190.131 47.642 190.212 47.5906C190.3 47.532 190.395 47.5026 190.498 47.5026C190.652 47.5026 190.828 47.587 191.026 47.7556C191.224 47.917 191.469 48.0966 191.763 48.2946C192.063 48.4926 192.423 48.676 192.841 48.8446C193.266 49.006 193.783 49.0866 194.392 49.0866C194.898 49.0866 195.349 49.017 195.745 48.8776C196.141 48.7383 196.474 48.544 196.746 48.2946C197.024 48.038 197.237 47.7336 197.384 47.3816C197.53 47.0296 197.604 46.6373 197.604 46.2046C197.604 45.728 197.494 45.3393 197.274 45.0386C197.061 44.7306 196.779 44.474 196.427 44.2686C196.075 44.0633 195.671 43.891 195.217 43.7516C194.769 43.605 194.307 43.4583 193.831 43.3116C193.361 43.1576 192.899 42.9816 192.445 42.7836C191.997 42.5856 191.598 42.329 191.246 42.0136C190.894 41.6983 190.608 41.306 190.388 40.8366C190.175 40.36 190.069 39.7733 190.069 39.0766C190.069 38.5193 190.175 37.9803 190.388 37.4596C190.608 36.939 190.923 36.477 191.334 36.0736C191.744 35.6703 192.25 35.3476 192.852 35.1056C193.46 34.8636 194.157 34.7426 194.942 34.7426C195.822 34.7426 196.625 34.882 197.351 35.1606C198.077 35.4393 198.711 35.8426 199.254 36.3706L198.737 37.3826Z" fill="white"/>
<g clip-path="url(#clip0_350_5841)">
<path d="M71.5931 21.6985L63.5753 27.0547L66.4043 18.0788L58.6211 12.4135L68.3876 12.2223L71.5931 3.36426L74.8013 12.2223L84.5678 12.4135L76.7819 18.0788L79.6109 27.0547L71.5931 21.6985Z" fill="#FF3D2E"/>
</g>
<g clip-path="url(#clip1_350_5841)">
<path d="M102.857 21.6985L94.8389 27.0547L97.668 18.0788L89.8848 12.4135L99.6513 12.2223L102.857 3.36426L106.065 12.2223L115.831 12.4135L108.046 18.0788L110.875 27.0547L102.857 21.6985Z" fill="#FF3D2E"/>
</g>
<g clip-path="url(#clip2_350_5841)">
<path d="M134.118 21.6985L126.101 27.0547L128.93 18.0788L121.146 12.4135L130.913 12.2223L134.118 3.36426L137.327 12.2223L147.093 12.4135L139.307 18.0788L142.136 27.0547L134.118 21.6985Z" fill="#FF3D2E"/>
</g>
<g clip-path="url(#clip3_350_5841)">
<path d="M165.383 21.6985L157.365 27.0547L160.194 18.0788L152.411 12.4135L162.178 12.2223L165.383 3.36426L168.591 12.2223L178.358 12.4135L170.572 18.0788L173.401 27.0547L165.383 21.6985Z" fill="#FF3D2E"/>
</g>
<g clip-path="url(#clip4_350_5841)">
<path d="M196.647 21.6985L188.629 27.0547L191.458 18.0788L183.675 12.4135L193.441 12.2223L196.647 3.36426L199.855 12.2223L209.621 12.4135L201.836 18.0788L204.665 27.0547L196.647 21.6985Z" fill="#FF3D2E"/>
</g>
<defs>
<clipPath id="clip0_350_5841">
<rect width="25.9467" height="23.6904" fill="white" transform="translate(58.6211 3.36328)"/>
</clipPath>
<clipPath id="clip1_350_5841">
<rect width="25.9467" height="23.6904" fill="white" transform="translate(89.8848 3.36328)"/>
</clipPath>
<clipPath id="clip2_350_5841">
<rect width="25.9467" height="23.6904" fill="white" transform="translate(121.147 3.36328)"/>
</clipPath>
<clipPath id="clip3_350_5841">
<rect width="25.9467" height="23.6904" fill="white" transform="translate(152.411 3.36328)"/>
</clipPath>
<clipPath id="clip4_350_5841">
<rect width="25.9467" height="23.6904" fill="white" transform="translate(183.675 3.36328)"/>
</clipPath>
</defs>
</svg>
