<svg width="30" height="30" viewBox="0 0 30 30" fill="none" xmlns="http://www.w3.org/2000/svg">
<mask id="path-1-inside-1_2040_16821" fill="white">
<path d="M24.4271 18.5917V9.48978L16.8421 5.22339M12.5945 5.22339L5.00958 9.48978V18.5917M6.82997 21.4364L14.7183 25.8733L19.5727 23.1427L22.6067 21.4358M12.8979 11.7653L11.0775 12.8272V17.0747L12.8979 18.1366L14.7183 19.1985L16.5387 18.1366L18.3591 17.0747V12.8272L16.5387 11.7653L14.7183 10.7034L12.8979 11.7653ZM14.7183 10.7034V6.45579V10.7034ZM18.3591 16.7713L22.6067 19.1985L18.3591 16.7713ZM11.0775 16.7713L6.82997 19.1985L11.0775 16.7713Z"/>
</mask>
<path d="M24.4271 9.48978H26.3846V8.34491L25.3867 7.78365L24.4271 9.48978ZM5.00958 9.48978L4.04992 7.78365L3.05208 8.34491V9.48978H5.00958ZM14.7183 25.8733L13.7587 27.5794L14.7184 28.1192L15.678 27.5794L14.7183 25.8733ZM19.5727 23.1427L20.5324 24.8488L20.5325 24.8487L19.5727 23.1427ZM11.0775 12.8272L10.0912 11.1363L9.12004 11.7028V12.8272H11.0775ZM11.0775 17.0747H9.12004V18.1991L10.0912 18.7656L11.0775 17.0747ZM14.7183 19.1985L13.732 20.8894L14.7183 21.4647L15.7047 20.8894L14.7183 19.1985ZM18.3591 17.0747L19.3454 18.7656L20.3166 18.1991V17.0747H18.3591ZM18.3591 12.8272H20.3166V11.7028L19.3454 11.1363L18.3591 12.8272ZM26.3846 18.5917V9.48978H22.4696V18.5917H26.3846ZM25.3867 7.78365L17.8018 3.51726L15.8825 6.92952L23.4674 11.1959L25.3867 7.78365ZM11.6349 3.51726L4.04992 7.78365L5.96925 11.1959L13.5542 6.92952L11.6349 3.51726ZM3.05208 9.48978V18.5917H6.96709V9.48978H3.05208ZM5.87033 23.1425L13.7587 27.5794L15.678 24.1671L7.78961 19.7302L5.87033 23.1425ZM15.678 27.5794L20.5324 24.8488L18.613 21.4366L13.7586 24.1672L15.678 27.5794ZM20.5325 24.8487L23.5665 23.1418L21.6469 19.7297L18.6129 21.4367L20.5325 24.8487ZM11.9116 10.0744L10.0912 11.1363L12.0639 14.518L13.8843 13.4561L11.9116 10.0744ZM9.12004 12.8272V17.0747H13.0351V12.8272H9.12004ZM10.0912 18.7656L11.9116 19.8275L13.8843 16.4458L12.0639 15.3839L10.0912 18.7656ZM11.9116 19.8275L13.732 20.8894L15.7047 17.5077L13.8843 16.4458L11.9116 19.8275ZM15.7047 20.8894L17.525 19.8275L15.5524 16.4458L13.732 17.5077L15.7047 20.8894ZM17.525 19.8275L19.3454 18.7656L17.3728 15.3839L15.5524 16.4458L17.525 19.8275ZM20.3166 17.0747V12.8272H16.4016V17.0747H20.3166ZM19.3454 11.1363L17.525 10.0744L15.5524 13.4561L17.3728 14.518L19.3454 11.1363ZM17.525 10.0744L15.7047 9.01252L13.732 12.3942L15.5524 13.4561L17.525 10.0744ZM13.732 9.01252L11.9116 10.0744L13.8843 13.4561L15.7047 12.3942L13.732 9.01252ZM16.6758 10.7034V6.45579H12.7608V10.7034H16.6758ZM17.3879 18.4709L21.6355 20.8981L23.5779 17.4989L19.3303 15.0717L17.3879 18.4709ZM10.1064 15.0717L5.85878 17.4989L7.80117 20.8981L12.0487 18.4709L10.1064 15.0717Z" fill="url(#paint0_linear_2040_16821)" mask="url(#path-1-inside-1_2040_16821)"/>
<path d="M15.885 4.63548C15.885 5.28031 15.3623 5.80304 14.7175 5.80304C14.0727 5.80304 13.5499 5.28031 13.5499 4.63548C13.5499 3.99066 14.0727 3.46793 14.7175 3.46793C15.3623 3.46793 15.885 3.99066 15.885 4.63548Z" stroke="url(#paint1_linear_2040_16821)" stroke-width="1.305"/>
<path d="M6.17645 20.4123C6.17645 21.0572 5.65372 21.5799 5.0089 21.5799C4.36408 21.5799 3.84134 21.0572 3.84134 20.4123C3.84134 19.7675 4.36408 19.2448 5.0089 19.2448C5.65372 19.2448 6.17645 19.7675 6.17645 20.4123Z" stroke="url(#paint2_linear_2040_16821)" stroke-width="1.305"/>
<path d="M25.5946 20.4123C25.5946 21.0572 25.0719 21.5799 24.4271 21.5799C23.7823 21.5799 23.2595 21.0572 23.2595 20.4123C23.2595 19.7675 23.7823 19.2448 24.4271 19.2448C25.0719 19.2448 25.5946 19.7675 25.5946 20.4123Z" stroke="url(#paint3_linear_2040_16821)" stroke-width="1.305"/>
<defs>
<linearGradient id="paint0_linear_2040_16821" x1="12.9842" y1="5.91731" x2="20.8143" y2="21.2511" gradientUnits="userSpaceOnUse">
<stop stop-color="#8372F2"/>
<stop offset="1" stop-color="#ED6FCB"/>
</linearGradient>
<linearGradient id="paint1_linear_2040_16821" x1="14.3924" y1="2.93775" x2="15.7221" y2="5.70708" gradientUnits="userSpaceOnUse">
<stop stop-color="#8372F2"/>
<stop offset="1" stop-color="#ED6FCB"/>
</linearGradient>
<linearGradient id="paint2_linear_2040_16821" x1="4.68382" y1="18.7146" x2="6.01354" y2="21.4839" gradientUnits="userSpaceOnUse">
<stop stop-color="#8372F2"/>
<stop offset="1" stop-color="#ED6FCB"/>
</linearGradient>
<linearGradient id="paint3_linear_2040_16821" x1="24.102" y1="18.7146" x2="25.4317" y2="21.4839" gradientUnits="userSpaceOnUse">
<stop stop-color="#8372F2"/>
<stop offset="1" stop-color="#ED6FCB"/>
</linearGradient>
</defs>
</svg>
