<svg width="27" height="26" viewBox="0 0 27 26" fill="none" xmlns="http://www.w3.org/2000/svg">
<path fill-rule="evenodd" clip-rule="evenodd" d="M7.86708 4.40278C7.86708 4.1743 7.95784 3.95518 8.1194 3.79363C8.28096 3.63207 8.50008 3.54131 8.72855 3.54131H19.0662C19.2947 3.54131 19.5138 3.63207 19.6754 3.79363C19.8369 3.95518 19.9277 4.1743 19.9277 4.40278V21.6322C19.9277 21.8607 19.8369 22.0798 19.6754 22.2414C19.5138 22.403 19.2947 22.4937 19.0662 22.4937H8.72855C8.50008 22.4937 8.28096 22.403 8.1194 22.2414C7.95784 22.0798 7.86708 21.8607 7.86708 21.6322V4.40278ZM8.72855 1.81836C8.04312 1.81836 7.38577 2.09065 6.90109 2.57532C6.41642 3.05999 6.14413 3.71735 6.14413 4.40278V21.6322C6.14413 22.3177 6.41642 22.975 6.90109 23.4597C7.38577 23.9444 8.04312 24.2167 8.72855 24.2167H19.0662C19.7517 24.2167 20.409 23.9444 20.8937 23.4597C21.3784 22.975 21.6507 22.3177 21.6507 21.6322V4.40278C21.6507 3.71735 21.3784 3.05999 20.8937 2.57532C20.409 2.09065 19.7517 1.81836 19.0662 1.81836H8.72855ZM11.313 20.1677C11.153 20.1677 10.9997 20.2313 10.8866 20.3444C10.7735 20.4575 10.7099 20.6108 10.7099 20.7708C10.7099 20.9307 10.7735 21.0841 10.8866 21.1972C10.9997 21.3103 11.153 21.3738 11.313 21.3738H16.4818C16.6417 21.3738 16.7951 21.3103 16.9082 21.1972C17.0213 21.0841 17.0848 20.9307 17.0848 20.7708C17.0848 20.6108 17.0213 20.4575 16.9082 20.3444C16.7951 20.2313 16.6417 20.1677 16.4818 20.1677H11.313Z" fill="url(#paint0_linear_2040_16780)"/>
<defs>
<linearGradient id="paint0_linear_2040_16780" x1="12.6802" y1="7.71658" x2="24.8152" y2="10.5204" gradientUnits="userSpaceOnUse">
<stop stop-color="#8372F2"/>
<stop offset="1" stop-color="#ED6FCB"/>
</linearGradient>
</defs>
</svg>
