<svg width="27" height="26" viewBox="0 0 27 26" fill="none" xmlns="http://www.w3.org/2000/svg">
<path d="M3.36092 6.03849C4.86282 6.03849 6.08036 4.82095 6.08036 3.31905C6.08036 1.81714 4.86282 0.599609 3.36092 0.599609C1.85901 0.599609 0.641479 1.81714 0.641479 3.31905C0.641479 4.82095 1.85901 6.03849 3.36092 6.03849Z" fill="url(#paint0_linear_2040_16796)"/>
<path d="M23.3038 6.03849C24.8057 6.03849 26.0232 4.82095 26.0232 3.31905C26.0232 1.81714 24.8057 0.599609 23.3038 0.599609C21.8019 0.599609 20.5844 1.81714 20.5844 3.31905C20.5844 4.82095 21.8019 6.03849 23.3038 6.03849Z" fill="url(#paint1_linear_2040_16796)"/>
<path d="M3.36086 25.9814C4.86276 25.9814 6.0803 24.7638 6.0803 23.2619C6.0803 21.76 4.86276 20.5425 3.36086 20.5425C1.85895 20.5425 0.641418 21.76 0.641418 23.2619C0.641418 24.7638 1.85895 25.9814 3.36086 25.9814Z" fill="url(#paint2_linear_2040_16796)"/>
<path d="M23.3038 25.9814C24.8057 25.9814 26.0232 24.7638 26.0232 23.2619C26.0232 21.76 24.8057 20.5425 23.3038 20.5425C21.8019 20.5425 20.5844 21.76 20.5844 23.2619C20.5844 24.7638 21.8019 25.9814 23.3038 25.9814Z" fill="url(#paint3_linear_2040_16796)"/>
<path d="M19.8062 4.2258C19.7305 3.93434 19.6775 3.63413 19.6775 3.31932C19.6775 3.00451 19.7305 2.70431 19.8062 2.41284H6.85803C6.93378 2.70431 6.98678 3.00451 6.98678 3.31932C6.98678 3.63413 6.93378 3.93434 6.85803 4.2258H19.8062Z" fill="url(#paint4_linear_2040_16796)"/>
<path d="M2.45468 6.81616V19.7643C2.74614 19.6885 3.04629 19.6356 3.36116 19.6356C3.67603 19.6356 3.97618 19.6885 4.26764 19.7643V6.82501C3.978 6.90109 3.6752 6.94485 3.36116 6.94485C3.04629 6.94485 2.74614 6.89191 2.45468 6.81616Z" fill="url(#paint5_linear_2040_16796)"/>
<path d="M6.85803 22.3547C6.93378 22.6462 6.98678 22.9464 6.98678 23.2612C6.98678 23.576 6.93378 23.8762 6.85803 24.1677H19.8062C19.7305 23.8762 19.6775 23.576 19.6775 23.2612C19.6775 22.9464 19.7305 22.6462 19.8062 22.3547H6.85803Z" fill="url(#paint6_linear_2040_16796)"/>
<path d="M22.3976 6.82501V19.7643C22.6891 19.6885 22.9892 19.6356 23.3041 19.6356C23.619 19.6356 23.9191 19.6885 24.2106 19.7643V6.81616C23.9191 6.89191 23.619 6.94485 23.3041 6.94485C22.9901 6.94485 22.6873 6.90109 22.3976 6.82501Z" fill="url(#paint7_linear_2040_16796)"/>
<path d="M21.4904 20.1398V6.44945C20.9501 6.13066 20.4987 5.67531 20.1818 5.13184H6.48245C6.16554 5.67531 5.71418 6.13066 5.1738 6.44945V20.1398C5.71683 20.4565 6.16576 20.9054 6.48245 21.4485H20.1818C20.4985 20.9054 20.9474 20.4565 21.4904 20.1398ZM10.6127 19.6355H7.89324V11.4772C7.89324 10.9766 8.29912 10.5707 8.79972 10.5707H10.6127V19.6355ZM15.1451 19.6355H11.5192V7.85128C11.5192 7.35068 11.925 6.9448 12.4256 6.9448H14.2386C14.7396 6.9448 15.1451 7.35068 15.1451 7.85128V19.6355ZM18.771 19.6355H16.0516V10.5707H17.8645C18.3656 10.5707 18.771 10.9766 18.771 11.4772V19.6355Z" fill="url(#paint8_linear_2040_16796)"/>
<defs>
<linearGradient id="paint0_linear_2040_16796" x1="2.93398" y1="2.03185" x2="6.9682" y2="3.37825" gradientUnits="userSpaceOnUse">
<stop stop-color="#8372F2"/>
<stop offset="1" stop-color="#ED6FCB"/>
</linearGradient>
<linearGradient id="paint1_linear_2040_16796" x1="22.8768" y1="2.03185" x2="26.9111" y2="3.37825" gradientUnits="userSpaceOnUse">
<stop stop-color="#8372F2"/>
<stop offset="1" stop-color="#ED6FCB"/>
</linearGradient>
<linearGradient id="paint2_linear_2040_16796" x1="2.93392" y1="21.9747" x2="6.96814" y2="23.3211" gradientUnits="userSpaceOnUse">
<stop stop-color="#8372F2"/>
<stop offset="1" stop-color="#ED6FCB"/>
</linearGradient>
<linearGradient id="paint3_linear_2040_16796" x1="22.8768" y1="21.9747" x2="26.9111" y2="23.3211" gradientUnits="userSpaceOnUse">
<stop stop-color="#8372F2"/>
<stop offset="1" stop-color="#ED6FCB"/>
</linearGradient>
<linearGradient id="paint4_linear_2040_16796" x1="12.3157" y1="2.89025" x2="13.9132" y2="6.69809" gradientUnits="userSpaceOnUse">
<stop stop-color="#8372F2"/>
<stop offset="1" stop-color="#ED6FCB"/>
</linearGradient>
<linearGradient id="paint5_linear_2040_16796" x1="3.21885" y1="10.2258" x2="4.71012" y2="10.2955" gradientUnits="userSpaceOnUse">
<stop stop-color="#8372F2"/>
<stop offset="1" stop-color="#ED6FCB"/>
</linearGradient>
<linearGradient id="paint6_linear_2040_16796" x1="12.3157" y1="22.8321" x2="13.9132" y2="26.64" gradientUnits="userSpaceOnUse">
<stop stop-color="#8372F2"/>
<stop offset="1" stop-color="#ED6FCB"/>
</linearGradient>
<linearGradient id="paint7_linear_2040_16796" x1="23.1618" y1="10.2258" x2="24.6531" y2="10.2955" gradientUnits="userSpaceOnUse">
<stop stop-color="#8372F2"/>
<stop offset="1" stop-color="#ED6FCB"/>
</linearGradient>
<linearGradient id="paint8_linear_2040_16796" x1="12.0513" y1="9.42855" x2="24.154" y2="13.4678" gradientUnits="userSpaceOnUse">
<stop stop-color="#8372F2"/>
<stop offset="1" stop-color="#ED6FCB"/>
</linearGradient>
</defs>
</svg>
