<svg width="29" height="30" viewBox="0 0 29 30" fill="none" xmlns="http://www.w3.org/2000/svg">
<path d="M6.89622 6.90397C8.50547 5.27483 10.6234 4.45214 12.7466 4.43912C14.8681 4.42608 16.9942 5.22199 18.622 6.82994C20.2512 8.43917 21.0739 10.5571 21.0869 12.6803C21.0999 14.8018 20.304 16.9279 18.6961 18.5558C17.0868 20.1849 14.9689 21.0076 12.8457 21.0206C10.7242 21.0337 8.59806 20.2377 6.97025 18.6298C5.34111 17.0205 4.51842 14.9027 4.50538 12.7794C4.49236 10.6579 5.28829 8.53179 6.89622 6.90397ZM12.7515 5.70058C10.9541 5.71161 9.16034 6.4088 7.79654 7.78944C6.43149 9.17139 5.7558 10.9753 5.76683 12.7745C5.77788 14.572 6.47508 16.3657 7.85572 17.7295C9.23767 19.0945 11.0415 19.7702 12.8407 19.7592C14.6382 19.7482 16.4319 19.051 17.7957 17.6703C19.1608 16.2883 19.8365 14.4845 19.8255 12.6852C19.8144 10.8878 19.1172 9.09405 17.7366 7.73027C16.3546 6.36522 14.5508 5.68952 12.7515 5.70058Z" fill="url(#paint0_linear_2040_16897)"/>
<path d="M18.6702 17.6447C18.4161 17.4057 18.0163 17.4179 17.7773 17.672C17.5382 17.926 17.5504 18.3258 17.8045 18.5648L27.0758 27.2824C27.3298 27.5214 27.7296 27.5092 27.9687 27.2552C28.2077 27.0011 28.1955 26.6013 27.9415 26.3623L18.6702 17.6447Z" fill="url(#paint1_linear_2040_16897)"/>
<path d="M24.9761 2.12842C25.6753 2.12842 26.3084 2.41187 26.7666 2.87016C27.2249 3.32844 27.5084 3.96153 27.5084 4.66072C27.5084 5.35991 27.2249 5.99299 26.7666 6.45128C26.3084 6.90954 25.6753 7.19302 24.9761 7.19302C24.2769 7.19302 23.6438 6.90954 23.1855 6.45128C22.7273 5.993 22.4438 5.35991 22.4438 4.66072C22.4438 3.96153 22.7273 3.32844 23.1855 2.87016C23.6438 2.41187 24.2769 2.12842 24.9761 2.12842ZM25.8714 3.76537C25.6424 3.53629 25.3258 3.39459 24.9761 3.39459C24.6264 3.39459 24.3098 3.53629 24.0807 3.76537C23.8517 3.99445 23.71 4.31104 23.71 4.66072C23.71 5.01039 23.8517 5.32699 24.0807 5.55607C24.3098 5.78513 24.6264 5.92684 24.9761 5.92684C25.3258 5.92684 25.6424 5.78513 25.8714 5.55607C26.1005 5.32698 26.2422 5.01039 26.2422 4.66072C26.2422 4.31104 26.1005 3.99445 25.8714 3.76537Z" fill="url(#paint2_linear_2040_16897)"/>
<path d="M13.5768 24.2891C14.276 24.2891 14.909 24.5725 15.3673 25.0308C15.8256 25.4891 16.1091 26.1222 16.1091 26.8214C16.1091 27.5206 15.8256 28.1536 15.3673 28.6119C14.909 29.0702 14.276 29.3537 13.5768 29.3537C12.8776 29.3537 12.2445 29.0702 11.7862 28.6119C11.3279 28.1536 11.0445 27.5206 11.0445 26.8214C11.0445 26.1222 11.3279 25.4891 11.7862 25.0308C12.2445 24.5725 12.8776 24.2891 13.5768 24.2891ZM14.4721 25.926C14.243 25.697 13.9264 25.5552 13.5768 25.5552C13.2271 25.5552 12.9105 25.697 12.6814 25.926C12.4523 26.1551 12.3106 26.4717 12.3106 26.8214C12.3106 27.171 12.4523 27.4876 12.6814 27.7167C12.9105 27.9458 13.2271 28.0875 13.5768 28.0875C13.9264 28.0875 14.243 27.9458 14.4721 27.7167C14.7012 27.4876 14.8429 27.171 14.8429 26.8214C14.8429 26.4717 14.7012 26.1551 14.4721 25.926Z" fill="url(#paint3_linear_2040_16897)"/>
<path d="M2.81349 19.8567C3.51268 19.8567 4.14576 20.1402 4.60405 20.5984C5.06231 21.0567 5.34579 21.6898 5.34579 22.389C5.34579 23.0882 5.06231 23.7213 4.60405 24.1796C4.14577 24.6378 3.51268 24.9213 2.81349 24.9213C2.1143 24.9213 1.48121 24.6378 1.02293 24.1796C0.564644 23.7213 0.281189 23.0882 0.281189 22.389C0.281189 21.6898 0.564645 21.0567 1.02293 20.5984C1.48121 20.1402 2.1143 19.8567 2.81349 19.8567ZM3.70884 21.4936C3.47975 21.2646 3.16316 21.1229 2.81349 21.1229C2.46381 21.1229 2.14722 21.2646 1.91814 21.4936C1.68906 21.7227 1.54736 22.0393 1.54736 22.389C1.54736 22.7387 1.68906 23.0553 1.91814 23.2843C2.14722 23.5134 2.46381 23.6551 2.81349 23.6551C3.16317 23.6551 3.47976 23.5134 3.70884 23.2843C3.9379 23.0553 4.07961 22.7387 4.07961 22.389C4.07961 22.0393 3.9379 21.7227 3.70884 21.4936Z" fill="url(#paint4_linear_2040_16897)"/>
<path d="M4.0807 0.228516C4.77989 0.228516 5.41298 0.511972 5.87126 0.970254C6.32952 1.42854 6.613 2.06163 6.613 2.76082C6.613 3.46001 6.32952 4.09309 5.87126 4.55138C5.41298 5.00964 4.77989 5.29312 4.0807 5.29312C3.38151 5.29312 2.74843 5.00963 2.29014 4.55138C1.83186 4.09309 1.5484 3.46001 1.5484 2.76082C1.5484 2.06163 1.83186 1.42854 2.29014 0.970254C2.74842 0.511971 3.38151 0.228516 4.0807 0.228516ZM4.97605 1.86547C4.74697 1.63638 4.43038 1.49469 4.0807 1.49469C3.73102 1.49469 3.41443 1.63638 3.18535 1.86547C2.95627 2.09455 2.81457 2.41114 2.81457 2.76082C2.81457 3.11049 2.95627 3.42708 3.18535 3.65616C3.41443 3.88522 3.73102 4.02694 4.0807 4.02694C4.43038 4.02694 4.74697 3.88522 4.97605 3.65616C5.20511 3.42708 5.34683 3.11049 5.34683 2.76082C5.34683 2.41114 5.20511 2.09455 4.97605 1.86547Z" fill="url(#paint5_linear_2040_16897)"/>
<path d="M18.2925 11.9795V13.171C18.2925 13.3458 18.1507 13.4876 17.9759 13.4876H17.6348C17.189 13.4876 16.8135 13.8036 16.6428 14.2155C16.4718 14.6282 16.5135 15.1179 16.8293 15.4338L17.07 15.6745C17.1936 15.7981 17.1936 15.9986 17.07 16.1222L16.2275 16.9646C16.1039 17.0883 15.9035 17.0883 15.7798 16.9646L15.5387 16.7236C15.223 16.4078 14.7335 16.3665 14.321 16.5374C13.9091 16.7082 13.5929 17.0837 13.5929 17.5296V17.8705C13.5929 18.0454 13.4512 18.1871 13.2763 18.1871H12.0849C11.91 18.1871 11.7683 18.0454 11.7683 17.8705V17.5295C11.7683 17.0836 11.4522 16.7082 11.0403 16.5375C10.6277 16.3665 10.1379 16.4081 9.82209 16.7239L9.58137 16.9646C9.45775 17.0883 9.25731 17.0883 9.13368 16.9646L8.29122 16.1222C8.16759 15.9986 8.16759 15.7981 8.29122 15.6745L8.53283 15.4329C8.84841 15.1173 8.8893 14.628 8.71844 14.2157C8.5477 13.8037 8.1722 13.4876 7.72624 13.4876H7.38533C7.21047 13.4876 7.06873 13.3458 7.06873 13.171V11.9795C7.06873 11.8047 7.21047 11.6629 7.38533 11.6629H7.7264C8.17225 11.6629 8.54769 11.3469 8.71836 10.935C8.88939 10.5224 8.84774 10.0326 8.53191 9.71673L8.2912 9.47603C8.16757 9.3524 8.16757 9.15196 8.2912 9.02834L9.13369 8.18585C9.25731 8.06223 9.45775 8.06223 9.58138 8.18585L9.82247 8.42695C10.1382 8.74266 10.6277 8.784 11.0402 8.61307C11.4521 8.44232 11.7683 8.06682 11.7683 7.62087V7.27998C11.7683 7.10513 11.91 6.96338 12.0849 6.96338H13.2763C13.4512 6.96338 13.5929 7.10513 13.5929 7.27998V7.62105C13.5929 8.06689 13.909 8.44232 14.3209 8.613C14.7335 8.78403 15.2233 8.74238 15.5392 8.42654L15.7798 8.18585C15.9035 8.06223 16.1039 8.06223 16.2275 8.18585L17.07 9.02834C17.1936 9.15197 17.1936 9.3524 17.07 9.47603L16.8284 9.71767C16.5128 10.0333 16.4719 10.5225 16.6428 10.9348C16.8135 11.3468 17.189 11.6629 17.635 11.6629H17.9759C18.1507 11.6629 18.2925 11.8047 18.2925 11.9795ZM17.3802 12.8544C17.5343 12.8544 17.6593 12.7294 17.6593 12.5753C17.6593 12.4211 17.5343 12.2961 17.3802 12.2961H16.6076C16.451 12.2961 16.318 12.1813 16.2947 12.0265C16.25 11.7293 16.1699 11.4446 16.0591 11.1772C15.9439 10.8992 15.7975 10.6407 15.6248 10.4067C15.5324 10.2815 15.5445 10.1062 15.6545 9.99616L16.2011 9.44958C16.3101 9.34056 16.3101 9.1638 16.2011 9.05478C16.0921 8.94576 15.9153 8.94576 15.8063 9.05478L15.2597 9.60136C15.1493 9.71174 14.9747 9.72495 14.8491 9.63228C14.6125 9.45773 14.354 9.31089 14.0785 9.1967C13.8111 9.0859 13.5266 9.00588 13.2293 8.96117C13.0745 8.93789 12.9597 8.80483 12.9597 8.64828V7.8757C12.9597 7.72155 12.8348 7.59658 12.6806 7.59658C12.5265 7.59658 12.4015 7.72155 12.4015 7.8757V8.64828C12.4015 8.80483 12.2867 8.93789 12.1319 8.96117C11.8346 9.0059 11.55 9.08595 11.2826 9.19677C11.0064 9.31121 10.7484 9.45759 10.5133 9.63104C10.3878 9.72371 10.2119 9.71171 10.1015 9.60136L9.55492 9.05478C9.4459 8.94576 9.26914 8.94576 9.16012 9.05478C9.0511 9.1638 9.0511 9.34056 9.16012 9.44958L9.70671 9.99616C9.81707 10.1065 9.83029 10.2811 9.73763 10.4067C9.56307 10.6433 9.41626 10.9019 9.30207 11.1774C9.19127 11.4447 9.11125 11.7293 9.06652 12.0265C9.04322 12.1813 8.91017 12.2961 8.75363 12.2961H7.98104C7.82689 12.2961 7.70193 12.4211 7.70193 12.5752C7.70193 12.7294 7.82689 12.8544 7.98104 12.8544H8.75363C8.91017 12.8544 9.04322 12.9692 9.06652 13.124C9.11125 13.4212 9.19131 13.7059 9.30214 13.9733C9.41735 14.2513 9.56373 14.5098 9.73641 14.7438C9.8288 14.869 9.81677 15.0443 9.70673 15.1544L9.16014 15.701C9.05112 15.81 9.05112 15.9867 9.16014 16.0957C9.26915 16.2047 9.4459 16.2047 9.55491 16.0957L10.1015 15.5491C10.2119 15.4388 10.3865 15.4256 10.5121 15.5182C10.7487 15.6928 11.0072 15.8396 11.2828 15.9538C11.5501 16.0646 11.8346 16.1446 12.1319 16.1893C12.2867 16.2126 12.4015 16.3457 12.4015 16.5022V17.2748C12.4015 17.429 12.5265 17.5539 12.6806 17.5539C12.8348 17.5539 12.9597 17.429 12.9597 17.2748V16.5022C12.9597 16.3457 13.0745 16.2126 13.2293 16.1893C13.5266 16.1446 13.8112 16.0646 14.0786 15.9537C14.3548 15.8393 14.6129 15.6929 14.8479 15.5195C14.9735 15.4268 15.1494 15.4388 15.2597 15.5491L15.8063 16.0957C15.9153 16.2047 16.0921 16.2048 16.2011 16.0957C16.3101 15.9867 16.3101 15.81 16.2011 15.7009L15.6545 15.1544C15.5441 15.044 15.5309 14.8694 15.6236 14.7438C15.7981 14.5072 15.945 14.2487 16.0591 13.9731C16.1699 13.7058 16.25 13.4212 16.2947 13.124C16.318 12.9692 16.451 12.8544 16.6076 12.8544L17.3802 12.8544Z" fill="url(#paint6_linear_2040_16897)"/>
<path d="M12.6796 9.87549C13.425 9.87549 14.0999 10.1776 14.5884 10.6662C15.0769 11.1547 15.3791 11.8296 15.3791 12.575C15.3791 13.3204 15.0769 13.9952 14.5884 14.4838C14.0999 14.9723 13.425 15.2745 12.6796 15.2745C11.9342 15.2745 11.2593 14.9723 10.7708 14.4838C10.2823 13.9953 9.98013 13.3204 9.98013 12.575C9.98013 11.8296 10.2823 11.1547 10.7708 10.6662C11.2593 10.1776 11.9342 9.87549 12.6796 9.87549ZM14.1407 11.1139C13.7668 10.74 13.2502 10.5087 12.6796 10.5087C12.109 10.5087 11.5924 10.74 11.2185 11.1139C10.8446 11.4878 10.6133 12.0044 10.6133 12.575C10.6133 13.1456 10.8446 13.6622 11.2185 14.0361C11.5924 14.41 12.109 14.6413 12.6796 14.6413C13.2502 14.6413 13.7668 14.41 14.1407 14.0361C14.5146 13.6622 14.7459 13.1456 14.7459 12.575C14.7459 12.0044 14.5146 11.4878 14.1407 11.1139Z" fill="url(#paint7_linear_2040_16897)"/>
<path d="M23.3869 5.70476C23.4744 5.85582 23.4227 6.0492 23.2715 6.13648L19.4555 8.33967C19.3046 8.42678 19.1117 8.37522 19.0243 8.22446C18.9369 8.0734 18.9885 7.88002 19.1397 7.79274L22.9558 5.58955C23.1066 5.50244 23.2996 5.554 23.3869 5.70476Z" fill="url(#paint8_linear_2040_16897)"/>
<path d="M7.24601 17.9577C7.37501 18.0751 7.38445 18.2748 7.2671 18.4039L4.74286 21.1801C4.62542 21.3092 4.4255 21.3187 4.29639 21.2012C4.16737 21.0838 4.15792 20.884 4.27528 20.7549L6.79955 17.9788C6.91699 17.8496 7.11691 17.8402 7.24601 17.9577Z" fill="url(#paint9_linear_2040_16897)"/>
<path d="M12.9442 20.491C13.1169 20.4664 13.2768 20.5865 13.3015 20.7592L13.8452 24.565C13.8698 24.7379 13.7497 24.8979 13.5769 24.9225C13.4042 24.9471 13.2443 24.8271 13.2196 24.6544L12.6759 20.8485C12.6512 20.6757 12.7713 20.5156 12.9442 20.491Z" fill="url(#paint10_linear_2040_16897)"/>
<path d="M5.17757 4.31132C5.30653 4.19464 5.50564 4.20453 5.62241 4.33341L7.67769 6.60189C7.79457 6.7309 7.78468 6.93025 7.65559 7.04704C7.52663 7.16372 7.32752 7.15383 7.21075 7.02495L5.15546 4.75647C5.03858 4.62746 5.04848 4.42811 5.17757 4.31132Z" fill="url(#paint11_linear_2040_16897)"/>
<defs>
<linearGradient id="paint0_linear_2040_16897" x1="11.4945" y1="8.80551" x2="23.7939" y2="12.9104" gradientUnits="userSpaceOnUse">
<stop stop-color="#8372F2"/>
<stop offset="1" stop-color="#ED6FCB"/>
</linearGradient>
<linearGradient id="paint1_linear_2040_16897" x1="22.046" y1="20.1014" x2="29.7716" y2="22.8229" gradientUnits="userSpaceOnUse">
<stop stop-color="#8372F2"/>
<stop offset="1" stop-color="#ED6FCB"/>
</linearGradient>
<linearGradient id="paint2_linear_2040_16897" x1="24.5785" y1="3.4621" x2="28.3351" y2="4.71585" gradientUnits="userSpaceOnUse">
<stop stop-color="#8372F2"/>
<stop offset="1" stop-color="#ED6FCB"/>
</linearGradient>
<linearGradient id="paint3_linear_2040_16897" x1="13.1792" y1="25.6227" x2="16.9358" y2="26.8765" gradientUnits="userSpaceOnUse">
<stop stop-color="#8372F2"/>
<stop offset="1" stop-color="#ED6FCB"/>
</linearGradient>
<linearGradient id="paint4_linear_2040_16897" x1="2.41593" y1="21.1904" x2="6.17253" y2="22.4441" gradientUnits="userSpaceOnUse">
<stop stop-color="#8372F2"/>
<stop offset="1" stop-color="#ED6FCB"/>
</linearGradient>
<linearGradient id="paint5_linear_2040_16897" x1="3.68314" y1="1.56219" x2="7.43975" y2="2.81595" gradientUnits="userSpaceOnUse">
<stop stop-color="#8372F2"/>
<stop offset="1" stop-color="#ED6FCB"/>
</linearGradient>
<linearGradient id="paint6_linear_2040_16897" x1="11.7996" y1="9.91896" x2="20.1247" y2="12.6974" gradientUnits="userSpaceOnUse">
<stop stop-color="#8372F2"/>
<stop offset="1" stop-color="#ED6FCB"/>
</linearGradient>
<linearGradient id="paint7_linear_2040_16897" x1="12.2558" y1="11.2972" x2="16.2604" y2="12.6337" gradientUnits="userSpaceOnUse">
<stop stop-color="#8372F2"/>
<stop offset="1" stop-color="#ED6FCB"/>
</linearGradient>
<linearGradient id="paint8_linear_2040_16897" x1="20.8383" y1="6.23912" x2="23.9009" y2="7.79944" gradientUnits="userSpaceOnUse">
<stop stop-color="#8372F2"/>
<stop offset="1" stop-color="#ED6FCB"/>
</linearGradient>
<linearGradient id="paint9_linear_2040_16897" x1="5.50297" y1="18.7111" x2="8.07149" y2="19.5093" gradientUnits="userSpaceOnUse">
<stop stop-color="#8372F2"/>
<stop offset="1" stop-color="#ED6FCB"/>
</linearGradient>
<linearGradient id="paint10_linear_2040_16897" x1="13.1617" y1="21.6369" x2="14.1904" y2="21.7325" gradientUnits="userSpaceOnUse">
<stop stop-color="#8372F2"/>
<stop offset="1" stop-color="#ED6FCB"/>
</linearGradient>
<linearGradient id="paint11_linear_2040_16897" x1="6.18535" y1="4.93175" x2="8.39907" y2="5.62083" gradientUnits="userSpaceOnUse">
<stop stop-color="#8372F2"/>
<stop offset="1" stop-color="#ED6FCB"/>
</linearGradient>
</defs>
</svg>
