<svg width="33" height="34" viewBox="0 0 33 34" fill="none" xmlns="http://www.w3.org/2000/svg">
<g clip-path="url(#clip0_2040_16841)">
<path d="M3.00703 27.7061C2.25937 27.7061 1.6191 27.4397 1.08623 26.9068C0.55335 26.3739 0.287365 25.7341 0.288271 24.9874H5.72578C4.97813 24.9874 4.33786 24.7209 3.80498 24.188C3.27211 23.6552 3.00612 23.0153 3.00703 22.2686V7.31544C3.00703 6.56778 3.27347 5.92751 3.80634 5.39464C4.33922 4.86176 4.97903 4.59578 5.72578 4.59668H27.4758C28.2235 4.59668 28.8638 4.86312 29.3966 5.396C29.9295 5.92887 30.1955 6.56869 30.1946 7.31544V22.2686C30.1946 23.0163 29.9282 23.6565 29.3953 24.1894C28.8624 24.7223 28.2226 24.9883 27.4758 24.9874H32.9133C32.9133 25.735 32.6469 26.3753 32.114 26.9082C31.5812 27.441 30.9413 27.707 30.1946 27.7061H3.00703ZM16.6008 26.3467C16.986 26.3467 17.309 26.2162 17.57 25.9552C17.831 25.6942 17.9611 25.3716 17.9602 24.9874C17.9602 24.6022 17.8297 24.2791 17.5687 24.0181C17.3077 23.7571 16.9851 23.6271 16.6008 23.628C16.2157 23.628 15.8926 23.7585 15.6316 24.0195C15.3706 24.2805 15.2405 24.6031 15.2414 24.9874C15.2414 25.3725 15.3719 25.6956 15.6329 25.9566C15.8939 26.2176 16.2166 26.3476 16.6008 26.3467ZM5.72578 22.2686H27.4758V7.31544H5.72578V22.2686Z" fill="url(#paint0_linear_2040_16841)"/>
</g>
<defs>
<linearGradient id="paint0_linear_2040_16841" x1="14.0398" y1="10.6822" x2="36.0485" y2="21.052" gradientUnits="userSpaceOnUse">
<stop stop-color="#8372F2"/>
<stop offset="1" stop-color="#ED6FCB"/>
</linearGradient>
<clipPath id="clip0_2040_16841">
<rect width="32.6251" height="32.6251" fill="white" transform="translate(0.288177 0.518555)"/>
</clipPath>
</defs>
</svg>
