<svg width="36" height="36" viewBox="0 0 36 36" fill="none" xmlns="http://www.w3.org/2000/svg">
<g clip-path="url(#clip0_585_3670)">
<path d="M0.725856 22.2366H19.0223C19.2958 22.2366 19.5195 22.0129 19.5195 21.7395V6.91831C19.5195 6.09452 18.8518 5.42676 18.028 5.42676H1.72028C0.896493 5.42676 0.228728 6.09452 0.228728 6.91831V21.7394C0.228671 22.0129 0.452433 22.2366 0.725856 22.2366ZM4.41271 12.2493C4.41271 11.9085 4.68896 11.6322 5.02983 11.6322H9.91091V9.893C9.91091 9.3432 10.5758 9.06788 10.9645 9.45679L15.1705 13.6648C15.4114 13.9058 15.4114 14.2965 15.1705 14.5374L10.9645 18.7447C10.5757 19.1336 9.91091 18.8583 9.91091 18.3085V16.5689H5.02977C4.68896 16.5689 4.41265 16.2926 4.41265 15.9518L4.41271 12.2493ZM6.55291 26.229H0.497185C0.223704 26.229 0 26.0053 0 25.7318V24.2204C0 23.9469 0.223704 23.7232 0.497185 23.7232H7.92517C7.19925 24.3546 6.6971 25.2347 6.55291 26.229ZM34.8428 23.7232H33.6347V16.9664C33.6347 16.176 33.396 15.4003 32.9535 14.744L29.9257 10.2594C29.1848 9.16558 27.9518 8.50931 26.6293 8.50931H21.9359C21.384 8.50931 20.9415 8.95677 20.9415 9.50368V23.7232H13.255C13.9859 24.3546 14.488 25.2347 14.6322 26.2291H22.7363C23.0247 24.2552 24.7251 22.7289 26.7785 22.7289C28.8319 22.7289 30.5272 24.2553 30.8156 26.2291H34.8428C35.1163 26.2291 35.34 26.0053 35.34 25.7318V24.2204C35.34 23.947 35.1163 23.7232 34.8428 23.7232ZM29.8908 15.6389H23.6959C23.4225 15.6389 23.1987 15.4201 23.1987 15.1417V11.7062C23.1987 11.4328 23.4225 11.209 23.6959 11.209H27.4696C27.6337 11.209 27.7828 11.2885 27.8773 11.4178L30.2986 14.8584C30.5272 15.1865 30.2935 15.6389 29.8908 15.6389ZM10.5901 23.7232C8.88478 23.7232 7.49757 25.1103 7.49757 26.8207C7.49757 28.526 8.88472 29.9132 10.5901 29.9132C12.3004 29.9132 13.6826 28.5261 13.6826 26.8207C13.6825 25.1104 12.3004 23.7232 10.5901 23.7232ZM10.5901 28.367C9.7349 28.367 9.04386 27.6709 9.04386 26.8207C9.04386 25.9655 9.73496 25.2745 10.5901 25.2745C11.4453 25.2745 12.1363 25.9655 12.1363 26.8207C12.1363 27.6709 11.4452 28.367 10.5901 28.367ZM26.7784 23.7232C25.0681 23.7232 23.6859 25.1103 23.6859 26.8207C23.6859 28.526 25.0681 29.9132 26.7784 29.9132C28.4838 29.9132 29.8709 28.5261 29.8709 26.8207C29.871 25.1104 28.4839 23.7232 26.7784 23.7232ZM26.7784 28.367C25.9232 28.367 25.2322 27.6709 25.2322 26.8207C25.2322 25.9655 25.9233 25.2745 26.7784 25.2745C27.6336 25.2745 28.3247 25.9655 28.3247 26.8207C28.3247 27.6709 27.6336 28.367 26.7784 28.367Z" fill="white"/>
</g>
<defs>
<clipPath id="clip0_585_3670">
<rect width="35.34" height="35.34" fill="white"/>
</clipPath>
</defs>
</svg>
