<svg width="36" height="36" viewBox="0 0 36 36" fill="none" xmlns="http://www.w3.org/2000/svg">
<g clip-path="url(#clip0_585_3613)">
<path fill-rule="evenodd" clip-rule="evenodd" d="M5.17835 0.758301C1.98051 3.95614 0 8.37816 0 13.2599C0 18.1418 1.98051 22.5637 5.17835 25.7616L7.26196 23.678C4.59413 21.0102 2.94667 17.3288 2.94667 13.2599C2.94667 9.19104 4.59413 5.50973 7.26196 2.84191L5.17835 0.758301ZM9.34557 4.92552C7.21422 7.05688 5.89333 10.0056 5.89333 13.2599C5.89333 16.5144 7.21422 19.4631 9.34557 21.5944L11.4292 19.5108C9.82784 17.9095 8.84 15.7015 8.84 13.2599C8.84 10.8184 9.82784 8.61046 11.4292 7.00913L9.34557 4.92552ZM17.68 7.36665C14.4252 7.36665 11.7867 10.0052 11.7867 13.26C11.7867 16.0061 13.6648 18.3134 16.2067 18.9676V33.8867H19.1533V18.9676C21.6951 18.3134 23.5733 16.0061 23.5733 13.26C23.5733 10.0052 20.9347 7.36665 17.68 7.36665ZM14.7333 13.26C14.7333 11.6326 16.0526 10.3133 17.68 10.3133C19.3074 10.3133 20.6267 11.6326 20.6267 13.26C20.6267 14.8873 19.3074 16.2067 17.68 16.2067C16.0526 16.2067 14.7333 14.8873 14.7333 13.26ZM26.0143 4.92552C28.1457 7.05688 29.4667 10.0056 29.4667 13.2599C29.4667 16.5144 28.1457 19.4631 26.0143 21.5944L23.9308 19.5108C25.5321 17.9095 26.52 15.7015 26.52 13.2599C26.52 10.8184 25.5321 8.61046 23.9308 7.00913L26.0143 4.92552ZM30.1815 0.758301C33.3794 3.95614 35.3599 8.37816 35.3599 13.2599C35.3599 18.1418 33.3794 22.5637 30.1815 25.7616L28.0979 23.678C30.7657 21.0102 32.4132 17.3288 32.4132 13.2599C32.4132 9.19104 30.7657 5.50973 28.0979 2.84191L30.1815 0.758301Z" fill="white"/>
</g>
<defs>
<clipPath id="clip0_585_3613">
<rect width="35.36" height="35.36" fill="white"/>
</clipPath>
</defs>
</svg>
