<svg width="34" height="31" viewBox="0 0 34 31" fill="none" xmlns="http://www.w3.org/2000/svg">
<path d="M33.3465 10.2403C33.3108 10.1646 33.2675 10.0927 33.2173 10.0258C33.1792 9.84032 33.1283 9.65773 33.0648 9.47934C33.0571 9.45867 33.0493 9.438 33.039 9.41733L29.4825 1.2346C29.3819 1.00412 29.2162 0.808004 29.0058 0.670316C28.7953 0.532628 28.5493 0.459351 28.2978 0.459473H5.04405C4.79258 0.459351 4.54653 0.532628 4.3361 0.670316C4.12567 0.808004 3.96 1.00412 3.85941 1.2346L0.280911 9.47805C-0.0597827 10.3427 -0.0597827 11.3044 0.280911 12.169C0.610058 12.9215 1.08689 13.6002 1.68316 14.1649C2.27943 14.7297 2.983 15.169 3.75218 15.4568V28.8807C3.75218 29.2233 3.88829 29.5519 4.13056 29.7942C4.37283 30.0365 4.70143 30.1726 5.04405 30.1726H28.2978C28.6404 30.1726 28.969 30.0365 29.2113 29.7942C29.4536 29.5519 29.5897 29.2233 29.5897 28.8807V15.4568C30.3587 15.1694 31.0621 14.7305 31.6584 14.1662C32.2546 13.6018 32.7316 12.9236 33.061 12.1716C33.1674 11.8998 33.2382 11.6154 33.2715 11.3254C33.3577 11.1593 33.4088 10.9773 33.4217 10.7906C33.4346 10.604 33.409 10.4166 33.3465 10.2403ZM12.7953 27.5888V19.8376H15.3791V27.5888H12.7953ZM17.9628 27.5888V19.8376H20.5466V27.5888H17.9628ZM27.0059 27.5888H23.1303V18.5457C23.1303 18.2031 22.9942 17.8745 22.7519 17.6322C22.5097 17.39 22.1811 17.2538 21.8384 17.2538H11.5034C11.1608 17.2538 10.8322 17.39 10.5899 17.6322C10.3477 17.8745 10.2116 18.2031 10.2116 18.5457V27.5888H6.33593V15.962C7.31467 15.9742 8.28426 15.7725 9.17687 15.3708C10.0695 14.9691 10.8635 14.3773 11.5034 13.6366C12.1506 14.3687 12.946 14.9549 13.8369 15.3564C14.7278 15.7579 15.6938 15.9656 16.6709 15.9656C17.6481 15.9656 18.6141 15.7579 19.505 15.3564C20.3958 14.9549 21.1912 14.3687 21.8384 13.6366C22.4783 14.3773 23.2724 14.9691 24.165 15.3708C25.0576 15.7725 26.0272 15.9742 27.0059 15.962V27.5888ZM30.671 11.182C30.3405 11.8654 29.8176 12.4374 29.1665 12.8275C28.5153 13.2177 27.7644 13.4091 27.0059 13.3782C26.0657 13.4547 25.1329 13.1592 24.4082 12.5553C23.6835 11.9513 23.2247 11.0872 23.1303 10.1485C23.1303 9.80591 22.9942 9.47731 22.7519 9.23504C22.5097 8.99277 22.1811 8.85666 21.8384 8.85666C21.4958 8.85666 21.1672 8.99277 20.9249 9.23504C20.6827 9.47731 20.5466 9.80591 20.5466 10.1485C20.4522 11.0872 19.9934 11.9513 19.2687 12.5553C18.5439 13.1592 17.6112 13.4547 16.6709 13.3782C15.7307 13.4547 14.7979 13.1592 14.0732 12.5553C13.3485 11.9513 12.8897 11.0872 12.7953 10.1485C12.7953 9.80591 12.6592 9.47731 12.4169 9.23504C12.1747 8.99277 11.8461 8.85666 11.5034 8.85666C11.1608 8.85666 10.8322 8.99277 10.5899 9.23504C10.3477 9.47731 10.2116 9.80591 10.2116 10.1485C10.1172 11.0872 9.65836 11.9513 8.93365 12.5553C8.20893 13.1592 7.2762 13.4547 6.33593 13.3782C5.57729 13.4092 4.82613 13.2178 4.17477 12.8277C3.52342 12.4375 3.00026 11.8655 2.66959 11.182C2.58301 10.9438 2.58301 10.6826 2.66959 10.4444L5.89152 3.04322H27.4503L30.6503 10.4069C30.7503 10.6544 30.7576 10.9296 30.671 11.182Z" fill="white"/>
</svg>
