<svg width="33" height="31" viewBox="0 0 33 31" fill="none" xmlns="http://www.w3.org/2000/svg">
<path d="M16.5001 10.2221C18.1911 10.2221 19.5668 8.84654 19.5668 7.15558C19.5668 5.46453 18.1911 4.08887 16.5001 4.08887C14.8092 4.08887 13.4336 5.46453 13.4336 7.15558C13.4336 8.84654 14.8092 10.2221 16.5001 10.2221Z" fill="white"/>
<path d="M16.0818 17.6125C16.2166 17.7064 16.3587 17.7517 16.5123 17.7517C17.0439 17.7517 17.7138 17.2099 18.6905 16.259C19.4828 15.4878 20.2551 14.633 20.3919 14.4669C22.4284 11.9987 23.4656 8.85515 23.1666 6.05801V6.05791C23.1417 5.82522 23.1073 5.59123 23.0644 5.36203C22.7958 3.93661 21.9275 2.62615 20.6195 1.67228C19.4016 0.784167 17.8772 0.274902 16.4371 0.274902C16.4369 0.274902 16.4368 0.274902 16.4368 0.274902C14.4363 0.274902 12.6397 1.09145 11.3783 2.57418C10.0944 4.08321 9.54727 6.11448 9.87728 8.14703C10.4752 11.831 12.7368 15.281 16.0818 17.6125ZM16.5003 2.84735C18.8758 2.84735 20.8086 4.78002 20.8086 7.15573C20.8086 9.53125 18.8758 11.4639 16.5003 11.4639C14.1248 11.4639 12.1921 9.53125 12.1921 7.15573C12.1921 4.77992 14.1248 2.84735 16.5003 2.84735Z" fill="white"/>
<path d="M5.4576 19.2891C5.16062 19.5503 5.00509 19.7424 4.98826 19.7634C4.77552 20.0305 4.81967 20.4179 5.08556 20.6322C5.19989 20.7244 5.33712 20.7691 5.47388 20.7691C5.6548 20.7691 5.83452 20.6905 5.95739 20.5397C5.95841 20.5384 6.06565 20.4079 6.27774 20.2213C6.53518 19.9947 6.56029 19.6024 6.33376 19.345C6.10741 19.0878 5.71513 19.0623 5.4576 19.2891Z" fill="white"/>
<path d="M18.26 20.7025C17.9533 20.549 17.5804 20.6733 17.427 20.9801C17.2737 21.2868 17.398 21.6598 17.7047 21.8131C18.0689 21.9953 18.4093 22.1517 18.7453 22.2912C18.8231 22.3236 18.9037 22.3388 18.9831 22.3388C19.2265 22.3388 19.4574 22.1949 19.5567 21.956C19.6882 21.6394 19.5382 21.2761 19.2214 21.1446C18.9127 21.0161 18.598 20.8715 18.26 20.7025Z" fill="white"/>
<path d="M14.0794 18.3822C13.7712 18.2314 13.3994 18.359 13.2489 18.667C13.0981 18.9751 13.2257 19.3469 13.5337 19.4975C13.8129 19.634 14.1213 19.7975 14.4767 19.997C14.5729 20.0511 14.6771 20.0765 14.7801 20.0765C14.9972 20.0765 15.208 19.9625 15.322 19.7597C15.4899 19.4606 15.3836 19.0822 15.0847 18.9144C14.7085 18.7031 14.3796 18.5292 14.0794 18.3822Z" fill="white"/>
<path d="M10.2482 17.5288C9.8471 17.5391 9.44968 17.5763 9.06706 17.6391C8.72869 17.6947 8.49949 18.0141 8.55522 18.3524C8.60517 18.6567 8.8684 18.8727 9.16704 18.8727C9.20043 18.8727 9.23427 18.8699 9.2684 18.8643C9.59528 18.8106 9.93558 18.7789 10.2802 18.77C10.623 18.7611 10.8937 18.4762 10.8848 18.1334C10.8761 17.7906 10.5892 17.5253 10.2482 17.5288Z" fill="white"/>
<path d="M22.5518 23.1085C22.947 23.1064 23.3466 23.0752 23.7395 23.0155C24.0785 22.9639 24.3115 22.6473 24.2599 22.3084C24.2084 21.9693 23.8903 21.7367 23.5528 21.7878C23.2194 21.8386 22.8805 21.865 22.5454 21.8667C22.2024 21.8685 21.926 22.1478 21.9277 22.4907C21.9294 22.8325 22.2071 23.1084 22.5484 23.1084C22.5496 23.1085 22.5506 23.1085 22.5518 23.1085Z" fill="white"/>
<path d="M27.0591 21.7139C27.1696 21.7139 27.2817 21.6843 27.3829 21.6223C27.5464 21.5219 27.7123 21.4152 27.8757 21.3048C28.1598 21.113 28.2347 20.7272 28.0428 20.443C27.8511 20.1589 27.4651 20.0838 27.1809 20.2758C27.0324 20.376 26.882 20.4729 26.734 20.5637C26.4416 20.7429 26.35 21.1251 26.5291 21.4174C26.6463 21.6086 26.8502 21.7139 27.0591 21.7139Z" fill="white"/>
<path d="M32.2098 25.0158L29.0703 15.0955C28.7484 14.0783 27.8154 13.395 26.7486 13.395H22.598C22.255 13.395 21.9772 13.6729 21.9772 14.0159C21.9772 14.3587 22.255 14.6367 22.598 14.6367H26.3321L22.3399 18.3099C22.0876 18.5421 22.0713 18.9348 22.3034 19.1872C22.4259 19.3201 22.5929 19.3876 22.7605 19.3876C22.9107 19.3876 23.0614 19.3335 23.1808 19.2237L27.6704 15.0928C27.6737 15.0897 27.676 15.0861 27.6792 15.083C27.7694 15.1958 27.8409 15.3259 27.8867 15.4702L31.026 25.3905C31.1422 25.7574 31.0782 26.1458 30.8509 26.4561C30.6236 26.7663 30.2727 26.9444 29.888 26.9444H27.8042L25.4663 24.3518C25.2368 24.0972 24.8444 24.0769 24.5895 24.3066C24.3349 24.5361 24.3146 24.9288 24.5443 25.1833L26.1324 26.9443H8.07922L11.3564 22.3295C11.555 22.0499 11.4893 21.6624 11.2097 21.4639C10.9304 21.2656 10.5427 21.3311 10.3442 21.6106L6.55649 26.9443H3.11331C2.72868 26.9443 2.3777 26.7662 2.15043 26.456C1.92307 26.1457 1.85914 25.7573 1.97522 25.3905L5.11487 15.4701C5.27252 14.9716 5.72972 14.6367 6.25269 14.6367H10.4034C10.7464 14.6367 11.0243 14.3587 11.0243 14.0159C11.0243 13.6729 10.7464 13.395 10.4034 13.395H6.25269C5.18569 13.395 4.2527 14.0784 3.93097 15.0955L0.791408 25.0159C0.554756 25.7642 0.684993 26.5564 1.14882 27.1897C1.61247 27.8228 2.32858 28.1859 3.11331 28.1859H29.8878C30.6726 28.1859 31.3887 27.8228 31.8524 27.1897C32.3163 26.5564 32.4465 25.7642 32.2098 25.0158Z" fill="white"/>
<path d="M16.3435 29.4834H7.90599C7.5631 29.4834 7.28516 29.7613 7.28516 30.1042C7.28516 30.4471 7.5631 30.7251 7.90599 30.7251H16.3435C16.6865 30.7251 16.9643 30.4471 16.9643 30.1042C16.9643 29.7613 16.6865 29.4834 16.3435 29.4834Z" fill="white"/>
<path d="M20.3149 29.4834H18.949C18.606 29.4834 18.3281 29.7613 18.3281 30.1042C18.3281 30.4471 18.606 30.7251 18.949 30.7251H20.3149C20.6578 30.7251 20.9357 30.4471 20.9357 30.1042C20.9357 29.7613 20.6578 29.4834 20.3149 29.4834Z" fill="white"/>
<path d="M27.8894 29.4834H22.7986C22.4556 29.4834 22.1777 29.7613 22.1777 30.1042C22.1777 30.4471 22.4556 30.7251 22.7986 30.7251H27.8894C28.2323 30.7251 28.5102 30.4471 28.5102 30.1042C28.5102 29.7613 28.2323 29.4834 27.8894 29.4834Z" fill="white"/>
</svg>
