<svg width="36" height="36" viewBox="0 0 36 36" fill="none" xmlns="http://www.w3.org/2000/svg">
<g clip-path="url(#clip0_585_3679)">
<path d="M17.6703 20.9829C16.3947 20.984 15.1387 20.669 14.0146 20.066C12.8904 19.4631 11.9332 18.591 11.2285 17.5277L13.0684 16.3047C13.5722 17.064 14.2561 17.6869 15.059 18.1178C15.862 18.5487 16.7591 18.7742 17.6703 18.7742C18.5816 18.7742 19.4787 18.5487 20.2817 18.1178C21.0846 17.6869 21.7685 17.064 22.2723 16.3047L24.1122 17.5277C23.4074 18.591 22.4502 19.4631 21.3261 20.066C20.202 20.669 18.946 20.984 17.6703 20.9829Z" fill="white"/>
<path d="M22.0877 8.83507C21.6508 8.83507 21.2238 8.96461 20.8605 9.20731C20.4973 9.45001 20.2142 9.79497 20.047 10.1986C19.8799 10.6022 19.8361 11.0463 19.9213 11.4747C20.0066 11.9032 20.2169 12.2967 20.5258 12.6056C20.8347 12.9145 21.2283 13.1249 21.6568 13.2101C22.0852 13.2954 22.5293 13.2516 22.9329 13.0844C23.3365 12.9173 23.6815 12.6342 23.9242 12.2709C24.1669 11.9077 24.2964 11.4807 24.2964 11.0438C24.2993 10.753 24.2441 10.4645 24.1341 10.1952C24.0241 9.92592 23.8615 9.68129 23.6559 9.47561C23.4502 9.26994 23.2056 9.10735 22.9363 8.99737C22.667 8.88738 22.3785 8.8322 22.0877 8.83507Z" fill="white"/>
<path d="M13.2517 8.83507C12.8149 8.83507 12.3878 8.96461 12.0246 9.20731C11.6614 9.45001 11.3783 9.79497 11.2111 10.1986C11.0439 10.6022 11.0002 11.0463 11.0854 11.4747C11.1706 11.9032 11.381 12.2967 11.6899 12.6056C11.9988 12.9145 12.3924 13.1249 12.8208 13.2101C13.2493 13.2954 13.6934 13.2516 14.097 13.0844C14.5006 12.9173 14.8455 12.6342 15.0882 12.2709C15.3309 11.9077 15.4605 11.4807 15.4605 11.0438C15.4633 10.753 15.4082 10.4645 15.2982 10.1952C15.1882 9.92592 15.0256 9.68129 14.8199 9.47561C14.6142 9.26994 14.3696 9.10735 14.1003 8.99737C13.8311 8.88738 13.5426 8.8322 13.2517 8.83507Z" fill="white"/>
<path d="M19.5872 33.1315L17.6702 32.0271L22.0877 24.2965H28.714C29.0042 24.297 29.2916 24.2402 29.5598 24.1294C29.828 24.0185 30.0717 23.8559 30.2769 23.6507C30.4821 23.4455 30.6448 23.2018 30.7556 22.9336C30.8664 22.6654 30.9232 22.3779 30.9227 22.0877V6.62648C30.9232 6.33629 30.8664 6.04885 30.7556 5.78065C30.6448 5.51245 30.4821 5.26876 30.2769 5.06356C30.0717 4.85836 29.828 4.69568 29.5598 4.58486C29.2916 4.47403 29.0042 4.41724 28.714 4.41773H6.62648C6.33629 4.41724 6.04885 4.47403 5.78065 4.58486C5.51245 4.69568 5.26876 4.85836 5.06356 5.06356C4.85836 5.26876 4.69568 5.51245 4.58486 5.78065C4.47403 6.04885 4.41724 6.33629 4.41773 6.62648V22.0877C4.41724 22.3779 4.47403 22.6654 4.58486 22.9336C4.69568 23.2018 4.85836 23.4455 5.06356 23.6507C5.26876 23.8559 5.51245 24.0185 5.78065 24.1294C6.04885 24.2402 6.33629 24.297 6.62648 24.2965H16.5659V26.5052H6.62648C6.04634 26.5053 5.47186 26.3911 4.93586 26.1692C4.39986 25.9472 3.91284 25.6218 3.50261 25.2116C3.09239 24.8014 2.767 24.3144 2.54504 23.7784C2.32308 23.2424 2.20888 22.6679 2.20898 22.0877V6.62648C2.20881 6.04632 2.32295 5.47181 2.54489 4.93577C2.76683 4.39974 3.09221 3.91269 3.50245 3.50245C3.91269 3.09221 4.39974 2.76683 4.93577 2.54489C5.47181 2.32295 6.04632 2.20881 6.62648 2.20898H28.714C29.2941 2.20881 29.8687 2.32295 30.4047 2.54489C30.9407 2.76683 31.4278 3.09221 31.838 3.50245C32.2483 3.91269 32.5736 4.39974 32.7956 4.93577C33.0175 5.47181 33.1317 6.04632 33.1315 6.62648V22.0877C33.1316 22.6679 33.0174 23.2424 32.7954 23.7784C32.5735 24.3144 32.2481 24.8014 31.8379 25.2116C31.4276 25.6218 30.9406 25.9472 30.4046 26.1692C29.8686 26.3911 29.2941 26.5053 28.714 26.5052H23.3739L19.5872 33.1315Z" fill="white" stroke="white" stroke-width="1.5"/>
</g>
<defs>
<clipPath id="clip0_585_3679">
<rect width="35.34" height="35.34" fill="white"/>
</clipPath>
</defs>
</svg>
