<svg width="38" height="38" viewBox="0 0 38 38" fill="none" xmlns="http://www.w3.org/2000/svg">
<g clip-path="url(#clip0_585_3631)">
<path d="M27.9096 6.1615C29.605 6.1615 30.9794 4.78712 30.9794 3.09174C30.9794 1.39635 29.605 0.0219727 27.9096 0.0219727C26.2142 0.0219727 24.8398 1.39635 24.8398 3.09174C24.8398 4.78712 26.2142 6.1615 27.9096 6.1615Z" fill="white"/>
<path d="M36.6574 25.7743C36.2947 25.7743 36.0818 25.7743 35.7223 25.7743C35.7223 25.394 35.7223 22.4909 35.7223 22.1171C35.7223 21.656 35.4795 21.2516 35.1157 21.0218C35.2752 20.4939 36.5485 16.2755 36.7113 15.7364C36.8048 15.4267 36.7891 15.0976 36.691 14.818L34.8386 9.53762C34.3354 8.1036 32.9763 7.1402 31.4566 7.1402H30.2379C30.0452 7.64378 28.6801 11.2103 28.4924 11.7004L28.9051 9.75605C28.9341 9.61952 28.9131 9.47709 28.8457 9.35486L28.279 8.324L28.7829 7.40749C28.8579 7.27104 28.759 7.10352 28.6031 7.10352H27.2201C27.0643 7.10352 26.9651 7.27089 27.0403 7.40749L27.5442 8.324L26.9753 9.35873C26.9093 9.47877 26.8878 9.61814 26.9144 9.75247L27.2753 11.7004L25.548 7.1402H23.925C22.0019 7.1402 20.4022 8.70469 20.3926 10.6277V21.5092C20.3884 22.3272 21.0209 22.9936 21.8389 22.9978C21.8414 22.9978 21.844 22.9978 21.8466 22.9978C22.6611 22.9978 23.3599 22.3396 23.3641 21.5242V10.6426C23.3641 10.6413 23.3641 10.64 23.3641 10.6386C23.366 10.477 23.5163 10.3474 23.6779 10.3483C23.8396 10.3493 23.97 10.4806 23.97 10.6422L23.9706 35.541C23.9706 36.5227 24.7663 37.3184 25.748 37.3184C26.7296 37.3184 27.5254 36.5226 27.5254 35.541V21.3343H28.2927V26.0818C28.4538 25.3297 29.0884 24.7511 29.8688 24.6771V22.1171C29.8688 20.9486 30.7081 19.9729 31.8152 19.7599V10.5573C31.8152 10.5 31.8564 10.4511 31.9129 10.4415C31.9693 10.4319 32.0244 10.4644 32.0433 10.5184L33.7358 15.3428C33.5662 15.9047 32.2432 20.2873 32.0771 20.8373C31.4539 20.9308 30.9739 21.4682 30.9739 22.1171V25.7743C30.6183 25.7743 30.4 25.7743 30.0388 25.7743C29.6623 25.7743 29.3571 26.0795 29.3571 26.456C29.3571 27.5546 29.3571 34.6567 29.3571 35.5282C29.3571 35.8922 29.6427 36.1887 30.0018 36.2081V36.7034C30.0018 37.0587 30.3037 37.3411 30.661 37.3151C30.9789 37.2919 31.2298 37.0273 31.2298 36.7034V36.2099H35.4664V36.7034C35.4664 37.0586 35.7681 37.3411 36.1255 37.3151C36.4434 37.2919 36.6944 37.0273 36.6944 36.7034V36.2081C37.0536 36.1887 37.3391 35.8923 37.3391 35.5282C37.3391 34.0258 37.3391 27.445 37.3391 26.456C37.3391 26.0796 37.0338 25.7743 36.6574 25.7743ZM32.202 22.3588C32.4866 22.7706 32.9464 22.998 33.4198 22.998C33.8288 22.998 34.2171 22.8266 34.4942 22.5344V25.7742H32.202V22.3588ZM35.2933 29.8472H31.4027C31.097 29.8472 30.8502 29.5985 30.8502 29.2945C30.8502 28.9907 31.0969 28.7419 31.4027 28.7419C33.1145 28.7419 33.491 28.7419 35.2933 28.7419C35.5988 28.7419 35.8459 28.9903 35.8459 29.2945C35.8459 29.5989 35.5987 29.8472 35.2933 29.8472Z" fill="white"/>
<path d="M18.2378 15.8867C17.5655 15.8867 17.0204 16.4318 17.0204 17.1042V32.8502H13.4146C14.0988 32.8502 14.6535 32.2956 14.6535 31.6113V29.3813C14.6535 28.6971 14.0989 28.1425 13.4146 28.1425H15.1051C15.4458 28.1425 15.7219 27.8664 15.7219 27.5257V26.2026C15.7219 25.862 15.4458 25.5859 15.1051 25.5859H12.6143C13.006 25.3671 13.2712 24.9489 13.2712 24.4683V20.1695C13.2712 19.4628 12.6982 18.8897 11.9913 18.8897H11.859V17.1041C11.859 16.7989 11.6116 16.5514 11.3064 16.5514H7.96867C7.66346 16.5514 7.41608 16.7989 7.41608 17.1041V18.8897H7.28371C6.57688 18.8897 6.00387 19.4627 6.00387 20.1695V24.4683C6.00387 24.9489 6.26904 25.3669 6.66075 25.5859H5.3246C4.98394 25.5859 4.70783 25.862 4.70783 26.2026V27.5258C4.70783 27.8665 4.98394 28.1426 5.3246 28.1426H3.91844C3.23428 28.1426 2.67958 28.6972 2.67958 29.3814V31.6113C2.67958 32.2954 3.23421 32.8501 3.91844 32.8501H1.84249C1.17015 32.8501 0.625 33.3951 0.625 34.0675C0.625 34.74 1.17008 35.285 1.84249 35.285H3.3614C3.33887 35.3952 3.32705 35.5092 3.32705 35.626C3.32705 36.5606 4.08479 37.3185 5.01953 37.3185C5.95428 37.3185 6.71202 36.5607 6.71202 35.626C6.71202 35.5091 6.7002 35.3952 6.67767 35.285H12.5331C12.5106 35.3952 12.4988 35.5092 12.4988 35.626C12.4988 36.5606 13.2565 37.3185 14.1913 37.3185C15.126 37.3185 15.8837 36.5607 15.8837 35.626C15.8837 35.5091 15.8719 35.3952 15.8494 35.285H18.238C18.9103 35.285 19.4555 34.74 19.4555 34.0675V17.1041C19.4553 16.4317 18.9103 15.8867 18.2378 15.8867ZM8.52126 17.6568H10.7538V18.8897H8.52126V17.6568ZM10.5268 31.049H6.80631C6.5011 31.049 6.25373 30.8016 6.25373 30.4964C6.25373 30.1912 6.5011 29.9437 6.80631 29.9437H10.5268C10.832 29.9437 11.0793 30.1912 11.0793 30.4964C11.0793 30.8015 10.832 31.049 10.5268 31.049Z" fill="white"/>
</g>
<defs>
<clipPath id="clip0_585_3631">
<rect width="37.34" height="37.34" fill="white"/>
</clipPath>
</defs>
</svg>
