<svg width="84" height="84" viewBox="0 0 84 84" fill="none" xmlns="http://www.w3.org/2000/svg">
<g opacity="0.5" filter="url(#filter0_di_3572_12093)">
<path d="M4 0.263959C29.0948 -2.04361 79.2844 9.78268 79.2844 75.5484C54.1896 78.5771 4 67.7606 4 0.263959Z" fill="url(#paint0_linear_3572_12093)" shape-rendering="crispEdges"/>
</g>
<g opacity="0.5" filter="url(#filter1_di_3572_12093)">
<path d="M4.26396 76C1.95639 50.9052 13.7827 0.715599 79.5484 0.715596C82.5771 25.8104 71.7606 76 4.26396 76Z" fill="url(#paint1_linear_3572_12093)" shape-rendering="crispEdges"/>
</g>
<g clip-path="url(#clip0_3572_12093)">
<g filter="url(#filter2_di_3572_12093)">
<path fill-rule="evenodd" clip-rule="evenodd" d="M42.2914 27.3962C40.6599 27.596 39.1139 28.1752 38.4613 28.7116C34.6551 31.8583 32.506 36.0181 31.3905 39.6449C30.9099 41.1813 30.5882 42.763 30.4304 44.365C30.3723 45.0193 30.3194 45.7044 30.4184 46.3587C31.0727 47.1001 31.9986 47.6382 32.8579 48.0994C34.6534 49.0647 37.3509 50.0657 40.9776 50.4689C43.0311 50.6978 45.6243 50.8277 48.016 50.6363C50.4982 50.4364 52.4013 49.9154 53.3887 49.1244C55.0526 47.7937 55.4729 46.2408 55.3208 44.8809C55.1585 43.4186 54.3368 42.1818 53.51 41.63C52.0835 40.6802 50.4777 40.5845 48.9641 40.9808C47.4061 41.3908 46.1266 42.2792 45.5218 43.0069C45.3701 43.19 45.1818 43.3393 44.9691 43.4455C44.7563 43.5516 44.5237 43.6121 44.2862 43.6232C44.0487 43.6343 43.8115 43.5957 43.5898 43.5099C43.3681 43.4241 43.1667 43.2929 42.9986 43.1248C42.059 42.1852 40.4617 41.9119 38.3212 43.3383C38.0877 43.4943 37.8193 43.5902 37.5398 43.6177C37.2603 43.6452 36.9784 43.6034 36.719 43.496C36.4595 43.3886 36.2305 43.2188 36.0523 43.0018C35.8741 42.7848 35.7521 42.5272 35.6972 42.2518C35.2086 39.8021 35.4631 37.1986 35.9141 35.0512C36.3686 32.9004 37.0519 31.0503 37.5541 30.0492C37.6962 29.7658 37.9142 29.5275 38.184 29.361C38.4537 29.1945 38.7644 29.1063 39.0814 29.1063C39.3984 29.1063 39.7091 29.1945 39.9788 29.361C40.2485 29.5275 40.4666 29.7658 40.6086 30.0492C40.9554 30.7394 41.5892 31.3578 42.3272 31.6174C42.8995 31.257 43.3966 30.753 43.7998 30.2149C44.5412 29.2275 44.7889 28.293 44.4592 27.4679C43.7896 27.2287 42.9798 27.3124 42.2914 27.3962ZM44.8248 24.041C45.6516 24.1999 46.8594 24.6133 47.442 25.7784C48.7181 28.3306 47.6641 30.7564 46.5331 32.2649C45.7951 33.2489 44.8453 34.1748 43.74 34.742C43.5094 34.8616 43.0396 35.0837 42.4981 35.0837C41.4884 35.0837 40.4993 34.6241 39.6879 34.0501C39.5341 34.5729 39.3855 35.1469 39.2574 35.755C39.0039 36.9219 38.8666 38.111 38.8474 39.3049C40.6462 38.7241 42.4861 38.7856 44.0714 39.6808C45.262 38.7438 46.6326 38.0617 48.098 37.6769C50.3188 37.0944 52.9838 37.1747 55.4045 38.7873C57.1385 39.9439 58.4522 42.122 58.717 44.5051C58.9937 46.989 58.131 49.7053 55.5224 51.7929C53.6808 53.2654 50.874 53.8343 48.291 54.041C45.6175 54.2563 42.7936 54.1094 40.6001 53.8651C36.5394 53.4141 33.4217 52.2797 31.2419 51.1095C29.8103 50.3408 27.8542 49.2782 27.2341 47.6502C26.8156 46.5466 26.9249 45.2072 27.0274 44.0592C27.1641 42.5542 27.4989 40.675 28.1259 38.6387C29.3764 34.5746 31.8244 29.7656 36.2849 26.079C37.6566 24.9447 39.9526 24.2409 41.8745 24.0051C42.8654 23.8838 43.9074 23.8667 44.8248 24.041Z" fill="white"/>
</g>
</g>
<defs>
<filter id="filter0_di_3572_12093" x="0" y="-3" width="83.2852" height="87" filterUnits="userSpaceOnUse" color-interpolation-filters="sRGB">
<feFlood flood-opacity="0" result="BackgroundImageFix"/>
<feColorMatrix in="SourceAlpha" type="matrix" values="0 0 0 0 0 0 0 0 0 0 0 0 0 0 0 0 0 0 127 0" result="hardAlpha"/>
<feOffset dy="4"/>
<feGaussianBlur stdDeviation="2"/>
<feComposite in2="hardAlpha" operator="out"/>
<feColorMatrix type="matrix" values="0 0 0 0 0 0 0 0 0 0 0 0 0 0 0 0 0 0 0.25 0"/>
<feBlend mode="normal" in2="BackgroundImageFix" result="effect1_dropShadow_3572_12093"/>
<feBlend mode="normal" in="SourceGraphic" in2="effect1_dropShadow_3572_12093" result="shape"/>
<feColorMatrix in="SourceAlpha" type="matrix" values="0 0 0 0 0 0 0 0 0 0 0 0 0 0 0 0 0 0 127 0" result="hardAlpha"/>
<feOffset dx="-2" dy="-3"/>
<feGaussianBlur stdDeviation="2"/>
<feComposite in2="hardAlpha" operator="arithmetic" k2="-1" k3="1"/>
<feColorMatrix type="matrix" values="0 0 0 0 0 0 0 0 0 0 0 0 0 0 0 0 0 0 0.25 0"/>
<feBlend mode="normal" in2="shape" result="effect2_innerShadow_3572_12093"/>
</filter>
<filter id="filter1_di_3572_12093" x="0" y="-2.28418" width="84" height="86.2842" filterUnits="userSpaceOnUse" color-interpolation-filters="sRGB">
<feFlood flood-opacity="0" result="BackgroundImageFix"/>
<feColorMatrix in="SourceAlpha" type="matrix" values="0 0 0 0 0 0 0 0 0 0 0 0 0 0 0 0 0 0 127 0" result="hardAlpha"/>
<feOffset dy="4"/>
<feGaussianBlur stdDeviation="2"/>
<feComposite in2="hardAlpha" operator="out"/>
<feColorMatrix type="matrix" values="0 0 0 0 0 0 0 0 0 0 0 0 0 0 0 0 0 0 0.25 0"/>
<feBlend mode="normal" in2="BackgroundImageFix" result="effect1_dropShadow_3572_12093"/>
<feBlend mode="normal" in="SourceGraphic" in2="effect1_dropShadow_3572_12093" result="shape"/>
<feColorMatrix in="SourceAlpha" type="matrix" values="0 0 0 0 0 0 0 0 0 0 0 0 0 0 0 0 0 0 127 0" result="hardAlpha"/>
<feOffset dx="-2" dy="-3"/>
<feGaussianBlur stdDeviation="2"/>
<feComposite in2="hardAlpha" operator="arithmetic" k2="-1" k3="1"/>
<feColorMatrix type="matrix" values="0 0 0 0 0 0 0 0 0 0 0 0 0 0 0 0 0 0 0.25 0"/>
<feBlend mode="normal" in2="shape" result="effect2_innerShadow_3572_12093"/>
</filter>
<filter id="filter2_di_3572_12093" x="22.9336" y="20.9121" width="39.832" height="41.2334" filterUnits="userSpaceOnUse" color-interpolation-filters="sRGB">
<feFlood flood-opacity="0" result="BackgroundImageFix"/>
<feColorMatrix in="SourceAlpha" type="matrix" values="0 0 0 0 0 0 0 0 0 0 0 0 0 0 0 0 0 0 127 0" result="hardAlpha"/>
<feOffset dy="4"/>
<feGaussianBlur stdDeviation="2"/>
<feComposite in2="hardAlpha" operator="out"/>
<feColorMatrix type="matrix" values="0 0 0 0 0 0 0 0 0 0 0 0 0 0 0 0 0 0 0.25 0"/>
<feBlend mode="normal" in2="BackgroundImageFix" result="effect1_dropShadow_3572_12093"/>
<feBlend mode="normal" in="SourceGraphic" in2="effect1_dropShadow_3572_12093" result="shape"/>
<feColorMatrix in="SourceAlpha" type="matrix" values="0 0 0 0 0 0 0 0 0 0 0 0 0 0 0 0 0 0 127 0" result="hardAlpha"/>
<feOffset dx="-1" dy="-3"/>
<feGaussianBlur stdDeviation="2"/>
<feComposite in2="hardAlpha" operator="arithmetic" k2="-1" k3="1"/>
<feColorMatrix type="matrix" values="0 0 0 0 0 0 0 0 0 0 0 0 0 0 0 0 0 0 0.25 0"/>
<feBlend mode="normal" in2="shape" result="effect2_innerShadow_3572_12093"/>
</filter>
<linearGradient id="paint0_linear_3572_12093" x1="35.7325" y1="20.0133" x2="91.6789" y2="38.5094" gradientUnits="userSpaceOnUse">
<stop stop-color="#ED6FCB"/>
<stop offset="1" stop-color="#2B2B2B" stop-opacity="0.39"/>
</linearGradient>
<linearGradient id="paint1_linear_3572_12093" x1="24.0133" y1="44.2675" x2="42.5094" y2="-11.6789" gradientUnits="userSpaceOnUse">
<stop stop-color="#ED6FCB"/>
<stop offset="1" stop-color="#2B2B2B" stop-opacity="0.39"/>
</linearGradient>
<clipPath id="clip0_3572_12093">
<rect width="41" height="41" fill="white" transform="translate(22 18)"/>
</clipPath>
</defs>
</svg>
