<svg width="152" height="701" viewBox="0 0 152 701" fill="none" xmlns="http://www.w3.org/2000/svg">
<g opacity="0.7" filter="url(#filter0_d_1696_54211)">
<mask id="mask0_1696_54211" style="mask-type:alpha" maskUnits="userSpaceOnUse" x="90" y="0" width="64" height="701">
<path d="M98.7704 0H145.23C150.073 0 154 15.4832 154 34.5827V666.417C154 685.516 150.073 701 145.23 701H98.7704C93.9266 701 90 685.516 90 666.417V34.5827C90 15.4832 93.9266 0 98.7704 0Z" fill="url(#paint0_linear_1696_54211)"/>
</mask>
<g mask="url(#mask0_1696_54211)">
<path d="M114.297 427.376C115.68 429.247 116.258 431.541 116.332 432.99C116.399 434.282 116.129 437.043 115.146 440.63C114.174 443.013 113.151 445.374 112.111 447.758C109.506 453.539 106.99 459.929 104.576 466.892C85.4703 524.628 75.3444 601.922 74.5071 696.611C74.3554 713.784 72.9955 719.041 68.6799 719.086H67.5561C62.5436 719.131 57.3626 719.175 52.2715 719.041C50.1868 718.975 48.6471 716.97 47.8435 713.652C47.04 710.332 46.6635 704.875 46.7253 697.413C47.6806 586.083 57.7615 491.816 76.7492 416.551C79.4052 406.023 82.2336 395.88 85.2343 386.124C86.8077 381 87.6675 380.71 89.4319 384.675C97.3597 402.006 105.686 416.302 114.297 427.376Z" fill="url(#paint1_linear_1696_54211)"/>
<path d="M67.6434 253.723L68.8066 259.314C71.1312 270.952 73.6051 282.112 76.2184 292.747C95.9084 367.724 119.594 407.217 146.617 410.18C148.702 410.38 150.129 408.911 150.989 405.591L151.022 405.458C151.877 402.071 152.298 396.302 152.31 387.838L152.315 387.236C152.338 365.318 152.349 342.553 152.315 320.413C152.265 306.847 150.685 300.589 147.207 300.164C124.876 297.848 106.186 262.699 91.6378 195.719C88.1646 179.335 85.1466 161.516 82.6357 142.571C81.6411 135.288 81.0285 134.063 80.225 134.308C79.4214 134.553 79.2472 136.09 78.6122 143.552C75.6782 178.465 71.9563 212.259 67.4916 244.524C66.8735 248.934 66.9915 250.56 67.6434 253.723Z" fill="url(#paint2_linear_1696_54211)"/>
<path d="M152.385 494.334C152.378 487.236 152.376 480.131 152.38 473.016C152.407 470.448 152.3 467.885 152.065 465.489C151.83 463.092 151.472 460.916 151.014 459.095C150.104 455.755 148.867 454.239 146.957 454.373C131.223 454.373 115.522 481.236 103.919 527.234C92.2867 573.342 85.6109 635.445 85.6447 697.68C85.6391 713.117 87.1001 718.908 91.0223 718.996C96.9507 719.198 102.784 719.153 108.358 718.931C111.786 718.707 113.224 713.362 113.427 699.596C114.573 621.277 127.643 569.511 147.524 564.432C150.868 563.608 152.323 557.929 152.346 545.32C152.396 528.504 152.419 511.263 152.385 494.334Z" fill="url(#paint3_linear_1696_54211)"/>
<path d="M85.6282 14.2253C86.0721 70.0233 90.5563 119.429 98.9347 160.971C110.813 219.84 126.356 251.698 145.168 255.775C146.637 256.093 148.461 256.785 149.412 255.621C150.053 254.836 150.639 253.462 151.122 251.611C151.604 249.759 151.969 247.484 152.188 244.966C152.406 242.45 152.472 239.765 152.38 237.128C152.464 212.114 152.464 187.79 152.374 164.758C152.324 152.44 150.857 146.404 147.867 146.314C138.712 145.998 129.956 131.401 123.495 105.683C117.035 79.9648 113.389 45.1954 113.348 8.90154C113.348 -5.04244 110.915 -8.18307 108.892 -8.27216C105.133 -8.54936 101.324 -8.54364 97.561 -8.53792H97.5587L97.5573 -8.53787L97.5544 -8.53781C96.4815 -8.53617 95.4124 -8.53458 94.3493 -8.53949L89.955 -8.45038C89.375 -8.48498 88.7994 -8.05064 88.2631 -7.17359C87.7269 -6.29656 87.2414 -4.99531 86.8363 -3.34952C85.8923 0.615361 85.5326 5.69402 85.6282 14.2253Z" fill="url(#paint4_linear_1696_54211)"/>
<path d="M149.35 88.6223C144.759 102.767 137.077 99.4476 131.868 80.982C126.805 63.0508 124.872 41.9789 125.962 16.6304L125.985 16.0512L126.075 15.2938C128.547 -6.57994 132.638 -12.505 135.627 -13.6633C140.971 -15.6903 147.057 -3.81776 150.434 15.2271C155.239 42.2909 154.806 71.7604 149.35 88.6223Z" fill="url(#paint5_linear_1696_54211)"/>
<path d="M131.867 629.296C127.309 647.362 125.253 666.117 125.685 684.984C125.899 695.269 127.042 704.901 128.905 712.112C130.767 719.323 133.224 723.627 135.822 724.232C138.185 724.453 140.535 722.763 142.728 719.264C144.921 715.764 146.91 710.528 148.575 703.879C150.24 697.228 151.546 689.302 152.412 680.585C153.279 671.867 153.687 662.541 153.613 653.175C153.446 642.883 152.34 633.183 150.5 625.889C148.66 618.596 146.213 614.209 143.616 613.549C141.489 612.768 139.344 613.766 137.32 616.478C135.296 619.193 133.438 623.557 131.867 629.296Z" fill="url(#paint6_linear_1696_54211)"/>
</g>
</g>
<defs>
<filter id="filter0_d_1696_54211" x="0" y="-90" width="243.762" height="881" filterUnits="userSpaceOnUse" color-interpolation-filters="sRGB">
<feFlood flood-opacity="0" result="BackgroundImageFix"/>
<feColorMatrix in="SourceAlpha" type="matrix" values="0 0 0 0 0 0 0 0 0 0 0 0 0 0 0 0 0 0 127 0" result="hardAlpha"/>
<feMorphology radius="30" operator="dilate" in="SourceAlpha" result="effect1_dropShadow_1696_54211"/>
<feOffset/>
<feGaussianBlur stdDeviation="30"/>
<feComposite in2="hardAlpha" operator="out"/>
<feColorMatrix type="matrix" values="0 0 0 0 0 0 0 0 0 0 0 0 0 0 0 0 0 0 0.03 0"/>
<feBlend mode="normal" in2="BackgroundImageFix" result="effect1_dropShadow_1696_54211"/>
<feBlend mode="normal" in="SourceGraphic" in2="effect1_dropShadow_1696_54211" result="shape"/>
</filter>
<linearGradient id="paint0_linear_1696_54211" x1="98.4697" y1="-1.50001" x2="169.68" y2="3.73895" gradientUnits="userSpaceOnUse">
<stop stop-color="#8372F2"/>
<stop offset="1" stop-color="#ED6FCB"/>
</linearGradient>
<linearGradient id="paint1_linear_1696_54211" x1="55.9325" y1="381.238" x2="131.72" y2="393.849" gradientUnits="userSpaceOnUse">
<stop stop-color="#8372F2"/>
<stop offset="1" stop-color="#ED6FCB"/>
</linearGradient>
<linearGradient id="paint2_linear_1696_54211" x1="78.3678" y1="133.689" x2="168.169" y2="156.047" gradientUnits="userSpaceOnUse">
<stop stop-color="#8372F2"/>
<stop offset="1" stop-color="#ED6FCB"/>
</linearGradient>
<linearGradient id="paint3_linear_1696_54211" x1="94.479" y1="453.799" x2="166.197" y2="468.37" gradientUnits="userSpaceOnUse">
<stop stop-color="#8372F2"/>
<stop offset="1" stop-color="#ED6FCB"/>
</linearGradient>
<linearGradient id="paint4_linear_1696_54211" x1="94.4573" y1="-9.10642" x2="166.251" y2="5.48804" gradientUnits="userSpaceOnUse">
<stop stop-color="#8372F2"/>
<stop offset="1" stop-color="#ED6FCB"/>
</linearGradient>
<linearGradient id="paint5_linear_1696_54211" x1="129.386" y1="-14.1258" x2="159.563" y2="-7.98574" gradientUnits="userSpaceOnUse">
<stop stop-color="#8372F2"/>
<stop offset="1" stop-color="#ED6FCB"/>
</linearGradient>
<linearGradient id="paint6_linear_1696_54211" x1="129.333" y1="613.054" x2="159.406" y2="619.167" gradientUnits="userSpaceOnUse">
<stop stop-color="#8372F2"/>
<stop offset="1" stop-color="#ED6FCB"/>
</linearGradient>
</defs>
</svg>
