<svg width="37" height="37" viewBox="0 0 37 37" fill="none" xmlns="http://www.w3.org/2000/svg">
<path d="M18.6141 0.00732422C19.8574 0.00732422 20.8653 1.01522 20.8653 2.25852V15.7657H34.3724C35.6158 15.7657 36.6236 16.7736 36.6236 18.0169C36.6236 19.2602 35.6158 20.2681 34.3724 20.2681H20.8653V33.7753C20.8653 35.0186 19.8574 36.0265 18.6141 36.0265C17.3708 36.0265 16.3629 35.0186 16.3629 33.7753V20.2681H2.85569C1.61239 20.2681 0.604492 19.2602 0.604492 18.0169C0.604492 16.7736 1.61239 15.7657 2.85569 15.7657H16.3629V2.25852C16.3629 1.01522 17.3708 0.00732422 18.6141 0.00732422Z" fill="#E7E7E7"/>
</svg>
