<svg width="681" height="368" viewBox="0 0 681 368" fill="none" xmlns="http://www.w3.org/2000/svg">
<g opacity="0.5">
<path opacity="0.4" d="M88.5425 169.808C88.5425 169.808 103.169 126.367 123.318 125.991C144.139 125.585 143.216 170.856 163.974 169.808C207.353 167.618 179.821 71.5838 223.356 71.2084C267.377 70.8173 244.428 167.493 288.276 169.808C308.519 170.888 310.02 127.79 330.341 127.915C350.411 128.041 350.396 169.98 370.466 169.808C382.965 169.699 381.948 143.121 394.447 143.387C406.508 143.637 402.535 170.387 414.565 169.808C451.154 168.056 418.022 84.6929 454.737 84.7399C491.389 84.7868 459.007 163.739 494.252 169.808C512.961 173.031 530.309 136.457 549.738 136.942C567.713 137.395 596.684 169.808 596.684 169.808H88.5425Z" fill="#4B95FA"/>
<path d="M502.855 160.766C502.041 160.766 501.228 160.703 500.399 160.562C482.112 157.543 481.157 136.581 480.25 116.307C479.311 95.3297 478.404 75.5253 459.288 75.494H459.257C440.344 75.494 439.468 95.7677 438.529 117.246C437.622 138.098 436.683 159.671 417.489 160.562C417.348 160.562 417.223 160.562 417.082 160.562C410.95 160.562 408.838 153.883 406.805 147.422C404.755 140.946 402.644 134.25 396.527 134.125C396.465 134.125 396.402 134.125 396.339 134.125C390.082 134.125 387.235 140.445 384.216 147.14C381.259 153.711 378.193 160.5 371.592 160.547H371.467C360.97 160.547 355.651 149.878 350.504 139.553C345.405 129.307 340.133 118.716 329.824 118.654H329.73C319.374 118.654 313.68 129.354 308.158 139.694C302.683 149.956 297.02 160.562 286.789 160.562C286.539 160.562 286.273 160.562 286.023 160.547C263.152 159.373 257.568 134.469 252.186 110.379C249.496 98.3645 246.727 85.9437 241.815 76.855C236.324 66.6712 228.972 61.9312 218.741 61.9312C218.647 61.9312 218.553 61.9312 218.459 61.9312C208.213 62.0251 201.127 66.8589 196.183 77.1522C191.803 86.2566 189.691 98.6148 187.658 110.582C183.559 134.594 179.335 159.436 156.653 160.531C145.671 161.079 140.399 149.675 135.284 138.662C130.278 127.868 125.1 116.714 114.603 116.714C114.51 116.714 114.416 116.714 114.322 116.714C93.7196 117.09 78.4518 159.968 78.311 160.406L77.9355 160.281C77.9668 160.171 81.8151 149.283 88.1819 138.474C94.0638 128.478 103.387 116.526 114.306 116.323C114.4 116.323 114.494 116.323 114.588 116.323C125.335 116.323 130.56 127.602 135.628 138.505C140.571 149.158 145.687 160.171 155.917 160.171C156.152 160.171 156.387 160.171 156.621 160.156C178.991 159.076 183.184 134.391 187.251 110.519C189.285 98.5366 191.396 86.1471 195.808 76.9801C200.767 66.6712 208.166 61.6184 218.444 61.5402C218.538 61.5402 218.631 61.5402 218.71 61.5402C228.972 61.5402 236.653 66.4991 242.143 76.6829C247.071 85.8186 249.855 98.255 252.546 110.3C257.896 134.25 263.449 158.998 286.023 160.156C286.273 160.156 286.523 160.171 286.758 160.171C296.754 160.171 302.354 149.675 307.783 139.506C313.352 129.057 319.124 118.263 329.699 118.263H329.793C340.336 118.325 345.671 129.025 350.817 139.366C355.901 149.581 361.173 160.156 371.435 160.156H371.56C377.912 160.109 380.931 153.429 383.84 146.984C386.781 140.476 389.816 133.734 396.339 133.734C396.402 133.734 396.465 133.734 396.527 133.734C402.91 133.859 405.068 140.695 407.165 147.297C409.261 153.914 411.232 160.156 417.067 160.156C417.192 160.156 417.333 160.156 417.458 160.156C436.292 159.28 437.231 137.895 438.123 117.215C439.03 96.5029 439.953 75.0873 459.241 75.0873H459.272C468.033 75.0873 473.805 79.2953 476.918 87.9304C479.687 95.6113 480.141 105.639 480.625 116.26C481.533 136.378 482.471 157.183 500.446 160.156C510.348 161.798 519.702 153.21 529.605 144.137C538.646 135.846 548.001 127.289 557.794 127.289C557.935 127.289 558.06 127.289 558.201 127.289C576.785 127.743 606.914 159.89 607.211 160.218L606.93 160.484C606.632 160.156 576.613 128.118 558.185 127.68C558.06 127.68 557.919 127.68 557.794 127.68C548.158 127.68 538.866 136.19 529.871 144.434C521.11 152.475 512.069 160.75 502.839 160.75L502.855 160.766Z" fill="#4B95FA"/>
<path d="M491.012 146.765C490.793 146.765 490.574 146.765 490.355 146.75L490.386 145.905C490.59 145.905 490.793 145.905 491.012 145.905H491.294V146.75H490.997L491.012 146.765ZM492.248 146.719L492.17 145.874C492.467 145.842 492.764 145.811 493.061 145.78L493.187 146.625C492.874 146.672 492.561 146.703 492.248 146.734V146.719ZM489.401 146.687C489.151 146.656 488.9 146.625 488.65 146.578L488.525 146.124L488.697 145.717C489.025 145.764 489.26 145.796 489.495 145.827L489.401 146.672V146.687ZM290.856 146.609C290.715 146.609 290.575 146.609 290.434 146.609L290.465 145.764C290.621 145.764 290.778 145.78 290.934 145.764C291.075 145.764 291.216 145.764 291.357 145.764L291.388 146.609C291.216 146.609 291.028 146.609 290.856 146.609ZM169.761 146.609H169.62V145.764H169.777C169.98 145.764 170.199 145.764 170.418 145.764L170.559 146.609C170.231 146.625 169.996 146.625 169.761 146.625V146.609ZM411.576 146.609L411.544 145.764H411.576C411.685 145.764 411.81 145.764 411.92 145.764C412.092 145.764 412.264 145.749 412.42 145.733L412.483 146.578C412.311 146.578 412.139 146.593 411.951 146.609C411.826 146.609 411.685 146.609 411.56 146.609H411.576ZM369.323 146.609C369.041 146.609 368.775 146.609 368.509 146.578L368.556 145.733C368.807 145.733 369.073 145.749 369.323 145.749H369.432V146.593H369.307L369.323 146.609ZM168.651 146.578C168.322 146.546 168.009 146.515 167.712 146.468L167.837 145.639C168.119 145.686 168.416 145.717 168.713 145.749L168.651 146.593V146.578ZM289.495 146.562C289.182 146.531 288.869 146.515 288.572 146.484L288.666 145.639C288.963 145.67 289.26 145.702 289.573 145.717L289.511 146.562H289.495ZM292.327 146.562L292.233 145.717C292.53 145.686 292.827 145.639 293.109 145.592L293.25 146.421C292.937 146.468 292.624 146.515 292.311 146.546L292.327 146.562ZM410.543 146.562C410.215 146.515 409.902 146.453 409.589 146.359L409.823 145.545C410.089 145.623 410.371 145.686 410.653 145.717L410.543 146.562ZM370.402 146.562L370.308 145.717C370.606 145.686 370.887 145.639 371.153 145.561L371.357 146.39C371.044 146.468 370.731 146.515 370.402 146.562ZM171.466 146.562L171.404 145.717C171.701 145.686 172.014 145.655 172.295 145.623L172.405 146.468C172.092 146.5 171.795 146.531 171.482 146.562H171.466ZM367.54 146.515C367.227 146.468 366.914 146.421 366.601 146.359L366.773 145.53C367.055 145.592 367.352 145.639 367.649 145.67L367.54 146.515ZM413.39 146.515L413.296 145.67C413.594 145.639 413.891 145.592 414.188 145.545L414.313 146.374C414.016 146.421 413.703 146.468 413.39 146.5V146.515ZM494.094 146.5L493.922 145.67C494.219 145.608 494.501 145.545 494.798 145.467L495.017 146.281C494.704 146.359 494.407 146.437 494.094 146.5ZM587.125 146.484L586.483 145.811L587.093 145.217L587.735 145.889L587.125 146.468V146.484ZM487.524 146.421C487.211 146.359 486.914 146.281 486.616 146.202L486.835 145.389C487.117 145.467 487.414 145.53 487.711 145.592L487.539 146.421H487.524ZM287.618 146.39C287.305 146.343 286.992 146.296 286.695 146.249L286.851 145.42C287.149 145.467 287.446 145.514 287.743 145.561L287.634 146.406L287.618 146.39ZM98.115 146.359L97.3171 146.077C97.3171 146.077 97.4266 145.764 97.6456 145.185L98.4435 145.483C98.2401 146.046 98.1306 146.343 98.1306 146.343L98.115 146.359ZM173.312 146.359L173.187 145.53C173.484 145.483 173.782 145.436 174.079 145.373L174.235 146.202C173.938 146.265 173.625 146.312 173.312 146.359ZM166.742 146.327C166.429 146.249 166.132 146.171 165.835 146.077L166.085 145.264C166.367 145.358 166.648 145.436 166.945 145.498L166.742 146.327ZM294.172 146.265L293.969 145.451C294.251 145.373 294.548 145.295 294.83 145.201L295.095 145.999C294.798 146.093 294.485 146.187 294.188 146.265H294.172ZM415.236 146.249L415.064 145.42C415.361 145.358 415.658 145.295 415.94 145.217L416.159 146.03C415.862 146.108 415.549 146.171 415.252 146.249H415.236ZM365.678 146.171C365.365 146.093 365.068 145.983 364.771 145.889L365.052 145.092C365.334 145.185 365.615 145.279 365.897 145.358L365.678 146.171ZM372.264 146.14L371.967 145.342C372.233 145.248 372.499 145.123 372.749 144.998L373.14 145.749C372.858 145.889 372.561 146.03 372.248 146.14H372.264ZM285.788 146.077C285.475 146.015 285.178 145.936 284.88 145.858L285.084 145.045C285.381 145.123 285.663 145.185 285.96 145.248L285.772 146.077H285.788ZM408.666 146.062C408.369 145.921 408.087 145.764 407.805 145.592L408.275 144.888C408.509 145.045 408.76 145.185 409.026 145.295L408.666 146.062ZM495.924 146.062L495.674 145.248C495.955 145.154 496.237 145.06 496.519 144.966L496.816 145.764C496.519 145.874 496.221 145.968 495.924 146.062ZM175.158 146.015L174.971 145.185C175.268 145.123 175.549 145.045 175.847 144.966L176.081 145.78C175.784 145.858 175.487 145.936 175.174 146.015H175.158ZM485.725 145.968C485.428 145.874 485.13 145.764 484.833 145.655L485.13 144.857C485.412 144.966 485.693 145.06 485.975 145.154L485.725 145.968ZM417.082 145.78L416.816 144.982C417.098 144.888 417.379 144.794 417.661 144.685L417.974 145.467C417.692 145.577 417.395 145.686 417.082 145.78ZM164.974 145.78C164.677 145.655 164.396 145.53 164.114 145.389L164.489 144.638C164.755 144.763 165.021 144.888 165.303 144.998L164.99 145.78H164.974ZM296.018 145.686L295.69 144.904C295.956 144.794 296.237 144.669 296.488 144.528L296.863 145.279C296.582 145.42 296.3 145.561 296.003 145.67L296.018 145.686ZM284.004 145.623C283.707 145.53 283.41 145.436 283.113 145.342L283.394 144.544C283.676 144.638 283.957 144.732 284.255 144.826L284.02 145.639L284.004 145.623ZM363.926 145.545C363.644 145.42 363.347 145.279 363.081 145.123L363.472 144.372C363.738 144.513 364.004 144.638 364.27 144.763L363.926 145.53V145.545ZM176.988 145.514L176.723 144.716C177.004 144.622 177.286 144.528 177.567 144.419L177.865 145.217C177.567 145.326 177.286 145.436 176.973 145.53L176.988 145.514ZM497.723 145.42L497.41 144.638C497.692 144.528 497.958 144.403 498.239 144.278L498.584 145.045C498.302 145.17 498.005 145.295 497.723 145.42ZM483.988 145.311C483.691 145.185 483.41 145.06 483.128 144.92L483.503 144.169C483.769 144.294 484.035 144.419 484.317 144.544L483.988 145.326V145.311ZM374.016 145.264L373.547 144.56C373.781 144.403 374.016 144.231 374.251 144.044L374.782 144.701C374.532 144.904 374.282 145.092 374.016 145.279V145.264ZM585.889 145.17L585.247 144.513L585.858 143.918L586.499 144.575L585.904 145.17H585.889ZM418.85 145.107L418.505 144.341C418.771 144.216 419.037 144.09 419.303 143.95L419.71 144.701C419.428 144.841 419.147 144.982 418.865 145.123L418.85 145.107ZM282.237 144.998C281.939 144.888 281.658 144.763 281.376 144.638L281.72 143.856C282.002 143.981 282.268 144.09 282.55 144.2L282.237 144.982V144.998ZM407.07 144.998C406.836 144.794 406.601 144.56 406.382 144.325L407.008 143.762C407.211 143.981 407.414 144.184 407.633 144.372L407.086 145.013L407.07 144.998ZM163.269 144.92C163.003 144.763 162.737 144.591 162.472 144.419L162.941 143.715C163.191 143.887 163.441 144.044 163.692 144.2L163.254 144.92H163.269ZM178.741 144.857L178.412 144.075C178.694 143.95 178.96 143.84 179.225 143.699L179.585 144.466C179.304 144.607 179.022 144.732 178.725 144.857H178.741ZM297.708 144.826L297.285 144.09C297.536 143.95 297.786 143.778 298.036 143.621L298.506 144.325C298.24 144.497 297.974 144.669 297.708 144.826ZM362.252 144.654C361.986 144.497 361.72 144.309 361.47 144.137L361.955 143.449C362.205 143.621 362.455 143.778 362.706 143.95L362.268 144.669L362.252 144.654ZM499.428 144.654L499.053 143.903C499.319 143.762 499.585 143.637 499.866 143.48L500.273 144.231C499.991 144.372 499.726 144.528 499.444 144.654H499.428ZM98.7876 144.654L98.0054 144.341L98.3496 143.48L99.1318 143.793L98.8033 144.654H98.7876ZM482.283 144.482C482.002 144.325 481.736 144.169 481.485 143.997L481.939 143.293C482.189 143.449 482.44 143.605 482.706 143.746L482.283 144.482ZM280.516 144.263C280.234 144.122 279.953 143.981 279.687 143.825L280.094 143.089C280.359 143.23 280.625 143.371 280.891 143.512L280.516 144.263ZM420.508 144.231L420.054 143.512C420.304 143.355 420.555 143.183 420.805 143.027L421.29 143.715C421.04 143.903 420.774 144.075 420.508 144.231ZM375.486 144.059L374.892 143.449C375.095 143.246 375.299 143.027 375.502 142.808L376.143 143.371C375.924 143.605 375.705 143.84 375.486 144.059ZM180.414 144.059L180.023 143.308C180.289 143.167 180.555 143.011 180.805 142.87L181.243 143.59C180.978 143.746 180.696 143.903 180.43 144.059H180.414ZM161.689 143.871C161.439 143.684 161.204 143.48 160.97 143.277L161.517 142.636C161.752 142.839 161.971 143.027 162.206 143.214L161.689 143.887V143.871ZM584.559 143.871L583.902 143.214L584.497 142.62L585.154 143.277L584.559 143.871ZM299.257 143.793L298.74 143.121C298.975 142.933 299.21 142.745 299.444 142.557L299.992 143.199C299.757 143.402 299.507 143.605 299.257 143.793ZM501.055 143.793L500.633 143.058C500.899 142.902 501.149 142.761 501.415 142.589L501.853 143.308C501.587 143.48 501.321 143.637 501.055 143.778V143.793ZM405.756 143.606C405.568 143.355 405.381 143.089 405.209 142.823L405.928 142.37C406.085 142.62 406.257 142.87 406.429 143.105L405.756 143.606ZM360.688 143.606C360.438 143.418 360.203 143.214 359.968 142.995L360.531 142.37C360.75 142.573 360.985 142.761 361.22 142.948L360.688 143.606ZM480.688 143.48C480.437 143.293 480.187 143.105 479.937 142.902L480.469 142.245C480.703 142.432 480.938 142.62 481.173 142.792L480.672 143.48H480.688ZM278.858 143.386C278.592 143.23 278.326 143.058 278.06 142.886L278.529 142.182C278.779 142.354 279.03 142.51 279.296 142.667L278.858 143.386ZM422.041 143.167L421.509 142.51C421.744 142.323 421.963 142.135 422.182 141.932L422.76 142.557C422.526 142.776 422.291 142.98 422.041 143.167ZM182.026 143.121L181.556 142.417C181.807 142.245 182.057 142.088 182.292 141.9L182.792 142.589C182.542 142.776 182.276 142.948 182.026 143.121ZM99.4446 142.964L98.6625 142.651L99.0066 141.791L99.7888 142.119L99.4446 142.964ZM502.651 142.839L502.197 142.119C502.447 141.963 502.713 141.791 502.964 141.619L503.433 142.323C503.167 142.495 502.917 142.667 502.651 142.839ZM160.266 142.667C160.047 142.448 159.828 142.229 159.609 141.994L160.219 141.415C160.422 141.634 160.641 141.853 160.86 142.057L160.281 142.667H160.266ZM376.738 142.667L376.065 142.151C376.253 141.916 376.425 141.681 376.597 141.431L377.285 141.916C377.098 142.182 376.91 142.432 376.722 142.683L376.738 142.667ZM300.696 142.589L300.117 141.979C300.336 141.775 300.555 141.556 300.774 141.353L301.368 141.947C301.149 142.166 300.915 142.385 300.696 142.604V142.589ZM583.261 142.589L582.604 141.947L583.198 141.337L583.855 141.994L583.261 142.589ZM277.293 142.354C277.043 142.166 276.793 141.979 276.542 141.791L277.059 141.118C277.293 141.306 277.528 141.478 277.778 141.666L277.293 142.354ZM359.28 142.354C359.061 142.135 358.842 141.916 358.623 141.681L359.233 141.103C359.436 141.322 359.655 141.541 359.874 141.744L359.28 142.354ZM479.233 142.291C478.998 142.088 478.779 141.869 478.56 141.634L479.155 141.04C479.358 141.259 479.577 141.462 479.796 141.666L479.233 142.291ZM183.543 142.01L183.011 141.353C183.246 141.165 183.48 140.977 183.699 140.774L184.247 141.415C184.012 141.619 183.778 141.822 183.527 142.01H183.543ZM404.724 141.994C404.583 141.728 404.427 141.447 404.301 141.15L405.068 140.79C405.209 141.071 405.334 141.337 405.475 141.588L404.739 141.994H404.724ZM423.418 141.885L422.807 141.29C423.011 141.071 423.214 140.852 423.418 140.633L424.059 141.181C423.855 141.415 423.637 141.65 423.418 141.869V141.885ZM504.184 141.791L503.699 141.103C503.949 140.93 504.2 140.758 504.45 140.571L504.95 141.259C504.7 141.447 504.45 141.619 504.2 141.807L504.184 141.791ZM158.967 141.29C158.764 141.056 158.561 140.821 158.373 140.571L159.03 140.039C159.218 140.273 159.421 140.508 159.609 140.727L158.967 141.275V141.29ZM581.931 141.29L581.274 140.649L581.868 140.039L582.541 140.68L581.947 141.29H581.931ZM100.149 141.259L99.3664 140.93L99.7262 140.07L100.508 140.399L100.149 141.243V141.259ZM302.01 141.259L301.384 140.68C301.587 140.461 301.791 140.227 301.978 140.008L302.62 140.555C302.416 140.79 302.213 141.024 301.994 141.259H302.01ZM275.807 141.212C275.573 141.009 275.338 140.805 275.103 140.586L275.682 139.961C275.901 140.164 276.136 140.367 276.355 140.555L275.807 141.196V141.212ZM377.802 141.134L377.082 140.68C377.238 140.43 377.395 140.164 377.551 139.914L378.287 140.336C378.13 140.618 377.958 140.884 377.802 141.15V141.134ZM357.966 141.009C357.763 140.774 357.559 140.539 357.371 140.289L358.028 139.757C358.216 139.992 358.42 140.227 358.607 140.461L357.966 141.009ZM477.887 140.977C477.684 140.743 477.481 140.508 477.277 140.258L477.934 139.726C478.122 139.961 478.31 140.195 478.513 140.414L477.872 140.977H477.887ZM184.935 140.821L184.356 140.211C184.575 140.008 184.795 139.789 184.998 139.585L185.608 140.18C185.389 140.399 185.17 140.618 184.935 140.837V140.821ZM505.67 140.727L505.169 140.054C505.42 139.867 505.654 139.679 505.905 139.491L506.421 140.164C506.171 140.352 505.936 140.539 505.686 140.727H505.67ZM424.638 140.492L423.965 139.976C424.153 139.742 424.325 139.507 424.497 139.257L425.201 139.742C425.029 140.008 424.841 140.258 424.638 140.508V140.492ZM403.879 140.336C403.754 140.054 403.629 139.757 403.519 139.476L404.301 139.163C404.411 139.444 404.536 139.726 404.646 140.008L403.863 140.352L403.879 140.336ZM580.586 140.039L579.913 139.413L580.492 138.803L581.165 139.444L580.586 140.054V140.039ZM274.415 139.961C274.196 139.742 273.977 139.523 273.758 139.288L274.368 138.709C274.571 138.928 274.79 139.147 275.009 139.351L274.415 139.961ZM157.779 139.867C157.591 139.616 157.403 139.366 157.231 139.116L157.919 138.631C158.091 138.881 158.279 139.132 158.451 139.366L157.779 139.882V139.867ZM303.214 139.867L302.557 139.335C302.745 139.1 302.933 138.866 303.12 138.615L303.793 139.132C303.605 139.382 303.418 139.632 303.214 139.867ZM507.14 139.601L506.609 138.944C506.843 138.756 507.078 138.568 507.328 138.365L507.86 139.022C507.625 139.225 507.375 139.413 507.14 139.601ZM100.853 139.601L100.07 139.257L100.446 138.412L101.212 138.756L100.837 139.601H100.853ZM356.777 139.585C356.589 139.335 356.402 139.085 356.214 138.834L356.902 138.349C357.074 138.6 357.262 138.85 357.45 139.085L356.777 139.601V139.585ZM378.725 139.554L377.989 139.147C378.13 138.881 378.271 138.615 378.412 138.334L379.163 138.725C379.022 139.006 378.865 139.272 378.725 139.554ZM476.699 139.538C476.511 139.288 476.339 139.022 476.167 138.772L476.871 138.302C477.043 138.553 477.215 138.803 477.387 139.038L476.699 139.538ZM186.234 139.507L185.608 138.944C185.811 138.725 185.999 138.49 186.202 138.255L186.844 138.803C186.64 139.038 186.437 139.272 186.218 139.507H186.234ZM425.701 138.975L424.982 138.521C425.138 138.271 425.295 138.005 425.435 137.755L426.171 138.162C426.014 138.443 425.858 138.709 425.686 138.975H425.701ZM579.24 138.819L578.615 138.24L578.849 137.88L579.194 137.614L579.819 138.193L579.24 138.803V138.819ZM273.117 138.647C272.913 138.412 272.71 138.177 272.507 137.943L273.164 137.395C273.351 137.63 273.555 137.864 273.758 138.083L273.132 138.647H273.117ZM403.175 138.647C403.066 138.365 402.972 138.068 402.862 137.771L403.66 137.489C403.77 137.786 403.863 138.068 403.973 138.349L403.175 138.647ZM508.58 138.474L508.032 137.817L508.736 137.223L509.284 137.864L508.58 138.459V138.474ZM304.341 138.428L303.652 137.927C303.824 137.677 304.012 137.426 304.184 137.176L304.872 137.661C304.7 137.911 304.513 138.177 304.341 138.428ZM156.683 138.396C156.511 138.146 156.339 137.88 156.183 137.614L156.902 137.16C157.059 137.426 157.231 137.677 157.403 137.927L156.699 138.396H156.683ZM355.682 138.115C355.51 137.864 355.338 137.598 355.166 137.333L355.87 136.879C356.042 137.129 356.198 137.395 356.37 137.63L355.666 138.115H355.682ZM187.438 138.115L186.766 137.598C186.953 137.364 187.125 137.129 187.313 136.879L188.001 137.379C187.814 137.63 187.626 137.88 187.438 138.13V138.115ZM475.666 138.005C475.51 137.739 475.353 137.473 475.197 137.192L475.932 136.785C476.073 137.051 476.229 137.317 476.386 137.567L475.666 138.005ZM101.588 137.958L100.821 137.614L101.212 136.769L101.979 137.114L101.588 137.958ZM379.585 137.927L378.834 137.552C378.975 137.286 379.1 137.004 379.225 136.722L379.992 137.082C379.867 137.364 379.726 137.645 379.585 137.927ZM577.879 137.583L577.207 136.957L577.77 136.331L578.458 136.957L577.879 137.583ZM426.624 137.364L425.873 136.973C426.014 136.707 426.139 136.441 426.265 136.159L427.031 136.519C426.89 136.801 426.765 137.082 426.624 137.364ZM509.988 137.286L509.44 136.644L510.144 136.034L510.691 136.676L509.988 137.286ZM271.912 137.223C271.724 136.973 271.537 136.738 271.349 136.488L272.022 135.987C272.209 136.238 272.381 136.472 272.569 136.707L271.896 137.223H271.912ZM305.389 136.895L304.685 136.425C304.857 136.175 305.013 135.909 305.185 135.659L305.905 136.112C305.733 136.378 305.561 136.644 305.389 136.895ZM402.549 136.895L402.268 136.018L403.066 135.753L403.347 136.629L402.549 136.895ZM155.682 136.816C155.526 136.55 155.369 136.284 155.213 136.018L155.948 135.596C156.105 135.862 156.261 136.128 156.418 136.378L155.698 136.816H155.682ZM188.549 136.597L187.845 136.128C188.017 135.878 188.189 135.627 188.346 135.377L189.065 135.831C188.893 136.097 188.721 136.363 188.549 136.613V136.597ZM354.665 136.55C354.509 136.284 354.337 136.018 354.18 135.753L354.9 135.315C355.056 135.58 355.213 135.831 355.385 136.097L354.665 136.55ZM474.774 136.363C474.634 136.081 474.508 135.799 474.368 135.518L475.134 135.174C475.259 135.455 475.385 135.721 475.525 135.987L474.774 136.363ZM576.519 136.363L575.83 135.753L576.393 135.127L577.082 135.753L576.519 136.378V136.363ZM102.37 136.3L101.603 135.94L101.994 135.096L102.761 135.455L102.37 136.284V136.3ZM380.398 136.269L379.632 135.909L380.007 135.08L380.774 135.424L380.383 136.269H380.398ZM511.395 136.081L510.832 135.44L511.521 134.83L512.084 135.455L511.395 136.065V136.081ZM270.817 135.737C270.645 135.487 270.473 135.221 270.301 134.97L271.005 134.501C271.177 134.751 271.333 135.002 271.521 135.252L270.833 135.737H270.817ZM427.422 135.674L426.64 135.346C426.765 135.064 426.875 134.783 426.984 134.501L427.766 134.814C427.657 135.111 427.532 135.393 427.422 135.674ZM306.406 135.346L305.686 134.908C305.842 134.642 305.999 134.392 306.155 134.126L306.875 134.564C306.718 134.83 306.546 135.096 306.39 135.361L306.406 135.346ZM154.759 135.221C154.619 134.955 154.462 134.673 154.306 134.407L155.057 134.001C155.197 134.266 155.354 134.532 155.495 134.798L154.759 135.205V135.221ZM402.002 135.142L401.72 134.266L402.534 134.016L402.815 134.908L402.002 135.158V135.142ZM575.142 135.142L574.454 134.532L575.017 133.891L575.721 134.501L575.158 135.142H575.142ZM189.566 135.049L188.846 134.611C189.003 134.36 189.159 134.094 189.3 133.828L190.035 134.251C189.879 134.517 189.722 134.783 189.566 135.049ZM353.727 134.97L353.273 134.173L354.008 133.75L354.462 134.548L353.727 134.97ZM512.772 134.861L512.209 134.235L512.897 133.625L513.46 134.251L512.772 134.877V134.861ZM474.008 134.673C473.883 134.392 473.773 134.094 473.664 133.797L474.462 133.5C474.571 133.781 474.681 134.063 474.79 134.345L474.008 134.673ZM103.152 134.642L102.386 134.266L102.792 133.437L103.543 133.813L103.136 134.642H103.152ZM381.149 134.595L380.383 134.251L380.758 133.406L381.525 133.75L381.149 134.595ZM269.785 134.188C269.628 133.922 269.456 133.656 269.3 133.39L270.019 132.952C270.176 133.218 270.332 133.469 270.489 133.735L269.769 134.173L269.785 134.188ZM428.095 133.938L427.297 133.656C427.391 133.375 427.5 133.078 427.594 132.796L428.392 133.062C428.298 133.359 428.204 133.656 428.095 133.938ZM573.75 133.938L573.046 133.343L573.593 132.702L574.297 133.312L573.75 133.954V133.938ZM307.36 133.766L306.625 133.343C306.781 133.078 306.937 132.812 307.078 132.546L307.813 132.968C307.657 133.234 307.501 133.5 307.344 133.766H307.36ZM514.133 133.625L513.57 132.999L514.243 132.374L514.821 132.999L514.133 133.625ZM153.868 133.609L153.445 132.78L154.196 132.389L154.619 133.203L153.868 133.594V133.609ZM190.473 133.437L189.722 133.046C189.863 132.78 190.004 132.514 190.145 132.233L190.895 132.608C190.755 132.89 190.614 133.156 190.473 133.437ZM401.423 133.406L401.141 132.53L401.939 132.264L402.221 133.14L401.407 133.39L401.423 133.406ZM352.788 133.359L352.35 132.546L353.101 132.155L353.539 132.968L352.788 133.375V133.359ZM103.966 132.984L103.215 132.608L103.621 131.81L104.372 132.186L103.966 132.984ZM473.335 132.937C473.226 132.64 473.132 132.342 473.038 132.045L473.836 131.779C473.93 132.076 474.024 132.358 474.133 132.64L473.335 132.921V132.937ZM381.916 132.905L381.149 132.561L381.54 131.717L382.307 132.076L381.916 132.905ZM572.357 132.733L571.653 132.139L572.201 131.498L572.905 132.092L572.357 132.733ZM268.846 132.577C268.69 132.311 268.549 132.029 268.392 131.764L269.143 131.372C269.284 131.638 269.44 131.904 269.581 132.17L268.846 132.577ZM515.494 132.374L514.915 131.748L515.588 131.122L516.167 131.748L515.494 132.374ZM428.674 132.17L427.86 131.936C427.938 131.654 428.032 131.357 428.11 131.06L428.924 131.279C428.846 131.576 428.752 131.873 428.674 132.186V132.17ZM308.283 132.17L307.548 131.764L308.001 130.966L308.736 131.372L308.283 132.186V132.17ZM153.039 131.951L152.632 131.122L153.383 130.747L153.789 131.576L153.039 131.951ZM191.333 131.764L190.567 131.404C190.692 131.138 190.833 130.856 190.958 130.575L191.724 130.919C191.599 131.2 191.459 131.482 191.333 131.764ZM351.943 131.717L351.521 130.887L352.272 130.496L352.694 131.31L351.943 131.701V131.717ZM400.875 131.654C400.782 131.357 400.672 131.075 400.578 130.794L401.376 130.512C401.486 130.809 401.579 131.091 401.673 131.388L400.875 131.654ZM570.95 131.56L570.23 130.981L570.762 130.324L571.481 130.919L570.95 131.576V131.56ZM104.81 131.357L104.059 130.966L104.45 130.23L105.248 130.543L104.81 131.357ZM382.698 131.247L381.931 130.887C382.072 130.606 382.197 130.324 382.338 130.043L383.089 130.418C382.948 130.684 382.823 130.966 382.682 131.247H382.698ZM472.772 131.169C472.694 130.872 472.6 130.575 472.522 130.277L473.335 130.058C473.413 130.356 473.492 130.653 473.586 130.934L472.772 131.169ZM516.855 131.138L516.276 130.512L516.964 129.886L517.543 130.512L516.855 131.138ZM267.97 130.95C267.829 130.668 267.688 130.403 267.548 130.121L268.314 129.746C268.455 130.027 268.58 130.293 268.721 130.559L267.97 130.95ZM309.174 130.543L308.439 130.137L308.877 129.323L309.628 129.73L309.19 130.543H309.174ZM569.51 130.403L568.791 129.824L569.323 129.167L570.042 129.746L569.51 130.403ZM429.159 130.371L428.329 130.168C428.408 129.871 428.47 129.573 428.549 129.276L429.378 129.464C429.315 129.761 429.237 130.074 429.159 130.371ZM152.225 130.293L151.834 129.464L152.601 129.104L152.992 129.933L152.225 130.293ZM351.083 130.074L350.66 129.245L351.411 128.869L351.834 129.699L351.083 130.074ZM192.084 130.074L191.302 129.746C191.427 129.464 191.537 129.182 191.662 128.901L192.444 129.214C192.335 129.495 192.209 129.792 192.084 130.074ZM400.25 129.933C400.14 129.652 400.031 129.37 399.921 129.089L400.703 128.76C400.829 129.042 400.938 129.339 401.048 129.636L400.25 129.933ZM518.216 129.886L517.637 129.261L518.325 128.635L518.889 129.261L518.2 129.886H518.216ZM105.671 129.73L104.935 129.323L105.373 128.51L106.109 128.916L105.671 129.714V129.73ZM383.511 129.605L382.761 129.214C382.901 128.932 383.058 128.666 383.199 128.385L383.934 128.791C383.793 129.057 383.637 129.323 383.496 129.589L383.511 129.605ZM472.287 129.37C472.209 129.073 472.146 128.776 472.068 128.463L472.897 128.275C472.96 128.572 473.038 128.87 473.116 129.167L472.303 129.37H472.287ZM267.156 129.292C267.031 129.01 266.906 128.729 266.765 128.447L267.532 128.103C267.657 128.385 267.782 128.666 267.907 128.932L267.141 129.292H267.156ZM568.071 129.261L567.352 128.697L567.868 128.025L568.603 128.588L568.087 129.261H568.071ZM310.05 128.932L309.3 128.525L309.738 127.712L310.488 128.103L310.05 128.916V128.932ZM519.593 128.666L519.029 128.04L519.718 127.43L520.281 128.056L519.593 128.666ZM151.427 128.635L151.036 127.806L151.803 127.446L152.194 128.275L151.427 128.635ZM429.565 128.572L428.736 128.4C428.799 128.103 428.861 127.806 428.924 127.509L429.753 127.665C429.69 127.978 429.628 128.275 429.565 128.572ZM350.254 128.431L349.847 127.602L350.598 127.227L351.005 128.056L350.254 128.431ZM192.788 128.353L192.006 128.04C192.116 127.759 192.225 127.477 192.335 127.18L193.132 127.477C193.023 127.774 192.913 128.056 192.804 128.353H192.788ZM399.546 128.244C399.421 127.962 399.296 127.696 399.155 127.43L399.906 127.055C400.046 127.336 400.172 127.618 400.312 127.9L399.546 128.244ZM566.601 128.134L565.865 127.587L566.366 126.914L567.101 127.477L566.585 128.15L566.601 128.134ZM106.547 128.134L105.811 127.712L106.265 126.914L107 127.336L106.547 128.134ZM384.372 128.025L383.652 127.587C383.809 127.321 383.981 127.055 384.153 126.789L384.857 127.243C384.7 127.493 384.544 127.743 384.387 128.009L384.372 128.025ZM266.374 127.602C266.249 127.321 266.14 127.039 266.015 126.742L266.797 126.414C266.906 126.695 267.031 126.977 267.156 127.258L266.374 127.587V127.602ZM471.849 127.571C471.787 127.274 471.724 126.961 471.661 126.664L472.491 126.507C472.553 126.805 472.616 127.102 472.678 127.399L471.849 127.571ZM520.938 127.446L520.375 126.805L521.079 126.194L521.626 126.836L520.938 127.446ZM310.895 127.305L310.144 126.914L310.582 126.101L311.333 126.492L310.895 127.305ZM565.115 127.039L564.364 126.492L564.864 125.803L565.615 126.351L565.115 127.039ZM150.614 126.945L150.223 126.101L150.989 125.741L151.38 126.586L150.614 126.945ZM349.393 126.773L348.987 125.944L349.738 125.569L350.144 126.398L349.393 126.773ZM429.878 126.742L429.049 126.601C429.096 126.304 429.159 126.007 429.205 125.694L430.035 125.819C429.988 126.132 429.941 126.429 429.878 126.742ZM398.701 126.633C398.545 126.367 398.388 126.116 398.232 125.866L398.936 125.412C399.108 125.678 399.264 125.944 399.421 126.226L398.685 126.648L398.701 126.633ZM193.398 126.601L192.601 126.32C192.71 126.038 192.804 125.741 192.898 125.459L193.696 125.725C193.602 126.022 193.492 126.32 193.398 126.601ZM107.438 126.523L106.719 126.085L107.188 125.287L107.908 125.725L107.438 126.523ZM385.342 126.476L384.653 125.991C384.841 125.725 385.029 125.475 385.217 125.24L385.874 125.772C385.686 126.007 385.514 126.241 385.342 126.492V126.476ZM522.314 126.194L521.767 125.553L522.471 124.959L523.018 125.6L522.314 126.194ZM563.613 125.929C563.362 125.741 563.112 125.569 562.862 125.397L563.347 124.708C563.597 124.88 563.847 125.068 564.113 125.24L563.613 125.929ZM265.655 125.85C265.545 125.569 265.436 125.272 265.311 124.99L266.108 124.693C266.218 124.974 266.327 125.272 266.437 125.537L265.655 125.85ZM471.474 125.71C471.411 125.397 471.364 125.099 471.317 124.787L472.146 124.646C472.193 124.943 472.24 125.24 472.303 125.553L471.474 125.71ZM311.756 125.647L311.005 125.256L311.443 124.442L312.178 124.849L311.74 125.663L311.756 125.647ZM149.832 125.256L149.441 124.411L150.207 124.051L150.598 124.896L149.832 125.256ZM397.731 125.131C397.543 124.896 397.356 124.677 397.152 124.458L397.778 123.879C397.997 124.114 398.2 124.349 398.404 124.615L397.731 125.131ZM348.58 125.115L348.173 124.302L348.924 123.926L349.346 124.755L348.596 125.131L348.58 125.115ZM386.468 125.099L385.842 124.521C386.061 124.286 386.28 124.051 386.515 123.848L387.094 124.474C386.875 124.677 386.671 124.88 386.468 125.099ZM523.722 125.037L523.175 124.38L523.894 123.785L524.426 124.442L523.722 125.021V125.037ZM108.393 124.959L107.673 124.521L108.158 123.738L108.878 124.192L108.393 124.974V124.959ZM430.191 124.896L429.346 124.771C429.393 124.474 429.44 124.161 429.471 123.864L430.316 123.973C430.269 124.286 430.238 124.583 430.191 124.896ZM562.127 124.896L561.36 124.38L561.829 123.676L562.596 124.192L562.127 124.896ZM194.008 124.849L193.211 124.583C193.304 124.286 193.398 124.004 193.492 123.707L194.306 123.958C194.212 124.255 194.118 124.552 194.024 124.849H194.008ZM264.998 124.145L264.685 123.269L265.483 122.988L265.796 123.848L264.998 124.145ZM312.647 124.051L311.912 123.645L312.366 122.831L313.101 123.238L312.663 124.051H312.647ZM387.766 123.911L387.25 123.238C387.5 123.035 387.766 122.862 388.032 122.69L388.486 123.41C388.236 123.566 388.001 123.723 387.766 123.911ZM471.192 123.911L471.067 122.988L471.912 122.878L472.053 123.785L471.208 123.911H471.192ZM525.162 123.895L524.63 123.238C524.88 123.05 525.115 122.847 525.365 122.659L525.881 123.332C525.646 123.519 525.396 123.707 525.162 123.895ZM560.609 123.895L559.843 123.394L560.296 122.69L561.079 123.191L560.609 123.895ZM396.542 123.895C396.323 123.707 396.089 123.535 395.854 123.379L396.308 122.675C396.574 122.847 396.839 123.05 397.09 123.254L396.542 123.895ZM149.065 123.629L148.674 122.8L149.441 122.44L149.832 123.269L149.065 123.629ZM347.751 123.519L347.328 122.706L348.079 122.315L348.502 123.144L347.751 123.535V123.519ZM109.378 123.441L108.674 122.988L109.175 122.205L109.879 122.659L109.378 123.426V123.441ZM194.556 123.113L193.742 122.878C193.821 122.581 193.915 122.299 193.993 122.002L194.806 122.237C194.728 122.534 194.634 122.831 194.54 123.128L194.556 123.113ZM430.441 123.113L429.597 123.003L429.706 122.096L430.551 122.19L430.441 123.113ZM389.237 123.035L388.877 122.268C389.174 122.127 389.471 122.018 389.784 121.908L390.05 122.706C389.769 122.8 389.503 122.894 389.252 123.019L389.237 123.035ZM395.103 122.972C394.853 122.847 394.587 122.753 394.305 122.659L394.556 121.846C394.868 121.94 395.166 122.065 395.463 122.19L395.103 122.956V122.972ZM559.045 122.925L558.263 122.44L558.701 121.721L559.483 122.205L559.029 122.925H559.045ZM526.585 122.8L526.084 122.127C526.335 121.94 526.585 121.752 526.835 121.58L527.336 122.268C527.086 122.44 526.851 122.628 526.601 122.816L526.585 122.8ZM390.864 122.503L390.707 121.674C391.02 121.611 391.333 121.58 391.662 121.548L391.724 122.393C391.427 122.409 391.145 122.456 390.864 122.503ZM313.523 122.471L312.788 122.049L313.242 121.251L313.977 121.674L313.523 122.471ZM393.461 122.471C393.195 122.424 392.897 122.393 392.6 122.378L392.631 121.533C392.96 121.533 393.288 121.58 393.601 121.627L393.461 122.456V122.471ZM264.372 122.44L264.075 121.564L264.873 121.298L265.17 122.174L264.372 122.456V122.44ZM470.911 122.112C470.864 121.814 470.832 121.502 470.801 121.189L471.646 121.095C471.677 121.408 471.724 121.705 471.755 122.002L470.911 122.112ZM148.252 121.986L147.845 121.157L148.596 120.782L149.003 121.611L148.236 121.971L148.252 121.986ZM557.465 121.971C557.199 121.814 556.949 121.658 556.683 121.502L557.105 120.766C557.371 120.923 557.637 121.079 557.903 121.236L557.465 121.955V121.971ZM110.364 121.924L109.66 121.455C109.832 121.189 110.004 120.938 110.192 120.688L110.88 121.173C110.708 121.423 110.536 121.674 110.364 121.94V121.924ZM346.875 121.908L346.437 121.095L347.172 120.688L347.61 121.502L346.859 121.893L346.875 121.908ZM528.056 121.736L527.571 121.048C527.821 120.876 528.087 120.688 528.337 120.516L528.806 121.22C528.556 121.392 528.306 121.564 528.056 121.736ZM195.041 121.361L194.227 121.142L194.462 120.25L195.276 120.469L195.041 121.361ZM430.629 121.282L429.784 121.189L429.878 120.281L430.723 120.36L430.629 121.282ZM555.885 121.063C555.619 120.907 555.353 120.766 555.087 120.625L555.494 119.89C555.76 120.031 556.041 120.187 556.307 120.344L555.901 121.079L555.885 121.063ZM314.431 120.907L313.695 120.485C313.852 120.219 314.008 119.953 314.165 119.687L314.884 120.125C314.728 120.391 314.571 120.657 314.415 120.907H314.431ZM529.573 120.719L529.119 120.015C529.385 119.843 529.636 119.687 529.901 119.515L530.339 120.234C530.089 120.391 529.823 120.563 529.573 120.719ZM263.778 120.704C263.684 120.406 263.59 120.109 263.496 119.812L264.309 119.562C264.403 119.859 264.497 120.141 264.591 120.438L263.793 120.704H263.778ZM111.396 120.438L110.708 119.953L111.255 119.202L111.944 119.703L111.412 120.453L111.396 120.438ZM147.423 120.375L147 119.562L147.751 119.171L148.174 120L147.423 120.375ZM345.983 120.328C345.827 120.062 345.686 119.796 345.529 119.53L346.265 119.108C346.421 119.374 346.578 119.64 346.718 119.922L345.983 120.328ZM470.676 120.313L470.582 119.39L471.427 119.311L471.521 120.219L470.676 120.313ZM554.258 120.219C553.992 120.078 553.711 119.937 553.445 119.812L553.82 119.061C554.102 119.202 554.368 119.343 554.649 119.484L554.258 120.234V120.219ZM531.106 119.781L530.684 119.046C530.95 118.889 531.216 118.733 531.497 118.592L531.904 119.327C531.638 119.468 531.372 119.624 531.106 119.781ZM195.495 119.593L194.681 119.39C194.759 119.092 194.837 118.795 194.9 118.498L195.729 118.701C195.651 118.999 195.573 119.296 195.51 119.593H195.495ZM430.801 119.468L429.956 119.39L430.035 118.467L430.879 118.529L430.801 119.452V119.468ZM552.616 119.405C552.334 119.28 552.068 119.139 551.786 119.014L552.131 118.248C552.412 118.373 552.694 118.498 552.975 118.639L552.616 119.405ZM315.369 119.358L314.65 118.905C314.822 118.639 314.978 118.373 315.15 118.123L315.87 118.576C315.698 118.827 315.541 119.092 315.385 119.343L315.369 119.358ZM112.476 118.967L111.803 118.467C111.991 118.216 112.178 117.966 112.366 117.731L113.039 118.248C112.851 118.482 112.663 118.733 112.476 118.967ZM263.214 118.967L262.948 118.076L263.762 117.841L264.028 118.717L263.214 118.967ZM532.717 118.92L532.326 118.169C532.608 118.029 532.889 117.888 533.171 117.747L533.531 118.514C533.265 118.639 532.983 118.78 532.717 118.92ZM146.578 118.764C146.437 118.498 146.281 118.232 146.14 117.966L146.875 117.559C147.032 117.825 147.172 118.107 147.313 118.373L146.562 118.764H146.578ZM345.06 118.764C344.904 118.498 344.747 118.248 344.575 117.982L345.295 117.528C345.451 117.794 345.623 118.06 345.78 118.326L345.06 118.764ZM550.957 118.686C550.676 118.561 550.394 118.451 550.113 118.342L550.425 117.559C550.707 117.669 551.004 117.794 551.286 117.919L550.957 118.701V118.686ZM470.488 118.498L470.41 117.575L471.255 117.512L471.333 118.42L470.488 118.498ZM534.36 118.154L534.031 117.372C534.313 117.247 534.61 117.121 534.892 117.012L535.205 117.794C534.923 117.904 534.641 118.013 534.36 118.138V118.154ZM549.268 118.013C548.986 117.904 548.689 117.81 548.407 117.716L548.673 116.918C548.971 117.012 549.252 117.121 549.549 117.231L549.252 118.029L549.268 118.013ZM316.37 117.841L315.666 117.372C315.838 117.106 316.011 116.855 316.183 116.605L316.871 117.09C316.699 117.34 316.527 117.591 316.355 117.841H316.37ZM195.964 117.825L195.135 117.638L195.338 116.746L196.167 116.934L195.964 117.841V117.825ZM430.989 117.653L430.144 117.591L430.207 116.668L431.051 116.73L430.989 117.653ZM113.617 117.544L112.96 117.012C113.148 116.762 113.352 116.527 113.539 116.292L114.196 116.824C114.009 117.059 113.805 117.293 113.617 117.544ZM536.049 117.497L535.768 116.699C536.065 116.59 536.362 116.496 536.659 116.417L536.894 117.231C536.612 117.309 536.315 117.403 536.034 117.512L536.049 117.497ZM547.547 117.434C547.25 117.34 546.968 117.262 546.671 117.184L546.89 116.371C547.187 116.449 547.485 116.543 547.797 116.636L547.547 117.45V117.434ZM344.106 117.215C343.934 116.965 343.777 116.699 343.605 116.464L344.309 115.995C344.481 116.245 344.653 116.511 344.826 116.777L344.122 117.231L344.106 117.215ZM262.698 117.215L262.448 116.324L263.261 116.105L263.512 116.996L262.698 117.231V117.215ZM145.702 117.184C145.545 116.918 145.389 116.652 145.248 116.386L145.968 115.948C146.124 116.214 146.281 116.48 146.437 116.746L145.702 117.168V117.184ZM537.77 116.996L537.567 116.183C537.88 116.105 538.177 116.042 538.49 115.979L538.646 116.809C538.349 116.871 538.067 116.934 537.77 116.996ZM545.779 116.996C545.482 116.934 545.185 116.871 544.903 116.809L545.06 115.979C545.373 116.042 545.67 116.105 545.983 116.167L545.795 116.996H545.779ZM470.332 116.683L470.254 115.76L471.098 115.698L471.177 116.621L470.332 116.683ZM544.012 116.668C543.715 116.621 543.417 116.59 543.12 116.574L543.198 115.729C543.511 115.76 543.824 115.792 544.137 115.839L544.027 116.683L544.012 116.668ZM539.538 116.668L539.413 115.823C539.725 115.776 540.038 115.745 540.351 115.713L540.429 116.558C540.132 116.59 539.835 116.621 539.538 116.668ZM542.228 116.511H541.743C541.603 116.511 541.462 116.511 541.305 116.511L541.274 115.667C541.431 115.667 541.587 115.667 541.728 115.667H542.119L542.213 116.527L542.228 116.511ZM317.403 116.371L316.714 115.87C316.902 115.62 317.09 115.369 317.262 115.119L317.935 115.635C317.747 115.87 317.575 116.12 317.387 116.371H317.403ZM114.775 116.167L114.134 115.62C114.337 115.385 114.54 115.15 114.744 114.916L115.37 115.479C115.166 115.713 114.963 115.932 114.775 116.167ZM196.371 116.042L195.541 115.854L195.729 114.963L196.558 115.135L196.355 116.042H196.371ZM431.098 115.823L430.254 115.76L430.316 114.837L431.161 114.9L431.098 115.823ZM343.073 115.729C342.886 115.479 342.714 115.229 342.526 114.994L343.199 114.478C343.386 114.728 343.574 114.978 343.762 115.229L343.073 115.729ZM144.763 115.62C144.607 115.354 144.435 115.103 144.278 114.853L144.982 114.399C145.154 114.65 145.311 114.916 145.483 115.182L144.763 115.635V115.62ZM262.198 115.448L261.963 114.556L262.776 114.337L263.011 115.229L262.198 115.448ZM318.513 114.916L317.856 114.384C318.06 114.134 318.248 113.899 318.451 113.664L319.092 114.212C318.905 114.431 318.701 114.665 318.513 114.916ZM470.207 114.837L470.144 113.915L470.989 113.852L471.051 114.775L470.207 114.837ZM115.995 114.791L115.37 114.212C115.573 113.977 115.792 113.758 116.011 113.539L116.621 114.134C116.418 114.353 116.199 114.572 115.995 114.791ZM341.978 114.29C341.791 114.055 341.587 113.821 341.4 113.602L342.041 113.038C342.244 113.273 342.448 113.508 342.651 113.758L341.994 114.29H341.978ZM196.777 114.227L195.948 114.055L196.136 113.148L196.965 113.32L196.777 114.227ZM143.778 114.087C143.606 113.836 143.434 113.586 143.246 113.351L143.934 112.851C144.122 113.101 144.294 113.351 144.482 113.617L143.778 114.102V114.087ZM431.239 113.977L430.394 113.93L430.441 113.007L431.286 113.054L431.239 113.977ZM261.744 113.649L261.509 112.757L262.323 112.554L262.557 113.445L261.744 113.649ZM319.718 113.523L319.092 112.945C319.311 112.71 319.515 112.491 319.734 112.272L320.328 112.866C320.125 113.085 319.906 113.304 319.702 113.523H319.718ZM117.278 113.461L116.684 112.866C116.903 112.647 117.122 112.428 117.356 112.209L117.935 112.819C117.716 113.023 117.497 113.242 117.278 113.461ZM470.097 112.976L470.05 112.053L470.895 112.006L470.942 112.929L470.097 112.976ZM340.79 112.913C340.586 112.694 340.367 112.475 340.164 112.272L340.758 111.662C340.977 111.881 341.196 112.1 341.415 112.335L340.805 112.913H340.79ZM142.698 112.616C142.511 112.381 142.323 112.147 142.12 111.912L142.761 111.365C142.964 111.599 143.152 111.85 143.355 112.1L142.683 112.616H142.698ZM197.153 112.413L196.324 112.241L196.511 111.333L197.34 111.49L197.153 112.397V112.413ZM320.985 112.241L320.406 111.631C320.641 111.412 320.876 111.208 321.11 111.005L321.658 111.646C321.423 111.834 321.204 112.037 320.985 112.241ZM118.608 112.209L118.045 111.584C118.279 111.38 118.514 111.161 118.748 110.974L119.296 111.615C119.061 111.818 118.842 112.006 118.608 112.209ZM431.349 112.131L430.504 112.084L430.551 111.161L431.396 111.208L431.349 112.131ZM261.29 111.865L261.071 110.974L261.9 110.77L262.119 111.662L261.306 111.865H261.29ZM339.507 111.662C339.288 111.458 339.053 111.271 338.818 111.083L339.35 110.426C339.601 110.614 339.835 110.817 340.07 111.036L339.507 111.662ZM141.541 111.239C141.337 111.02 141.134 110.801 140.915 110.582L141.509 109.988C141.728 110.207 141.947 110.442 142.151 110.661L141.525 111.239H141.541ZM469.988 111.146L469.941 110.223L470.785 110.176L470.832 111.099L469.988 111.146ZM322.346 111.083L321.83 110.41C322.08 110.223 322.33 110.035 322.596 109.863L323.081 110.551C322.831 110.723 322.596 110.895 322.362 111.083H322.346ZM119.969 111.036L119.437 110.379C119.687 110.176 119.922 109.988 120.172 109.8L120.688 110.473C120.454 110.661 120.203 110.848 119.969 111.036ZM197.497 110.614L196.668 110.457L196.84 109.55L197.669 109.706L197.497 110.614ZM338.083 110.567C337.833 110.395 337.583 110.238 337.332 110.066L337.77 109.347C338.036 109.503 338.302 109.691 338.553 109.863L338.068 110.551L338.083 110.567ZM431.411 110.317L430.566 110.27L430.613 109.347L431.458 109.378L431.411 110.301V110.317ZM260.821 110.098L260.602 109.206L261.431 109.003L261.65 109.894L260.821 110.098ZM323.817 110.098L323.379 109.378C323.644 109.222 323.926 109.065 324.208 108.909L324.599 109.66C324.333 109.8 324.082 109.941 323.817 110.098ZM140.258 109.988C140.039 109.785 139.804 109.581 139.585 109.394L140.117 108.737C140.352 108.94 140.602 109.143 140.821 109.362L140.242 109.988H140.258ZM121.423 109.957L120.939 109.268C121.189 109.081 121.455 108.909 121.705 108.737L122.174 109.441C121.924 109.613 121.674 109.769 121.423 109.957ZM336.566 109.644C336.3 109.503 336.034 109.378 335.768 109.253L336.112 108.486C336.394 108.611 336.691 108.752 336.957 108.909L336.566 109.66V109.644ZM469.894 109.315L469.847 108.392L470.692 108.361L470.738 109.284L469.894 109.315ZM325.397 109.268L325.052 108.502C325.334 108.377 325.631 108.252 325.928 108.142L326.226 108.94C325.944 109.049 325.678 109.159 325.397 109.268ZM122.941 108.971L122.503 108.252C122.769 108.095 123.05 107.939 123.316 107.782L123.723 108.518C123.457 108.658 123.207 108.815 122.941 108.971ZM334.955 108.924C334.673 108.83 334.391 108.737 334.11 108.658L334.344 107.845C334.657 107.939 334.955 108.033 335.252 108.142L334.955 108.94V108.924ZM138.881 108.846C138.647 108.674 138.396 108.502 138.146 108.345L138.6 107.642C138.866 107.814 139.116 107.986 139.382 108.173L138.881 108.862V108.846ZM197.857 108.815L197.028 108.658L197.2 107.751L198.029 107.907L197.857 108.815ZM327.086 108.658L326.851 107.845C327.149 107.751 327.461 107.688 327.774 107.61L327.946 108.439C327.649 108.502 327.368 108.58 327.086 108.658ZM431.521 108.471L430.676 108.439L430.723 107.516L431.568 107.548L431.521 108.471ZM333.249 108.439C332.968 108.377 332.671 108.33 332.373 108.299L332.483 107.454C332.796 107.501 333.109 107.548 333.422 107.61L333.249 108.439ZM260.414 108.314L260.195 107.407L261.024 107.219L261.243 108.111L260.414 108.314ZM328.822 108.314L328.713 107.469C329.026 107.423 329.339 107.391 329.651 107.376L329.714 108.22C329.417 108.236 329.12 108.267 328.822 108.314ZM331.497 108.22C331.231 108.205 330.981 108.189 330.7 108.189L330.606 107.344H330.731C330.997 107.344 331.278 107.344 331.544 107.376L331.497 108.22ZM124.536 108.111L124.161 107.36C124.443 107.219 124.724 107.094 125.021 106.969L125.35 107.751C125.068 107.876 124.802 108.001 124.536 108.126V108.111ZM137.395 107.907C137.129 107.767 136.863 107.626 136.597 107.501L136.957 106.734C137.239 106.859 137.52 107 137.802 107.157L137.395 107.892V107.907ZM469.831 107.501L469.784 106.578L470.629 106.547L470.676 107.469L469.831 107.501ZM126.195 107.407L125.897 106.609C126.195 106.5 126.492 106.39 126.789 106.296L127.055 107.094C126.773 107.188 126.492 107.282 126.21 107.391L126.195 107.407ZM135.784 107.172C135.502 107.063 135.237 106.969 134.939 106.891L135.174 106.077C135.487 106.171 135.784 106.265 136.081 106.374L135.784 107.172ZM198.201 107.031L197.372 106.891L197.528 105.983L198.357 106.124L198.201 107.031ZM127.915 106.875L127.712 106.062C128.025 105.983 128.322 105.921 128.635 105.858L128.791 106.687C128.494 106.75 128.213 106.812 127.915 106.875ZM134.095 106.687C133.813 106.625 133.516 106.578 133.219 106.531L133.328 105.686C133.641 105.733 133.954 105.78 134.267 105.843L134.079 106.672L134.095 106.687ZM431.63 106.656L430.785 106.625L430.832 105.702L431.677 105.733L431.63 106.656ZM260.008 106.531L259.804 105.639L260.633 105.451L260.837 106.343L260.008 106.531ZM129.667 106.531L129.558 105.686C129.871 105.639 130.184 105.608 130.497 105.592L130.559 106.437C130.262 106.453 129.965 106.484 129.667 106.531ZM132.342 106.437C132.061 106.421 131.764 106.406 131.482 106.406V105.561C131.795 105.561 132.108 105.561 132.405 105.592L132.342 106.437ZM469.769 105.655L469.722 104.732L470.566 104.701L470.613 105.624L469.769 105.655ZM198.545 105.217L197.716 105.076L197.872 104.169L198.701 104.31L198.545 105.217ZM431.724 104.81L430.879 104.779L430.926 103.856L431.771 103.887L431.724 104.81ZM259.616 104.732L259.413 103.84L260.242 103.652L260.446 104.56L259.616 104.748V104.732ZM469.69 103.809L469.643 102.886L470.488 102.839L470.535 103.762L469.69 103.809ZM198.858 103.387L198.029 103.246L198.185 102.338L199.014 102.479L198.858 103.387ZM431.802 102.964L430.958 102.917L431.004 101.994L431.849 102.041L431.802 102.964ZM259.194 102.917L258.991 102.026L259.82 101.838L260.023 102.745L259.194 102.933V102.917ZM469.597 101.963L469.55 101.04L470.394 100.993L470.441 101.916L469.597 101.963ZM199.171 101.556L198.342 101.416L198.498 100.508L199.327 100.649L199.171 101.556ZM258.787 101.118L258.584 100.211L259.413 100.023L259.616 100.931L258.787 101.118ZM431.88 101.118L431.036 101.071L431.083 100.148L431.927 100.195L431.88 101.118ZM469.487 100.133L469.44 99.2098L470.285 99.1629L470.332 100.086L469.487 100.133ZM199.468 99.7417L198.639 99.6009L198.795 98.6936L199.624 98.8344L199.468 99.7417ZM258.381 99.3193L258.177 98.412L259.006 98.2243L259.21 99.1316L258.381 99.3193ZM431.99 99.288L431.145 99.2411L431.208 98.3181L432.053 98.3651L431.99 99.288ZM469.393 98.2868L469.331 97.3639L470.175 97.3013L470.238 98.2243L469.393 98.2868ZM199.796 97.927L198.967 97.7863L199.124 96.8789L199.953 97.0197L199.796 97.927ZM257.99 97.5203L257.786 96.613L258.615 96.4253L258.819 97.317L257.99 97.5047V97.5203ZM432.115 97.4421L431.27 97.3795L431.333 96.4566L432.178 96.5191L432.115 97.4421ZM469.284 96.4409L469.221 95.518L470.066 95.4554L470.128 96.3784L469.284 96.4409ZM200.109 96.0968L199.28 95.956L199.437 95.0487L200.266 95.1895L200.109 96.0968ZM257.583 95.7057L257.379 94.814L258.209 94.6263L258.412 95.518L257.583 95.7057ZM432.24 95.5962L431.396 95.5336L431.474 94.6107L432.318 94.6732L432.24 95.5962ZM469.127 94.595L469.049 93.6877L469.894 93.6095L469.972 94.4699L469.127 94.6107V94.595ZM200.422 94.2665L199.593 94.1257L199.75 93.2184L200.579 93.3748L200.422 94.2822V94.2665ZM257.16 93.9067L256.957 93.015L257.786 92.8273L257.99 93.7346L257.16 93.9224V93.9067ZM432.397 93.7503L431.552 93.6721L431.646 92.7491L432.491 92.8273L432.397 93.7503ZM468.971 92.7648L468.877 91.8418L469.722 91.7479L469.815 92.6709L468.971 92.7648ZM200.751 92.4519L199.922 92.2955L200.094 91.3881L200.923 91.5446L200.751 92.4519ZM256.738 92.1077L256.519 91.2161L257.348 91.0127L257.567 91.92L256.738 92.1077ZM432.569 91.92L431.724 91.8262L431.834 90.9032L432.678 90.9971L432.569 91.9044V91.92ZM468.767 90.9345L468.658 90.0272L469.503 89.9177L469.612 90.8406L468.767 90.9345ZM201.079 90.6529L200.25 90.4965L200.422 89.5892L201.251 89.7456L201.079 90.6529ZM256.3 90.3244L256.081 89.4327L256.894 89.2294L257.113 90.121L256.284 90.3244H256.3ZM432.788 90.1054L431.943 89.9959L432.068 89.0729L432.913 89.1824L432.788 90.0897V90.1054ZM468.533 89.1199C468.486 88.807 468.439 88.5098 468.408 88.2126L469.252 88.0874C469.299 88.3846 469.346 88.6975 469.393 89.0104L468.548 89.1199H468.533ZM201.439 88.8383L200.61 88.6818L200.798 87.7745L201.627 87.9466L201.439 88.8539V88.8383ZM255.862 88.5411L255.627 87.6494L256.441 87.446L256.675 88.3377L255.862 88.5411ZM433.038 88.2908L432.209 88.1656L432.35 87.2583L433.179 87.3991L433.038 88.3064V88.2908ZM468.251 87.3052C468.204 87.008 468.142 86.6951 468.095 86.3979L468.924 86.2571C468.986 86.5544 469.033 86.8672 469.08 87.1645L468.251 87.3052ZM201.799 87.0393L200.97 86.8672L201.157 85.9599L201.986 86.132L201.799 87.0237V87.0393ZM255.393 86.7577L255.158 85.8661L255.972 85.647L256.206 86.5387L255.393 86.7577ZM433.335 86.4761L432.506 86.3197C432.569 86.0068 432.616 85.7096 432.678 85.4124L433.507 85.5845C433.445 85.8817 433.398 86.1789 433.335 86.4761ZM467.923 85.4906C467.86 85.1934 467.798 84.8962 467.735 84.599L468.564 84.4269C468.627 84.7241 468.689 85.037 468.752 85.3342L467.923 85.4906ZM202.19 85.2247L201.361 85.037L201.564 84.1296L202.393 84.3174L202.19 85.209V85.2247ZM254.908 84.9587L254.657 84.0671L255.471 83.8324L255.721 84.7241L254.908 84.9431V84.9587ZM433.695 84.6615L432.866 84.4738C432.929 84.1766 432.991 83.8637 433.069 83.5665L433.898 83.7542C433.836 84.0514 433.758 84.3487 433.695 84.6459V84.6615ZM467.547 83.6916C467.469 83.3944 467.406 83.0972 467.328 82.8L468.142 82.5966C468.22 82.8938 468.298 83.1911 468.361 83.5039L467.532 83.6916H467.547ZM202.597 83.4257L201.767 83.2223L201.986 82.3307L202.816 82.534L202.597 83.4257ZM254.407 83.1911C254.329 82.8938 254.235 82.5966 254.141 82.315L254.955 82.0647C255.049 82.362 255.127 82.6592 255.221 82.9564L254.407 83.1911ZM434.102 82.8782L433.288 82.6592C433.367 82.362 433.445 82.0647 433.539 81.7675L434.352 82.0022C434.274 82.2994 434.196 82.581 434.118 82.8782H434.102ZM467.078 81.9083C467 81.6111 466.906 81.3295 466.812 81.0323L467.625 80.782C467.719 81.0792 467.813 81.3764 467.891 81.6736L467.078 81.9083ZM203.035 81.6267L202.221 81.4234L202.456 80.5317L203.269 80.7507L203.035 81.6424V81.6267ZM253.875 81.4234C253.781 81.1261 253.688 80.8289 253.609 80.5473L254.423 80.297C254.517 80.5943 254.611 80.8915 254.704 81.1887L253.891 81.439L253.875 81.4234ZM434.602 81.1261L433.789 80.8758C433.883 80.5786 433.977 80.2814 434.071 79.9842L434.868 80.2501C434.775 80.5317 434.681 80.8289 434.587 81.1261H434.602ZM466.546 80.1875C466.452 79.906 466.343 79.6087 466.233 79.3272L467.031 79.0299C467.14 79.3272 467.25 79.6087 467.344 79.906L466.546 80.1719V80.1875ZM203.504 79.8747L202.69 79.6557C202.769 79.3584 202.863 79.0612 202.941 78.764L203.754 78.9986C203.676 79.2959 203.582 79.5931 203.504 79.8903V79.8747ZM253.328 79.6869L253.031 78.8109L253.828 78.545L254.126 79.421L253.328 79.6869ZM435.197 79.421L434.399 79.1238C434.509 78.8266 434.618 78.545 434.743 78.2478L435.525 78.5606C435.416 78.8422 435.306 79.1238 435.197 79.4054V79.421ZM465.905 78.4981C465.795 78.2165 465.67 77.9349 465.545 77.669L466.311 77.3248C466.437 77.6064 466.562 77.888 466.687 78.1852L465.905 78.5137V78.4981ZM204.004 78.1226L203.191 77.888C203.285 77.5907 203.363 77.2935 203.457 76.9963L204.27 77.2466C204.177 77.5282 204.098 77.8254 204.004 78.1226ZM252.733 77.9662L252.421 77.1058L253.218 76.8242L253.531 77.7002L252.733 77.9818V77.9662ZM435.87 77.7472L435.103 77.403C435.228 77.1214 435.369 76.8242 435.494 76.5583L436.245 76.9337C436.12 77.1997 435.979 77.4656 435.854 77.7472H435.87ZM465.154 76.8555C465.013 76.5896 464.872 76.3236 464.731 76.0577L465.467 75.651C465.623 75.9169 465.764 76.1985 465.905 76.4801L465.154 76.8555ZM204.552 76.3706L203.754 76.1046C203.848 75.8074 203.942 75.5102 204.051 75.2286L204.849 75.4945C204.755 75.7761 204.662 76.0733 204.568 76.3706H204.552ZM252.108 76.2298C251.998 75.9482 251.889 75.651 251.779 75.3694L252.561 75.0565C252.671 75.3381 252.78 75.6353 252.89 75.9169L252.092 76.2141L252.108 76.2298ZM436.683 76.1203L435.948 75.7136C436.104 75.432 436.261 75.166 436.417 74.9001L437.137 75.3381C436.98 75.5884 436.824 75.8543 436.683 76.1203ZM464.278 75.2755C464.121 75.0252 463.949 74.775 463.777 74.5247L464.466 74.0397C464.638 74.29 464.81 74.5559 464.982 74.8219L464.262 75.2755H464.278ZM205.146 74.6185L204.349 74.3369C204.458 74.0397 204.552 73.7581 204.661 73.4609L205.459 73.7581C205.35 74.0397 205.256 74.3369 205.146 74.6185ZM437.637 74.5872L436.933 74.1179C437.105 73.852 437.293 73.6017 437.481 73.3514L438.153 73.8676C437.966 74.1023 437.794 74.3526 437.637 74.5872ZM251.466 74.5247L251.106 73.6799L251.889 73.3514L252.248 74.2118L251.466 74.5403V74.5247ZM463.261 73.8051C463.073 73.5704 462.886 73.3358 462.698 73.1168L463.339 72.5536C463.543 72.7883 463.746 73.0385 463.934 73.2888L463.261 73.8051ZM438.717 73.1793L438.075 72.6318C438.279 72.3972 438.498 72.1625 438.717 71.9279L439.327 72.5223C439.123 72.7413 438.92 72.9603 438.732 73.1793H438.717ZM205.788 72.929L205.006 72.6162C205.115 72.3189 205.24 72.0374 205.35 71.7558L206.132 72.0843C206.022 72.3659 205.897 72.6475 205.788 72.929ZM250.747 72.8508C250.622 72.5692 250.496 72.2877 250.371 72.0217L251.138 71.6619C251.263 71.9435 251.388 72.2251 251.529 72.5067L250.762 72.8508H250.747ZM462.088 72.4754C461.884 72.272 461.665 72.053 461.446 71.8653L462.01 71.2396C462.244 71.4429 462.479 71.6619 462.698 71.8809L462.103 72.4754H462.088ZM439.968 71.8966L439.405 71.2709C439.64 71.0518 439.874 70.8485 440.125 70.6608L440.656 71.3178C440.422 71.5055 440.203 71.6932 439.984 71.8966H439.968ZM460.758 71.2865C460.523 71.0988 460.289 70.9267 460.038 70.7703L460.508 70.0663C460.774 70.2384 461.024 70.4261 461.274 70.6295L460.758 71.2865ZM206.492 71.2239L205.71 70.8954C205.835 70.6138 205.96 70.3166 206.085 70.0507L206.852 70.3948C206.726 70.6764 206.601 70.9423 206.476 71.2239H206.492ZM249.98 71.177C249.855 70.8954 249.714 70.6295 249.573 70.3635L250.324 69.9725C250.465 70.254 250.606 70.52 250.731 70.8015L249.964 71.1614L249.98 71.177ZM441.36 70.7859L440.875 70.0976C441.126 69.9255 441.392 69.7534 441.673 69.5814L442.111 70.301C441.861 70.4574 441.611 70.6138 441.36 70.7859ZM459.288 70.2853C459.037 70.1445 458.771 70.0037 458.505 69.863L458.881 69.1121C459.162 69.2529 459.444 69.4093 459.71 69.5657L459.288 70.301V70.2853ZM442.878 69.8786L442.487 69.1277C442.768 68.9869 443.05 68.8461 443.331 68.721L443.676 69.4875C443.394 69.6127 443.128 69.7378 442.878 69.863V69.8786ZM207.243 69.5657L206.476 69.2059C206.617 68.9244 206.742 68.6428 206.898 68.3768L207.649 68.7679C207.509 69.0339 207.383 69.3154 207.243 69.5814V69.5657ZM249.151 69.5657C249.01 69.2998 248.854 69.0339 248.713 68.7679L249.448 68.3456C249.605 68.6115 249.745 68.8931 249.902 69.159L249.151 69.5501V69.5657ZM457.692 69.5032C457.426 69.3937 457.144 69.2842 456.863 69.1747L457.144 68.3768C457.442 68.4863 457.739 68.5958 458.02 68.721L457.692 69.5032ZM444.505 69.1747L444.223 68.3768C444.52 68.2673 444.818 68.1735 445.13 68.0796L445.365 68.8931C445.083 68.9713 444.802 69.0651 444.52 69.159L444.505 69.1747ZM456.018 68.9087C455.737 68.8305 455.455 68.7523 455.158 68.6897L455.345 67.8606C455.658 67.9232 455.956 68.017 456.253 68.0953L456.018 68.9087ZM446.225 68.6741L446.038 67.845C446.335 67.7667 446.648 67.7042 446.961 67.6572L447.101 68.4863C446.804 68.5333 446.507 68.5958 446.225 68.6584V68.6741ZM454.282 68.502C453.984 68.4551 453.687 68.4081 453.39 68.3612L453.5 67.5165C453.812 67.5634 454.125 67.6103 454.422 67.6572L454.282 68.4863V68.502ZM447.993 68.3612L447.884 67.5165C448.196 67.4695 448.509 67.4539 448.822 67.4226L448.885 68.2673C448.588 68.283 448.29 68.3143 447.993 68.3612ZM452.498 68.283C452.201 68.2517 451.904 68.2361 451.607 68.2204L451.638 67.3757C451.951 67.3757 452.264 67.407 452.577 67.4382L452.498 68.283ZM449.792 68.2204L449.761 67.3757C450.042 67.3757 450.34 67.36 450.621 67.36L450.699 68.2048C450.34 68.2048 450.058 68.2048 449.792 68.2048V68.2204ZM248.259 67.9701C248.103 67.7042 247.947 67.4539 247.79 67.1879L248.51 66.7343C248.666 67.0002 248.838 67.2662 248.995 67.5321L248.275 67.9701H248.259ZM208.087 67.9545L207.336 67.5477C207.493 67.2662 207.634 67.0002 207.79 66.7343L208.525 67.1567C208.369 67.4226 208.228 67.6885 208.087 67.9545ZM247.305 66.4371C247.133 66.1868 246.961 65.9365 246.789 65.6862L247.477 65.2012C247.649 65.4515 247.821 65.7175 247.993 65.9678L247.29 66.4371H247.305ZM208.995 66.3901L208.275 65.9521C208.447 65.6862 208.604 65.4203 208.776 65.17L209.48 65.6236C209.308 65.8739 209.151 66.1398 208.995 66.3901ZM246.257 64.951C246.069 64.7007 245.897 64.466 245.71 64.2314L246.367 63.7151C246.554 63.9654 246.758 64.2001 246.93 64.4504L246.257 64.951ZM209.996 64.8727L209.308 64.3878C209.48 64.1375 209.667 63.8872 209.855 63.6369L210.528 64.1375C210.34 64.3878 210.168 64.6224 209.996 64.8727ZM245.131 63.5274C244.943 63.2928 244.74 63.0738 244.536 62.8548L245.162 62.2916C245.365 62.5262 245.584 62.7609 245.788 62.9955L245.146 63.5431L245.131 63.5274ZM211.091 63.4179L210.434 62.886C210.637 62.6357 210.825 62.4011 211.028 62.1664L211.67 62.7296C211.482 62.9486 211.279 63.1833 211.091 63.4179ZM243.911 62.1821C243.707 61.9631 243.488 61.7597 243.269 61.5407L243.848 60.9306C244.067 61.1496 244.302 61.3686 244.521 61.5876L243.911 62.1821ZM212.28 62.0569L211.67 61.4781C211.889 61.2591 212.108 61.0245 212.327 60.8055L212.921 61.3999C212.702 61.6033 212.499 61.8223 212.295 62.0413L212.28 62.0569ZM242.597 60.9463C242.378 60.7429 242.143 60.5552 241.908 60.3675L242.44 59.7104C242.69 59.8982 242.925 60.1015 243.16 60.3205L242.597 60.9619V60.9463ZM213.563 60.8055L212.999 60.1797C213.234 59.9764 213.469 59.773 213.719 59.5697L214.251 60.2267C214.016 60.4144 213.797 60.6178 213.563 60.8211V60.8055ZM241.189 59.82C240.954 59.6322 240.704 59.4602 240.453 59.3037L240.923 58.5998C241.189 58.7718 241.439 58.9596 241.689 59.1473L241.189 59.82ZM214.955 59.6635L214.454 58.9909C214.704 58.8031 214.955 58.6154 215.221 58.4433L215.69 59.1473C215.44 59.3194 215.205 59.4914 214.955 59.6635ZM239.702 58.8031C239.452 58.6467 239.186 58.4903 238.936 58.3495L239.343 57.6142C239.609 57.7707 239.89 57.9271 240.156 58.0835L239.718 58.8031H239.702ZM216.441 58.6623L216.003 57.9428C216.269 57.7863 216.535 57.6299 216.816 57.4735L217.223 58.2087C216.957 58.3495 216.707 58.5059 216.441 58.6623ZM238.138 57.9428C237.872 57.802 237.606 57.6768 237.325 57.5673L237.669 56.8008C237.95 56.9259 238.232 57.0667 238.514 57.1919L238.138 57.9428ZM218.021 57.802L217.645 57.0354C217.927 56.8947 218.209 56.7695 218.49 56.6444L218.819 57.4265C218.537 57.5517 218.271 57.6768 218.005 57.802H218.021ZM236.496 57.2075C236.214 57.098 235.932 57.0042 235.651 56.8947L235.917 56.0968C236.214 56.1907 236.511 56.3002 236.793 56.4254L236.48 57.2075H236.496ZM219.679 57.0824L219.382 56.2846C219.663 56.1751 219.961 56.0656 220.258 55.9717L220.524 56.7695C220.242 56.8634 219.961 56.9572 219.679 57.0667V57.0824ZM234.79 56.6287C234.509 56.5505 234.212 56.4723 233.914 56.3941L234.118 55.5806C234.431 55.6588 234.728 55.737 235.025 55.8309L234.79 56.6444V56.6287ZM221.384 56.5349L221.165 55.7214C221.462 55.6432 221.76 55.565 222.073 55.4868L222.26 56.3159C221.963 56.3941 221.681 56.4566 221.384 56.5349ZM233.038 56.2063C232.741 56.1438 232.46 56.0968 232.147 56.0343L232.288 55.2052C232.6 55.2521 232.913 55.3147 233.211 55.3773L233.038 56.2063ZM223.136 56.1281L222.98 55.299C223.277 55.2365 223.59 55.1895 223.903 55.1426L224.028 55.9873C223.731 56.0343 223.433 56.0812 223.136 56.1438V56.1281ZM231.255 55.9091C230.958 55.8778 230.661 55.8309 230.348 55.8153L230.426 54.9705C230.739 55.0018 231.052 55.0331 231.349 55.0644L231.255 55.9091ZM224.92 55.8622L224.826 55.0175C225.139 54.9862 225.451 54.9549 225.764 54.9236L225.827 55.7683C225.53 55.784 225.217 55.8153 224.92 55.8466V55.8622ZM229.44 55.7527C229.143 55.737 228.846 55.7214 228.533 55.7214V54.8767C228.862 54.8767 229.175 54.8923 229.487 54.908L229.44 55.7527ZM226.719 55.7371L226.687 54.8923C227 54.8923 227.313 54.8767 227.626 54.861V55.7058C227.329 55.7058 227.031 55.7058 226.719 55.7214V55.7371Z" fill="#A2DEFE"/>
<path opacity="0.1" d="M88.5425 169.839C88.5425 169.839 103.169 213.28 123.318 213.656C144.139 214.063 143.216 168.791 163.974 169.839C207.353 172.029 179.821 268.063 223.356 268.439C267.377 268.83 244.428 172.154 288.276 169.839C308.519 168.76 310.02 211.857 330.341 211.732C350.411 211.607 350.396 169.667 370.466 169.839C382.965 169.948 381.948 196.526 394.447 196.261C406.508 196.01 402.535 169.26 414.565 169.839C451.154 171.591 418.022 254.954 454.737 254.907C491.389 254.86 459.007 175.909 494.252 169.839C512.961 166.616 530.309 203.191 549.738 202.706C567.713 202.252 596.684 169.839 596.684 169.839H88.5425Z" fill="#4B95FA"/>
</g>
<path d="M417.16 0H263.855C249.816 0 238.435 11.3811 238.435 25.4204V335.158C238.435 349.197 249.816 360.578 263.855 360.578H417.16C431.199 360.578 442.58 349.197 442.58 335.158V25.4204C442.58 11.3811 431.199 0 417.16 0Z" fill="#A0F2FE"/>
<path d="M265.31 4.09863H415.689C428.267 4.09863 438.466 14.3137 438.466 26.8753V333.687C438.466 346.265 428.251 356.464 415.689 356.464H265.326C252.749 356.464 242.549 346.249 242.549 333.687V26.8909C242.549 14.3137 252.764 4.11428 265.326 4.11428L265.31 4.09863Z" fill="url(#paint0_radial_11_3233)"/>
<path opacity="0.2" d="M438.466 263.152V26.8909C438.466 14.3136 428.267 4.1142 415.689 4.1142H265.31C252.733 4.1142 242.534 14.3136 242.534 26.8909V33.68C299.46 127.415 366.288 197.403 438.466 263.152Z" fill="#482BB8"/>
<path d="M681 360.578H0V362.925H681V360.578Z" fill="url(#paint1_linear_11_3233)"/>
<path opacity="0.4" d="M257.333 209.98C257.333 209.98 262.245 195.4 269.003 195.275C275.995 195.134 275.683 210.339 282.644 209.98C297.208 209.244 287.963 177.019 302.573 176.878C317.341 176.753 309.644 209.198 324.365 209.98C331.154 210.339 331.67 195.869 338.475 195.916C345.217 195.963 345.201 210.027 351.944 209.98C356.136 209.948 355.792 201.016 359.984 201.11C364.036 201.188 362.706 210.167 366.742 209.98C379.022 209.385 367.9 181.415 380.227 181.431C392.538 181.446 381.666 207.946 393.492 209.98C399.765 211.059 405.6 198.779 412.124 198.951C418.162 199.108 427.876 209.98 427.876 209.98H257.333Z" fill="#4B95FA"/>
<path opacity="0.4" d="M257.333 209.98C257.333 209.98 262.245 195.4 269.003 195.275C275.995 195.134 275.683 210.339 282.644 209.98C297.208 209.244 287.963 177.019 302.573 176.878C317.341 176.753 309.644 209.198 324.365 209.98C331.154 210.339 331.67 195.869 338.475 195.916C345.217 195.963 345.201 210.027 351.944 209.98C356.136 209.948 355.792 201.016 359.984 201.11C364.036 201.188 362.706 210.167 366.742 209.98C379.022 209.385 367.9 181.415 380.227 181.431C392.538 181.446 381.666 207.946 393.492 209.98C399.765 211.059 405.6 198.779 412.124 198.951C418.162 199.108 427.876 209.98 427.876 209.98H257.333Z" fill="#4B95FA"/>
<path style="mix-blend-mode:lighten" opacity="0.5" d="M269.613 209.995C269.613 209.995 273.821 199.201 279.609 199.092C285.584 198.998 285.318 210.246 291.294 209.995C303.762 209.448 295.846 185.576 308.345 185.482C320.985 185.388 314.399 209.416 326.992 209.995C332.811 210.261 333.234 199.545 339.069 199.577C344.841 199.608 344.826 210.042 350.598 209.995C354.18 209.964 353.899 203.362 357.481 203.425C360.938 203.488 359.812 210.136 363.253 209.995C373.766 209.557 364.255 188.83 374.798 188.845C385.326 188.845 376.018 208.493 386.155 209.995C391.536 210.793 396.511 201.704 402.096 201.829C407.258 201.939 415.58 209.995 415.58 209.995H269.613Z" fill="url(#paint2_radial_11_3233)"/>
<path opacity="0.1" d="M257.333 209.995C257.333 209.995 262.245 224.574 269.003 224.7C275.995 224.84 275.683 209.635 282.644 209.995C297.208 210.73 287.963 242.955 302.573 243.096C317.341 243.221 309.644 210.777 324.365 209.995C331.154 209.635 331.67 224.105 338.475 224.058C345.217 224.011 345.201 209.948 351.944 209.995C356.136 210.026 355.792 218.958 359.984 218.865C364.036 218.786 362.706 209.807 366.742 209.995C379.022 210.589 367.9 238.56 380.227 238.544C392.538 238.528 381.666 212.028 393.492 209.995C399.765 208.915 405.6 221.195 412.124 221.023C418.162 220.867 427.876 209.995 427.876 209.995H257.333Z" fill="#4B95FA"/>
<path style="mix-blend-mode:lighten" opacity="0.35" d="M340.509 201.422C377.21 201.422 406.962 171.671 406.962 134.97C406.962 98.2689 377.21 68.517 340.509 68.517C303.808 68.517 274.056 98.2689 274.056 134.97C274.056 171.671 303.808 201.422 340.509 201.422Z" fill="url(#paint3_radial_11_3233)"/>
<path style="mix-blend-mode:lighten" opacity="0.1" d="M365.412 308.942C370.732 276.563 348.796 246.002 316.417 240.682C284.038 235.363 253.477 257.299 248.158 289.678C242.838 322.057 264.774 352.617 297.153 357.937C329.532 363.257 360.093 341.321 365.412 308.942Z" fill="url(#paint4_radial_11_3233)"/>
<path d="M340.508 143.246C335.846 143.246 332.061 139.46 332.061 134.799V117.826C332.061 113.164 335.846 109.378 340.508 109.378C345.17 109.378 348.956 113.164 348.956 117.826V134.799C348.956 139.46 345.17 143.246 340.508 143.246Z" fill="#6BD2FE"/>
<path d="M340.492 148.33C336.988 148.33 333.688 147.031 331.106 144.606C328.322 142.01 326.726 138.333 326.726 134.548V124.333C326.726 123.895 327.07 123.551 327.508 123.551C327.946 123.551 328.291 123.895 328.291 124.333V134.548C328.291 137.911 329.699 141.165 332.17 143.464C334.673 145.795 337.927 146.969 341.353 146.734C347.735 146.312 352.725 140.758 352.725 134.094V124.348C352.725 123.91 353.07 123.566 353.508 123.566C353.946 123.566 354.29 123.91 354.29 124.348V134.094C354.29 141.572 348.658 147.813 341.462 148.298C341.149 148.314 340.821 148.33 340.508 148.33H340.492Z" fill="#70D7FE"/>
<path d="M340.508 161.362C340.07 161.362 339.726 161.018 339.726 160.58V147.549C339.726 147.111 340.07 146.767 340.508 146.767C340.946 146.767 341.29 147.111 341.29 147.549V160.58C341.29 161.018 340.946 161.362 340.508 161.362Z" fill="#70D7FE"/>
<path style="mix-blend-mode:lighten" opacity="0.2" d="M159.64 304.169L60.2739 204.803L104.498 160.579L201.173 257.27L190.082 263.309L178.052 264.013L166.852 269.675L163.254 280.454L165.475 297.051L159.64 304.169Z" fill="url(#paint5_radial_11_3233)"/>
<path d="M161.642 260.743L163.441 264.951C162.643 265.812 161.924 266.703 161.267 267.626L156.777 266.735C156.245 266.625 155.713 266.891 155.463 267.376L154.211 269.848C153.961 270.333 154.071 270.912 154.462 271.271L157.809 274.384C157.434 275.479 157.121 276.606 156.886 277.732L152.444 278.749C151.912 278.874 151.536 279.328 151.505 279.859L151.364 282.628C151.333 283.16 151.662 283.661 152.178 283.833L156.495 285.303C156.605 286.461 156.808 287.603 157.059 288.729L153.398 291.467C152.96 291.795 152.804 292.359 152.991 292.859L153.992 295.456C154.18 295.956 154.696 296.269 155.228 296.222L159.78 295.816C160.344 296.817 160.969 297.771 161.673 298.71L159.436 302.714C159.17 303.184 159.249 303.778 159.64 304.154L161.595 306.109C161.971 306.484 162.565 306.578 163.034 306.312L167.039 304.075C167.978 304.779 168.932 305.405 169.933 305.968L169.526 310.52C169.479 311.052 169.792 311.568 170.293 311.756L172.89 312.757C173.39 312.945 173.969 312.789 174.282 312.351L177.019 308.69C178.146 308.94 179.288 309.144 180.445 309.253L181.916 313.571C182.088 314.087 182.588 314.416 183.12 314.384L185.889 314.243C186.421 314.212 186.875 313.837 187 313.305L188.017 308.862C189.143 308.643 190.269 308.315 191.364 307.939L194.477 311.303C194.837 311.694 195.432 311.803 195.901 311.553L198.372 310.301C198.857 310.051 199.108 309.519 199.014 308.987L198.122 304.498C199.045 303.841 199.952 303.105 200.797 302.323L205.005 304.122C205.506 304.341 206.085 304.185 206.413 303.778L208.165 301.619C208.509 301.197 208.525 300.603 208.212 300.165L205.568 296.426C206.163 295.425 206.695 294.392 207.148 293.344L211.716 293.281C212.248 293.281 212.717 292.906 212.858 292.39L213.578 289.715C213.719 289.199 213.5 288.651 213.03 288.369L209.104 286.023C209.245 284.865 209.307 283.723 209.292 282.566L213.437 280.642C213.922 280.423 214.204 279.891 214.125 279.359L213.687 276.621C213.609 276.089 213.171 275.683 212.639 275.62L208.118 275.073C207.774 273.978 207.352 272.898 206.867 271.834L209.886 268.393C210.246 267.986 210.277 267.392 209.995 266.938L208.478 264.607C208.181 264.154 207.633 263.95 207.117 264.107L202.737 265.452C202.362 265.014 201.986 264.576 201.579 264.169C201.173 263.763 200.735 263.387 200.297 263.012L201.642 258.632C201.798 258.115 201.595 257.552 201.141 257.271L198.81 255.753C198.357 255.456 197.762 255.503 197.356 255.863L193.914 258.882C192.85 258.397 191.787 257.959 190.676 257.63L190.128 253.109C190.066 252.578 189.659 252.14 189.127 252.061L186.39 251.623C185.858 251.545 185.326 251.811 185.107 252.312L183.183 256.457C182.025 256.457 180.868 256.504 179.726 256.645L177.379 252.718C177.098 252.249 176.55 252.03 176.034 252.171L173.359 252.89C172.843 253.031 172.467 253.501 172.467 254.032L172.405 258.6C171.356 259.054 170.324 259.586 169.323 260.18L165.584 257.536C165.146 257.224 164.552 257.239 164.129 257.583L161.971 259.335C161.548 259.68 161.407 260.258 161.626 260.743H161.642ZM194.071 271.694C200.265 277.888 200.265 287.916 194.071 294.111C187.876 300.305 177.848 300.305 171.654 294.111C165.459 287.916 165.459 277.888 171.654 271.694C177.848 265.499 187.876 265.499 194.071 271.694Z" fill="#A0F2FE"/>
<path style="mix-blend-mode:lighten" opacity="0.4" d="M477.825 54.3766L589.627 167.055L622.51 134.173L513.82 24.623L505.216 31.8971L506.827 48.2913L494.798 47.9472L482.752 51.2948L477.825 54.3766Z" fill="url(#paint6_radial_11_3233)"/>
<path d="M474.946 21.5555L473.022 24.3087C472.647 24.8406 472.678 25.5602 473.085 26.0608L476.167 29.8308C475.682 31.0666 475.353 32.3494 475.15 33.6478L470.582 35.3842C469.972 35.6188 469.596 36.2289 469.643 36.8703L469.941 40.218C470.003 40.875 470.472 41.4069 471.114 41.5164L475.901 42.4393C476.323 43.6751 476.871 44.8797 477.575 46.006L475.197 50.261C474.884 50.8241 474.978 51.5437 475.431 51.9974L477.809 54.3752C478.263 54.8288 478.982 54.9383 479.546 54.6098L483.801 52.232C484.942 52.9203 486.131 53.4835 487.367 53.9059L488.29 58.6927C488.415 59.3341 488.947 59.819 489.589 59.866L492.936 60.1632C493.593 60.2258 494.188 59.8347 494.422 59.2246L496.159 54.6567C497.457 54.4534 498.74 54.1249 499.976 53.6399L503.746 56.7217C504.246 57.1284 504.966 57.1597 505.498 56.7842L508.251 54.8601C508.783 54.4847 509.002 53.7964 508.799 53.1863L507.187 48.5715C508.079 47.5547 508.83 46.4753 509.456 45.349L514.321 45.2708C514.978 45.2708 515.541 44.8171 515.713 44.1914L516.589 40.9532C516.761 40.3275 516.495 39.6548 515.932 39.3263L511.739 36.8234C511.771 35.5093 511.661 34.1797 511.411 32.8813L515.087 29.7057C515.588 29.2833 515.729 28.5794 515.463 27.9849L514.039 24.9501C513.757 24.3557 513.132 24.0272 512.49 24.121L507.688 24.9032C507.281 24.387 506.843 23.902 506.358 23.4171C505.873 22.9321 505.388 22.5098 504.872 22.0874L505.654 17.2849C505.764 16.6435 505.42 16.0021 504.825 15.7362L501.79 14.3127C501.196 14.0311 500.492 14.1875 500.07 14.6881L496.894 18.3643C495.596 18.114 494.266 18.0045 492.952 18.0358L490.449 13.8434C490.12 13.2802 489.448 13.0143 488.822 13.1863L485.584 14.0624C484.958 14.2344 484.52 14.7976 484.504 15.4546L484.442 20.3197C483.3 20.9454 482.221 21.7119 481.219 22.588L476.605 20.9767C475.995 20.7577 475.306 20.9767 474.931 21.5242L474.946 21.5555ZM499.115 42.2516C495.924 45.4428 490.762 45.4428 487.571 42.2516C484.379 39.0604 484.379 33.8981 487.571 30.7068C490.762 27.5156 495.924 27.5156 499.115 30.7068C502.307 33.8981 502.307 39.0604 499.115 42.2516Z" fill="url(#paint7_radial_11_3233)"/>
<path d="M493.156 68.7846C492.843 68.7846 492.53 68.7846 492.217 68.7846L492.248 67.9399C492.546 67.9399 492.858 67.9399 493.156 67.9399V68.7846ZM494.094 68.7846V67.9399C494.376 67.9399 494.689 67.9243 494.986 67.9086L495.033 68.7534C494.72 68.769 494.407 68.7846 494.094 68.8003V68.7846ZM491.294 68.7377C490.981 68.7221 490.668 68.6908 490.356 68.6751L490.434 67.8304C490.731 67.8617 491.044 67.8773 491.341 67.893L491.294 68.7377ZM495.956 68.6751L495.878 67.8304C496.19 67.7991 496.488 67.7678 496.785 67.7365L496.879 68.5813C496.566 68.6126 496.269 68.6439 495.956 68.6751ZM489.433 68.5813C489.12 68.55 488.807 68.5031 488.51 68.4561L488.635 67.6114C488.932 67.6583 489.229 67.6896 489.542 67.7365L489.448 68.5813H489.433ZM497.817 68.4561L497.692 67.6114C497.989 67.5645 498.287 67.5175 498.584 67.4706L498.725 68.2997C498.412 68.3623 498.115 68.4092 497.802 68.4561H497.817ZM487.587 68.2997C487.274 68.2528 486.977 68.1902 486.679 68.1276L486.851 67.2985C487.149 67.3611 487.446 67.408 487.743 67.4706L487.602 68.2997H487.587ZM499.663 68.1276L499.491 67.2985C499.788 67.236 500.086 67.1734 500.383 67.1108L500.571 67.9399C500.273 68.0181 499.961 68.0807 499.663 68.1433V68.1276ZM485.756 67.9243C485.459 67.8617 485.146 67.7835 484.849 67.6896L485.068 66.8762C485.365 66.9544 485.647 67.0326 485.944 67.0952L485.756 67.9243ZM501.478 67.7053L501.259 66.8918C501.556 66.8136 501.853 66.7354 502.135 66.6415L502.37 67.455C502.072 67.5488 501.775 67.627 501.462 67.7053H501.478ZM483.957 67.455C483.66 67.3611 483.363 67.2672 483.066 67.1734L483.332 66.3756C483.613 66.4694 483.91 66.5633 484.192 66.6415L483.942 67.455H483.957ZM503.261 67.1734L502.995 66.3756C503.277 66.2817 503.574 66.1879 503.856 66.0784L504.153 66.8762C503.856 66.9857 503.559 67.0795 503.277 67.189L503.261 67.1734ZM482.174 66.8605C481.877 66.751 481.58 66.6415 481.298 66.532L481.611 65.7498C481.893 65.8593 482.174 65.9689 482.456 66.0784L482.174 66.8762V66.8605ZM505.013 66.532L504.7 65.7498C504.982 65.6403 505.264 65.5152 505.545 65.4057L505.874 66.1879C505.592 66.313 505.311 66.4225 505.013 66.5477V66.532ZM480.438 66.1722C480.156 66.0471 479.875 65.9219 479.577 65.7811L479.937 65.0146C480.219 65.1398 480.485 65.2649 480.766 65.39L480.438 66.1722ZM506.734 65.7968L506.374 65.0303C506.64 64.9051 506.922 64.7643 507.188 64.6392L507.563 65.39C507.282 65.5308 507 65.656 506.734 65.7968ZM478.748 65.3744C478.467 65.2336 478.185 65.0928 477.919 64.9364L478.326 64.2012C478.592 64.3419 478.858 64.4827 479.139 64.6235L478.764 65.3744H478.748ZM508.392 64.952L507.986 64.2168C508.252 64.076 508.517 63.9196 508.783 63.7788L509.206 64.514C508.94 64.6705 508.674 64.8269 508.392 64.9677V64.952ZM477.09 64.4827C476.824 64.3263 476.558 64.1699 476.292 63.9978L476.73 63.2782C476.981 63.4346 477.246 63.5911 477.512 63.7475L477.09 64.4827ZM510.004 64.0134L509.55 63.2938C509.816 63.1374 510.066 62.9653 510.316 62.8089L510.786 63.5128C510.52 63.6849 510.269 63.857 510.004 64.0134ZM475.494 63.4972C475.228 63.3251 474.978 63.1531 474.728 62.9653L475.213 62.277C475.463 62.4491 475.713 62.6212 475.964 62.7933L475.494 63.4972ZM511.552 62.9966L511.067 62.3083C511.318 62.1362 511.568 61.9642 511.803 61.7764L512.303 62.4491C512.053 62.6368 511.803 62.8245 511.552 62.9966ZM473.961 62.4178C473.711 62.2301 473.461 62.0424 473.226 61.8547L473.758 61.1976C473.993 61.3854 474.243 61.5731 474.478 61.7452L473.977 62.4178H473.961ZM513.038 61.8703L512.522 61.1976C512.757 61.0099 512.991 60.8222 513.226 60.6188L513.774 61.2602C513.539 61.4636 513.289 61.6513 513.054 61.8547L513.038 61.8703ZM472.491 61.2446C472.256 61.0412 472.022 60.8378 471.787 60.6345L472.35 60.0088C472.569 60.2121 472.804 60.4155 473.038 60.6032L472.491 61.2446ZM514.478 60.6658L513.914 60.04C514.149 59.8367 514.368 59.6333 514.587 59.43L515.166 60.04C514.947 60.259 514.712 60.4624 514.478 60.6658ZM471.099 60.0088C470.88 59.7897 470.645 59.5707 470.426 59.3674L471.02 58.7729C471.239 58.9919 471.458 59.1953 471.677 59.4143L471.099 60.0244V60.0088ZM515.838 59.383L515.244 58.7886C515.463 58.5696 515.666 58.3506 515.885 58.1316L516.496 58.7104C516.277 58.9294 516.073 59.164 515.854 59.383H515.838ZM469.785 58.6791C469.566 58.4601 469.362 58.2254 469.159 57.9908L469.785 57.4276C469.988 57.6623 470.191 57.8813 470.395 58.1003L469.785 58.6791ZM517.121 58.0221L516.496 57.4589C516.699 57.2399 516.902 57.0052 517.09 56.7706L517.731 57.3181C517.528 57.5527 517.325 57.7874 517.121 58.0221ZM468.549 57.2868C468.345 57.0522 468.158 56.8019 467.954 56.5672L468.627 56.051C468.815 56.2856 469.002 56.5203 469.206 56.7549L468.564 57.3025L468.549 57.2868ZM518.326 56.5985L517.669 56.0666C517.857 55.832 518.044 55.5817 518.216 55.347L518.889 55.8476C518.701 56.0979 518.513 56.3482 518.326 56.5829V56.5985ZM467.391 55.8163C467.203 55.5661 467.016 55.3158 466.844 55.0655L467.532 54.5805C467.704 54.8308 467.876 55.0811 468.064 55.3158L467.391 55.8163ZM519.452 55.0968L518.764 54.6118C518.936 54.3615 519.108 54.1112 519.28 53.8609L519.984 54.3302C519.812 54.5962 519.64 54.8465 519.452 55.0968ZM466.327 54.2833C466.155 54.0174 465.983 53.7671 465.827 53.5011L466.546 53.0475C466.703 53.3134 466.875 53.5637 467.031 53.814L466.327 54.2833ZM520.485 53.5324L519.765 53.0788C519.921 52.8285 520.078 52.5625 520.234 52.2966L520.97 52.719C520.813 52.9849 520.657 53.2508 520.485 53.5168V53.5324ZM465.342 52.7033C465.185 52.4374 465.029 52.1714 464.888 51.8899L465.623 51.4831C465.764 51.7491 465.921 52.015 466.061 52.281L465.326 52.7033H465.342ZM521.408 51.9212L520.672 51.5144C520.813 51.2485 520.954 50.9826 521.095 50.701L521.846 51.0764C521.705 51.358 521.564 51.6396 521.408 51.9055V51.9212ZM464.45 51.0764C464.309 50.7948 464.184 50.5133 464.044 50.2473L464.81 49.8875C464.935 50.1535 465.076 50.435 465.201 50.701L464.45 51.0764ZM522.252 50.263L521.486 49.9032C521.611 49.6216 521.736 49.3557 521.861 49.0741L522.643 49.4026C522.518 49.6842 522.393 49.9657 522.252 50.263ZM463.668 49.3869C463.543 49.1054 463.433 48.8238 463.308 48.5266L464.09 48.2137C464.2 48.4953 464.325 48.7769 464.435 49.0584L463.652 49.3869H463.668ZM523.003 48.5422L522.221 48.2293C522.33 47.9478 522.44 47.6662 522.549 47.3846L523.347 47.6662C523.238 47.9634 523.128 48.2606 523.019 48.5422H523.003ZM462.98 47.6662C462.87 47.369 462.776 47.0717 462.667 46.7902L463.465 46.5242C463.559 46.8058 463.652 47.103 463.762 47.3846L462.964 47.6818L462.98 47.6662ZM523.644 46.7902L522.847 46.5242C522.941 46.2426 523.034 45.9454 523.113 45.6638L523.926 45.9141C523.832 46.2114 523.738 46.5086 523.644 46.8058V46.7902ZM462.401 45.8985C462.307 45.6013 462.229 45.304 462.151 44.9912L462.964 44.7722C463.042 45.0694 463.121 45.3666 463.214 45.6482L462.401 45.8828V45.8985ZM524.176 45.0068L523.363 44.7878C523.441 44.4906 523.519 44.209 523.582 43.9118L524.411 44.0995C524.348 44.3967 524.27 44.7096 524.176 45.0068ZM461.916 44.0995C461.838 43.8023 461.775 43.4894 461.713 43.1922L462.542 43.0201C462.604 43.3173 462.667 43.6146 462.729 43.9118L461.9 44.0995H461.916ZM524.614 43.1922L523.785 43.0201C523.848 42.7229 523.895 42.4257 523.957 42.1284L524.786 42.2692C524.74 42.5821 524.677 42.8793 524.614 43.1766V43.1922ZM461.541 42.2692C461.478 41.9564 461.431 41.6591 461.384 41.3463L462.229 41.2211C462.276 41.5184 462.323 41.8156 462.37 42.1128L461.541 42.2536V42.2692ZM524.927 41.3463L524.083 41.2211C524.129 40.9239 524.161 40.6267 524.208 40.3138L525.052 40.4077C525.021 40.7206 524.974 41.0178 524.927 41.3306V41.3463ZM461.275 40.4233C461.243 40.1105 461.212 39.8132 461.181 39.5004L462.026 39.4222C462.057 39.735 462.088 40.0322 462.119 40.3295L461.275 40.4233ZM525.146 39.5004L524.302 39.4222C524.333 39.1249 524.348 38.8121 524.364 38.5148L525.209 38.5618C525.193 38.8746 525.162 39.1875 525.146 39.5004ZM461.118 38.5618C461.103 38.2489 461.087 37.936 461.071 37.6232H461.916C461.916 37.9048 461.932 38.2176 461.947 38.5148L461.103 38.5618H461.118ZM525.256 37.6388L524.411 37.6075C524.411 37.3103 524.411 36.9974 524.411 36.7002H525.256C525.256 37.0131 525.256 37.326 525.256 37.6388ZM461.9 36.7002H461.056C461.056 36.3874 461.056 36.0745 461.056 35.7616L461.9 35.7929C461.9 36.0901 461.9 36.403 461.9 36.7002ZM524.395 35.8086C524.395 35.5113 524.38 35.1985 524.364 34.9012L525.209 34.8543C525.224 35.1672 525.24 35.48 525.256 35.7929H524.411L524.395 35.8086ZM461.947 34.9012L461.103 34.8543C461.118 34.5414 461.149 34.2286 461.165 33.9157L462.01 33.9939C461.979 34.2912 461.963 34.604 461.947 34.9012ZM524.302 34.0096C524.27 33.6967 524.239 33.3995 524.208 33.1023L525.052 33.0084C525.084 33.3213 525.115 33.6185 525.146 33.9314L524.302 34.0096ZM462.104 33.0866L461.259 32.9928C461.29 32.6799 461.337 32.367 461.384 32.0698L462.229 32.1949C462.182 32.4922 462.151 32.7894 462.104 33.1023V33.0866ZM524.083 32.1949C524.036 31.8977 523.989 31.6005 523.942 31.3033L524.771 31.1625C524.833 31.4754 524.88 31.7726 524.927 32.0854L524.083 32.2106V32.1949ZM462.354 31.2876L461.525 31.1468C461.572 30.834 461.634 30.5368 461.697 30.2395L462.526 30.4116C462.464 30.7088 462.417 31.0061 462.354 31.3033V31.2876ZM523.754 30.4116C523.691 30.1144 523.629 29.8172 523.566 29.5199L524.395 29.3322C524.474 29.6294 524.536 29.9423 524.599 30.2395L523.77 30.4116H523.754ZM462.714 29.5043L461.885 29.3166C461.947 29.0194 462.026 28.7065 462.119 28.4093L462.933 28.6283C462.855 28.9255 462.776 29.2071 462.714 29.5043ZM523.332 28.6283C523.253 28.3311 523.175 28.0338 523.081 27.7523L523.895 27.5176C523.989 27.8148 524.067 28.112 524.145 28.4249L523.332 28.6439V28.6283ZM463.183 27.7366L462.37 27.4863C462.464 27.1891 462.557 26.8919 462.651 26.5946L463.449 26.8606C463.355 27.1422 463.261 27.4394 463.183 27.721V27.7366ZM522.815 26.8762C522.722 26.5946 522.628 26.2974 522.518 26.0158L523.316 25.7186C523.426 26.0158 523.519 26.3131 523.629 26.5946L522.831 26.8606L522.815 26.8762ZM463.762 26.0002L462.964 25.7186C463.074 25.4214 463.183 25.1398 463.293 24.8426L464.075 25.1555C463.965 25.437 463.856 25.7186 463.746 26.0002H463.762ZM522.205 25.1711C522.096 24.8895 521.971 24.6079 521.861 24.3264L522.643 23.9979C522.768 24.2794 522.878 24.561 523.003 24.8582L522.221 25.1711H522.205ZM464.435 24.3107L463.652 23.9822C463.778 23.7006 463.903 23.4191 464.044 23.1218L464.81 23.4816C464.685 23.7632 464.56 24.0291 464.435 24.3107ZM521.486 23.5129C521.361 23.247 521.22 22.9654 521.095 22.6995L521.846 22.324C521.986 22.6056 522.111 22.8872 522.252 23.1531L521.486 23.5129ZM465.217 22.6682L464.466 22.2927C464.607 22.0112 464.747 21.7296 464.904 21.4636L465.639 21.8704C465.498 22.1363 465.358 22.4022 465.217 22.6838V22.6682ZM520.672 21.9017C520.531 21.6357 520.375 21.3698 520.234 21.1038L520.97 20.6815C521.126 20.9474 521.282 21.2133 521.423 21.4949L520.688 21.9017H520.672ZM466.077 21.0726L465.342 20.6502C465.498 20.3843 465.655 20.1183 465.827 19.8524L466.546 20.2904C466.39 20.5563 466.234 20.8066 466.077 21.0726ZM519.765 20.3373C519.609 20.0714 519.436 19.8211 519.28 19.5708L519.984 19.1015C520.156 19.3674 520.328 19.6177 520.485 19.8837L519.765 20.3373ZM467.031 19.5395L466.327 19.0702C466.5 18.8043 466.672 18.554 466.859 18.3037L467.548 18.7886C467.376 19.0389 467.203 19.2892 467.031 19.5395ZM518.764 18.8199C518.592 18.5696 518.42 18.3193 518.232 18.0847L518.905 17.5841C519.092 17.8344 519.28 18.0847 519.452 18.335L518.764 18.8199ZM468.079 18.0378L467.407 17.5372C467.595 17.2869 467.782 17.0366 467.97 16.8019L468.643 17.3182C468.455 17.5528 468.267 17.8031 468.079 18.0378ZM517.669 17.3495C517.481 17.1148 517.293 16.8802 517.09 16.6455L517.731 16.098C517.935 16.3326 518.122 16.5829 518.326 16.8176L517.653 17.3338L517.669 17.3495ZM469.206 16.5986L468.564 16.0511C468.768 15.8164 468.971 15.5818 469.175 15.3471L469.8 15.9103C469.597 16.1293 469.394 16.3639 469.206 16.5986ZM516.511 15.9572C516.308 15.7225 516.104 15.5035 515.901 15.2845L516.511 14.7057C516.73 14.9247 516.934 15.1594 517.137 15.394L516.511 15.9572ZM470.426 15.2376L469.816 14.6588C470.035 14.4398 470.254 14.2051 470.473 13.9861L471.067 14.5806C470.848 14.7996 470.645 15.0186 470.426 15.2376ZM515.26 14.6275C515.041 14.4085 514.822 14.2051 514.603 13.9861L515.181 13.3761C515.4 13.5951 515.635 13.8141 515.854 14.0331L515.26 14.6275ZM471.709 13.9549L471.13 13.3448C471.349 13.1258 471.584 12.9224 471.818 12.719L472.381 13.3448C472.147 13.5481 471.928 13.7515 471.709 13.9549ZM513.946 13.3761C513.727 13.1727 513.492 12.9693 513.257 12.7816L513.805 12.1402C514.04 12.3436 514.274 12.547 514.509 12.7503L513.946 13.3761ZM473.07 12.7503L472.522 12.1089C472.757 11.9056 473.007 11.7179 473.242 11.5145L473.758 12.1872C473.523 12.3749 473.289 12.5626 473.054 12.766L473.07 12.7503ZM512.553 12.2184C512.319 12.0307 512.068 11.843 511.834 11.6553L512.334 10.9826C512.585 11.1703 512.835 11.3581 513.07 11.5458L512.553 12.2184ZM474.493 11.624L473.993 10.9513C474.243 10.7636 474.493 10.5759 474.744 10.4038L475.228 11.0921C474.978 11.2642 474.728 11.4363 474.493 11.624ZM511.083 11.1234C510.833 10.9513 510.582 10.7793 510.332 10.6072L510.801 9.90324C511.067 10.0753 511.318 10.2474 511.568 10.4351L511.083 11.1234ZM475.979 10.5915L475.51 9.8876C475.776 9.71552 476.026 9.54344 476.292 9.38701L476.746 10.1066C476.48 10.263 476.23 10.4351 475.979 10.5915ZM509.566 10.1222C509.315 9.96581 509.049 9.80938 508.783 9.65295L509.206 8.91771C509.472 9.07414 509.738 9.23058 510.004 9.40265L509.566 10.1222ZM477.512 9.6373L477.09 8.90207C477.356 8.74563 477.622 8.5892 477.903 8.44841L478.31 9.18365C478.044 9.32444 477.778 9.48087 477.512 9.62166V9.6373ZM507.986 9.21493C507.72 9.07414 507.454 8.93335 507.172 8.79256L507.548 8.04169C507.829 8.18248 508.111 8.32327 508.377 8.4797L507.97 9.21493H507.986ZM479.108 8.77692L478.733 8.02604C479.014 7.88525 479.296 7.76011 479.562 7.61932L479.921 8.38584C479.656 8.51099 479.374 8.65178 479.108 8.77692ZM506.359 8.38584C506.077 8.26069 505.811 8.13555 505.53 8.0104L505.858 7.22823C506.14 7.35338 506.421 7.47853 506.718 7.61932L506.359 8.38584ZM480.751 7.99476L480.422 7.21259C480.704 7.08744 480.985 6.97794 481.282 6.85279L481.595 7.63496C481.314 7.74446 481.032 7.86961 480.751 7.97911V7.99476ZM504.685 7.6506C504.403 7.5411 504.122 7.4316 503.84 7.32209L504.122 6.52429C504.419 6.63379 504.7 6.74329 504.998 6.85279L504.685 7.63496V7.6506ZM482.44 7.32209L482.143 6.52429C482.44 6.41478 482.737 6.32092 483.019 6.21142L483.285 7.00923C483.003 7.10309 482.706 7.19695 482.424 7.30645L482.44 7.32209ZM502.964 7.02487C502.682 6.93101 502.385 6.83715 502.104 6.75894L502.354 5.94548C502.651 6.03934 502.948 6.1332 503.246 6.22706L502.98 7.02487H502.964ZM484.161 6.74329L483.926 5.92984C484.223 5.83598 484.521 5.75776 484.833 5.67955L485.052 6.493C484.755 6.57122 484.458 6.64943 484.176 6.74329H484.161ZM501.228 6.493C500.93 6.41478 500.649 6.33657 500.352 6.27399L500.539 5.4449C500.837 5.52311 501.149 5.58569 501.447 5.67955L501.228 6.493ZM485.929 6.27399L485.741 5.4449C486.038 5.36668 486.351 5.30411 486.648 5.24153L486.82 6.07063C486.523 6.1332 486.226 6.19578 485.929 6.25835V6.27399ZM499.46 6.08627C499.163 6.0237 498.866 5.97677 498.568 5.9142L498.709 5.0851C499.022 5.13203 499.319 5.1946 499.616 5.25718L499.444 6.08627H499.46ZM487.712 5.9142L487.571 5.0851C487.884 5.02253 488.181 4.9756 488.494 4.92867L488.619 5.77341C488.322 5.82034 488.025 5.86727 487.727 5.9142H487.712ZM497.677 5.77341C497.379 5.72648 497.082 5.69519 496.769 5.64826L496.863 4.80352C497.176 4.83481 497.489 4.88174 497.786 4.92867L497.661 5.77341H497.677ZM489.526 5.64826L489.433 4.80352C489.745 4.77223 490.043 4.74095 490.356 4.70966L490.434 5.5544C490.121 5.58569 489.824 5.61697 489.526 5.64826ZM495.878 5.5544C495.58 5.52311 495.268 5.50747 494.97 5.49183L495.017 4.64709C495.33 4.66273 495.643 4.69402 495.956 4.70966L495.878 5.5544ZM491.341 5.49183L491.294 4.64709C491.607 4.63145 491.92 4.6158 492.233 4.60016V5.4449C491.951 5.4449 491.638 5.46054 491.341 5.47618V5.49183ZM494.063 5.46054C493.766 5.46054 493.453 5.46054 493.156 5.46054V4.6158C493.469 4.6158 493.781 4.6158 494.094 4.6158L494.063 5.46054Z" fill="#A2DEFE"/>
<path d="M401.579 300.586H279.436C278.998 300.586 278.654 300.242 278.654 299.804C278.654 299.366 278.998 299.021 279.436 299.021H401.579C402.017 299.021 402.362 299.366 402.362 299.804C402.362 300.242 402.017 300.586 401.579 300.586Z" fill="#70D7FE"/>
<path d="M310.316 299.804C310.316 302.041 308.501 303.84 306.28 303.84C304.059 303.84 302.244 302.025 302.244 299.804C302.244 297.582 304.059 295.768 306.28 295.768C308.501 295.768 310.316 297.582 310.316 299.804Z" fill="#70D7FE"/>
<path style="mix-blend-mode:lighten" opacity="0.5" d="M282.55 299.273C282.55 299.273 286.007 290.387 290.763 290.309C295.691 290.231 295.472 299.492 300.368 299.273C310.614 298.819 304.107 279.171 314.4 279.093C324.803 279.015 319.375 298.788 329.746 299.273C334.533 299.492 334.893 290.669 339.695 290.7C344.435 290.732 344.435 299.304 349.175 299.273C352.132 299.257 351.897 293.813 354.838 293.86C357.685 293.907 356.747 299.382 359.594 299.273C368.244 298.913 360.407 281.862 369.089 281.862C377.755 281.862 370.106 298.021 378.428 299.273C382.855 299.93 386.954 292.452 391.553 292.546C395.808 292.64 402.644 299.273 402.644 299.273H282.535H282.55Z" fill="url(#paint8_radial_11_3233)"/>
<path d="M391.333 28.3936H390.065V30.0517H391.333V28.3936Z" fill="#73CFFE"/>
<path d="M393.914 26.7347H392.647V30.0511H393.914V26.7347Z" fill="#73CFFE"/>
<path d="M396.494 25.4358H395.227V30.0662H396.494V25.4358Z" fill="#73CFFE"/>
<path d="M399.061 24.1223H397.794V30.0511H399.061V24.1223Z" fill="#73CFFE"/>
<defs>
<radialGradient id="paint0_radial_11_3233" cx="0" cy="0" r="1" gradientUnits="userSpaceOnUse" gradientTransform="translate(406.21 62.4482) scale(289.229 289.229)">
<stop stop-color="#3E068D"/>
<stop offset="1" stop-color="#29013E"/>
</radialGradient>
<linearGradient id="paint1_linear_11_3233" x1="0" y1="361.751" x2="681" y2="361.751" gradientUnits="userSpaceOnUse">
<stop stop-color="#2D0244"/>
<stop offset="0.34" stop-color="#53A5F8"/>
<stop offset="0.38" stop-color="#69BDFA"/>
<stop offset="0.42" stop-color="#7CD1FC"/>
<stop offset="0.47" stop-color="#88DDFD"/>
<stop offset="0.51" stop-color="#8CE2FE"/>
<stop offset="0.56" stop-color="#79CEFC"/>
<stop offset="0.67" stop-color="#53A5F8"/>
<stop offset="0.73" stop-color="#497BCA"/>
<stop offset="0.82" stop-color="#3D4791"/>
<stop offset="0.9" stop-color="#342167"/>
<stop offset="0.96" stop-color="#2F0A4D"/>
<stop offset="1" stop-color="#2D0244"/>
</linearGradient>
<radialGradient id="paint2_radial_11_3233" cx="0" cy="0" r="1" gradientUnits="userSpaceOnUse" gradientTransform="translate(339.601 207.805) scale(68.0327 68.0328)">
<stop stop-color="#60C4FE"/>
<stop offset="1" stop-color="#2A023F"/>
</radialGradient>
<radialGradient id="paint3_radial_11_3233" cx="0" cy="0" r="1" gradientUnits="userSpaceOnUse" gradientTransform="translate(340.509 134.97) scale(66.4528)">
<stop stop-color="#60C4FE"/>
<stop offset="0.24" stop-color="#5293CD"/>
<stop offset="0.76" stop-color="#352B67"/>
<stop offset="1" stop-color="#2A023F"/>
</radialGradient>
<radialGradient id="paint4_radial_11_3233" cx="0" cy="0" r="1" gradientUnits="userSpaceOnUse" gradientTransform="translate(304.505 297.018) scale(58.9753 58.9753)">
<stop stop-color="#60C4FE"/>
<stop offset="0.24" stop-color="#5293CD"/>
<stop offset="0.76" stop-color="#352B67"/>
<stop offset="1" stop-color="#2A023F"/>
</radialGradient>
<radialGradient id="paint5_radial_11_3233" cx="0" cy="0" r="1" gradientUnits="userSpaceOnUse" gradientTransform="translate(167.28 268.818) rotate(-135) scale(121.721)">
<stop stop-color="#A0F5FE"/>
<stop offset="0.38" stop-color="#7093B1"/>
<stop offset="0.81" stop-color="#3E2B5F"/>
<stop offset="1" stop-color="#2A023F"/>
</radialGradient>
<radialGradient id="paint6_radial_11_3233" cx="0" cy="0" r="1" gradientUnits="userSpaceOnUse" gradientTransform="translate(494.855 39.5514) rotate(-135) scale(104.888)">
<stop stop-color="#514DDF"/>
<stop offset="0.09" stop-color="#4D46D0"/>
<stop offset="0.72" stop-color="#341568"/>
<stop offset="1" stop-color="#2A023F"/>
</radialGradient>
<radialGradient id="paint7_radial_11_3233" cx="0" cy="0" r="1" gradientUnits="userSpaceOnUse" gradientTransform="translate(468.828 44.583) rotate(-135) scale(35.3852)">
<stop stop-color="#514DDF"/>
<stop offset="0.2" stop-color="#4E48D4"/>
<stop offset="1" stop-color="#4738AB"/>
</radialGradient>
<radialGradient id="paint8_radial_11_3233" cx="0" cy="0" r="1" gradientUnits="userSpaceOnUse" gradientTransform="translate(340.133 297.474) scale(55.9874 55.9874)">
<stop stop-color="#60C4FE"/>
<stop offset="1" stop-color="#2A023F"/>
</radialGradient>
</defs>
</svg>
