<svg width="393" height="363" viewBox="0 0 393 363" fill="none" xmlns="http://www.w3.org/2000/svg">
<path d="M117.028 173.207C117.028 173.207 90.3573 162.553 78.6277 153.099C66.8981 143.646 62.4157 149.985 57.1653 148.393C51.9149 146.801 34.5858 134.709 32.0304 141.802C29.475 148.896 41.2186 151.786 46.9996 162.022C52.7807 172.257 50.1555 173.193 57.5004 178.499C64.8454 183.806 69.8445 187.729 70.6264 192.868C71.4084 198.007 99.4059 196.555 99.4059 196.555L117.028 173.207Z" fill="url(#paint0_linear_2775_9709)"/>
<path d="M31.9609 141.801C31.9609 141.801 78.642 174.504 107.952 185.228" stroke="white" stroke-width="0.586481" stroke-miterlimit="10"/>
<path d="M49.0391 144.468C49.0391 144.468 53.2282 150.989 53.9264 156.337" stroke="white" stroke-width="0.586481" stroke-miterlimit="10"/>
<path d="M45.7305 160.096C45.7305 160.096 52.2236 161.129 64.3163 162.749" stroke="white" stroke-width="0.586481" stroke-miterlimit="10"/>
<path d="M73.2227 149.522C76.6468 156.682 79.0668 164.281 80.414 172.102" stroke="white" stroke-width="0.586481" stroke-miterlimit="10"/>
<path d="M65.4023 184.726C65.4023 184.726 75.177 183.33 95.0475 179.686" stroke="white" stroke-width="0.586481" stroke-miterlimit="10"/>
<path d="M150.499 162.216C150.499 162.216 149.103 106.556 140.403 103.261C131.704 99.9653 132.835 110.159 127.11 109.824C121.384 109.489 113.872 81.8961 107.672 81.5889C101.472 81.2816 96.864 87.3559 88.1226 81.5889C79.3813 75.8218 58.5472 60.671 49.8897 67.9322C41.2321 75.1934 67.9309 93.0671 68.6431 107.185C69.3552 121.302 61.8008 119.989 66.1156 127.292C70.4304 134.596 83.5983 140.209 84.1569 145.767C84.7154 151.324 81.3641 161.909 90.6361 171.767C99.9081 181.626 115.855 184.726 115.855 184.726L150.499 162.216Z" fill="url(#paint1_linear_2775_9709)"/>
<path d="M49.8906 67.9346C49.8906 67.9346 112.365 112.619 135.279 172.161" stroke="white" stroke-width="0.586481" stroke-miterlimit="10"/>
<path d="M74.0508 72.5547C77.1636 79.4995 79.3694 86.8162 80.6138 94.3243" stroke="white" stroke-width="0.586481" stroke-miterlimit="10"/>
<path d="M65.4453 98.1514C65.4453 98.1514 75.6668 101.6 91.809 105.831" stroke="white" stroke-width="0.586481" stroke-miterlimit="10"/>
<path d="M101.617 82.7637C101.617 82.7637 104.661 95.5545 102.706 118.316" stroke="white" stroke-width="0.586481" stroke-miterlimit="10"/>
<path d="M64.8164 122.866C64.8164 122.866 82.2153 129.583 111.749 130.016" stroke="white" stroke-width="0.586481" stroke-miterlimit="10"/>
<path d="M127.109 109.825C127.109 109.825 127.849 134.066 124.512 149.594" stroke="white" stroke-width="0.586481" stroke-miterlimit="10"/>
<path d="M84.0625 156.338C99.5701 161.009 115.641 163.55 131.833 163.892" stroke="white" stroke-width="0.586481" stroke-miterlimit="10"/>
<path d="M286.523 209.079C286.523 209.079 331.71 112.533 348.481 109.028C365.251 105.524 327.661 172.173 297.094 207.669L286.523 209.079Z" fill="url(#paint2_linear_2775_9709)"/>
<path d="M308.188 226.507C308.188 226.507 376.61 169.632 390.337 181.543C407.652 196.61 310.045 231.646 310.045 231.646L308.188 226.507Z" fill="url(#paint3_linear_2775_9709)"/>
<path d="M284.124 240.721C283.579 227.748 278.441 211.969 284.124 209.847C289.807 207.724 292.237 209.442 296.566 197.363C300.895 185.284 300.35 161.755 308.463 163.375C316.576 164.995 314.412 178.735 325.22 170.147C336.028 161.56 359.012 130.923 371.188 139.86C383.365 148.797 355.228 183.148 355.228 195.562C355.228 207.975 362.21 215.027 359.557 222.33C356.903 229.633 343.331 233.152 339.281 240.721C335.232 248.289 346.263 255.871 323.586 261.01C300.909 266.149 284.124 240.721 284.124 240.721Z" fill="url(#paint4_linear_2775_9709)"/>
<path d="M371.199 139.86C371.199 139.86 321.92 197.517 295.18 252.66" stroke="white" stroke-width="0.586481" stroke-miterlimit="10"/>
<path d="M366.51 168.948C366.51 168.948 364.317 170.065 343.344 175.414" stroke="white" stroke-width="0.586481" stroke-miterlimit="10"/>
<path d="M339.138 156.562C339.138 156.562 335.06 167.733 337.029 184.112" stroke="white" stroke-width="0.586481" stroke-miterlimit="10"/>
<path d="M355.235 195.562C355.235 195.562 335.811 204.778 322.602 205.266" stroke="white" stroke-width="0.586481" stroke-miterlimit="10"/>
<path d="M314.854 170.343C314.854 170.343 309.868 199.946 314.072 218.574" stroke="white" stroke-width="0.586481" stroke-miterlimit="10"/>
<path d="M357.521 225.585C357.521 225.585 328.281 232.162 306.344 231.617" stroke="white" stroke-width="0.586481" stroke-miterlimit="10"/>
<path d="M290.352 207.668C290.352 207.668 292.223 228.767 298.856 245.37" stroke="black" stroke-width="0.586481" stroke-miterlimit="10"/>
<path d="M137.501 16.002L131.301 19.7722L311.672 267.309L312.314 266.96C314.233 265.878 315.83 264.306 316.941 262.405C318.053 260.503 318.639 258.34 318.639 256.138V120.577L137.501 16.002Z" fill="#0B4D78"/>
<path style="mix-blend-mode:multiply" opacity="0.4" d="M251.742 185.06L311.675 267.307L312.317 266.958C314.236 265.876 315.833 264.304 316.944 262.403C318.056 260.501 318.642 258.339 318.643 256.136V120.575L311.661 124.22L251.742 185.06Z" fill="url(#paint5_linear_2775_9709)"/>
<path d="M131.302 162.888L0.363281 240.932L0.474992 250.217C0.474992 251.977 0.768234 253.89 2.52768 254.895L170.289 351.748C172.142 352.818 174.244 353.382 176.384 353.382C178.524 353.382 180.626 352.818 182.479 351.748L307.889 279.22C309.04 278.555 309.997 277.599 310.661 276.446C311.325 275.294 311.674 273.987 311.673 272.657V267.309L131.302 162.888Z" fill="#0B4D78"/>
<path d="M311.678 267.308L131.293 162.859V19.7715L311.678 124.221V267.308Z" fill="url(#paint6_linear_2775_9709)"/>
<path d="M305.32 256.905L137.656 159.829V30.1748L305.32 127.251V256.905Z" fill="white"/>
<path d="M305.318 256.905L241.461 219.929V90.2744L305.318 127.251V256.905Z" fill="#D4F3FF"/>
<path d="M305.32 133.717L137.656 36.6401V30.1748L305.32 127.251V133.717Z" fill="#7ABDD6"/>
<path d="M144.148 37.2135C144.148 38.0374 143.478 38.3166 142.654 37.8419C142.239 37.592 141.887 37.2486 141.628 36.8389C141.368 36.4291 141.208 35.9645 141.16 35.482C141.16 34.6581 141.83 34.3649 142.654 34.8536C143.07 35.1035 143.421 35.4469 143.681 35.8566C143.94 36.2663 144.1 36.731 144.148 37.2135Z" fill="#006BBD"/>
<path d="M151.875 41.6409C151.875 42.4648 151.219 42.744 150.381 42.2693C149.965 42.0194 149.614 41.676 149.354 41.2662C149.095 40.8565 148.935 40.3919 148.887 39.9094C148.887 39.0855 149.557 38.8062 150.381 39.281C150.799 39.5283 151.152 39.8711 151.412 40.2813C151.671 40.6915 151.83 41.1575 151.875 41.6409Z" fill="#006BBD"/>
<path d="M159.605 46.1067C159.605 46.9445 158.935 47.2238 158.111 46.7351C157.694 46.4869 157.342 46.1439 157.082 45.7339C156.822 45.3238 156.663 44.8583 156.617 44.3752C156.617 43.5513 157.287 43.2721 158.111 43.7468C158.526 43.9975 158.877 44.3412 159.136 44.7507C159.396 45.1603 159.556 45.6245 159.605 46.1067Z" fill="#006BBD"/>
<path d="M222.515 164.396C235.813 154.402 232.247 127.214 214.551 103.671C196.855 80.1273 171.73 69.1443 158.432 79.1391C145.135 89.1339 148.701 116.322 166.397 139.865C184.093 163.408 209.218 174.391 222.515 164.396Z" fill="#FAD05B"/>
<path d="M232.3 163.32C234.714 158.568 235.895 153.287 235.736 147.96C235.736 122.95 215.46 90.9453 190.465 76.4648V121.777L232.3 163.32Z" fill="#FAE19B"/>
<path d="M190.465 121.776L215.488 167.564C218.03 167.042 220.426 165.964 222.502 164.407C224.578 162.849 226.284 160.852 227.497 158.557L190.465 121.776Z" fill="#FA5252"/>
<path d="M190.465 161.867C199.932 167.354 208.618 169.086 215.488 167.564L190.465 121.776L167.215 140.963C173.565 149.345 181.456 156.44 190.465 161.867Z" fill="#685BFA"/>
<path d="M291.053 149.091L255.724 128.634C255.367 128.411 255.065 128.111 254.84 127.756C254.615 127.4 254.474 126.999 254.426 126.581C254.426 125.869 255.012 125.617 255.724 126.036L291.053 146.493C291.417 146.707 291.725 147.005 291.951 147.362C292.177 147.719 292.314 148.125 292.352 148.546C292.352 149.258 291.779 149.496 291.053 149.091Z" fill="#7ABDD6"/>
<path d="M291.053 156.869L255.724 136.356C255.363 136.138 255.058 135.84 254.832 135.483C254.607 135.127 254.468 134.723 254.426 134.303C254.426 133.591 255.012 133.354 255.724 133.759L291.053 154.216C291.415 154.432 291.721 154.731 291.947 155.087C292.172 155.444 292.311 155.848 292.352 156.268C292.352 157.036 291.779 157.302 291.053 156.869Z" fill="#7ABDD6"/>
<path d="M291.053 164.647L255.724 144.204C255.367 143.982 255.065 143.682 254.84 143.326C254.615 142.971 254.474 142.569 254.426 142.151C254.426 141.425 255.012 141.188 255.724 141.607L291.053 162.05C291.415 162.266 291.721 162.565 291.947 162.922C292.172 163.278 292.311 163.683 292.352 164.102C292.352 164.829 291.779 165.066 291.053 164.647Z" fill="#7ABDD6"/>
<path d="M233.379 197.309L145.742 146.564V143.018L233.379 193.762V197.309Z" fill="#C4C4C4"/>
<path d="M233.379 204.415L145.742 153.656V150.109L233.379 200.854V204.415Z" fill="#C4C4C4"/>
<path d="M305.318 256.905L241.461 219.929V160.178L305.318 197.154V256.905Z" fill="#7ABDD6"/>
<path d="M248.938 178.093L297.853 206.411" stroke="white" stroke-width="0.586481" stroke-miterlimit="10"/>
<path d="M248.938 181.18L297.853 209.498" stroke="white" stroke-width="0.586481" stroke-miterlimit="10"/>
<path d="M248.938 184.265L297.853 212.583" stroke="white" stroke-width="0.586481" stroke-miterlimit="10"/>
<path d="M248.938 187.353L297.853 215.671" stroke="white" stroke-width="0.586481" stroke-miterlimit="10"/>
<path d="M248.938 190.424L297.853 218.756" stroke="white" stroke-width="0.586481" stroke-miterlimit="10"/>
<path d="M248.938 193.509L297.853 221.827" stroke="white" stroke-width="0.586481" stroke-miterlimit="10"/>
<path d="M248.938 196.596L297.853 224.914" stroke="white" stroke-width="0.586481" stroke-miterlimit="10"/>
<path d="M248.938 199.683L297.853 228.001" stroke="white" stroke-width="0.586481" stroke-miterlimit="10"/>
<path d="M248.938 202.768L297.853 231.086" stroke="white" stroke-width="0.586481" stroke-miterlimit="10"/>
<path d="M248.938 205.839L297.853 234.171" stroke="white" stroke-width="0.586481" stroke-miterlimit="10"/>
<path d="M248.938 208.927L297.853 237.245" stroke="white" stroke-width="0.586481" stroke-miterlimit="10"/>
<path d="M248.938 212.012L273.011 225.948" stroke="white" stroke-width="0.586481" stroke-miterlimit="10"/>
<path d="M311.675 267.309L182.482 342.03C180.629 343.1 178.526 343.663 176.387 343.663C174.247 343.663 172.145 343.1 170.291 342.03L2.52995 245.177C1.87468 244.798 1.33061 244.253 0.952367 243.597C0.574119 242.942 0.375 242.198 0.375 241.441C0.375 240.684 0.574119 239.941 0.952367 239.285C1.33061 238.629 1.87468 238.085 2.52995 237.706L131.304 162.888L311.675 267.309Z" fill="#3C9BD6"/>
<path d="M147.446 180.928L134.878 173.667L122.395 180.928L134.962 188.189L147.446 180.928Z" fill="#44AFF2"/>
<path d="M163.727 190.326L151.159 183.079L138.676 190.326L151.243 197.588L163.727 190.326Z" fill="#44AFF2"/>
<path d="M180.008 199.724L167.441 192.477L154.957 199.724L167.524 206.985L180.008 199.724Z" fill="#44AFF2"/>
<path d="M196.307 209.135L183.74 201.874L171.242 209.135L183.81 216.396L196.307 209.135Z" fill="#44AFF2"/>
<path d="M212.585 218.533L200.017 211.286L187.52 218.533L200.101 225.795L212.585 218.533Z" fill="#44AFF2"/>
<path d="M228.854 227.93L216.3 220.683L203.816 227.944L216.37 235.191L228.854 227.93Z" fill="#44AFF2"/>
<path d="M245.151 237.33L232.57 230.083L220.086 237.33L232.653 244.591L245.151 237.33Z" fill="#44AFF2"/>
<path d="M261.428 246.741L248.861 239.479L236.363 246.741L248.945 253.988L261.428 246.741Z" fill="#44AFF2"/>
<path d="M277.707 256.138L265.14 248.877L252.656 256.138L265.224 263.399L277.707 256.138Z" fill="#44AFF2"/>
<path d="M293.996 265.534L281.429 258.287L268.945 265.534L281.513 272.796L293.996 265.534Z" fill="#44AFF2"/>
<path d="M131.46 190.228L118.878 182.967L106.395 190.228L118.962 197.475L131.46 190.228Z" fill="#44AFF2"/>
<path d="M147.741 199.624L135.173 192.363L122.676 199.624L135.243 206.886L147.741 199.624Z" fill="#44AFF2"/>
<path d="M164.024 209.023L151.456 201.762L138.973 209.023L151.54 216.284L164.024 209.023Z" fill="#44AFF2"/>
<path d="M180.305 218.436L167.738 211.175L155.254 218.436L167.821 225.683L180.305 218.436Z" fill="#44AFF2"/>
<path d="M196.578 227.832L184.011 220.571L171.527 227.832L184.095 235.094L196.578 227.832Z" fill="#44AFF2"/>
<path d="M212.86 237.231L200.306 229.97L187.809 237.231L200.376 244.478L212.86 237.231Z" fill="#44AFF2"/>
<path d="M229.145 246.627L216.577 239.366L204.094 246.627L216.661 253.889L229.145 246.627Z" fill="#44AFF2"/>
<path d="M245.426 256.027L232.859 248.779L220.375 256.027L232.942 263.288L245.426 256.027Z" fill="#44AFF2"/>
<path d="M261.721 265.437L249.14 258.176L236.656 265.437L249.224 272.684L261.721 265.437Z" fill="#44AFF2"/>
<path d="M278.003 274.835L265.435 267.574L252.938 274.835L265.505 282.097L278.003 274.835Z" fill="#44AFF2"/>
<path d="M115.448 199.515L102.88 192.268L90.3828 199.515L102.964 206.776L115.448 199.515Z" fill="#44AFF2"/>
<path d="M131.735 208.926L119.167 201.665L106.684 208.926L119.251 216.173L131.735 208.926Z" fill="#44AFF2"/>
<path d="M148.02 218.324L135.452 211.062L122.969 218.324L135.536 225.585L148.02 218.324Z" fill="#44AFF2"/>
<path d="M164.311 227.72L151.73 220.473L139.246 227.72L151.814 234.981L164.311 227.72Z" fill="#44AFF2"/>
<path d="M180.596 237.132L168.029 229.871L155.531 237.132L168.113 244.38L180.596 237.132Z" fill="#44AFF2"/>
<path d="M196.865 246.516L184.312 239.269L171.828 246.53L184.382 253.777L196.865 246.516Z" fill="#44AFF2"/>
<path d="M213.155 255.927L200.574 248.666L188.09 255.927L200.657 263.174L213.155 255.927Z" fill="#44AFF2"/>
<path d="M229.44 265.327L216.873 258.065L204.375 265.327L216.942 272.588L229.44 265.327Z" fill="#44AFF2"/>
<path d="M245.723 274.722L233.156 267.475L220.672 274.722L233.239 281.983L245.723 274.722Z" fill="#44AFF2"/>
<path d="M262.004 284.135L249.437 276.874L236.953 284.135L249.521 291.382L262.004 284.135Z" fill="#44AFF2"/>
<path d="M99.4535 208.813L86.886 201.552L74.4023 208.813L86.9698 216.074L99.4535 208.813Z" fill="#44AFF2"/>
<path d="M115.749 218.212L103.181 210.965L90.6836 218.212L103.251 225.473L115.749 218.212Z" fill="#44AFF2"/>
<path d="M132.026 227.623L119.459 220.362L106.961 227.623L119.542 234.871L132.026 227.623Z" fill="#44AFF2"/>
<path d="M148.313 237.021L135.745 229.76L123.262 237.021L135.829 244.282L148.313 237.021Z" fill="#44AFF2"/>
<path d="M164.594 246.418L152.027 239.171L139.543 246.418L152.11 253.679L164.594 246.418Z" fill="#44AFF2"/>
<path d="M180.871 255.816L168.304 248.568L155.82 255.83L168.374 263.077L180.871 255.816Z" fill="#44AFF2"/>
<path d="M197.153 265.214L184.585 257.967L172.102 265.214L184.669 272.475L197.153 265.214Z" fill="#44AFF2"/>
<path d="M213.438 274.625L200.87 267.364L188.387 274.625L200.954 281.887L213.438 274.625Z" fill="#44AFF2"/>
<path d="M229.715 284.023L217.148 276.762L204.664 284.023L217.232 291.284L229.715 284.023Z" fill="#44AFF2"/>
<path d="M246.01 293.422L233.443 286.175L220.945 293.436L233.513 300.683L246.01 293.422Z" fill="#44AFF2"/>
<path d="M83.4518 218.113L70.8843 210.866L58.3867 218.113L70.9681 225.375L83.4518 218.113Z" fill="#44AFF2"/>
<path d="M99.7308 227.526L87.1634 220.265L74.6797 227.526L87.2471 234.773L99.7308 227.526Z" fill="#44AFF2"/>
<path d="M116.008 236.922L103.441 229.661L90.957 236.922L103.524 244.184L116.008 236.922Z" fill="#44AFF2"/>
<path d="M132.307 246.321L119.74 239.074L107.242 246.321L119.81 253.583L132.307 246.321Z" fill="#44AFF2"/>
<path d="M148.589 255.733L136.021 248.472L123.523 255.733L136.105 262.98L148.589 255.733Z" fill="#44AFF2"/>
<path d="M164.857 265.116L152.304 257.869L139.82 265.13L152.374 272.378L164.857 265.116Z" fill="#44AFF2"/>
<path d="M181.141 274.528L168.574 267.267L156.09 274.528L168.657 281.775L181.141 274.528Z" fill="#44AFF2"/>
<path d="M197.436 283.925L184.855 276.664L172.371 283.925L184.939 291.186L197.436 283.925Z" fill="#44AFF2"/>
<path d="M213.721 293.323L201.154 286.076L188.656 293.323L201.238 300.585L213.721 293.323Z" fill="#44AFF2"/>
<path d="M230 302.735L217.433 295.474L204.949 302.735L217.517 309.982L230 302.735Z" fill="#44AFF2"/>
<path d="M123.806 306.534L159.26 286.063L99.2154 251.391L63.6914 271.834L123.806 306.534Z" fill="url(#paint7_linear_2775_9709)"/>
<g style="mix-blend-mode:multiply" opacity="0.4">
<path d="M140.895 126.666L81.1719 92.4683V7.38672L140.895 41.5841V126.666Z" fill="url(#paint8_linear_2775_9709)"/>
</g>
<path d="M137.809 128.536L78.0859 94.3384V9.25684L137.809 43.4542V128.536Z" fill="white"/>
<path d="M88.7823 38.61C88.7823 39.2663 88.3913 39.5735 87.9165 39.2942C87.6504 39.1029 87.4333 38.8513 87.2829 38.5601C87.1324 38.269 87.0529 37.9463 87.0508 37.6186C87.0508 36.9623 87.4418 36.6551 87.9165 36.9204C88.1821 37.1155 88.3986 37.3697 88.5489 37.663C88.6991 37.9563 88.7791 38.2805 88.7823 38.61Z" stroke="#878787" stroke-width="0.265313" stroke-miterlimit="10" stroke-linecap="round"/>
<path d="M87.9141 39.2363V66.759" stroke="#878787" stroke-width="0.265313" stroke-miterlimit="10" stroke-linecap="round"/>
<path d="M113.346 55.2682C113.346 55.9106 112.955 56.2317 112.481 55.9524C112.216 55.7604 112.001 55.5083 111.853 55.2171C111.705 54.9258 111.628 54.6035 111.629 54.2768C111.629 53.6205 112.006 53.3133 112.481 53.5786C112.746 53.7737 112.963 54.0279 113.113 54.3212C113.263 54.6145 113.343 54.9387 113.346 55.2682Z" stroke="#878787" stroke-width="0.265313" stroke-miterlimit="10" stroke-linecap="round"/>
<path d="M112.477 55.9531V98.1378" stroke="#878787" stroke-width="0.265313" stroke-miterlimit="10" stroke-linecap="round"/>
<path d="M137.809 52.0839L78.0859 17.8865V9.25684L137.809 43.4542V52.0839Z" fill="#7ABDD6"/>
<path d="M84.074 17.0068C84.074 18.11 83.4177 18.6406 82.6776 18.1798C82.2457 17.8531 81.8949 17.4312 81.6527 16.9468C81.4105 16.4624 81.2834 15.9286 81.2812 15.387C81.2812 14.2839 81.9236 13.7672 82.6776 14.228C83.1054 14.5554 83.4534 14.9756 83.6952 15.4569C83.9371 15.9382 84.0666 16.4682 84.074 17.0068Z" fill="#006BBD"/>
<path d="M90.5271 20.6935C90.5271 21.7966 89.8708 22.3272 89.1308 21.8664C88.7011 21.5376 88.3521 21.1152 88.1101 20.6313C87.8682 20.1473 87.7397 19.6147 87.7344 19.0737C87.7344 17.9705 88.3907 17.4399 89.1308 17.9007C89.5619 18.2281 89.9121 18.6502 90.1542 19.1344C90.3963 19.6187 90.5239 20.1521 90.5271 20.6935Z" fill="#006BBD"/>
<path d="M96.9685 24.38C96.9685 25.4971 96.3262 26.0138 95.5722 25.5529C95.1402 25.2263 94.7894 24.8043 94.5472 24.3199C94.305 23.8355 94.1779 23.3018 94.1758 22.7602C94.1758 21.657 94.8181 21.1264 95.5722 21.5872C96.0041 21.9139 96.3549 22.3358 96.5971 22.8202C96.8393 23.3046 96.9664 23.8384 96.9685 24.38Z" fill="#006BBD"/>
<path d="M137.809 67.9319C136.993 67.7734 136.15 67.8117 135.352 68.0436C130.995 69.3003 127.867 76.0169 124.558 83.1385C121.36 90.0366 117.701 97.8424 113.847 97.3257C108.723 96.6415 105.581 90.6231 102.257 84.2695C99.9393 79.829 97.5375 75.2489 94.284 72.3584C93.3196 71.4594 92.182 70.7666 90.9407 70.3224C89.6994 69.8782 88.3805 69.692 87.0647 69.7751C83.7134 70.219 80.5792 71.6813 78.0859 73.9642V77.511C79.3846 76.1147 83.1548 72.7075 87.2322 72.4422C88.2044 72.3743 89.18 72.5107 90.0963 72.8426C91.0126 73.1744 91.8493 73.6945 92.5525 74.3692C95.443 76.9385 97.733 81.3511 99.9393 85.5402C103.43 92.201 107.033 99.0991 113.498 99.9788H114.28C119.614 99.9788 123.175 92.3406 126.931 84.2556C129.724 78.2791 132.866 71.4926 136.078 70.5571C136.649 70.3937 137.26 70.4281 137.809 70.6548V67.9319Z" fill="#FAD05B"/>
<path d="M96.9676 56.2448C96.9676 56.9011 96.5905 57.2083 96.1018 56.929C95.8375 56.7369 95.6224 56.4849 95.4744 56.1936C95.3263 55.9023 95.2494 55.5801 95.25 55.2534C95.25 54.5971 95.627 54.2898 96.1018 54.5552C96.369 54.7487 96.5867 55.0026 96.7371 55.2963C96.8875 55.5899 96.9665 55.9149 96.9676 56.2448Z" stroke="#878787" stroke-width="0.265313" stroke-miterlimit="10" stroke-linecap="round"/>
<path d="M96.0938 56.9307V80.3201" stroke="#878787" stroke-width="0.265313" stroke-miterlimit="10" stroke-linecap="round"/>
<path d="M105.161 65.8656C105.161 66.5219 104.77 66.8291 104.295 66.5638C104.03 66.3716 103.814 66.1199 103.663 65.8289C103.513 65.5379 103.433 65.2157 103.43 64.8881C103.43 64.2318 103.821 63.9106 104.295 64.1899C104.562 64.3813 104.779 64.6328 104.929 64.924C105.08 65.2152 105.159 65.5378 105.161 65.8656Z" stroke="#878787" stroke-width="0.265313" stroke-miterlimit="10" stroke-linecap="round"/>
<path d="M104.297 66.5645V93.2912" stroke="#878787" stroke-width="0.265313" stroke-miterlimit="10" stroke-linecap="round"/>
<path d="M137.808 71.3118C135.671 63.7155 132.585 54.9881 129.262 53.1589C128.831 52.9109 128.348 52.7655 127.852 52.734C127.355 52.7026 126.858 52.7858 126.399 52.9773C122.964 54.3737 120.646 61.5232 117.253 73.0992C116.052 77.1906 114.809 81.4775 113.552 84.773C111.751 89.5626 109.182 92.3134 106.487 92.3274C103.317 92.3274 100.007 88.613 97.6197 82.3852C92.9139 70.097 86.9513 57.5435 78.0703 56.2309V58.8701C85.4711 60.3921 91.0567 72.6105 95.162 83.3207C97.9548 90.7076 102.144 94.9386 106.459 94.9386C110.341 94.9386 113.72 91.6432 115.954 85.6946C117.239 82.2595 118.496 77.9726 119.71 73.8253C121.987 66.0754 124.821 56.4404 127.349 55.3931C127.443 55.3405 127.548 55.3129 127.656 55.3129C127.763 55.3129 127.869 55.3405 127.963 55.3931C131.356 57.2503 135.629 72.1497 137.738 82.078L137.808 71.3118Z" fill="#7ABDD6"/>
<path d="M144.189 251.963C144.189 253.22 143.518 256.152 144.189 257.143C144.859 258.135 146.898 258.945 151.045 256.92C155.192 254.895 156.951 253.848 156.547 252.41C156.142 250.971 150.64 253.22 149.327 251.963C148.015 250.706 144.189 251.963 144.189 251.963Z" fill="#663131"/>
<path d="M112.071 240.763C112.071 240.763 109.278 244.407 109.432 245.692C109.585 246.977 112.071 247.996 114.235 248.666C116.4 249.336 119.989 251.571 120.798 250.761C121.608 249.951 115.604 246.125 115.66 244.882C115.725 244.061 116.004 243.271 116.47 242.592L112.071 240.763Z" fill="#663131"/>
<path d="M147.573 176.682L149.807 251.64C149.807 251.64 148.411 254.433 143.789 252.729L134.322 194.081C134.322 194.081 133.246 212.011 130.272 218.504C127.298 224.997 116.308 243.918 116.308 243.918L110.723 241.349C110.723 241.349 120.874 222.274 121.81 214.971C122.746 207.668 123.025 174.686 123.025 174.686L147.573 176.682Z" fill="#083959"/>
<path d="M142.816 201.413L166.136 187.938L168.496 189.292L166.136 206.23L145.176 221.032L142.816 219.691V201.413Z" fill="#C78133"/>
<path d="M145.164 202.753L168.484 189.292V207.571L145.164 221.032V202.753Z" fill="url(#paint9_linear_2775_9709)"/>
<path style="mix-blend-mode:multiply" opacity="0.51" d="M145.164 202.753L156.824 209.553L168.484 189.292L145.164 202.753Z" fill="url(#paint10_linear_2775_9709)"/>
<path d="M145.164 202.753L156.824 207.501L168.484 189.292L145.164 202.753Z" fill="#CFC100"/>
<path d="M153.026 197.21H152.426V194.808C152.426 194.466 152.517 194.129 152.689 193.833C152.86 193.536 153.107 193.29 153.403 193.119L157.383 190.815C157.533 190.726 157.704 190.68 157.879 190.68C158.053 190.68 158.224 190.726 158.374 190.815C158.523 190.902 158.646 191.026 158.732 191.176C158.817 191.325 158.863 191.494 158.863 191.667V193.845H158.277V191.667C158.275 191.599 158.256 191.533 158.222 191.474C158.187 191.415 158.139 191.366 158.081 191.331C158.022 191.296 157.955 191.277 157.886 191.277C157.817 191.277 157.749 191.296 157.69 191.331L153.641 193.607C153.437 193.732 153.268 193.906 153.151 194.114C153.033 194.321 152.971 194.556 152.97 194.794L153.026 197.21Z" fill="#663131"/>
<path d="M151.969 188.439L152.485 190.366L153.323 192.196C153.323 192.196 153.156 193.955 153.938 194.081C155.598 193.83 157.125 193.022 158.266 191.791C158.453 191.073 158.404 190.314 158.127 189.626L155.18 187.364L151.969 188.439Z" fill="#FF9387"/>
<path style="mix-blend-mode:multiply" opacity="0.51" d="M147.739 182.116L147.572 176.684L123.093 174.701C123.093 174.701 123.093 177.606 123.023 181.851C134.446 186.626 145.435 182.982 147.739 182.116Z" fill="url(#paint11_linear_2775_9709)"/>
<path d="M129.011 129.29C124.822 128.327 121.065 130.519 118.901 136.412C116.737 142.304 111.151 156.087 112.771 159.522C114.391 162.957 126.12 166.364 126.12 166.364L126.972 160.778L119.99 156.268L126.12 142.388C126.567 141.131 129.011 129.29 129.011 129.29Z" fill="#083959"/>
<path d="M138.508 133.73L148.674 140.125C149.017 140.338 149.296 140.64 149.481 140.999C149.665 141.358 149.748 141.761 149.721 142.164L147.975 168.472L149.805 178.749C149.805 178.749 136.623 186.667 120.941 175.16L125.131 162.886L122.338 136.564C122.22 135.571 122.33 134.563 122.659 133.618C122.94 132.67 123.434 131.799 124.105 131.073C124.776 130.347 125.604 129.784 126.527 129.429C130.465 128.06 138.508 133.73 138.508 133.73Z" fill="#0B4D78"/>
<path d="M148.672 140.126C151.981 141.313 152.861 167.132 152.861 167.132L156.464 187.324C155.893 188.085 155.122 188.672 154.237 189.02C153.351 189.367 152.387 189.462 151.451 189.292C151.451 189.292 145.865 172.075 145.014 167.607C144.162 163.138 142.654 151.171 142.109 148.267C141.564 145.362 143.142 138.129 148.672 140.126Z" fill="#083959"/>
<path style="mix-blend-mode:multiply" opacity="0.51" d="M120.765 219.329C117.973 227.959 110.781 241.364 110.781 241.364L116.367 243.934C116.367 243.934 127.328 225.013 130.331 218.519C133.333 212.026 134.38 194.097 134.38 194.097V188.022C134.38 188.022 130.303 219.092 120.765 219.329Z" fill="url(#paint12_linear_2775_9709)"/>
<path d="M142.91 117.169L144.739 123.858L143.818 124.137C144.009 125.798 144.009 127.475 143.818 129.136C143.397 129.686 142.846 130.123 142.215 130.408C141.584 130.693 140.892 130.818 140.201 130.77V134.428C140.201 136.048 137.101 136.858 135.062 136.188C133.024 135.517 132.269 134.791 132.493 133.144C132.528 131.176 132.392 129.209 132.088 127.265L131.152 118.886L142.91 117.169Z" fill="#FF9696"/>
<path d="M136.693 124.473C136.667 123.49 136.924 122.521 137.433 121.68C138.313 120.116 142.362 120.591 144.261 118.231C144.653 117.709 144.913 117.1 145.018 116.456C145.123 115.812 145.07 115.152 144.864 114.533C144.658 113.914 144.305 113.354 143.835 112.901C143.366 112.448 142.793 112.116 142.167 111.933C139.793 111.472 130.339 109.643 128.65 116.122C125.606 120.982 127.421 126.4 128.65 128.69C129.713 130.353 131.006 131.857 132.49 133.158C132.769 133.563 136.679 131.874 137.028 129.165C137.028 129.165 134.319 127.475 134.123 126.26C133.928 125.045 134.654 123.258 136.693 124.473Z" fill="#31383B"/>
<path d="M202.699 281.16C202.699 281.16 202.88 293.323 202.419 295.04C202.419 295.04 196.205 294.901 195.982 295.529C195.759 296.157 202.517 299.634 204.821 299.369C207.125 299.104 206.343 296.702 206.483 294.635C206.622 292.569 208.242 281.579 208.242 281.579L202.699 281.16Z" fill="#FF9387"/>
<path d="M204.819 299.37C206.62 299.16 206.536 297.624 206.48 295.962C204.553 295.627 201.007 296.758 200.671 296.144C200.611 296.025 200.582 295.892 200.588 295.758C200.595 295.624 200.636 295.494 200.708 295.382C200.78 295.269 200.88 295.176 200.998 295.114C201.117 295.052 201.25 295.022 201.384 295.027C199.61 295.027 196.147 295.027 195.98 295.53C195.812 296.032 202.515 299.635 204.819 299.37Z" fill="#FA5252"/>
<path d="M195.117 283.34C195.117 283.34 195.298 295.502 194.851 297.22C194.851 297.22 188.623 297.08 188.4 297.709C188.177 298.337 194.935 301.814 197.239 301.549C199.543 301.283 198.775 298.882 198.901 296.815C199.026 294.748 200.66 283.787 200.66 283.787L195.117 283.34Z" fill="#FF9387"/>
<path d="M197.237 301.547C199.052 301.324 198.954 299.802 198.898 298.14C196.985 297.805 193.425 298.936 193.089 298.321C193.028 298.201 192.999 298.067 193.006 297.932C193.013 297.797 193.055 297.666 193.129 297.553C193.203 297.439 193.305 297.347 193.425 297.286C193.546 297.225 193.681 297.197 193.816 297.204C192.028 297.204 188.565 297.204 188.398 297.707C188.23 298.21 194.933 301.812 197.237 301.547Z" fill="#FA5252"/>
<path d="M213.255 219.761C215.964 225.891 215.559 229.144 215.49 237.523C215.42 245.901 220.419 275.518 221.229 279.302C222.039 283.087 212.04 286.606 201.358 286.466C190.676 286.326 181.474 285.07 182.828 279.163C184.183 273.256 195.396 232.929 195.396 232.929L197.867 220.892L213.255 219.761Z" fill="#663131"/>
<path style="mix-blend-mode:multiply" opacity="0.51" d="M214.552 223.252C214.197 222.061 213.763 220.894 213.253 219.761L197.893 220.892L196.273 228.516C203.758 232.705 211.089 226.799 214.552 223.252Z" fill="url(#paint13_linear_2775_9709)"/>
<path d="M185.938 225.32L185.715 215.796L191.342 215.21L185.938 225.32Z" fill="#CC756C"/>
<path d="M199.685 211.16L182.607 220.893L177.398 201.287L194.476 191.555L199.685 211.16Z" fill="#0B4D78"/>
<path d="M215.688 195.605C218.662 195.745 225.7 208.173 225.7 208.173L234.078 198.301C234.078 198.301 235.642 194.642 236.173 194.572C236.703 194.502 235.237 195.969 236.173 195.969C237.108 195.969 240.446 193.874 240.571 194.572C240.697 195.27 236.452 198.636 235.572 199.041C235.572 199.041 230.908 211.748 227.054 214.247C223.2 216.747 217.28 206.888 216.162 205.394C215.045 203.9 215.688 195.605 215.688 195.605Z" fill="#FF9387"/>
<path d="M195.368 202.949C198.62 200.595 202.363 199.01 206.316 198.313C212.404 197.405 213.437 195.157 215.685 195.604C217.934 196.051 219.079 200.38 217.85 205.658C216.621 210.936 213.842 217.639 213.661 220.892C213.661 220.892 206.944 226.478 200.144 225.082C193.343 223.685 196.541 220.753 196.848 218.588C197.155 216.424 196.094 212.221 195.773 210.21C195.49 207.8 195.354 205.375 195.368 202.949Z" fill="#FA5252"/>
<path d="M191.624 210.852C192.433 208.296 193.969 202.948 195.366 202.948C196.528 203.062 197.61 203.593 198.41 204.443C199.211 205.292 199.677 206.403 199.723 207.57C200.072 210.95 193.537 222.665 192.643 224.69C191.749 226.715 189.85 228.767 187.281 227.483C183.371 225.528 189.096 218.867 191.624 210.852Z" fill="#FF9387"/>
<path d="M201.582 179.882C201.582 179.882 200.284 184.63 199.236 185.789C198.842 186.321 198.372 186.791 197.84 187.185L198.831 187.813C198.831 187.813 198.985 192.687 199.711 193.231C201.359 194.46 202.504 193.608 203.048 194.921C203.36 196.006 203.525 197.129 203.537 198.258C203.552 198.515 203.65 198.76 203.816 198.957C203.982 199.153 204.208 199.29 204.459 199.347C205.4 199.62 206.391 199.678 207.358 199.516C208.325 199.354 209.243 198.977 210.044 198.412C209.957 196.855 210.065 195.292 210.365 193.762C210.896 190.913 201.582 179.882 201.582 179.882Z" fill="#FF9387"/>
<path d="M211.707 179.112C208.048 176.32 205.144 176.669 202.714 178.023C200.284 179.378 200.689 184.042 201.43 186.011C202.17 187.979 202.309 188.44 202.309 188.44C202.309 188.44 202.714 186.346 203.929 186.751C205.144 187.156 205.619 190.73 204.334 191.205C204.334 191.205 207.238 194.584 209.333 194.584C211.428 194.584 211.092 192.895 212.656 191.415C213.577 190.327 214.238 189.043 214.589 187.662C214.94 186.28 214.971 184.837 214.681 183.441C214.275 181.673 213.212 180.126 211.707 179.112Z" fill="#31383B"/>
<path style="mix-blend-mode:multiply" opacity="0.51" d="M211.708 179.113C211.401 178.876 211.108 178.695 210.815 178.499C209.905 179.46 209.404 180.737 209.418 182.06C209.403 183.387 209.915 184.666 210.842 185.616C211.769 186.566 213.034 187.11 214.361 187.129C214.482 187.136 214.604 187.136 214.725 187.129C214.969 185.926 214.969 184.687 214.725 183.484C214.318 181.694 213.238 180.129 211.708 179.113Z" fill="url(#paint14_linear_2775_9709)"/>
<path d="M221.092 182.06C221.067 183.033 220.756 183.976 220.197 184.773C219.639 185.569 218.858 186.183 217.952 186.538C217.046 186.892 216.055 186.972 215.104 186.766C214.154 186.56 213.285 186.078 212.606 185.381C211.928 184.683 211.471 183.801 211.292 182.845C211.112 181.889 211.219 180.901 211.599 180.005C211.979 179.109 212.614 178.346 213.426 177.81C214.238 177.273 215.19 176.989 216.163 176.991C216.819 177 217.467 177.139 218.07 177.398C218.673 177.658 219.219 178.034 219.677 178.505C220.135 178.975 220.495 179.532 220.738 180.142C220.981 180.752 221.101 181.404 221.092 182.06Z" fill="#31383B"/>
<path d="M213.537 39.281C213.537 26.2248 204.293 10.2083 192.996 3.68717C187.969 0.782698 183.347 0.238109 179.758 1.66242C179.11 1.92086 178.492 2.24859 177.915 2.63989L173.824 4.81824L174.773 6.00517C173.163 8.91422 172.371 12.2054 172.483 15.5285C172.483 28.5707 181.727 44.5872 193.038 51.1083C195.69 52.7614 198.715 53.7217 201.835 53.9011L201.681 55.7164L207.155 52.7561C211.065 50.7173 213.537 46.0395 213.537 39.281Z" fill="url(#paint15_linear_2775_9709)"/>
<path d="M202.465 55.3434C210.486 50.7123 210.484 35.6911 202.46 21.7925C194.435 7.89392 181.428 0.381126 173.407 5.01219C165.385 9.64325 165.388 24.6645 173.412 38.563C181.437 52.4616 194.444 59.9744 202.465 55.3434Z" fill="white"/>
<path d="M182.767 31.3751L176.609 18.8076L199.245 28.6382L182.767 31.3751Z" fill="#1496C2"/>
<path d="M182.77 31.3746L184.333 44.6961L199.247 28.6377L182.77 31.3746Z" fill="#196078"/>
<path style="mix-blend-mode:multiply" opacity="0.4" d="M320.989 109.237L280.242 85.4151V52.251L320.989 76.0593V109.237Z" fill="url(#paint16_linear_2775_9709)"/>
<path d="M319.293 110.286L278.547 86.4639V53.2998L319.293 77.1081V110.286Z" fill="url(#paint17_linear_2775_9709)"/>
<path style="mix-blend-mode:multiply" opacity="0.6" d="M298.906 89.8711L278.547 53.2998L319.293 77.1081L298.906 89.8711Z" fill="url(#paint18_linear_2775_9709)"/>
<path d="M298.906 87.8882L278.547 53.2998L319.293 77.1081L298.906 87.8882Z" fill="#CFC100"/>
<g style="mix-blend-mode:screen">
<path d="M274.933 58.2971L258.246 48.5503V46.1904L274.933 55.9372V58.2971Z" fill="url(#paint19_linear_2775_9709)"/>
<path d="M274.933 65.4038L258.246 55.6431V53.2832L274.933 63.03V65.4038Z" fill="url(#paint20_linear_2775_9709)"/>
<path d="M274.933 72.4985L258.246 62.7378V60.3779L274.933 70.1247V72.4985Z" fill="url(#paint21_linear_2775_9709)"/>
<path d="M274.933 79.5923L258.246 69.8455V67.4717L274.933 77.2324V79.5923Z" fill="url(#paint22_linear_2775_9709)"/>
</g>
<path style="mix-blend-mode:multiply" d="M236.656 362.417V327.898H260.493" fill="url(#paint23_linear_2775_9709)"/>
<path d="M274.711 297.428V316.041C274.711 317.815 275.87 319.574 278.188 320.915C280.805 322.237 283.697 322.925 286.629 322.925C289.561 322.925 292.453 322.237 295.07 320.915C297.388 319.518 298.547 317.815 298.547 316.041V297.428H274.711Z" fill="url(#paint24_linear_2775_9709)"/>
<path d="M278.188 302.302C273.552 299.621 273.552 295.236 278.188 292.527C280.805 291.205 283.697 290.517 286.629 290.517C289.561 290.517 292.453 291.205 295.07 292.527C299.706 295.208 299.706 299.593 295.07 302.302C292.453 303.624 289.561 304.312 286.629 304.312C283.697 304.312 280.805 303.624 278.188 302.302Z" fill="#FDF193"/>
<path d="M255.676 292.22V327.129C255.676 328.903 256.849 330.662 259.167 332.003C261.782 333.324 264.671 334.013 267.601 334.013C270.531 334.013 273.42 333.324 276.035 332.003C278.353 330.606 279.512 328.903 279.512 327.129V292.22H255.676Z" fill="url(#paint25_linear_2775_9709)"/>
<path d="M267.603 299.103C274.197 299.103 279.542 296.021 279.542 292.219C279.542 288.417 274.197 285.335 267.603 285.335C261.009 285.335 255.664 288.417 255.664 292.219C255.664 296.021 261.009 299.103 267.603 299.103Z" fill="#FDF193"/>
<path d="M236.656 282.123V338.16C236.656 339.933 237.815 341.693 240.133 343.033C242.746 344.346 245.631 345.029 248.555 345.026C251.479 345.024 254.363 344.336 256.974 343.019C259.292 341.623 260.451 339.919 260.451 338.146V282.123H236.656Z" fill="url(#paint26_linear_2775_9709)"/>
<path d="M240.133 286.997C235.497 284.316 235.497 279.931 240.133 277.222C242.751 275.901 245.642 275.212 248.574 275.212C251.507 275.212 254.398 275.901 257.016 277.222C261.651 279.903 261.651 284.288 257.016 286.997C254.398 288.319 251.507 289.008 248.574 289.008C245.642 289.008 242.751 288.319 240.133 286.997Z" fill="#FDF193"/>
<path style="mix-blend-mode:multiply" opacity="0.28" d="M117.479 137.654L111.07 135.448V119.417C111.112 118.896 111.032 118.371 110.836 117.886C110.639 117.401 110.332 116.969 109.939 116.624C109.885 116.584 109.829 116.547 109.771 116.513L106.978 114.893C106.512 114.667 105.994 114.571 105.478 114.615C104.961 114.659 104.467 114.842 104.046 115.144L66.595 136.481C65.3505 137.324 64.3225 138.448 63.5945 139.764C62.8666 141.079 62.4594 142.547 62.4059 144.049V170.776C62.342 171.354 62.4385 171.939 62.6848 172.466C62.9311 172.993 63.3177 173.442 63.8023 173.764L66.595 175.37C67.058 175.589 67.5709 175.682 68.0813 175.637C68.5916 175.593 69.0811 175.414 69.4995 175.119L106.923 153.712C108.166 152.871 109.194 151.749 109.921 150.436C110.649 149.124 111.057 147.658 111.112 146.158V144.58L120.328 139.302L117.479 137.654Z" fill="url(#paint27_linear_2775_9709)"/>
<path d="M118.558 139.301L109.635 136.229V122.516L111.269 118.886L108.364 117.182C107.919 116.972 107.426 116.883 106.936 116.925C106.445 116.967 105.975 117.137 105.571 117.419L69.2655 138.17C68.0352 138.971 67.0135 140.054 66.285 141.329C65.5565 142.604 65.1422 144.034 65.0763 145.501V171.418C65.015 171.982 65.1134 172.552 65.3603 173.063C65.6072 173.574 65.9926 174.005 66.4727 174.308L69.1398 175.872L71.5974 172.66L105.502 153.265C106.733 152.464 107.755 151.381 108.484 150.106C109.212 148.831 109.626 147.401 109.691 145.934V144.398L121.337 140.879L118.558 139.301Z" fill="url(#paint28_linear_2775_9709)"/>
<path d="M121.271 140.894L112.348 137.822V121.624C112.348 118.831 110.505 117.714 108.159 119.013L71.8532 139.763C70.6256 140.564 69.6056 141.645 68.8773 142.917C68.149 144.189 67.7332 145.616 67.6641 147.08V172.997C67.6641 175.789 69.5213 176.907 71.8532 175.608L108.159 154.872C109.388 154.069 110.408 152.985 111.137 151.711C111.865 150.436 112.28 149.007 112.348 147.541V146.005L121.271 140.894Z" fill="white"/>
<path d="M90.0376 156.937L89.5768 149.76L98.0249 141.2L98.9325 143.239L106.054 128.591L94.7993 133.869L95.6929 135.922L85.4574 147.875L85.9601 155.597L76.5625 165.79L90.0376 156.937Z" fill="url(#paint29_linear_2775_9709)"/>
<defs>
<linearGradient id="paint0_linear_2775_9709" x1="117.126" y1="195.214" x2="-10.7268" y2="128.537" gradientUnits="userSpaceOnUse">
<stop stop-color="#1E6069"/>
<stop offset="1" stop-color="#E9D45B"/>
</linearGradient>
<linearGradient id="paint1_linear_2775_9709" x1="157.732" y1="195.422" x2="53.0176" y2="51.0779" gradientUnits="userSpaceOnUse">
<stop stop-color="#1E6069"/>
<stop offset="0.18" stop-color="#547F65"/>
<stop offset="0.39" stop-color="#899D62"/>
<stop offset="0.58" stop-color="#B2B55F"/>
<stop offset="0.75" stop-color="#D0C65D"/>
<stop offset="0.9" stop-color="#E3D05B"/>
<stop offset="1" stop-color="#E9D45B"/>
</linearGradient>
<linearGradient id="paint2_linear_2775_9709" x1="292.402" y1="199.5" x2="401.697" y2="43.6638" gradientUnits="userSpaceOnUse">
<stop stop-color="#1E6069"/>
<stop offset="1" stop-color="#E9D45B"/>
</linearGradient>
<linearGradient id="paint3_linear_2775_9709" x1="315.56" y1="227.526" x2="445.005" y2="149.077" gradientUnits="userSpaceOnUse">
<stop stop-color="#1E6069"/>
<stop offset="1" stop-color="#E9D45B"/>
</linearGradient>
<linearGradient id="paint4_linear_2775_9709" x1="297.18" y1="248.666" x2="370.393" y2="133.618" gradientUnits="userSpaceOnUse">
<stop stop-color="#1E6069"/>
<stop offset="1" stop-color="#E9D45B"/>
</linearGradient>
<linearGradient id="paint5_linear_2775_9709" x1="287.587" y1="216.339" x2="283.398" y2="105.201" gradientUnits="userSpaceOnUse">
<stop offset="0.01" stop-color="white"/>
<stop offset="1"/>
</linearGradient>
<linearGradient id="paint6_linear_2775_9709" x1="247.863" y1="97.941" x2="172.556" y2="228.154" gradientUnits="userSpaceOnUse">
<stop stop-color="#3C9BD6"/>
<stop offset="0.28" stop-color="#3B99D3"/>
<stop offset="0.47" stop-color="#3691CA"/>
<stop offset="0.64" stop-color="#2E84BB"/>
<stop offset="0.79" stop-color="#2272A5"/>
<stop offset="0.93" stop-color="#145B89"/>
<stop offset="1" stop-color="#0B4D78"/>
</linearGradient>
<linearGradient id="paint7_linear_2775_9709" x1="102.287" y1="293.743" x2="127.129" y2="253.737" gradientUnits="userSpaceOnUse">
<stop offset="0.09" stop-color="#85D1FF"/>
<stop offset="1" stop-color="#3C9BD6"/>
</linearGradient>
<linearGradient id="paint8_linear_2775_9709" x1="81.1719" y1="67.0262" x2="140.895" y2="67.0262" gradientUnits="userSpaceOnUse">
<stop offset="0.01" stop-color="white"/>
<stop offset="1"/>
</linearGradient>
<linearGradient id="paint9_linear_2775_9709" x1="145.164" y1="205.155" x2="168.484" y2="205.155" gradientUnits="userSpaceOnUse">
<stop stop-color="#CFC100"/>
<stop offset="0.06" stop-color="#CFBD00"/>
<stop offset="0.67" stop-color="#CF9900"/>
<stop offset="1" stop-color="#CF8B00"/>
</linearGradient>
<linearGradient id="paint10_linear_2775_9709" x1="154.785" y1="210.699" x2="157.382" y2="191.973" gradientUnits="userSpaceOnUse">
<stop offset="0.01" stop-color="white"/>
<stop offset="1"/>
</linearGradient>
<linearGradient id="paint11_linear_2775_9709" x1="123.023" y1="179.477" x2="147.739" y2="179.477" gradientUnits="userSpaceOnUse">
<stop offset="0.01" stop-color="white"/>
<stop offset="1"/>
</linearGradient>
<linearGradient id="paint12_linear_2775_9709" x1="113.057" y1="232.344" x2="143.191" y2="192.044" gradientUnits="userSpaceOnUse">
<stop offset="0.01" stop-color="white"/>
<stop offset="1"/>
</linearGradient>
<linearGradient id="paint13_linear_2775_9709" x1="196.273" y1="224.844" x2="214.552" y2="224.844" gradientUnits="userSpaceOnUse">
<stop offset="0.01" stop-color="white"/>
<stop offset="1"/>
</linearGradient>
<linearGradient id="paint14_linear_2775_9709" x1="217.559" y1="183.512" x2="197.507" y2="180.803" gradientUnits="userSpaceOnUse">
<stop offset="0.01" stop-color="white"/>
<stop offset="1"/>
</linearGradient>
<linearGradient id="paint15_linear_2775_9709" x1="224.931" y1="1.69035" x2="162.569" y2="50.9268" gradientUnits="userSpaceOnUse">
<stop offset="0.01" stop-color="white"/>
<stop offset="0.12" stop-color="#FAFEFD"/>
<stop offset="0.26" stop-color="#EBFBF6"/>
<stop offset="0.42" stop-color="#D1F6EA"/>
<stop offset="0.58" stop-color="#AEEEDB"/>
<stop offset="0.75" stop-color="#81E5C6"/>
<stop offset="0.93" stop-color="#4BDAAE"/>
<stop offset="1" stop-color="#33D5A3"/>
</linearGradient>
<linearGradient id="paint16_linear_2775_9709" x1="300.615" y1="47.0425" x2="300.615" y2="130.211" gradientUnits="userSpaceOnUse">
<stop offset="0.01" stop-color="white"/>
<stop offset="1"/>
</linearGradient>
<linearGradient id="paint17_linear_2775_9709" x1="263.829" y1="81.786" x2="318.972" y2="81.786" gradientUnits="userSpaceOnUse">
<stop stop-color="#CFC100"/>
<stop offset="0.06" stop-color="#CFBD00"/>
<stop offset="0.67" stop-color="#CF9900"/>
<stop offset="1" stop-color="#CF8B00"/>
</linearGradient>
<linearGradient id="paint18_linear_2775_9709" x1="298.92" y1="94.9679" x2="298.92" y2="46.7228" gradientUnits="userSpaceOnUse">
<stop offset="0.01" stop-color="white"/>
<stop offset="1"/>
</linearGradient>
<linearGradient id="paint19_linear_2775_9709" x1="274.612" y1="52.2368" x2="259.042" y2="52.2368" gradientUnits="userSpaceOnUse">
<stop offset="0.01" stop-color="white"/>
<stop offset="1"/>
</linearGradient>
<linearGradient id="paint20_linear_2775_9709" x1="274.612" y1="59.3435" x2="259.042" y2="59.3435" gradientUnits="userSpaceOnUse">
<stop offset="0.01" stop-color="white"/>
<stop offset="1"/>
</linearGradient>
<linearGradient id="paint21_linear_2775_9709" x1="274.612" y1="66.4382" x2="259.042" y2="66.4382" gradientUnits="userSpaceOnUse">
<stop offset="0.01" stop-color="white"/>
<stop offset="1"/>
</linearGradient>
<linearGradient id="paint22_linear_2775_9709" x1="274.612" y1="73.532" x2="259.042" y2="73.532" gradientUnits="userSpaceOnUse">
<stop offset="0.01" stop-color="white"/>
<stop offset="1"/>
</linearGradient>
<linearGradient id="paint23_linear_2775_9709" x1="248.581" y1="352.74" x2="248.581" y2="318.04" gradientUnits="userSpaceOnUse">
<stop offset="0.01" stop-color="white"/>
<stop offset="1"/>
</linearGradient>
<linearGradient id="paint24_linear_2775_9709" x1="274.711" y1="310.177" x2="298.547" y2="310.177" gradientUnits="userSpaceOnUse">
<stop offset="0.01" stop-color="#FACE55"/>
<stop offset="0.87" stop-color="#875017"/>
<stop offset="0.9" stop-color="#8B5418"/>
<stop offset="0.93" stop-color="#95601A"/>
<stop offset="0.96" stop-color="#A7731E"/>
<stop offset="0.99" stop-color="#C08F24"/>
<stop offset="1" stop-color="#C89826"/>
</linearGradient>
<linearGradient id="paint25_linear_2775_9709" x1="255.676" y1="313.11" x2="279.512" y2="313.11" gradientUnits="userSpaceOnUse">
<stop offset="0.01" stop-color="#FACE55"/>
<stop offset="0.87" stop-color="#875017"/>
<stop offset="0.9" stop-color="#8B5418"/>
<stop offset="0.93" stop-color="#95601A"/>
<stop offset="0.96" stop-color="#A7731E"/>
<stop offset="0.99" stop-color="#C08F24"/>
<stop offset="1" stop-color="#C89826"/>
</linearGradient>
<linearGradient id="paint26_linear_2775_9709" x1="236.656" y1="313.584" x2="260.493" y2="313.584" gradientUnits="userSpaceOnUse">
<stop offset="0.01" stop-color="#FACE55"/>
<stop offset="0.87" stop-color="#875017"/>
<stop offset="0.9" stop-color="#8B5418"/>
<stop offset="0.93" stop-color="#95601A"/>
<stop offset="0.96" stop-color="#A7731E"/>
<stop offset="0.99" stop-color="#C08F24"/>
<stop offset="1" stop-color="#C89826"/>
</linearGradient>
<linearGradient id="paint27_linear_2775_9709" x1="91.311" y1="91.7966" x2="91.311" y2="169.003" gradientUnits="userSpaceOnUse">
<stop offset="0.01" stop-color="white"/>
<stop offset="1"/>
</linearGradient>
<linearGradient id="paint28_linear_2775_9709" x1="46.1134" y1="117.433" x2="123.054" y2="169.951" gradientUnits="userSpaceOnUse">
<stop offset="0.01" stop-color="white"/>
<stop offset="0.12" stop-color="#FAFEFD"/>
<stop offset="0.26" stop-color="#EBFBF6"/>
<stop offset="0.42" stop-color="#D1F6EA"/>
<stop offset="0.58" stop-color="#AEEEDB"/>
<stop offset="0.75" stop-color="#81E5C6"/>
<stop offset="0.93" stop-color="#4BDAAE"/>
<stop offset="1" stop-color="#33D5A3"/>
</linearGradient>
<linearGradient id="paint29_linear_2775_9709" x1="104.323" y1="127.781" x2="76.9395" y2="168.29" gradientUnits="userSpaceOnUse">
<stop stop-color="#CFC100"/>
<stop offset="0.17" stop-color="#D7B400"/>
<stop offset="0.71" stop-color="#ED9000"/>
<stop offset="1" stop-color="#F58200"/>
</linearGradient>
</defs>
</svg>
