<svg width="43" height="39" viewBox="0 0 43 39" fill="none" xmlns="http://www.w3.org/2000/svg">
<path d="M32.0627 0C34.9408 0 37.7094 1.13751 39.7462 3.17858C41.7851 5.21536 42.9248 7.96255 42.9248 10.8385V27.7938C42.9248 33.7818 38.0528 38.6323 32.0627 38.6323H10.86C4.86982 38.6323 0 33.7818 0 27.7938V10.8385C0 4.8505 4.84835 0 10.86 0H32.0627ZM34.4901 11.1604C34.0394 11.1368 33.6101 11.2892 33.286 11.5897L23.6086 19.3162C22.3638 20.3485 20.5803 20.3485 19.3162 19.3162L9.65808 11.5897C8.9906 11.0961 8.06771 11.1604 7.51184 11.7399C6.93235 12.3194 6.86797 13.2423 7.35946 13.8862L7.64061 14.1652L17.406 21.7843C18.6079 22.7287 20.0652 23.2438 21.5912 23.2438C23.1129 23.2438 24.5959 22.7287 25.7957 21.7843L35.4773 14.0364L35.649 13.8647C36.162 13.2423 36.162 12.3409 35.6254 11.7185C35.3271 11.3987 34.9172 11.2034 34.4901 11.1604Z" fill="url(#paint0_linear_92_855)"/>
<defs>
<linearGradient id="paint0_linear_92_855" x1="18.0929" y1="10.1732" x2="49.2005" y2="21.7088" gradientUnits="userSpaceOnUse">
<stop stop-color="#8372F2"/>
<stop offset="1" stop-color="#ED6FCB"/>
</linearGradient>
</defs>
</svg>
