<svg width="164" height="164" viewBox="0 0 164 164" fill="none" xmlns="http://www.w3.org/2000/svg">
<path d="M81.7939 0.550781C36.8577 0.550781 0.429688 36.9788 0.429688 81.915C0.429688 126.851 36.8577 163.279 81.7939 163.279C126.73 163.279 163.158 126.851 163.158 81.915C163.158 36.9788 126.73 0.550781 81.7939 0.550781ZM99.801 47.1322C109.469 46.9811 118.213 52.2373 122.357 61.1979C126.192 73.044 122.983 85.0953 116.221 94.1774C111.758 100.336 106.424 105.648 100.971 110.288C95.9535 114.959 84.7237 124.201 81.7475 124.457C79.1172 123.954 76.1642 120.975 74.0758 119.444C62.3412 110.524 49.7117 99.6803 43.3067 87.8195C37.9366 76.4325 37.9268 62.3438 46.2847 53.6138C57.122 43.8436 73.459 45.7559 81.7475 55.9632C83.9735 53.0755 86.7114 50.8012 89.9602 49.1466C93.2526 47.8326 96.5782 47.1826 99.801 47.1322Z" fill="white"/>
</svg>
