<svg width="752" height="576" viewBox="0 0 752 576" fill="none" xmlns="http://www.w3.org/2000/svg">
<path d="M219.191 269.156C219.043 269.415 218.883 269.606 218.711 269.729C218.55 269.84 218.347 269.895 218.101 269.895C217.843 269.895 217.56 269.803 217.252 269.618C216.956 269.421 216.599 269.206 216.181 268.972C215.762 268.738 215.27 268.529 214.704 268.344C214.15 268.147 213.491 268.048 212.728 268.048C212.039 268.048 211.435 268.135 210.918 268.307C210.401 268.467 209.964 268.695 209.607 268.99C209.263 269.286 209.004 269.643 208.832 270.061C208.66 270.467 208.573 270.917 208.573 271.409C208.573 272.037 208.746 272.56 209.09 272.979C209.447 273.397 209.915 273.754 210.494 274.049C211.072 274.345 211.731 274.61 212.469 274.843C213.208 275.077 213.965 275.33 214.741 275.6C215.516 275.859 216.273 276.167 217.012 276.524C217.75 276.868 218.409 277.312 218.987 277.853C219.566 278.382 220.028 279.035 220.372 279.81C220.729 280.586 220.908 281.528 220.908 282.636C220.908 283.842 220.699 284.974 220.28 286.033C219.874 287.079 219.271 287.996 218.47 288.784C217.683 289.56 216.716 290.175 215.572 290.631C214.427 291.074 213.116 291.295 211.639 291.295C210.789 291.295 209.952 291.209 209.127 291.037C208.303 290.877 207.509 290.643 206.745 290.335C205.995 290.028 205.287 289.658 204.622 289.227C203.957 288.797 203.366 288.316 202.849 287.787L204.308 285.405C204.431 285.233 204.591 285.091 204.788 284.981C204.985 284.857 205.194 284.796 205.416 284.796C205.724 284.796 206.056 284.925 206.413 285.184C206.77 285.43 207.195 285.707 207.687 286.015C208.18 286.322 208.752 286.605 209.404 286.864C210.069 287.11 210.863 287.233 211.786 287.233C213.202 287.233 214.297 286.901 215.073 286.236C215.848 285.559 216.236 284.593 216.236 283.337C216.236 282.636 216.058 282.063 215.701 281.62C215.356 281.177 214.894 280.808 214.316 280.512C213.737 280.204 213.079 279.946 212.34 279.737C211.602 279.527 210.851 279.3 210.088 279.053C209.324 278.807 208.573 278.512 207.835 278.167C207.096 277.822 206.438 277.373 205.859 276.819C205.281 276.265 204.813 275.576 204.456 274.751C204.111 273.914 203.939 272.886 203.939 271.668C203.939 270.695 204.13 269.747 204.511 268.824C204.905 267.901 205.471 267.082 206.21 266.368C206.949 265.654 207.859 265.082 208.943 264.651C210.026 264.22 211.269 264.005 212.673 264.005C214.248 264.005 215.701 264.251 217.03 264.743C218.36 265.236 219.492 265.925 220.428 266.811L219.191 269.156ZM231.668 291.295C230.018 291.295 228.75 290.834 227.864 289.911C226.99 288.975 226.553 287.689 226.553 286.051V275.471H224.614C224.368 275.471 224.159 275.391 223.986 275.231C223.814 275.071 223.728 274.831 223.728 274.511V272.702L226.775 272.203L227.735 267.033C227.796 266.787 227.913 266.596 228.086 266.46C228.258 266.325 228.48 266.257 228.75 266.257H231.114V272.221H236.173V275.471H231.114V285.738C231.114 286.328 231.255 286.79 231.539 287.122C231.834 287.455 232.234 287.621 232.739 287.621C233.022 287.621 233.256 287.59 233.44 287.529C233.637 287.455 233.804 287.381 233.939 287.307C234.087 287.233 234.216 287.166 234.327 287.104C234.437 287.03 234.548 286.993 234.659 286.993C234.794 286.993 234.905 287.03 234.991 287.104C235.078 287.166 235.17 287.264 235.268 287.399L236.635 289.615C235.97 290.169 235.207 290.588 234.345 290.871C233.483 291.154 232.591 291.295 231.668 291.295ZM250.763 282.912C249.446 282.974 248.338 283.091 247.439 283.263C246.541 283.423 245.82 283.633 245.279 283.891C244.737 284.15 244.349 284.451 244.116 284.796C243.882 285.141 243.765 285.516 243.765 285.922C243.765 286.722 243.999 287.295 244.466 287.639C244.946 287.984 245.568 288.156 246.331 288.156C247.267 288.156 248.073 287.99 248.75 287.658C249.44 287.313 250.11 286.796 250.763 286.107V282.912ZM240.312 274.696C242.491 272.702 245.113 271.704 248.178 271.704C249.286 271.704 250.277 271.889 251.151 272.258C252.025 272.615 252.763 273.12 253.366 273.772C253.97 274.413 254.425 275.182 254.733 276.081C255.053 276.979 255.213 277.964 255.213 279.035V291H253.145C252.714 291 252.382 290.938 252.148 290.815C251.914 290.68 251.729 290.415 251.594 290.021L251.188 288.655C250.707 289.086 250.24 289.467 249.784 289.8C249.329 290.12 248.855 290.391 248.362 290.612C247.87 290.834 247.341 291 246.774 291.111C246.221 291.234 245.605 291.295 244.928 291.295C244.128 291.295 243.389 291.191 242.712 290.982C242.035 290.76 241.45 290.434 240.958 290.003C240.466 289.572 240.084 289.037 239.813 288.396C239.542 287.756 239.407 287.012 239.407 286.162C239.407 285.682 239.487 285.208 239.647 284.74C239.807 284.26 240.066 283.805 240.423 283.374C240.792 282.943 241.266 282.537 241.844 282.155C242.423 281.774 243.131 281.441 243.968 281.158C244.817 280.875 245.802 280.647 246.922 280.475C248.042 280.291 249.323 280.18 250.763 280.143V279.035C250.763 277.767 250.492 276.831 249.95 276.228C249.409 275.613 248.627 275.305 247.605 275.305C246.867 275.305 246.251 275.391 245.759 275.564C245.279 275.736 244.854 275.933 244.485 276.154C244.116 276.364 243.777 276.554 243.469 276.727C243.174 276.899 242.841 276.985 242.472 276.985C242.152 276.985 241.881 276.905 241.66 276.745C241.438 276.573 241.26 276.376 241.124 276.154L240.312 274.696ZM265.472 275.342C266.063 274.209 266.765 273.323 267.577 272.683C268.39 272.031 269.35 271.704 270.458 271.704C271.332 271.704 272.033 271.895 272.563 272.277L272.267 275.693C272.206 275.914 272.113 276.074 271.99 276.173C271.879 276.259 271.726 276.302 271.529 276.302C271.344 276.302 271.067 276.271 270.698 276.21C270.341 276.148 269.99 276.117 269.645 276.117C269.141 276.117 268.691 276.191 268.297 276.339C267.903 276.487 267.546 276.702 267.226 276.985C266.919 277.256 266.642 277.589 266.395 277.982C266.162 278.376 265.94 278.826 265.731 279.33V291H261.17V272.055H263.847C264.315 272.055 264.641 272.141 264.826 272.314C265.011 272.474 265.134 272.769 265.195 273.2L265.472 275.342ZM302.816 286.901V291H287.177V264.3H292.144V286.901H302.816ZM312.031 272.055V291H307.452V272.055H312.031ZM312.659 266.534C312.659 266.928 312.579 267.298 312.419 267.642C312.259 267.987 312.043 268.288 311.773 268.547C311.514 268.805 311.206 269.015 310.849 269.175C310.492 269.323 310.111 269.396 309.705 269.396C309.311 269.396 308.935 269.323 308.578 269.175C308.234 269.015 307.932 268.805 307.673 268.547C307.415 268.288 307.206 267.987 307.046 267.642C306.898 267.298 306.824 266.928 306.824 266.534C306.824 266.128 306.898 265.747 307.046 265.39C307.206 265.033 307.415 264.725 307.673 264.466C307.932 264.208 308.234 264.005 308.578 263.857C308.935 263.697 309.311 263.617 309.705 263.617C310.111 263.617 310.492 263.697 310.849 263.857C311.206 264.005 311.514 264.208 311.773 264.466C312.043 264.725 312.259 265.033 312.419 265.39C312.579 265.747 312.659 266.128 312.659 266.534ZM325.267 281.066C325.833 281.066 326.325 280.992 326.744 280.844C327.163 280.684 327.507 280.469 327.778 280.198C328.061 279.927 328.27 279.601 328.406 279.22C328.554 278.838 328.627 278.419 328.627 277.964C328.627 277.028 328.344 276.29 327.778 275.748C327.224 275.194 326.387 274.917 325.267 274.917C324.147 274.917 323.303 275.194 322.737 275.748C322.183 276.29 321.906 277.028 321.906 277.964C321.906 278.407 321.974 278.819 322.109 279.201C322.257 279.583 322.466 279.915 322.737 280.198C323.02 280.469 323.371 280.684 323.79 280.844C324.22 280.992 324.713 281.066 325.267 281.066ZM330.418 291.849C330.418 291.48 330.308 291.178 330.086 290.945C329.865 290.711 329.563 290.532 329.181 290.409C328.8 290.274 328.35 290.175 327.833 290.114C327.329 290.052 326.787 290.009 326.209 289.984C325.642 289.948 325.051 289.917 324.436 289.892C323.833 289.868 323.242 289.818 322.663 289.744C322.159 290.028 321.746 290.36 321.426 290.741C321.118 291.123 320.965 291.566 320.965 292.071C320.965 292.403 321.045 292.711 321.205 292.994C321.377 293.29 321.642 293.542 321.999 293.751C322.368 293.96 322.842 294.121 323.42 294.231C323.999 294.354 324.707 294.416 325.544 294.416C326.393 294.416 327.126 294.348 327.741 294.213C328.357 294.09 328.861 293.911 329.255 293.677C329.661 293.456 329.957 293.185 330.141 292.865C330.326 292.557 330.418 292.219 330.418 291.849ZM334.961 272.702V274.4C334.961 274.942 334.635 275.274 333.982 275.397L332.283 275.711C332.542 276.364 332.671 277.078 332.671 277.853C332.671 278.789 332.48 279.638 332.099 280.401C331.729 281.152 331.212 281.792 330.548 282.322C329.883 282.851 329.095 283.263 328.184 283.559C327.286 283.842 326.313 283.983 325.267 283.983C324.898 283.983 324.541 283.965 324.196 283.928C323.851 283.891 323.513 283.842 323.18 283.78C322.589 284.137 322.294 284.537 322.294 284.981C322.294 285.362 322.466 285.645 322.811 285.83C323.168 286.002 323.636 286.125 324.214 286.199C324.793 286.273 325.451 286.322 326.19 286.347C326.929 286.359 327.686 286.396 328.461 286.458C329.237 286.519 329.994 286.63 330.732 286.79C331.471 286.938 332.13 287.178 332.708 287.51C333.287 287.843 333.748 288.298 334.093 288.877C334.45 289.443 334.628 290.175 334.628 291.074C334.628 291.911 334.419 292.723 334.001 293.511C333.594 294.299 332.997 295.001 332.21 295.616C331.434 296.232 330.474 296.724 329.329 297.093C328.197 297.475 326.904 297.666 325.451 297.666C324.024 297.666 322.78 297.524 321.722 297.241C320.663 296.97 319.783 296.601 319.081 296.133C318.38 295.678 317.856 295.148 317.512 294.545C317.167 293.942 316.995 293.314 316.995 292.662C316.995 291.776 317.259 291.037 317.789 290.446C318.33 289.843 319.069 289.363 320.004 289.006C319.5 288.747 319.1 288.403 318.804 287.972C318.509 287.541 318.361 286.975 318.361 286.273C318.361 285.99 318.41 285.701 318.509 285.405C318.62 285.097 318.773 284.796 318.97 284.5C319.18 284.205 319.438 283.928 319.746 283.67C320.054 283.399 320.417 283.159 320.835 282.949C319.875 282.432 319.118 281.743 318.564 280.881C318.023 280.02 317.752 279.01 317.752 277.853C317.752 276.918 317.936 276.074 318.306 275.324C318.687 274.56 319.21 273.914 319.875 273.385C320.552 272.843 321.346 272.431 322.257 272.148C323.18 271.864 324.184 271.723 325.267 271.723C326.079 271.723 326.842 271.809 327.556 271.981C328.27 272.141 328.923 272.381 329.514 272.702H334.961ZM344.076 274.086C344.814 273.397 345.627 272.837 346.513 272.406C347.399 271.975 348.439 271.76 349.634 271.76C350.668 271.76 351.585 271.938 352.385 272.295C353.185 272.64 353.85 273.132 354.379 273.772C354.921 274.4 355.327 275.157 355.598 276.044C355.881 276.918 356.022 277.884 356.022 278.943V291H351.462V278.943C351.462 277.785 351.197 276.893 350.668 276.265C350.138 275.625 349.332 275.305 348.249 275.305C347.461 275.305 346.722 275.484 346.033 275.841C345.344 276.198 344.691 276.684 344.076 277.299V291H339.515V263.562H344.076V274.086ZM368.084 291.295C366.435 291.295 365.167 290.834 364.28 289.911C363.406 288.975 362.969 287.689 362.969 286.051V275.471H361.031C360.784 275.471 360.575 275.391 360.403 275.231C360.23 275.071 360.144 274.831 360.144 274.511V272.702L363.191 272.203L364.151 267.033C364.213 266.787 364.33 266.596 364.502 266.46C364.674 266.325 364.896 266.257 365.167 266.257H367.53V272.221H372.589V275.471H367.53V285.738C367.53 286.328 367.672 286.79 367.955 287.122C368.25 287.455 368.65 287.621 369.155 287.621C369.438 287.621 369.672 287.59 369.857 287.529C370.054 287.455 370.22 287.381 370.355 287.307C370.503 287.233 370.632 287.166 370.743 287.104C370.854 287.03 370.965 286.993 371.075 286.993C371.211 286.993 371.322 287.03 371.408 287.104C371.494 287.166 371.586 287.264 371.685 287.399L373.051 289.615C372.386 290.169 371.623 290.588 370.761 290.871C369.9 291.154 369.007 291.295 368.084 291.295ZM404.173 286.901V291H388.533V264.3H393.5V286.901H404.173ZM419.892 279.349C419.892 278.758 419.806 278.204 419.634 277.687C419.474 277.158 419.227 276.696 418.895 276.302C418.563 275.908 418.138 275.6 417.621 275.379C417.116 275.145 416.525 275.028 415.848 275.028C414.531 275.028 413.491 275.404 412.728 276.154C411.977 276.905 411.497 277.97 411.288 279.349H419.892ZM411.195 282.1C411.269 283.073 411.441 283.916 411.712 284.63C411.983 285.331 412.34 285.916 412.783 286.384C413.226 286.839 413.75 287.184 414.353 287.418C414.968 287.639 415.645 287.75 416.384 287.75C417.122 287.75 417.756 287.664 418.286 287.492C418.827 287.319 419.295 287.129 419.689 286.919C420.095 286.71 420.446 286.519 420.741 286.347C421.049 286.175 421.345 286.088 421.628 286.088C422.009 286.088 422.292 286.23 422.477 286.513L423.788 288.175C423.283 288.766 422.717 289.264 422.089 289.671C421.462 290.064 420.803 290.385 420.114 290.631C419.437 290.865 418.741 291.031 418.027 291.129C417.325 291.228 416.642 291.277 415.978 291.277C414.66 291.277 413.436 291.062 412.303 290.631C411.171 290.188 410.186 289.541 409.349 288.692C408.512 287.83 407.853 286.772 407.373 285.516C406.893 284.248 406.653 282.783 406.653 281.121C406.653 279.829 406.862 278.616 407.281 277.484C407.699 276.339 408.296 275.348 409.072 274.511C409.86 273.662 410.814 272.991 411.934 272.498C413.066 272.006 414.34 271.76 415.756 271.76C416.95 271.76 418.052 271.951 419.061 272.332C420.071 272.714 420.938 273.274 421.665 274.013C422.391 274.739 422.957 275.637 423.363 276.708C423.782 277.767 423.991 278.98 423.991 280.346C423.991 281.035 423.917 281.503 423.77 281.749C423.622 281.983 423.339 282.1 422.92 282.1H411.195ZM439.083 282.912C437.766 282.974 436.658 283.091 435.76 283.263C434.861 283.423 434.141 283.633 433.599 283.891C433.058 284.15 432.67 284.451 432.436 284.796C432.202 285.141 432.085 285.516 432.085 285.922C432.085 286.722 432.319 287.295 432.787 287.639C433.267 287.984 433.889 288.156 434.652 288.156C435.588 288.156 436.394 287.99 437.071 287.658C437.76 287.313 438.431 286.796 439.083 286.107V282.912ZM428.633 274.696C430.811 272.702 433.433 271.704 436.498 271.704C437.606 271.704 438.597 271.889 439.471 272.258C440.345 272.615 441.084 273.12 441.687 273.772C442.29 274.413 442.746 275.182 443.053 276.081C443.373 276.979 443.533 277.964 443.533 279.035V291H441.465C441.035 291 440.702 290.938 440.468 290.815C440.234 290.68 440.05 290.415 439.914 290.021L439.508 288.655C439.028 289.086 438.56 289.467 438.105 289.8C437.649 290.12 437.175 290.391 436.683 290.612C436.191 290.834 435.661 291 435.095 291.111C434.541 291.234 433.926 291.295 433.249 291.295C432.449 291.295 431.71 291.191 431.033 290.982C430.356 290.76 429.771 290.434 429.279 290.003C428.786 289.572 428.405 289.037 428.134 288.396C427.863 287.756 427.728 287.012 427.728 286.162C427.728 285.682 427.808 285.208 427.968 284.74C428.128 284.26 428.386 283.805 428.743 283.374C429.113 282.943 429.587 282.537 430.165 282.155C430.744 281.774 431.451 281.441 432.289 281.158C433.138 280.875 434.123 280.647 435.243 280.475C436.363 280.291 437.643 280.18 439.083 280.143V279.035C439.083 277.767 438.813 276.831 438.271 276.228C437.729 275.613 436.948 275.305 435.926 275.305C435.187 275.305 434.572 275.391 434.08 275.564C433.599 275.736 433.175 275.933 432.806 276.154C432.436 276.364 432.098 276.554 431.79 276.727C431.495 276.899 431.162 276.985 430.793 276.985C430.473 276.985 430.202 276.905 429.98 276.745C429.759 276.573 429.58 276.376 429.445 276.154L428.633 274.696ZM453.793 275.342C454.384 274.209 455.085 273.323 455.898 272.683C456.71 272.031 457.67 271.704 458.778 271.704C459.652 271.704 460.354 271.895 460.883 272.277L460.588 275.693C460.526 275.914 460.434 276.074 460.311 276.173C460.2 276.259 460.046 276.302 459.849 276.302C459.665 276.302 459.388 276.271 459.018 276.21C458.661 276.148 458.311 276.117 457.966 276.117C457.461 276.117 457.012 276.191 456.618 276.339C456.224 276.487 455.867 276.702 455.547 276.985C455.239 277.256 454.962 277.589 454.716 277.982C454.482 278.376 454.261 278.826 454.051 279.33V291H449.491V272.055H452.168C452.636 272.055 452.962 272.141 453.147 272.314C453.331 272.474 453.454 272.769 453.516 273.2L453.793 275.342ZM469.194 274.382C469.576 274 469.976 273.649 470.394 273.329C470.825 272.997 471.274 272.72 471.742 272.498C472.222 272.265 472.733 272.086 473.275 271.963C473.816 271.828 474.407 271.76 475.047 271.76C476.081 271.76 476.999 271.938 477.799 272.295C478.599 272.64 479.264 273.132 479.793 273.772C480.334 274.4 480.741 275.157 481.012 276.044C481.295 276.918 481.436 277.884 481.436 278.943V291H476.875V278.943C476.875 277.785 476.611 276.893 476.081 276.265C475.552 275.625 474.746 275.305 473.663 275.305C472.875 275.305 472.136 275.484 471.447 275.841C470.757 276.198 470.105 276.684 469.49 277.299V291H464.929V272.055H467.717C468.308 272.055 468.696 272.332 468.88 272.886L469.194 274.382ZM492.162 272.055V291H487.583V272.055H492.162ZM492.79 266.534C492.79 266.928 492.71 267.298 492.55 267.642C492.39 267.987 492.175 268.288 491.904 268.547C491.645 268.805 491.338 269.015 490.981 269.175C490.624 269.323 490.242 269.396 489.836 269.396C489.442 269.396 489.067 269.323 488.71 269.175C488.365 269.015 488.063 268.805 487.805 268.547C487.546 268.288 487.337 267.987 487.177 267.642C487.029 267.298 486.955 266.928 486.955 266.534C486.955 266.128 487.029 265.747 487.177 265.39C487.337 265.033 487.546 264.725 487.805 264.466C488.063 264.208 488.365 264.005 488.71 263.857C489.067 263.697 489.442 263.617 489.836 263.617C490.242 263.617 490.624 263.697 490.981 263.857C491.338 264.005 491.645 264.208 491.904 264.466C492.175 264.725 492.39 265.033 492.55 265.39C492.71 265.747 492.79 266.128 492.79 266.534ZM502.739 274.382C503.121 274 503.521 273.649 503.939 273.329C504.37 272.997 504.82 272.72 505.287 272.498C505.767 272.265 506.278 272.086 506.82 271.963C507.362 271.828 507.952 271.76 508.593 271.76C509.627 271.76 510.544 271.938 511.344 272.295C512.144 272.64 512.809 273.132 513.338 273.772C513.88 274.4 514.286 275.157 514.557 276.044C514.84 276.918 514.981 277.884 514.981 278.943V291H510.421V278.943C510.421 277.785 510.156 276.893 509.627 276.265C509.097 275.625 508.291 275.305 507.208 275.305C506.42 275.305 505.681 275.484 504.992 275.841C504.303 276.198 503.65 276.684 503.035 277.299V291H498.474V272.055H501.262C501.853 272.055 502.241 272.332 502.425 272.886L502.739 274.382ZM527.905 281.066C528.471 281.066 528.963 280.992 529.382 280.844C529.801 280.684 530.145 280.469 530.416 280.198C530.699 279.927 530.908 279.601 531.044 279.22C531.192 278.838 531.265 278.419 531.265 277.964C531.265 277.028 530.982 276.29 530.416 275.748C529.862 275.194 529.025 274.917 527.905 274.917C526.785 274.917 525.941 275.194 525.375 275.748C524.821 276.29 524.544 277.028 524.544 277.964C524.544 278.407 524.612 278.819 524.747 279.201C524.895 279.583 525.104 279.915 525.375 280.198C525.658 280.469 526.009 280.684 526.428 280.844C526.858 280.992 527.351 281.066 527.905 281.066ZM533.056 291.849C533.056 291.48 532.946 291.178 532.724 290.945C532.503 290.711 532.201 290.532 531.819 290.409C531.438 290.274 530.988 290.175 530.471 290.114C529.967 290.052 529.425 290.009 528.847 289.984C528.28 289.948 527.689 289.917 527.074 289.892C526.471 289.868 525.88 289.818 525.301 289.744C524.797 290.028 524.384 290.36 524.064 290.741C523.756 291.123 523.603 291.566 523.603 292.071C523.603 292.403 523.683 292.711 523.843 292.994C524.015 293.29 524.28 293.542 524.637 293.751C525.006 293.96 525.48 294.121 526.058 294.231C526.637 294.354 527.345 294.416 528.182 294.416C529.031 294.416 529.764 294.348 530.379 294.213C530.995 294.09 531.499 293.911 531.893 293.677C532.299 293.456 532.595 293.185 532.779 292.865C532.964 292.557 533.056 292.219 533.056 291.849ZM537.599 272.702V274.4C537.599 274.942 537.273 275.274 536.62 275.397L534.921 275.711C535.18 276.364 535.309 277.078 535.309 277.853C535.309 278.789 535.118 279.638 534.737 280.401C534.367 281.152 533.85 281.792 533.186 282.322C532.521 282.851 531.733 283.263 530.822 283.559C529.924 283.842 528.951 283.983 527.905 283.983C527.536 283.983 527.179 283.965 526.834 283.928C526.489 283.891 526.151 283.842 525.818 283.78C525.227 284.137 524.932 284.537 524.932 284.981C524.932 285.362 525.104 285.645 525.449 285.83C525.806 286.002 526.274 286.125 526.852 286.199C527.431 286.273 528.089 286.322 528.828 286.347C529.567 286.359 530.324 286.396 531.099 286.458C531.875 286.519 532.632 286.63 533.37 286.79C534.109 286.938 534.768 287.178 535.346 287.51C535.925 287.843 536.386 288.298 536.731 288.877C537.088 289.443 537.266 290.175 537.266 291.074C537.266 291.911 537.057 292.723 536.639 293.511C536.232 294.299 535.635 295.001 534.848 295.616C534.072 296.232 533.112 296.724 531.967 297.093C530.835 297.475 529.542 297.666 528.089 297.666C526.662 297.666 525.418 297.524 524.36 297.241C523.301 296.97 522.421 296.601 521.719 296.133C521.017 295.678 520.494 295.148 520.15 294.545C519.805 293.942 519.633 293.314 519.633 292.662C519.633 291.776 519.897 291.037 520.427 290.446C520.968 289.843 521.707 289.363 522.642 289.006C522.138 288.747 521.738 288.403 521.442 287.972C521.147 287.541 520.999 286.975 520.999 286.273C520.999 285.99 521.048 285.701 521.147 285.405C521.258 285.097 521.411 284.796 521.608 284.5C521.818 284.205 522.076 283.928 522.384 283.67C522.692 283.399 523.055 283.159 523.473 282.949C522.513 282.432 521.756 281.743 521.202 280.881C520.661 280.02 520.39 279.01 520.39 277.853C520.39 276.918 520.574 276.074 520.944 275.324C521.325 274.56 521.848 273.914 522.513 273.385C523.19 272.843 523.984 272.431 524.895 272.148C525.818 271.864 526.822 271.723 527.905 271.723C528.717 271.723 529.48 271.809 530.194 271.981C530.908 272.141 531.561 272.381 532.152 272.702H537.599ZM566.396 280.918L563.146 272.037C562.986 271.643 562.82 271.175 562.647 270.633C562.475 270.092 562.303 269.507 562.13 268.879C561.97 269.507 561.804 270.098 561.632 270.652C561.459 271.194 561.293 271.668 561.133 272.074L557.902 280.918H566.396ZM575.166 291H571.326C570.895 291 570.544 290.895 570.273 290.686C570.002 290.465 569.799 290.194 569.664 289.874L567.67 284.427H556.609L554.615 289.874C554.517 290.157 554.326 290.415 554.043 290.649C553.76 290.883 553.409 291 552.99 291H549.113L559.619 264.3H564.678L575.166 291ZM591.938 276.062C591.803 276.234 591.667 276.37 591.532 276.468C591.409 276.567 591.224 276.616 590.978 276.616C590.744 276.616 590.516 276.548 590.295 276.413C590.073 276.265 589.809 276.105 589.501 275.933C589.193 275.748 588.824 275.588 588.393 275.453C587.974 275.305 587.451 275.231 586.823 275.231C586.023 275.231 585.322 275.379 584.719 275.674C584.115 275.957 583.611 276.37 583.204 276.911C582.81 277.453 582.515 278.112 582.318 278.887C582.121 279.65 582.023 280.518 582.023 281.491C582.023 282.5 582.127 283.399 582.337 284.187C582.558 284.974 582.872 285.639 583.278 286.181C583.684 286.71 584.177 287.116 584.755 287.399C585.334 287.67 585.986 287.806 586.713 287.806C587.439 287.806 588.024 287.719 588.467 287.547C588.922 287.362 589.304 287.166 589.612 286.956C589.919 286.735 590.184 286.538 590.406 286.365C590.64 286.181 590.898 286.088 591.181 286.088C591.55 286.088 591.827 286.23 592.012 286.513L593.323 288.175C592.818 288.766 592.271 289.264 591.68 289.671C591.089 290.064 590.473 290.385 589.833 290.631C589.205 290.865 588.553 291.031 587.876 291.129C587.211 291.228 586.547 291.277 585.882 291.277C584.712 291.277 583.611 291.062 582.577 290.631C581.543 290.188 580.638 289.547 579.862 288.71C579.087 287.873 578.471 286.852 578.016 285.645C577.573 284.427 577.351 283.042 577.351 281.491C577.351 280.1 577.548 278.813 577.942 277.632C578.348 276.438 578.939 275.41 579.715 274.548C580.49 273.674 581.45 272.991 582.595 272.498C583.74 272.006 585.057 271.76 586.547 271.76C587.962 271.76 589.199 271.988 590.258 272.443C591.329 272.898 592.289 273.551 593.138 274.4L591.938 276.062ZM607.852 282.912C606.535 282.974 605.427 283.091 604.528 283.263C603.63 283.423 602.909 283.633 602.368 283.891C601.826 284.15 601.438 284.451 601.205 284.796C600.971 285.141 600.854 285.516 600.854 285.922C600.854 286.722 601.088 287.295 601.555 287.639C602.035 287.984 602.657 288.156 603.42 288.156C604.356 288.156 605.162 287.99 605.839 287.658C606.529 287.313 607.199 286.796 607.852 286.107V282.912ZM597.401 274.696C599.58 272.702 602.202 271.704 605.267 271.704C606.375 271.704 607.366 271.889 608.24 272.258C609.114 272.615 609.852 273.12 610.455 273.772C611.059 274.413 611.514 275.182 611.822 276.081C612.142 276.979 612.302 277.964 612.302 279.035V291H610.234C609.803 291 609.471 290.938 609.237 290.815C609.003 290.68 608.818 290.415 608.683 290.021L608.277 288.655C607.796 289.086 607.329 289.467 606.873 289.8C606.418 290.12 605.944 290.391 605.451 290.612C604.959 290.834 604.43 291 603.863 291.111C603.31 291.234 602.694 291.295 602.017 291.295C601.217 291.295 600.478 291.191 599.801 290.982C599.124 290.76 598.539 290.434 598.047 290.003C597.555 289.572 597.173 289.037 596.902 288.396C596.631 287.756 596.496 287.012 596.496 286.162C596.496 285.682 596.576 285.208 596.736 284.74C596.896 284.26 597.155 283.805 597.512 283.374C597.881 282.943 598.355 282.537 598.933 282.155C599.512 281.774 600.22 281.441 601.057 281.158C601.906 280.875 602.891 280.647 604.011 280.475C605.131 280.291 606.412 280.18 607.852 280.143V279.035C607.852 277.767 607.581 276.831 607.039 276.228C606.498 275.613 605.716 275.305 604.694 275.305C603.956 275.305 603.34 275.391 602.848 275.564C602.368 275.736 601.943 275.933 601.574 276.154C601.205 276.364 600.866 276.554 600.558 276.727C600.263 276.899 599.931 276.985 599.561 276.985C599.241 276.985 598.97 276.905 598.749 276.745C598.527 276.573 598.349 276.376 598.213 276.154L597.401 274.696ZM630.15 276.893C629.633 276.265 629.067 275.822 628.451 275.564C627.848 275.305 627.196 275.176 626.494 275.176C625.805 275.176 625.183 275.305 624.629 275.564C624.075 275.822 623.601 276.216 623.208 276.745C622.814 277.262 622.512 277.927 622.303 278.739C622.093 279.54 621.989 280.487 621.989 281.583C621.989 282.691 622.075 283.633 622.247 284.408C622.432 285.171 622.69 285.799 623.023 286.292C623.355 286.772 623.761 287.122 624.242 287.344C624.722 287.553 625.257 287.658 625.848 287.658C626.796 287.658 627.602 287.461 628.267 287.067C628.932 286.673 629.559 286.113 630.15 285.387V276.893ZM634.711 263.562V291H631.923C631.32 291 630.938 290.723 630.778 290.169L630.39 288.341C629.627 289.215 628.747 289.923 627.75 290.465C626.765 291.006 625.614 291.277 624.297 291.277C623.263 291.277 622.315 291.062 621.453 290.631C620.592 290.2 619.847 289.578 619.219 288.766C618.604 287.941 618.124 286.925 617.779 285.719C617.447 284.513 617.28 283.134 617.28 281.583C617.28 280.18 617.471 278.875 617.853 277.669C618.234 276.462 618.782 275.416 619.496 274.53C620.21 273.643 621.066 272.954 622.063 272.461C623.06 271.957 624.18 271.704 625.423 271.704C626.482 271.704 627.387 271.871 628.138 272.203C628.888 272.535 629.559 272.985 630.15 273.551V263.562H634.711ZM653.079 279.349C653.079 278.758 652.993 278.204 652.82 277.687C652.66 277.158 652.414 276.696 652.082 276.302C651.75 275.908 651.325 275.6 650.808 275.379C650.303 275.145 649.712 275.028 649.035 275.028C647.718 275.028 646.678 275.404 645.915 276.154C645.164 276.905 644.684 277.97 644.474 279.349H653.079ZM644.382 282.1C644.456 283.073 644.628 283.916 644.899 284.63C645.17 285.331 645.527 285.916 645.97 286.384C646.413 286.839 646.936 287.184 647.54 287.418C648.155 287.639 648.832 287.75 649.571 287.75C650.309 287.75 650.943 287.664 651.473 287.492C652.014 287.319 652.482 287.129 652.876 286.919C653.282 286.71 653.633 286.519 653.928 286.347C654.236 286.175 654.532 286.088 654.815 286.088C655.196 286.088 655.479 286.23 655.664 286.513L656.975 288.175C656.47 288.766 655.904 289.264 655.276 289.671C654.648 290.064 653.99 290.385 653.301 290.631C652.624 290.865 651.928 291.031 651.214 291.129C650.512 291.228 649.829 291.277 649.164 291.277C647.847 291.277 646.623 291.062 645.49 290.631C644.358 290.188 643.373 289.541 642.536 288.692C641.699 287.83 641.04 286.772 640.56 285.516C640.08 284.248 639.84 282.783 639.84 281.121C639.84 279.829 640.049 278.616 640.468 277.484C640.886 276.339 641.483 275.348 642.259 274.511C643.047 273.662 644.001 272.991 645.121 272.498C646.253 272.006 647.527 271.76 648.943 271.76C650.137 271.76 651.239 271.951 652.248 272.332C653.257 272.714 654.125 273.274 654.852 274.013C655.578 274.739 656.144 275.637 656.55 276.708C656.969 277.767 657.178 278.98 657.178 280.346C657.178 281.035 657.104 281.503 656.957 281.749C656.809 281.983 656.526 282.1 656.107 282.1H644.382ZM662.263 291V272.055H665.051C665.642 272.055 666.029 272.332 666.214 272.886L666.509 274.289C666.842 273.92 667.186 273.582 667.543 273.274C667.913 272.966 668.3 272.702 668.707 272.48C669.125 272.258 669.568 272.086 670.036 271.963C670.516 271.828 671.039 271.76 671.606 271.76C672.8 271.76 673.778 272.086 674.542 272.738C675.317 273.379 675.896 274.234 676.277 275.305C676.573 274.677 676.942 274.142 677.385 273.699C677.828 273.243 678.314 272.874 678.844 272.591C679.373 272.308 679.933 272.098 680.524 271.963C681.127 271.828 681.73 271.76 682.334 271.76C683.38 271.76 684.309 271.92 685.122 272.24C685.934 272.56 686.617 273.028 687.171 273.643C687.725 274.259 688.144 275.01 688.427 275.896C688.722 276.782 688.87 277.798 688.87 278.943V291H684.309V278.943C684.309 277.736 684.045 276.831 683.515 276.228C682.986 275.613 682.211 275.305 681.189 275.305C680.721 275.305 680.284 275.385 679.878 275.545C679.484 275.705 679.133 275.939 678.825 276.247C678.53 276.542 678.296 276.918 678.124 277.373C677.951 277.829 677.865 278.352 677.865 278.943V291H673.286V278.943C673.286 277.675 673.027 276.751 672.51 276.173C672.006 275.594 671.261 275.305 670.276 275.305C669.611 275.305 668.99 275.471 668.411 275.804C667.845 276.124 667.316 276.567 666.823 277.133V291H662.263ZM711.571 272.055L701.249 296.207C701.114 296.527 700.936 296.767 700.714 296.927C700.505 297.099 700.179 297.186 699.735 297.186H696.338L699.883 289.578L692.22 272.055H696.227C696.584 272.055 696.861 272.141 697.058 272.314C697.267 272.486 697.421 272.683 697.52 272.905L701.545 282.728C701.68 283.06 701.791 283.393 701.877 283.725C701.976 284.057 702.068 284.396 702.154 284.74C702.265 284.396 702.376 284.057 702.487 283.725C702.597 283.38 702.721 283.042 702.856 282.709L706.66 272.905C706.758 272.658 706.918 272.455 707.14 272.295C707.374 272.135 707.632 272.055 707.915 272.055H711.571Z" fill="white"/>
<path d="M210.846 320.746V322.331H203.567V309.616H205.453V320.746H210.846ZM215.573 313.193C216.234 313.193 216.83 313.302 217.362 313.52C217.899 313.733 218.353 314.043 218.725 314.45C219.103 314.851 219.392 315.338 219.593 315.911C219.794 316.478 219.894 317.115 219.894 317.824C219.894 318.532 219.794 319.172 219.593 319.745C219.392 320.318 219.103 320.805 218.725 321.206C218.353 321.607 217.899 321.917 217.362 322.136C216.83 322.348 216.234 322.455 215.573 322.455C214.906 322.455 214.304 322.348 213.767 322.136C213.235 321.917 212.781 321.607 212.403 321.206C212.025 320.805 211.733 320.318 211.526 319.745C211.326 319.172 211.225 318.532 211.225 317.824C211.225 317.115 211.326 316.478 211.526 315.911C211.733 315.338 212.025 314.851 212.403 314.45C212.781 314.043 213.235 313.733 213.767 313.52C214.304 313.302 214.906 313.193 215.573 313.193ZM215.573 321.109C216.423 321.109 217.058 320.822 217.477 320.25C217.896 319.677 218.105 318.871 218.105 317.832C218.105 316.794 217.896 315.988 217.477 315.415C217.058 314.837 216.423 314.547 215.573 314.547C214.711 314.547 214.068 314.837 213.643 315.415C213.224 315.988 213.014 316.794 213.014 317.832C213.014 318.871 213.224 319.677 213.643 320.25C214.068 320.822 214.711 321.109 215.573 321.109ZM223.451 315.061C223.74 314.471 224.088 314.007 224.495 313.671C224.903 313.334 225.393 313.166 225.965 313.166C226.16 313.166 226.343 313.19 226.514 313.237C226.691 313.278 226.845 313.343 226.975 313.432L226.86 314.733C226.818 314.893 226.721 314.972 226.567 314.972C226.485 314.972 226.361 314.958 226.195 314.928C226.03 314.893 225.853 314.875 225.664 314.875C225.387 314.875 225.142 314.916 224.929 314.999C224.717 315.076 224.525 315.194 224.354 315.353C224.188 315.507 224.041 315.699 223.911 315.929C223.781 316.153 223.66 316.41 223.548 316.699V322.331H221.821V313.334H222.813C223.002 313.334 223.129 313.37 223.194 313.441C223.265 313.506 223.315 313.624 223.344 313.795L223.451 315.061ZM233.937 316.832C233.937 316.49 233.887 316.174 233.787 315.884C233.692 315.595 233.55 315.344 233.361 315.132C233.173 314.919 232.942 314.754 232.671 314.636C232.399 314.518 232.086 314.459 231.732 314.459C231.006 314.459 230.434 314.668 230.014 315.088C229.601 315.507 229.339 316.088 229.226 316.832H233.937ZM235.363 321.047C235.15 321.295 234.905 321.51 234.628 321.693C234.35 321.87 234.055 322.015 233.742 322.127C233.429 322.239 233.105 322.322 232.768 322.375C232.438 322.428 232.11 322.455 231.785 322.455C231.166 322.455 230.59 322.351 230.059 322.145C229.533 321.932 229.076 321.625 228.686 321.224C228.303 320.816 228.002 320.315 227.783 319.718C227.571 319.116 227.464 318.426 227.464 317.647C227.464 317.021 227.562 316.439 227.757 315.902C227.951 315.359 228.229 314.887 228.589 314.485C228.955 314.084 229.401 313.768 229.926 313.538C230.451 313.308 231.042 313.193 231.697 313.193C232.246 313.193 232.751 313.284 233.211 313.467C233.677 313.644 234.079 313.904 234.415 314.246C234.752 314.589 235.014 315.011 235.203 315.513C235.398 316.014 235.495 316.587 235.495 317.23C235.495 317.496 235.466 317.676 235.407 317.771C235.348 317.859 235.239 317.903 235.079 317.903H229.182C229.2 318.44 229.277 318.91 229.412 319.311C229.548 319.707 229.734 320.037 229.97 320.303C230.212 320.569 230.499 320.766 230.829 320.896C231.16 321.026 231.529 321.091 231.936 321.091C232.32 321.091 232.65 321.047 232.928 320.958C233.211 320.87 233.453 320.775 233.654 320.675C233.86 320.569 234.031 320.471 234.167 320.383C234.309 320.294 234.433 320.25 234.539 320.25C234.681 320.25 234.79 320.303 234.867 320.409L235.363 321.047ZM237.351 322.331V313.334H238.387C238.629 313.334 238.78 313.45 238.839 313.68L238.963 314.539C239.293 314.143 239.659 313.821 240.061 313.573C240.468 313.32 240.943 313.193 241.486 313.193C242.083 313.193 242.567 313.358 242.938 313.689C243.31 314.013 243.582 314.456 243.753 315.017C243.883 314.698 244.051 314.424 244.258 314.193C244.464 313.963 244.695 313.774 244.948 313.627C245.202 313.479 245.471 313.37 245.754 313.299C246.043 313.228 246.336 313.193 246.631 313.193C247.109 313.193 247.534 313.269 247.906 313.423C248.284 313.571 248.602 313.789 248.862 314.078C249.122 314.367 249.32 314.725 249.455 315.15C249.591 315.575 249.659 316.059 249.659 316.602V322.331H247.924V316.602C247.924 315.929 247.776 315.421 247.481 315.079C247.192 314.736 246.767 314.565 246.206 314.565C245.958 314.565 245.722 314.609 245.497 314.698C245.273 314.781 245.075 314.908 244.904 315.079C244.739 315.25 244.606 315.462 244.506 315.716C244.411 315.97 244.364 316.265 244.364 316.602V322.331H242.629V316.602C242.629 315.905 242.49 315.392 242.212 315.061C241.935 314.73 241.528 314.565 240.99 314.565C240.619 314.565 240.273 314.663 239.954 314.857C239.636 315.052 239.344 315.318 239.078 315.654V322.331H237.351ZM261.765 314.884C261.718 314.961 261.667 315.017 261.614 315.052C261.561 315.082 261.493 315.096 261.411 315.096C261.316 315.096 261.21 315.064 261.092 314.999C260.98 314.934 260.841 314.863 260.676 314.787C260.516 314.71 260.328 314.639 260.109 314.574C259.891 314.509 259.631 314.477 259.33 314.477C259.082 314.477 258.855 314.509 258.648 314.574C258.447 314.633 258.276 314.719 258.135 314.831C257.993 314.937 257.884 315.067 257.807 315.22C257.73 315.368 257.692 315.527 257.692 315.699C257.692 315.923 257.757 316.109 257.887 316.256C258.022 316.404 258.197 316.531 258.409 316.637C258.627 316.743 258.872 316.841 259.144 316.929C259.421 317.012 259.702 317.101 259.985 317.195C260.274 317.289 260.555 317.399 260.826 317.523C261.104 317.641 261.349 317.791 261.561 317.974C261.78 318.151 261.954 318.367 262.084 318.621C262.219 318.874 262.287 319.184 262.287 319.55C262.287 319.969 262.211 320.359 262.057 320.719C261.91 321.073 261.688 321.38 261.393 321.64C261.104 321.9 260.744 322.103 260.313 322.251C259.882 322.398 259.389 322.472 258.834 322.472C258.214 322.472 257.642 322.369 257.116 322.162C256.591 321.956 256.151 321.693 255.797 321.374L256.204 320.71C256.251 320.628 256.311 320.566 256.381 320.524C256.452 320.477 256.547 320.453 256.665 320.453C256.777 320.453 256.892 320.495 257.01 320.577C257.128 320.66 257.27 320.752 257.435 320.852C257.6 320.946 257.801 321.035 258.037 321.118C258.273 321.194 258.568 321.233 258.923 321.233C259.218 321.233 259.475 321.197 259.693 321.126C259.911 321.05 260.091 320.949 260.233 320.825C260.381 320.695 260.49 320.548 260.561 320.383C260.632 320.217 260.667 320.043 260.667 319.86C260.667 319.624 260.599 319.429 260.463 319.276C260.333 319.116 260.159 318.981 259.941 318.868C259.728 318.756 259.483 318.659 259.206 318.576C258.928 318.494 258.645 318.405 258.356 318.311C258.067 318.216 257.783 318.107 257.506 317.983C257.228 317.859 256.981 317.703 256.762 317.514C256.55 317.325 256.375 317.095 256.24 316.823C256.11 316.552 256.045 316.221 256.045 315.831C256.045 315.483 256.116 315.15 256.257 314.831C256.405 314.512 256.615 314.232 256.886 313.99C257.163 313.748 257.503 313.556 257.904 313.414C258.312 313.267 258.775 313.193 259.294 313.193C259.891 313.193 260.428 313.287 260.906 313.476C261.39 313.665 261.803 313.925 262.146 314.255L261.765 314.884ZM271.639 313.334V322.331H270.603C270.367 322.331 270.213 322.215 270.142 321.985L270.019 321.082C269.824 321.289 269.62 321.478 269.408 321.649C269.195 321.82 268.968 321.968 268.726 322.091C268.484 322.21 268.227 322.301 267.955 322.366C267.684 322.437 267.392 322.472 267.079 322.472C266.583 322.472 266.146 322.39 265.768 322.224C265.396 322.059 265.084 321.829 264.83 321.534C264.576 321.233 264.384 320.873 264.254 320.453C264.124 320.034 264.059 319.571 264.059 319.063V313.334H265.795V319.063C265.795 319.707 265.942 320.208 266.238 320.569C266.533 320.923 266.984 321.1 267.592 321.1C268.035 321.1 268.448 320.996 268.832 320.79C269.216 320.577 269.576 320.288 269.912 319.922V313.334H271.639ZM274.049 322.331V313.334H275.085C275.327 313.334 275.477 313.45 275.537 313.68L275.66 314.539C275.991 314.143 276.357 313.821 276.758 313.573C277.166 313.32 277.641 313.193 278.184 313.193C278.78 313.193 279.264 313.358 279.636 313.689C280.008 314.013 280.28 314.456 280.451 315.017C280.581 314.698 280.749 314.424 280.955 314.193C281.162 313.963 281.392 313.774 281.646 313.627C281.9 313.479 282.169 313.37 282.452 313.299C282.741 313.228 283.033 313.193 283.328 313.193C283.807 313.193 284.232 313.269 284.604 313.423C284.981 313.571 285.3 313.789 285.56 314.078C285.82 314.367 286.017 314.725 286.153 315.15C286.289 315.575 286.357 316.059 286.357 316.602V322.331H284.621V316.602C284.621 315.929 284.474 315.421 284.178 315.079C283.889 314.736 283.464 314.565 282.903 314.565C282.656 314.565 282.419 314.609 282.195 314.698C281.971 314.781 281.773 314.908 281.602 315.079C281.437 315.25 281.304 315.462 281.203 315.716C281.109 315.97 281.062 316.265 281.062 316.602V322.331H279.326V316.602C279.326 315.905 279.188 315.392 278.91 315.061C278.633 314.73 278.225 314.565 277.688 314.565C277.316 314.565 276.971 314.663 276.652 314.857C276.333 315.052 276.041 315.318 275.776 315.654V322.331H274.049ZM298.463 314.884C298.415 314.961 298.365 315.017 298.312 315.052C298.259 315.082 298.191 315.096 298.108 315.096C298.014 315.096 297.908 315.064 297.79 314.999C297.677 314.934 297.539 314.863 297.373 314.787C297.214 314.71 297.025 314.639 296.807 314.574C296.588 314.509 296.329 314.477 296.028 314.477C295.78 314.477 295.552 314.509 295.346 314.574C295.145 314.633 294.974 314.719 294.832 314.831C294.691 314.937 294.581 315.067 294.505 315.22C294.428 315.368 294.39 315.527 294.39 315.699C294.39 315.923 294.454 316.109 294.584 316.256C294.72 316.404 294.894 316.531 295.107 316.637C295.325 316.743 295.57 316.841 295.842 316.929C296.119 317.012 296.399 317.101 296.683 317.195C296.972 317.289 297.252 317.399 297.524 317.523C297.801 317.641 298.046 317.791 298.259 317.974C298.477 318.151 298.651 318.367 298.781 318.621C298.917 318.874 298.985 319.184 298.985 319.55C298.985 319.969 298.908 320.359 298.755 320.719C298.607 321.073 298.386 321.38 298.091 321.64C297.801 321.9 297.441 322.103 297.01 322.251C296.58 322.398 296.087 322.472 295.532 322.472C294.912 322.472 294.339 322.369 293.814 322.162C293.289 321.956 292.849 321.693 292.495 321.374L292.902 320.71C292.949 320.628 293.008 320.566 293.079 320.524C293.15 320.477 293.244 320.453 293.362 320.453C293.475 320.453 293.59 320.495 293.708 320.577C293.826 320.66 293.967 320.752 294.133 320.852C294.298 320.946 294.499 321.035 294.735 321.118C294.971 321.194 295.266 321.233 295.62 321.233C295.915 321.233 296.172 321.197 296.391 321.126C296.609 321.05 296.789 320.949 296.931 320.825C297.078 320.695 297.188 320.548 297.258 320.383C297.329 320.217 297.365 320.043 297.365 319.86C297.365 319.624 297.297 319.429 297.161 319.276C297.031 319.116 296.857 318.981 296.639 318.868C296.426 318.756 296.181 318.659 295.904 318.576C295.626 318.494 295.343 318.405 295.054 318.311C294.764 318.216 294.481 318.107 294.204 317.983C293.926 317.859 293.678 317.703 293.46 317.514C293.247 317.325 293.073 317.095 292.937 316.823C292.808 316.552 292.743 316.221 292.743 315.831C292.743 315.483 292.813 315.15 292.955 314.831C293.103 314.512 293.312 314.232 293.584 313.99C293.861 313.748 294.201 313.556 294.602 313.414C295.009 313.267 295.473 313.193 295.992 313.193C296.588 313.193 297.126 313.287 297.604 313.476C298.088 313.665 298.501 313.925 298.843 314.255L298.463 314.884ZM308.337 313.334V322.331H307.301C307.064 322.331 306.911 322.215 306.84 321.985L306.716 321.082C306.521 321.289 306.318 321.478 306.105 321.649C305.893 321.82 305.665 321.968 305.423 322.091C305.181 322.21 304.925 322.301 304.653 322.366C304.382 322.437 304.089 322.472 303.777 322.472C303.281 322.472 302.844 322.39 302.466 322.224C302.094 322.059 301.781 321.829 301.527 321.534C301.274 321.233 301.082 320.873 300.952 320.453C300.822 320.034 300.757 319.571 300.757 319.063V313.334H302.493V319.063C302.493 319.707 302.64 320.208 302.935 320.569C303.23 320.923 303.682 321.1 304.29 321.1C304.733 321.1 305.146 320.996 305.53 320.79C305.913 320.577 306.273 320.288 306.61 319.922V313.334H308.337ZM310.747 322.331V313.334H311.783C312.025 313.334 312.175 313.45 312.234 313.68L312.358 314.539C312.689 314.143 313.055 313.821 313.456 313.573C313.863 313.32 314.339 313.193 314.882 313.193C315.478 313.193 315.962 313.358 316.334 313.689C316.706 314.013 316.977 314.456 317.148 315.017C317.278 314.698 317.447 314.424 317.653 314.193C317.86 313.963 318.09 313.774 318.344 313.627C318.598 313.479 318.866 313.37 319.15 313.299C319.439 313.228 319.731 313.193 320.026 313.193C320.504 313.193 320.929 313.269 321.301 313.423C321.679 313.571 321.998 313.789 322.257 314.078C322.517 314.367 322.715 314.725 322.851 315.15C322.987 315.575 323.054 316.059 323.054 316.602V322.331H321.319V316.602C321.319 315.929 321.171 315.421 320.876 315.079C320.587 314.736 320.162 314.565 319.601 314.565C319.353 314.565 319.117 314.609 318.893 314.698C318.668 314.781 318.471 314.908 318.3 315.079C318.134 315.25 318.001 315.462 317.901 315.716C317.807 315.97 317.759 316.265 317.759 316.602V322.331H316.024V316.602C316.024 315.905 315.885 315.392 315.608 315.061C315.33 314.73 314.923 314.565 314.386 314.565C314.014 314.565 313.669 314.663 313.35 314.857C313.031 315.052 312.739 315.318 312.473 315.654V322.331H310.747ZM325.094 321.295C325.094 321.135 325.123 320.985 325.183 320.843C325.242 320.701 325.321 320.577 325.422 320.471C325.528 320.365 325.652 320.282 325.793 320.223C325.935 320.158 326.089 320.126 326.254 320.126C326.413 320.126 326.564 320.158 326.705 320.223C326.847 320.282 326.971 320.365 327.077 320.471C327.184 320.577 327.266 320.701 327.325 320.843C327.39 320.985 327.423 321.135 327.423 321.295C327.423 321.46 327.39 321.613 327.325 321.755C327.266 321.897 327.184 322.021 327.077 322.127C326.971 322.233 326.847 322.316 326.705 322.375C326.564 322.434 326.413 322.463 326.254 322.463C326.089 322.463 325.935 322.434 325.793 322.375C325.652 322.316 325.528 322.233 325.422 322.127C325.321 322.021 325.242 321.897 325.183 321.755C325.123 321.613 325.094 321.46 325.094 321.295ZM329.279 321.295C329.279 321.135 329.309 320.985 329.368 320.843C329.427 320.701 329.506 320.577 329.607 320.471C329.713 320.365 329.837 320.282 329.979 320.223C330.12 320.158 330.274 320.126 330.439 320.126C330.598 320.126 330.749 320.158 330.891 320.223C331.032 320.282 331.156 320.365 331.262 320.471C331.369 320.577 331.451 320.701 331.51 320.843C331.575 320.985 331.608 321.135 331.608 321.295C331.608 321.46 331.575 321.613 331.51 321.755C331.451 321.897 331.369 322.021 331.262 322.127C331.156 322.233 331.032 322.316 330.891 322.375C330.749 322.434 330.598 322.463 330.439 322.463C330.274 322.463 330.12 322.434 329.979 322.375C329.837 322.316 329.713 322.233 329.607 322.127C329.506 322.021 329.427 321.897 329.368 321.755C329.309 321.613 329.279 321.46 329.279 321.295ZM333.464 321.295C333.464 321.135 333.494 320.985 333.553 320.843C333.612 320.701 333.691 320.577 333.792 320.471C333.898 320.365 334.022 320.282 334.164 320.223C334.305 320.158 334.459 320.126 334.624 320.126C334.784 320.126 334.934 320.158 335.076 320.223C335.217 320.282 335.341 320.365 335.448 320.471C335.554 320.577 335.637 320.701 335.696 320.843C335.76 320.985 335.793 321.135 335.793 321.295C335.793 321.46 335.76 321.613 335.696 321.755C335.637 321.897 335.554 322.021 335.448 322.127C335.341 322.233 335.217 322.316 335.076 322.375C334.934 322.434 334.784 322.463 334.624 322.463C334.459 322.463 334.305 322.434 334.164 322.375C334.022 322.316 333.898 322.233 333.792 322.127C333.691 322.021 333.612 321.897 333.553 321.755C333.494 321.613 333.464 321.46 333.464 321.295Z" fill="#A3A3A3"/>
<path d="M42 41H534V39H42V41ZM535 42V534H537V42H535ZM534 535H42V537H534V535ZM41 534V42H39V534H41ZM42 535C41.4477 535 41 534.552 41 534H39C39 535.657 40.3431 537 42 537V535ZM535 534C535 534.552 534.552 535 534 535V537C535.657 537 537 535.657 537 534H535ZM534 41C534.552 41 535 41.4477 535 42H537C537 40.3431 535.657 39 534 39V41ZM42 39C40.3431 39 39 40.3431 39 42H41C41 41.4477 41.4477 41 42 41V39Z" fill="black" fill-opacity="0.1"/>
<rect x="43" y="43" width="59.375" height="30" rx="3" fill="white"/>
<rect x="43.5" y="43.5" width="58.375" height="29" rx="2.5" stroke="black" stroke-opacity="0.14902"/>
<path d="M54.3438 55C54.2969 54.6042 54.1068 54.2969 53.7734 54.0781C53.4401 53.8594 53.0313 53.75 52.5469 53.75C52.1927 53.75 51.8828 53.8073 51.6172 53.9219C51.3542 54.0365 51.1484 54.194 51 54.3945C50.8542 54.5951 50.7813 54.8229 50.7813 55.0781C50.7813 55.2917 50.832 55.4753 50.9336 55.6289C51.0378 55.7799 51.1706 55.9062 51.332 56.0078C51.4935 56.1068 51.6628 56.1888 51.8398 56.2539C52.0169 56.3164 52.1797 56.3672 52.3281 56.4062L53.1406 56.625C53.349 56.6797 53.5807 56.7552 53.8359 56.8516C54.0938 56.9479 54.3398 57.0794 54.5742 57.2461C54.8112 57.4102 55.0065 57.6211 55.1602 57.8789C55.3138 58.1367 55.3906 58.4531 55.3906 58.8281C55.3906 59.2604 55.2773 59.651 55.0508 60C54.8268 60.349 54.4987 60.6263 54.0664 60.832C53.6367 61.0378 53.1146 61.1406 52.5 61.1406C51.9271 61.1406 51.431 61.0482 51.0117 60.8633C50.5951 60.6784 50.2669 60.4206 50.0273 60.0898C49.7904 59.7591 49.6563 59.375 49.625 58.9375H50.625C50.651 59.2396 50.7526 59.4896 50.9297 59.6875C51.1094 59.8828 51.3359 60.0286 51.6094 60.125C51.8854 60.2187 52.1823 60.2656 52.5 60.2656C52.8698 60.2656 53.2018 60.2057 53.4961 60.0859C53.7904 59.9635 54.0234 59.7943 54.1953 59.5781C54.3672 59.3594 54.4531 59.1042 54.4531 58.8125C54.4531 58.5469 54.3789 58.3307 54.2305 58.1641C54.082 57.9974 53.8867 57.862 53.6445 57.7578C53.4023 57.6536 53.1406 57.5625 52.8594 57.4844L51.875 57.2031C51.25 57.0234 50.7552 56.7669 50.3906 56.4336C50.026 56.1003 49.8438 55.6641 49.8438 55.125C49.8438 54.6771 49.9648 54.2865 50.207 53.9531C50.4518 53.6172 50.7799 53.3568 51.1914 53.1719C51.6055 52.9844 52.0677 52.8906 52.5781 52.8906C53.0938 52.8906 53.5521 52.9831 53.9531 53.168C54.3542 53.3503 54.6719 53.6003 54.9062 53.918C55.1432 54.2357 55.2682 54.5964 55.2813 55H54.3438ZM59.374 61.125C58.7959 61.125 58.2972 60.9974 57.8779 60.7422C57.4613 60.4844 57.1396 60.125 56.9131 59.6641C56.6891 59.2005 56.5771 58.6615 56.5771 58.0469C56.5771 57.4323 56.6891 56.8906 56.9131 56.4219C57.1396 55.9505 57.4548 55.5833 57.8584 55.3203C58.2646 55.0547 58.7386 54.9219 59.2803 54.9219C59.5928 54.9219 59.9014 54.974 60.2061 55.0781C60.5107 55.1823 60.7881 55.3516 61.0381 55.5859C61.2881 55.8177 61.4873 56.125 61.6357 56.5078C61.7842 56.8906 61.8584 57.362 61.8584 57.9219V58.3125H57.2334V57.5156H60.9209C60.9209 57.1771 60.8532 56.875 60.7178 56.6094C60.585 56.3437 60.3949 56.1341 60.1475 55.9805C59.9027 55.8268 59.6136 55.75 59.2803 55.75C58.9131 55.75 58.5954 55.8411 58.3271 56.0234C58.0615 56.2031 57.8571 56.4375 57.7139 56.7266C57.5706 57.0156 57.499 57.3255 57.499 57.6562V58.1875C57.499 58.6406 57.5771 59.0247 57.7334 59.3398C57.8923 59.6523 58.1123 59.8906 58.3936 60.0547C58.6748 60.2161 59.0016 60.2969 59.374 60.2969C59.6162 60.2969 59.835 60.263 60.0303 60.1953C60.2282 60.125 60.3988 60.0208 60.542 59.8828C60.6852 59.7422 60.7959 59.5677 60.874 59.3594L61.7646 59.6094C61.6709 59.9115 61.5133 60.1771 61.292 60.4062C61.0706 60.6328 60.7972 60.8099 60.4717 60.9375C60.1462 61.0625 59.7803 61.125 59.374 61.125ZM65.6982 61.125C65.1357 61.125 64.6514 60.9922 64.2451 60.7266C63.8389 60.4609 63.5264 60.0951 63.3076 59.6289C63.0889 59.1628 62.9795 58.6302 62.9795 58.0312C62.9795 57.4219 63.0915 56.8841 63.3154 56.418C63.542 55.9492 63.8571 55.5833 64.2607 55.3203C64.667 55.0547 65.141 54.9219 65.6826 54.9219C66.1045 54.9219 66.4847 55 66.8232 55.1562C67.1618 55.3125 67.4391 55.5312 67.6553 55.8125C67.8714 56.0937 68.0055 56.4219 68.0576 56.7969H67.1357C67.0654 56.5234 66.9092 56.2812 66.667 56.0703C66.4274 55.8568 66.1045 55.75 65.6982 55.75C65.3389 55.75 65.0238 55.8437 64.7529 56.0312C64.4847 56.2161 64.2751 56.4779 64.124 56.8164C63.9756 57.1523 63.9014 57.5469 63.9014 58C63.9014 58.4635 63.9743 58.8672 64.1201 59.2109C64.2686 59.5547 64.4769 59.8216 64.7451 60.0117C65.016 60.2018 65.3337 60.2969 65.6982 60.2969C65.9378 60.2969 66.1553 60.2552 66.3506 60.1719C66.5459 60.0885 66.7113 59.9688 66.8467 59.8125C66.9821 59.6562 67.0785 59.4687 67.1357 59.25H68.0576C68.0055 59.6042 67.8766 59.9232 67.6709 60.207C67.4678 60.4883 67.1982 60.7122 66.8623 60.8789C66.529 61.043 66.141 61.125 65.6982 61.125ZM72.0146 55V55.7812H68.9053V55H72.0146ZM69.8115 53.5625H70.7334V59.2812C70.7334 59.5417 70.7712 59.737 70.8467 59.8672C70.9248 59.9948 71.0238 60.0807 71.1436 60.125C71.266 60.1667 71.3949 60.1875 71.5303 60.1875C71.6318 60.1875 71.7152 60.1823 71.7803 60.1719C71.8454 60.1589 71.8975 60.1484 71.9365 60.1406L72.124 60.9687C72.0615 60.9922 71.9743 61.0156 71.8623 61.0391C71.7503 61.0651 71.6084 61.0781 71.4365 61.0781C71.1761 61.0781 70.9209 61.0221 70.6709 60.9102C70.4235 60.7982 70.2178 60.6276 70.0537 60.3984C69.8923 60.1693 69.8115 59.8802 69.8115 59.5312V53.5625ZM73.4014 61V55H74.3232V61H73.4014ZM73.8701 54C73.6904 54 73.5355 53.9388 73.4053 53.8164C73.2777 53.694 73.2139 53.5469 73.2139 53.375C73.2139 53.2031 73.2777 53.056 73.4053 52.9336C73.5355 52.8112 73.6904 52.75 73.8701 52.75C74.0498 52.75 74.2035 52.8112 74.3311 52.9336C74.4613 53.056 74.5264 53.2031 74.5264 53.375C74.5264 53.5469 74.4613 53.694 74.3311 53.8164C74.2035 53.9388 74.0498 54 73.8701 54ZM78.4492 61.125C77.9076 61.125 77.4323 60.9961 77.0234 60.7383C76.6172 60.4805 76.2995 60.1198 76.0703 59.6562C75.8438 59.1927 75.7305 58.651 75.7305 58.0312C75.7305 57.4062 75.8438 56.8607 76.0703 56.3945C76.2995 55.9284 76.6172 55.5664 77.0234 55.3086C77.4323 55.0508 77.9076 54.9219 78.4492 54.9219C78.9909 54.9219 79.4648 55.0508 79.8711 55.3086C80.2799 55.5664 80.5977 55.9284 80.8242 56.3945C81.0534 56.8607 81.168 57.4062 81.168 58.0312C81.168 58.651 81.0534 59.1927 80.8242 59.6562C80.5977 60.1198 80.2799 60.4805 79.8711 60.7383C79.4648 60.9961 78.9909 61.125 78.4492 61.125ZM78.4492 60.2969C78.8607 60.2969 79.1992 60.1914 79.4648 59.9805C79.7305 59.7695 79.9271 59.4922 80.0547 59.1484C80.1823 58.8047 80.2461 58.4323 80.2461 58.0312C80.2461 57.6302 80.1823 57.2565 80.0547 56.9102C79.9271 56.5638 79.7305 56.2839 79.4648 56.0703C79.1992 55.8568 78.8607 55.75 78.4492 55.75C78.0378 55.75 77.6992 55.8568 77.4336 56.0703C77.168 56.2839 76.9714 56.5638 76.8438 56.9102C76.7161 57.2565 76.6523 57.6302 76.6523 58.0312C76.6523 58.4323 76.7161 58.8047 76.8438 59.1484C76.9714 59.4922 77.168 59.7695 77.4336 59.9805C77.6992 60.1914 78.0378 60.2969 78.4492 60.2969ZM83.4971 57.3906V61H82.5752V55H83.4658V55.9375H83.5439C83.6846 55.6328 83.8981 55.388 84.1846 55.2031C84.471 55.0156 84.8408 54.9219 85.2939 54.9219C85.7002 54.9219 86.0557 55.0052 86.3604 55.1719C86.665 55.3359 86.902 55.5859 87.0713 55.9219C87.2406 56.2552 87.3252 56.6771 87.3252 57.1875V61H86.4033V57.25C86.4033 56.7786 86.2809 56.4115 86.0361 56.1484C85.7913 55.8828 85.4554 55.75 85.0283 55.75C84.734 55.75 84.471 55.8138 84.2393 55.9414C84.0101 56.069 83.8291 56.2552 83.6963 56.5C83.5635 56.7448 83.4971 57.0417 83.4971 57.3906ZM94.9004 53V61H93.9316V54.0156H93.8848L91.9316 55.3125V54.3281L93.9316 53H94.9004Z" fill="black"/>
</svg>
