<svg width="169" height="138" viewBox="0 0 169 138" fill="none" xmlns="http://www.w3.org/2000/svg">
<g clip-path="url(#clip0_652_4719)">
<path d="M99.8526 132.832C99.8526 134.078 98.8409 135.088 97.5923 135.088C96.3438 135.088 95.332 134.078 95.332 132.832C95.332 131.586 96.3438 130.576 97.5923 130.576C98.8409 130.576 99.8526 131.586 99.8526 132.832Z" fill="#CAB8F4"/>
<path d="M105.302 29.5611C105.302 30.8073 104.29 31.8171 103.042 31.8171C101.793 31.8171 100.781 30.8073 100.781 29.5611C100.781 28.315 101.793 27.3052 103.042 27.3052C104.29 27.3052 105.302 28.315 105.302 29.5611Z" fill="#CAB8F4"/>
<path d="M168.482 26.4068C168.482 27.0383 167.97 27.5495 167.337 27.5495C166.704 27.5495 166.191 27.0383 166.191 26.4068C166.191 25.7754 166.704 25.2642 167.337 25.2642C167.97 25.2642 168.482 25.7754 168.482 26.4068Z" fill="#CAB8F4"/>
<path d="M69.0287 17.2408C69.0287 17.8723 68.5164 18.3835 67.8835 18.3835C67.2506 18.3835 66.7383 17.8723 66.7383 17.2408C66.7383 16.6093 67.2506 16.0981 67.8835 16.0981C68.5164 16.0981 69.0287 16.6093 69.0287 17.2408Z" fill="#CAB8F4"/>
<path d="M160.88 105.76C160.88 106.392 160.368 106.903 159.735 106.903C159.102 106.903 158.59 106.392 158.59 105.76C158.59 105.129 159.102 104.618 159.735 104.618C160.368 104.618 160.88 105.129 160.88 105.76Z" fill="#CAB8F4"/>
<path d="M32.435 105.76C32.435 106.392 31.9226 106.903 31.2897 106.903C30.6569 106.903 30.1445 106.392 30.1445 105.76C30.1445 105.129 30.6569 104.618 31.2897 104.618C31.9226 104.618 32.435 105.129 32.435 105.76Z" fill="#CAB8F4"/>
<path d="M35.4467 44.3126C35.4467 44.9441 34.9343 45.4553 34.3015 45.4553C33.6686 45.4553 33.1562 44.9441 33.1562 44.3126C33.1562 43.6811 33.6686 43.1699 34.3015 43.1699C34.9343 43.1699 35.4467 43.6811 35.4467 44.3126Z" fill="#CAB8F4"/>
<path d="M32.435 136.699C32.435 137.33 31.9226 137.842 31.2897 137.842C30.6569 137.842 30.1445 137.33 30.1445 136.699C30.1445 136.067 30.6569 135.556 31.2897 135.556C31.9226 135.556 32.435 136.067 32.435 136.699Z" fill="#CAB8F4"/>
<path d="M141.012 31.0621C142.958 30.3841 143.985 28.2596 143.306 26.317C142.626 24.3744 140.498 23.3492 138.552 24.0272C136.605 24.7052 135.578 26.8297 136.257 28.7723C136.937 30.715 139.065 31.7401 141.012 31.0621Z" stroke="#CAB8F4" stroke-width="0.585543" stroke-miterlimit="10"/>
<path d="M159.55 46.066C160.758 46.066 161.737 45.0887 161.737 43.8831C161.737 42.6775 160.758 41.7002 159.55 41.7002C158.342 41.7002 157.363 42.6775 157.363 43.8831C157.363 45.0887 158.342 46.066 159.55 46.066Z" stroke="#CAB8F4" stroke-width="0.585543" stroke-miterlimit="10"/>
<path d="M164.286 132.15C164.617 129.833 163.004 127.688 160.683 127.357C158.362 127.027 156.212 128.637 155.881 130.953C155.55 133.27 157.163 135.415 159.484 135.746C161.805 136.076 163.955 134.466 164.286 132.15Z" stroke="#CAB8F4" stroke-width="0.585543" stroke-miterlimit="10"/>
<path d="M2.83554 136.733C4.04344 136.733 5.02264 135.756 5.02264 134.551C5.02264 133.345 4.04344 132.368 2.83554 132.368C1.62764 132.368 0.648438 133.345 0.648438 134.551C0.648438 135.756 1.62764 136.733 2.83554 136.733Z" stroke="#CAB8F4" stroke-width="0.585543" stroke-miterlimit="10"/>
<path d="M21.005 126.796C21.6737 123.983 19.9315 121.162 17.1136 120.495C14.2958 119.828 11.4694 121.566 10.8006 124.379C10.1319 127.191 11.8742 130.012 14.692 130.68C17.5099 131.347 20.3363 129.608 21.005 126.796Z" stroke="#CAB8F4" stroke-width="0.585543" stroke-miterlimit="10"/>
<path d="M121.875 133.141C122.379 130.278 120.462 127.549 117.593 127.046C114.724 126.543 111.99 128.457 111.486 131.32C110.983 134.184 112.9 136.913 115.769 137.415C118.638 137.918 121.372 136.005 121.875 133.141Z" fill="#CAB8F4"/>
<path d="M143.838 6.38307C144.346 3.52052 142.433 0.788698 139.565 0.281377C136.697 -0.225944 133.96 1.68335 133.452 4.5459C132.943 7.40845 134.856 10.1403 137.724 10.6476C140.592 11.1549 143.329 9.24562 143.838 6.38307Z" fill="#ECE9FF"/>
<path d="M96.548 9.33467C97.9747 9.33467 99.1312 8.18036 99.1312 6.75645C99.1312 5.33253 97.9747 4.17822 96.548 4.17822C95.1214 4.17822 93.9648 5.33253 93.9648 6.75645C93.9648 8.18036 95.1214 9.33467 96.548 9.33467Z" stroke="#CAB8F4" stroke-width="0.585543" stroke-miterlimit="10"/>
<path d="M106.973 19.9536L127.936 13.8828L130.376 22.2768C130.969 24.3155 129.792 26.4505 127.749 27.042L114.191 30.9683C112.149 31.5598 110.01 30.3851 109.417 28.3464L106.977 19.9524L106.973 19.9536Z" fill="#2A2A3F"/>
<path d="M111.23 21.4829L125.503 17.4565" stroke="white" stroke-width="0.585543" stroke-linecap="round" stroke-linejoin="round"/>
<path d="M124.047 20.3222L126.075 19.7466" stroke="white" stroke-width="0.585543" stroke-linecap="round" stroke-linejoin="round"/>
<path d="M111.805 23.772L121.737 20.9712" stroke="white" stroke-width="0.585543" stroke-linecap="round" stroke-linejoin="round"/>
<path d="M112.738 26.497L118.757 24.6885" stroke="white" stroke-width="0.585543" stroke-linecap="round" stroke-linejoin="round"/>
<path d="M127.627 10.0733L105.184 16.5728L106.229 20.1672L128.672 13.6678L127.627 10.0733Z" fill="black"/>
<path d="M106.23 20.16C106.687 18.7764 107.156 17.2424 107.612 15.8587L109.266 15.3774C108.693 16.8341 108.31 18.149 107.935 19.6659C107.935 19.6659 106.73 20.0225 106.235 20.1558L106.23 20.16Z" fill="#464666"/>
<path d="M110.176 19.0038C110.632 17.6202 111.093 16.1033 111.549 14.7196L113.181 14.2427C112.608 15.6994 112.199 17.01 111.825 18.5311L110.176 19.0038Z" fill="#464666"/>
<path d="M114.715 17.7059C115.171 16.3223 115.64 14.784 116.097 13.4003L117.862 12.8804C117.294 14.3371 116.837 15.6692 116.463 17.186L114.715 17.7059Z" fill="#464666"/>
<path d="M119.23 16.3956C119.687 15.0119 120.165 13.4478 120.621 12.0642C120.621 12.0642 122.253 11.6431 122.266 11.6001C121.693 13.0568 121.25 14.3932 120.875 15.91C120.875 15.91 119.235 16.3741 119.235 16.3913L119.23 16.3956Z" fill="#464666"/>
<path d="M123.598 15.1279C124.054 13.7443 124.528 12.2102 124.984 10.8266L126.624 10.3496L125.225 14.6552L123.598 15.1322V15.1279Z" fill="#464666"/>
<path d="M122.336 0.37123L103.086 13.5957L105.212 16.6787L124.462 3.45423L122.336 0.37123Z" fill="black"/>
<path d="M105.208 16.6747C105.208 15.218 105.164 13.6152 105.16 12.1585L106.577 11.1831C106.495 12.7429 106.542 14.1137 106.667 15.6735C106.667 15.6735 105.638 16.3911 105.208 16.6747Z" fill="#464666"/>
<path d="M108.59 14.3413C108.59 12.8846 108.547 11.299 108.543 9.84232L109.942 8.87549C109.86 10.4353 109.886 11.8104 110.007 13.3702L108.59 14.3413Z" fill="#464666"/>
<path d="M112.489 11.6818C112.489 10.2251 112.446 8.61797 112.441 7.16127L113.953 6.11279C113.871 7.67262 113.858 9.08205 113.983 10.6376L112.484 11.6818H112.489Z" fill="#464666"/>
<path d="M116.364 9.01721C116.364 7.56051 116.321 5.92763 116.316 4.47094C116.316 4.47094 117.729 3.55567 117.729 3.5127C117.647 5.07252 117.642 6.48195 117.767 8.04178C117.767 8.04178 116.355 8.99572 116.364 9.01721Z" fill="#464666"/>
<path d="M120.106 6.43889C120.106 4.98219 120.067 3.37939 120.062 1.9184L121.47 0.947266L121.5 5.47205L120.106 6.43459V6.43889Z" fill="#464666"/>
<path d="M111.102 28.7705C111.889 29.6211 113.147 30.0077 114.279 29.7499" stroke="black" stroke-width="0.585543" stroke-linecap="round" stroke-linejoin="round"/>
<path d="M116.629 28.8087L122.023 27.2407" stroke="black" stroke-width="0.585543" stroke-linecap="round" stroke-linejoin="round"/>
<path d="M165.746 9.1429L155.328 6.44482L148.681 31.9987L159.099 34.6967L165.746 9.1429Z" fill="#2A2A3F"/>
<path d="M163.241 9.53038L157.328 7.99854L155.976 13.1976L161.889 14.7294L163.241 9.53038Z" fill="#62628E"/>
<path d="M161.64 15.6988L155.727 14.167L154.375 19.366L160.288 20.8979L161.64 15.6988Z" fill="#62628E"/>
<path d="M160.062 21.733L154.148 20.2012L152.796 25.4002L158.71 26.9321L160.062 21.733Z" fill="#62628E"/>
<path d="M158.464 27.8971L152.551 26.3652L151.199 31.5643L157.112 33.0961L158.464 27.8971Z" fill="#62628E"/>
<path d="M164.756 10.1129L163.852 9.87891L163.617 10.7812L164.521 11.0153L164.756 10.1129Z" fill="#62628E"/>
<path d="M164.361 11.6239L163.457 11.3896L163.222 12.292L164.127 12.5262L164.361 11.6239Z" fill="#62628E"/>
<path d="M163.975 13.1117L163.07 12.8774L162.836 13.7797L163.74 14.014L163.975 13.1117Z" fill="#62628E"/>
<path d="M163.584 14.5995L162.68 14.3652L162.445 15.2675L163.349 15.5018L163.584 14.5995Z" fill="#62628E"/>
<path d="M163.209 16.0656L162.305 15.8315L162.07 16.7339L162.975 16.968L163.209 16.0656Z" fill="#62628E"/>
<path d="M162.822 17.5544L161.918 17.3203L161.683 18.2227L162.588 18.4568L162.822 17.5544Z" fill="#62628E"/>
<path d="M162.436 19.0383L161.531 18.8042L161.297 19.7065L162.201 19.9406L162.436 19.0383Z" fill="#62628E"/>
<path d="M162.037 20.5487L161.133 20.3145L160.898 21.2168L161.802 21.451L162.037 20.5487Z" fill="#62628E"/>
<path d="M161.65 22.0321L160.746 21.7979L160.511 22.7002L161.416 22.9344L161.65 22.0321Z" fill="#62628E"/>
<path d="M161.279 23.4997L160.375 23.2656L160.141 24.168L161.045 24.4021L161.279 23.4997Z" fill="#62628E"/>
<path d="M160.893 24.988L159.988 24.7539L159.754 25.6563L160.658 25.8903L160.893 24.988Z" fill="#62628E"/>
<path d="M160.506 26.4719L159.602 26.2378L159.367 27.1401L160.271 27.3742L160.506 26.4719Z" fill="#62628E"/>
<path d="M160.103 27.9769L159.199 27.7427L158.965 28.645L159.869 28.8792L160.103 27.9769Z" fill="#62628E"/>
<path d="M159.717 29.4652L158.812 29.231L158.578 30.1333L159.482 30.3675L159.717 29.4652Z" fill="#62628E"/>
<path d="M159.334 30.954L158.43 30.7197L158.195 31.622L159.099 31.8563L159.334 30.954Z" fill="#62628E"/>
<path d="M158.959 32.4211L158.055 32.187L157.82 33.0894L158.725 33.3235L158.959 32.4211Z" fill="#62628E"/>
<path d="M156.564 8.01934L155.66 7.78516L155.425 8.68745L156.33 8.92163L156.564 8.01934Z" fill="#62628E"/>
<path d="M156.186 9.48605L155.281 9.25195L155.047 10.1543L155.951 10.3884L156.186 9.48605Z" fill="#62628E"/>
<path d="M155.799 10.9743L154.895 10.7402L154.66 11.6426L155.564 11.8767L155.799 10.9743Z" fill="#62628E"/>
<path d="M155.416 12.4631L154.512 12.229L154.277 13.1314L155.182 13.3654L155.416 12.4631Z" fill="#62628E"/>
<path d="M155.018 13.9642L154.113 13.73L153.879 14.6323L154.783 14.8665L155.018 13.9642Z" fill="#62628E"/>
<path d="M154.631 15.452L153.727 15.2178L153.492 16.1201L154.396 16.3543L154.631 15.452Z" fill="#62628E"/>
<path d="M154.252 16.9192L153.348 16.6851L153.113 17.5874L154.017 17.8215L154.252 16.9192Z" fill="#62628E"/>
<path d="M153.869 18.4084L152.965 18.1743L152.73 19.0767L153.635 19.3108L153.869 18.4084Z" fill="#62628E"/>
<path d="M153.482 19.8967L152.578 19.6626L152.344 20.5649L153.248 20.799L153.482 19.8967Z" fill="#62628E"/>
<path d="M153.088 21.4012L152.184 21.167L151.949 22.0693L152.853 22.3036L153.088 21.4012Z" fill="#62628E"/>
<path d="M152.701 22.8846L151.797 22.6504L151.562 23.5527L152.467 23.787L152.701 22.8846Z" fill="#62628E"/>
<path d="M152.314 24.3729L151.41 24.1387L151.176 25.041L152.08 25.2752L152.314 24.3729Z" fill="#62628E"/>
<path d="M151.936 25.842L151.031 25.6079L150.797 26.5103L151.701 26.7444L151.936 25.842Z" fill="#62628E"/>
<path d="M151.549 27.3298L150.645 27.0957L150.41 27.998L151.314 28.2321L151.549 27.3298Z" fill="#62628E"/>
<path d="M151.154 28.8339L150.25 28.5996L150.015 29.5019L150.92 29.7362L151.154 28.8339Z" fill="#62628E"/>
<path d="M150.768 30.3173L149.863 30.083L149.629 30.9853L150.533 31.2196L150.768 30.3173Z" fill="#62628E"/>
<path d="M158.145 10.3706C158.67 11.1353 159.191 11.8999 159.716 12.6646" stroke="#2A2A3F" stroke-width="0.585543" stroke-linecap="round" stroke-linejoin="round"/>
<path d="M159.699 10.0996C159.992 10.5721 160.28 11.049 160.573 11.5215" stroke="#2A2A3F" stroke-width="0.585543" stroke-linecap="round" stroke-linejoin="round"/>
<path d="M155.121 22.8364C155.427 23.5452 155.819 24.2197 156.288 24.834" stroke="#2A2A3F" stroke-width="0.585543" stroke-linecap="round" stroke-linejoin="round"/>
<path d="M156.434 22.6816C156.92 23.5838 157.407 24.4859 157.893 25.388" stroke="#2A2A3F" stroke-width="0.585543" stroke-linecap="round" stroke-linejoin="round"/>
<path d="M34.1444 68.2599C27.4066 65.0973 22.2144 62.3515 13.2852 59.958C14.1936 63.2882 15.3732 66.7989 16.7854 70.3053C17.2676 70.0002 17.8488 69.8412 18.4645 69.8885C19.9842 70.0045 21.1251 71.328 21.0089 72.8448C20.9185 74.0437 20.0703 74.9976 18.9725 75.2941C21.7279 81.1338 25.1032 86.7157 28.9651 91.1545C36.2067 99.4822 46.6686 104.269 57.6256 102.851C55.9078 88.5935 47.1637 74.3746 34.1444 68.2642V68.2599Z" fill="#CAB8F4"/>
<path d="M13.625 60.478C25.822 69.9143 39.2244 81.2327 48.4679 94.0035" stroke="#6450BC" stroke-width="0.585543" stroke-linecap="round" stroke-linejoin="round"/>
<path d="M22.6055 69.9185C24.9174 71.7361 27.2337 73.5495 29.5456 75.3628" stroke="#6450BC" stroke-width="0.585543" stroke-linecap="round" stroke-linejoin="round"/>
<path d="M15.0938 64.6201C16.7298 64.8822 18.3658 65.1485 20.0018 65.4105" stroke="#6450BC" stroke-width="0.585543" stroke-linecap="round" stroke-linejoin="round"/>
<path d="M25.2695 64.3281C25.812 66.597 26.3502 68.8658 26.8926 71.1346" stroke="#6450BC" stroke-width="0.585543" stroke-linecap="round" stroke-linejoin="round"/>
<path d="M27.5 65.3765C27.9736 67.7785 28.4472 70.1849 28.9164 72.5869" stroke="#6450BC" stroke-width="0.585543" stroke-linecap="round" stroke-linejoin="round"/>
<path d="M21.3516 79.0753C25.7645 78.7358 30.1732 78.3964 34.5861 78.0569C34.2546 74.8556 34.0996 71.8004 33.6045 68.6206" stroke="#6450BC" stroke-width="0.585543" stroke-linecap="round" stroke-linejoin="round"/>
<path d="M26.2578 87.7597C31.5404 87.3859 36.8274 87.012 42.11 86.6382C42.1401 82.1908 42.4157 78.3449 42.4501 73.8975" stroke="#6450BC" stroke-width="0.585543" stroke-linecap="round" stroke-linejoin="round"/>
<path d="M34.1328 89.6888L44.2589 88.834" stroke="#6450BC" stroke-width="0.585543" stroke-linecap="round" stroke-linejoin="round"/>
<path d="M49.0416 97.4159C43.0529 86.4928 39.0146 74.5127 37.1719 62.2017" stroke="#290E66" stroke-width="0.585543" stroke-linecap="round" stroke-linejoin="round"/>
<path d="M37.2984 57.5649C36.5708 58.0806 36.179 58.9873 36.1876 59.8768C36.1962 60.7662 36.5622 61.6256 37.1047 62.3304C38.1379 61.0713 38.0346 59.0173 37.2984 57.5649Z" fill="#290E66"/>
<path d="M33.7696 61.6816C33.761 62.5709 34.2647 63.4214 34.988 63.9369C35.7113 64.4567 36.6241 64.6629 37.5153 64.6371C37.102 63.0649 35.3798 61.9394 33.7696 61.6816Z" fill="#290E66"/>
<path d="M40.7238 62.0298C39.2858 61.9826 37.8866 63.0479 37.5508 64.4441C37.8909 64.6288 38.3516 64.4355 38.7175 64.3023C39.2772 64.1004 39.8455 63.8985 40.3148 63.5377C40.7841 63.1768 40.7324 62.6227 40.7238 62.0298Z" fill="#290E66"/>
<path d="M42.0328 64.9902C41.0814 65.0246 40.1471 65.4371 39.4841 66.1247C38.8211 66.8079 38.4379 67.7532 38.4336 68.7072C40.2246 68.1228 41.5679 66.8165 42.0328 64.9945V64.9902Z" fill="#290E66"/>
<path d="M38.2694 68.6034C37.6064 68.685 36.9261 68.7709 36.2717 68.6334C35.1481 68.4015 34.2482 67.5595 33.5508 66.6531C35.4365 66.4125 37.1974 67.0354 38.2694 68.6034Z" fill="#290E66"/>
<path d="M42.5741 69.313C42.2297 69.3302 41.9326 69.5364 41.6571 69.747C41.0672 70.1939 40.4989 70.688 40.1029 71.3111C39.7068 71.9342 39.4958 72.7034 39.6723 73.421C40.7314 73.1116 41.3944 72.394 42.0144 71.4787C42.4622 70.8213 42.587 70.1079 42.5741 69.313Z" fill="#290E66"/>
<path d="M39.4063 73.3129C37.6024 73.7812 35.5401 72.922 34.6016 71.3154C36.5433 71.0791 38.2223 71.7578 39.4063 73.3129Z" fill="#290E66"/>
<path d="M44.3355 73.1719C42.3679 73.3695 40.6803 75.1442 40.5898 77.1166C41.6231 76.9962 42.6822 76.7728 43.3496 75.9735C44.0169 75.1743 44.4044 74.2118 44.3355 73.1719Z" fill="#290E66"/>
<path d="M40.6383 76.652C39.1702 77.4424 37.1941 77.1417 36.0273 75.9518C37.7968 75.2129 39.3123 75.2688 40.6383 76.652Z" fill="#290E66"/>
<path d="M44.6709 77.5249C43.0693 77.9073 41.8423 79.4801 41.8596 81.1215C43.4181 80.4942 44.559 79.2007 44.6709 77.5249Z" fill="#290E66"/>
<path d="M42.1551 81.2798C40.4674 81.8082 38.4611 81.035 37.5742 79.5057C39.2662 79.2007 40.9926 80.0126 42.1551 81.2798Z" fill="#290E66"/>
<path d="M45.9996 81.0137C44.4454 81.3874 43.1968 82.7921 43.0117 84.373C44.8415 84.1539 46.0039 82.8523 45.9996 81.0137Z" fill="#290E66"/>
<path d="M43.4415 85.1128C43.2908 85.3362 42.9765 85.362 42.7053 85.3491C41.22 85.2589 39.782 84.5544 38.8047 83.4332C40.4665 82.8361 42.503 83.6222 43.4415 85.1128Z" fill="#290E66"/>
<path d="M46.9612 84.0303C45.3596 84.9885 44.5373 87.0726 45.0583 88.8602C45.8978 88.4949 46.4704 88.1468 46.845 87.3132C47.2195 86.4753 46.8062 84.9327 46.9655 84.0303H46.9612Z" fill="#290E66"/>
<path d="M44.8782 88.924C43.7373 87.3432 41.2746 86.9093 39.6602 88.009C41.1024 89.6243 43.2336 90.3373 44.8782 88.924Z" fill="#290E66"/>
<path d="M47.6348 94.4631C45.6027 95.3094 43.0497 94.6951 41.6289 93.0154C43.7902 92.2593 46.1882 92.6932 47.6348 94.4631Z" fill="#290E66"/>
<path d="M166.165 51.0415C158.722 54.9131 152.694 59.2875 146.667 63.649C135.017 72.0755 129.635 87.098 130.608 101.424C141.634 100.78 151.024 94.1322 156.582 84.6057C162.144 75.0792 166.755 61.9302 166.165 51.0415Z" fill="#CAB8F4"/>
<path d="M139.848 86.6382C147.692 74.2198 157.078 62.5877 166.166 51.0415" stroke="#6450BC" stroke-width="0.585543" stroke-linecap="round" stroke-linejoin="round"/>
<path d="M154.539 65.6989C154.194 63.4558 153.971 61.1956 153.867 58.9268" stroke="#6450BC" stroke-width="0.585543" stroke-linecap="round" stroke-linejoin="round"/>
<path d="M156.026 63.9671C155.828 61.8229 155.704 59.6744 155.656 57.5259" stroke="#6450BC" stroke-width="0.585543" stroke-linecap="round" stroke-linejoin="round"/>
<path d="M150.684 70.9534C154.705 69.8537 159.251 68.9215 163.384 68.376" stroke="#6450BC" stroke-width="0.585543" stroke-linecap="round" stroke-linejoin="round"/>
<path d="M161.445 57.1991C162.926 56.8554 164.407 56.516 165.888 56.1724" stroke="#6450BC" stroke-width="0.585543" stroke-linecap="round" stroke-linejoin="round"/>
<path d="M143.922 66.2271C144.176 70.06 145.201 74.0863 145.661 77.8978C150.651 76.8364 155.495 76.497 160.583 76.8751" stroke="#6450BC" stroke-width="0.585543" stroke-linecap="round" stroke-linejoin="round"/>
<path d="M142.055 68.6636C142.309 72.4965 143.333 76.5229 143.794 80.3343C148.784 79.273 153.627 78.9335 158.716 79.3116" stroke="#6450BC" stroke-width="0.585543" stroke-linecap="round" stroke-linejoin="round"/>
<path d="M155.207 83.5057C158.578 77.1203 161.51 70.5072 163.973 63.7222" stroke="#6450BC" stroke-width="0.585543" stroke-linecap="round" stroke-linejoin="round"/>
<path d="M164.184 62.5829C164.463 62.162 164.64 61.6765 164.696 61.1782" stroke="#6450BC" stroke-width="0.585543" stroke-linecap="round" stroke-linejoin="round"/>
<path d="M159.993 81.7095C154.237 82.3025 148.675 84.6701 144.262 88.4086C141.407 90.8235 138.953 93.9646 138.32 97.6429C143.469 98.7129 148.61 97.7503 152.967 94.8069C157.324 91.8634 159.085 86.8788 159.998 81.7095H159.993Z" fill="#AE9BEA"/>
<path d="M138.469 97.411C145.026 91.6529 152.526 86.2344 159.995 81.7139" stroke="#6450BC" stroke-width="0.585543" stroke-linecap="round" stroke-linejoin="round"/>
<path d="M153.699 85.8862C155.378 85.9378 157.057 86.0709 158.724 86.2857" stroke="#6450BC" stroke-width="0.585543" stroke-linecap="round" stroke-linejoin="round"/>
<path d="M152.529 83.6904C151.952 84.9108 151.44 86.1612 150.996 87.4331C153.196 87.8199 155.53 88.4258 157.712 88.907" stroke="#6450BC" stroke-width="0.585543" stroke-linecap="round" stroke-linejoin="round"/>
<path d="M147.635 86.4102C147.191 87.8067 146.748 89.2032 146.309 90.5998C149.025 91.3861 151.652 92.2498 154.256 93.3499" stroke="#6450BC" stroke-width="0.585543" stroke-linecap="round" stroke-linejoin="round"/>
<path d="M142.805 93.8228C145.293 94.5359 147.782 95.249 150.27 95.9578" stroke="#6450BC" stroke-width="0.585543" stroke-linecap="round" stroke-linejoin="round"/>
<path d="M138.703 98.395C143.224 82.6979 147.365 64.1605 148.937 47.9048" stroke="#290E66" stroke-width="0.585543" stroke-linecap="round" stroke-linejoin="round"/>
<path d="M150.303 38.6831C148.047 41.0937 147.431 44.888 148.804 47.8874C150.858 45.5412 151.616 41.5106 150.303 38.6831Z" fill="#290E66"/>
<path d="M153.938 43.9815C151.553 43.9686 149.297 45.8464 148.875 48.1883C150.158 48.3344 151.501 48.068 152.513 47.2687C153.52 46.4652 153.796 45.262 153.938 43.9815Z" fill="#290E66"/>
<path d="M148.197 53.7184C145.627 52.816 143.767 50.0187 143.801 47.1182C146.397 48.0205 147.986 50.8007 148.197 53.7184Z" fill="#290E66"/>
<path d="M153.97 50.0273C151.679 50.1219 149.475 51.4407 148.312 53.4124C150.672 53.7303 152.79 52.0936 153.97 50.0273Z" fill="#290E66"/>
<path d="M141.642 87.1837C139.072 86.2814 137.212 83.484 137.247 80.5835C139.843 81.4859 141.431 84.2661 141.642 87.1837Z" fill="#290E66"/>
<path d="M147.415 83.4927C145.125 83.5872 142.92 84.906 141.758 86.8778C144.117 87.1956 146.235 85.5589 147.415 83.4927Z" fill="#290E66"/>
<path d="M140.025 93.3156C137.455 92.4132 135.595 89.6158 135.629 86.7153C138.225 87.6177 139.814 90.3979 140.025 93.3156Z" fill="#290E66"/>
<path d="M145.798 89.6245C143.507 89.719 141.303 91.0378 140.141 93.0096C142.5 93.3275 144.618 91.6908 145.798 89.6245Z" fill="#290E66"/>
<path d="M147.499 58.7458C145.2 58.2559 143.288 56.2879 142.875 53.9761C145.114 54.6808 147.055 56.4469 147.499 58.7458Z" fill="#290E66"/>
<path d="M153.656 56.4126C152.563 55.91 151.271 55.8499 150.134 56.2537C148.998 56.6575 148.033 57.5166 147.504 58.5949C148.709 59.1834 149.889 59.2908 151.12 58.7581C152.352 58.2254 152.808 57.4522 153.656 56.4126Z" fill="#290E66"/>
<path d="M146.525 64.0612C144.269 63.6744 142.397 61.6677 142.164 59.3946C143.438 59.0981 144.687 59.5364 145.402 60.6321C146.116 61.7279 146.301 62.7678 146.521 64.0569L146.525 64.0612Z" fill="#290E66"/>
<path d="M153.127 62.132C152.206 61.3072 150.781 61.2298 149.627 61.6809C148.473 62.132 147.556 63.0298 146.781 63.9963C147.922 64.4946 149.089 64.7008 150.26 64.2884C151.435 63.876 152.546 63.236 153.123 62.132H153.127Z" fill="#290E66"/>
<path d="M145.746 68.3843C145.428 68.7066 144.881 68.5648 144.476 68.3585C142.81 67.512 141.579 65.8663 141.234 64.0357C142.44 63.9627 143.555 64.633 144.27 65.6041C144.984 66.5753 145.268 67.28 145.746 68.3843Z" fill="#290E66"/>
<path d="M152.002 66.5239C150.978 66.4852 149.927 66.4508 148.946 66.7558C147.477 67.2112 146.306 68.4011 145.656 69.7887C147.417 70.0163 149.187 69.6383 150.56 68.5128C150.935 68.2078 151.275 67.8598 151.602 67.5076C151.718 67.383 152.02 66.6957 152.002 66.5282V66.5239Z" fill="#290E66"/>
<path d="M144.314 75.4703C141.594 74.8601 139.574 72.0154 139.897 69.2524C142.386 70.5244 143.707 72.7502 144.314 75.4703Z" fill="#290E66"/>
<path d="M151.068 71.7273C148.356 71.3448 145.488 73.0336 144.52 75.5946C147.417 76.2435 149.983 74.486 151.068 71.7273Z" fill="#290E66"/>
<path d="M143.169 81.1851C140.901 80.9101 138.972 78.8819 138.812 76.6045C139.622 76.7506 140.565 76.9139 141.189 77.4467C142.313 78.405 142.674 79.7929 143.169 81.1808V81.1851Z" fill="#290E66"/>
<path d="M150.246 77.2707C147.512 77.1074 144.739 78.5684 143.336 80.9189C145.239 81.2369 147.336 80.6654 148.782 79.3934C149.419 78.8305 150.087 78.1043 150.246 77.2707Z" fill="#290E66"/>
<path d="M34.5938 118.2L48.1038 98.8247H140.294L153.868 118.2H34.5938Z" fill="#9F9FC9"/>
<path opacity="0.62" d="M82.6395 111.643H104.687L107.486 115.429L81.0078 115.644L82.6395 111.643Z" fill="#473D84"/>
<path d="M34.5938 118.2C34.5938 121.006 36.2513 123.378 38.292 123.378H150.17C152.215 123.378 153.868 121.006 153.868 118.2" fill="#473D84"/>
<path opacity="0.62" d="M50.6767 101.867H137.653L143.06 110.186H45.4414L50.6767 101.867Z" fill="#473D84"/>
<path d="M45.6758 107.406H142.976" stroke="#9F9FC9" stroke-width="0.585543" stroke-miterlimit="10"/>
<path d="M45.6758 104.544H142.976" stroke="#9F9FC9" stroke-width="0.585543" stroke-miterlimit="10"/>
<path d="M149.108 116.645H131.172" stroke="#6969A3" stroke-width="0.585543" stroke-linecap="round" stroke-linejoin="round"/>
<path d="M126.867 116.645H128.873" stroke="#6969A3" stroke-width="0.585543" stroke-linecap="round" stroke-linejoin="round"/>
<path d="M42.4805 116.645H57.4716" stroke="#6969A3" stroke-width="0.585543" stroke-linecap="round" stroke-linejoin="round"/>
<path d="M55.0772 37.6851H132.922C136.848 37.6851 140.034 40.8649 140.034 44.7838V99.0898H47.9648V44.7838C47.9648 40.8649 51.1508 37.6851 55.0772 37.6851Z" fill="black"/>
<path d="M135.926 44.5189V94.472H52.5878V44.5189C52.5878 43.0063 53.8191 41.7773 55.3346 41.7773L133.179 41.7773C134.694 41.7773 135.926 43.0063 135.926 44.5189Z" fill="#4109A5"/>
<path d="M92.727 48.9575H61.4102V56.8942H92.727V48.9575Z" fill="#5526BC"/>
<path d="M72.4275 63.3442H61.4102V73.8505H72.4275V63.3442Z" fill="#5526BC"/>
<path d="M92.6294 59.3779H76.8203V73.8461H92.6294V59.3779Z" fill="#5526BC"/>
<path d="M131.003 48.9575H98.9414V74.8945H131.003V48.9575Z" fill="#190051"/>
<path d="M112.09 58.4839V65.3677L117.855 62.2094L112.09 58.4839Z" fill="#CAB8F4"/>
<path d="M69.1779 78.5386H61.9062V81.5156H69.1779V78.5386Z" fill="#5526BC"/>
<path d="M131.061 78.5386H70.8516V81.5156H131.061V78.5386Z" fill="#5526BC"/>
<path d="M85.8614 78.5386H70.668V81.5156H85.8614V78.5386Z" fill="#CAB8F4"/>
<path d="M69.1779 83.2354H61.9062V86.2123H69.1779V83.2354Z" fill="#5526BC"/>
<path d="M131.061 83.2354H70.8516V86.2123H131.061V83.2354Z" fill="#5526BC"/>
<path d="M116.907 83.2354H82.8477V86.2123H116.907V83.2354Z" fill="#CAB8F4"/>
<path d="M69.1779 87.936H61.9062V90.913H69.1779V87.936Z" fill="#5526BC"/>
<path d="M131.061 87.936H70.8516V90.913H131.061V87.936Z" fill="#5526BC"/>
<path d="M107.915 87.936H93.9961V90.913H107.915V87.936Z" fill="#CAB8F4"/>
<path opacity="0.62" d="M94.2595 40.4449C94.7351 40.4449 95.1206 40.0602 95.1206 39.5857C95.1206 39.1112 94.7351 38.7266 94.2595 38.7266C93.7839 38.7266 93.3984 39.1112 93.3984 39.5857C93.3984 40.0602 93.7839 40.4449 94.2595 40.4449Z" fill="#473D84"/>
<path opacity="0.06" d="M56.2266 94.3256L107.387 41.6138L117.181 41.6481C117.181 41.6481 85.0679 76.9226 67.5625 94.3213H56.2266V94.3256Z" fill="white"/>
<path opacity="0.06" d="M70.1801 94.3256C88.4217 76.5788 103.103 59.3606 121.34 41.6138L123.958 41.6481L74.339 94.3213H70.1758L70.1801 94.3256Z" fill="white"/>
<path d="M45.2952 22.8276H92.4298C93.8161 22.8276 94.9398 23.9492 94.9398 25.3328V58.824C94.9398 60.7963 93.3382 62.3948 91.362 62.3948H46.3629C44.3867 62.3948 42.7852 60.7963 42.7852 58.824V25.3328C42.7852 23.9492 43.9088 22.8276 45.2952 22.8276Z" fill="#C0B9EF"/>
<path d="M45.2952 22.8276H92.4298C93.8161 22.8276 94.9398 23.9492 94.9398 25.3328V27.5544H42.7852V25.3328C42.7852 23.9492 43.9088 22.8276 45.2952 22.8276Z" fill="#4109A5"/>
<path d="M46.3134 25.191C46.3134 25.5303 46.0378 25.8053 45.6977 25.8053C45.3576 25.8053 45.082 25.5303 45.082 25.191C45.082 24.8516 45.3576 24.5767 45.6977 24.5767C46.0378 24.5767 46.3134 24.8516 46.3134 25.191Z" fill="black"/>
<path d="M48.8032 25.8053C49.1432 25.8053 49.4188 25.5302 49.4188 25.191C49.4188 24.8517 49.1432 24.5767 48.8032 24.5767C48.4631 24.5767 48.1875 24.8517 48.1875 25.191C48.1875 25.5302 48.4631 25.8053 48.8032 25.8053Z" fill="white"/>
<path d="M52.1743 25.8053C52.5143 25.8053 52.7899 25.5302 52.7899 25.191C52.7899 24.8517 52.5143 24.5767 52.1743 24.5767C51.8342 24.5767 51.5586 24.8517 51.5586 25.191C51.5586 25.5302 51.8342 25.8053 52.1743 25.8053Z" fill="#CAB8F4"/>
<path d="M48.0677 56.207H45.0195V59.2485H48.0677V56.207Z" fill="#4109A5"/>
<path d="M46.1719 58.2481V57.2085" stroke="white" stroke-width="0.374748" stroke-miterlimit="10"/>
<path d="M46.9141 58.2481V57.2085" stroke="white" stroke-width="0.374748" stroke-miterlimit="10"/>
<path d="M90.9697 56.9849H49.0273V58.6602H90.9697V56.9849Z" fill="#E5DCFF"/>
<path d="M66.4553 56.9849H49.0273V58.6602H66.4553V56.9849Z" fill="#4109A5"/>
<path d="M93.8242 32.2812V45.9244" stroke="#9989CE" stroke-width="0.585543" stroke-linecap="round" stroke-linejoin="round"/>
<path d="M93.8242 29.4883V30.85" stroke="#9989CE" stroke-width="0.585543" stroke-linecap="round" stroke-linejoin="round"/>
<path d="M50.5898 61.5015H66.9759" stroke="#9989CE" stroke-width="0.585543" stroke-linecap="round" stroke-linejoin="round"/>
<path d="M72.4699 50.2325C76.4733 48.5986 78.3916 44.035 76.7546 40.0393C75.1176 36.0436 70.5451 34.129 66.5417 35.7628C62.5383 37.3967 60.62 41.9603 62.257 45.956C63.8941 49.9517 68.4665 51.8664 72.4699 50.2325Z" fill="#4109A5"/>
<path d="M67.1211 46.0141V39.9854L72.7654 42.4519L67.1211 46.0141Z" fill="white"/>
<path d="M63.9258 39.7009C64.86 37.5959 67.2064 36.2084 69.5055 36.4017" stroke="#9989CE" stroke-width="0.585543" stroke-linecap="round" stroke-linejoin="round"/>
</g>
<defs>
<clipPath id="clip0_652_4719">
<rect width="168.049" height="137.643" fill="white" transform="translate(0.429688 0.199707)"/>
</clipPath>
</defs>
</svg>
