<svg width="125" height="117" viewBox="0 0 125 117" fill="none" xmlns="http://www.w3.org/2000/svg">
<g style="mix-blend-mode:multiply" opacity="0.57">
<path d="M96.3788 14.042C96.3788 13.3338 95.8035 12.7598 95.0937 12.7598C94.3839 12.7598 93.8086 13.3338 93.8086 14.042C93.8086 14.7502 94.3839 15.3242 95.0937 15.3242C95.8035 15.3242 96.3788 14.7502 96.3788 14.042Z" fill="#1D274A"/>
<path d="M95.0944 14.0425V21.0968C95.0944 21.9842 94.3734 22.7038 93.4843 22.7038H91.5156" stroke="#1D274A" stroke-width="0.503567" stroke-miterlimit="10"/>
<path d="M28.9427 4.09859C29.9661 4.09859 30.7957 3.27061 30.7957 2.24925C30.7957 1.22788 29.9661 0.399902 28.9427 0.399902C27.9194 0.399902 27.0898 1.22788 27.0898 2.24925C27.0898 3.27061 27.9194 4.09859 28.9427 4.09859Z" fill="#4E96E6"/>
<path d="M30.793 2.24902H57.152C58.0411 2.24902 58.7621 2.96863 58.7621 3.85601V5.70163" stroke="#4E96E6" stroke-width="0.503567" stroke-miterlimit="10"/>
<path d="M6.68344 77.897C6.68344 77.1888 6.10814 76.6147 5.39836 76.6147C4.68858 76.6147 4.11328 77.1888 4.11328 77.897C4.11328 78.6052 4.68858 79.1792 5.39836 79.1792C6.10814 79.1792 6.68344 78.6052 6.68344 77.897Z" fill="#1D274A"/>
<path d="M5.39844 77.8975V88.1583C5.39844 89.3999 6.40708 90.4104 7.6548 90.4104H33.0463" stroke="#1D274A" stroke-width="0.503567" stroke-miterlimit="10"/>
</g>
<path d="M81.5159 5.87354H38.0398C34.8357 5.87354 32.2383 8.46598 32.2383 11.6639V107.748C32.2383 110.946 34.8357 113.538 38.0398 113.538H81.5159C84.7199 113.538 87.3174 110.946 87.3174 107.748V11.6639C87.3174 8.46598 84.7199 5.87354 81.5159 5.87354Z" fill="#D6E4FF"/>
<path d="M81.5159 5.87354H38.0398C34.8357 5.87354 32.2383 8.46598 32.2383 11.6639V107.748C32.2383 110.946 34.8357 113.538 38.0398 113.538H81.5159C84.7199 113.538 87.3174 110.946 87.3174 107.748V11.6639C87.3174 8.46598 84.7199 5.87354 81.5159 5.87354Z" fill="url(#paint0_linear_652_4243)"/>
<path d="M36.793 12.9761H41.2945" stroke="#0E1535" stroke-width="0.626531" stroke-miterlimit="10"/>
<path d="M36.793 14.4712H41.2945" stroke="#0E1535" stroke-width="0.626531" stroke-miterlimit="10"/>
<path d="M36.793 15.9697H41.2945" stroke="#0E1535" stroke-width="0.626531" stroke-miterlimit="10"/>
<path d="M80.7695 16.1073L82.4095 14.471L80.7695 12.8384" stroke="#01003B" stroke-width="0.626531" stroke-miterlimit="10"/>
<path d="M32.0625 102.416V107.345C32.0625 110.883 34.9353 113.751 38.4804 113.751H81.3886C84.9338 113.751 87.8066 110.883 87.8066 107.345V102.416H32.0625Z" fill="#1D274A"/>
<g opacity="0.56">
<path d="M53.7539 109.94C53.7539 110.224 53.9855 110.358 54.2694 110.358C54.5533 110.358 54.785 110.224 54.785 109.94" stroke="white" stroke-width="0.421591" stroke-miterlimit="10"/>
<path d="M52.8235 109.478C52.775 109.728 52.7227 109.881 52.7227 109.881H55.7523C55.7523 109.881 55.7112 109.743 55.6627 109.478H52.8235Z" stroke="white" stroke-width="0.421591" stroke-miterlimit="10"/>
<path d="M52.8594 109.283H55.635C55.6014 109.049 55.5715 108.743 55.5603 108.366C55.5416 107.751 55.1307 107.233 54.5629 107.092C54.5591 106.872 54.4321 106.693 54.2752 106.693C54.1183 106.693 53.9988 106.861 53.9876 107.073C53.3749 107.192 52.8967 107.725 52.9229 108.366C52.9378 108.713 52.9042 109.03 52.8631 109.283H52.8594Z" stroke="white" stroke-width="0.421591" stroke-miterlimit="10"/>
<path d="M64.914 108.109C64.7758 107.744 64.7235 107.349 64.9962 107.096C65.3324 106.753 65.9824 107.092 66.2178 107.394C66.4531 107.088 67.0956 106.742 67.4356 107.081C67.712 107.33 67.6635 107.726 67.529 108.095C67.1816 109.041 66.2215 109.511 66.2215 109.511C66.2215 109.511 65.2689 109.053 64.9103 108.109H64.914Z" stroke="white" stroke-width="0.421591" stroke-miterlimit="10"/>
<path d="M79.3597 109.541L78.5528 109C78.6798 108.732 78.7396 108.426 78.706 108.109C78.6051 107.196 77.7758 106.532 76.8605 106.633C75.9453 106.734 75.2803 107.561 75.3812 108.474C75.4821 109.388 76.3114 110.051 77.2266 109.951C77.6488 109.906 78.0186 109.701 78.2838 109.406L79.0908 109.947C79.1393 109.98 79.1991 109.992 79.2514 109.988C79.3186 109.98 79.3859 109.943 79.427 109.88C79.5017 109.768 79.4718 109.615 79.3597 109.541ZM77.193 109.652C76.4421 109.734 75.7623 109.19 75.6801 108.441C75.5979 107.692 76.1433 107.013 76.8942 106.931C77.645 106.849 78.3249 107.394 78.4071 108.143C78.4445 108.471 78.3586 108.788 78.1905 109.041C78.1905 109.041 78.1867 109.041 78.183 109.049C78.183 109.049 78.183 109.049 78.183 109.052C77.9663 109.377 77.6114 109.608 77.193 109.652Z" fill="white"/>
<path d="M44.5677 108.289V110.242H41.6016V108.289" stroke="white" stroke-width="0.421591" stroke-miterlimit="10"/>
<path d="M40.9883 108.821L43.084 106.73L45.1797 108.821" stroke="white" stroke-width="0.421591" stroke-miterlimit="10"/>
<path d="M43.0981 109.001C43.3297 109.001 43.5165 109.187 43.5165 109.418V110.235H42.6797V109.418C42.6797 109.187 42.8665 109.001 43.0981 109.001Z" stroke="white" stroke-width="0.421591" stroke-miterlimit="10"/>
</g>
<g opacity="0.25">
<path d="M54.9023 42.2783H56.1912" stroke="white" stroke-width="0.503567" stroke-miterlimit="10"/>
<path d="M58.668 42.2783H63.2554C64.3238 42.2783 65.1905 43.1433 65.1905 44.2097V55.1566" stroke="white" stroke-width="0.503567" stroke-miterlimit="10"/>
<path d="M65.1875 56.3945V57.6805" stroke="white" stroke-width="0.503567" stroke-miterlimit="10"/>
</g>
<path opacity="0.25" d="M71.3008 61.8532V27.521" stroke="white" stroke-width="0.462579" stroke-miterlimit="10"/>
<path opacity="0.25" d="M44.6172 51.585V78.8591H52.9739" stroke="white" stroke-width="0.462579" stroke-miterlimit="10"/>
<path d="M64.8433 34.6541L63.1772 34.0799C63.0166 34.024 63.0203 33.7965 63.181 33.7481L66.8531 32.6109C66.9914 32.5698 67.1184 32.6966 67.0698 32.8346L65.8333 36.5034C65.781 36.6638 65.5494 36.6638 65.5008 36.5034L64.9517 34.7697C64.9367 34.7175 64.8956 34.6765 64.8433 34.6578V34.6541Z" fill="white"/>
<g style="mix-blend-mode:multiply" filter="url(#filter0_d_652_4243)">
<path d="M50.3939 32.9761H42.2724C39.4253 32.9761 37.1172 35.2797 37.1172 38.1214V46.4397C37.1172 49.2814 39.4253 51.5851 42.2724 51.5851H50.3939C53.241 51.5851 55.5491 49.2814 55.5491 46.4397V38.1214C55.5491 35.2797 53.241 32.9761 50.3939 32.9761Z" fill="#1D274A"/>
<path d="M41.6366 41.6264L41.3378 41.9881C41.2556 42.0888 41.2631 42.2379 41.3564 42.3274C41.6478 42.6145 41.9766 42.8494 42.3427 43.0283C42.4585 43.0843 42.6004 43.047 42.6714 42.9351L42.9217 42.5324C42.9815 42.4392 43.0935 42.3908 43.2019 42.4243C43.3849 42.4765 43.5717 42.5101 43.7585 42.525C43.8594 42.5324 43.9416 42.6033 43.9714 42.6965L44.1358 43.2148C44.1732 43.3304 44.2852 43.4012 44.4048 43.39C44.8194 43.3453 45.2266 43.2297 45.6002 43.0507C45.7123 42.9985 45.772 42.868 45.7347 42.7487L45.5853 42.2715C45.5516 42.1708 45.5853 42.0589 45.6749 41.9955C45.7534 41.9396 45.8281 41.88 45.8991 41.8166C45.9663 41.7569 46.0298 41.6935 46.0933 41.6264C46.1643 41.5518 46.2726 41.5295 46.3698 41.5668L46.8554 41.7644C46.9712 41.8128 47.102 41.7681 47.1655 41.6637C47.3859 41.3132 47.5502 40.9255 47.6436 40.519C47.6735 40.396 47.61 40.273 47.4942 40.2282L47.0198 40.0381C46.9226 39.9971 46.8591 39.9038 46.8629 39.7994C46.8703 39.5981 46.8629 39.4005 46.8255 39.1992C46.8068 39.0873 46.8666 38.9754 46.9712 38.9307L47.3971 38.7405C47.5166 38.6883 47.5764 38.5504 47.5316 38.4236C47.3933 38.0359 47.1916 37.6742 46.9338 37.3498C46.8591 37.2566 46.7321 37.2268 46.6275 37.2752L46.1157 37.5176C46.0298 37.5586 45.9252 37.5474 45.8505 37.4878C45.7085 37.3685 45.5591 37.2641 45.4022 37.1783C45.3051 37.1224 45.2565 37.0105 45.2827 36.9024L45.3947 36.4438C45.4246 36.317 45.3536 36.1902 45.2304 36.1455C44.8419 36.0113 44.4272 35.9442 44.0163 35.9404C43.893 35.9404 43.7884 36.0262 43.766 36.1455L43.6651 36.6712C43.6464 36.7719 43.568 36.8502 43.4709 36.8688C43.2878 36.9024 43.1122 36.9546 42.9366 37.0254C42.8358 37.0664 42.72 37.0329 42.6527 36.9509L42.3389 36.5705C42.2568 36.4736 42.1148 36.4512 42.0102 36.5184C41.8384 36.6265 41.6777 36.7495 41.5246 36.8837C41.3714 37.0217 41.2257 37.1708 41.0987 37.3312C41.0165 37.4318 41.024 37.5735 41.1136 37.6667L41.4536 38.0172C41.5283 38.0955 41.547 38.2148 41.4947 38.308C41.3975 38.487 41.3191 38.6734 41.2631 38.8673C41.2332 38.9717 41.136 39.0463 41.024 39.0463H40.5383C40.4113 39.0463 40.303 39.147 40.288 39.2737C40.2432 39.6801 40.2656 40.094 40.3553 40.4892C40.3814 40.6123 40.4972 40.698 40.628 40.6868L41.1174 40.6384C41.2257 40.6272 41.3303 40.6868 41.3714 40.7875C41.4498 40.9739 41.547 41.1492 41.6665 41.3207C41.73 41.4139 41.7263 41.5369 41.6553 41.6227L41.6366 41.6264ZM42.0812 39.5273C42.5743 37.1298 45.7011 37.3163 45.9103 39.751C45.9103 39.7771 45.9103 39.8032 45.9065 39.8293C45.4134 42.223 42.2866 42.0403 42.0774 39.6056C42.0774 39.5795 42.0774 39.5534 42.0812 39.5273Z" fill="white"/>
<path d="M46.5364 46.2497L46.2936 46.5405C46.2263 46.6225 46.2338 46.7419 46.3085 46.8164C46.5401 47.0476 46.8091 47.2378 47.1005 47.3832C47.1939 47.4279 47.3097 47.3981 47.3657 47.3086L47.5674 46.9842C47.616 46.9096 47.7057 46.8724 47.7916 46.8947C47.9373 46.9357 48.0867 46.9656 48.2399 46.9768C48.3183 46.9842 48.3856 47.0401 48.4117 47.1147L48.5462 47.5323C48.5761 47.6255 48.6657 47.6814 48.7629 47.674C49.0953 47.6367 49.4241 47.5435 49.7267 47.4018C49.8201 47.3571 49.8649 47.2527 49.835 47.1557L49.7155 46.7717C49.6893 46.6897 49.7155 46.6002 49.7864 46.5517C49.8499 46.507 49.9097 46.4585 49.9658 46.4063C50.0218 46.3578 50.0741 46.3056 50.1227 46.2534C50.1787 46.1938 50.2683 46.1751 50.3468 46.205L50.7353 46.3653C50.8287 46.4026 50.9333 46.3653 50.9856 46.2833C51.1649 45.9999 51.2957 45.6867 51.3704 45.3623C51.3928 45.2654 51.3405 45.1647 51.2471 45.1274L50.8623 44.9745C50.7839 44.9447 50.7316 44.8664 50.7353 44.7807C50.7428 44.6203 50.7353 44.4563 50.7054 44.2997C50.6905 44.2102 50.739 44.1207 50.8212 44.0834L51.1649 43.9306C51.262 43.8858 51.3069 43.7777 51.2732 43.677C51.1612 43.3638 51.0005 43.073 50.7913 42.812C50.7316 42.7374 50.6307 42.7113 50.5448 42.7523L50.1339 42.9462C50.0629 42.9798 49.9807 42.9723 49.9209 42.9201C49.8088 42.8232 49.6856 42.7412 49.5586 42.6703C49.4801 42.6256 49.4428 42.5361 49.4614 42.4466L49.5511 42.0775C49.5772 41.9768 49.5175 41.8724 49.4203 41.8389C49.1065 41.7307 48.7741 41.6748 48.4416 41.6748C48.3445 41.6748 48.2585 41.7419 48.2399 41.8389L48.1577 42.2602C48.1427 42.3385 48.0792 42.4056 48.0008 42.4205C47.8551 42.4466 47.7094 42.4914 47.5712 42.5473C47.489 42.5808 47.3993 42.5547 47.3433 42.4876L47.0893 42.1819C47.0258 42.1036 46.91 42.0849 46.824 42.1409C46.6858 42.2266 46.5551 42.3273 46.4318 42.4354C46.3085 42.5473 46.1927 42.6666 46.0881 42.7971C46.0246 42.8754 46.0283 42.9947 46.0993 43.0655L46.3757 43.3452C46.4355 43.4086 46.4505 43.5055 46.4094 43.5801C46.3309 43.7255 46.2674 43.8746 46.2226 44.0312C46.1964 44.117 46.118 44.1729 46.0321 44.1766H45.6398C45.5352 44.1766 45.4493 44.2587 45.4381 44.3593C45.4045 44.6874 45.4231 45.0193 45.4941 45.3399C45.5165 45.4406 45.6099 45.5077 45.7108 45.5003L46.103 45.463C46.189 45.4555 46.2749 45.504 46.3085 45.5823C46.372 45.7314 46.4505 45.8768 46.5476 46.0111C46.5999 46.0856 46.5962 46.1863 46.5364 46.2534V46.2497ZM46.895 44.5569C47.291 42.6256 49.8126 42.7747 49.9807 44.7359C49.9807 44.7583 49.9807 44.7807 49.977 44.7993C49.581 46.7307 47.0594 46.5815 46.8913 44.6166C46.8913 44.5942 46.8913 44.5719 46.8913 44.5532L46.895 44.5569Z" fill="#A2B4E8"/>
</g>
<g style="mix-blend-mode:multiply" filter="url(#filter1_d_652_4243)">
<path d="M87.4948 19.2329H39.4612C37.2433 19.2329 35.4453 21.0274 35.4453 23.2411V23.8861C35.4453 26.0997 37.2433 27.8943 39.4612 27.8943H87.4948C89.7127 27.8943 91.5106 26.0997 91.5106 23.8861V23.2411C91.5106 21.0274 89.7127 19.2329 87.4948 19.2329Z" fill="#1D274A"/>
<path d="M41.1914 24.8481H78.4811" stroke="#FFE3A1" stroke-width="0.503567" stroke-miterlimit="10"/>
<path d="M82.4141 25.0121C82.4589 25.0793 82.5299 25.1203 82.6046 25.1277C82.6644 25.1352 82.7279 25.1203 82.7802 25.083L83.6581 24.4939C83.9457 24.8145 84.3492 25.0345 84.8124 25.0867C85.8136 25.1948 86.7139 24.4752 86.826 23.476C86.9343 22.4767 86.2133 21.5782 85.2121 21.4663C84.211 21.3582 83.3107 22.0778 83.1986 23.077C83.1612 23.4238 83.2247 23.7556 83.363 24.0502L82.4813 24.6393C82.3581 24.7213 82.3282 24.8854 82.4066 25.0084L82.4141 25.0121ZM83.7739 24.1098C83.7739 24.1098 83.7739 24.1061 83.7739 24.1024C83.7739 24.1024 83.7702 24.0987 83.7664 24.0949C83.5834 23.8153 83.49 23.4723 83.5311 23.1143C83.6207 22.294 84.3604 21.7012 85.1822 21.7944C86.0041 21.8839 86.5981 22.6222 86.5047 23.4424C86.415 24.2627 85.6754 24.8555 84.8535 24.7661C84.3978 24.7176 84.013 24.464 83.7739 24.1136V24.1098Z" fill="#FFE3A1"/>
</g>
<g filter="url(#filter2_d_652_4243)">
<path d="M77.6294 79.0193C80.5254 72.2197 77.3503 64.3644 70.5376 61.474C63.725 58.5835 55.8545 61.7525 52.9585 68.5521C50.0625 75.3516 53.2376 83.2069 60.0503 86.0974C66.8629 88.9878 74.7333 85.8189 77.6294 79.0193Z" stroke="#FFE3A1" stroke-width="4.03439" stroke-miterlimit="10"/>
<path d="M65.2943 87.1552C72.6947 87.1552 78.698 81.1673 78.698 73.7773C78.698 66.3874 72.6985 60.3994 65.2943 60.3994C57.8902 60.3994 51.8906 66.3874 51.8906 73.7773" stroke="#1D274A" stroke-width="4.03439" stroke-miterlimit="10" stroke-linecap="round"/>
<path d="M71.9001 74.2251C72.4792 70.5936 69.9987 67.1782 66.3601 66.6003C62.7215 66.0224 59.2996 68.4981 58.7206 72.1297C58.1416 75.7613 60.6221 79.1766 64.2606 79.7545C67.8992 80.3324 71.3211 77.8567 71.9001 74.2251Z" fill="#FFE3A1"/>
<path d="M65.332 73.0317L70.8646 68.7663C69.8634 67.342 68.3094 66.3092 66.4527 66.0146L65.332 73.0317Z" fill="#B0C9FF"/>
<path d="M66.3543 66.6003C62.7158 66.0224 59.2939 68.4981 58.7148 72.1297L65.327 73.032L66.3543 66.6003Z" fill="#231D4A"/>
</g>
<path d="M26.4159 39.9636L25.4783 34.0762C25.553 33.4685 24.4547 32.0144 23.9205 31.7086C22.4598 30.8735 20.6555 30.7541 19.0081 31.0934C13.6361 32.2083 15.885 40.2507 15.885 40.2507" fill="#1E2D4D"/>
<path d="M19.6386 36.0897C19.6386 36.1718 19.5751 36.2389 19.4967 36.2389C19.1567 36.2389 18.376 36.1643 18.2639 37.0517C18.1518 37.9465 19.0073 38.4499 19.5191 38.476C19.6685 38.4834 20.0085 38.5133 20.1093 38.6251C20.4194 38.9607 20.5651 39.6952 20.8005 40.6087C21.3272 42.6258 19.7358 43.5505 19.7358 43.5505C19.7358 43.5505 25.033 46.1493 24.9844 43.543C24.9844 43.543 24.566 38.7482 24.5922 38.7258C25.0068 38.3119 26.6132 38.1367 25.6008 34.7176C24.6669 31.5521 22.3396 31.7758 21.7456 31.884C21.245 31.9735 19.5154 32.0816 19.6349 36.0972L19.6386 36.0897Z" fill="#EBB6A3"/>
<path d="M18.6484 37.3049C18.6484 37.3049 19.1826 36.183 19.8551 37.6851L18.6484 37.3049Z" fill="#E28765"/>
<path d="M22.582 36.093C23.0228 36.0819 23.3851 36.4322 23.3964 36.8683C23.4076 37.3044 23.0564 37.6697 22.6193 37.6809C22.1785 37.6921 21.8162 37.3417 21.8049 36.9056C21.7937 36.4658 22.1449 36.1042 22.582 36.093Z" fill="#E7A286"/>
<path d="M25.9001 36.3911C25.534 36.3241 25.2576 36.011 25.2463 35.627C25.2389 35.3326 25.3958 35.0679 25.6349 34.9263C25.6349 34.9263 25.9748 35.8059 25.9001 36.3874V36.3911Z" fill="#E7A286"/>
<path d="M25.2297 35.9814L24.0156 36.5853C24.0156 36.5853 24.6096 37.0177 24.9309 36.7791C25.2521 36.5406 25.2297 35.9814 25.2297 35.9814Z" fill="white"/>
<path d="M24.3008 35.1016L24.4913 35.9663L24.9134 35.78C24.9919 35.7464 25.0031 35.642 24.9359 35.5899L24.3008 35.1016Z" fill="#E28765"/>
<path d="M22.7432 34.7769C22.6386 34.9222 22.6983 34.4116 22.8702 34.2923C23.042 34.173 23.2662 34.1991 23.367 34.3482C23.367 34.3482 22.9934 34.4228 22.7394 34.7731L22.7432 34.7769Z" fill="black"/>
<path d="M25.0329 33.9119C25.2085 33.9604 24.8387 33.5988 24.6295 33.6137C24.4203 33.6286 24.2634 33.7889 24.2783 33.9678C24.2783 33.9678 24.6145 33.7926 25.0329 33.9082V33.9119Z" fill="black"/>
<path d="M23.4393 35.4146C23.499 35.56 23.6034 35.6532 23.6704 35.6271C23.7413 35.5973 23.7487 35.4594 23.6928 35.314C23.6332 35.1686 23.5288 35.0754 23.4617 35.1015C23.3909 35.1314 23.3834 35.2693 23.4393 35.4146Z" fill="black"/>
<path d="M24.5647 34.8813C24.6206 35.0192 24.7212 35.1087 24.7883 35.0826C24.8554 35.0565 24.8629 34.9223 24.807 34.7844C24.751 34.6465 24.6504 34.557 24.5833 34.5831C24.5162 34.6092 24.5088 34.7434 24.5647 34.8813Z" fill="black"/>
<path d="M24.591 38.7222C24.591 38.7222 23.078 39.0092 22.3159 38.9607C21.5539 38.9123 25.3755 43.292 24.591 38.7222Z" fill="black"/>
<path d="M23.1156 31.3878C23.5415 31.5518 24.2326 31.824 24.7668 32.4541L23.6013 33.0358L22.8728 32.0179L23.0671 32.9388L20.6389 34.2475L20.3475 33.5689L20.2018 34.3445L19.0363 34.8776C19.0363 34.8776 18.5282 29.6354 23.1119 31.3878H23.1156Z" fill="#1E2D4D"/>
<path d="M0.292969 114.962C0.292969 114.462 7.36091 114.056 16.0838 114.056C24.8066 114.056 31.8745 114.462 31.8745 114.962C31.8745 115.461 24.8066 115.868 16.0838 115.868C7.36091 115.868 0.292969 115.461 0.292969 114.962Z" fill="#01003B"/>
<path d="M23.7655 108.479L24.3146 112.379C24.3146 112.379 25.1962 114.963 26.0143 113.963C26.8325 112.964 27.6431 112.435 27.6431 112.435L27.9121 108.382L23.7617 108.483L23.7655 108.479Z" fill="#EBB3A3"/>
<path d="M25.9101 108.628L26.0521 113.93C26.0521 113.93 23.4595 114.318 24.4233 112.588L23.8555 108.911L25.9101 108.628Z" fill="#E7A286"/>
<path d="M10.7074 108.18L9.49328 112.069C9.49328 112.069 8.56682 112.878 8.23435 112.859C7.62543 112.822 7.3079 111.774 7.3079 111.774L7.20703 108.18H10.7074Z" fill="#EBB3A3"/>
<path d="M8.95651 107.14L8.10477 113.576C8.10477 113.576 6.36393 114.034 7.32401 112.304L7.11107 107.356L8.95277 107.144L8.95651 107.14Z" fill="#E7A286"/>
<path d="M27.9159 112.412L31.1883 115.059C31.3564 115.182 31.2369 115.391 30.9978 115.395L26.1675 115.432C26.0517 115.432 25.9471 115.38 25.9098 115.302L25.5474 114.556C25.4428 114.34 25.2336 114.325 25.2523 114.552L25.073 115.272C25.0842 115.384 23.9299 115.354 23.9187 115.249C23.8552 114.608 23.9896 112.516 24.1054 111.935C24.1204 111.853 24.2063 111.786 24.3221 111.767C24.423 111.752 24.5276 111.782 24.5911 111.842C24.9161 112.155 25.9583 113.102 26.515 112.912C26.8885 112.785 27.3704 112.554 27.5199 112.419C27.6207 112.33 27.8075 112.326 27.9196 112.408L27.9159 112.412Z" fill="#E8C56F"/>
<path d="M7.26319 111.64L5.40655 114.746C5.20856 115.048 5.3169 115.41 5.67552 115.622C6.25829 115.969 6.73272 116.655 7.09509 116.666C7.7563 116.685 8.78362 115.991 9.38133 115.73C9.78105 115.555 10.0986 115.298 10.0463 114.966L9.58306 111.853C9.57559 111.815 9.50835 111.801 9.47472 111.83L8.76494 112.475C8.53333 112.688 7.89826 112.658 7.74136 112.405C7.62929 112.226 7.36779 111.644 7.36779 111.644C7.34538 111.614 7.28187 111.614 7.25946 111.644L7.26319 111.64Z" fill="#E8C56F"/>
<path d="M17.1203 56.9471C15.6223 59.5943 14.8266 61.5332 13.9674 64.8963C12.9662 68.8 7.47851 101.805 7.00781 108.9C8.24059 109.199 9.72366 108.956 10.5044 108.915C12.9812 101.831 20.617 79.0236 21.6779 74.5606C21.8423 73.8746 22.9032 74.0237 22.821 74.7247C22.2196 79.8215 23.0227 101.421 23.6728 108.997C24.319 109.325 27.3786 109.381 28.1257 109.288C28.9363 100.548 33.2436 67.4578 26.7435 56.7346C23.7699 56.3244 20.1425 56.8613 17.1278 56.9508L17.1203 56.9471Z" fill="#1D274A"/>
<path d="M26.3457 57.894C26.3457 57.894 28.9943 64.4339 28.9943 73.6657C28.9943 82.8975 25.9609 106.286 25.9609 106.286" stroke="white" stroke-width="0.181518" stroke-miterlimit="10"/>
<path d="M8.94531 106.592L18.5834 57.5923" stroke="white" stroke-width="0.181518" stroke-miterlimit="10"/>
<path d="M20.4395 57.853C20.4395 57.853 20.3498 66.3093 16.5469 65.6419" stroke="white" stroke-width="0.181518" stroke-miterlimit="10"/>
<g style="mix-blend-mode:multiply" opacity="0.21">
<path d="M26.6928 58.0659L14.4509 67.2642C14.4509 67.2642 13.9391 62.2978 16.1133 58.2262L26.689 58.0659H26.6928Z" fill="black"/>
</g>
<path d="M28.3321 66.0296C24.5292 66.697 25.1418 58.2817 25.1418 58.2817" stroke="white" stroke-width="0.181518" stroke-miterlimit="10"/>
<path d="M21.0009 42.5099C21.0009 42.5099 20.2239 42.2862 20.3547 42.4502C20.4854 42.6142 20.7581 42.7969 21.0346 42.9795L21.0009 42.5061V42.5099Z" fill="#C00B00"/>
<path d="M23.5977 106.454L28.4765 106.338" stroke="white" stroke-width="0.181518" stroke-miterlimit="10"/>
<path d="M7.26562 106.245L11.3039 106.338" stroke="white" stroke-width="0.181518" stroke-miterlimit="10"/>
<path d="M13.4735 72.8114C13.4735 72.748 13.4102 72.0547 13.4102 72.0547L13.7233 73.0462L13.4735 72.8076V72.8114Z" fill="#CF6A49"/>
<path d="M15.4403 73.792L15.6602 73.9635C15.6602 73.9635 15.4329 74.3772 15.3359 74.3437C15.3359 74.3437 15.4962 74.1498 15.4403 73.792Z" fill="#CF6A49"/>
<path d="M45.5564 55.9022C42.8182 55.8164 40.9877 55.8201 40.7337 55.8425L31.9062 55.6486L31.9324 55.6263C31.9324 55.6263 31.4878 55.6263 31.174 55.6002C31.0209 55.589 30.8938 55.4808 30.8602 55.3354C30.0122 51.7672 28.3013 42.3677 25.2268 43.1357C25.182 43.1469 25.5144 43.4042 25.6265 43.5421C26.6314 44.8061 27.0984 50.9171 27.0984 50.9171C27.1208 51.0104 27.117 51.4279 27.1133 52.0282C26.03 58.2138 27.3262 58.6948 27.3262 58.6948C27.5093 58.8067 27.7297 58.9036 27.9763 58.9819C27.98 58.9894 27.9837 58.9968 27.9912 59.0006L28.0024 58.9894C31.9436 60.2123 43.3524 57.5539 43.3524 57.5539C44.2826 57.3041 46.3521 55.9283 45.5564 55.9022Z" fill="#EBB6A3"/>
<path d="M25.2266 43.1363C25.2266 43.1363 26.605 42.5137 27.6062 44.0685C28.6074 45.6233 30.8338 53.6992 31.0953 55.254L34.3977 55.5859C34.3977 55.5859 34.3977 58.7327 34.1362 59.0683C34.1362 59.0683 28.4579 61.2159 26.9749 59.3628C25.4918 57.5098 25.2266 43.1326 25.2266 43.1326V43.1363Z" fill="#FFE3A1"/>
<path d="M41.6133 55.8242C41.6133 55.8242 43.6829 54.5159 43.7725 54.8327C43.9444 55.4552 42.2222 56.1112 42.4389 56.305C42.4389 56.305 41.9383 55.9956 41.617 55.8242H41.6133Z" fill="#EBB6A3"/>
<path d="M25.9561 43.1401C25.8702 43.3489 28.4217 49.4227 28.3171 51.4771C28.2125 53.5464 26.7967 57.0289 26.9087 57.3421C26.9087 57.3421 25.2986 58.6098 16.4226 57.2153C13.6918 54.8328 16.0902 46.7344 17.0091 44.1692C17.0091 44.1692 18.7574 43.2967 19.5083 43.2408C19.5083 43.2408 22.4558 44.1804 25.9561 43.1439V43.1401Z" fill="#A2B4E8"/>
<path d="M17.7188 43.8407C17.7188 43.8407 18.8059 43.2516 19.2504 43.2144C19.2504 43.2144 23.5539 48.4007 22.7769 58.848C22.7769 58.848 24.3272 74.4034 24.2151 74.5525C24.1031 74.7017 9.84766 74.0343 9.84766 74.0343C9.84766 74.0343 19.6016 44.9518 17.7188 43.8407Z" fill="#FFE3A1"/>
<path d="M25.4854 43.7327C25.4854 43.7327 26.5127 69.4036 25.25 74.5527L33.2743 74.8099C33.2743 74.8099 30.9245 60.2352 30.8274 59.2918C30.3941 55.0786 25.9299 42.9199 25.9299 42.9199L25.4854 43.7365V43.7327Z" fill="#FFE3A1"/>
<path d="M8.53106 63.6273L20.2838 64.2151C21.3061 64.2663 22.0928 65.1344 22.0415 66.1547L21.6926 73.0997L8.08932 72.4192L8.53125 63.6235L8.53106 63.6273Z" fill="#A2B4E8"/>
<path d="M15.1075 69.8795C15.9803 69.8795 16.6877 69.1736 16.6877 68.3028C16.6877 67.432 15.9803 66.7261 15.1075 66.7261C14.2348 66.7261 13.5273 67.432 13.5273 68.3028C13.5273 69.1736 14.2348 69.8795 15.1075 69.8795Z" fill="white"/>
<path d="M19.4844 43.2294L20.7433 41.5889C20.7433 41.5889 22.2413 42.6515 24.4902 43.4345L24.4529 44.0236C24.3781 45.1794 23.108 45.8543 22.1068 45.2689C21.0608 44.6574 19.9401 43.9005 19.4881 43.2294H19.4844Z" fill="white"/>
<path d="M24.7895 41.4956C24.7895 41.4956 25.1631 42.9158 24.457 43.46L24.6588 43.952C24.8941 44.6304 25.899 44.5111 25.9588 43.7992C25.9812 43.5196 25.9812 43.2624 25.9401 43.0611L24.7895 41.4956Z" fill="white"/>
<path d="M24.9295 45.0299C24.9295 45.2424 24.8364 45.4138 24.7245 45.4138C24.6127 45.4138 24.5195 45.2424 24.5195 45.0299C24.5195 44.8175 24.6127 44.646 24.7245 44.646C24.8364 44.646 24.9295 44.8175 24.9295 45.0299Z" fill="white"/>
<path d="M25.035 46.6705C25.035 46.883 24.9418 47.0545 24.83 47.0545C24.7182 47.0545 24.625 46.883 24.625 46.6705C24.625 46.4581 24.7182 46.2866 24.83 46.2866C24.9418 46.2866 25.035 46.4581 25.035 46.6705Z" fill="white"/>
<path d="M25.1131 48.4787C25.1131 48.6911 25.02 48.8626 24.9081 48.8626C24.7963 48.8626 24.7031 48.6911 24.7031 48.4787C24.7031 48.2662 24.7963 48.0947 24.9081 48.0947C25.02 48.0947 25.1131 48.2662 25.1131 48.4787Z" fill="white"/>
<path opacity="0.6" d="M14.3989 62.4502C14.3989 62.4502 12.5497 63.3078 13.9805 68.5389C14.0552 68.8148 14.1225 69.1317 14.0664 69.4113L13.7452 71.6596C13.6966 71.902 13.663 72.2226 13.8684 72.3606C14.1262 72.5321 15.5831 73.8706 15.7624 73.9303C16.1248 74.0496 15.7288 72.2711 15.7886 71.3352C15.7998 71.1675 15.8371 71.9281 15.8596 72.2599L15.9044 72.9907C16.3415 72.7931 16.3303 71.9505 16.4012 71.6708C16.4909 71.2905 16.4199 71.0482 16.3751 70.9587C16.1771 70.5448 15.7961 69.7208 15.7363 68.9826C15.7027 68.5463 16.0053 66.9319 16.2593 63.923L14.4026 62.4539L14.3989 62.4502Z" fill="#3F6870"/>
<path d="M14.1651 49.7177C10.7357 68.8263 12.9622 72.4542 13.1864 72.6033C13.4665 72.7898 15.0654 74.2588 15.2634 74.3222C15.6594 74.4527 15.226 72.5064 15.2933 71.4811C15.3045 71.2984 15.3493 72.1298 15.3717 72.4952L15.4203 73.2968C15.8985 73.0769 15.8873 72.1596 15.962 71.8464C16.0628 71.4326 15.9807 71.1641 15.9321 71.0635C15.7154 70.6086 15.297 69.7063 15.2335 68.8972C15.1962 68.4199 18.4425 52.9019 19.014 50.62C19.7911 47.5216 18.8123 43.9609 17.7215 43.8416C16.3654 43.6924 14.449 48.1331 14.1651 49.7177Z" fill="#EBB6A3"/>
<path d="M15.9494 65.3662C17.5819 60.2544 18.4449 52.9018 19.0165 50.62C19.7935 47.5216 18.8147 43.9608 17.7239 43.8415C16.3678 43.6924 14.7652 45.5119 13.652 48.7706C11.1603 56.0636 11.1267 63.364 11.7954 63.7369" fill="#FFE3A1"/>
<path d="M87.7695 116.192C87.7695 115.592 96.2458 115.104 106.698 115.104C117.151 115.104 124.929 115.413 124.929 116.013C124.929 116.614 115.907 116.882 105.451 116.882C94.9944 116.882 87.7695 116.793 87.7695 116.192Z" fill="#01003B"/>
<path d="M90.0583 113.165L90.6374 112.021L94.0929 112.147L94.1676 113.165L92.5463 115.976L89.625 113.728L90.0583 113.165Z" fill="#E69CAD"/>
<path d="M92.1641 112.136L92.3098 114.79C92.3098 114.79 93.2063 114.283 94.2561 113.343L94.1104 111.841L92.1641 112.136Z" fill="#6B3A38"/>
<path d="M89.8483 113.124C89.8483 113.124 90.8644 113.105 92.0449 114C92.7472 114.533 93.8081 113.434 94.1369 113.15C94.2041 113.094 94.2938 113.143 94.305 113.247L94.7122 116.957H84.4315C84.312 116.957 84.2148 116.83 84.2148 116.677V115.898C84.2148 115.779 84.2746 115.671 84.3643 115.63L89.852 113.124H89.8483Z" fill="#B0C9FF"/>
<path d="M89.2695 113.322L90.9244 114.276" stroke="white" stroke-width="0.228362" stroke-miterlimit="10"/>
<path d="M88.5469 113.687L90.2018 114.645" stroke="white" stroke-width="0.228362" stroke-miterlimit="10"/>
<path d="M106.804 113.166L107.383 112.021L110.555 111.547L110.917 113.166L109.292 115.977L106.371 113.729L106.804 113.166Z" fill="#E69CAD"/>
<path d="M109.252 112.062L108.965 114.571C108.965 114.571 109.861 114.064 110.911 113.125L110.623 111.842L109.252 112.062Z" fill="#6B3A38"/>
<path d="M106.594 113.125C106.594 113.125 107.61 113.106 108.791 114.001C109.493 114.534 110.554 113.434 110.883 113.151C110.95 113.095 111.04 113.143 111.051 113.248L111.458 116.957H101.178C101.058 116.957 100.961 116.831 100.961 116.678V115.899C100.961 115.779 101.021 115.671 101.11 115.63L106.598 113.125H106.594Z" fill="#B0C9FF"/>
<path d="M105.785 113.393L107.44 114.351" stroke="white" stroke-width="0.228362" stroke-miterlimit="10"/>
<path d="M105.062 113.762L106.717 114.716" stroke="white" stroke-width="0.228362" stroke-miterlimit="10"/>
<path d="M94.9514 30.2615C95.0934 30.4554 95.2839 30.6679 95.4968 30.7499C95.975 30.9401 96.5877 30.5411 97.1256 30.1273C97.6523 29.7208 98.6572 30.3845 98.8141 30.4926L100.025 34.4039L99.9311 34.4561L99.9685 34.5269L100.006 34.5977L101.22 33.9453L101.231 33.9154C102.124 30.9811 102.068 30.3249 101.642 29.046C100.518 27.2265 96.9538 26.2496 96.6848 26.0296C96.1058 25.5486 95.2578 25.4591 94.6077 25.8544C93.36 26.6113 93.5954 28.3077 94.3089 29.4412C94.4434 29.788 94.6488 30.0862 94.9552 30.2689L94.9514 30.2615ZM96.2328 26.2757C95.3063 26.0259 94.3836 26.4994 94.1707 27.4763C94.1819 26.9804 94.3724 26.5292 94.8356 26.2496C95.2839 25.9811 95.8106 26.0222 96.229 26.2757H96.2328ZM100.555 34.1205L100.29 34.2622C100.477 34.072 100.682 33.9788 100.82 33.9341L100.551 34.1168L100.555 34.1205Z" fill="#1D274A"/>
<path d="M90.6959 68.2402C90.6959 68.2402 89.3734 84.023 89.2501 88.3854C89.1269 92.7478 90.0048 112.188 90.0048 112.188L94.4278 112.285C94.4278 112.285 99.344 79.6719 104.686 69.1537L90.6959 68.244V68.2402Z" fill="#E8C56F"/>
<path d="M97.3692 69.0713C97.3692 69.0713 93.6074 87.3037 93.6074 90.1038C93.6074 92.904 93.0508 112.143 93.0508 112.143" stroke="white" stroke-width="0.228362" stroke-miterlimit="10"/>
<path d="M94.7313 110.16H89.957" stroke="white" stroke-width="0.228362" stroke-miterlimit="10"/>
<path d="M91.625 68.2622C91.625 68.2622 93.7431 81.3978 96.8475 90.7041C99.3579 98.2246 105.944 112.535 105.944 112.535L111.081 112.479L105.724 90.9279C105.44 89.8056 105.26 88.6572 105.186 87.5014C104.909 83.1315 105.809 74.2987 106.187 68.6388L91.625 68.2622Z" fill="#FFE3A1"/>
<path d="M101.399 68.4858C101.399 68.4858 99.9532 85.5401 101.253 88.1911C102.553 90.842 108.882 112.438 108.882 112.438" stroke="#00092B" stroke-width="0.228362" stroke-miterlimit="10"/>
<path d="M110.46 110.528H105.141" stroke="#00092B" stroke-width="0.228362" stroke-miterlimit="10"/>
<path d="M96.2148 68.3364L100.817 74.3654" stroke="#00092B" stroke-width="0.228362" stroke-miterlimit="10"/>
<path d="M98.0774 43.4079C98.0774 43.4079 98.2529 41.9911 96.9417 41.786C95.6305 41.5809 92.0928 40.6451 83.101 43.7099C83.101 43.7099 81.2891 34.9815 81.5282 34.3178C81.8346 33.4677 76.8026 33.244 73.3994 33.188C72.7456 33.1769 74.6695 34.8174 75.2747 35.0598C77.7664 36.0553 78.9394 36.5474 79.0552 36.1634C79.0552 36.1634 78.0428 48.3333 79.4997 49.5861C80.9604 50.8388 99.5268 47.6771 98.0774 43.4079Z" fill="#E69CAD"/>
<path d="M86.7168 42.4274C86.7168 42.4274 100.333 39.027 100.184 42.9755C100.035 46.924 80.2129 54.3251 78.5543 52.1216C75.9206 48.6205 78.8046 36.6296 78.8046 36.6296L82.0584 35.1792L83.011 43.3223L86.7168 42.4237V42.4274Z" fill="#1D274A"/>
<path d="M87.66 50.2197C88.4482 51.163 96.1699 49.1832 97.0142 47.8931C97.0142 47.8931 97.1449 43.5792 96.8162 43.4898C93.4653 42.5837 87.6562 50.216 87.6562 50.216L87.66 50.2197Z" fill="#203061"/>
<path d="M102.639 40.8057C102.639 40.8057 109.547 41.5104 109.98 47.2187C110.413 52.9271 106.846 70.7606 106.846 70.7606L89.5234 71.0589L90.491 48.5647C90.562 47.1106 91.0102 45.7012 91.791 44.482C92.512 43.356 93.36 42.0808 93.8382 42.0212L101.089 40.0786L102.639 40.8057Z" fill="#1D274A"/>
<path d="M104.063 42.9536C108.258 41.2757 109.76 44.3629 109.977 47.2153C110.41 52.9236 106.839 71.2306 106.839 71.2306L89.6211 71.1598" fill="#0B101C"/>
<path d="M100.465 35.6452L101.19 40.0821C101.19 40.0821 98.0778 43.2849 96.8637 42.8599C96.4303 42.7107 96.2734 41.1299 96.2734 41.1299L96.5835 37.9233L99.8149 35.0039C99.8149 35.0039 100.312 35.3581 100.375 35.4849C100.439 35.6117 100.469 35.6452 100.469 35.6452H100.465Z" fill="#E69CAD"/>
<path d="M99.8108 35.0039L96.5794 37.9233L96.3516 39.8323C96.3516 39.8323 99.2841 39.027 99.3849 36.6072" fill="#00092B"/>
<path d="M91.5809 60.5076L87.7331 48.4533C87.5202 47.7859 87.0346 47.2453 86.407 46.9731L78.5246 43.5764C78.293 43.4757 78.054 43.7069 78.1324 43.953L82.0213 55.7649C82.2305 56.3988 82.6862 56.917 83.2765 57.1929L91.1775 60.8767C91.4091 60.9848 91.6556 60.7574 91.5772 60.5039L91.5809 60.5076Z" fill="#B0C9FF"/>
<path d="M90.9168 61.2122L87.0691 49.1579C86.8561 48.4905 86.3705 47.9498 85.7429 47.6777L77.8606 44.281C77.629 44.1803 77.3899 44.4115 77.4683 44.6576L81.3572 56.4695C81.5664 57.1034 82.0222 57.6216 82.6161 57.8975L90.5171 61.5813C90.7487 61.6894 90.9953 61.462 90.9168 61.2085V61.2122Z" fill="#A2B4E8"/>
<path d="M88.9456 52.3901L86.043 53.2474L89.7077 54.7272L88.9456 52.3901Z" fill="#00092B"/>
<path d="M86.0138 54.5118C86.4396 54.8921 95.3269 64.6645 99.8844 65.8651C101.214 66.2156 102.193 65.0635 102.888 63.8666L107.468 55.0002L101.364 50.2725C101.319 50.3396 98.1324 55.7497 97.3964 58.4677C97.1536 59.3589 96.7352 59.2917 96.0105 58.848L90.4406 55.4215C90.4406 55.4215 90.448 54.4484 90.3248 54.083C90.0894 53.3858 88.9724 52.4462 88.9724 52.4462L89.4543 53.9301C89.5403 54.18 89.8279 54.3589 89.3759 54.4148L85.8382 51.7974C85.8382 51.7974 85.5169 51.7713 85.8195 52.1181C86.1258 52.4648 86.4546 52.8302 86.4135 52.8563C86.3724 52.8824 85.4048 52.2076 85.36 52.4648C85.3189 52.7258 86.1483 53.3485 86.1146 53.3746C86.081 53.4007 85.1732 52.655 85.1209 52.8973C85.0686 53.1397 85.756 53.6095 85.7896 53.7027C85.8232 53.7996 85.0425 53.1994 85.0089 53.3298C84.9752 53.4603 85.7597 54.2993 86.0026 54.5155L86.0138 54.5118Z" fill="#E69CAD"/>
<path d="M102.98 45.4776C102.98 45.4776 104.721 40.6044 108.072 42.6551C111.426 44.7058 108.419 54.3403 107.078 56.7638C105.972 58.7586 104.65 62.7071 102.834 65.3133C101.568 67.1328 97.9518 66.9016 96.3492 65.3729L89.3672 58.7175L91.0184 55.5707L96.8274 58.0688L102.976 45.4776H102.98Z" fill="#1D274A"/>
<path d="M100.127 33.9228C100.165 34.0272 100.292 34.057 100.37 33.9788C100.632 33.7215 101.158 33.3673 101.345 34.3926C101.599 35.7871 100.142 35.5447 100.027 35.7349C99.7912 36.1152 99.0366 37.3941 97.9122 37.89C97.2248 38.192 96.2087 38.2404 95.4615 37.5208C94.7107 36.8012 94.3782 37.2934 94.692 29.6201C94.692 29.6201 95.0357 30.2801 95.5288 30.4516C96.0219 30.6231 96.8139 29.937 97.3742 29.7804C97.83 29.6537 98.7153 29.3181 99.257 30.9027C99.5036 31.6298 99.8995 33.3151 100.131 33.9191L100.127 33.9228Z" fill="#E69CAD"/>
<path d="M94.7148 35.1421C94.7148 35.1421 95.1669 35.3657 96.2726 35.2614C96.2726 35.2614 95.6787 36.0628 95.2453 35.9099C94.812 35.7534 94.7186 35.1421 94.7186 35.1421H94.7148Z" fill="white"/>
<path d="M101.125 34.2882L100.355 34.8659C100.355 34.8659 100.643 33.4681 101.125 34.2882Z" fill="#BF566E"/>
<path d="M95.6172 33.5129C95.6172 33.6806 95.6843 33.8148 95.7663 33.8148C95.8483 33.8148 95.9154 33.6806 95.9154 33.5129C95.9154 33.3451 95.8483 33.2109 95.7663 33.2109C95.6843 33.2109 95.6172 33.3451 95.6172 33.5129Z" fill="#00092B"/>
<path d="M94.6484 33.3674C94.6484 33.5351 94.7155 33.6693 94.7975 33.6693C94.8795 33.6693 94.9466 33.5351 94.9466 33.3674C94.9466 33.1996 94.8795 33.0654 94.7975 33.0654C94.7155 33.0654 94.6484 33.1996 94.6484 33.3674Z" fill="#00092B"/>
<path d="M96.8646 32.2076C97.085 32.3604 96.7413 31.6671 96.4425 31.5889C96.1436 31.5106 95.8485 31.6634 95.7812 31.9281C95.7812 31.9281 96.3379 31.8386 96.8646 32.2076Z" fill="#00092B"/>
<path d="M94.6051 32.1333C94.9189 32.0923 95.1468 32.1482 95.1468 32.1482C95.1057 31.8985 94.8741 31.7233 94.5977 31.7158" fill="#00092B"/>
<path d="M95.1063 33.3562L94.6543 34.6422C94.6468 34.6645 94.6618 34.6869 94.6805 34.6869L95.2147 34.7279C95.2147 34.7279 95.2483 34.713 95.2483 34.6906L95.1661 33.3637C95.1661 33.3264 95.1175 33.3189 95.1063 33.3525V33.3562Z" fill="#BF566E"/>
<g opacity="0.59">
<path d="M25.6561 24.3101C25.6561 23.6019 25.0808 23.0278 24.371 23.0278C23.6612 23.0278 23.0859 23.6019 23.0859 24.3101C23.0859 25.0183 23.6612 25.5923 24.371 25.5923C25.0808 25.5923 25.6561 25.0183 25.6561 24.3101Z" fill="white"/>
<path d="M90.2693 2.4913C90.2693 1.42867 89.4064 0.567383 88.3417 0.567383C87.277 0.567383 86.4141 1.42867 86.4141 2.4913C86.4141 3.55392 87.277 4.41521 88.3417 4.41521C89.4064 4.41521 90.2693 3.55392 90.2693 2.4913Z" fill="white"/>
<path d="M116.631 66.0214C116.631 67.263 115.622 68.266 114.382 68.266C113.141 68.266 112.133 67.2593 112.133 66.0214C112.133 64.7836 113.141 63.7769 114.382 63.7769C115.622 63.7769 116.631 64.7836 116.631 66.0214Z" fill="white"/>
<path d="M20.8318 104.205C20.8318 103.143 19.9689 102.281 18.9042 102.281C17.8395 102.281 16.9766 103.143 16.9766 104.205C16.9766 105.268 17.8395 106.129 18.9042 106.129C19.9689 106.129 20.8318 105.268 20.8318 104.205Z" fill="white"/>
</g>
<defs>
<filter id="filter0_d_652_4243" x="36.6078" y="32.4667" width="24.4998" height="24.6751" filterUnits="userSpaceOnUse" color-interpolation-filters="sRGB">
<feFlood flood-opacity="0" result="BackgroundImageFix"/>
<feColorMatrix in="SourceAlpha" type="matrix" values="0 0 0 0 0 0 0 0 0 0 0 0 0 0 0 0 0 0 127 0" result="hardAlpha"/>
<feOffset dx="2.52369" dy="2.52369"/>
<feGaussianBlur stdDeviation="1.51656"/>
<feColorMatrix type="matrix" values="0 0 0 0 0 0 0 0 0 0 0 0 0 0 0 0 0 0 0.29 0"/>
<feBlend mode="normal" in2="BackgroundImageFix" result="effect1_dropShadow_652_4243"/>
<feBlend mode="normal" in="SourceGraphic" in2="effect1_dropShadow_652_4243" result="shape"/>
</filter>
<filter id="filter1_d_652_4243" x="34.9359" y="18.7235" width="62.1326" height="14.7274" filterUnits="userSpaceOnUse" color-interpolation-filters="sRGB">
<feFlood flood-opacity="0" result="BackgroundImageFix"/>
<feColorMatrix in="SourceAlpha" type="matrix" values="0 0 0 0 0 0 0 0 0 0 0 0 0 0 0 0 0 0 127 0" result="hardAlpha"/>
<feOffset dx="2.52369" dy="2.52369"/>
<feGaussianBlur stdDeviation="1.51656"/>
<feColorMatrix type="matrix" values="0 0 0 0 0 0 0 0 0 0 0 0 0 0 0 0 0 0 0.29 0"/>
<feBlend mode="normal" in2="BackgroundImageFix" result="effect1_dropShadow_652_4243"/>
<feBlend mode="normal" in="SourceGraphic" in2="effect1_dropShadow_652_4243" result="shape"/>
</filter>
<filter id="filter2_d_652_4243" x="49.3578" y="57.8729" width="36.9178" height="36.8675" filterUnits="userSpaceOnUse" color-interpolation-filters="sRGB">
<feFlood flood-opacity="0" result="BackgroundImageFix"/>
<feColorMatrix in="SourceAlpha" type="matrix" values="0 0 0 0 0 0 0 0 0 0 0 0 0 0 0 0 0 0 127 0" result="hardAlpha"/>
<feOffset dx="2.52369" dy="2.52369"/>
<feGaussianBlur stdDeviation="1.51656"/>
<feColorMatrix type="matrix" values="0 0 0 0 0 0 0 0 0 0 0 0 0 0 0 0 0 0 0.29 0"/>
<feBlend mode="normal" in2="BackgroundImageFix" result="effect1_dropShadow_652_4243"/>
<feBlend mode="normal" in="SourceGraphic" in2="effect1_dropShadow_652_4243" result="shape"/>
</filter>
<linearGradient id="paint0_linear_652_4243" x1="59.7106" y1="116.965" x2="59.8557" y2="-4.42836" gradientUnits="userSpaceOnUse">
<stop stop-color="#324394"/>
<stop offset="0.01" stop-color="#334495"/>
<stop offset="0.44" stop-color="#627DC3"/>
<stop offset="0.75" stop-color="#7FA1E0"/>
<stop offset="0.92" stop-color="#8AAFEB"/>
</linearGradient>
</defs>
</svg>
