<svg width="151" height="124" viewBox="0 0 151 124" fill="none" xmlns="http://www.w3.org/2000/svg">
<path d="M118.18 64.8332C135.959 64.8332 150.372 50.4119 150.372 32.6224C150.372 14.8329 135.959 0.411621 118.18 0.411621C100.401 0.411621 85.9883 14.8329 85.9883 32.6224C85.9883 50.4119 100.401 64.8332 118.18 64.8332Z" fill="#E5F1FF"/>
<path d="M48.5425 113.84C55.8904 106.488 55.8904 94.5677 48.5425 87.2155C41.1946 79.8632 29.2813 79.8632 21.9335 87.2155C14.5856 94.5677 14.5856 106.488 21.9334 113.84C29.2813 121.192 41.1946 121.192 48.5425 113.84Z" fill="#E5F1FF"/>
<path d="M34.9877 11.1494C25.4861 11.1494 17.7852 18.8549 17.7852 28.362C17.7852 37.8691 25.4861 45.5746 34.9877 45.5746C44.4892 45.5746 52.1902 37.8691 52.1902 28.362C52.1902 18.8549 44.4892 11.1494 34.9877 11.1494ZM34.9877 39.3629C28.9146 39.3629 23.9895 34.4349 23.9895 28.3583C23.9895 22.2817 28.9146 17.3536 34.9877 17.3536C41.0607 17.3536 45.9858 22.2817 45.9858 28.3583C45.9858 34.4349 41.0607 39.3629 34.9877 39.3629Z" fill="#A9CCEA"/>
<path d="M99.9753 121.188C99.9753 122.28 99.0901 123.162 98.0023 123.162H48.0903C46.9987 123.162 46.1172 122.277 46.1172 121.188C46.1172 120.1 47.0024 119.214 48.0903 119.214H65.8067L68.2524 114.699H77.8402L80.2859 119.214H98.0023C99.0938 119.214 99.9753 120.1 99.9753 121.188Z" fill="#0F3157"/>
<path d="M76.7203 110.608H68.543V113.007H76.7203V110.608Z" fill="#FF4D6B"/>
<path d="M76.7203 106.66H68.543V109.058H76.7203V106.66Z" fill="#FF4D6B"/>
<path d="M137.743 98.5414C136.321 99.0894 134.775 99.3859 133.162 99.3859C126.099 99.3859 120.375 93.6583 120.375 86.5909C120.375 79.5234 126.099 73.7959 133.162 73.7959C140.226 73.7959 145.95 79.5234 145.95 86.5909C145.95 88.4863 145.537 90.2804 144.802 91.898" stroke="#FF4D6B" stroke-width="0.561576" stroke-linecap="round" stroke-linejoin="round"/>
<path d="M101.637 26.5193H99.5966C99.1727 24.7027 98.46 23.0025 97.5035 21.4637L98.9476 20.0186C99.5703 19.3956 99.5703 18.386 98.9476 17.7629L95.7404 14.5538C95.1178 13.9308 94.1087 13.9308 93.486 14.5538L92.0419 15.9989C90.5039 15.0418 88.8009 14.3286 86.9892 13.9045V11.8627C86.9892 10.9807 86.2764 10.2676 85.3949 10.2676H80.8599C79.9784 10.2676 79.2657 10.9807 79.2657 11.8627V13.9045C77.4501 14.3286 75.7509 15.0418 74.2129 15.9989L72.7688 14.5538C72.1461 13.9308 71.137 13.9308 70.5144 14.5538L67.3072 17.7629C66.6845 18.386 66.6845 19.3956 67.3072 20.0186L68.7513 21.4637C67.7948 23.0025 67.0821 24.7065 66.6582 26.5193H64.6177C63.7361 26.5193 63.0234 27.2325 63.0234 28.1145V32.6522C63.0234 33.5343 63.7361 34.2474 64.6177 34.2474H66.6582C67.0821 36.064 67.7948 37.7642 68.7513 39.3031L67.3072 40.7481C66.6845 41.3711 66.6845 42.3808 67.3072 43.0038L70.5144 46.2129C71.137 46.8359 72.1461 46.8359 72.7688 46.2129L74.2129 44.7679C75.7509 45.725 77.4539 46.4381 79.2657 46.8622V48.904C79.2657 49.786 79.9784 50.4991 80.8599 50.4991H85.3949C86.2764 50.4991 86.9892 49.786 86.9892 48.904V46.8622C88.8047 46.4381 90.5039 45.725 92.0419 44.7679L93.486 46.2129C94.1087 46.8359 95.1178 46.8359 95.7404 46.2129L98.9476 43.0038C99.5703 42.3808 99.5703 41.3711 98.9476 40.7481L97.5035 39.3031C98.46 37.7642 99.1727 36.0602 99.5966 34.2474H101.637C102.519 34.2474 103.231 33.5343 103.231 32.6522V28.1145C103.231 27.2325 102.519 26.5193 101.637 26.5193ZM83.1293 38.4773C78.6617 38.4773 75.0382 34.8517 75.0382 30.3815C75.0382 25.9113 78.6617 22.2856 83.1293 22.2856C87.5968 22.2856 91.2204 25.9113 91.2204 30.3815C91.2204 34.8517 87.5968 38.4773 83.1293 38.4773Z" fill="#289DF2"/>
<path d="M133.527 33.9212V101.278C133.527 103.654 131.599 105.583 129.225 105.583L16.861 105.583C14.4865 105.583 12.5584 103.654 12.5584 101.278V33.9212C12.5584 31.5454 14.4865 29.6162 16.861 29.6162L129.225 29.6162C131.599 29.6162 133.527 31.5454 133.527 33.9212Z" fill="#0F3775"/>
<path d="M33.855 39.0142H21.3789V41.7653H33.855V39.0142Z" fill="#284D89"/>
<path d="M48.8746 39.0142H36.3984V41.7653H48.8746V39.0142Z" fill="#284D89"/>
<path d="M86.941 39.0142H74.4648V41.7653H86.941V39.0142Z" fill="#284D89"/>
<path d="M125.007 39.0142H112.531V41.7653H125.007V39.0142Z" fill="#284D89"/>
<path d="M72.8818 39.0142H50.5703V41.7653H72.8818V39.0142Z" fill="#FF4D6B"/>
<path d="M110.733 39.0142H88.4219V41.7653H110.733V39.0142Z" fill="#2889DB"/>
<path d="M23.64 36.8257H21.4531V38.1656H23.64V36.8257Z" fill="#2889DB"/>
<path d="M44.2598 44.0205H21.4531V45.3604H44.2598V44.0205Z" fill="white"/>
<path d="M28.2201 46.3813H21.4531V47.7213H28.2201V46.3813Z" fill="white"/>
<path d="M24.4522 51.9214H45.6009C47.1763 51.9214 48.4555 53.2013 48.4555 54.7776V93.08C48.4555 94.6564 47.1763 95.9363 45.6009 95.9363H24.4522C22.8768 95.9363 21.5977 94.6564 21.5977 93.08V54.7776C21.5977 53.2013 22.8768 51.9214 24.4522 51.9214Z" fill="#284D89"/>
<path d="M33.9681 58.3735H24.9805V59.7472H33.9681V58.3735Z" fill="white"/>
<path d="M33.9681 61.4434H24.9805V62.8171H33.9681V61.4434Z" fill="white"/>
<path d="M33.9681 64.5103H24.9805V65.884H33.9681V64.5103Z" fill="white"/>
<path d="M30.4757 77.3125H24.9766V78.6862H30.4757V77.3125Z" fill="white"/>
<path d="M30.4757 80.3828H24.9766V81.7565H30.4757V80.3828Z" fill="white"/>
<path d="M39.921 80.3828H34.4219V81.7565H39.921V80.3828Z" fill="white"/>
<path d="M28.4313 73.8223H24.9766V75.196H28.4313V73.8223Z" fill="white"/>
<path d="M41.6155 73.8223H39.7812V75.196H41.6155V73.8223Z" fill="white"/>
<path d="M39.0742 73.8223H29.6289V75.196H39.0742V73.8223Z" fill="#FF4D6B"/>
<path d="M26.2969 68.6392H24.9766V70.0129H26.2969V68.6392Z" fill="#2889DB"/>
<path d="M26.2969 71.0708H24.9766V72.4445H26.2969V71.0708Z" fill="#FF4D6B"/>
<path d="M32.3078 82.0419H31.8164L32.9942 80.2778H33.4894L32.3078 82.0419Z" fill="white"/>
<path d="M45.3862 84.4028H24.9766V85.5664H45.3862V84.4028Z" fill="#282E5C"/>
<path d="M45.3862 87.0488H24.9766V88.2123H45.3862V87.0488Z" fill="#282E5C"/>
<path d="M143.55 49.8047H87.4379C86.0354 49.8047 84.8984 50.9423 84.8984 52.3457V67.5803C84.8984 68.9836 86.0354 70.1213 87.4379 70.1213H143.55C144.953 70.1213 146.09 68.9836 146.09 67.5803V52.3457C146.09 50.9423 144.953 49.8047 143.55 49.8047Z" fill="#289DF2"/>
<path d="M103.086 62.9261C103.086 62.9261 106.188 55.3069 115.071 57.1423C123.953 58.9776 128.466 68.9914 139.884 60.8092" stroke="white" stroke-width="0.561576" stroke-miterlimit="10"/>
<path d="M131.85 63.3472H130.582V64.6158H131.85V63.3472Z" fill="#289DF2" stroke="white" stroke-width="0.561576" stroke-miterlimit="10"/>
<path d="M104.637 56.7896H120.71" stroke="white" stroke-width="0.278303" stroke-miterlimit="10"/>
<path d="M123.18 64.334H139.253" stroke="white" stroke-width="0.278303" stroke-miterlimit="10"/>
<path d="M112.674 56.1519H111.406V57.4205H112.674V56.1519Z" fill="#289DF2" stroke="white" stroke-width="0.561576" stroke-miterlimit="10"/>
<path d="M95.6141 53.4717H83.4905C82.4775 53.4717 81.6562 54.2934 81.6562 55.307V73.503C81.6562 74.5167 82.4775 75.3384 83.4905 75.3384H95.6141C96.6271 75.3384 97.4483 74.5167 97.4483 73.503V55.307C97.4483 54.2934 96.6271 53.4717 95.6141 53.4717Z" fill="#284D89"/>
<path d="M93.1087 56.5757H84.1211V57.8143H93.1087V56.5757Z" fill="white"/>
<path d="M93.1087 59.3418H84.1211V60.5804H93.1087V59.3418Z" fill="white"/>
<path d="M87.5046 62.1084H84.1211V63.347H87.5046V62.1084Z" fill="white"/>
<path d="M89.9728 64.9678H84.1211V66.2064H89.9728V64.9678Z" fill="#289DF2"/>
<path d="M88.0672 67.7339H84.1211V68.9725H88.0672V67.7339Z" fill="#289DF2"/>
<path d="M88.0672 70.5005H84.1211V71.7391H88.0672V70.5005Z" fill="white"/>
<path d="M136.223 47.0537H142.566" stroke="#284D89" stroke-width="1.12315" stroke-linecap="round" stroke-linejoin="round"/>
<path d="M121.963 82.8752L119.772 84.5905L116.629 85.161C116.629 85.161 113.677 84.9695 113.392 84.9695C113.107 84.9695 111.107 83.3519 111.107 83.3519L107.394 82.0195L104.824 82.9728L101.778 82.3047L97.2095 82.0195L92.8282 83.7347L89.2122 84.3052L85.975 85.3524L82.3589 85.6376L78.454 82.59L74.838 81.9219L71.1244 84.0162L68.1723 84.9695L64.8226 84.8757L60.5988 87.4467H58.0819L53.8281 88.9405" stroke="#FF5C66" stroke-width="0.506909" stroke-miterlimit="10"/>
<path d="M53.8906 89.0049H122.059" stroke="#F7F7F7" stroke-width="0.124242" stroke-miterlimit="10"/>
<path d="M53.9204 88.1455H53.2227V89.8608H53.9204V88.1455Z" fill="#F7F7F7"/>
<path d="M122.346 88.1455H121.648V89.8608H122.346V88.1455Z" fill="#F7F7F7"/>
<path d="M121.996 89.0044V83.2544" stroke="#F7F7F7" stroke-width="0.124242" stroke-miterlimit="10"/>
<path d="M122.373 82.9692C122.373 83.2657 122.133 83.5097 121.833 83.5097C121.533 83.5097 121.293 83.2695 121.293 82.9692C121.293 82.6689 121.533 82.4287 121.833 82.4287C122.133 82.4287 122.373 82.6689 122.373 82.9692Z" fill="#F7F7F7"/>
<path d="M54.3398 93.9805V91.0456H54.678V92.129H54.7066C54.7315 92.0908 54.7659 92.0421 54.8098 91.9828C54.8547 91.9226 54.9187 91.8691 55.0018 91.8223C55.0859 91.7746 55.1996 91.7507 55.3429 91.7507C55.5282 91.7507 55.6916 91.797 55.833 91.8897C55.9744 91.9824 56.0847 92.1137 56.164 92.2838C56.2433 92.4538 56.2829 92.6544 56.2829 92.8856C56.2829 93.1187 56.2433 93.3208 56.164 93.4918C56.0847 93.6619 55.9748 93.7937 55.8344 93.8873C55.694 93.98 55.532 94.0263 55.3486 94.0263C55.2072 94.0263 55.094 94.0029 55.009 93.9561C54.924 93.9083 54.8585 93.8544 54.8127 93.7942C54.7668 93.733 54.7315 93.6824 54.7066 93.6423H54.6665V93.9805H54.3398ZM54.6722 92.8799C54.6722 93.0461 54.6966 93.1928 54.7453 93.3198C54.794 93.446 54.8652 93.5448 54.9588 93.6165C55.0525 93.6872 55.1671 93.7225 55.3028 93.7225C55.4441 93.7225 55.5621 93.6853 55.6567 93.6107C55.7522 93.5353 55.8239 93.434 55.8717 93.3069C55.9204 93.1789 55.9448 93.0366 55.9448 92.8799C55.9448 92.7251 55.9209 92.5857 55.8731 92.4615C55.8263 92.3363 55.7551 92.2374 55.6596 92.1648C55.565 92.0913 55.4461 92.0545 55.3028 92.0545C55.1652 92.0545 55.0496 92.0894 54.956 92.1591C54.8623 92.2279 54.7916 92.3244 54.7439 92.4486C54.6961 92.5718 54.6722 92.7156 54.6722 92.8799ZM57.7231 94.0263C57.511 94.0263 57.3281 93.9795 57.1743 93.8859C57.0214 93.7913 56.9034 93.6595 56.8203 93.4904C56.7382 93.3203 56.6971 93.1226 56.6971 92.8971C56.6971 92.6716 56.7382 92.4729 56.8203 92.301C56.9034 92.128 57.019 91.9933 57.1671 91.8969C57.3162 91.7994 57.49 91.7507 57.6887 91.7507C57.8034 91.7507 57.9166 91.7698 58.0284 91.808C58.1401 91.8462 58.2419 91.9083 58.3336 91.9943C58.4253 92.0793 58.4984 92.1921 58.5529 92.3325C58.6073 92.4729 58.6345 92.6458 58.6345 92.8512V92.9945H56.9378V92.7022H58.2906C58.2906 92.578 58.2658 92.4672 58.2161 92.3698C58.1674 92.2723 58.0976 92.1954 58.0069 92.139C57.9171 92.0827 57.811 92.0545 57.6887 92.0545C57.554 92.0545 57.4375 92.0879 57.3391 92.1548C57.2416 92.2207 57.1666 92.3067 57.1141 92.4127C57.0616 92.5188 57.0353 92.6325 57.0353 92.7538V92.9487C57.0353 93.1149 57.0639 93.2558 57.1213 93.3714C57.1795 93.4861 57.2603 93.5735 57.3634 93.6337C57.4666 93.6929 57.5865 93.7225 57.7231 93.7225C57.812 93.7225 57.8922 93.7101 57.9639 93.6853C58.0365 93.6595 58.0991 93.6213 58.1516 93.5706C58.2042 93.519 58.2448 93.455 58.2734 93.3786L58.6001 93.4703C58.5658 93.5811 58.508 93.6786 58.4267 93.7626C58.3455 93.8458 58.2452 93.9107 58.1258 93.9575C58.0064 94.0034 57.8722 94.0263 57.7231 94.0263ZM60.1063 91.7793V92.0659H58.9656V91.7793H60.1063ZM59.298 91.252H59.6362V93.3499C59.6362 93.4455 59.6501 93.5171 59.6778 93.5649C59.7064 93.6117 59.7427 93.6432 59.7867 93.6595C59.8316 93.6748 59.8789 93.6824 59.9286 93.6824C59.9658 93.6824 59.9964 93.6805 60.0203 93.6767C60.0442 93.6719 60.0633 93.6681 60.0776 93.6652L60.1464 93.969C60.1234 93.9776 60.0914 93.9862 60.0504 93.9948C60.0093 94.0044 59.9572 94.0091 59.8942 94.0091C59.7986 94.0091 59.705 93.9886 59.6133 93.9475C59.5225 93.9064 59.4471 93.8439 59.3869 93.7598C59.3276 93.6757 59.298 93.5697 59.298 93.4417V91.252ZM61.2627 94.0321C61.1232 94.0321 60.9966 94.0058 60.883 93.9532C60.7693 93.8997 60.679 93.8228 60.6121 93.7225C60.5452 93.6213 60.5118 93.499 60.5118 93.3557C60.5118 93.2296 60.5366 93.1273 60.5863 93.049C60.636 92.9697 60.7024 92.9076 60.7855 92.8627C60.8686 92.8178 60.9603 92.7844 61.0606 92.7624C61.1619 92.7395 61.2637 92.7213 61.3659 92.7079C61.4996 92.6907 61.6081 92.6779 61.6912 92.6693C61.7752 92.6597 61.8364 92.6439 61.8746 92.622C61.9138 92.6 61.9334 92.5618 61.9334 92.5073V92.4959C61.9334 92.3545 61.8947 92.2446 61.8173 92.1663C61.7409 92.0879 61.6248 92.0488 61.4691 92.0488C61.3076 92.0488 61.181 92.0841 61.0893 92.1548C60.9976 92.2255 60.9331 92.301 60.8958 92.3812L60.5749 92.2666C60.6322 92.1328 60.7086 92.0287 60.8041 91.9542C60.9006 91.8787 61.0057 91.8262 61.1194 91.7965C61.234 91.766 61.3468 91.7507 61.4576 91.7507C61.5283 91.7507 61.6095 91.7593 61.7012 91.7765C61.7939 91.7927 61.8832 91.8266 61.9692 91.8782C62.0561 91.9298 62.1282 92.0077 62.1856 92.1118C62.2429 92.2159 62.2716 92.3554 62.2716 92.5302V93.9805H61.9334V93.6824H61.9162C61.8932 93.7302 61.855 93.7813 61.8015 93.8357C61.748 93.8902 61.6768 93.9365 61.588 93.9747C61.4992 94.013 61.3907 94.0321 61.2627 94.0321ZM61.3143 93.7283C61.448 93.7283 61.5608 93.702 61.6525 93.6494C61.7452 93.5969 61.8149 93.5291 61.8617 93.446C61.9095 93.3628 61.9334 93.2754 61.9334 93.1837V92.8742C61.919 92.8914 61.8875 92.9071 61.8388 92.9215C61.791 92.9348 61.7356 92.9468 61.6725 92.9573C61.6104 92.9668 61.5498 92.9754 61.4906 92.9831C61.4323 92.9898 61.385 92.9955 61.3487 93.0003C61.2608 93.0117 61.1786 93.0304 61.1022 93.0562C61.0267 93.081 60.9656 93.1187 60.9188 93.1694C60.8729 93.2191 60.85 93.2869 60.85 93.3729C60.85 93.4904 60.8935 93.5792 60.9804 93.6394C61.0683 93.6986 61.1796 93.7283 61.3143 93.7283ZM55.2512 96.7793V97.0659H54.1105V96.7793H55.2512ZM54.4429 96.252H54.7811V98.3499C54.7811 98.4455 54.795 98.5171 54.8227 98.5649C54.8514 98.6117 54.8877 98.6432 54.9316 98.6595C54.9765 98.6748 55.0238 98.6824 55.0735 98.6824C55.1107 98.6824 55.1413 98.6805 55.1652 98.6767C55.1891 98.6719 55.2082 98.6681 55.2225 98.6652L55.2913 98.969C55.2684 98.9776 55.2364 98.9862 55.1953 98.9948C55.1542 99.0044 55.1021 99.0091 55.0391 99.0091C54.9435 99.0091 54.8499 98.9886 54.7582 98.9475C54.6674 98.9064 54.592 98.8439 54.5318 98.7598C54.4726 98.6757 54.4429 98.5697 54.4429 98.4417V96.252ZM56.6591 99.0263C56.447 99.0263 56.2641 98.9795 56.1103 98.8859C55.9574 98.7913 55.8394 98.6595 55.7563 98.4904C55.6741 98.3203 55.6331 98.1226 55.6331 97.8971C55.6331 97.6716 55.6741 97.4729 55.7563 97.301C55.8394 97.128 55.955 96.9933 56.1031 96.8969C56.2521 96.7994 56.426 96.7507 56.6247 96.7507C56.7394 96.7507 56.8526 96.7698 56.9643 96.808C57.0761 96.8462 57.1779 96.9083 57.2696 96.9943C57.3613 97.0793 57.4344 97.1921 57.4888 97.3325C57.5433 97.4729 57.5705 97.6458 57.5705 97.8512V97.9945H55.8738V97.7022H57.2266C57.2266 97.578 57.2018 97.4672 57.1521 97.3698C57.1034 97.2723 57.0336 97.1954 56.9429 97.139C56.853 97.0827 56.747 97.0545 56.6247 97.0545C56.49 97.0545 56.3735 97.0879 56.2751 97.1548C56.1776 97.2207 56.1026 97.3067 56.0501 97.4127C55.9975 97.5188 55.9713 97.6325 55.9713 97.7538V97.9487C55.9713 98.1149 55.9999 98.2558 56.0572 98.3714C56.1155 98.4861 56.1962 98.5735 56.2994 98.6337C56.4026 98.6929 56.5225 98.7225 56.6591 98.7225C56.748 98.7225 56.8282 98.7101 56.8999 98.6853C56.9725 98.6595 57.035 98.6213 57.0876 98.5706C57.1401 98.519 57.1807 98.455 57.2094 98.3786L57.5361 98.4703C57.5017 98.5811 57.4439 98.6786 57.3627 98.7626C57.2815 98.8458 57.1812 98.9107 57.0618 98.9575C56.9424 99.0034 56.8081 99.0263 56.6591 99.0263ZM59.6441 97.2723L59.3403 97.3583C59.3212 97.3077 59.293 97.2585 59.2558 97.2107C59.2194 97.162 59.1698 97.1218 59.1067 97.0903C59.0437 97.0588 58.9629 97.043 58.8645 97.043C58.7298 97.043 58.6176 97.0741 58.5278 97.1362C58.4389 97.1973 58.3945 97.2752 58.3945 97.3698C58.3945 97.4538 58.4251 97.5202 58.4862 97.5689C58.5474 97.6177 58.6429 97.6583 58.7728 97.6907L59.0996 97.771C59.2964 97.8188 59.443 97.8918 59.5395 97.9902C59.636 98.0877 59.6842 98.2133 59.6842 98.3671C59.6842 98.4932 59.6479 98.606 59.5753 98.7053C59.5037 98.8047 59.4034 98.883 59.2744 98.9403C59.1454 98.9977 58.9954 99.0263 58.8244 99.0263C58.5999 99.0263 58.4141 98.9776 58.267 98.8802C58.1198 98.7827 58.0267 98.6404 57.9875 98.4531L58.3085 98.3729C58.3391 98.4913 58.3969 98.5802 58.4819 98.6394C58.5679 98.6986 58.6802 98.7283 58.8187 98.7283C58.9763 98.7283 59.1015 98.6948 59.1941 98.6279C59.2878 98.5601 59.3346 98.4789 59.3346 98.3843C59.3346 98.3079 59.3078 98.2439 59.2543 98.1923C59.2008 98.1398 59.1187 98.1006 59.0078 98.0748L58.641 97.9888C58.4394 97.941 58.2913 97.867 58.1967 97.7667C58.1031 97.6654 58.0563 97.5388 58.0563 97.3869C58.0563 97.2628 58.0912 97.1529 58.1609 97.0574C58.2316 96.9618 58.3276 96.8868 58.449 96.8324C58.5712 96.7779 58.7098 96.7507 58.8645 96.7507C59.0824 96.7507 59.2534 96.7985 59.3776 96.894C59.5027 96.9895 59.5916 97.1156 59.6441 97.2723ZM61.1506 96.7793V97.0659H60.0099V96.7793H61.1506ZM60.3423 96.252H60.6805V98.3499C60.6805 98.4455 60.6944 98.5171 60.7221 98.5649C60.7508 98.6117 60.7871 98.6432 60.831 98.6595C60.8759 98.6748 60.9232 98.6824 60.9729 98.6824C61.0101 98.6824 61.0407 98.6805 61.0646 98.6767C61.0885 98.6719 61.1076 98.6681 61.1219 98.6652L61.1907 98.969C61.1678 98.9776 61.1358 98.9862 61.0947 98.9948C61.0536 99.0044 61.0015 99.0091 60.9385 99.0091C60.8429 99.0091 60.7493 98.9886 60.6576 98.9475C60.5668 98.9064 60.4914 98.8439 60.4312 98.7598C60.372 98.6757 60.3423 98.5697 60.3423 98.4417V96.252Z" fill="#F7F7F7"/>
<path d="M112.027 91.4819H69.6289V92.2439H112.027V91.4819Z" fill="#28385E"/>
<path d="M95.654 91.4819H69.6289V92.2439H95.654V91.4819Z" fill="#FF4D6B"/>
<path d="M90.4775 92.9419H69.6289V93.7038H90.4775V92.9419Z" fill="#28385E"/>
<path d="M56.4132 95.212H58.9827L59.3165 94.4951H54.125V95.6887H55.9368L56.4132 95.212Z" fill="#FF4D6B"/>
<path d="M61.7382 94.4878H61.4531V94.773H61.7382V94.4878Z" fill="#F7F7F7"/>
<path d="M63.5077 94.4878H63.2227V94.773H63.5077V94.4878Z" fill="#F7F7F7"/>
<path d="M65.2851 94.4878H65V94.773H65.2851V94.4878Z" fill="#F7F7F7"/>
<path d="M119.881 82.0587C119.713 82.0587 119.562 82.0252 119.427 81.9584C119.292 81.8915 119.184 81.7998 119.103 81.6832C119.022 81.5667 118.977 81.4339 118.97 81.2848H119.314C119.327 81.4176 119.387 81.5275 119.494 81.6144C119.602 81.7004 119.731 81.7434 119.881 81.7434C120.001 81.7434 120.108 81.7152 120.202 81.6589C120.297 81.6025 120.371 81.5251 120.424 81.4267C120.479 81.3274 120.506 81.2151 120.506 81.09C120.506 80.9619 120.478 80.8478 120.421 80.7475C120.366 80.6462 120.29 80.5664 120.192 80.5081C120.095 80.4499 119.983 80.4203 119.858 80.4193C119.768 80.4183 119.676 80.4322 119.582 80.4609C119.487 80.4886 119.409 80.5244 119.348 80.5683L119.016 80.5282L119.193 79.0837H120.718V79.399H119.491L119.388 80.2645H119.405C119.466 80.2168 119.541 80.1771 119.632 80.1456C119.723 80.1141 119.817 80.0983 119.915 80.0983C120.095 80.0983 120.255 80.1413 120.396 80.2273C120.537 80.3123 120.648 80.4289 120.728 80.5769C120.809 80.725 120.85 80.8941 120.85 81.0842C120.85 81.2715 120.808 81.4387 120.724 81.5858C120.641 81.7319 120.526 81.8475 120.38 81.9326C120.234 82.0166 120.067 82.0587 119.881 82.0587ZM122.376 82.0587C122.16 82.0587 121.977 81.9999 121.825 81.8824C121.673 81.764 121.557 81.5925 121.476 81.368C121.396 81.1425 121.356 80.8702 121.356 80.5511C121.356 80.234 121.396 79.9631 121.476 79.7386C121.558 79.5132 121.674 79.3412 121.826 79.2227C121.979 79.1033 122.162 79.0436 122.376 79.0436C122.59 79.0436 122.773 79.1033 122.925 79.2227C123.078 79.3412 123.195 79.5132 123.275 79.7386C123.356 79.9631 123.397 80.234 123.397 80.5511C123.397 80.8702 123.357 81.1425 123.276 81.368C123.196 81.5925 123.08 81.764 122.928 81.8824C122.776 81.9999 122.592 82.0587 122.376 82.0587ZM122.376 81.7434C122.59 81.7434 122.757 81.6402 122.875 81.4339C122.993 81.2275 123.053 80.9333 123.053 80.5511C123.053 80.297 123.026 80.0806 122.971 79.902C122.918 79.7233 122.84 79.5872 122.739 79.4936C122.639 79.3999 122.518 79.3531 122.376 79.3531C122.164 79.3531 121.999 79.4577 121.879 79.667C121.76 79.8752 121.7 80.17 121.7 80.5511C121.7 80.8053 121.727 81.0212 121.78 81.1989C121.834 81.3766 121.911 81.5117 122.011 81.6044C122.112 81.6971 122.234 81.7434 122.376 81.7434ZM119.921 87.0587C119.705 87.0587 119.521 86.9999 119.37 86.8824C119.218 86.764 119.102 86.5925 119.021 86.368C118.941 86.1425 118.901 85.8702 118.901 85.5511C118.901 85.234 118.941 84.9631 119.021 84.7386C119.102 84.5132 119.219 84.3412 119.371 84.2227C119.524 84.1033 119.707 84.0436 119.921 84.0436C120.135 84.0436 120.318 84.1033 120.47 84.2227C120.623 84.3412 120.739 84.5132 120.82 84.7386C120.901 84.9631 120.942 85.234 120.942 85.5511C120.942 85.8702 120.901 86.1425 120.821 86.368C120.741 86.5925 120.625 86.764 120.473 86.8824C120.321 86.9999 120.137 87.0587 119.921 87.0587ZM119.921 86.7434C120.135 86.7434 120.301 86.6402 120.42 86.4339C120.538 86.2275 120.598 85.9333 120.598 85.5511C120.598 85.297 120.57 85.0806 120.516 84.902C120.462 84.7233 120.385 84.5872 120.284 84.4936C120.183 84.3999 120.063 84.3531 119.921 84.3531C119.709 84.3531 119.543 84.4577 119.424 84.667C119.305 84.8752 119.245 85.17 119.245 85.5511C119.245 85.8053 119.272 86.0212 119.325 86.1989C119.379 86.3766 119.455 86.5117 119.556 86.6044C119.657 86.6971 119.779 86.7434 119.921 86.7434Z" fill="#F7F7F7"/>
<path d="M115.08 93.7677H114.442L113.43 91.4819H114.064L115.08 93.7677Z" fill="#28385E"/>
<path d="M116.729 93.7677H116.091L115.078 91.4819H115.712L116.729 93.7677Z" fill="#28385E"/>
<path d="M118.377 93.7677H117.743L116.73 91.4819H117.364L118.377 93.7677Z" fill="#28385E"/>
<path d="M120.029 93.7677H119.395L118.379 91.4819H119.017L120.029 93.7677Z" fill="#28385E"/>
<path d="M121.647 93.7677H121.013L119.996 91.4819H120.63L121.647 93.7677Z" fill="#28385E"/>
<path d="M118.89 15.0488H108.57V16.8992H118.89V15.0488Z" fill="#A9CCEA"/>
<path d="M124.13 18.3594H108.57V20.2097H124.13V18.3594Z" fill="#A9CCEA"/>
<path d="M127.761 21.6694H108.57V23.5198H127.761V21.6694Z" fill="#A9CCEA"/>
<path d="M115.907 24.98H108.57V26.8304H115.907V24.98Z" fill="#A9CCEA"/>
<path d="M10.6083 37.3403H0.289062V39.1907H10.6083V37.3403Z" fill="#2889DB"/>
<path d="M15.8486 40.6509H0.289062V42.5013H15.8486V40.6509Z" fill="#A9CCEA"/>
<path d="M19.4796 43.9609H0.289062V45.8113H19.4796V43.9609Z" fill="#A9CCEA"/>
<path d="M7.62619 47.2676H0.289062V49.118H7.62619V47.2676Z" fill="#A9CCEA"/>
<path d="M70.0203 102.283H26.0312V107.996H70.0203V102.283Z" stroke="#289DF2" stroke-width="0.561576" stroke-miterlimit="10"/>
<path d="M49.3695 57.2812H47.2539V70.2601H49.3695V57.2812Z" stroke="#289DF2" stroke-width="0.561576" stroke-miterlimit="10"/>
<path d="M134.321 93.7955C138.295 93.1543 140.997 89.4112 140.356 85.4349C139.715 81.4587 135.974 78.755 132 79.3962C128.026 80.0374 125.324 83.7805 125.965 87.7568C126.606 91.733 130.347 94.4367 134.321 93.7955Z" fill="#FF4D6B"/>
<path d="M132.637 85.9087L129.742 86.9709L132.637 88.0218V89.1103L128.5 87.5339V86.4042L132.637 84.8315V85.9087Z" fill="#F9FBFC"/>
<path d="M133.582 84.8315L137.719 86.4042V87.5339L133.582 89.1103V88.0218L136.478 86.9709L133.582 85.9087V84.8315Z" fill="#F9FBFC"/>
<path d="M145.316 92.5515C145.316 93.0769 144.888 93.5048 144.363 93.5048C143.838 93.5048 143.41 93.0769 143.41 92.5515C143.41 92.026 143.838 91.5981 144.363 91.5981C144.888 91.5981 145.316 92.026 145.316 92.5515Z" stroke="#FF4D6B" stroke-width="0.561576" stroke-miterlimit="10"/>
<path d="M58.1796 23.5654H23.707V27.1611H58.1796V23.5654Z" stroke="#289DF2" stroke-width="0.561576" stroke-miterlimit="10"/>
<path d="M46.5462 24.729H25.1875V25.7874H46.5462V24.729Z" fill="#289DF2"/>
<path d="M78.2686 51.6396H53.0312V52.9083H78.2686V51.6396Z" fill="#284D89"/>
<path d="M64.4683 51.6396H53.0312V52.9083H64.4683V51.6396Z" fill="#2889DB"/>
<path d="M78.2686 54.916H53.0312V56.1846H78.2686V54.916Z" fill="#284D89"/>
<path d="M70.6014 54.916H53.0312V56.1846H70.6014V54.916Z" fill="#FF4D6B"/>
<path d="M78.2686 58.1973H53.0312V59.4659H78.2686V58.1973Z" fill="#284D89"/>
<path d="M58.1777 58.1973H53.0312V59.4659H58.1777V58.1973Z" fill="#1AE5FF"/>
<path d="M53.6358 49.418H53.1406V49.9134H53.6358V49.418Z" fill="#284D89"/>
<path d="M55.3272 49.418H54.832V49.9134H55.3272V49.418Z" fill="#284D89"/>
<path d="M57.0186 49.418H56.5234V49.9134H57.0186V49.418Z" fill="#284D89"/>
<path d="M100.923 66.7095H100.102V67.5314H100.923V66.7095Z" fill="white"/>
<path d="M103.743 66.7095H102.922V67.5314H103.743V66.7095Z" fill="white"/>
<path d="M106.564 66.7095H105.742V67.5314H106.564V66.7095Z" fill="white"/>
<path d="M113.514 34.0073H111.973V35.5499H113.514V34.0073Z" fill="white"/>
<path d="M118.803 34.0073H117.262V35.5499H118.803V34.0073Z" fill="white"/>
<path d="M124.089 34.0073H122.547V35.5499H124.089V34.0073Z" fill="white"/>
<path d="M91.6628 97.7754H90.1211V99.318H91.6628V97.7754Z" fill="white"/>
<path d="M96.9519 97.7754H95.4102V99.318H96.9519V97.7754Z" fill="white"/>
<path d="M102.237 97.7754H100.695V99.318H102.237V97.7754Z" fill="white"/>
<path d="M26.2434 55.0483H25.4219V55.8703H26.2434V55.0483Z" fill="white"/>
<path d="M29.0598 55.0483H28.2383V55.8703H29.0598V55.0483Z" fill="white"/>
<path d="M31.8801 55.0483H31.0586V55.8703H31.8801V55.0483Z" fill="white"/>
<path d="M140.731 54.0381H127.055V55.378H140.731V54.0381Z" fill="white"/>
<path d="M131.113 56.3989H127.055V57.7389H131.113V56.3989Z" fill="#287DD1"/>
<path d="M16.7311 56.7893H13.7678V53.8242H11.0182V56.7893H8.05859V59.5367H11.0182V62.5018H13.7678V59.5367H16.7311V56.7893Z" fill="#1AE5FF"/>
<path d="M8.80482 65.0397H7.00054V63.2344H5.32381V65.0397H3.51953V66.7174H5.32381V68.5265H7.00054V66.7174H8.80482V65.0397Z" fill="#2889DB"/>
<path d="M58.2187 63.4629C55.6604 63.4629 53.5898 65.5385 53.5898 68.0945C53.5898 70.6504 55.6642 72.726 58.2187 72.726C60.7732 72.726 62.8475 70.6504 62.8475 68.0945C62.8475 65.5385 60.7732 63.4629 58.2187 63.4629ZM58.2187 70.5116C56.8871 70.5116 55.8067 69.4306 55.8067 68.0982C55.8067 66.7658 56.8871 65.6848 58.2187 65.6848C59.5503 65.6848 60.6306 66.7658 60.6306 68.0982C60.6306 69.4306 59.5503 70.5116 58.2187 70.5116Z" fill="#284D89"/>
<path d="M55.0683 67.6405C55.4996 67.6405 55.8747 67.3852 56.0698 67.0024C56.4674 66.2217 57.2814 65.685 58.2192 65.685C59.1569 65.685 59.9709 66.2217 60.3685 67.0024C60.5636 67.3852 60.9425 67.6405 61.3701 67.6405C62.1803 67.6405 62.7355 66.7922 62.3791 66.0641C61.6252 64.5252 60.046 63.4668 58.2192 63.4668C56.3924 63.4668 54.8132 64.5252 54.0592 66.0641C53.7029 66.7922 54.258 67.6405 55.0683 67.6405Z" fill="#289DF2"/>
<path d="M65.9961 68.0984C65.9961 70.6581 68.0704 72.7299 70.6249 72.7299C73.1794 72.7299 75.2538 70.6544 75.2538 68.0984C75.2538 65.5424 73.1794 63.4668 70.6249 63.4668C68.0704 63.4668 65.9961 65.5424 65.9961 68.0984ZM73.0406 68.0984C73.0406 69.4308 71.9603 70.5117 70.6287 70.5117C69.2971 70.5117 68.2167 69.4308 68.2167 68.0984C68.2167 66.7659 69.2971 65.685 70.6287 65.685C71.9603 65.685 73.0406 66.7659 73.0406 68.0984Z" fill="#284D89"/>
<path d="M70.1712 71.2514C70.1712 70.8198 69.9161 70.4444 69.5335 70.2493C68.7533 69.8514 68.2169 69.037 68.2169 68.0986C68.2169 67.1603 68.7533 66.3458 69.5335 65.948C69.9161 65.7528 70.1712 65.3737 70.1712 64.9459C70.1712 64.1352 69.3235 63.5797 68.5958 63.9362C67.0578 64.6906 66 66.2708 66 68.0986C66 69.9265 67.0578 71.5066 68.5958 72.261C69.3235 72.6176 70.1712 72.0621 70.1712 71.2514Z" fill="#FF4D6B"/>
<path d="M44.9978 49.8047H36.5391V70.1213H44.9978V49.8047Z" stroke="#289DF2" stroke-width="0.561576" stroke-miterlimit="10"/>
<path d="M40.2065 53.7188H37.7383V54.4469H40.2065V53.7188Z" fill="#1AE5FF"/>
<path d="M40.2065 55.3477H37.7383V56.0758H40.2065V55.3477Z" fill="#1AE5FF"/>
<path d="M40.2065 56.9727H37.7383V57.7008H40.2065V56.9727Z" fill="#1AE5FF"/>
<path d="M40.2065 65.4404H37.7383V66.1686H40.2065V65.4404Z" fill="#1AE5FF"/>
<path d="M41.3318 59.3608H37.7383V60.089H41.3318V59.3608Z" fill="#1AE5FF"/>
<path d="M41.3318 60.9897H37.7383V61.7179H41.3318V60.9897Z" fill="white"/>
<path d="M41.3318 62.6191H37.7383V63.3473H41.3318V62.6191Z" fill="white"/>
<path d="M16.9395 75.1992H6.22266V85.9224H16.9395V75.1992Z" fill="#289DF2"/>
<path d="M11.3028 77.7368H0.585938V88.46H11.3028V77.7368Z" stroke="#289DF2" stroke-width="0.561576" stroke-miterlimit="10"/>
<path d="M138.196 106.236H133.684V110.751H138.196V106.236Z" stroke="#289DF2" stroke-width="0.561576" stroke-miterlimit="10"/>
<path d="M79.5469 99.1122H83.3542L85.4698 101.229H107.462L110.846 97.8398H122.692" stroke="white" stroke-width="0.561576" stroke-miterlimit="10"/>
<path d="M78.4345 100.276C79.0478 100.276 79.5449 99.7783 79.5449 99.1647C79.5449 98.5511 79.0478 98.0537 78.4345 98.0537C77.8213 98.0537 77.3242 98.5511 77.3242 99.1647C77.3242 99.7783 77.8213 100.276 78.4345 100.276Z" stroke="white" stroke-width="0.561576" stroke-miterlimit="10"/>
<path d="M123.833 98.8982C124.446 98.8982 124.943 98.4008 124.943 97.7872C124.943 97.1737 124.446 96.6763 123.833 96.6763C123.22 96.6763 122.723 97.1737 122.723 97.7872C122.723 98.4008 123.22 98.8982 123.833 98.8982Z" stroke="white" stroke-width="0.561576" stroke-miterlimit="10"/>
<path d="M138.762 39.3629C138.762 40.1436 138.132 40.7741 137.352 40.7741C136.572 40.7741 135.941 40.1436 135.941 39.3629C135.941 38.5822 136.572 37.9517 137.352 37.9517C138.132 37.9517 138.762 38.5822 138.762 39.3629Z" fill="#289DF2"/>
<path d="M8.48098 94.3863C8.48098 95.167 7.85079 95.7976 7.07057 95.7976C6.29034 95.7976 5.66016 95.167 5.66016 94.3863C5.66016 93.6057 6.29034 92.9751 7.07057 92.9751C7.85079 92.9751 8.48098 93.6057 8.48098 94.3863Z" fill="#FF4D6B"/>
<path d="M14.9677 99.6035C14.9677 100.966 13.8649 102.073 12.4995 102.073C11.1341 102.073 10.0312 100.97 10.0312 99.6035C10.0312 98.2373 11.1378 97.1338 12.4995 97.1338C13.8611 97.1338 14.9677 98.241 14.9677 99.6035Z" fill="#FF4D6B"/>
<path d="M98.998 107.928H89.1289V110.184H98.998V107.928Z" stroke="#289DF2" stroke-width="0.561576" stroke-miterlimit="10"/>
<path d="M110.773 112.162H89.1289V114.418H110.773V112.162Z" stroke="#289DF2" stroke-width="0.561576" stroke-miterlimit="10"/>
<path d="M28.6668 110.09L26.2773 112.484" stroke="#289DF2" stroke-width="0.561576" stroke-linecap="round" stroke-linejoin="round"/>
<path d="M30.9713 110.09L28.5781 112.484" stroke="#289DF2" stroke-width="0.561576" stroke-linecap="round" stroke-linejoin="round"/>
<path d="M33.2682 110.09L30.875 112.484" stroke="#289DF2" stroke-width="0.561576" stroke-linecap="round" stroke-linejoin="round"/>
<path d="M35.569 110.09L33.1758 112.484" stroke="#289DF2" stroke-width="0.561576" stroke-linecap="round" stroke-linejoin="round"/>
<path d="M37.8698 110.09L35.4766 112.484" stroke="#289DF2" stroke-width="0.561576" stroke-linecap="round" stroke-linejoin="round"/>
</svg>
