<svg width="471" height="360" viewBox="0 0 471 360" fill="none" xmlns="http://www.w3.org/2000/svg">
<path opacity="0.22" d="M240.197 325.862C252.424 328.018 262.619 328.159 262.969 326.176C263.319 324.193 253.69 320.838 241.463 318.682C229.236 316.527 219.041 316.386 218.691 318.369C218.342 320.351 227.97 323.706 240.197 325.862Z" fill="#9FAAD4"/>
<path opacity="0.22" d="M93.5526 297.19C105.78 299.346 115.975 299.487 116.325 297.504C116.674 295.522 107.046 292.167 94.8186 290.011C82.5916 287.855 72.3963 287.714 72.0467 289.697C71.6971 291.679 81.3257 295.034 93.5526 297.19Z" fill="#9FAAD4"/>
<path opacity="0.43" d="M394.709 186.471L384.262 164.531L366.731 181.538L372.57 182.568L360.813 249.244L377.323 252.155L389.08 185.479L394.709 186.471Z" fill="url(#paint0_linear_2782_12284)"/>
<path opacity="0.43" d="M418.887 216.371L412.951 203.904L402.992 213.569L406.309 214.154L399.63 252.034L409.01 253.687L415.689 215.807L418.887 216.371Z" fill="url(#paint1_linear_2782_12284)"/>
<path opacity="0.3" d="M380.821 328.289C395.728 330.917 408.074 331.563 408.397 329.731C408.72 327.899 396.898 324.283 381.991 321.655C367.084 319.026 354.738 318.381 354.415 320.213C354.092 322.045 365.915 325.66 380.821 328.289Z" fill="#9FAAD4"/>
<path opacity="0.25" d="M436.748 280.015C436.516 291.869 431.773 303.189 423.485 311.668C415.197 320.146 403.988 325.146 392.142 325.647C380.296 326.149 368.705 322.115 359.73 314.367C350.755 306.619 345.072 295.741 343.838 283.949C342.605 272.157 345.914 260.338 353.092 250.901C360.27 241.464 370.776 235.119 382.469 233.159C394.162 231.198 406.163 233.77 416.026 240.351C425.889 246.931 432.872 257.024 435.551 268.574C436.42 272.324 436.822 276.167 436.748 280.015Z" fill="#091D7B"/>
<path d="M433.849 279.962C433.616 291.812 428.872 303.128 420.586 311.603C412.3 320.078 401.094 325.075 389.251 325.575C377.409 326.076 365.822 322.042 356.85 314.296C347.878 306.55 342.198 295.675 340.965 283.886C339.733 272.097 343.042 260.282 350.218 250.849C357.394 241.415 367.897 235.072 379.587 233.113C391.277 231.153 403.274 233.725 413.134 240.303C422.993 246.882 429.974 256.972 432.653 268.518C433.518 272.269 433.92 276.113 433.849 279.962Z" fill="#E34899"/>
<path d="M410.397 312.178C428.66 299.39 433.098 274.218 420.31 255.955C407.523 237.692 382.351 233.253 364.088 246.041C345.825 258.829 341.386 284.001 354.174 302.264C366.962 320.527 392.134 324.965 410.397 312.178Z" fill="white"/>
<path d="M381.317 312.704C399.871 315.975 417.564 303.587 420.835 285.033C424.106 266.479 411.718 248.787 393.164 245.515C374.611 242.244 356.918 254.632 353.647 273.186C350.375 291.739 362.764 309.432 381.317 312.704Z" fill="#E34899"/>
<path d="M401.094 298.896C412.022 291.244 414.678 276.182 407.026 265.254C399.375 254.326 384.313 251.67 373.385 259.322C362.457 266.974 359.801 282.036 367.453 292.964C375.104 303.892 390.166 306.548 401.094 298.896Z" fill="white"/>
<path d="M397.458 288.922C402.877 283.282 402.697 274.317 397.056 268.899C391.416 263.48 382.452 263.66 377.033 269.301C371.615 274.941 371.795 283.906 377.435 289.324C383.075 294.742 392.04 294.562 397.458 288.922Z" fill="#E34899"/>
<path d="M398.392 284.065C401.135 277.793 398.274 270.486 392.003 267.743C385.731 265 378.423 267.861 375.681 274.133C372.938 280.405 375.799 287.712 382.071 290.455C388.342 293.197 395.65 290.336 398.392 284.065Z" fill="white"/>
<path d="M390.333 279.167C390.321 279.816 390.116 280.446 389.746 280.979C389.375 281.511 388.855 281.922 388.251 282.159C387.647 282.396 386.986 282.449 386.352 282.311C385.719 282.172 385.14 281.849 384.69 281.382C384.239 280.915 383.938 280.325 383.823 279.686C383.708 279.047 383.785 278.389 384.044 277.794C384.303 277.199 384.733 276.695 385.279 276.344C385.825 275.993 386.462 275.813 387.111 275.824C387.542 275.832 387.967 275.925 388.363 276.097C388.758 276.269 389.116 276.517 389.415 276.828C389.714 277.138 389.949 277.505 390.107 277.906C390.264 278.307 390.341 278.736 390.333 279.167Z" fill="#E34899"/>
<path opacity="0.25" d="M433.849 279.962C433.809 282.186 433.611 284.404 433.257 286.599C428.851 286.041 424.805 283.878 421.893 280.524L421.226 279.75C421.017 279.539 420.812 279.319 420.609 279.106L411.728 279.817C411.642 280.021 411.501 280.199 411.32 280.329C411.14 280.459 410.927 280.537 410.706 280.555L397.487 281.61C397.176 281.636 396.863 281.599 396.567 281.5C396.271 281.402 395.998 281.245 395.764 281.038C395.568 280.866 395.402 280.662 395.273 280.434L387.181 279.771L395.174 278.336C395.23 278.206 395.299 278.082 395.379 277.965C395.59 277.659 395.87 277.407 396.198 277.232C396.526 277.057 396.891 276.963 397.263 276.958L410.521 276.741C410.743 276.737 410.962 276.794 411.154 276.907C411.346 277.019 411.503 277.182 411.609 277.377L420.572 277.233C420.777 276.95 420.991 276.677 421.215 276.411L421.817 275.58C424.432 271.967 428.292 269.452 432.653 268.518C433.522 272.269 433.924 276.113 433.849 279.962Z" fill="#091D7B"/>
<path d="M414.523 260.45L427.166 252.544L427.656 248.715L427.859 247.125C427.928 246.586 427.841 246.038 427.609 245.546C427.376 245.055 427.008 244.64 426.547 244.352C426.086 244.063 425.552 243.913 425.009 243.918C424.465 243.923 423.934 244.084 423.479 244.381L422.795 244.829C420.505 246.329 418.586 248.33 417.183 250.681C415.78 253.032 414.93 255.671 414.697 258.399L414.611 259.418L414.526 260.432L414.523 260.45Z" fill="url(#paint2_linear_2782_12284)"/>
<path opacity="0.25" d="M414.523 260.45L427.166 252.544L427.656 248.715L427.859 247.125C427.928 246.586 427.841 246.038 427.609 245.546C427.376 245.055 427.008 244.64 426.547 244.352C426.086 244.063 425.552 243.913 425.009 243.918C424.465 243.923 423.934 244.084 423.479 244.381L422.795 244.829C420.505 246.329 418.586 248.33 417.183 250.681C415.78 253.032 414.93 255.671 414.697 258.399L414.611 259.418L414.526 260.432L414.523 260.45Z" fill="#091D7B"/>
<path d="M414.524 260.439L427.167 252.534L427.641 249.272C427.666 249.084 427.671 248.894 427.658 248.705C427.622 248.21 427.457 247.734 427.18 247.323C426.904 246.912 426.524 246.58 426.08 246.361C425.636 246.141 425.142 246.041 424.648 246.071C424.153 246.101 423.675 246.26 423.26 246.531L422.576 246.978C420.446 248.372 418.636 250.201 417.263 252.345C415.89 254.488 414.986 256.898 414.611 259.415C414.551 259.756 414.519 260.106 414.487 260.451L414.524 260.439Z" fill="url(#paint3_linear_2782_12284)"/>
<path d="M414.528 260.453L427.171 252.545L414.53 260.44L414.528 260.453Z" fill="url(#paint4_linear_2782_12284)"/>
<path d="M395.111 275.984L393.84 274.094L387.228 279.907L395.111 275.984Z" fill="#091D7B"/>
<path d="M415.38 261.98L427.554 253.376L431.273 254.404L432.818 254.832C433.342 254.977 433.813 255.269 434.176 255.673C434.539 256.078 434.779 256.578 434.867 257.114C434.955 257.651 434.888 258.201 434.673 258.7C434.458 259.2 434.104 259.627 433.654 259.932L432.979 260.388C430.709 261.923 428.119 262.92 425.406 263.305C422.693 263.689 419.928 263.452 417.321 262.609L416.346 262.292L415.38 261.983L415.38 261.98Z" fill="url(#paint5_linear_2782_12284)"/>
<path opacity="0.25" d="M415.38 261.98L427.554 253.376L431.273 254.404L432.818 254.832C433.342 254.977 433.813 255.269 434.176 255.673C434.539 256.078 434.779 256.578 434.867 257.114C434.955 257.651 434.888 258.201 434.673 258.7C434.458 259.2 434.104 259.627 433.654 259.932L432.979 260.388C430.709 261.923 428.119 262.92 425.406 263.305C422.693 263.689 419.928 263.452 417.321 262.609L416.346 262.292L415.38 261.983L415.38 261.98Z" fill="#091D7B"/>
<path d="M415.393 261.984L427.555 253.375L427.526 253.311L430.744 254.2C430.926 254.25 431.104 254.318 431.273 254.403C431.715 254.628 432.091 254.964 432.363 255.378C432.635 255.792 432.794 256.27 432.825 256.764C432.856 257.259 432.757 257.753 432.538 258.198C432.319 258.642 431.988 259.022 431.577 259.299L430.902 259.756C428.792 261.179 426.405 262.139 423.898 262.574C421.39 263.009 418.819 262.909 416.353 262.28C416.017 262.196 415.683 262.1 415.351 261.996L415.393 261.984Z" fill="url(#paint6_linear_2782_12284)"/>
<path d="M415.38 261.98L427.562 253.378L415.393 261.983L415.38 261.98Z" fill="url(#paint7_linear_2782_12284)"/>
<path d="M394.084 275.296C394.21 275.483 394.373 275.641 394.561 275.764C394.75 275.886 394.962 275.969 395.184 276.008C395.405 276.047 395.632 276.041 395.852 275.991C396.071 275.941 396.278 275.847 396.46 275.716L427.861 253.16C427.957 253.09 428.022 252.986 428.043 252.869C428.064 252.752 428.038 252.632 427.971 252.533C427.905 252.434 427.803 252.365 427.686 252.34C427.57 252.315 427.448 252.336 427.347 252.399L394.577 272.938C394.387 273.058 394.224 273.216 394.096 273.4C393.968 273.585 393.878 273.793 393.832 274.013C393.786 274.233 393.785 274.46 393.828 274.68C393.871 274.901 393.958 275.11 394.084 275.296Z" fill="#091D7B"/>
<path d="M394.399 272.28C394.083 272.477 393.819 272.748 393.63 273.068C393.44 273.388 393.33 273.749 393.308 274.121C393.283 274.518 393.361 274.915 393.536 275.273C393.685 275.578 393.899 275.848 394.163 276.062C394.426 276.277 394.734 276.431 395.063 276.515C395.393 276.599 395.736 276.609 396.07 276.546C396.405 276.484 396.721 276.348 396.997 276.151L407.766 268.408C408.022 268.222 408.195 267.945 408.25 267.634C408.305 267.324 408.236 267.004 408.06 266.743L407.281 265.585C407.105 265.323 406.834 265.141 406.526 265.075C406.218 265.009 405.897 265.065 405.629 265.232L394.399 272.28Z" fill="url(#paint8_linear_2782_12284)"/>
<path d="M345.158 70.3224L355.372 72.1233C357.204 72.4463 358.832 73.4838 359.899 75.0075C360.966 76.5312 361.384 78.4163 361.061 80.2481L346.658 161.928L322.634 157.692L337.036 76.0093C337.36 74.1785 338.397 72.551 339.92 71.4847C341.443 70.4183 343.327 70.0002 345.158 70.3224Z" fill="#28B5C8"/>
<path d="M89.5598 80.3517C90.4141 79.6988 92.066 78.5331 93.3702 78.1845C95.2117 77.6897 96.5076 74.9881 97.1285 75.0976C97.7493 75.2071 97.2086 76.633 96.5712 77.924C95.9337 79.2151 94.4364 80.4161 95.3602 80.812C96.2841 81.2079 99.8981 81.6122 99.8981 81.6122C99.8981 81.6122 99.7196 89.5969 97.5881 89.746C95.4567 89.8951 90.523 88.8029 89.3757 88.3676C88.442 88.0127 87.4224 87.142 87.0732 86.8286C87.034 86.7936 87.0046 86.7489 86.988 86.699C86.9714 86.6491 86.9683 86.5957 86.9788 86.5441L87.964 80.9568C87.9773 80.8846 88.0161 80.8196 88.0734 80.7736C88.1307 80.7277 88.2025 80.7038 88.2759 80.7065C88.7306 80.7262 89.1798 80.6021 89.5598 80.3517Z" fill="#A9E1F2"/>
<path d="M100.93 83.0071C100.889 83.2393 100.78 83.4542 100.617 83.6245C100.454 83.7948 100.244 83.913 100.014 83.964C99.784 84.015 99.5438 83.9967 99.324 83.9112C99.1043 83.8257 98.9148 83.677 98.7795 83.4839C98.6443 83.2907 98.5694 83.0618 98.5642 82.8261C98.5591 82.5903 98.6239 82.3584 98.7506 82.1595C98.8773 81.9606 99.0601 81.8038 99.276 81.7088C99.4918 81.6139 99.7309 81.585 99.9632 81.626C100.275 81.6809 100.551 81.8572 100.733 82.1162C100.914 82.3753 100.985 82.6957 100.93 83.0071Z" fill="#A9E1F2"/>
<path d="M100.801 85.4036C100.76 85.6358 100.651 85.8506 100.488 86.021C100.325 86.1913 100.115 86.3095 99.8853 86.3605C99.6551 86.4115 99.4149 86.3932 99.1951 86.3077C98.9754 86.2222 98.7859 86.0735 98.6506 85.8804C98.5154 85.6872 98.4404 85.4583 98.4353 85.2226C98.4302 84.9868 98.495 84.7548 98.6217 84.556C98.7484 84.3571 98.9312 84.2003 99.1471 84.1053C99.3629 84.0103 99.602 83.9815 99.8342 84.0225C99.9886 84.0493 100.136 84.1064 100.268 84.1904C100.401 84.2745 100.515 84.3838 100.605 84.5121C100.695 84.6404 100.758 84.7852 100.792 84.9382C100.826 85.0912 100.829 85.2494 100.801 85.4036Z" fill="#A9E1F2"/>
<path d="M100.27 87.5812C100.234 87.7867 100.137 87.9769 99.9929 88.1276C99.8486 88.2783 99.6629 88.3829 99.4592 88.4281C99.2554 88.4732 99.0429 88.457 98.8484 88.3813C98.6539 88.3057 98.4863 88.1741 98.3666 88.0032C98.2469 87.8322 98.1806 87.6296 98.176 87.421C98.1715 87.2124 98.2289 87.0071 98.341 86.8311C98.4531 86.6551 98.6149 86.5164 98.8059 86.4323C98.9969 86.3483 99.2085 86.3228 99.414 86.359C99.6896 86.4076 99.9346 86.5636 100.095 86.7929C100.256 87.0221 100.318 87.3057 100.27 87.5812Z" fill="#A9E1F2"/>
<path d="M99.2372 89.1586C99.2049 89.3414 99.1192 89.5107 98.9908 89.6448C98.8623 89.779 98.697 89.872 98.5157 89.9122C98.3344 89.9524 98.1452 89.938 97.9721 89.8706C97.799 89.8033 97.6498 89.6862 97.5433 89.5341C97.4368 89.382 97.3777 89.2017 97.3737 89.016C97.3696 88.8303 97.4207 88.6476 97.5205 88.491C97.6203 88.3343 97.7643 88.2108 97.9343 88.136C98.1043 88.0612 98.2926 88.0385 98.4755 88.0708C98.5969 88.0922 98.713 88.1373 98.817 88.2036C98.921 88.2698 99.0109 88.3559 99.0816 88.4569C99.1524 88.5579 99.2025 88.6719 99.2292 88.7923C99.2559 88.9126 99.2586 89.0371 99.2372 89.1586Z" fill="#A9E1F2"/>
<path d="M97.9344 89.9247L95.6851 89.6941L95.8477 88.772L99.04 89.3349L98.8546 89.5513C98.7436 89.6842 98.6016 89.7879 98.4412 89.853C98.2807 89.9181 98.1066 89.9427 97.9344 89.9247Z" fill="#A9E1F2"/>
<path d="M86.8967 80.5332L85.4758 80.2827C85.3123 80.2538 85.1563 80.3631 85.1275 80.5266L84.1702 85.9555C84.1414 86.119 84.2506 86.275 84.4141 86.3038L85.835 86.5543C85.9985 86.5832 86.1545 86.474 86.1833 86.3104L87.1406 80.8816C87.1694 80.718 87.0602 80.5621 86.8967 80.5332Z" fill="#A9E1F2"/>
<path d="M151.393 52.8884L148.816 52.4341L147.864 57.8344L150.441 58.2887L151.393 52.8884Z" fill="#A9E1F2"/>
<path d="M145.889 50.6448L143.312 50.1904L142.143 56.8246L144.719 57.2789L145.889 50.6448Z" fill="#A9E1F2"/>
<path d="M140.671 46.699L138.094 46.2446L136.406 55.814L138.983 56.2684L140.671 46.699Z" fill="#A9E1F2"/>
<path d="M134.604 47.6218L132.027 47.1675L130.681 54.8043L133.258 55.2586L134.604 47.6218Z" fill="#A9E1F2"/>
<path d="M128.159 50.6951L125.582 50.2407L124.955 53.7968L127.532 54.2511L128.159 50.6951Z" fill="#A9E1F2"/>
<path d="M179.725 59.7878L177.148 59.3335L176.521 62.8895L179.098 63.3439L179.725 59.7878Z" fill="#A9E1F2"/>
<path d="M174.678 54.7708L172.102 54.3164L170.769 61.8753L173.345 62.3296L174.678 54.7708Z" fill="#A9E1F2"/>
<path d="M169.631 49.9006L167.055 49.4463L165.041 60.8651L167.618 61.3195L169.631 49.9006Z" fill="#A9E1F2"/>
<path d="M164.323 46.5144L161.746 46.0601L159.314 59.8556L161.89 60.31L164.323 46.5144Z" fill="#A9E1F2"/>
<path d="M157.878 49.5852L155.301 49.1309L153.588 58.8457L156.165 59.3L157.878 49.5852Z" fill="#A9E1F2"/>
<path d="M181.996 66.0055L121.32 55.3066L121.181 56.0963L181.857 66.7951L181.996 66.0055Z" fill="#A9E1F2"/>
<path d="M378.561 137.211C376.927 136.923 375.414 136.156 374.215 135.008C373.016 133.86 372.184 132.382 371.825 130.761C371.466 129.141 371.595 127.45 372.197 125.903C372.799 124.356 373.846 123.022 375.206 122.07C376.566 121.118 378.178 120.59 379.837 120.555C381.497 120.519 383.13 120.976 384.53 121.868C385.93 122.76 387.034 124.048 387.702 125.567C388.37 127.087 388.573 128.771 388.284 130.405C387.895 132.596 386.653 134.543 384.83 135.819C383.007 137.094 380.753 137.595 378.561 137.211ZM381.269 121.854C379.866 121.607 378.421 121.781 377.117 122.355C375.813 122.929 374.709 123.876 373.943 125.078C373.178 126.279 372.786 127.681 372.817 129.105C372.848 130.53 373.301 131.913 374.118 133.08C374.935 134.247 376.08 135.145 377.408 135.662C378.736 136.178 380.187 136.289 381.578 135.981C382.968 135.672 384.237 134.958 385.222 133.929C386.207 132.9 386.865 131.602 387.112 130.199C387.442 128.318 387.012 126.383 385.916 124.818C384.821 123.254 383.15 122.188 381.269 121.854Z" fill="#A9E1F2"/>
<path d="M378.834 133.826L378.911 133.384C378.479 133.264 378.07 133.071 377.703 132.812C377.387 132.56 377.144 132.228 377.002 131.85C376.89 131.576 376.827 131.285 376.813 130.989C376.808 130.915 376.818 130.84 376.843 130.769C376.867 130.698 376.906 130.633 376.957 130.578C377.007 130.523 377.069 130.478 377.137 130.447C377.205 130.417 377.279 130.4 377.354 130.399L377.37 130.402C377.507 130.399 377.64 130.449 377.742 130.541C377.844 130.634 377.908 130.761 377.92 130.898C377.933 131.176 378.001 131.45 378.121 131.702C378.214 131.894 378.346 132.065 378.509 132.204C378.671 132.343 378.861 132.447 379.066 132.509L379.65 129.194C379.205 129.019 378.79 128.774 378.423 128.466C378.129 128.229 377.911 127.911 377.794 127.552C377.635 127.033 377.649 126.475 377.836 125.965C378.022 125.455 378.371 125.02 378.828 124.726C379.337 124.459 379.917 124.357 380.487 124.435L380.572 123.952C380.579 123.912 380.594 123.873 380.616 123.839C380.638 123.804 380.666 123.774 380.7 123.751C380.733 123.727 380.771 123.711 380.811 123.702C380.851 123.693 380.892 123.692 380.932 123.699C381.014 123.714 381.086 123.76 381.133 123.827C381.181 123.895 381.199 123.979 381.185 124.06L381.1 124.543C381.618 124.661 382.088 124.935 382.445 125.329C382.699 125.627 382.871 125.986 382.944 126.371C382.958 126.451 382.955 126.533 382.933 126.612C382.911 126.69 382.873 126.763 382.819 126.825C382.766 126.886 382.7 126.935 382.625 126.968C382.551 127.001 382.47 127.017 382.389 127.015C382.26 127.015 382.136 126.969 382.04 126.884C381.943 126.799 381.881 126.683 381.864 126.555C381.84 126.354 381.774 126.16 381.67 125.986C381.498 125.721 381.244 125.52 380.946 125.413L380.417 128.416C380.755 128.559 381.084 128.722 381.402 128.906C381.669 129.081 381.902 129.304 382.089 129.563C382.26 129.805 382.376 130.082 382.431 130.373C382.493 130.684 382.495 131.004 382.436 131.317C382.39 131.652 382.276 131.975 382.103 132.267C381.93 132.558 381.7 132.812 381.427 133.013C381.154 133.213 380.843 133.358 380.514 133.437C380.185 133.517 379.843 133.531 379.508 133.478L379.428 133.93C379.422 133.971 379.407 134.01 379.385 134.045C379.363 134.079 379.335 134.109 379.301 134.133C379.267 134.157 379.23 134.174 379.189 134.183C379.149 134.192 379.108 134.193 379.067 134.186C378.99 134.167 378.922 134.119 378.879 134.052C378.835 133.985 378.819 133.904 378.834 133.826ZM380.335 125.308C379.961 125.287 379.591 125.399 379.291 125.625C379.031 125.838 378.852 126.134 378.784 126.463C378.717 126.793 378.764 127.136 378.919 127.434C379.143 127.766 379.459 128.027 379.828 128.184L380.335 125.308ZM379.679 132.614C380.074 132.642 380.465 132.52 380.774 132.271C381.096 132.01 381.308 131.636 381.368 131.225C381.441 130.9 381.399 130.56 381.248 130.263C380.989 129.907 380.64 129.627 380.237 129.45L379.679 132.614Z" fill="#A9E1F2"/>
<path d="M389.055 136.53L382.945 132.946L384.332 139.891L385.667 138.94L388.262 142.588L390.314 141.128L387.719 137.481L389.055 136.53Z" fill="#A9E1F2"/>
<path opacity="0.22" d="M203.437 299.837C275.828 312.602 335.034 319.987 335.679 316.333C336.323 312.679 278.161 299.37 205.77 286.605C133.38 273.841 74.173 266.455 73.5287 270.109C72.8845 273.763 131.046 287.073 203.437 299.837Z" fill="#9FAAD4"/>
<path d="M140.466 114.097C140.408 114.426 140.255 114.73 140.024 114.972C139.793 115.213 139.496 115.381 139.17 115.454C138.844 115.526 138.504 115.501 138.193 115.38C137.881 115.259 137.613 115.049 137.421 114.775C137.229 114.502 137.123 114.178 137.115 113.844C137.108 113.51 137.199 113.181 137.379 112.9C137.558 112.618 137.817 112.396 138.123 112.261C138.428 112.127 138.767 112.086 139.096 112.144C139.536 112.221 139.928 112.471 140.185 112.837C140.442 113.203 140.543 113.656 140.466 114.097Z" fill="#004B6A"/>
<path d="M131.269 112.476C131.211 112.804 131.057 113.108 130.827 113.348C130.596 113.589 130.3 113.756 129.974 113.828C129.649 113.901 129.309 113.875 128.998 113.754C128.688 113.633 128.42 113.423 128.229 113.15C128.038 112.877 127.932 112.553 127.924 112.22C127.917 111.886 128.009 111.559 128.188 111.277C128.367 110.996 128.625 110.775 128.931 110.64C129.236 110.506 129.574 110.465 129.902 110.523C130.342 110.601 130.733 110.851 130.989 111.217C131.245 111.583 131.346 112.036 131.269 112.476Z" fill="#004B6A"/>
<path d="M122.071 110.854C122.014 111.183 121.86 111.488 121.629 111.729C121.398 111.971 121.101 112.139 120.775 112.211C120.449 112.284 120.109 112.258 119.797 112.137C119.486 112.016 119.217 111.805 119.026 111.532C118.834 111.258 118.728 110.934 118.721 110.6C118.714 110.266 118.806 109.937 118.985 109.655C119.165 109.374 119.424 109.152 119.73 109.018C120.036 108.883 120.375 108.843 120.704 108.902C121.144 108.98 121.535 109.229 121.791 109.595C122.047 109.961 122.148 110.414 122.071 110.854Z" fill="#004B6A"/>
<path d="M352.984 150.76L326.31 302.034C326.081 303.324 325.35 304.47 324.277 305.221C323.204 305.972 321.877 306.267 320.587 306.041L91.2415 265.602C90.6023 265.49 89.9914 265.253 89.4439 264.904C88.8964 264.556 88.423 264.103 88.0508 263.571C87.6785 263.04 87.4148 262.44 87.2747 261.806C87.1346 261.173 87.1208 260.517 87.2342 259.878L113.908 108.605C114.02 107.966 114.257 107.355 114.605 106.807C114.954 106.26 115.407 105.786 115.938 105.414C116.47 105.042 117.069 104.778 117.703 104.638C118.337 104.498 118.992 104.484 119.631 104.598L348.979 145.038C349.065 145.053 349.148 145.068 349.239 145.084L349.495 145.15C349.575 145.164 349.655 145.197 349.731 145.224L349.877 145.277L350.03 145.336L350.144 145.385L350.214 145.414L350.38 145.494C350.532 145.572 350.68 145.659 350.824 145.752C350.961 145.836 351.091 145.929 351.214 146.032C351.268 146.074 351.322 146.118 351.371 146.161C351.419 146.205 351.475 146.252 351.526 146.301L351.669 146.444C351.712 146.487 351.755 146.532 351.795 146.579C351.835 146.626 351.894 146.687 351.942 146.747C351.991 146.806 352.029 146.85 352.07 146.906C352.191 147.063 352.302 147.228 352.403 147.399C352.428 147.441 352.45 147.485 352.472 147.526C352.523 147.618 352.571 147.709 352.615 147.806C352.66 147.902 352.668 147.919 352.69 147.974C352.716 148.03 352.739 148.086 352.759 148.144C352.776 148.185 352.791 148.225 352.803 148.262C352.826 148.33 352.848 148.398 352.868 148.469C352.895 148.547 352.918 148.627 352.936 148.708C352.947 148.748 352.957 148.787 352.965 148.829C352.974 148.871 352.995 148.979 353.008 149.056C353.021 149.133 353.032 149.208 353.043 149.284C353.07 149.492 353.081 149.7 353.077 149.909C353.065 149.982 353.075 150.059 353.073 150.131C353.072 150.145 353.07 150.159 353.066 150.172C353.053 150.248 353.054 150.328 353.046 150.405C353.04 150.454 353.032 150.502 353.021 150.55C353.007 150.631 352.996 150.693 352.984 150.76Z" fill="#DCF4FE"/>
<path d="M90.3337 270.734C87.6837 270.263 85.3286 268.761 83.7849 266.556C82.2411 264.351 81.6347 261.624 82.0986 258.973L108.772 107.7C109.243 105.05 110.746 102.695 112.95 101.151C115.155 99.6071 117.882 99.0006 120.533 99.4646L349.881 139.905C350.071 139.938 350.263 139.972 350.444 140.023C350.587 140.048 350.729 140.094 350.875 140.134C351.02 140.173 351.241 140.241 351.43 140.309L351.645 140.385L351.895 140.482C351.991 140.518 352.086 140.556 352.18 140.599L352.386 140.692L352.736 140.861C353.019 141.007 353.306 141.17 353.585 141.348C353.881 141.534 354.165 141.737 354.437 141.956C354.547 142.043 354.657 142.134 354.764 142.228C354.871 142.322 354.994 142.44 355.123 142.559C355.202 142.632 355.433 142.882 355.433 142.882C355.526 142.979 355.6 143.059 355.676 143.144C355.752 143.23 355.846 143.335 355.945 143.459C356.043 143.584 356.115 143.666 356.198 143.772C356.448 144.099 356.677 144.441 356.882 144.798C356.896 144.817 356.908 144.837 356.92 144.858L358.106 148.091C358.113 148.13 358.12 148.168 358.129 148.208C358.151 148.34 358.168 148.469 358.186 148.598L358.198 148.696C358.25 149.117 358.274 149.541 358.271 149.966C358.27 150.062 358.267 150.158 358.264 150.253C358.263 150.395 358.257 150.52 358.243 150.673C358.23 150.746 358.23 150.821 358.223 150.894C358.197 151.042 358.193 151.2 358.169 151.354C358.15 151.46 358.131 151.567 358.111 151.678L331.44 302.939C330.97 305.589 329.468 307.945 327.263 309.488C325.058 311.032 322.33 311.638 319.679 311.174L90.3337 270.734Z" fill="#202952"/>
<path d="M352.984 150.76L326.31 302.034C326.081 303.324 325.35 304.47 324.277 305.221C323.204 305.972 321.877 306.267 320.587 306.041L91.2415 265.602C90.6023 265.49 89.9914 265.253 89.4439 264.904C88.8964 264.556 88.423 264.103 88.0508 263.571C87.6785 263.04 87.4148 262.44 87.2747 261.806C87.1346 261.173 87.1208 260.517 87.2342 259.878L113.908 108.605C114.02 107.966 114.257 107.355 114.605 106.807C114.954 106.26 115.407 105.786 115.938 105.414C116.47 105.042 117.069 104.778 117.703 104.638C118.337 104.498 118.992 104.484 119.631 104.598L348.979 145.038C349.065 145.053 349.148 145.068 349.239 145.084L349.495 145.15C349.575 145.164 349.655 145.197 349.731 145.224L349.877 145.277L350.03 145.336L350.144 145.385L350.214 145.414L350.38 145.494C350.532 145.572 350.68 145.659 350.824 145.752C350.961 145.836 351.091 145.929 351.214 146.032C351.268 146.074 351.322 146.118 351.371 146.161C351.419 146.205 351.475 146.252 351.526 146.301L351.669 146.444C351.712 146.487 351.755 146.532 351.795 146.579C351.835 146.626 351.894 146.687 351.942 146.747C351.991 146.806 352.029 146.85 352.07 146.906C352.191 147.063 352.302 147.228 352.403 147.399C352.428 147.441 352.45 147.485 352.472 147.526C352.523 147.618 352.571 147.709 352.615 147.806C352.66 147.902 352.668 147.919 352.69 147.974C352.716 148.03 352.739 148.086 352.759 148.144C352.776 148.185 352.791 148.225 352.803 148.262C352.826 148.33 352.848 148.398 352.868 148.469C352.895 148.547 352.918 148.627 352.936 148.708C352.947 148.748 352.957 148.787 352.965 148.829C352.974 148.871 352.995 148.979 353.008 149.056C353.021 149.133 353.032 149.208 353.043 149.284C353.07 149.492 353.081 149.7 353.077 149.909C353.065 149.982 353.075 150.059 353.073 150.131C353.072 150.145 353.07 150.159 353.066 150.172C353.053 150.248 353.054 150.328 353.046 150.405C353.04 150.454 353.032 150.502 353.021 150.55C353.007 150.631 352.996 150.693 352.984 150.76Z" fill="#A9E1F2"/>
<path d="M112.855 114.559L351.931 156.714L325.756 305.164C325.673 305.633 325.408 306.049 325.018 306.322C324.628 306.595 324.146 306.702 323.678 306.619L88.1346 265.086C87.9027 265.045 87.681 264.959 87.4824 264.833C87.2837 264.706 87.112 264.542 86.9769 264.349C86.8418 264.156 86.746 263.938 86.695 263.708C86.644 263.478 86.6388 263.241 86.6797 263.009L112.855 114.559Z" fill="white"/>
<path d="M148.118 115.446C148.061 115.775 147.907 116.08 147.676 116.321C147.446 116.563 147.149 116.731 146.823 116.803C146.497 116.876 146.156 116.85 145.845 116.73C145.534 116.609 145.265 116.399 145.073 116.125C144.881 115.852 144.775 115.527 144.768 115.194C144.76 114.86 144.852 114.531 145.031 114.249C145.211 113.968 145.469 113.745 145.775 113.611C146.081 113.476 146.419 113.435 146.748 113.493C147.189 113.571 147.58 113.82 147.837 114.186C148.094 114.553 148.195 115.006 148.118 115.446Z" fill="#DCF4FE"/>
<path d="M138.922 113.825C138.864 114.153 138.71 114.457 138.479 114.698C138.249 114.938 137.952 115.105 137.626 115.178C137.301 115.25 136.962 115.224 136.651 115.103C136.34 114.982 136.072 114.772 135.881 114.499C135.69 114.226 135.584 113.902 135.577 113.569C135.569 113.236 135.661 112.908 135.84 112.627C136.019 112.345 136.278 112.124 136.583 111.989C136.888 111.855 137.226 111.814 137.554 111.872C137.994 111.951 138.385 112.2 138.641 112.566C138.898 112.932 138.998 113.385 138.922 113.825Z" fill="#DCF4FE"/>
<path d="M129.724 112.203C129.666 112.532 129.512 112.837 129.281 113.078C129.051 113.32 128.753 113.488 128.427 113.56C128.101 113.633 127.761 113.607 127.449 113.486C127.138 113.365 126.87 113.155 126.678 112.881C126.486 112.607 126.38 112.283 126.373 111.949C126.366 111.615 126.458 111.286 126.638 111.004C126.817 110.723 127.077 110.501 127.383 110.367C127.689 110.232 128.028 110.192 128.356 110.251C128.796 110.329 129.187 110.578 129.443 110.944C129.7 111.31 129.8 111.763 129.724 112.203Z" fill="#DCF4FE"/>
<path d="M350.266 71.199L222.033 48.5881C220.456 48.3095 218.838 48.3445 217.274 48.6911C215.71 49.0377 214.23 49.6891 212.917 50.608C211.605 51.5269 210.486 52.6954 209.626 54.0467C208.765 55.398 208.179 56.9056 207.901 58.4834L194.392 135.096L310.677 155.6C313.862 156.161 317.139 155.435 319.788 153.58C322.438 151.725 324.241 148.893 324.803 145.709L336.397 79.9542C337.207 77.0318 339.076 74.5158 341.64 72.8971C344.205 71.2784 347.28 70.673 350.266 71.199Z" fill="#93DCE6"/>
<path d="M301.797 141.982L306.143 117.331C306.705 114.145 305.978 110.866 304.123 108.216C302.267 105.565 299.434 103.761 296.248 103.199C293.062 102.637 289.783 103.364 287.133 105.22C284.482 107.075 282.678 109.908 282.116 113.094L275.653 149.746L311.689 156.1C308.506 155.538 305.675 153.736 303.82 151.089C301.965 148.441 301.238 145.166 301.797 141.982Z" fill="#28B5C8"/>
<path d="M296.025 103.159C294.448 102.881 292.831 102.916 291.267 103.263C289.703 103.61 288.222 104.261 286.91 105.18C285.598 106.099 284.479 107.267 283.619 108.618C282.758 109.97 282.172 111.477 281.893 113.055L250.078 293.488L121.785 270.867L153.6 90.4331C153.878 88.8551 154.464 87.3473 155.324 85.9959C156.185 84.6444 157.303 83.4758 158.616 82.5568C159.928 81.6378 161.409 80.9865 162.973 80.6401C164.537 80.2936 166.155 80.2589 167.732 80.5378L296.025 103.159Z" fill="url(#paint9_linear_2782_12284)"/>
<path d="M201.777 119.999L169.924 114.382C165.806 113.656 161.88 116.405 161.154 120.522L155.538 152.376C154.812 156.493 157.561 160.42 161.678 161.146L193.532 166.762C197.649 167.488 201.575 164.739 202.301 160.622L207.918 128.768C208.644 124.651 205.895 120.725 201.777 119.999Z" fill="white"/>
<path d="M195.098 161.81L194.204 166.881L161.01 161.028L161.904 155.957C162.073 154.998 162.43 154.082 162.953 153.26C163.477 152.439 164.157 151.728 164.955 151.17C165.753 150.612 166.654 150.216 167.605 150.006C168.556 149.795 169.539 149.774 170.498 149.944L189.084 153.221C191.02 153.563 192.742 154.66 193.87 156.27C194.998 157.881 195.439 159.874 195.098 161.81Z" fill="#57ABEC"/>
<path d="M185.993 142.627L184.385 151.747C184.174 152.943 183.498 154.006 182.504 154.703C181.511 155.4 180.281 155.674 179.085 155.465C177.89 155.253 176.828 154.574 176.132 153.579C175.437 152.584 175.165 151.354 175.376 150.159L176.984 141.039L185.993 142.627Z" fill="#FDD1B1"/>
<path style="mix-blend-mode:multiply" opacity="0.21" d="M176.861 141.679L177.234 141.083L185.985 142.626L184.392 151.658C180.112 150.413 177.441 147.368 176.172 145.556L176.861 141.679Z" fill="url(#paint10_linear_2782_12284)"/>
<path d="M192.268 131.828C191.86 134.143 190.281 136.567 188.625 137.986C186.482 139.823 184.821 140.433 181.826 139.905C178.831 139.377 177.572 139.195 176.187 136.736C175.116 134.836 174.283 131.044 174.691 128.729C175.627 123.417 178.661 120.733 185.217 120.675C190.611 120.614 193.205 126.517 192.268 131.828Z" fill="#202952"/>
<path d="M190.737 131.559L189.126 140.692C188.451 144.521 184.672 147.057 180.685 146.354C176.698 145.651 174.011 141.974 174.686 138.146L176.297 129.013L190.737 131.559Z" fill="#FDD1B1"/>
<path d="M175.954 130.95C175.954 130.95 176.052 128.573 178.127 129.335C180.202 130.097 183.434 132.992 186.799 132.225C190.164 131.457 190.498 132.877 190.498 132.877C190.498 132.877 192.466 133.564 191.979 131.494C191.493 129.423 189.919 127.381 187.431 127.349C184.943 127.317 179.462 127.87 178.252 127.656C177.041 127.443 175.084 127.955 175.084 127.955L175.954 130.95Z" fill="#202952"/>
<path d="M175.713 132.319C175.713 132.319 174.374 131.651 174.015 134.036C173.656 136.421 174.826 137.35 174.826 137.35L176.145 134.974L175.713 132.319Z" fill="#FDD1B1"/>
<path d="M190.097 134.855C190.097 134.855 191.586 134.687 191.108 137.05C190.63 139.414 189.21 139.887 189.21 139.887L188.78 137.202L190.097 134.855Z" fill="#FDD1B1"/>
<path d="M175.989 130.748C175.989 130.748 176.973 126.812 178.624 126.635C180.276 126.457 180.611 131.712 185.861 132.349C191.11 132.985 182.937 137.519 182.937 137.519L175.989 130.748Z" fill="#FDD1B1"/>
<path d="M158.049 190.535C162.297 191.284 166.348 188.448 167.097 184.2C167.846 179.952 165.009 175.902 160.762 175.153C156.514 174.404 152.463 177.24 151.714 181.488C150.965 185.736 153.801 189.786 158.049 190.535Z" fill="#728EFC"/>
<path d="M246.645 193.18L180.077 181.442C179.579 181.354 179.105 181.687 179.017 182.185L178.782 183.517C178.694 184.015 179.027 184.49 179.524 184.577L246.092 196.315C246.59 196.403 247.064 196.07 247.152 195.573L247.387 194.24C247.475 193.742 247.142 193.268 246.645 193.18Z" fill="white"/>
<path d="M251.865 200.987L178.897 188.12C178.4 188.033 177.925 188.365 177.837 188.863L177.602 190.195C177.514 190.693 177.847 191.168 178.345 191.256L251.312 204.122C251.81 204.21 252.285 203.877 252.373 203.379L252.608 202.047C252.695 201.549 252.363 201.074 251.865 200.987Z" fill="white"/>
<path d="M259.778 141.089L222.015 134.43C221.517 134.342 221.042 134.675 220.954 135.172L220.719 136.505C220.632 137.003 220.964 137.477 221.462 137.565L259.225 144.224C259.723 144.312 260.197 143.979 260.285 143.481L260.52 142.149C260.608 141.651 260.276 141.176 259.778 141.089Z" fill="#728EFC"/>
<path d="M258.336 147.721L220.835 141.108C220.337 141.02 219.862 141.353 219.775 141.851L219.54 143.183C219.452 143.681 219.784 144.156 220.282 144.243L257.783 150.856C258.281 150.944 258.755 150.611 258.843 150.113L259.078 148.781C259.166 148.283 258.834 147.808 258.336 147.721Z" fill="#728EFC"/>
<path d="M257.375 154.697L219.612 148.038C219.114 147.951 218.64 148.283 218.552 148.781L218.317 150.113C218.229 150.611 218.562 151.086 219.059 151.174L256.823 157.832C257.32 157.92 257.795 157.588 257.883 157.09L258.118 155.757C258.206 155.259 257.873 154.785 257.375 154.697Z" fill="#728EFC"/>
<path d="M162.089 212.29C163.352 208.165 161.032 203.798 156.907 202.536C152.783 201.273 148.416 203.593 147.153 207.718C145.891 211.842 148.211 216.209 152.335 217.472C156.46 218.734 160.827 216.414 162.089 212.29Z" fill="#728EFC"/>
<path d="M241.855 220.332L175.288 208.594C174.79 208.507 174.316 208.839 174.228 209.337L173.993 210.669C173.905 211.167 174.237 211.642 174.735 211.73L241.303 223.467C241.8 223.555 242.275 223.223 242.363 222.725L242.598 221.392C242.686 220.895 242.353 220.42 241.855 220.332Z" fill="white"/>
<path d="M247.076 228.139L174.108 215.273C173.611 215.185 173.136 215.517 173.048 216.015L172.813 217.348C172.725 217.845 173.058 218.32 173.556 218.408L246.523 231.274C247.021 231.362 247.496 231.03 247.584 230.532L247.819 229.199C247.906 228.701 247.574 228.227 247.076 228.139Z" fill="white"/>
<path d="M157.07 240.754C158.332 236.63 156.012 232.263 151.888 231C147.763 229.738 143.396 232.058 142.134 236.182C140.871 240.306 143.191 244.673 147.316 245.936C151.44 247.198 155.807 244.878 157.07 240.754Z" fill="#728EFC"/>
<path d="M236.836 248.796L170.269 237.059C169.771 236.971 169.296 237.303 169.208 237.801L168.973 239.134C168.886 239.632 169.218 240.106 169.716 240.194L236.283 251.932C236.781 252.019 237.256 251.687 237.343 251.189L237.578 249.857C237.666 249.359 237.334 248.884 236.836 248.796Z" fill="white"/>
<path d="M242.061 256.603L169.093 243.737C168.595 243.649 168.12 243.982 168.032 244.479L167.798 245.812C167.71 246.31 168.042 246.785 168.54 246.872L241.508 259.738C242.006 259.826 242.48 259.494 242.568 258.996L242.803 257.664C242.891 257.166 242.558 256.691 242.061 256.603Z" fill="white"/>
<path d="M104.495 295.276C105.086 295.629 113.265 296.927 116.674 297.458C116.828 297.481 116.986 297.458 117.127 297.392C117.268 297.326 117.387 297.219 117.467 297.086C117.548 296.952 117.588 296.798 117.581 296.642C117.574 296.486 117.522 296.336 117.43 296.21C116.734 295.251 115.399 294.055 112.888 293.365C111.795 293.063 111.179 292.579 110.884 291.914C110.469 290.984 109.813 287.52 110.219 285.872C110.308 285.516 109.633 284.88 109.731 284.49C110.631 281.06 104.704 284.139 104.704 284.139C104.845 284.684 104.881 285.25 104.809 285.808C104.598 286.825 105.632 289.676 105.132 290.814C105.06 290.978 104.983 291.139 104.906 291.288C103.905 293.169 103.746 294.828 104.495 295.276Z" fill="#FDD1B1"/>
<path d="M104.499 295.277C105.139 295.657 114.676 297.149 117.421 297.574C117.772 297.636 117.975 297.286 117.875 296.944C117.523 295.749 116.282 293.752 113.066 292.866C111.973 292.564 110.998 291.942 110.703 291.276C109.545 291.142 108.542 291.487 108.38 292.538C108.285 293.156 106.31 292.977 105.129 290.819C105.058 290.983 104.981 291.143 104.904 291.293C103.909 293.169 103.75 294.828 104.499 295.277Z" fill="#202952"/>
<path d="M73.216 287.088C72.936 287.248 72.7121 287.49 72.5748 287.782C72.4375 288.073 72.3935 288.4 72.4488 288.718C72.5041 289.035 72.656 289.328 72.8838 289.556C73.1116 289.784 73.4042 289.936 73.7217 289.992L79.6961 291.046C80.7637 291.234 82.3784 290.643 82.5819 287.864C82.593 287.694 82.6081 287.518 82.6293 287.336C82.7621 285.991 83.0364 284.435 83.2961 283.145C83.6018 281.624 83.8849 280.474 83.8849 280.474L79.8173 276.931L79.0099 276.223C79.0099 276.223 79.0051 276.418 78.9885 276.755C78.9089 278.605 78.6828 280.446 78.3124 282.261C77.9969 283.67 77.5439 284.948 76.887 285.59C76.6951 285.79 76.451 285.933 76.1823 286.001C75.1462 286.218 74.147 286.584 73.216 287.088Z" fill="#FDD1B1"/>
<path d="M71.3613 288.719C71.3056 288.802 71.2716 288.898 71.2623 288.998C71.253 289.097 71.2687 289.198 71.3081 289.29C71.3475 289.382 71.4092 289.463 71.4877 289.525C71.5662 289.587 71.659 289.629 71.7576 289.646L79.6957 291.046C80.7633 291.234 82.3781 290.643 82.5816 287.864C82.5927 287.694 82.6078 287.518 82.629 287.336C81.7244 287.713 81.2054 287.937 80.6321 287.148C80.2019 286.55 79.2258 285.25 77.4958 285.189C76.9951 285.173 76.7884 285.707 76.5608 285.843C76.4424 285.917 76.3126 285.97 76.1768 286.001C73.1661 286.686 71.8918 287.913 71.3613 288.719Z" fill="#202952"/>
<path d="M79.1526 262.241L79.1434 262.293C78.4704 268.702 77.8256 275.69 77.2091 283.258L83.4588 284.359L97.8656 228.689L104.014 287.992L111.433 289.3C111.433 289.3 112.349 232.612 110.36 214.654C108.371 196.696 87.0645 209.411 87.0645 209.411C87.0645 209.411 86.9443 209.925 86.726 210.92C85.6628 215.857 82.2209 233.007 79.1526 262.241Z" fill="#091D7B"/>
<path style="mix-blend-mode:multiply" opacity="0.15" d="M79.1538 262.241C83.8013 227.94 92.0719 213.783 92.0719 213.783L86.7278 210.902C85.664 215.857 82.2221 233.007 79.1538 262.241Z" fill="url(#paint11_linear_2782_12284)"/>
<path d="M134.257 196.134L134.117 196.608L133.448 198.887C133.448 198.887 133.876 198.842 134.474 198.84C135.219 198.822 135.963 198.906 136.685 199.091C136.765 199.105 136.842 199.14 136.92 199.167C138.311 199.68 141.137 200.328 143.304 199.709C144.409 199.395 144.05 198.938 144.05 198.938C146.411 198.84 146.347 197.899 145.858 197.797C145.37 197.695 144.263 197.607 144.127 197.593C145.123 197.608 146.11 197.327 146.154 196.968C146.199 196.609 145.756 196.477 144.819 196.491C143.801 196.51 140.878 196.177 139.722 195.842C138.565 195.507 139.124 195.268 139.788 194.659C140.453 194.05 141.48 193.147 141.05 192.758C140.621 192.368 138.504 194.117 137.762 194.454C137.471 194.585 136.886 194.868 136.271 195.164L134.257 196.134Z" fill="#FDD1B1"/>
<path d="M115.204 185.144C113.682 187.822 112.358 190.535 112.358 190.535C112.358 190.535 114.094 199.537 116.201 201.926C116.296 202.04 116.402 202.144 116.519 202.236C118.164 203.539 134.749 200.391 134.749 200.391L134.486 195.256L121.816 195.815C121.679 195.819 121.547 195.769 121.446 195.677C121.346 195.585 121.285 195.457 121.276 195.321C121.149 192.805 120.244 180.944 119.168 179.343C118.533 178.387 116.904 182.174 115.204 185.144Z" fill="#202952"/>
<path style="mix-blend-mode:multiply" opacity="0.15" d="M115.204 185.145C113.682 187.822 112.357 190.535 112.357 190.535C112.357 190.535 114.093 199.538 116.201 201.926C114.162 195.61 115.54 185.121 115.54 185.121L115.204 185.145Z" fill="url(#paint12_linear_2782_12284)"/>
<path d="M85.6396 183.949C85.7487 185.742 85.9828 187.526 86.3402 189.287C88.4827 199.92 86.8267 210.497 86.8267 210.497C88.4844 211.309 90.2045 211.986 91.9706 212.523C101.063 215.321 110.369 214.627 110.369 214.627C112.769 201.018 121.067 180.356 118.609 178.061C116.15 175.766 111.234 171.535 106.521 170.273L101.415 169.214C90.0204 169.616 87.2889 172.94 87.2889 172.94C87.2889 172.94 85.2327 176.764 85.6396 183.949Z" fill="#202952"/>
<path d="M99.4883 169.324C99.4883 169.324 99.2026 192.559 96.417 213.658C96.417 213.658 101.127 214.727 105.747 214.682C105.747 214.682 110.821 184.508 110.777 172.107L106.158 172.477L99.4883 169.324Z" fill="white"/>
<path style="mix-blend-mode:multiply" opacity="0.15" d="M99.4883 169.324L103.518 175.906L105.941 173.679L107.36 176.433L110.777 172.107L106.153 172.476L99.4883 169.324Z" fill="url(#paint13_linear_2782_12284)"/>
<path d="M98.4042 154.095C98.1766 159.122 103.774 163.907 103.774 163.907C104.716 161.659 105.879 159.511 107.246 157.494C108.867 155.168 110.917 153.095 113.105 153.018C118.115 152.83 117.692 148.269 116.059 147.186C116.031 147.18 110.796 144.257 104.939 145.517C101.659 146.224 101.187 149.823 101.187 149.823C101.187 149.823 98.6344 149.068 98.4042 154.095Z" fill="#002B3B"/>
<path d="M101.417 169.225C101.417 169.225 103.756 172.107 106.155 172.471C108.555 172.835 109.594 171.577 109.594 171.577L110.011 168.407L110.407 165.491L103.724 159.818L103.705 159.799L103.696 159.851C103.664 160.035 103.548 160.69 103.412 161.464C103.229 162.503 102.991 163.728 102.854 164.312C102.543 165.556 101.417 169.225 101.417 169.225Z" fill="#FDD1B1"/>
<path d="M107.446 174.046C107.446 174.046 106.298 175.239 105.667 175.235C105.035 175.231 104.009 173.44 104.009 173.44L106.153 172.479L107.446 174.046Z" fill="#E34862"/>
<path d="M99.8704 202.303L102.101 208.383L105.322 203.058C105.322 203.058 107.745 188.613 106.807 174.022L106.009 173.991L104.588 173.936C104.588 173.936 102.347 192.787 99.8704 202.303Z" fill="#E34862"/>
<path d="M106.153 172.476L103.859 174.595L99.4879 169.325L101.64 167.92L106.153 172.476Z" fill="white"/>
<path d="M109.829 170.223L106.156 172.476L107.315 175.203L110.78 172.108L109.829 170.223Z" fill="white"/>
<path style="mix-blend-mode:multiply" opacity="0.15" d="M85.6438 183.949C85.7529 185.743 85.987 187.527 86.3443 189.288C88.4869 199.921 86.8308 210.497 86.8308 210.497C88.4885 211.309 90.2087 211.987 91.9748 212.524C92.1458 212.294 92.2809 212.04 92.3756 211.77C93.9637 207.32 90.351 182.514 90.351 182.514C90.351 182.514 87.6984 183.294 85.6438 183.949Z" fill="url(#paint14_linear_2782_12284)"/>
<path style="mix-blend-mode:multiply" opacity="0.15" d="M103.386 161.135C103.393 161.249 103.396 161.354 103.406 161.463C103.755 165.922 107.53 167.814 110.01 168.41L110.407 165.491L103.723 159.818C103.712 159.827 103.703 159.838 103.696 159.851C103.444 160.229 103.334 160.684 103.386 161.135Z" fill="url(#paint15_linear_2782_12284)"/>
<path d="M101.629 158.415C101.558 159.669 103.439 161.26 103.439 161.26C104.635 163.954 107.727 167.946 111.157 166.02C114.006 164.414 114.209 156.396 114.196 153.734C114.194 153.198 114.183 152.87 114.183 152.87C112.65 153.075 111.095 153.056 109.567 152.814C107.297 152.413 105.48 152.736 105.142 155.277C105.142 155.277 105.142 155.277 105.139 155.295C105.123 155.352 105.113 155.41 105.108 155.469C104.826 158.192 104.847 158.468 104.48 158.438C104.113 158.409 103.801 157.732 103.706 157.541C103.238 156.69 101.699 157.155 101.629 158.415Z" fill="#FDD1B1"/>
<path style="mix-blend-mode:multiply" opacity="0.15" d="M105.14 155.282C105.348 154.638 105.765 154.082 106.324 153.7C106.882 153.318 107.552 153.133 108.228 153.173C110.012 153.278 111.343 153.867 114.195 153.735C114.193 153.199 114.181 152.87 114.181 152.87C112.648 153.075 111.093 153.056 109.566 152.814C107.296 152.414 105.478 152.741 105.14 155.282Z" fill="url(#paint16_linear_2782_12284)"/>
<path opacity="0.34" d="M171.522 203.956C167.42 205.418 162.976 205.631 158.753 204.567C154.53 203.504 150.717 201.212 147.797 197.981C144.876 194.751 142.979 190.727 142.346 186.418C141.712 182.11 142.37 177.71 144.237 173.776C146.104 169.841 149.096 166.549 152.834 164.315C156.572 162.08 160.889 161.005 165.238 161.224C169.587 161.443 173.774 162.947 177.269 165.545C180.764 168.144 183.409 171.72 184.871 175.823C186.831 181.324 186.526 187.378 184.022 192.654C181.519 197.929 177.023 201.995 171.522 203.956Z" fill="#B8E4F2"/>
<g style="mix-blend-mode:screen" opacity="0.5">
<path d="M146.265 181.622C146.196 181.43 146.172 181.224 146.197 181.021C146.507 178.501 147.343 176.074 148.653 173.899C149.962 171.723 151.714 169.847 153.796 168.393C154.083 168.21 154.429 168.146 154.763 168.212C155.097 168.279 155.392 168.472 155.586 168.751C155.781 169.031 155.86 169.374 155.807 169.71C155.754 170.047 155.574 170.349 155.303 170.555C153.524 171.797 152.027 173.399 150.909 175.258C149.79 177.116 149.076 179.19 148.813 181.343C148.775 181.636 148.639 181.908 148.428 182.115C148.217 182.322 147.942 182.452 147.648 182.484C147.354 182.517 147.058 182.449 146.807 182.293C146.556 182.136 146.365 181.9 146.265 181.622Z" fill="white"/>
</g>
<g style="mix-blend-mode:screen" opacity="0.5">
<path d="M157.273 167.879C157.156 167.55 157.174 167.188 157.324 166.873C157.474 166.557 157.742 166.314 158.071 166.196C162.585 164.594 167.55 164.848 171.877 166.901C176.204 168.954 179.541 172.64 181.155 177.15C181.223 177.315 181.258 177.492 181.255 177.671C181.253 177.85 181.215 178.026 181.142 178.189C181.07 178.353 180.965 178.5 180.834 178.622C180.703 178.743 180.548 178.837 180.38 178.897C180.212 178.957 180.033 178.982 179.854 178.971C179.676 178.96 179.502 178.913 179.342 178.832C179.183 178.751 179.041 178.639 178.926 178.502C178.811 178.365 178.725 178.206 178.674 178.035C177.296 174.182 174.445 171.033 170.748 169.279C167.051 167.525 162.809 167.309 158.953 168.679C158.624 168.795 158.263 168.776 157.948 168.626C157.633 168.476 157.391 168.208 157.273 167.879Z" fill="white"/>
</g>
<path d="M143.626 192.03L142.68 189.375L104.257 203.071L105.204 205.727L143.626 192.03Z" fill="#FFB600"/>
<path d="M141.364 191.329C139.791 186.916 139.562 182.137 140.705 177.594C141.849 173.051 144.314 168.949 147.789 165.807C151.263 162.666 155.592 160.625 160.227 159.944C164.862 159.262 169.594 159.971 173.826 161.979C178.058 163.988 181.6 167.206 184.003 171.228C186.405 175.249 187.561 179.893 187.325 184.572C187.088 189.25 185.469 193.753 182.673 197.512C179.877 201.27 176.028 204.115 171.615 205.686C165.699 207.784 159.193 207.451 153.522 204.76C147.852 202.069 143.48 197.239 141.364 191.329ZM183.491 176.31C182.092 172.388 179.562 168.969 176.22 166.486C172.878 164.002 168.875 162.565 164.716 162.357C160.558 162.149 156.431 163.178 152.858 165.316C149.284 167.453 146.425 170.602 144.641 174.364C142.858 178.126 142.23 182.333 142.838 186.452C143.445 190.572 145.26 194.418 148.054 197.505C150.847 200.593 154.494 202.783 158.532 203.797C162.57 204.812 166.819 204.607 170.74 203.207C175.994 201.326 180.287 197.438 182.677 192.395C185.067 187.353 185.36 181.568 183.491 176.31Z" fill="#FFB600"/>
<path d="M97.3613 210.152L95.3764 204.58C95.3446 204.491 95.3492 204.393 95.3894 204.308C95.4295 204.223 95.5019 204.157 95.5905 204.125L127.356 192.804C127.445 192.772 127.543 192.777 127.628 192.817C127.713 192.857 127.779 192.93 127.811 193.018L129.796 198.591C129.828 198.68 129.823 198.778 129.783 198.863C129.743 198.948 129.671 199.014 129.582 199.046L97.8164 210.367C97.7276 210.398 97.6299 210.394 97.5446 210.354C97.4593 210.313 97.3934 210.241 97.3613 210.152Z" fill="#FFB600"/>
<path d="M100.355 200.872L100.119 201.257L98.9883 203.112C98.9883 203.112 99.3753 203.18 99.9035 203.313C100.566 203.476 101.202 203.729 101.796 204.065C101.859 204.102 101.923 204.146 101.983 204.189C103.094 204.966 105.427 206.224 107.489 206.196C108.539 206.183 108.333 205.691 108.333 205.691C109.956 205.71 110.516 204.962 110.105 204.756C109.694 204.549 108.837 204.567 108.721 204.512C109.598 204.763 110.535 204.751 110.664 204.444C110.793 204.138 110.428 203.915 109.597 203.705C108.694 203.478 106.23 202.417 105.253 201.91C104.276 201.403 104.898 201.462 105.615 201.101C106.333 200.74 107.497 200.669 107.211 200.223C106.926 199.776 104.59 200.095 103.854 200.215L102.368 200.488L100.355 200.872Z" fill="#FDD1B1"/>
<path d="M87.491 172.423C84.7401 173.473 82.7177 179.884 81.6246 189.35C81.2779 192.334 80.9421 198.491 82.3511 201.345C82.4146 201.48 82.4906 201.608 82.5782 201.728C83.8286 203.416 100.657 204.718 100.657 204.718L101.744 199.695L89.3773 196.92C89.2449 196.891 89.1291 196.812 89.0553 196.698C88.9814 196.585 88.9555 196.447 88.9832 196.314C89.5198 193.849 91.5654 183.341 91.7577 181.43C92.3271 175.786 91.2567 170.995 87.491 172.423Z" fill="#202952"/>
<path d="M115.762 175.585L118.287 177.774C118.287 177.774 119.453 178.62 119.699 180.929C119.946 183.238 117.078 179.663 117.078 179.663L115.762 175.585Z" fill="#202952"/>
<path d="M96.4201 213.658L95.4445 219.191L84.6614 216.807L87.4067 203.182L96.4201 213.658Z" fill="#202952"/>
<path d="M106.906 207.419L105.132 220.899L111.408 220.881L112.577 205.106L106.906 207.419Z" fill="#202952"/>
<path d="M92.1455 170.521C92.1455 170.521 86.7127 170.953 84.7835 175.605L89.8328 180.052L92.1455 170.521Z" fill="#202952"/>
<path d="M260.404 211.221C260.404 211.221 262.859 220.827 263.099 222.219C263.338 223.612 257.146 236.23 257.146 236.23L258.585 239.283C258.585 239.283 267.037 226.68 268.203 222.252C269.37 217.824 266.722 202.321 264.858 200.712C262.994 199.103 260.404 211.221 260.404 211.221Z" fill="url(#paint17_linear_2782_12284)"/>
<path d="M231.368 265.504C231.368 265.504 227.257 277.137 227.45 287.726C227.642 298.315 226.969 312.354 226.969 312.354L231.214 313.102C231.214 313.102 234.961 284.543 236.465 277.472C237.969 270.401 242.265 263.563 242.265 263.563L231.368 265.504Z" fill="#FDD1B1"/>
<path d="M245.013 264.048C245.013 264.048 242.962 271.667 247.037 287.06C251.113 302.453 254.418 314.36 254.418 314.36L258.305 312.793C258.305 312.793 254.603 280.092 254.608 276.038C254.613 271.984 256.992 266.16 256.992 266.16L245.013 264.048Z" fill="#FDD1B1"/>
<path d="M231.442 312.084L229.577 321.397L227.933 321.107L228.599 317.333C228.599 317.333 226.205 320.623 225.077 320.598C224.354 320.581 221.585 320.063 219.308 319.624C219.182 319.599 219.069 319.533 218.984 319.437C218.899 319.341 218.848 319.22 218.838 319.092C218.829 318.964 218.861 318.836 218.931 318.729C219 318.621 219.103 318.539 219.223 318.495C221.513 317.661 224.764 316.995 226.056 313.585C227.177 310.633 226.92 311.089 226.92 311.089L231.442 312.084Z" fill="#37193B"/>
<path d="M258.479 312.452L260.075 321.807L258.436 322.126L257.706 318.368C257.706 318.368 256.652 322.296 255.588 322.679C254.907 322.923 252.137 323.431 249.853 323.837C249.726 323.859 249.596 323.839 249.482 323.779C249.368 323.72 249.276 323.625 249.221 323.508C249.166 323.392 249.151 323.261 249.178 323.135C249.205 323.01 249.272 322.896 249.369 322.812C251.216 321.212 254.005 319.427 253.99 315.779C253.978 312.625 253.9 313.141 253.9 313.141L258.479 312.452Z" fill="#37193B"/>
<path d="M215.366 207.142C215.366 207.142 208.092 206.245 207.429 206.709C206.766 207.173 210.182 207.532 210.817 208.03C211.453 208.527 210.163 210.893 212.652 210.764C215.141 210.635 216.12 210.266 216.12 210.266L215.366 207.142Z" fill="#FDD1B1"/>
<path d="M246.179 223.837L244.483 224.342C244.483 224.342 239.468 226.136 235.684 241.035C231.9 255.934 224.037 264.725 225.594 267.576C227.151 270.427 234.23 268.97 237.968 270.401C241.707 271.831 247.31 276.553 254.608 276.037C261.906 275.522 260.601 274.906 264.27 274.527C267.939 274.148 259.841 263.191 260.193 256.046C260.545 248.9 262.625 231.298 255.903 226.363C249.18 221.428 246.179 223.837 246.179 223.837Z" fill="#091D7B"/>
<path d="M261.334 214.897C261.132 215.3 260.929 215.674 260.72 216.01C258.276 220.014 255.904 226.358 255.904 226.358C251.992 226.534 248.09 225.846 244.475 224.343C245.164 220.983 243.972 216.241 242.897 213.542C241.822 210.843 244.649 208.542 244.333 207.038C244.018 205.533 233.266 211.854 231.236 211.871C229.205 211.888 214.757 210.607 214.757 210.607C214.757 210.607 215.087 207.093 215.368 207.142C215.648 207.192 229.605 207.432 230.945 206.897C232.285 206.362 242.765 198.432 245.337 197.533C247.909 196.634 250.99 196.352 255.346 196.619C258.859 196.837 264.015 198.922 264.859 200.707C265.637 202.357 263.567 210.467 261.334 214.897Z" fill="#E34899"/>
<path d="M254.33 181.254C254.33 181.254 252.182 186.861 252.354 189.53C252.526 192.198 254.622 192.375 254.622 192.375L253.885 196.552L259.787 197.667C259.787 197.667 259.759 193.541 259.312 192.431C258.865 191.321 259.527 189.469 259.904 185.869C260.282 182.269 254.33 181.254 254.33 181.254Z" fill="#FDD1B1"/>
<path d="M255.638 175.308C253.304 177.122 253.033 180.771 254.322 181.253C255.611 181.734 260.204 182.825 258.865 187.536C257.525 192.247 260.442 192.474 259.304 196.406C258.166 200.338 258.967 208.951 263.534 211.195C268.102 213.438 273.356 211.253 274.122 207.657C274.887 204.061 272.968 202.046 272.434 198.349C271.899 194.653 275.421 193.211 274.174 188.479C272.928 183.746 270.671 185.03 268.931 180.59C267.191 176.151 259.814 172.054 255.638 175.308Z" fill="#002B3B"/>
<path d="M261.337 214.888C261.135 215.292 260.933 215.666 260.723 216.001C258.278 220.013 255.906 226.358 255.906 226.358C251.994 226.533 248.092 225.845 244.476 224.343C244.88 222.327 251.996 224.761 254.293 221.303C258.171 215.484 261.337 214.888 261.337 214.888Z" fill="url(#paint18_linear_2782_12284)"/>
<path style="mix-blend-mode:multiply" opacity="0.15" d="M254.281 191.934C254.281 191.934 256.659 191.255 257.37 190.703C258.08 190.15 256.989 193.06 254.022 193.404L254.281 191.934Z" fill="url(#paint19_linear_2782_12284)"/>
<path opacity="0.22" d="M286.988 323.399C286.639 325.381 296.267 328.737 308.494 330.893C320.721 333.049 330.916 333.189 331.266 331.207C331.615 329.225 321.987 325.869 309.76 323.713C297.533 321.557 287.338 321.415 286.988 323.399Z" fill="#9FAAD4"/>
<path d="M325.898 195.221C325.898 195.221 328.319 192.701 329.135 192.205C329.951 191.709 331.656 190.469 330.147 188.851C328.638 187.232 326.995 186.069 326.186 186.813C325.377 187.557 323.377 193.37 323.377 193.37L325.898 195.221Z" fill="#FDD1B1"/>
<path d="M335.637 196.873C335.637 196.873 334.933 201.838 331.924 204.548C329.059 207.128 332.698 211.145 337.611 212.26C342.525 213.376 346.424 212.694 350.782 212.734C355.141 212.775 356.17 209.249 354.461 205.632C352.753 202.015 353.139 198.261 353.267 195.697C353.395 193.132 354.047 189.085 349.424 187.217C344.802 185.349 346.138 184.591 343.144 183.343C339.064 181.649 335.517 185.314 338.718 188.926C341.858 192.472 335.637 196.873 335.637 196.873Z" fill="#091D7B"/>
<path d="M303.329 312.348L300.975 325.697L298.736 325.302L299.378 321.666C299.378 321.666 297.047 324.841 295.947 324.811C295.24 324.793 292.538 324.287 290.316 323.858C290.197 323.832 290.089 323.767 290.009 323.675C289.929 323.582 289.881 323.466 289.873 323.344C289.864 323.222 289.895 323.101 289.961 322.998C290.027 322.895 290.125 322.816 290.239 322.773C292.48 321.974 295.644 321.334 296.899 318.055C297.686 315.872 298.362 313.65 298.922 311.397L303.329 312.348Z" fill="#37193B"/>
<path d="M329.859 316.687L328.846 330.026C328.84 330.105 328.817 330.182 328.78 330.252C328.742 330.321 328.69 330.383 328.627 330.431C328.564 330.48 328.492 330.514 328.415 330.533C328.338 330.552 328.258 330.554 328.18 330.54L321.86 329.426C321.78 329.412 321.704 329.381 321.637 329.335C321.57 329.289 321.514 329.23 321.472 329.16C321.43 329.091 321.403 329.014 321.393 328.933C321.384 328.853 321.391 328.771 321.416 328.694C321.652 327.932 323.247 326.754 323.879 325.355C325.252 322.276 325.941 315.516 325.941 315.516L329.859 316.687Z" fill="#37193B"/>
<path d="M344.056 242.223C344.056 242.223 346.992 248.507 342.316 266.766C337.64 285.024 337.531 285.974 337.531 285.974L330.406 319.638C330.406 319.638 326.975 319.836 325.232 318.725L328.619 261.905C328.619 261.905 317.244 279.649 314.774 283.569C312.305 287.488 312.497 296.486 303.215 315.191C303.215 315.191 299.619 315.401 297.568 314.196C297.568 314.196 302.939 281.897 305.525 276.404C308.111 270.912 322.402 243.652 324.611 240.508C326.821 237.365 344.056 242.223 344.056 242.223Z" fill="#202952"/>
<path d="M324.306 182.912L321.15 186.868L324.301 189.031L331.891 194.202C332.281 194.511 333.025 194.225 333.558 193.558C334.09 192.891 334.209 192.095 333.819 191.786L327.093 185.535L324.306 182.912Z" fill="#202952"/>
<path d="M324.306 182.912L321.15 186.868L324.301 189.031C325.032 188.734 325.674 188.254 326.166 187.637C326.657 187.02 326.98 186.286 327.106 185.508L324.306 182.912Z" fill="#18203D"/>
<path d="M318.183 176.563L313.594 182.31L316.014 184.015L322.207 188.388L322.23 188.392L322.337 188.467L322.341 188.449C323.136 188.919 324.5 188.353 325.507 187.108C326.514 185.864 326.746 184.394 326.105 183.716L326.008 183.629C326.008 183.629 326.01 183.616 326.011 183.613L320.378 178.541L318.183 176.563Z" fill="#202952"/>
<path d="M318.183 176.563L313.594 182.31L316.014 184.015C317.001 183.798 318.119 183.047 319.014 181.932C319.91 180.818 320.384 179.557 320.388 178.548L318.183 176.563Z" fill="#18203D"/>
<path d="M310.692 169.144L304.698 176.657L307.888 178.982L313.347 182.958L313.389 182.992C314.484 183.865 316.591 183.061 318.076 181.188C319.56 179.315 319.892 177.084 318.798 176.227C318.78 176.224 318.764 176.221 318.75 176.197L313.66 171.737L310.692 169.144Z" fill="#202952"/>
<path d="M311.169 169.161C312.453 170.191 312.073 172.802 310.323 174.992C308.574 177.183 306.107 178.138 304.826 177.114L296.479 170.452L302.829 162.494L311.169 169.161Z" fill="#728EFC"/>
<path d="M310.692 169.144L304.698 176.657L307.888 178.982C309.191 179.003 310.861 178.057 312.143 176.451C313.425 174.846 313.974 173.006 313.667 171.741L310.692 169.144Z" fill="#18203D"/>
<path d="M311.928 169.764C313.212 170.793 312.831 173.405 311.079 175.597C309.326 177.79 306.866 178.741 305.582 177.716L297.226 171.047L303.572 163.092L311.928 169.764Z" fill="#202952"/>
<path d="M298.079 165.206C299.536 163.379 301.435 162.316 302.891 162.399L303.167 162.051L304.167 162.851C305.574 163.98 305.163 166.876 303.22 169.31C301.278 171.745 298.55 172.799 297.133 171.665L296.132 170.867L296.407 170.522C296.018 169.117 296.621 167.033 298.079 165.206Z" fill="#2E385B"/>
<path d="M297.079 164.409C295.137 166.844 294.712 169.736 296.133 170.868C297.554 172 300.278 170.948 302.221 168.513C304.164 166.078 304.588 163.186 303.167 162.051C301.747 160.917 299.022 161.974 297.079 164.409Z" fill="#435075"/>
<path d="M297.919 165.094C296.448 166.935 296.03 169.046 296.984 169.804C297.938 170.561 299.899 169.689 301.368 167.848C302.836 166.007 303.256 163.895 302.303 163.138C301.349 162.381 299.387 163.251 297.919 165.094Z" fill="#D0EBF5"/>
<path d="M344.055 242.222C343.258 242.856 342.375 243.373 341.433 243.758C338.105 245.129 334.251 244.902 331.022 244.333C328.503 243.849 326.233 242.495 324.61 240.508C324.61 240.508 327.669 230.602 328.255 227.888C328.841 225.173 326.063 222.439 326.751 220.391C328.681 214.641 334.106 208.768 334.106 208.768C343.111 207.23 349.476 211.478 349.476 211.478C349.476 211.478 348.801 214.225 347.868 217.665C346.702 221.972 345.133 227.36 343.981 229.806C341.914 234.19 344.055 242.222 344.055 242.222Z" fill="#E974FE"/>
<path style="mix-blend-mode:multiply" opacity="0.15" d="M344.054 242.223C343.273 242.88 342.386 243.399 341.431 243.759C340.767 243.99 338.726 244.533 338.726 244.533C338.726 244.533 333.194 229.841 338.098 228.352C343.002 226.862 346.039 222.108 347.75 217.659L347.875 217.681C346.708 221.988 345.14 227.376 343.988 229.822C341.913 234.191 344.054 242.223 344.054 242.223Z" fill="url(#paint20_linear_2782_12284)"/>
<path d="M338.255 243.747L326.335 241.645L320.145 224.637L332.065 226.739L338.255 243.747Z" fill="white"/>
<path d="M330.58 234.495C330.58 234.495 328.438 233.566 327.385 233.129C326.557 232.782 325.429 232.299 325.427 232.783C325.424 233.268 326.807 233.766 326.732 234.023C326.657 234.28 324.508 233.631 323.007 232.517C321.505 231.403 322.089 235.43 325.105 236.203C327.034 236.672 329.025 236.832 331.004 236.678L330.58 234.495Z" fill="#FDD1B1"/>
<path d="M349.475 211.481C344.075 209.843 347.222 232.216 345.64 233.23C344.057 234.245 330.023 234.034 330.023 234.034L329.929 237.009C329.929 237.009 346.477 241.317 350.189 237.903C354.396 234.016 354.3 212.945 349.475 211.481Z" fill="#E974FE"/>
<path d="M336.645 208.479C336.645 208.479 329.904 208.265 324.797 209.387C319.689 210.509 318.049 209.681 318.338 209.103C318.628 208.524 326.438 194.898 326.438 194.898L323.476 192.875C323.476 192.875 312.464 206.888 311.249 210.18C310.034 213.472 312.533 216.567 317.188 216.962C321.843 217.357 331.437 216.048 331.437 216.048L336.645 208.479Z" fill="#E974FE"/>
<path d="M344.293 209.29C342.038 212.034 336.422 211.228 336.88 208.465C337.107 207.101 337.487 206.207 337.996 204.628C338.517 203.006 338.987 201.723 338.987 201.723C338.987 201.723 346.104 198.047 345.503 200.528C344.902 203.009 344.293 209.29 344.293 209.29Z" fill="#FDD1B1"/>
<path style="mix-blend-mode:multiply" opacity="0.15" d="M345.506 200.528C343.793 203.834 339.642 204.498 337.999 204.628C338.521 203.006 338.991 201.723 338.991 201.723C338.991 201.723 346.107 198.047 345.506 200.528Z" fill="url(#paint21_linear_2782_12284)"/>
<path d="M338.918 189.152C338.918 189.152 333.864 198.071 335.53 201.105C337.89 205.386 343.153 200.904 343.983 200.48C344.813 200.056 347.014 200.928 347.766 199.607C348.519 198.285 347.385 197.699 346.676 197.74C345.967 197.782 344.747 197.668 346.217 195.785C347.688 193.901 343.69 193.306 342.072 192.089C340.94 191.2 339.885 190.218 338.918 189.152Z" fill="#FDD1B1"/>
<path d="M327.281 193.83C327.281 193.83 329.887 192.447 330.506 191.627C331.124 190.807 331.346 190.005 330.001 190.75C328.657 191.496 327.61 191.965 327.61 191.965L327.281 193.83Z" fill="#FDD1B1"/>
<path d="M327.964 186.307C327.964 186.307 328.922 188.313 329.744 188.879C330.566 189.444 331.328 189.755 331.42 189.52C331.512 189.284 331.355 188.032 329.861 186.952C328.367 185.872 327.889 186.17 327.964 186.307Z" fill="#FDD1B1"/>
<path d="M31.7057 211.131L29.1785 207.236C27.7527 207.585 26.3595 208.056 25.0145 208.644L25.41 213.267C24.0475 213.984 22.766 214.846 21.5876 215.837L17.4548 213.726C16.4001 214.749 15.433 215.859 14.5638 217.044L17.2153 220.856C16.3933 222.156 15.7146 223.54 15.1909 224.986L10.5451 225.238C10.1434 226.651 9.86351 228.096 9.70843 229.558L13.9145 231.526C13.884 232.296 13.8947 233.066 13.9466 233.835C13.9993 234.602 14.0934 235.366 14.2287 236.124L10.3334 238.651C10.682 240.077 11.1532 241.47 11.7418 242.815L16.3647 242.419C17.0809 243.782 17.9424 245.064 18.9341 246.242L16.8234 250.375C17.8465 251.429 18.9562 252.396 20.1409 253.266L23.9485 250.613C25.2495 251.435 26.6359 252.113 28.0834 252.636L28.3355 257.282C29.7484 257.686 31.1936 257.966 32.6549 258.121L34.6232 253.915C36.1661 253.978 37.7112 253.873 39.2314 253.603L41.7586 257.498C43.1841 257.148 44.5771 256.676 45.9226 256.089L45.5271 251.467C46.8887 250.752 48.1685 249.891 49.3439 248.899L53.4797 251.007C54.536 249.985 55.504 248.876 56.3733 247.69L53.7198 243.858C54.5406 242.557 55.2188 241.171 55.7425 239.724L60.3981 239.492C60.8019 238.079 61.0827 236.634 61.2374 235.172L57.0313 233.204C57.062 232.436 57.051 231.667 56.9983 230.9C56.9454 230.131 56.8516 229.365 56.7171 228.606L60.6124 226.079C60.261 224.654 59.7899 223.261 59.204 221.915L54.5811 222.311C53.8653 220.95 53.0044 219.67 52.0134 218.494L54.122 214.358C53.0999 213.302 51.9902 212.334 50.8049 211.465L46.9921 214.116C45.6927 213.295 44.308 212.617 42.8625 212.094L42.6103 207.448C41.1974 207.045 39.7522 206.764 38.2909 206.609L36.3226 210.815C35.5529 210.784 34.7821 210.795 34.0136 210.847C33.2398 210.901 32.4694 210.996 31.7057 211.131ZM34.7061 221.243C36.9064 221.093 39.102 221.598 41.0151 222.695C42.9283 223.793 44.4732 225.432 45.4544 227.408C46.4356 229.383 46.8092 231.605 46.5278 233.792C46.2465 235.979 45.3228 238.034 43.8736 239.697C42.4245 241.359 40.5149 242.555 38.3864 243.132C36.2578 243.71 34.0059 243.643 31.9152 242.94C29.8246 242.238 27.9892 240.931 26.6411 239.186C25.293 237.44 24.4928 235.334 24.3415 233.134C24.24 231.672 24.4276 230.204 24.8938 228.814C25.3599 227.425 26.0954 226.14 27.0581 225.035C28.0209 223.93 29.192 223.025 30.5046 222.373C31.8172 221.72 33.2456 221.333 34.7079 221.233L34.7061 221.243Z" fill="#A9E1F2"/>
<path opacity="0.31" d="M34.2904 215.138C30.8842 215.372 27.6238 216.61 24.9214 218.697C22.2191 220.784 20.1961 223.625 19.1083 226.861C18.0205 230.097 17.9168 233.583 18.8102 236.879C19.7037 240.174 21.5541 243.13 24.1277 245.374C26.7012 247.617 29.8822 249.047 33.2685 249.483C36.6547 249.919 40.0942 249.341 43.1519 247.822C46.2096 246.303 48.7483 243.912 50.4469 240.95C52.1456 237.988 52.9279 234.589 52.6949 231.183C52.5405 228.921 51.942 226.711 50.9334 224.681C49.9248 222.65 48.526 220.838 46.8169 219.348C45.1077 217.858 43.1217 216.719 40.9724 215.997C38.8231 215.274 36.5525 214.983 34.2904 215.138ZM34.7076 221.233C36.9074 221.083 39.1023 221.588 41.0149 222.685C42.9275 223.782 44.472 225.422 45.4531 227.397C46.4342 229.371 46.8079 231.592 46.5271 233.779C46.2462 235.966 45.3234 238.021 43.8752 239.683C42.4269 241.346 40.5183 242.542 38.3906 243.12C36.2628 243.699 34.0114 243.633 31.9209 242.932C29.8304 242.231 27.9945 240.926 26.6454 239.182C25.2963 237.438 24.4944 235.333 24.3412 233.134C24.2396 231.672 24.4273 230.204 24.8934 228.814C25.3596 227.424 26.095 226.14 27.0578 225.035C28.0206 223.929 29.1917 223.025 30.5043 222.372C31.8169 221.72 33.2452 221.333 34.7076 221.233Z" fill="#5574D8"/>
<path d="M57.8963 178.958L56.734 176.436C55.8599 176.524 54.9947 176.685 54.1476 176.917L53.9802 179.689C53.1134 179.996 52.2823 180.395 51.5016 180.881L49.2379 179.274C48.5243 179.787 47.8553 180.36 47.2379 180.986L48.48 183.466C47.8824 184.166 47.3611 184.928 46.9249 185.738L44.1585 185.478C43.7992 186.28 43.5077 187.11 43.287 187.96L45.6022 189.488C45.5199 189.941 45.4608 190.398 45.425 190.857C45.3893 191.314 45.3782 191.773 45.3917 192.231L42.87 193.393C42.9571 194.267 43.1173 195.132 43.3488 195.979L46.1239 196.144C46.4299 197.013 46.8291 197.846 47.3143 198.628L45.7051 200.889C46.2196 201.602 46.7935 202.27 47.4205 202.887L49.9017 201.65C50.6 202.247 51.3604 202.767 52.1698 203.202L51.9097 205.968C52.7122 206.327 53.5434 206.618 54.3945 206.838L55.9218 204.525C56.3739 204.608 56.83 204.668 57.2883 204.704C57.7462 204.739 58.2057 204.75 58.6648 204.735L59.8271 207.257C60.6992 207.169 61.5625 207.009 62.4079 206.777L62.5863 203.989C63.4528 203.683 64.2842 203.285 65.0666 202.803L67.326 204.404C68.0407 203.892 68.7099 203.319 69.326 202.692L68.0865 200.213C68.683 199.511 69.205 198.749 69.6442 197.94L72.4054 198.199C72.7691 197.4 73.0607 196.569 73.2768 195.718L70.9617 194.19C71.1352 193.287 71.2075 192.367 71.1773 191.448L73.699 190.285C73.6161 189.41 73.456 188.544 73.2207 187.697L70.4509 187.532C70.1421 186.665 69.7431 185.833 69.2604 185.049L70.864 182.79C70.3503 182.075 69.7766 181.406 69.149 180.789L66.6695 182.031C65.9728 181.431 65.2125 180.909 64.4023 180.475L64.6598 177.708C63.8552 177.357 63.0224 177.075 62.1704 176.864L60.6379 179.176C60.1867 179.093 59.7314 179.033 59.2741 178.997C58.8158 178.961 58.3559 178.948 57.8963 178.958ZM58.7253 186.135C59.8542 186.222 60.9317 186.642 61.8218 187.342C62.7118 188.042 63.3745 188.99 63.7259 190.066C64.0773 191.143 64.1018 192.299 63.7962 193.389C63.4906 194.479 62.8686 195.455 62.009 196.191C61.1493 196.928 60.0905 197.394 58.9663 197.529C57.8422 197.664 56.7032 197.463 55.6933 196.951C54.6834 196.439 53.8479 195.639 53.2925 194.653C52.7371 193.666 52.4866 192.537 52.5728 191.408C52.6303 190.658 52.8352 189.926 53.1756 189.255C53.516 188.584 53.9853 187.986 54.5566 187.497C55.1279 187.007 55.7902 186.635 56.5054 186.401C57.2207 186.167 57.975 186.077 58.7253 186.135Z" fill="#A9E1F2"/>
<path opacity="0.31" d="M59.2861 181.413C57.2255 181.254 55.1641 181.71 53.3627 182.723C51.5613 183.736 50.1007 185.26 49.1655 187.103C48.2303 188.946 47.8626 191.025 48.1089 193.077C48.3551 195.129 49.2042 197.062 50.5489 198.631C51.8935 200.201 53.6733 201.336 55.6633 201.894C57.6532 202.452 59.7639 202.408 61.7285 201.766C63.6931 201.125 65.4233 199.915 66.7005 198.29C67.9777 196.665 68.7445 194.698 68.9038 192.638C69.1169 189.874 68.2233 187.139 66.4196 185.033C64.616 182.928 62.05 181.626 59.2861 181.413ZM58.9244 186.122C60.0541 186.209 61.1325 186.629 62.0234 187.329C62.9143 188.029 63.5776 188.977 63.9295 190.054C64.2815 191.131 64.3061 192.288 64.0005 193.379C63.6948 194.47 63.0725 195.446 62.2122 196.183C61.352 196.921 60.2924 197.386 59.1676 197.521C58.0427 197.657 56.9029 197.455 55.8925 196.943C54.8821 196.43 54.0463 195.63 53.4908 194.642C52.9353 193.655 52.6852 192.525 52.7719 191.395C52.8295 190.645 53.0343 189.913 53.3747 189.242C53.7151 188.571 54.1844 187.973 54.7557 187.484C55.3271 186.994 55.9893 186.622 56.7046 186.388C57.4199 186.154 58.1742 186.064 58.9244 186.122Z" fill="#5574D8"/>
<g opacity="0.31">
<path d="M408.167 66.5258C407.262 66.3657 406.425 65.9408 405.761 65.3049C405.098 64.669 404.638 63.8507 404.439 62.9533C404.241 62.0559 404.313 61.1198 404.646 60.2634C404.979 59.4069 405.559 58.6685 406.312 58.1416C407.065 57.6146 407.958 57.3228 408.876 57.3029C409.795 57.2831 410.699 57.5361 411.475 58.03C412.25 58.524 412.861 59.2366 413.231 60.0779C413.601 60.9191 413.713 61.8513 413.554 62.7564C413.338 63.97 412.65 65.0486 411.64 65.7553C410.63 66.462 409.381 66.7391 408.167 66.5258ZM409.555 58.6526C408.904 58.5382 408.232 58.6196 407.627 58.8866C407.021 59.1536 406.508 59.5941 406.153 60.1526C405.798 60.711 405.616 61.3623 405.631 62.024C405.645 62.6857 405.856 63.3282 406.236 63.8703C406.616 64.4123 407.148 64.8295 407.765 65.0693C408.382 65.309 409.056 65.3604 409.702 65.217C410.348 65.0736 410.937 64.7419 411.395 64.2637C411.853 63.7855 412.158 63.1824 412.273 62.5306C412.426 61.6561 412.226 60.7567 411.716 60.0297C411.207 59.3027 410.43 58.8074 409.555 58.6526Z" fill="#5574D8"/>
</g>
<g opacity="0.47">
<path d="M80.0048 137.969L75.9661 137.255L76.6783 133.215L75.0626 132.93L74.3509 136.967L70.3147 136.253L70.0272 137.868L74.066 138.583L73.3538 142.622L74.9694 142.907L75.6812 138.87L79.7173 139.585L80.0048 137.969Z" fill="#E34899"/>
</g>
<path d="M168.92 308.104L167.103 305.485L169.719 303.667L168.99 302.62L166.377 304.439L164.561 301.823L163.512 302.549L165.33 305.167L162.714 306.985L163.44 308.032L166.056 306.214L167.871 308.83L168.92 308.104Z" fill="#FDD08D"/>
<defs>
<linearGradient id="paint0_linear_2782_12284" x1="379.85" y1="188.948" x2="389.317" y2="135.259" gradientUnits="userSpaceOnUse">
<stop stop-color="#9BCFE0"/>
<stop offset="1" stop-color="#1C95BC"/>
</linearGradient>
<linearGradient id="paint1_linear_2782_12284" x1="410.443" y1="217.778" x2="415.822" y2="187.275" gradientUnits="userSpaceOnUse">
<stop stop-color="#9BCFE0"/>
<stop offset="1" stop-color="#1C95BC"/>
</linearGradient>
<linearGradient id="paint2_linear_2782_12284" x1="426.915" y1="255.016" x2="413.77" y2="254.828" gradientUnits="userSpaceOnUse">
<stop stop-color="#A1D5E0"/>
<stop offset="1" stop-color="#28B5C8"/>
</linearGradient>
<linearGradient id="paint3_linear_2782_12284" x1="426.716" y1="256.103" x2="413.717" y2="255.917" gradientUnits="userSpaceOnUse">
<stop stop-color="#A1D5E0"/>
<stop offset="1" stop-color="#28B5C8"/>
</linearGradient>
<linearGradient id="paint4_linear_2782_12284" x1="426.237" y1="259.316" x2="413.709" y2="259.137" gradientUnits="userSpaceOnUse">
<stop stop-color="#A1D5E0"/>
<stop offset="1" stop-color="#28B5C8"/>
</linearGradient>
<linearGradient id="paint5_linear_2782_12284" x1="428.029" y1="252.742" x2="423.182" y2="264.922" gradientUnits="userSpaceOnUse">
<stop stop-color="#A1D5E0"/>
<stop offset="1" stop-color="#28B5C8"/>
</linearGradient>
<linearGradient id="paint6_linear_2782_12284" x1="426.951" y1="252.505" x2="422.157" y2="264.553" gradientUnits="userSpaceOnUse">
<stop stop-color="#A1D5E0"/>
<stop offset="1" stop-color="#28B5C8"/>
</linearGradient>
<linearGradient id="paint7_linear_2782_12284" x1="423.811" y1="251.722" x2="419.19" y2="263.334" gradientUnits="userSpaceOnUse">
<stop stop-color="#A1D5E0"/>
<stop offset="1" stop-color="#28B5C8"/>
</linearGradient>
<linearGradient id="paint8_linear_2782_12284" x1="407.354" y1="273.773" x2="392.471" y2="273.56" gradientUnits="userSpaceOnUse">
<stop stop-color="#84D5E0"/>
<stop offset="1" stop-color="#57ABEC"/>
</linearGradient>
<linearGradient id="paint9_linear_2782_12284" x1="314.294" y1="99.5589" x2="-18.9445" y2="367.626" gradientUnits="userSpaceOnUse">
<stop stop-color="white"/>
<stop offset="1" stop-color="#28B5C8"/>
</linearGradient>
<linearGradient id="paint10_linear_2782_12284" x1="223.546" y1="157.779" x2="105.245" y2="124.972" gradientUnits="userSpaceOnUse">
<stop stop-color="white"/>
<stop offset="0.66" stop-color="#6E6B6C"/>
<stop offset="1" stop-color="#231F20"/>
</linearGradient>
<linearGradient id="paint11_linear_2782_12284" x1="70.2274" y1="259.186" x2="90.8466" y2="222.54" gradientUnits="userSpaceOnUse">
<stop stop-color="white"/>
<stop offset="1"/>
</linearGradient>
<linearGradient id="paint12_linear_2782_12284" x1="120.892" y1="196.984" x2="112.123" y2="190.107" gradientUnits="userSpaceOnUse">
<stop stop-color="white"/>
<stop offset="1"/>
</linearGradient>
<linearGradient id="paint13_linear_2782_12284" x1="98.9863" y1="172.171" x2="110.41" y2="174.185" gradientUnits="userSpaceOnUse">
<stop stop-color="white"/>
<stop offset="1"/>
</linearGradient>
<linearGradient id="paint14_linear_2782_12284" x1="94.8314" y1="198.176" x2="83.4879" y2="196.176" gradientUnits="userSpaceOnUse">
<stop stop-color="white"/>
<stop offset="1"/>
</linearGradient>
<linearGradient id="paint15_linear_2782_12284" x1="104.394" y1="169.637" x2="108.069" y2="161.34" gradientUnits="userSpaceOnUse">
<stop stop-color="white"/>
<stop offset="1"/>
</linearGradient>
<linearGradient id="paint16_linear_2782_12284" x1="108.004" y1="157.159" x2="110.778" y2="152.227" gradientUnits="userSpaceOnUse">
<stop stop-color="white"/>
<stop offset="1"/>
</linearGradient>
<linearGradient id="paint17_linear_2782_12284" x1="244.052" y1="260.734" x2="275.94" y2="189.385" gradientUnits="userSpaceOnUse">
<stop stop-color="#C73F86"/>
<stop offset="1" stop-color="#E34899"/>
</linearGradient>
<linearGradient id="paint18_linear_2782_12284" x1="245.468" y1="236.249" x2="258.549" y2="206.978" gradientUnits="userSpaceOnUse">
<stop stop-color="#C73F86"/>
<stop offset="1" stop-color="#E34899"/>
</linearGradient>
<linearGradient id="paint19_linear_2782_12284" x1="252.911" y1="202.499" x2="257.216" y2="186.621" gradientUnits="userSpaceOnUse">
<stop stop-color="white"/>
<stop offset="1"/>
</linearGradient>
<linearGradient id="paint20_linear_2782_12284" x1="336.392" y1="229.883" x2="345.933" y2="231.565" gradientUnits="userSpaceOnUse">
<stop stop-color="white"/>
<stop offset="1"/>
</linearGradient>
<linearGradient id="paint21_linear_2782_12284" x1="338.527" y1="201.633" x2="345.109" y2="202.794" gradientUnits="userSpaceOnUse">
<stop stop-color="white"/>
<stop offset="1"/>
</linearGradient>
</defs>
</svg>
