<svg width="786" height="550" viewBox="0 0 786 550" fill="none" xmlns="http://www.w3.org/2000/svg">
<g clip-path="url(#clip0_3269_9665)">
<path opacity="0.3" d="M786 479.065H0V479.458H786V479.065Z" fill="#EBEBEB"/>
<path opacity="0.3" d="M707.241 504.354H673.16V504.747H707.241V504.354Z" fill="#EBEBEB"/>
<path d="M541.82 496.202H488.199V496.594H541.82V496.202Z" fill="#EBEBEB"/>
<path opacity="0.3" d="M693.443 489.762H623.441V490.154H693.443V489.762Z" fill="#EBEBEB"/>
<path d="M271.989 497.678H254.477V498.071H271.989V497.678Z" fill="#EBEBEB"/>
<path d="M240.47 497.678H180.121V498.071H240.47V497.678Z" fill="#EBEBEB"/>
<path opacity="0.3" d="M147.783 491.05H104.238V491.442H147.783V491.05Z" fill="#EBEBEB"/>
<path opacity="0.12" d="M339.662 193.941L340.369 173.302L327.699 169.155C327.156 162.165 326.02 155.234 324.303 148.437L335.056 140.583L327.762 121.121L314.463 122.189C311.306 115.946 307.625 109.982 303.459 104.361L310.344 92.8789L296.196 77.784L284.312 83.8628C278.959 79.3138 273.25 75.201 267.24 71.5638L269.158 58.3694L250.294 49.8245L241.648 59.9402C234.976 57.8156 228.141 56.2396 221.212 55.2279L218.068 42.3006L197.349 41.5938L193.261 54.2697C186.269 54.8268 179.334 55.9563 172.527 57.6469L164.541 46.9657L145.017 54.1284L146.086 67.417C139.842 70.6264 133.874 74.346 128.244 78.5379L116.799 71.6423L101.63 85.7791L107.713 97.7168C103.151 103.008 99.0493 108.678 95.4516 114.665L82.2626 112.686L73.648 131.535L83.8346 140.174C81.6832 146.834 80.1055 153.666 79.1186 160.594L66.0238 163.908L65.3164 184.548L78.0496 188.695C78.5763 195.686 79.7071 202.617 81.4294 209.413L70.7398 217.346L78.0496 236.729L91.3487 235.661C94.4902 241.912 98.1722 247.877 102.353 253.489L95.4516 264.971L109.6 280.066L121.484 273.987C126.818 278.55 132.517 282.669 138.524 286.302L136.544 299.48L155.408 308.025L164.101 297.91C170.769 300.068 177.604 301.671 184.537 302.7L187.681 315.628L208.4 316.335L212.487 303.659C219.486 303.111 226.426 301.981 233.237 300.281L241.097 310.963L260.496 303.721L259.49 290.449C265.725 287.224 271.692 283.505 277.332 279.328L288.76 286.208L303.93 272.071L297.847 260.133C302.417 254.821 306.52 249.124 310.108 243.106L323.297 245.085L331.912 226.236L321.725 217.613C323.908 210.956 325.512 204.124 326.52 197.193L339.662 193.941ZM200.084 260.746C183.873 260.198 168.189 254.859 155.016 245.404C141.843 235.949 131.771 222.802 126.077 207.627C120.382 192.452 119.32 175.93 123.024 160.151C126.728 144.373 135.032 130.046 146.886 118.984C158.74 107.922 173.611 100.621 189.618 98.0053C205.625 95.3894 222.049 97.576 236.813 104.289C251.576 111.001 264.015 121.938 272.557 135.715C281.098 149.493 285.359 165.492 284.799 181.689C284.053 203.397 274.71 223.919 258.823 238.744C242.937 253.569 221.809 261.483 200.084 260.746Z" fill="#EBEBEB"/>
<path opacity="0.12" d="M693.251 125.661L698.454 120.807L696.395 116.723C697.966 114.886 699.38 112.921 700.623 110.848L705.182 111.54L708.122 105.021L704.553 102.099C705.305 99.8 705.857 97.4404 706.204 95.0466L710.684 93.9313L710.904 86.8001L706.534 85.3864C706.342 82.9712 705.953 80.5757 705.371 78.2238L709.065 75.3964L706.55 68.705L701.975 69.0663C700.875 66.9162 699.598 64.8619 698.155 62.9246L700.529 58.982L695.64 53.7671L691.553 55.8562C689.712 54.2901 687.745 52.877 685.674 51.6309L686.334 47.0757L679.841 44.1227L676.855 47.6098C674.549 46.8925 672.189 46.3671 669.796 46.039L668.68 41.5781L661.543 41.311L660.113 45.7092C657.705 45.893 655.318 46.2819 652.976 46.8715L650.241 43.1802L643.544 45.6777L643.921 50.2643C641.76 51.3558 639.699 52.633 637.759 54.0813L633.798 51.7094L628.579 56.5474L630.685 60.6627C629.099 62.497 627.679 64.4682 626.441 66.5531L621.898 65.8619L618.942 72.3649L622.511 75.3964C621.786 77.6927 621.26 80.0471 620.939 82.4334L616.443 83.5644L616.223 90.6956L620.609 92.1093C620.789 94.5196 621.173 96.9105 621.756 99.2562L618.046 101.989L620.561 108.665L625.152 108.319C626.202 110.45 627.421 112.494 628.799 114.43L626.425 118.357L631.314 123.587L635.401 121.482C637.275 123.036 639.272 124.433 641.375 125.661L640.699 130.184L647.207 133.153L650.194 129.666C652.501 130.376 654.861 130.901 657.252 131.237L658.368 135.713L665.505 135.965L666.935 131.567C669.344 131.392 671.733 131.003 674.072 130.404L676.808 134.111L683.504 131.614L683.08 127.231C685.232 126.132 687.288 124.856 689.226 123.414L693.251 125.661ZM656.057 95.6278C654.684 94.158 653.779 92.3144 653.455 90.3302C653.131 88.346 653.403 86.3103 654.237 84.4808C655.071 82.6513 656.43 81.1101 658.141 80.0521C659.852 78.9941 661.838 78.467 663.849 78.5373C665.86 78.6077 667.804 79.2723 669.437 80.4473C671.07 81.6222 672.317 83.2546 673.021 85.1379C673.725 87.0213 673.854 89.0709 673.392 91.0276C672.93 92.9843 671.898 94.7601 670.425 96.1304C669.449 97.0414 668.303 97.7511 667.053 98.219C665.802 98.6869 664.471 98.9036 663.137 98.857C661.802 98.8103 660.49 98.501 659.275 97.9469C658.06 97.3928 656.967 96.6047 656.057 95.6278Z" fill="#EBEBEB"/>
<path opacity="0.12" d="M503.042 337.602L486.787 326.387C485.183 320.528 482.982 314.849 480.217 309.439L484.382 293.103L460.802 267.877L444.202 270.908C439 267.805 433.496 265.236 427.775 263.243L417.682 246.263L383.098 245.085L371.874 261.327C366.028 262.918 360.361 265.102 354.96 267.845L338.611 263.683L313.364 287.244L316.398 303.8C313.281 309.014 310.71 314.536 308.727 320.277L291.734 330.361L290.555 364.918L306.825 376.133C308.389 382.014 310.576 387.711 313.349 393.129L309.199 409.402L332.779 434.644L349.269 431.628C354.52 434.738 360.071 437.311 365.838 439.309L375.914 456.273L410.498 457.451L421.707 441.21C427.602 439.616 433.322 437.432 438.779 434.691L455.033 438.838L480.295 415.276L477.261 398.721C480.388 393.511 482.959 387.989 484.933 382.243L501.926 372.159L503.042 337.602ZM395.439 390.05C387.761 389.788 380.334 387.257 374.095 382.777C367.857 378.297 363.089 372.07 360.393 364.882C357.696 357.694 357.193 349.869 358.948 342.396C360.702 334.923 364.634 328.137 370.248 322.897C375.862 317.657 382.904 314.198 390.485 312.957C398.066 311.716 405.845 312.748 412.839 315.925C419.832 319.101 425.726 324.278 429.775 330.801C433.825 337.324 435.847 344.9 435.587 352.572C435.231 362.862 430.8 372.59 423.269 379.618C415.737 386.645 405.722 390.398 395.423 390.05H395.439Z" fill="#EBEBEB"/>
<path opacity="0.12" d="M540.062 239.619H539.952L512.725 238.755C512.173 238.745 511.633 238.596 511.155 238.321C510.677 238.047 510.276 237.656 509.99 237.184L502.648 224.854C498.692 223.408 494.863 221.632 491.204 219.545L479.461 221.571C478.916 221.673 478.353 221.636 477.825 221.463C477.298 221.29 476.822 220.987 476.443 220.582L457.846 200.68C457.456 200.268 457.179 199.763 457.041 199.212C456.903 198.662 456.91 198.086 457.06 197.539L460.032 185.899C458.191 182.128 456.686 178.201 455.536 174.166L443.698 165.998C443.239 165.683 442.868 165.257 442.617 164.76C442.367 164.263 442.247 163.711 442.268 163.155L443.195 135.949C443.214 135.4 443.367 134.864 443.641 134.387C443.915 133.911 444.302 133.509 444.767 133.216L457.139 125.881C458.566 121.936 460.339 118.125 462.437 114.493L460.267 102.665C460.166 102.116 460.205 101.55 460.381 101.02C460.557 100.49 460.864 100.013 461.273 99.6334L481.175 81.0671C481.589 80.6795 482.094 80.4028 482.644 80.2628C483.194 80.1227 483.77 80.1238 484.319 80.266L496.015 83.2504C499.783 81.4169 503.701 79.9087 507.726 78.7424L515.9 66.9146C516.204 66.4448 516.628 66.0646 517.129 65.8133C517.629 65.562 518.187 65.4487 518.746 65.4852L545.957 66.4277C546.51 66.4394 547.052 66.5892 547.532 66.8636C548.013 67.1379 548.417 67.5281 548.708 67.9984L556.049 80.3603C559.978 81.796 563.775 83.567 567.399 85.6537L579.283 83.4703C579.831 83.3688 580.395 83.4078 580.922 83.5836C581.45 83.7594 581.925 84.0664 582.302 84.4756L600.82 104.487C601.21 104.899 601.488 105.405 601.625 105.955C601.763 106.505 601.756 107.082 601.606 107.629L598.619 119.315C600.463 123.072 601.978 126.983 603.146 131.001L614.968 139.169C615.427 139.484 615.799 139.91 616.049 140.407C616.299 140.904 616.419 141.456 616.398 142.012L615.471 169.218C615.452 169.767 615.299 170.304 615.025 170.78C614.751 171.256 614.365 171.659 613.899 171.951L601.527 179.286C600.094 183.228 598.322 187.039 596.23 190.674L598.399 202.502C598.501 203.049 598.462 203.612 598.286 204.14C598.11 204.667 597.802 205.142 597.393 205.518L577.491 224.1C577.079 224.49 576.573 224.767 576.022 224.905C575.472 225.042 574.895 225.036 574.347 224.885L562.715 221.932C558.921 223.758 554.983 225.265 550.94 226.441L542.782 238.237C542.472 238.668 542.064 239.018 541.59 239.259C541.117 239.5 540.593 239.623 540.062 239.619ZM514.769 232.111L538.349 232.928L546.209 221.618C546.654 220.969 547.318 220.5 548.079 220.299C552.503 219.09 556.795 217.443 560.891 215.382C561.601 215.025 562.416 214.936 563.186 215.131L574.19 217.943L591.482 201.858L589.501 190.58C589.35 189.786 589.496 188.965 589.91 188.271C592.245 184.382 594.168 180.26 595.648 175.972C595.898 175.199 596.424 174.545 597.126 174.134L608.963 167.113L609.765 143.552L598.446 135.698C597.85 135.291 597.403 134.701 597.173 134.017C597.173 134.017 597.173 133.844 597.173 133.75C595.962 129.409 594.319 125.199 592.268 121.184C591.904 120.466 591.815 119.639 592.017 118.859L594.846 107.739L578.733 90.4602L567.431 92.5179C566.641 92.6682 565.824 92.5228 565.135 92.1095C561.19 89.7872 557.018 87.8715 552.685 86.392C552.439 86.3131 552.202 86.2077 551.978 86.0778C551.525 85.7953 551.147 85.4072 550.877 84.9469L543.913 73.0562L520.333 72.2395L512.473 83.5646C512.01 84.2337 511.316 84.7089 510.524 84.8997C506.146 86.0952 501.901 87.7319 497.854 89.7848C497.14 90.1455 496.321 90.2402 495.543 90.0518L484.413 87.2087L467.121 103.309L469.181 114.666C469.303 115.371 469.199 116.097 468.882 116.739L468.725 117.006C466.39 120.912 464.467 125.049 462.987 129.352C462.727 130.09 462.215 130.713 461.541 131.111L449.704 138.133L448.902 161.694L460.236 169.548C460.886 169.992 461.355 170.656 461.556 171.417C462.737 175.822 464.376 180.091 466.445 184.156C466.558 184.387 466.647 184.629 466.713 184.878C466.831 185.395 466.831 185.932 466.713 186.449L463.883 197.444L479.996 214.723L491.22 212.665C492.004 212.53 492.811 212.675 493.499 213.073C497.429 215.407 501.585 217.338 505.903 218.838C506.681 219.069 507.341 219.593 507.742 220.299L514.769 232.111ZM529.341 202.392H527.596C514.541 202.162 502.105 196.789 492.994 187.443C483.884 178.096 478.837 165.532 478.952 152.485C479.068 139.439 484.335 126.966 493.609 117.781C502.882 108.596 515.411 103.442 528.469 103.442C541.526 103.442 554.055 108.596 563.328 117.781C572.602 126.966 577.87 139.439 577.985 152.485C578.1 165.532 573.053 178.096 563.943 187.443C554.833 196.789 542.396 202.162 529.341 202.392ZM529.341 109.561C517.921 109.757 507.042 114.454 499.07 122.627C491.099 130.801 486.682 141.79 486.781 153.202C486.879 164.614 491.485 175.525 499.596 183.56C507.707 191.595 518.666 196.103 530.088 196.103C541.509 196.103 552.468 191.595 560.579 183.56C568.69 175.525 573.296 164.614 573.395 153.202C573.493 141.79 569.076 130.801 561.105 122.627C553.134 114.454 542.254 109.757 530.834 109.561H529.341Z" fill="#EBEBEB"/>
<path d="M602.766 43.8399L591.479 40.8241L588.461 29.5618L592.878 25.1479L597.531 34.7767L607.183 39.4418L602.766 43.8399Z" fill="#E0E0E0"/>
<path d="M603.459 36.3003C603.947 35.8124 604.334 35.2333 604.599 34.5959C604.863 33.9585 604.999 33.2753 604.999 32.5854C604.999 31.8955 604.863 31.2124 604.599 30.575C604.334 29.9376 603.947 29.3584 603.459 28.8706C602.971 28.3827 602.391 27.9958 601.753 27.7318C601.115 27.4677 600.432 27.3319 599.741 27.3319C599.051 27.3319 598.367 27.4677 597.729 27.7318C597.091 27.9958 596.512 28.3827 596.023 28.8706L601.635 20.4199L609.15 24.2211L610.8 32.0749L603.459 36.3003Z" fill="#E0E0E0"/>
<path d="M591.984 26.0277L600.253 17.7812L611.509 20.7971L614.543 32.0751L606.274 40.3216L595.003 37.3057L591.984 26.0277ZM606.997 32.782C607.733 32.0458 608.234 31.1082 608.437 30.0876C608.64 29.0671 608.535 28.0093 608.136 27.0481C607.737 26.0869 607.062 25.2654 606.197 24.6874C605.331 24.1095 604.313 23.801 603.271 23.801C602.23 23.801 601.212 24.1095 600.346 24.6874C599.48 25.2654 598.805 26.0869 598.407 27.0481C598.008 28.0093 597.903 29.0671 598.106 30.0876C598.309 31.1082 598.81 32.0458 599.546 32.782C600.538 33.7623 601.876 34.3121 603.271 34.3121C604.666 34.3121 606.005 33.7623 606.997 32.782Z" fill="url(#paint0_linear_3269_9665)"/>
<path d="M141.827 344.467L147.879 342.849L149.498 336.802L147.14 334.43L144.641 339.597L139.453 342.095L141.827 344.467Z" fill="#E0E0E0"/>
<path d="M141.481 340.414C141.19 340.159 140.954 339.847 140.788 339.497C140.622 339.148 140.53 338.768 140.517 338.381C140.504 337.994 140.571 337.609 140.714 337.249C140.856 336.889 141.071 336.562 141.345 336.288C141.618 336.014 141.946 335.8 142.306 335.657C142.666 335.515 143.052 335.448 143.439 335.461C143.826 335.474 144.207 335.566 144.557 335.732C144.907 335.898 145.219 336.133 145.474 336.425L142.472 331.917L138.337 333.958L137.457 338.2L141.481 340.414Z" fill="#E0E0E0"/>
<path d="M147.612 334.901L143.179 330.472L137.127 332.042L135.555 338.09L139.909 342.582L145.961 341.011L147.612 334.901ZM139.563 338.53C139.254 338.28 139 337.968 138.819 337.614C138.638 337.26 138.534 336.871 138.514 336.474C138.493 336.077 138.557 335.68 138.701 335.309C138.844 334.938 139.064 334.602 139.347 334.322C139.629 334.042 139.968 333.824 140.34 333.684C140.712 333.543 141.11 333.483 141.507 333.506C141.905 333.53 142.292 333.637 142.645 333.821C142.998 334.004 143.309 334.26 143.556 334.571C144.029 335.111 144.279 335.81 144.255 336.527C144.232 337.245 143.936 337.926 143.428 338.433C142.92 338.94 142.239 339.236 141.521 339.26C140.803 339.283 140.104 339.034 139.563 338.561V338.53Z" fill="url(#paint1_linear_3269_9665)"/>
<path d="M120.039 12.9587L125.069 17.9851C125.698 18.6029 126.545 18.9491 127.427 18.9491C128.309 18.9491 129.156 18.6029 129.785 17.9851C130.4 17.3546 130.744 16.5092 130.744 15.629C130.744 14.7488 130.4 13.9034 129.785 13.2729L124.802 8.21503C124.171 7.60095 123.325 7.25732 122.444 7.25732C121.563 7.25732 120.717 7.60095 120.086 8.21503C119.452 8.83875 119.091 9.68809 119.082 10.5771C119.073 11.4662 119.417 12.3225 120.039 12.9587Z" fill="white"/>
<path d="M116.5 0.471431C117.385 0.11262 118.333 -0.0670747 119.288 -0.0572338C120.243 -0.0473929 121.186 0.151788 122.063 0.528759C122.941 0.90573 123.735 1.45299 124.399 2.13881C125.063 2.82463 125.584 3.63535 125.932 4.52398C126.522 6.34452 126.365 8.32449 125.496 10.0295C124.626 11.7345 123.115 13.0253 121.295 13.6187C120.408 13.9727 119.461 14.1483 118.506 14.1353C117.552 14.1223 116.609 13.9211 115.733 13.543C114.856 13.165 114.063 12.6177 113.399 11.9325C112.735 11.2473 112.213 10.4378 111.863 9.5504C111.273 7.73197 111.431 5.75412 112.3 4.05164C113.17 2.34917 114.681 1.0614 116.5 0.471431Z" fill="url(#paint2_linear_3269_9665)"/>
<path d="M111.502 8.53971L112.23 10.5649L126.312 5.51041L125.584 3.48518L111.502 8.53971Z" fill="#F0F0F0"/>
<path opacity="0.12" d="M392.998 550C561.332 550 697.793 542.04 697.793 532.219C697.793 522.399 561.332 514.438 392.998 514.438C224.665 514.438 88.2031 522.399 88.2031 532.219C88.2031 542.04 224.665 550 392.998 550Z" fill="#F5F5F5"/>
<path d="M136.325 67.9197C134.753 60.9927 135.445 55.1809 138.432 50.4372C141.419 45.6935 146.292 42.5834 153.224 41.0127C160.157 39.4419 166.146 40.0545 170.831 42.9761C175.515 45.8977 178.691 50.8299 180.263 57.5841C181.372 61.7529 181.464 66.1271 180.53 70.3387C179.616 73.8363 177.685 76.9848 174.981 79.3862C171.767 82.0879 167.913 83.9212 163.788 84.7111C159.743 85.7793 155.508 85.9189 151.401 85.1195C147.83 84.2523 144.6 82.3377 142.126 79.6218C139.17 76.3163 137.165 72.2724 136.325 67.9197ZM149.436 64.9981C150.41 69.2706 151.904 72.1765 153.916 73.6844C154.956 74.3735 156.125 74.8458 157.352 75.0728C158.58 75.2999 159.84 75.277 161.059 75.0057C162.277 74.7344 163.428 74.2201 164.442 73.4937C165.457 72.7674 166.315 71.8439 166.964 70.7785C168.095 68.5951 168.111 65.1395 167.042 60.3958C166.13 56.4061 164.658 53.673 162.625 52.1964C161.601 51.4623 160.426 50.9669 159.185 50.7467C157.945 50.5266 156.671 50.5872 155.456 50.9241C154.241 51.1554 153.093 51.6584 152.099 52.3956C151.106 53.1328 150.292 54.0849 149.719 55.1809C148.555 57.4114 148.445 60.6785 149.436 64.9981Z" fill="white"/>
<path d="M186.422 62.7362C185.864 60.5956 185.764 58.3613 186.13 56.1796C186.496 53.9979 187.319 51.9179 188.545 50.0759C189.919 48.119 191.667 46.4526 193.687 45.1722C195.708 43.8919 197.961 43.0228 200.319 42.6149C206.471 41.2117 211.522 41.9394 215.473 44.7982C218.723 47.143 220.968 50.6262 221.761 54.5526C222.32 56.6897 222.426 58.9201 222.072 61.1004C221.717 63.2808 220.91 65.3629 219.702 67.2129C217.249 70.9513 213.256 73.4436 207.723 74.6897C203.46 75.8806 198.912 75.513 194.895 73.653C192.733 72.6137 190.842 71.0866 189.372 69.192C187.901 67.2975 186.892 65.0874 186.422 62.7362ZM198.228 60.0188C198.53 62.2087 199.586 64.225 201.215 65.7207C201.864 66.2187 202.615 66.5682 203.415 66.7447C204.214 66.9211 205.042 66.9202 205.841 66.742C206.64 66.5637 207.39 66.2125 208.039 65.7131C208.687 65.2137 209.218 64.5782 209.594 63.8515C210.415 61.7468 210.493 59.4248 209.814 57.27C209.486 55.1209 208.426 53.1509 206.811 51.6938C206.184 51.1915 205.45 50.8385 204.665 50.6616C203.881 50.4847 203.066 50.4885 202.284 50.6728C201.466 50.8412 200.697 51.195 200.038 51.707C199.378 52.219 198.845 52.8755 198.48 53.6259C197.652 55.6623 197.563 57.9237 198.228 60.0188Z" fill="white"/>
<path d="M233.566 80.3601L223.93 37.9497L234.934 35.4522L235.971 39.9917C236.744 38.1745 237.871 36.5297 239.288 35.1538C240.84 33.8435 242.693 32.9369 244.68 32.5149C246.517 32.0065 248.454 31.9733 250.307 32.4184C252.16 32.8636 253.87 33.7724 255.275 35.0595C258.386 37.9527 260.494 41.7595 261.296 45.9292C262.459 51.0498 262.114 55.2123 260.29 58.4952C259.423 60.0648 258.224 61.4271 256.777 62.4876C255.33 63.5482 253.67 64.2815 251.911 64.6369C250.217 65.0383 248.46 65.1076 246.739 64.841C245.078 64.5563 243.494 63.9305 242.086 63.0033L245.419 77.6584L233.566 80.3601ZM239.241 50.7357C239.546 52.7099 240.557 54.5067 242.086 55.7935C242.687 56.2527 243.383 56.5703 244.123 56.7226C244.864 56.8749 245.629 56.858 246.362 56.6731C247.043 56.5368 247.682 56.2426 248.228 55.8142C248.774 55.3859 249.212 54.8354 249.506 54.207C250.175 52.2412 250.175 50.1098 249.506 48.1439C249.218 46.1735 248.264 44.3609 246.802 43.0075C246.266 42.5543 245.632 42.2318 244.95 42.0655C244.268 41.8992 243.557 41.8937 242.872 42.0494C242.15 42.2052 241.472 42.522 240.89 42.9762C240.307 43.4305 239.835 44.0103 239.508 44.6725C238.718 46.6014 238.624 48.7448 239.241 50.7357Z" fill="white"/>
<path d="M266.344 51.6624L277.788 47.9083C278.397 49.0138 279.345 49.8948 280.492 50.4215C281.736 50.7906 283.055 50.8252 284.317 50.5218C285.578 50.2184 286.737 49.5878 287.676 48.6937C287.937 48.4165 288.127 48.08 288.228 47.7132C288.329 47.3465 288.34 46.9605 288.258 46.5889C288.157 46.1684 287.935 45.7866 287.619 45.4908C287.304 45.1949 286.908 44.9978 286.482 44.9239C284.705 44.7291 282.913 44.7291 281.137 44.9239C278.155 45.1773 275.158 45.1773 272.176 44.9239C270.429 44.6777 268.791 43.9301 267.46 42.772C266.05 41.6029 265.075 39.9924 264.694 38.2011C264.221 36.3165 264.427 34.3259 265.275 32.5778C266.201 30.7587 267.623 29.2391 269.378 28.1953C271.861 26.7454 274.563 25.7108 277.38 25.1324C280.085 24.407 282.88 24.0685 285.68 24.1271C287.439 24.2402 289.144 24.7793 290.647 25.6978C292.253 26.7871 293.613 28.1995 294.64 29.8446L283.636 33.4731C283.225 32.6547 282.541 32.0049 281.703 31.6353C280.596 31.2267 279.394 31.1503 278.244 31.4154C277.203 31.5604 276.238 32.0401 275.493 32.782C275.258 33.0356 275.088 33.3425 274.998 33.6762C274.907 34.01 274.899 34.3608 274.975 34.6983C275.06 35.0697 275.256 35.4066 275.536 35.6646C275.817 35.9225 276.169 36.0895 276.547 36.1434C278.304 36.3472 280.081 36.3102 281.828 36.0334C284.86 35.5945 287.935 35.5522 290.978 35.9078C292.891 36.1778 294.684 37.0024 296.134 38.2796C297.43 39.4885 298.319 41.0688 298.68 42.8034C299.084 44.6534 298.936 46.581 298.256 48.3481C297.421 50.4428 295.975 52.238 294.106 53.5002C291.344 55.289 288.256 56.5167 285.02 57.113C279.408 58.401 275.226 58.4952 272.444 57.4428C269.725 56.3985 267.532 54.3199 266.344 51.6624Z" fill="white"/>
<path d="M304.73 12.8178L317.637 12.7393V22.6507L315.263 42.5522H307.277L304.73 22.6821V12.8178ZM305.359 45.6309L317.401 45.5523V56.2021H305.359V45.6309Z" fill="white"/>
<path d="M202.284 147.918C202.19 147.933 202.094 147.933 202.001 147.918C194.927 145.185 190.698 142.499 188.497 139.295C186.773 139.615 184.991 139.367 183.42 138.588C181.578 137.687 180.049 136.253 179.034 134.472C178.5 134.88 177.872 135.149 177.207 135.253C176.543 135.357 175.863 135.294 175.23 135.069C173.292 134.338 171.639 133.006 170.514 131.268C169.847 131.759 169.029 131.998 168.203 131.943C163.487 131.567 157.199 122.268 156.743 112.372C156.739 112.269 156.755 112.166 156.79 112.069C156.826 111.972 156.881 111.883 156.951 111.807C157.021 111.731 157.105 111.67 157.199 111.627C157.293 111.583 157.394 111.559 157.497 111.555C157.6 111.549 157.703 111.563 157.799 111.597C157.896 111.631 157.985 111.683 158.062 111.752C158.138 111.821 158.199 111.904 158.243 111.997C158.286 112.09 158.311 112.191 158.315 112.293C158.755 121.718 164.776 130.09 168.344 130.388C168.87 130.434 169.393 130.277 169.806 129.949C168.577 127.712 167.805 125.253 167.535 122.716C167.266 120.178 167.503 117.613 168.234 115.168C169.586 110.456 170.781 108.602 172.227 108.885C174.931 109.56 174.569 119.88 173.139 126.619C172.922 127.834 172.474 128.996 171.818 130.043C172.716 131.578 174.075 132.792 175.701 133.514C176.144 133.687 176.627 133.729 177.093 133.634C177.558 133.539 177.987 133.312 178.326 132.98C176.924 128.929 176.991 124.515 178.515 120.508C180.716 113.55 181.659 113.361 182.146 113.251C182.33 113.209 182.521 113.219 182.699 113.281C182.877 113.342 183.034 113.451 183.152 113.597C184.614 115.168 182.869 126.037 181.046 131.378C180.832 132.021 180.536 132.633 180.166 133.2C181.009 134.899 182.383 136.277 184.08 137.127C185.193 137.668 186.43 137.901 187.664 137.802C187.523 137.504 187.397 137.206 187.271 136.891C186.029 133.53 186.642 129.634 189.142 125.001C190.792 121.859 192.144 120.477 193.402 120.477C193.737 120.483 194.064 120.585 194.343 120.772C194.622 120.958 194.841 121.221 194.974 121.529C196.342 124.043 195.351 132.383 192.647 136.53C192.014 137.481 191.134 138.241 190.101 138.729C192.207 141.494 196.216 143.928 202.677 146.41C202.87 146.484 203.026 146.631 203.111 146.819C203.196 147.007 203.204 147.222 203.133 147.415C203.067 147.582 202.948 147.722 202.795 147.813C202.641 147.904 202.461 147.941 202.284 147.918ZM193.355 122.048C193.355 122.048 192.459 122.048 190.478 125.739C188.199 129.949 187.617 133.42 188.702 136.357C188.839 136.717 188.996 137.068 189.173 137.41C190.026 137.052 190.75 136.444 191.248 135.666C193.449 132.305 194.502 125.393 193.685 122.707C193.575 122.142 193.355 122.048 193.355 122.048ZM182.068 115.435C181.238 117.216 180.549 119.059 180.008 120.948C178.803 124.245 178.595 127.823 179.411 131.237L179.553 130.844C181.183 125.867 182.047 120.671 182.115 115.435H182.068ZM171.724 110.487C171.457 110.738 170.686 111.712 169.602 115.545C168.32 119.851 168.724 124.484 170.734 128.504C171.054 127.795 171.291 127.052 171.441 126.289C173.123 118.576 172.651 111.602 171.771 110.487H171.724Z" fill="#263238"/>
<path d="M262.051 230.257C259.537 230.281 257.063 229.636 254.882 228.388C254.725 228.274 254.616 228.105 254.575 227.915C254.535 227.725 254.567 227.526 254.665 227.358C254.763 227.19 254.92 227.064 255.105 227.005C255.29 226.946 255.491 226.957 255.668 227.037C261.28 230.32 268.527 228.027 270.021 225.624C270.129 225.473 270.206 225.302 270.247 225.122C270.287 224.941 270.291 224.753 270.256 224.571C267.387 224.736 264.545 223.928 262.192 222.278C258.183 219.78 257.869 219.026 257.901 218.445C257.909 218.272 257.962 218.104 258.056 217.957C258.15 217.811 258.281 217.692 258.435 217.613C260.007 216.827 267.097 220.094 270.052 222.026C270.406 222.262 270.733 222.536 271.027 222.843C272.188 222.58 273.235 221.953 274.014 221.053C274.452 220.544 274.769 219.942 274.941 219.293H274.627C272.111 219.545 269.596 218.477 266.908 215.995C265.053 214.283 264.346 213.105 264.582 212.178C264.655 211.918 264.8 211.685 265 211.504C265.2 211.323 265.448 211.203 265.713 211.157C267.883 210.607 273.259 212.9 275.444 215.304C275.931 215.826 276.278 216.464 276.45 217.157C278.509 216.199 280.679 214.016 283.241 210.45C283.362 210.279 283.546 210.163 283.752 210.128C283.959 210.093 284.171 210.141 284.342 210.262C284.513 210.382 284.628 210.566 284.664 210.772C284.699 210.978 284.651 211.19 284.53 211.361C281.559 215.508 279.075 217.864 276.592 218.822C276.463 219.983 275.986 221.078 275.224 221.964C274.322 223.02 273.131 223.79 271.797 224.178C271.873 224.553 271.873 224.94 271.797 225.314C271.722 225.689 271.572 226.045 271.357 226.362C270.036 228.592 266.232 230.257 262.051 230.257ZM260.652 219.356C261.186 219.749 261.941 220.267 263.025 220.927C264.716 222.066 266.658 222.778 268.684 223C266.148 221.497 263.454 220.275 260.652 219.356ZM266.138 212.68C266.589 213.53 267.216 214.274 267.977 214.864C270.304 217.031 272.426 218.005 274.469 217.77H274.972C274.861 217.282 274.622 216.832 274.281 216.466C272.08 213.968 267.238 212.429 266.138 212.68Z" fill="#263238"/>
<path d="M282.866 228.105L258.374 232.551L236.13 111.257L188.876 119.849L111.848 256.505L120.132 301.585L218.917 283.663L225.676 320.544L272.931 311.968L266.171 275.087L290.663 270.641L282.866 228.105ZM158.913 250.599L199.785 179.019L211.182 241.127L158.913 250.599Z" fill="url(#paint3_linear_3269_9665)"/>
<path d="M480.135 103.01C479.393 95.3903 477.703 87.8924 475.104 80.69C472.44 73.7819 468.728 67.324 464.1 61.5425C458.634 54.802 451.838 49.2575 444.136 45.2537C435.752 40.6567 424.633 37.4576 410.778 35.6564C382.01 31.8971 359.594 36.9968 343.528 50.9556C327.462 64.9144 316.877 91.6172 311.773 131.064C309.736 145.81 309.209 160.726 310.201 175.579C311.249 189.193 313.754 200.156 317.716 208.471C322.757 219.665 330.71 229.304 340.745 236.383C350.67 243.347 364.294 247.949 381.617 250.19C412.408 254.201 435.238 248.29 450.109 232.456C464.981 216.623 474.832 189.868 479.663 152.191C481.811 135.877 481.969 119.363 480.135 103.01Z" fill="url(#paint4_linear_3269_9665)"/>
<path d="M395.784 234.043C391.996 233.917 387.924 233.587 383.821 233.038C369.422 231.168 358.292 227.524 350.715 222.215C343.159 216.884 337.184 209.611 333.423 201.167L333.344 200.994C330.326 194.711 328.345 185.679 327.481 174.291C326.565 160.607 327.049 146.865 328.927 133.279C334.539 89.7375 346.125 71.5796 354.849 64.0085C365.036 55.1809 378.791 51.1912 396.869 51.8038C400.579 51.9294 404.509 52.2593 408.549 52.7933C420.15 54.3641 429.346 56.8616 435.854 60.4115C441.491 63.3265 446.475 67.3559 450.505 72.255C454.034 76.6526 456.87 81.5628 458.916 86.8159C461.002 92.6739 462.354 98.7678 462.94 104.958C464.616 119.964 464.463 135.117 462.484 150.086C458.13 183.92 449.704 207.686 437.458 220.77C428.372 230.446 414.742 234.907 395.784 234.184V234.043Z" fill="#263238"/>
<path d="M426.545 103.482L426.749 97.5286L423.086 96.3348C422.93 94.3213 422.604 92.3245 422.112 90.3659L425.256 88.0726L423.149 82.4964L419.313 82.7949C418.411 80.9977 417.36 79.2795 416.169 77.6585L418.15 74.3442L414.063 69.9932L410.636 71.7525C409.103 70.4352 407.462 69.2478 405.731 68.2026L406.203 64.4013L400.764 61.9352L398.28 64.8568C396.357 64.234 394.385 63.7717 392.385 63.4746L391.426 59.6891L385.453 59.4849L384.274 63.129C382.26 63.2978 380.263 63.6234 378.3 64.1029L375.989 60.9614L370.393 63.0505L370.707 66.8831C368.909 67.7852 367.19 68.836 365.567 70.0246L362.266 68.0455L357.927 72.2551L359.687 75.6951C358.365 77.2262 357.182 78.8715 356.15 80.6115L352.346 80.1089L349.862 85.5437L352.802 87.9627C352.162 89.8799 351.699 91.8515 351.419 93.853L347.677 94.7954L347.41 100.78L351.073 101.974C351.228 103.987 351.554 105.984 352.048 107.943L348.904 110.22L351.01 115.812L354.846 115.498C355.742 117.303 356.794 119.027 357.99 120.65L355.993 123.949L360.08 128.3L363.507 126.556C365.045 127.868 366.685 129.056 368.412 130.106L367.846 133.892L373.285 136.358L375.942 133.515C377.872 134.132 379.849 134.594 381.853 134.897L382.78 138.62L388.738 138.824L389.854 135.085C391.875 134.932 393.878 134.606 395.843 134.111L398.123 137.253L403.782 135.085L403.483 131.268C405.278 130.361 406.997 129.31 408.624 128.127L411.925 130.106L416.295 126.038L414.55 122.519C415.892 121.011 417.097 119.387 418.15 117.666L421.954 118.231L424.438 112.796L421.514 110.315C422.14 108.394 422.597 106.423 422.882 104.424L426.545 103.482ZM386.301 122.755C381.645 122.585 377.144 121.04 373.366 118.317C369.587 115.593 366.701 111.811 365.072 107.45C363.442 103.088 363.142 98.3424 364.21 93.8108C365.277 89.2792 367.664 85.1652 371.07 81.988C374.475 78.8107 378.746 76.7128 383.344 75.9589C387.942 75.205 392.66 75.829 396.903 77.7521C401.146 79.6752 404.724 82.8111 407.185 86.7642C409.646 90.7172 410.879 95.3102 410.73 99.9632C410.631 103.065 409.919 106.116 408.637 108.942C407.354 111.768 405.525 114.313 403.255 116.431C400.985 118.548 398.319 120.197 395.41 121.283C392.5 122.368 389.405 122.868 386.301 122.755Z" fill="url(#paint5_linear_3269_9665)"/>
<path d="M469.628 158.887L464.912 155.651C464.451 153.963 463.819 152.326 463.026 150.766L464.22 146.054L457.429 138.781L452.713 139.661C451.217 138.771 449.638 138.029 447.997 137.446L445.089 132.545L435.138 132.215L431.9 136.928C430.217 137.391 428.584 138.023 427.027 138.813L422.311 137.603L414.938 144.373L415.818 149.085C414.915 150.573 414.172 152.153 413.602 153.798L408.713 156.703L408.367 166.646L413.083 169.898C413.538 171.588 414.17 173.226 414.97 174.783L413.775 179.495L420.566 186.768L425.282 185.904C426.779 186.792 428.358 187.534 429.998 188.119L433.016 193.066L442.983 193.412L446.205 188.7C447.907 188.245 449.556 187.614 451.126 186.815L455.842 188.009L463.12 181.223L462.255 176.511C463.152 175.019 463.894 173.44 464.472 171.798L469.361 168.892L469.628 158.887ZM438.612 174.013C436.4 173.937 434.26 173.207 432.462 171.916C430.665 170.625 429.291 168.83 428.515 166.758C427.738 164.687 427.594 162.432 428.1 160.278C428.607 158.125 429.741 156.17 431.359 154.66C432.977 153.151 435.007 152.155 437.192 151.798C439.377 151.442 441.619 151.741 443.634 152.657C445.648 153.574 447.346 155.066 448.512 156.947C449.677 158.828 450.259 161.011 450.182 163.222C450.072 166.183 448.793 168.98 446.625 171.002C444.457 173.024 441.576 174.107 438.612 174.013Z" fill="white"/>
<path d="M507.754 65.532L508.572 63.5528C509.128 63.2399 509.654 62.8771 510.144 62.469H511.967L514.105 59.3275L513.414 57.6311C513.625 57.0088 513.772 56.3668 513.854 55.7147L515.426 54.2696L514.766 50.5784L512.785 49.7616C512.472 49.2063 512.109 48.6805 511.7 48.1908V46.3687L508.635 44.2325L506.937 44.9237C506.316 44.7053 505.673 44.5577 505.019 44.4838L503.573 42.9131L499.894 43.5728L499.061 45.552C498.478 45.8541 497.925 46.2118 497.411 46.6201H495.603L493.465 49.683L494.157 51.3638C493.944 51.9909 493.796 52.6383 493.717 53.2958L492.145 54.7409L492.805 58.4164L494.785 59.2332C495.084 59.8232 495.442 60.3811 495.854 60.8982V62.7046L498.998 64.8408L500.68 64.1497C501.311 64.3517 501.958 64.4989 502.614 64.5895L504.06 66.1603L507.754 65.532ZM499.894 55.3378C499.746 54.5182 499.844 53.673 500.176 52.9091C500.508 52.1452 501.06 51.4969 501.761 51.0464C502.462 50.5959 503.281 50.3633 504.115 50.3781C504.948 50.3929 505.759 50.6544 506.443 51.1295C507.128 51.6047 507.656 52.2721 507.961 53.0473C508.266 53.8225 508.334 54.6706 508.156 55.4844C507.978 56.2982 507.563 57.041 506.963 57.6189C506.362 58.1967 505.604 58.5836 504.783 58.7306C503.685 58.9231 502.556 58.6746 501.64 58.0393C500.725 57.4039 500.097 56.433 499.894 55.3378Z" fill="url(#paint6_linear_3269_9665)"/>
<path d="M464.699 55.1022L463.488 54.0969C466.078 50.8783 469.285 48.2083 472.92 46.2432L473.659 47.6254C470.209 49.5045 467.164 52.0453 464.699 55.1022Z" fill="url(#paint7_linear_3269_9665)"/>
<path d="M477.242 46.1648L476.629 44.7197C482.434 42.199 488.782 41.1833 495.084 41.7666L494.927 43.3374C488.887 42.7686 482.802 43.7414 477.242 46.1648Z" fill="url(#paint8_linear_3269_9665)"/>
<path d="M474.273 57.0344L472.984 56.1548C476.775 51.0488 482.286 47.4841 488.5 46.1177L488.799 47.6884C482.992 48.9627 477.837 52.2796 474.273 57.0344Z" fill="url(#paint9_linear_3269_9665)"/>
<path d="M369.954 218.204C369.742 218.203 369.538 218.119 369.388 217.968L366.103 214.575C364.429 214.411 362.772 214.101 361.151 213.649L356.011 215.911C355.897 215.972 355.77 216.005 355.641 216.005C355.512 216.005 355.385 215.972 355.272 215.911L346.657 210.209C346.546 210.139 346.456 210.042 346.395 209.926C346.334 209.81 346.305 209.68 346.311 209.549V203.941C345.26 202.633 344.334 201.229 343.545 199.748L339.127 198.035C339.003 197.989 338.893 197.911 338.807 197.809C338.722 197.707 338.664 197.585 338.64 197.454L336.597 187.339C336.568 187.212 336.573 187.08 336.611 186.956C336.65 186.831 336.721 186.72 336.817 186.632L340.212 183.333C340.374 181.661 340.679 180.006 341.124 178.385L338.86 173.265C338.798 173.149 338.766 173.019 338.766 172.888C338.766 172.756 338.798 172.627 338.86 172.511L344.567 163.903C344.637 163.79 344.738 163.698 344.857 163.637C344.976 163.576 345.109 163.548 345.243 163.557H350.839C352.224 162.495 353.708 161.569 355.272 160.793L356.844 156.395C356.892 156.274 356.968 156.166 357.067 156.081C357.165 155.997 357.283 155.937 357.41 155.908L367.533 153.866C367.663 153.837 367.797 153.842 367.924 153.881C368.051 153.92 368.165 153.99 368.257 154.086L371.542 157.479C373.222 157.632 374.885 157.937 376.51 158.39L381.697 156.081C381.814 156.02 381.943 155.988 382.074 155.988C382.206 155.988 382.335 156.02 382.452 156.081L391.051 161.767C391.16 161.843 391.249 161.944 391.312 162.061C391.375 162.179 391.409 162.309 391.412 162.442L391.318 168.034C392.374 169.348 393.306 170.757 394.1 172.244L398.502 173.956C398.624 174.001 398.733 174.077 398.819 174.176C398.904 174.274 398.963 174.393 398.989 174.521L401.049 184.637C401.073 184.766 401.065 184.899 401.027 185.025C400.989 185.151 400.921 185.266 400.828 185.359L397.417 188.658C397.26 190.326 396.955 191.976 396.505 193.59L398.769 198.727C398.831 198.843 398.863 198.972 398.863 199.104C398.863 199.235 398.831 199.364 398.769 199.481L393 208.198C392.927 208.307 392.829 208.396 392.714 208.459C392.599 208.522 392.471 208.557 392.34 208.559L386.728 208.465C385.415 209.512 384.01 210.437 382.53 211.23L380.817 215.644C380.77 215.768 380.692 215.878 380.59 215.964C380.488 216.049 380.366 216.106 380.235 216.131L370.112 218.188L369.954 218.204ZM361.104 212.031H361.324C363.023 212.523 364.766 212.849 366.527 213.005C366.718 213.019 366.897 213.103 367.03 213.24L370.174 216.523L379.449 214.654L381.116 210.366C381.188 210.185 381.321 210.035 381.493 209.942C383.063 209.13 384.544 208.156 385.91 207.036C386.055 206.914 386.24 206.852 386.429 206.863L391.884 206.942L397.103 199.088L394.902 194.093C394.84 193.92 394.84 193.731 394.902 193.559C395.39 191.861 395.711 190.12 395.861 188.36C395.88 188.17 395.963 187.993 396.097 187.857L399.398 184.715L397.527 175.448L393.236 173.783C393.051 173.716 392.9 173.581 392.811 173.406C391.999 171.842 391.024 170.368 389.903 169.008C389.793 168.857 389.732 168.676 389.73 168.49V163.039L381.87 157.808L376.887 160.007C376.709 160.071 376.515 160.071 376.337 160.007C374.633 159.516 372.885 159.195 371.118 159.049C370.929 159.027 370.752 158.944 370.615 158.814L367.471 155.515L358.196 157.4L356.529 161.672C356.464 161.852 356.335 162.003 356.168 162.097C354.595 162.912 353.109 163.885 351.735 165.002C351.668 165.066 351.589 165.115 351.502 165.147C351.416 165.18 351.324 165.195 351.232 165.191L345.84 165.065L340.605 172.919L342.806 177.914C342.856 178.02 342.882 178.135 342.882 178.252C342.882 178.369 342.856 178.484 342.806 178.589C342.342 180.248 342.036 181.947 341.894 183.663C341.879 183.854 341.796 184.032 341.658 184.166L338.357 187.307L340.244 196.575L344.519 198.24C344.71 198.319 344.866 198.464 344.96 198.648C345.77 200.204 346.739 201.673 347.852 203.03C347.971 203.176 348.033 203.361 348.025 203.549V208.999L355.885 214.23L360.884 212.015C360.958 212.01 361.032 212.016 361.104 212.031ZM368.823 206.942C365.039 206.938 361.327 205.91 358.081 203.967C354.835 202.025 352.176 199.239 350.388 195.907C348.6 192.575 347.749 188.821 347.925 185.045C348.101 181.268 349.298 177.61 351.389 174.458C353.389 171.435 356.139 168.982 359.372 167.34C362.605 165.697 366.209 164.921 369.832 165.087C373.455 165.254 376.972 166.357 380.041 168.288C383.109 170.22 385.623 172.915 387.337 176.108C389.051 179.302 389.907 182.885 389.819 186.508C389.732 190.131 388.705 193.669 386.839 196.776C384.973 199.884 382.332 202.454 379.174 204.236C376.016 206.018 372.449 206.95 368.823 206.942ZM352.71 175.338C350.596 178.529 349.477 182.275 349.493 186.102C349.51 189.929 350.661 193.665 352.803 196.838C354.944 200.01 357.979 202.478 361.523 203.927C365.068 205.377 368.963 205.744 372.716 204.982C376.469 204.22 379.912 202.364 382.609 199.647C385.307 196.93 387.137 193.475 387.87 189.719C388.602 185.963 388.203 182.074 386.724 178.544C385.245 175.014 382.752 172.002 379.559 169.887C377.444 168.466 375.067 167.48 372.566 166.984C370.066 166.489 367.492 166.495 364.994 167.002C362.496 167.509 360.123 168.507 358.014 169.938C355.906 171.369 354.102 173.205 352.71 175.338Z" fill="white"/>
<path d="M669.405 242.274L644.724 238.944L661.042 116.723L613.441 110.314L497.978 216.529L491.91 261.971L591.402 275.401L586.434 312.581L634.035 318.989L639.002 281.825L663.683 285.155L669.405 242.274ZM544.556 225.435L605.487 169.956L597.124 232.472L544.556 225.435Z" fill="url(#paint10_linear_3269_9665)"/>
<path d="M619.572 317.811H619.368C619.163 317.769 618.982 317.649 618.865 317.476C618.747 317.303 618.702 317.09 618.739 316.884L655.524 115.938C655.566 115.736 655.684 115.558 655.854 115.441C656.024 115.324 656.232 115.277 656.436 115.309C656.64 115.348 656.82 115.465 656.938 115.635C657.056 115.806 657.101 116.016 657.065 116.22L620.358 317.167C620.322 317.349 620.224 317.512 620.081 317.63C619.937 317.747 619.758 317.811 619.572 317.811Z" fill="#263238"/>
<path d="M652.113 119.378C652.113 119.719 651.977 120.047 651.736 120.288C651.494 120.53 651.166 120.666 650.824 120.666C650.482 120.666 650.154 120.53 649.913 120.288C649.671 120.047 649.535 119.719 649.535 119.378C649.547 119.035 649.695 118.71 649.945 118.475C650.195 118.24 650.528 118.113 650.871 118.121C651.2 118.133 651.511 118.27 651.742 118.503C651.973 118.737 652.105 119.049 652.113 119.378Z" fill="#263238"/>
<path d="M646.878 146.489C646.872 146.658 646.833 146.825 646.762 146.978C646.692 147.132 646.591 147.271 646.467 147.386C646.343 147.502 646.198 147.591 646.039 147.65C645.88 147.709 645.711 147.736 645.542 147.73C645.287 147.72 645.041 147.636 644.834 147.486C644.628 147.337 644.47 147.13 644.382 146.891C644.293 146.653 644.277 146.393 644.336 146.145C644.394 145.898 644.526 145.673 644.712 145.499C644.899 145.326 645.133 145.212 645.385 145.171C645.636 145.131 645.894 145.166 646.126 145.271C646.358 145.377 646.553 145.55 646.687 145.766C646.821 145.983 646.887 146.235 646.878 146.489Z" fill="#263238"/>
<path d="M641.644 173.663C641.638 173.832 641.598 173.998 641.528 174.152C641.457 174.306 641.357 174.445 641.233 174.56C641.109 174.675 640.963 174.765 640.804 174.824C640.646 174.883 640.477 174.91 640.307 174.904C640.053 174.894 639.807 174.81 639.6 174.66C639.394 174.511 639.236 174.304 639.147 174.065C639.058 173.827 639.042 173.567 639.101 173.319C639.16 173.071 639.291 172.847 639.478 172.673C639.665 172.5 639.899 172.386 640.15 172.345C640.402 172.304 640.66 172.339 640.892 172.445C641.123 172.551 641.318 172.723 641.452 172.94C641.586 173.157 641.653 173.408 641.644 173.663Z" fill="#263238"/>
<path d="M631.332 201.952C631.325 202.207 631.243 202.455 631.095 202.664C630.948 202.872 630.742 203.032 630.503 203.123C630.264 203.214 630.004 203.232 629.755 203.175C629.505 203.118 629.279 202.988 629.104 202.802C628.929 202.616 628.813 202.382 628.771 202.13C628.729 201.879 628.764 201.62 628.869 201.387C628.975 201.155 629.147 200.959 629.365 200.825C629.582 200.69 629.834 200.623 630.09 200.633C630.259 200.635 630.426 200.671 630.581 200.739C630.736 200.807 630.876 200.905 630.992 201.028C631.108 201.152 631.198 201.297 631.256 201.456C631.314 201.614 631.34 201.783 631.332 201.952Z" fill="#263238"/>
<path d="M631.157 228.011C631.153 228.182 631.115 228.35 631.046 228.506C630.976 228.661 630.876 228.802 630.752 228.919C630.628 229.036 630.481 229.127 630.321 229.187C630.162 229.246 629.991 229.274 629.821 229.268C629.479 229.255 629.156 229.108 628.923 228.857C628.69 228.607 628.566 228.274 628.579 227.933C628.591 227.591 628.739 227.268 628.99 227.036C629.241 226.803 629.573 226.679 629.915 226.692C630.084 226.696 630.25 226.733 630.404 226.802C630.558 226.871 630.697 226.969 630.812 227.092C630.928 227.215 631.018 227.359 631.077 227.517C631.136 227.675 631.163 227.843 631.157 228.011Z" fill="#263238"/>
<path d="M625.925 255.201C625.915 255.455 625.831 255.701 625.681 255.908C625.532 256.114 625.325 256.271 625.086 256.36C624.847 256.449 624.587 256.465 624.339 256.406C624.091 256.347 623.866 256.216 623.692 256.03C623.519 255.843 623.405 255.609 623.364 255.358C623.324 255.106 623.358 254.849 623.464 254.617C623.57 254.385 623.743 254.19 623.96 254.057C624.177 253.923 624.428 253.856 624.683 253.866C624.852 253.872 625.019 253.911 625.173 253.981C625.327 254.052 625.466 254.152 625.581 254.276C625.696 254.4 625.786 254.545 625.845 254.704C625.904 254.863 625.931 255.032 625.925 255.201Z" fill="#263238"/>
<path d="M620.688 282.375C620.682 282.544 620.643 282.71 620.572 282.864C620.502 283.018 620.401 283.157 620.277 283.272C620.153 283.387 620.008 283.477 619.849 283.536C619.69 283.595 619.521 283.622 619.352 283.616C619.183 283.61 619.016 283.57 618.862 283.5C618.708 283.429 618.57 283.329 618.454 283.205C618.339 283.081 618.249 282.936 618.19 282.777C618.131 282.619 618.104 282.45 618.11 282.281C618.123 281.939 618.271 281.617 618.521 281.384C618.772 281.151 619.105 281.027 619.446 281.04C619.788 281.052 620.111 281.2 620.344 281.45C620.577 281.701 620.701 282.033 620.688 282.375Z" fill="#263238"/>
<path d="M615.437 309.549C615.427 309.803 615.342 310.049 615.193 310.256C615.044 310.462 614.836 310.62 614.597 310.708C614.359 310.797 614.099 310.813 613.851 310.754C613.603 310.695 613.378 310.564 613.204 310.378C613.031 310.191 612.916 309.957 612.876 309.706C612.835 309.455 612.87 309.197 612.976 308.965C613.082 308.734 613.254 308.539 613.471 308.405C613.688 308.271 613.94 308.205 614.195 308.214C614.364 308.22 614.53 308.259 614.685 308.33C614.839 308.4 614.977 308.5 615.093 308.624C615.208 308.748 615.298 308.894 615.357 309.052C615.416 309.211 615.443 309.38 615.437 309.549Z" fill="#263238"/>
<path d="M630.04 202.706C629.832 202.727 629.624 202.664 629.462 202.532C629.299 202.399 629.197 202.208 629.176 201.999C629.155 201.791 629.218 201.583 629.35 201.421C629.483 201.259 629.675 201.156 629.883 201.135L633.782 200.287C633.988 200.245 634.203 200.286 634.379 200.4C634.555 200.515 634.68 200.694 634.725 200.9C634.746 201.001 634.746 201.105 634.727 201.206C634.707 201.308 634.668 201.404 634.611 201.49C634.554 201.576 634.48 201.65 634.395 201.708C634.309 201.766 634.213 201.806 634.112 201.827L630.213 202.675L630.04 202.706Z" fill="#263238"/>
<path d="M643.075 188.224C641.221 193.029 639.646 197.938 638.359 202.926C637.18 208.486 637.117 220.88 637.117 220.88" fill="#263238"/>
<path d="M637.114 221.665C636.907 221.661 636.709 221.577 636.563 221.431C636.416 221.284 636.332 221.087 636.328 220.88C636.328 220.361 636.422 208.314 637.601 202.769C638.881 197.738 640.456 192.787 642.317 187.941C642.395 187.751 642.543 187.599 642.731 187.517C642.919 187.434 643.132 187.429 643.323 187.501C643.42 187.536 643.509 187.59 643.585 187.66C643.661 187.73 643.721 187.814 643.764 187.908C643.806 188.001 643.83 188.103 643.832 188.206C643.835 188.308 643.817 188.411 643.779 188.507C641.929 193.277 640.355 198.149 639.063 203.099C637.916 208.502 637.837 220.754 637.821 220.88C637.822 221.075 637.751 221.264 637.62 221.409C637.489 221.554 637.309 221.646 637.114 221.665Z" fill="#263238"/>
<path d="M257.764 314.967L257.573 315.04C257.367 315.076 257.155 315.03 256.984 314.912C256.812 314.794 256.694 314.614 256.655 314.41L219.057 115.339C219.024 115.137 219.071 114.93 219.187 114.761C219.304 114.591 219.481 114.473 219.683 114.429C219.887 114.391 220.097 114.434 220.268 114.549C220.439 114.665 220.557 114.843 220.595 115.045L258.266 314.087C258.297 314.268 258.264 314.455 258.173 314.615C258.081 314.776 257.937 314.9 257.764 314.967Z" fill="#263238"/>
<path d="M217.108 119.751C217.23 120.066 217.221 120.418 217.082 120.729C216.943 121.039 216.685 121.283 216.367 121.407C216.048 121.53 215.693 121.523 215.382 121.387C215.07 121.251 214.826 120.997 214.704 120.681C214.592 120.36 214.614 120.007 214.763 119.699C214.912 119.391 215.177 119.153 215.5 119.037C215.811 118.93 216.15 118.944 216.449 119.076C216.747 119.209 216.983 119.45 217.108 119.751Z" fill="#263238"/>
<path d="M221.928 146.707C221.983 146.865 222.005 147.033 221.995 147.201C221.984 147.369 221.94 147.533 221.866 147.684C221.791 147.836 221.688 147.971 221.561 148.083C221.434 148.195 221.286 148.281 221.126 148.336C220.885 148.419 220.625 148.43 220.379 148.366C220.133 148.303 219.912 148.168 219.744 147.98C219.575 147.791 219.467 147.557 219.434 147.306C219.4 147.056 219.442 146.801 219.554 146.573C219.666 146.346 219.843 146.156 220.063 146.027C220.284 145.899 220.537 145.838 220.791 145.852C221.045 145.867 221.288 145.955 221.491 146.107C221.693 146.26 221.845 146.468 221.928 146.707Z" fill="#263238"/>
<path d="M226.772 173.72C226.826 173.879 226.849 174.047 226.839 174.215C226.828 174.382 226.784 174.547 226.71 174.698C226.635 174.849 226.531 174.985 226.404 175.097C226.277 175.208 226.129 175.294 225.969 175.35C225.728 175.433 225.469 175.443 225.223 175.38C224.977 175.317 224.755 175.182 224.587 174.993C224.419 174.805 224.311 174.57 224.278 174.32C224.244 174.07 224.286 173.815 224.398 173.587C224.51 173.359 224.687 173.169 224.907 173.041C225.127 172.913 225.38 172.852 225.634 172.866C225.889 172.88 226.132 172.969 226.335 173.121C226.537 173.273 226.689 173.482 226.772 173.72Z" fill="#263238"/>
<path d="M236.436 227.756C236.493 227.915 236.518 228.084 236.509 228.253C236.5 228.422 236.457 228.588 236.383 228.741C236.309 228.894 236.205 229.031 236.077 229.144C235.95 229.257 235.801 229.344 235.64 229.4C235.316 229.512 234.962 229.492 234.655 229.344C234.349 229.197 234.114 228.934 234.004 228.614C233.893 228.294 233.916 227.942 234.066 227.636C234.216 227.331 234.483 227.096 234.806 226.985C234.965 226.927 235.133 226.902 235.301 226.91C235.469 226.918 235.634 226.959 235.786 227.031C235.937 227.103 236.073 227.204 236.185 227.328C236.296 227.453 236.382 227.598 236.436 227.756Z" fill="#263238"/>
<path d="M241.292 254.784C241.374 255.023 241.383 255.281 241.317 255.525C241.252 255.77 241.115 255.99 240.924 256.159C240.733 256.327 240.496 256.435 240.244 256.47C239.991 256.506 239.735 256.466 239.506 256.356C239.278 256.246 239.088 256.071 238.96 255.853C238.832 255.636 238.772 255.385 238.788 255.132C238.804 254.88 238.895 254.638 239.05 254.436C239.204 254.234 239.415 254.081 239.656 253.998C239.816 253.942 239.985 253.919 240.154 253.928C240.323 253.938 240.488 253.98 240.64 254.053C240.792 254.126 240.928 254.228 241.039 254.354C241.151 254.479 241.237 254.625 241.292 254.784Z" fill="#263238"/>
<path d="M246.125 281.799C246.18 281.958 246.203 282.125 246.192 282.293C246.181 282.461 246.137 282.625 246.063 282.776C245.988 282.928 245.885 283.063 245.758 283.175C245.631 283.287 245.483 283.373 245.323 283.428C245.163 283.484 244.994 283.507 244.825 283.498C244.656 283.488 244.491 283.446 244.339 283.373C244.187 283.3 244.051 283.198 243.94 283.072C243.828 282.947 243.742 282.801 243.687 282.642C243.577 282.322 243.599 281.97 243.75 281.665C243.9 281.359 244.166 281.125 244.489 281.013C244.813 280.901 245.167 280.921 245.473 281.068C245.78 281.216 246.015 281.479 246.125 281.799Z" fill="#263238"/>
<path d="M250.952 308.819C251.034 309.058 251.043 309.316 250.977 309.56C250.912 309.805 250.775 310.025 250.584 310.194C250.393 310.362 250.156 310.471 249.904 310.506C249.652 310.541 249.395 310.501 249.166 310.391C248.938 310.281 248.748 310.106 248.62 309.889C248.492 309.671 248.432 309.42 248.448 309.168C248.464 308.915 248.555 308.673 248.71 308.471C248.864 308.269 249.075 308.116 249.316 308.033C249.476 307.978 249.645 307.954 249.814 307.963C249.983 307.973 250.148 308.015 250.3 308.088C250.452 308.161 250.588 308.263 250.7 308.389C250.811 308.514 250.897 308.66 250.952 308.819Z" fill="#263238"/>
<path d="M226.341 204.761C226.154 204.856 225.938 204.873 225.739 204.809C225.541 204.745 225.376 204.605 225.282 204.42C225.188 204.235 225.172 204.02 225.238 203.822C225.304 203.625 225.446 203.461 225.633 203.366L228.965 201.175C229.142 201.062 229.357 201.022 229.563 201.064C229.768 201.106 229.948 201.227 230.064 201.401C230.119 201.487 230.157 201.583 230.175 201.684C230.193 201.784 230.191 201.888 230.168 201.988C230.146 202.088 230.104 202.183 230.045 202.267C229.986 202.351 229.911 202.423 229.824 202.479L226.491 204.67L226.341 204.761Z" fill="#263238"/>
<path d="M239.722 219.739C239.527 219.81 239.313 219.804 239.124 219.721C238.935 219.639 238.786 219.487 238.708 219.297C238.522 218.817 234.299 207.644 233.415 202.092C232.808 196.979 232.505 191.832 232.507 186.68C232.511 186.476 232.595 186.282 232.741 186.138C232.887 185.994 233.083 185.913 233.288 185.91C233.391 185.908 233.493 185.925 233.589 185.963C233.684 186 233.771 186.056 233.844 186.127C233.917 186.198 233.975 186.284 234.015 186.378C234.054 186.472 234.074 186.573 234.073 186.675C234.054 191.753 234.329 196.826 234.896 201.869C235.76 207.279 240.07 218.636 240.1 218.758C240.171 218.938 240.172 219.138 240.102 219.32C240.032 219.501 239.896 219.651 239.722 219.739Z" fill="#263238"/>
<path d="M349.691 357.237C351.876 322.052 347.868 258.091 414.065 266.557C485.009 275.621 464.715 358.525 464.715 358.525L349.691 357.237Z" fill="#263238"/>
<path d="M395.374 336.094C411.331 336.094 424.267 323.169 424.267 307.224C424.267 291.279 411.331 278.354 395.374 278.354C379.416 278.354 366.48 291.279 366.48 307.224C366.48 323.169 379.416 336.094 395.374 336.094Z" fill="white"/>
<path d="M399.18 278.416C385.488 276.076 370.884 286.16 369.422 296.37L423.672 301.349C421.754 289.71 410.027 280.27 399.18 278.416Z" fill="#263238"/>
<path d="M417.49 306.501C417.097 314.057 412.978 319.979 408.294 319.743C403.609 319.507 400.119 313.177 400.434 305.606C400.748 298.035 404.945 292.145 409.63 292.38C414.314 292.616 417.867 298.962 417.49 306.501Z" fill="#263238"/>
<path d="M395.376 337.713C389.35 337.713 383.46 335.927 378.45 332.582C373.44 329.237 369.535 324.483 367.229 318.921C364.923 313.358 364.32 307.238 365.496 301.333C366.671 295.428 369.573 290.003 373.833 285.746C378.094 281.489 383.522 278.59 389.432 277.415C395.342 276.24 401.467 276.843 407.034 279.147C412.601 281.451 417.359 285.353 420.707 290.359C424.054 295.365 425.841 301.251 425.841 307.271C425.837 315.344 422.626 323.084 416.913 328.792C411.201 334.5 403.454 337.708 395.376 337.713ZM395.376 279.964C395.376 279.977 395.365 279.987 395.352 279.987C389.956 279.992 384.682 281.593 380.195 284.589C375.702 287.59 372.2 291.854 370.132 296.844C368.065 301.833 367.525 307.323 368.58 312.619C369.636 317.915 372.239 322.779 376.062 326.596C379.885 330.414 384.754 333.013 390.055 334.064C395.356 335.116 400.85 334.573 405.842 332.504C410.834 330.436 415.1 326.934 418.1 322.443C421.1 317.951 422.7 312.671 422.697 307.271C422.699 303.684 421.994 300.132 420.622 296.817C419.25 293.502 417.238 290.49 414.701 287.952C412.164 285.414 409.152 283.4 405.836 282.025C402.527 280.654 398.981 279.945 395.399 279.94C395.386 279.94 395.376 279.951 395.376 279.964V279.964Z" fill="url(#paint11_linear_3269_9665)"/>
<path opacity="0.3" d="M456.649 356.357H456.46C456.359 356.333 456.263 356.289 456.178 356.228C456.094 356.167 456.023 356.089 455.968 356C455.914 355.911 455.878 355.812 455.863 355.709C455.848 355.605 455.853 355.5 455.879 355.399C455.879 355.195 460.94 333.895 455.737 312.36C455.687 312.152 455.722 311.933 455.834 311.75C455.946 311.567 456.126 311.437 456.335 311.387C456.543 311.337 456.763 311.371 456.946 311.483C457.128 311.595 457.259 311.775 457.309 311.983C462.607 333.895 457.498 355.556 457.451 355.776C457.407 355.952 457.302 356.106 457.156 356.213C457.009 356.319 456.83 356.37 456.649 356.357Z" fill="white"/>
<path opacity="0.3" d="M452.264 300.564C452.113 300.562 451.965 300.519 451.838 300.438C451.71 300.358 451.607 300.244 451.54 300.109C449.583 295.795 447.079 291.752 444.089 288.077C443.959 287.916 443.897 287.71 443.918 287.504C443.939 287.298 444.04 287.109 444.199 286.977C444.279 286.91 444.372 286.86 444.472 286.829C444.572 286.799 444.676 286.788 444.78 286.798C444.884 286.808 444.985 286.839 445.077 286.889C445.169 286.938 445.25 287.006 445.315 287.087C448.382 290.866 450.955 295.02 452.971 299.449C453.016 299.542 453.042 299.642 453.047 299.745C453.052 299.848 453.037 299.95 453.001 300.047C452.966 300.144 452.912 300.232 452.842 300.308C452.772 300.383 452.688 300.443 452.594 300.486C452.493 300.541 452.379 300.568 452.264 300.564Z" fill="white"/>
<path d="M202.365 522.292H201.784C200.751 522.263 199.735 522.032 198.792 521.61C197.85 521.189 197 520.586 196.29 519.836C195.581 519.087 195.026 518.205 194.658 517.241C194.289 516.277 194.115 515.25 194.144 514.218C194.173 513.187 194.405 512.172 194.826 511.23C195.248 510.288 195.851 509.438 196.601 508.729C197.352 508.021 198.234 507.466 199.199 507.098C200.164 506.73 201.192 506.556 202.224 506.585H202.365C206.908 506.585 217.834 501.071 240.691 465.07C241.297 464.113 242.104 463.3 243.055 462.684C244.006 462.068 245.078 461.665 246.2 461.503C247.321 461.34 248.464 461.422 249.551 461.742C250.638 462.062 251.643 462.613 252.496 463.357C270.446 478.776 290.023 492.196 310.88 503.38C311.846 503.819 312.712 504.448 313.428 505.23C314.143 506.012 314.693 506.931 315.044 507.931C315.394 508.931 315.539 509.991 315.469 511.048C315.399 512.105 315.116 513.138 314.636 514.082C314.156 515.027 313.49 515.866 312.678 516.546C311.865 517.227 310.923 517.737 309.909 518.045C308.894 518.352 307.828 518.452 306.773 518.337C305.719 518.222 304.699 517.895 303.775 517.376C284.39 507.083 266.067 494.909 249.069 481.028C229.907 509.805 215.696 522.292 202.365 522.292Z" fill="white"/>
<path d="M251.002 461.944H250.326C249.091 461.765 247.977 461.104 247.229 460.106C246.48 459.108 246.158 457.854 246.333 456.619C247.449 448.765 246.066 419.502 236.147 396.726C235.711 395.721 235.639 394.596 235.943 393.544C236.247 392.492 236.908 391.579 237.813 390.961C259.35 376.291 305.22 374.531 307.17 374.468C307.789 374.448 308.406 374.549 308.986 374.767C309.567 374.985 310.098 375.315 310.551 375.738C311.003 376.161 311.368 376.668 311.624 377.232C311.88 377.796 312.022 378.405 312.043 379.024C312.064 379.642 311.962 380.259 311.744 380.839C311.526 381.419 311.196 381.95 310.773 382.402C310.349 382.854 309.841 383.218 309.277 383.474C308.713 383.73 308.103 383.872 307.484 383.893C307.06 383.893 266.958 385.464 246.365 396.773C255.137 419.455 257.133 447.728 255.671 457.954C255.498 459.067 254.932 460.081 254.076 460.813C253.22 461.545 252.129 461.946 251.002 461.944Z" fill="white"/>
<path d="M258.923 455.849C255.779 448.451 241.631 449.299 233.346 455.629C228.913 459.006 222.908 469.201 222.342 472.908C222.153 473.788 222.182 474.702 222.424 475.569C222.667 476.437 223.117 477.232 223.736 477.888C224.354 478.543 225.123 479.038 225.976 479.331C226.828 479.623 227.739 479.705 228.63 479.568C234.053 479.096 241.489 471.227 241.489 471.227C236.537 476.081 242.935 479.505 252.493 472.483C257.712 468.572 262.428 464.127 258.923 455.849Z" fill="url(#paint12_linear_3269_9665)"/>
<path d="M529.309 359.311C529.237 359.327 529.162 359.327 529.089 359.311C528.989 359.285 528.896 359.24 528.814 359.178C528.733 359.115 528.665 359.036 528.615 358.947C528.565 358.857 528.534 358.758 528.523 358.656C528.513 358.554 528.524 358.45 528.555 358.352C530.645 351.064 532.925 346.603 535.927 344.121C535.456 342.437 535.544 340.646 536.179 339.016C536.91 337.107 538.203 335.463 539.889 334.304C539.431 333.81 539.106 333.208 538.944 332.554C538.781 331.901 538.788 331.216 538.961 330.566C539.53 328.598 540.708 326.861 542.325 325.602C541.742 324.95 541.423 324.105 541.429 323.23C541.429 318.518 550.091 311.418 559.916 310.083C560.018 310.065 560.122 310.068 560.222 310.092C560.322 310.116 560.417 310.161 560.499 310.223C560.582 310.284 560.65 310.362 560.702 310.452C560.753 310.541 560.785 310.64 560.796 310.743C560.812 310.845 560.807 310.949 560.782 311.049C560.758 311.15 560.713 311.244 560.652 311.327C560.591 311.411 560.514 311.481 560.425 311.534C560.337 311.587 560.238 311.623 560.136 311.638C550.798 312.91 542.97 319.665 543.001 323.23C543 323.757 543.203 324.263 543.567 324.644C545.681 323.211 548.061 322.214 550.566 321.712C553.071 321.21 555.652 321.214 558.155 321.722C562.981 322.633 564.946 323.654 564.726 325.115C564.286 327.88 554.021 328.445 547.136 327.628C545.902 327.516 544.702 327.17 543.599 326.607C542.116 327.662 541.014 329.166 540.455 330.896C540.32 331.353 540.321 331.84 540.458 332.298C540.594 332.755 540.861 333.163 541.225 333.472C544.149 331.901 548.252 331.335 553.675 332.529C560.796 334.1 561.064 334.98 561.236 335.498C561.291 335.679 561.294 335.871 561.247 336.053C561.2 336.236 561.104 336.402 560.969 336.535C559.476 338.105 548.55 337.367 543.064 336.016C542.402 335.865 541.762 335.628 541.162 335.309C539.541 336.299 538.292 337.795 537.609 339.566C537.155 340.714 537.03 341.964 537.248 343.179C537.531 343.022 537.814 342.865 538.112 342.723C541.366 341.153 545.296 341.435 550.154 343.509C553.298 344.891 554.87 346.101 555.027 347.341C555.034 347.66 554.954 347.974 554.796 348.251C554.639 348.527 554.409 348.756 554.131 348.912C551.726 350.483 543.331 350.263 538.961 347.938C537.958 347.397 537.122 346.593 536.54 345.614C533.978 347.954 531.903 352.148 530.017 358.729C529.972 358.887 529.881 359.027 529.754 359.131C529.628 359.235 529.472 359.297 529.309 359.311ZM537.829 344.655C538.267 345.468 538.934 346.134 539.747 346.572C543.3 348.457 550.28 348.881 552.889 347.828C553.424 347.608 553.502 347.436 553.502 347.436C553.502 347.436 553.424 346.556 549.572 344.907C545.171 343.022 541.712 342.755 538.835 344.09C538.49 344.263 538.16 344.451 537.829 344.655ZM543.08 334.336L543.473 334.446C548.591 335.632 553.86 336.029 559.099 335.624C557.24 334.935 555.326 334.409 553.376 334.053C549.991 333.136 546.41 333.235 543.08 334.336ZM545.061 325.508C545.786 325.768 546.541 325.937 547.309 326.011C555.169 326.937 562.07 325.853 563.029 324.88C562.761 324.628 561.708 323.953 557.81 323.215C553.423 322.34 548.867 323.16 545.061 325.508Z" fill="#263238"/>
<path d="M324.664 519.669C325.701 519.339 325.356 518.334 324.192 518.334H302.907C262.381 514.046 234.07 519.795 251.912 521.145C269.754 522.496 250.654 522.229 237.622 527.146C224.59 532.062 334.536 533.319 344.518 527.146C353.699 521.491 310.296 524.271 324.664 519.669Z" fill="#263238"/>
<path d="M477.056 525.936L291.875 519.81L284.188 340.383L502.868 345.268L477.056 525.936Z" fill="url(#paint13_linear_3269_9665)"/>
<path d="M349.691 522.496C349.495 522.497 349.306 522.425 349.161 522.295C349.016 522.164 348.924 521.984 348.905 521.789L334.065 341.577C334.057 341.474 334.069 341.371 334.101 341.273C334.133 341.176 334.184 341.086 334.251 341.008C334.318 340.93 334.401 340.867 334.493 340.822C334.585 340.776 334.686 340.75 334.788 340.744C334.994 340.727 335.199 340.791 335.358 340.923C335.517 341.056 335.617 341.245 335.637 341.451L350.555 521.648C350.564 521.751 350.552 521.855 350.52 521.954C350.489 522.052 350.438 522.144 350.371 522.222C350.303 522.301 350.221 522.366 350.129 522.413C350.036 522.46 349.936 522.488 349.832 522.496H349.691Z" fill="#263238"/>
<path d="M477.055 525.936L526.824 518.365L542.497 351.535L502.867 345.268L477.055 525.936Z" fill="#407BFF"/>
<path d="M477.055 525.936L526.824 518.365L542.497 351.535L502.867 345.268L477.055 525.936Z" fill="url(#paint14_linear_3269_9665)"/>
<path d="M307.686 485.222L303.128 378.631C303.013 375.997 303.441 373.367 304.385 370.905C305.328 368.442 306.768 366.2 308.615 364.317C310.462 362.433 312.676 360.949 315.12 359.955C317.564 358.962 320.187 358.48 322.825 358.541L461.255 361.682C463.981 361.744 466.663 362.382 469.124 363.555C471.585 364.728 473.769 366.409 475.532 368.487C477.295 370.565 478.597 372.992 479.353 375.61C480.108 378.228 480.3 380.976 479.915 383.673L464.572 491.112C463.884 495.794 461.496 500.059 457.863 503.094C454.231 506.13 449.608 507.725 444.875 507.574L326.362 503.663C321.495 503.509 316.867 501.523 313.403 498.103C309.94 494.684 307.898 490.083 307.686 485.222Z" fill="#263238"/>
<path d="M322.653 391.244L344.064 391.92L343.891 397.449L330.482 397.009L330.356 401.124L342.79 401.517L342.696 406.826L330.261 406.433L330.104 411.523L343.891 411.962L343.702 417.806L321.898 417.114L322.653 391.244Z" fill="white"/>
<path d="M348.039 417.916L348.857 392.077L362.187 392.501C364.098 392.491 366.001 392.766 367.831 393.318C369.125 393.757 370.233 394.621 370.975 395.768C371.521 396.607 371.889 397.549 372.055 398.536C372.221 399.523 372.182 400.533 371.94 401.504C371.698 402.475 371.258 403.386 370.649 404.18C370.039 404.974 369.273 405.634 368.396 406.119C367.503 406.579 366.543 406.897 365.551 407.062C366.283 407.301 366.977 407.645 367.61 408.083C368.074 408.498 368.486 408.967 368.837 409.481C369.242 409.97 369.599 410.495 369.906 411.051L373.537 418.67L364.514 418.371L360.489 410.345C360.17 409.578 359.699 408.884 359.106 408.303C358.542 407.895 357.868 407.665 357.172 407.643H356.465L356.135 418.136L348.039 417.916ZM356.559 402.805L359.923 402.915C360.637 402.871 361.346 402.777 362.046 402.632C362.569 402.545 363.044 402.272 363.382 401.862C363.738 401.417 363.932 400.863 363.932 400.292C363.962 399.933 363.911 399.571 363.783 399.234C363.655 398.897 363.454 398.593 363.193 398.344C362.314 397.784 361.278 397.52 360.238 397.59L356.717 397.48L356.559 402.805Z" fill="white"/>
<path d="M376.148 418.811L376.966 392.972L390.281 393.396C392.192 393.385 394.094 393.66 395.924 394.213C397.224 394.642 398.335 395.508 399.068 396.663C399.864 397.922 400.238 399.402 400.137 400.888C400.142 402.142 399.807 403.373 399.167 404.452C398.528 405.53 397.608 406.416 396.506 407.014C395.611 407.472 394.651 407.789 393.661 407.957C394.391 408.189 395.08 408.533 395.704 408.978C396.178 409.387 396.596 409.857 396.946 410.376C397.351 410.865 397.709 411.39 398.015 411.946L401.646 419.565L392.623 419.266L388.599 411.24C388.273 410.476 387.804 409.783 387.215 409.198C386.647 408.787 385.967 408.557 385.266 408.538H384.574L384.229 419.015L376.148 418.811ZM384.653 403.7L388.033 403.81C388.747 403.766 389.457 403.667 390.155 403.511C390.678 403.434 391.15 403.158 391.475 402.742C391.828 402.33 392.023 401.807 392.026 401.265C392.059 400.907 392.011 400.546 391.886 400.209C391.76 399.872 391.561 399.567 391.303 399.318C390.42 398.75 389.379 398.48 388.331 398.548L384.826 398.438L384.653 403.7Z" fill="white"/>
<path d="M402.934 406.826C402.812 405.023 403.092 403.215 403.753 401.533C404.414 399.851 405.44 398.336 406.756 397.097C408.073 395.858 409.648 394.926 411.368 394.367C413.088 393.809 414.91 393.638 416.704 393.867C418.515 393.807 420.319 394.112 422.009 394.762C423.7 395.412 425.242 396.395 426.545 397.653C427.708 398.991 428.586 400.551 429.127 402.239C429.667 403.926 429.859 405.706 429.689 407.47C429.702 410.036 429.098 412.568 427.929 414.853C426.873 416.725 425.287 418.245 423.37 419.219C421.114 420.297 418.617 420.773 416.123 420.602C413.636 420.622 411.175 420.086 408.923 419.031C407.006 417.991 405.441 416.406 404.427 414.476C403.237 412.111 402.72 409.464 402.934 406.826ZM410.919 407.124C410.682 409.1 411.132 411.096 412.193 412.779C412.688 413.332 413.29 413.779 413.963 414.095C414.635 414.41 415.364 414.587 416.107 414.615C416.849 414.643 417.589 414.521 418.283 414.257C418.978 413.993 419.611 413.592 420.147 413.078C421.315 411.315 421.867 409.217 421.719 407.109C421.93 405.216 421.468 403.308 420.414 401.721C419.93 401.149 419.325 400.691 418.643 400.378C417.961 400.066 417.219 399.908 416.469 399.915C415.735 399.865 415 399.981 414.317 400.253C413.635 400.525 413.021 400.946 412.523 401.485C411.373 403.104 410.807 405.064 410.919 407.046V407.124Z" fill="white"/>
<path d="M433.73 420.649L434.548 394.794L447.863 395.218C449.774 395.215 451.675 395.49 453.506 396.035C454.805 396.475 455.914 397.345 456.65 398.501C457.446 399.755 457.82 401.229 457.719 402.711C457.727 403.967 457.393 405.201 456.753 406.283C456.114 407.365 455.193 408.253 454.088 408.852C453.192 409.304 452.233 409.616 451.243 409.779C451.97 410.018 452.658 410.362 453.286 410.8C453.756 411.213 454.173 411.683 454.528 412.198C454.941 412.709 455.299 413.262 455.597 413.847L459.228 421.45L450.205 421.167L446.118 413.109C445.801 412.341 445.33 411.646 444.734 411.067C444.173 410.643 443.489 410.412 442.785 410.407H442.094L441.732 420.963L433.73 420.649ZM442.235 405.522L445.615 405.632C446.33 405.605 447.04 405.51 447.737 405.349C448.258 405.266 448.728 404.991 449.057 404.58C449.41 404.168 449.605 403.645 449.608 403.103C449.642 402.745 449.594 402.384 449.469 402.047C449.344 401.709 449.144 401.405 448.885 401.156C448.008 400.575 446.962 400.304 445.913 400.386L442.408 400.276L442.235 405.522Z" fill="white"/>
<path d="M446.448 464.551C446.152 464.561 445.858 464.505 445.586 464.389C445.314 464.272 445.072 464.097 444.876 463.876L431.466 449.236L416.941 462.493C416.539 462.862 416.006 463.055 415.461 463.032C414.916 463.008 414.402 462.769 414.033 462.368L400.577 447.65L386.051 460.907C385.649 461.275 385.117 461.469 384.571 461.445C384.026 461.422 383.512 461.183 383.143 460.781L369.671 446.063L355.162 459.32C354.755 459.686 354.221 459.877 353.674 459.854C353.127 459.83 352.612 459.594 352.238 459.195L338.781 444.477L324.272 457.734C323.867 458.103 323.333 458.296 322.786 458.271C322.239 458.246 321.725 458.004 321.356 457.6C320.987 457.196 320.794 456.662 320.819 456.116C320.844 455.569 321.085 455.055 321.489 454.687L337.524 440.031C337.724 439.848 337.959 439.705 338.215 439.613C338.471 439.52 338.743 439.479 339.015 439.493C339.287 439.506 339.554 439.573 339.8 439.689C340.045 439.806 340.266 439.97 340.448 440.173L353.904 454.891L368.414 441.634C368.612 441.447 368.846 441.302 369.102 441.207C369.357 441.112 369.63 441.069 369.902 441.08C370.174 441.092 370.442 441.158 370.688 441.275C370.935 441.391 371.156 441.556 371.337 441.759L384.794 456.477L399.319 443.22C399.721 442.852 400.254 442.658 400.799 442.682C401.344 442.705 401.858 442.944 402.227 443.346L415.684 458.064L430.209 444.807C430.611 444.438 431.144 444.244 431.689 444.268C432.234 444.292 432.748 444.53 433.117 444.932L448.02 461.095C448.204 461.296 448.346 461.531 448.439 461.787C448.531 462.042 448.572 462.314 448.559 462.586C448.546 462.857 448.479 463.124 448.362 463.369C448.245 463.615 448.081 463.835 447.878 464.017C447.488 464.373 446.976 464.564 446.448 464.551Z" fill="white"/>
<path d="M197.679 529.753L187.838 525.056L179.066 482.395L183.83 477.148L197.679 529.753Z" fill="url(#paint15_linear_3269_9665)"/>
<path d="M197.677 529.753L210.741 522.135L199.548 486.966L183.828 477.148L197.677 529.753Z" fill="#407BFF"/>
<path d="M197.677 529.753L210.741 522.135L199.548 486.966L183.828 477.148L197.677 529.753Z" fill="#263238"/>
<path d="M411.864 537.513H410.78C408.695 537.457 406.718 536.575 405.284 535.063C403.85 533.55 403.075 531.53 403.132 529.447C403.188 527.364 404.07 525.389 405.584 523.956C407.098 522.523 409.119 521.749 411.204 521.805C423.308 522.198 448.932 514.768 463.583 500.569C464.468 499.701 465.545 499.056 466.727 498.684C491.549 491.238 500.777 506.27 501.154 506.914L487.635 514.91C487.684 515.014 487.742 515.113 487.808 515.208C487.666 514.988 484.145 510.496 472.952 513.26C454.575 529.989 426.374 537.513 411.864 537.513Z" fill="white"/>
<path d="M410.905 547.942L382.279 546.152L380.031 493.406L418.498 494.851L410.905 547.942Z" fill="url(#paint16_linear_3269_9665)"/>
<path d="M410.906 547.943L417.603 541.298L421.753 508.407L418.499 494.851L410.906 547.943Z" fill="#407BFF"/>
<path d="M410.906 547.943L417.603 541.298L421.753 508.407L418.499 494.851L410.906 547.943Z" fill="#263238"/>
<path d="M576.783 527.978C575.756 527.977 574.757 527.641 573.938 527.02C557.589 514.611 535.503 492.573 527.03 471.321C526.902 471.013 526.813 470.692 526.762 470.363C522.628 445.796 518.682 394.118 518.509 391.919C518.463 391.3 518.539 390.679 518.733 390.089C518.927 389.5 519.235 388.954 519.641 388.484C520.459 387.534 521.621 386.947 522.872 386.854C524.122 386.76 525.359 387.166 526.31 387.984C527.261 388.801 527.848 389.963 527.941 391.212C527.941 391.746 531.981 443.943 536.006 468.289C544.463 488.961 567.446 510.181 579.676 519.512C580.463 520.109 581.043 520.938 581.333 521.882C581.624 522.826 581.61 523.838 581.294 524.773C580.977 525.709 580.375 526.522 579.571 527.097C578.768 527.672 577.803 527.98 576.815 527.978H576.783Z" fill="white"/>
<path d="M595.102 538.705C591.455 538.705 587.321 537.055 582.809 533.804C582.308 533.441 581.883 532.983 581.558 532.455C581.234 531.928 581.016 531.342 580.919 530.731C580.821 530.12 580.844 529.495 580.988 528.893C581.132 528.291 581.393 527.724 581.756 527.222C582.119 526.721 582.578 526.296 583.106 525.972C583.633 525.648 584.22 525.431 584.831 525.333C585.443 525.235 586.068 525.259 586.67 525.403C587.273 525.546 587.841 525.807 588.343 526.17C592.241 528.982 594.363 529.311 595.102 529.311C596.353 529.311 597.553 529.808 598.437 530.692C599.321 531.575 599.818 532.774 599.818 534.024C599.818 535.273 599.321 536.472 598.437 537.356C597.553 538.239 596.353 538.736 595.102 538.736V538.705Z" fill="white"/>
<path d="M584.131 533.662C589.177 518.693 609.865 521.646 617.001 523.877C623.093 525.658 628.938 528.191 634.404 531.416C638.255 533.945 638.318 538.155 633.177 540.558C626.889 543.527 610.918 540.888 610.918 540.888C619.155 544.501 610.918 550.312 596.44 544.595C591.739 542.757 582.355 539.16 584.131 533.662Z" fill="url(#paint17_linear_3269_9665)"/>
<path d="M537.405 398.391C535.534 411.114 524.986 420.491 516.403 419.235C507.82 417.978 507.474 406.669 509.344 393.883C511.215 381.097 514.611 371.892 523.194 373.149C531.777 374.406 539.275 385.668 537.405 398.391Z" fill="#263238"/>
<path d="M329.93 347.593C330.642 347.593 331.219 347.016 331.219 346.305C331.219 345.593 330.642 345.017 329.93 345.017C329.218 345.017 328.641 345.593 328.641 346.305C328.641 347.016 329.218 347.593 329.93 347.593Z" fill="#263238"/>
<path d="M343.027 355.572C343.027 355.827 342.952 356.076 342.81 356.288C342.668 356.5 342.467 356.665 342.232 356.762C341.996 356.86 341.737 356.885 341.487 356.835C341.237 356.786 341.007 356.663 340.827 356.483C340.646 356.303 340.524 356.073 340.474 355.823C340.424 355.574 340.45 355.315 340.547 355.079C340.645 354.844 340.81 354.643 341.022 354.501C341.234 354.36 341.483 354.284 341.738 354.284C342.08 354.284 342.408 354.42 342.65 354.661C342.892 354.903 343.027 355.231 343.027 355.572Z" fill="#263238"/>
<path d="M344.473 507.778C344.473 508.12 344.337 508.447 344.095 508.689C343.853 508.931 343.525 509.066 343.184 509.066C342.842 509.066 342.514 508.931 342.272 508.689C342.03 508.447 341.895 508.12 341.895 507.778C341.895 507.437 342.03 507.109 342.272 506.867C342.514 506.626 342.842 506.49 343.184 506.49C343.525 506.49 343.853 506.626 344.095 506.867C344.337 507.109 344.473 507.437 344.473 507.778Z" fill="#263238"/>
<path d="M356.277 517.061C356.277 517.316 356.202 517.565 356.06 517.777C355.918 517.989 355.717 518.154 355.482 518.251C355.246 518.349 354.987 518.374 354.737 518.325C354.487 518.275 354.257 518.152 354.077 517.972C353.896 517.792 353.774 517.563 353.724 517.313C353.674 517.063 353.7 516.804 353.797 516.569C353.895 516.333 354.06 516.132 354.272 515.991C354.484 515.849 354.733 515.773 354.988 515.773C355.33 515.773 355.658 515.909 355.9 516.151C356.141 516.392 356.277 516.72 356.277 517.061Z" fill="#263238"/>
<path d="M129.707 532.486C127.444 532.38 125.233 531.768 123.239 530.694C121.245 529.62 119.517 528.112 118.184 526.282C118.124 526.198 118.082 526.104 118.059 526.004C118.036 525.904 118.033 525.801 118.05 525.7C118.068 525.599 118.106 525.503 118.161 525.416C118.216 525.33 118.288 525.256 118.373 525.198C118.545 525.08 118.756 525.034 118.961 525.069C119.167 525.104 119.35 525.218 119.473 525.386C122.413 529.627 128.905 531.874 131.735 530.538C132.018 530.418 132.271 530.236 132.474 530.004C131.056 529.384 129.81 528.428 128.846 527.218C127.882 526.008 127.227 524.581 126.94 523.062C126.579 521.082 126.296 518.349 127.931 518.019C130.194 517.501 133.15 522.952 134.219 527.083C134.412 527.766 134.481 528.479 134.423 529.188C135.33 529.454 136.282 529.534 137.221 529.423C137.644 529.383 138.054 529.258 138.426 529.056C138.799 528.853 139.127 528.578 139.39 528.245C138.356 527.465 137.498 526.476 136.872 525.342C136.246 524.207 135.867 522.954 135.759 521.664C135.162 517.375 135.618 516.621 136.089 516.26C136.241 516.141 136.422 516.065 136.614 516.043C136.805 516.021 136.999 516.053 137.174 516.135C138.856 516.841 140.884 522.936 141.277 526.392C141.324 526.751 141.324 527.116 141.277 527.475C141.955 527.736 142.673 527.874 143.399 527.884C144.732 527.936 146.05 527.591 147.188 526.894C146.968 526.757 146.758 526.604 146.559 526.439C144.987 525.041 144.264 522.81 144.547 519.637C144.767 517.171 145.317 515.82 146.307 515.396C146.628 515.274 146.976 515.245 147.313 515.311C147.649 515.378 147.96 515.538 148.209 515.773C149.27 516.945 150.062 518.333 150.532 519.841C151.001 521.349 151.137 522.941 150.929 524.507C150.798 525.16 150.524 525.777 150.127 526.313C153.02 526.816 157.075 525.999 160.581 525.135C160.783 525.088 160.996 525.122 161.173 525.231C161.349 525.34 161.476 525.514 161.524 525.716C161.55 525.815 161.556 525.918 161.541 526.02C161.527 526.121 161.492 526.218 161.439 526.306C161.387 526.394 161.317 526.47 161.234 526.531C161.152 526.591 161.058 526.635 160.958 526.659C156.698 527.711 152.108 528.575 148.87 527.632C147.289 528.833 145.353 529.474 143.368 529.455C142.486 529.451 141.612 529.286 140.79 528.968C140.424 529.515 139.941 529.974 139.375 530.311C138.81 530.648 138.176 530.855 137.52 530.915C136.337 531.053 135.138 530.946 133.999 530.601C133.632 531.218 133.083 531.707 132.427 531.999C131.565 532.353 130.638 532.519 129.707 532.486ZM128.355 519.48C128.151 520.523 128.194 521.599 128.481 522.622C128.705 523.879 129.228 525.064 130.004 526.078C130.781 527.091 131.789 527.905 132.945 528.449C132.923 528.072 132.86 527.698 132.757 527.334C131.53 522.936 129.172 519.92 128.355 519.496V519.48ZM137.111 518.114C137.121 519.197 137.211 520.279 137.378 521.349C137.552 523.265 138.398 525.056 139.768 526.407C139.379 523.513 138.48 520.71 137.111 518.129V518.114ZM146.999 516.747C146.999 516.747 146.402 517.046 146.182 519.669C145.961 522.292 146.417 524.114 147.643 525.151C147.934 525.386 148.25 525.586 148.587 525.748C149 525.306 149.292 524.765 149.436 524.177C149.716 521.704 149.047 519.218 147.565 517.218C147.235 516.779 147.046 516.779 146.999 516.779V516.747Z" fill="#263238"/>
<path d="M359.785 544.377L364.045 536.994L359.785 529.612H355.227L357.805 536.994L355.227 544.377H359.785Z" fill="white"/>
<path d="M355.524 540.843C354.999 540.876 354.472 540.802 353.976 540.624C353.481 540.446 353.027 540.169 352.643 539.809C352.259 539.449 351.953 539.014 351.744 538.532C351.535 538.049 351.427 537.528 351.427 537.002C351.427 536.476 351.535 535.956 351.744 535.473C351.953 534.99 352.259 534.556 352.643 534.196C353.027 533.836 353.481 533.558 353.976 533.38C354.472 533.203 354.999 533.128 355.524 533.162L348.293 531.717L346.359 537.56L349.598 542.492L355.524 540.843Z" fill="#263238"/>
<path d="M356.152 529.612H347.616L343.355 536.994L347.616 544.377H356.152L360.412 536.994L356.152 529.612ZM351.891 540.843C351.129 540.846 350.383 540.623 349.747 540.202C349.112 539.781 348.616 539.181 348.322 538.478C348.028 537.775 347.95 537.001 348.096 536.253C348.243 535.506 348.609 534.819 349.147 534.279C349.685 533.739 350.371 533.371 351.119 533.221C351.866 533.071 352.641 533.147 353.346 533.437C354.051 533.728 354.653 534.221 355.077 534.855C355.501 535.488 355.727 536.233 355.727 536.994C355.727 538.012 355.324 538.989 354.605 539.71C353.886 540.431 352.91 540.839 351.891 540.843Z" fill="url(#paint18_linear_3269_9665)"/>
<path d="M656.921 529.125L653.762 523.643L656.921 518.161H660.301L658.399 523.643L660.301 529.125H656.921Z" fill="url(#paint19_linear_3269_9665)"/>
<path d="M660.082 526.501C660.458 526.501 660.83 526.428 661.177 526.284C661.524 526.14 661.839 525.93 662.105 525.664C662.371 525.399 662.582 525.084 662.725 524.737C662.869 524.39 662.943 524.018 662.943 523.643C662.943 523.267 662.869 522.896 662.725 522.549C662.582 522.202 662.371 521.887 662.105 521.621C661.839 521.356 661.524 521.145 661.177 521.002C660.83 520.858 660.458 520.784 660.082 520.784L665.458 519.716L666.889 524.051L664.499 527.774L660.082 526.501Z" fill="url(#paint20_linear_3269_9665)"/>
<path d="M659.628 518.161H665.916L669.06 523.643L665.916 529.125H659.628L656.484 523.643L659.628 518.161ZM662.772 526.502C663.339 526.505 663.894 526.34 664.366 526.028C664.839 525.715 665.208 525.27 665.427 524.748C665.646 524.226 665.705 523.651 665.596 523.095C665.487 522.539 665.216 522.029 664.817 521.627C664.417 521.226 663.908 520.952 663.352 520.84C662.797 520.729 662.221 520.785 661.697 521C661.173 521.216 660.725 521.583 660.41 522.053C660.095 522.524 659.927 523.077 659.927 523.643C659.927 524.401 660.229 525.128 660.765 525.665C661.302 526.201 662.029 526.502 662.788 526.502H662.772Z" fill="white"/>
<path d="M539.196 536.398H546.302C547.191 536.393 548.043 536.038 548.67 535.408C549.298 534.778 549.65 533.925 549.65 533.036C549.65 532.147 549.298 531.295 548.67 530.665C548.043 530.035 547.191 529.679 546.302 529.675H539.196C538.304 529.675 537.448 530.029 536.817 530.659C536.186 531.29 535.832 532.145 535.832 533.036C535.832 533.928 536.186 534.783 536.817 535.413C537.448 536.044 538.304 536.398 539.196 536.398Z" fill="white"/>
<path d="M527.766 530.051C528.427 528.855 529.424 527.878 530.634 527.241C531.844 526.604 533.214 526.335 534.576 526.466C535.937 526.597 537.23 527.123 538.296 527.98C539.362 528.836 540.154 529.985 540.574 531.285C540.995 532.586 541.026 533.981 540.663 535.298C540.3 536.616 539.559 537.798 538.532 538.701C537.505 539.603 536.236 540.185 534.882 540.376C533.527 540.567 532.147 540.358 530.91 539.774C529.203 538.902 527.913 537.387 527.323 535.563C526.733 533.74 526.893 531.757 527.766 530.051Z" fill="url(#paint21_linear_3269_9665)"/>
<path d="M529.911 539.287L531.859 540.205L537.843 527.523L535.895 526.605L529.911 539.287Z" fill="white"/>
</g>
<defs>
<linearGradient id="paint0_linear_3269_9665" x1="603.636" y1="24.5581" x2="608.369" y2="39.8383" gradientUnits="userSpaceOnUse">
<stop stop-color="#8372F2"/>
<stop offset="1" stop-color="#ED6FCB"/>
</linearGradient>
<linearGradient id="paint1_linear_3269_9665" x1="141.782" y1="334.113" x2="144.336" y2="342.315" gradientUnits="userSpaceOnUse">
<stop stop-color="#8372F2"/>
<stop offset="1" stop-color="#ED6FCB"/>
</linearGradient>
<linearGradient id="paint2_linear_3269_9665" x1="119.142" y1="4.20974" x2="122.026" y2="13.8955" gradientUnits="userSpaceOnUse">
<stop stop-color="#8372F2"/>
<stop offset="1" stop-color="#ED6FCB"/>
</linearGradient>
<linearGradient id="paint3_linear_3269_9665" x1="204.209" y1="174.18" x2="254.057" y2="311.583" gradientUnits="userSpaceOnUse">
<stop stop-color="#8372F2"/>
<stop offset="1" stop-color="#ED6FCB"/>
</linearGradient>
<linearGradient id="paint4_linear_3269_9665" x1="398.394" y1="99.6856" x2="453.127" y2="239.425" gradientUnits="userSpaceOnUse">
<stop stop-color="#8372F2"/>
<stop offset="1" stop-color="#ED6FCB"/>
</linearGradient>
<linearGradient id="paint5_linear_3269_9665" x1="388.39" y1="83.3384" x2="405.059" y2="137.115" gradientUnits="userSpaceOnUse">
<stop stop-color="#8372F2"/>
<stop offset="1" stop-color="#ED6FCB"/>
</linearGradient>
<linearGradient id="paint6_linear_3269_9665" x1="504.17" y1="49.9024" x2="509.048" y2="65.6637" gradientUnits="userSpaceOnUse">
<stop stop-color="#8372F2"/>
<stop offset="1" stop-color="#ED6FCB"/>
</linearGradient>
<linearGradient id="paint7_linear_3269_9665" x1="468.742" y1="48.9067" x2="470.398" y2="55.0412" gradientUnits="userSpaceOnUse">
<stop stop-color="#8372F2"/>
<stop offset="1" stop-color="#ED6FCB"/>
</linearGradient>
<linearGradient id="paint8_linear_3269_9665" x1="486.161" y1="42.9769" x2="486.419" y2="46.3437" gradientUnits="userSpaceOnUse">
<stop stop-color="#8372F2"/>
<stop offset="1" stop-color="#ED6FCB"/>
</linearGradient>
<linearGradient id="paint9_linear_3269_9665" x1="481.153" y1="49.3998" x2="482.812" y2="57.1552" gradientUnits="userSpaceOnUse">
<stop stop-color="#8372F2"/>
<stop offset="1" stop-color="#ED6FCB"/>
</linearGradient>
<linearGradient id="paint10_linear_3269_9665" x1="583.589" y1="173.053" x2="633.462" y2="309.911" gradientUnits="userSpaceOnUse">
<stop stop-color="#8372F2"/>
<stop offset="1" stop-color="#ED6FCB"/>
</linearGradient>
<linearGradient id="paint11_linear_3269_9665" x1="396.382" y1="295.135" x2="409.165" y2="336.407" gradientUnits="userSpaceOnUse">
<stop stop-color="#8372F2"/>
<stop offset="1" stop-color="#ED6FCB"/>
</linearGradient>
<linearGradient id="paint12_linear_3269_9665" x1="241.802" y1="459.321" x2="246.652" y2="479.747" gradientUnits="userSpaceOnUse">
<stop stop-color="#8372F2"/>
<stop offset="1" stop-color="#ED6FCB"/>
</linearGradient>
<linearGradient id="paint13_linear_3269_9665" x1="397.14" y1="396.17" x2="431.051" y2="525.105" gradientUnits="userSpaceOnUse">
<stop stop-color="#8372F2"/>
<stop offset="1" stop-color="#ED6FCB"/>
</linearGradient>
<linearGradient id="paint14_linear_3269_9665" x1="510.857" y1="399.587" x2="577.163" y2="477.071" gradientUnits="userSpaceOnUse">
<stop stop-color="#8372F2"/>
<stop offset="1" stop-color="#ED6FCB"/>
</linearGradient>
<linearGradient id="paint15_linear_3269_9665" x1="188.68" y1="492.964" x2="208.051" y2="515.076" gradientUnits="userSpaceOnUse">
<stop stop-color="#8372F2"/>
<stop offset="1" stop-color="#ED6FCB"/>
</linearGradient>
<linearGradient id="paint16_linear_3269_9665" x1="399.9" y1="509.802" x2="414.824" y2="543.761" gradientUnits="userSpaceOnUse">
<stop stop-color="#8372F2"/>
<stop offset="1" stop-color="#ED6FCB"/>
</linearGradient>
<linearGradient id="paint17_linear_3269_9665" x1="611.423" y1="529.546" x2="614.06" y2="547.703" gradientUnits="userSpaceOnUse">
<stop stop-color="#8372F2"/>
<stop offset="1" stop-color="#ED6FCB"/>
</linearGradient>
<linearGradient id="paint18_linear_3269_9665" x1="352.165" y1="534.051" x2="354.911" y2="544.284" gradientUnits="userSpaceOnUse">
<stop stop-color="#8372F2"/>
<stop offset="1" stop-color="#ED6FCB"/>
</linearGradient>
<linearGradient id="paint19_linear_3269_9665" x1="657.14" y1="521.457" x2="660.472" y2="527.871" gradientUnits="userSpaceOnUse">
<stop stop-color="#8372F2"/>
<stop offset="1" stop-color="#ED6FCB"/>
</linearGradient>
<linearGradient id="paint20_linear_3269_9665" x1="663.598" y1="522.138" x2="665.534" y2="527.415" gradientUnits="userSpaceOnUse">
<stop stop-color="#8372F2"/>
<stop offset="1" stop-color="#ED6FCB"/>
</linearGradient>
<linearGradient id="paint21_linear_3269_9665" x1="534.174" y1="530.646" x2="537.129" y2="540.135" gradientUnits="userSpaceOnUse">
<stop stop-color="#8372F2"/>
<stop offset="1" stop-color="#ED6FCB"/>
</linearGradient>
<clipPath id="clip0_3269_9665">
<rect width="786" height="550" fill="white"/>
</clipPath>
</defs>
</svg>
