<svg width="26" height="17" viewBox="0 0 26 17" fill="none" xmlns="http://www.w3.org/2000/svg">
<path d="M25.1291 16.7528H0.440882C0.197418 16.7528 0 16.5553 0 16.3119V0.440882C0 0.197418 0.197418 0 0.440882 0H25.1291C25.3726 0 25.57 0.197418 25.57 0.440882V16.3119C25.5699 16.5554 25.3725 16.7528 25.1291 16.7528Z" fill="#F5F5F5"/>
<path d="M25.57 7.05376H14.1076V0H11.4624V7.05376H0V9.69895H11.4624V16.7527H14.1076V9.69895H25.57V7.05376Z" fill="#FF4B55"/>
<path d="M7.49458 2.92436C7.05789 2.96826 6.6301 3.01226 6.2017 3.05631C6.24575 2.62786 6.2897 2.20006 6.33369 1.76343C5.93321 1.81522 5.52914 1.81522 5.12866 1.76343C5.17256 2.20006 5.21656 2.62791 5.26065 3.05631C4.83221 3.01231 4.40436 2.96831 3.96777 2.92436C4.01956 3.32479 4.01956 3.72892 3.96777 4.12935C4.40446 4.08545 4.83226 4.04145 5.26065 3.9974C5.21661 4.42585 5.17261 4.85365 5.12866 5.29028C5.52914 5.23849 5.93321 5.23849 6.33369 5.29028C6.28979 4.85365 6.24575 4.4258 6.2017 3.9974C6.63015 4.0414 7.05794 4.0854 7.49458 4.12935C7.44284 3.72892 7.44284 3.32474 7.49458 2.92436Z" fill="#FF4B55"/>
<path d="M21.602 2.92436C21.1653 2.96826 20.7375 3.01226 20.3091 3.05631C20.3532 2.62786 20.3971 2.20006 20.4411 1.76343C20.0406 1.81522 19.6366 1.81522 19.2361 1.76343C19.28 2.20006 19.324 2.62791 19.3681 3.05631C18.9396 3.01231 18.5118 2.96831 18.0752 2.92436C18.127 3.32479 18.127 3.72892 18.0752 4.12935C18.5119 4.08545 18.9397 4.04145 19.3681 3.9974C19.324 4.42585 19.28 4.85365 19.2361 5.29028C19.6366 5.23849 20.0406 5.23849 20.4411 5.29028C20.3972 4.85365 20.3532 4.4258 20.3091 3.9974C20.7376 4.0414 21.1654 4.0854 21.602 4.12935C21.5503 3.72892 21.5503 3.32474 21.602 2.92436Z" fill="#FF4B55"/>
<path d="M7.49458 12.6233C7.05789 12.6672 6.6301 12.7112 6.2017 12.7553C6.24575 12.3268 6.2897 11.899 6.33369 11.4624C5.93321 11.5142 5.52914 11.5142 5.12866 11.4624C5.17256 11.899 5.21656 12.3269 5.26065 12.7553C4.83221 12.7113 4.40436 12.6673 3.96777 12.6233C4.01956 13.0238 4.01956 13.4279 3.96777 13.8283C4.40446 13.7844 4.83226 13.7404 5.26065 13.6964C5.21661 14.1248 5.17261 14.5526 5.12866 14.9893C5.52914 14.9375 5.93321 14.9375 6.33369 14.9893C6.28979 14.5526 6.24575 14.1248 6.2017 13.6964C6.63015 13.7404 7.05794 13.7844 7.49458 13.8283C7.44284 13.4279 7.44284 13.0238 7.49458 12.6233Z" fill="#FF4B55"/>
<path d="M21.602 12.6233C21.1653 12.6672 20.7375 12.7112 20.3091 12.7553C20.3532 12.3268 20.3971 11.899 20.4411 11.4624C20.0406 11.5142 19.6366 11.5142 19.2361 11.4624C19.28 11.899 19.324 12.3269 19.3681 12.7553C18.9396 12.7113 18.5118 12.6673 18.0752 12.6233C18.127 13.0238 18.127 13.4279 18.0752 13.8283C18.5119 13.7844 18.9397 13.7404 19.3681 13.6964C19.324 14.1248 19.28 14.5526 19.2361 14.9893C19.6366 14.9375 20.0406 14.9375 20.4411 14.9893C20.3972 14.5526 20.3532 14.1248 20.3091 13.6964C20.7376 13.7404 21.1654 13.7844 21.602 13.8283C21.5503 13.4279 21.5503 13.0238 21.602 12.6233Z" fill="#FF4B55"/>
</svg>
