<svg width="26" height="17" viewBox="0 0 26 17" fill="none" xmlns="http://www.w3.org/2000/svg">
<path d="M25.1291 16.7528H0.440882C0.197418 16.7528 0 16.5553 0 16.3119V0.440882C0 0.197418 0.197418 0 0.440882 0H25.1291C25.3726 0 25.57 0.197418 25.57 0.440882V16.3119C25.5699 16.5554 25.3725 16.7528 25.1291 16.7528Z" fill="#F5F5F5"/>
<path d="M25.5728 5.58496H0V11.1695H25.5728V5.58496Z" fill="#F5F5F5"/>
<path d="M25.1318 16.7548H0.44093C0.19744 16.7548 0 16.5573 0 16.3138V11.1699H25.5728V16.3138C25.5728 16.5574 25.3753 16.7548 25.1318 16.7548Z" fill="#73AF00"/>
<path d="M25.5728 5.5849H0V0.44093C0 0.197439 0.19744 0 0.44093 0H25.1319C25.3754 0 25.5728 0.197439 25.5728 0.44093L25.5728 5.5849Z" fill="#FAB446"/>
<path d="M13.3699 10.7397C12.0631 10.7397 11 9.67668 11 8.36987C11 7.06307 12.0631 6 13.3699 6C14.6767 6 15.7397 7.06307 15.7397 8.36987C15.7397 9.67668 14.6767 10.7397 13.3699 10.7397ZM13.3699 6.44088C12.3061 6.44088 11.4409 7.30611 11.4409 8.36987C11.4409 9.43364 12.3061 10.2989 13.3699 10.2989C14.4336 10.2989 15.2989 9.43364 15.2989 8.36987C15.2989 7.30611 14.4336 6.44088 13.3699 6.44088Z" fill="#41479B"/>
<path d="M13.3702 8.6384C13.5186 8.6384 13.6389 8.51812 13.6389 8.36974C13.6389 8.22136 13.5186 8.10107 13.3702 8.10107C13.2218 8.10107 13.1016 8.22136 13.1016 8.36974C13.1016 8.51812 13.2218 8.6384 13.3702 8.6384Z" fill="#41479B"/>
<path d="M13.3701 8.41004L12.6873 8.47897L11.2207 8.41004V8.32942L12.6873 8.2605L13.3701 8.32942V8.41004Z" fill="#41479B"/>
<path d="M13.3696 8.41004L14.0524 8.47897L15.519 8.41004V8.32942L14.0524 8.2605L13.3696 8.32942V8.41004Z" fill="#41479B"/>
<path d="M13.3292 8.36963L13.2603 7.68685L13.3292 6.22021H13.4098L13.4787 7.68685L13.4098 8.36963H13.3292Z" fill="#41479B"/>
<path d="M13.3292 8.36987L13.2603 9.05265L13.3292 10.5193H13.4098L13.4787 9.05265L13.4098 8.36987H13.3292Z" fill="#41479B"/>
<path d="M13.3412 8.39835L12.8096 7.96437L11.8213 6.87852L11.8783 6.82153L12.9641 7.80988L13.3981 8.34141L13.3412 8.39835Z" fill="#41479B"/>
<path d="M13.3413 8.398L13.7753 8.92954L14.8611 9.91789L14.9181 9.86089L13.9298 8.77505L13.3982 8.34106L13.3413 8.398Z" fill="#41479B"/>
<path d="M13.3413 8.34141L13.7753 7.80988L14.8611 6.82153L14.9181 6.87852L13.9298 7.96437L13.3982 8.39835L13.3413 8.34141Z" fill="#41479B"/>
<path d="M13.3412 8.34106L12.8096 8.77505L11.8213 9.86089L11.8783 9.91789L12.9641 8.92954L13.3981 8.398L13.3412 8.34106Z" fill="#41479B"/>
<path d="M13.3848 8.40728L12.7804 8.73224L11.399 9.22981L11.3682 9.15534L12.6968 8.5304L13.3539 8.33276L13.3848 8.40728Z" fill="#41479B"/>
<path d="M13.3849 8.40705L14.042 8.20941L15.3707 7.58448L15.3398 7.51001L13.9585 8.00758L13.354 8.33253L13.3849 8.40705Z" fill="#41479B"/>
<path d="M13.3323 8.38506L13.0073 7.7806L12.5098 6.39928L12.5842 6.36841L13.2092 7.69704L13.4068 8.35419L13.3323 8.38506Z" fill="#41479B"/>
<path d="M13.3325 8.3856L13.5302 9.04275L14.1551 10.3714L14.2296 10.3405L13.732 8.95919L13.407 8.35474L13.3325 8.3856Z" fill="#41479B"/>
<path d="M13.3539 8.40705L12.6968 8.20941L11.3682 7.58448L11.399 7.51001L12.7804 8.00758L13.3848 8.33253L13.3539 8.40705Z" fill="#41479B"/>
<path d="M13.354 8.40728L13.9585 8.73224L15.3398 9.22981L15.3707 9.15534L14.042 8.5304L13.3849 8.33276L13.354 8.40728Z" fill="#41479B"/>
<path d="M13.3325 8.35419L13.5302 7.69704L14.1551 6.36841L14.2296 6.39928L13.732 7.7806L13.407 8.38506L13.3325 8.35419Z" fill="#41479B"/>
<path d="M13.3323 8.35474L13.0073 8.95919L12.5098 10.3405L12.5842 10.3714L13.2092 9.04275L13.4068 8.3856L13.3323 8.35474Z" fill="#41479B"/>
</svg>
