<svg width="76" height="48" viewBox="0 0 76 48" fill="none" xmlns="http://www.w3.org/2000/svg">
<path fill-rule="evenodd" clip-rule="evenodd" d="M0.222656 23.9441V47.5552H13.4626C28.0174 47.5552 29.6038 47.3341 33.4779 44.7682C36.6123 42.6923 38.0939 39.6972 38.0939 35.4378C38.0939 33.4807 37.7938 31.3758 37.3697 30.3579C36.4342 28.1114 33.8061 25.43 31.5385 24.407L29.7496 23.6005L31.7007 22.1141C37.3805 17.7879 37.7755 8.85358 32.5199 3.59789C29.4406 0.518625 28.3376 0.333008 13.1068 0.333008H0.222656V23.9441ZM46.9773 5.47602V8.2813H58.1985H69.4196V5.47602V2.67074H58.1985H46.9773V5.47602ZM24.5949 9.01348C27.2202 10.3712 28.1315 14.6928 26.3931 17.5434C24.9297 19.9438 23.1404 20.4375 15.9004 20.4375H9.57359V14.3594V8.2813H16.3764C21.6368 8.2813 23.4999 8.44728 24.5949 9.01348ZM52.1573 13.6992C42.2509 17.29 37.6264 28.9913 42.3996 38.3876C43.8265 41.1971 47.141 44.4446 50.1202 45.9534C52.6604 47.2396 53.1569 47.3215 58.4322 47.3215C63.7076 47.3215 64.2041 47.2396 66.7443 45.9534C69.4799 44.5681 73.6275 40.6575 73.6275 39.4634C73.6275 39.0534 72.3726 38.4642 70.2378 37.8723L66.8481 36.9321L65.7166 38.3282C61.2118 43.8845 51.3606 41.5356 49.9682 34.5733L49.6657 33.0613H62.8155H75.9652L75.9596 30.6067C75.9437 23.5144 72.122 17.1764 66.2159 14.4459C62.836 12.8834 55.4853 12.493 52.1573 13.6992ZM62.4246 19.9793C64.4818 21.029 66.4348 23.6313 66.8962 25.9387L67.1987 27.4507H58.248H49.2973L49.6054 26.165C50.2946 23.291 52.5346 20.5095 54.9256 19.559C56.9225 18.7651 60.4301 18.9615 62.4246 19.9793ZM26.2089 28.3325C27.8374 29.3251 29.2106 31.8452 29.2106 33.8407C29.2106 35.8193 27.7196 38.2492 25.9087 39.2203C24.5589 39.944 23.1909 40.0745 16.9449 40.0745H9.57359V33.7626V27.4507L17.1712 27.4526C23.78 27.454 24.9563 27.5685 26.2089 28.3325Z" fill="white"/>
</svg>
