<svg width="65" height="65" viewBox="0 0 65 65" fill="none" xmlns="http://www.w3.org/2000/svg">
<path fill-rule="evenodd" clip-rule="evenodd" d="M32.2726 0.332031C14.6373 0.332031 0.328125 14.6412 0.328125 32.2765C0.328125 49.9118 14.6373 64.221 32.2726 64.221C49.8732 64.221 64.217 49.9118 64.217 32.2765C64.217 14.6412 49.8732 0.332031 32.2726 0.332031ZM53.3725 15.057C57.1837 19.6997 59.4705 25.6243 59.5398 32.0339C58.6389 31.8608 49.6306 30.0244 40.5532 31.1678C40.3453 30.7174 40.1721 30.2322 39.9642 29.7473C39.4098 28.4308 38.7863 27.0795 38.1625 25.7976C48.2101 21.7093 52.7835 15.8192 53.3725 15.057ZM32.2726 5.04402C39.2019 5.04402 45.5423 7.64254 50.3583 11.9041C49.8732 12.597 45.7502 18.1059 36.049 21.7438C31.5796 13.5325 26.6252 6.81101 25.8629 5.77159C27.907 5.28654 30.0552 5.04402 32.2726 5.04402ZM20.666 7.60788C21.3935 8.57799 26.2441 15.3341 30.7828 23.3722C18.0327 26.7677 6.77246 26.6984 5.55981 26.6984C7.3268 18.2445 13.0435 11.2112 20.666 7.60788ZM4.97081 32.3112C4.97081 32.0339 4.97081 31.7568 4.97081 31.4797C6.14881 31.5142 19.3839 31.6875 33.0001 27.5992C33.7971 29.1236 34.5247 30.6827 35.2177 32.2418C34.8711 32.3458 34.4899 32.4498 34.1435 32.5536C20.0769 37.0923 12.5931 49.496 11.9695 50.5353C7.63861 45.7195 4.97081 39.3099 4.97081 32.3112ZM32.2726 59.5782C25.9667 59.5782 20.1462 57.4302 15.5381 53.8268C16.0232 52.8222 21.5666 42.1509 36.9499 36.7807C37.0191 36.7459 37.0539 36.7459 37.1232 36.7114C40.9689 46.6549 42.5282 55.0048 42.9438 57.3954C39.6524 58.8159 36.049 59.5782 32.2726 59.5782ZM47.4825 54.901C47.2054 53.2378 45.7502 45.2691 42.1816 35.464C50.7395 34.1127 58.2231 36.3302 59.1586 36.6421C57.9807 44.2297 53.6151 50.7779 47.4825 54.901Z" fill="white"/>
</svg>
