<svg width="35" height="67" viewBox="0 0 35 67" fill="none" xmlns="http://www.w3.org/2000/svg">
<path fill-rule="evenodd" clip-rule="evenodd" d="M19.7177 0.86227C16.7305 1.95068 14.7204 3.49464 13.0793 5.95993C11.1104 8.91924 10.5833 11.6159 10.5798 18.7468L10.5763 25.2075H5.28814H0V31.2174V37.2274H5.28814H10.5763V51.5871C10.5763 64.1269 10.6938 65.993 11.5058 66.3115C12.7121 66.7851 20.7794 66.7851 21.9857 66.3115C22.7977 65.993 22.9153 64.1269 22.9153 51.5871V37.2274H27.6158C30.2011 37.2274 32.3182 37.0243 32.3211 36.7767C32.327 36.1438 33.4463 28.8531 33.8435 26.8602L34.1725 25.2075H28.5436H22.9153V20.4277C22.9153 17.799 23.2161 14.9725 23.5845 14.1461C24.5111 12.0655 27.4824 10.7835 31.3769 10.7835H34.6667V5.75679V0.730051L31.9403 0.347816C27.5383 -0.269408 22.2078 -0.0452359 19.7177 0.86227Z" fill="white"/>
</svg>
