<svg width="67" height="67" viewBox="0 0 67 67" fill="none" xmlns="http://www.w3.org/2000/svg">
<path d="M0.186505 19.589C0.346537 16.0395 0.919985 13.6109 1.73348 11.4892C2.58699 9.30078 3.72054 7.43261 5.57425 5.59114C7.42795 3.74967 9.28166 2.58874 11.4688 1.74807C13.5892 0.920737 16.0163 0.360288 19.5637 0.20016C23.1244 0.040032 24.258 0 33.2998 0C42.3549 0 43.4885 0.040032 47.0359 0.20016C50.5833 0.360288 53.0104 0.934081 55.1308 1.74807C57.3313 2.60208 59.1983 3.73632 61.0387 5.59114C62.879 7.44596 64.0393 9.30078 64.8794 11.4892C65.6929 13.6109 66.2664 16.0395 66.4264 19.589C66.5865 23.1519 66.6265 24.2861 66.6265 33.3333C66.6265 42.3939 66.5865 43.5282 66.4264 47.0777C66.2664 50.6272 65.6929 53.0558 64.8794 55.1775C64.0259 57.3659 62.8924 59.2341 61.0387 61.0755C59.1983 62.9304 57.3313 64.0779 55.1442 64.9186C53.0237 65.7459 50.5966 66.3064 47.0492 66.4665C43.4885 66.6266 42.3549 66.6667 33.3131 66.6667C24.258 66.6667 23.1244 66.6266 19.577 66.4665C16.0297 66.3064 13.6025 65.7326 11.4821 64.9186C9.295 64.0646 7.42795 62.9304 5.58759 61.0755C3.74722 59.2207 2.58699 57.3659 1.74682 55.1775C0.919986 53.0558 0.359873 50.6272 0.199841 47.0777C0.0398093 43.5148 -0.000198648 42.3806 -0.000198648 33.3333C-0.000198648 24.2861 0.0264725 23.1385 0.186505 19.589ZM6.17437 46.8108C6.32106 50.0667 6.86784 51.8415 7.32127 53.0024C7.92139 54.5503 8.65486 55.6712 9.82843 56.8455C11.002 58.0198 12.1089 58.727 13.6692 59.3542C14.8428 59.8079 16.6165 60.355 19.8571 60.5017C23.3645 60.6619 24.418 60.7019 33.3265 60.7019C42.2349 60.7019 43.2885 60.6619 46.7958 60.5017C50.0498 60.355 51.8235 59.8079 52.9837 59.3542C54.5307 58.7537 55.6509 58.0198 56.8245 56.8455C57.9981 55.6712 58.7049 54.5637 59.3317 53.0024C59.7851 51.8281 60.3319 50.0534 60.4786 46.8108C60.6386 43.3013 60.6786 42.2471 60.6786 33.3333C60.6786 24.4195 60.6386 23.3654 60.4786 19.8559C60.3319 16.5999 59.7851 14.8252 59.3317 13.6643C58.7316 12.1164 57.9981 10.9955 56.8245 9.82119C55.6509 8.64692 54.544 7.93969 52.9837 7.31252C51.8102 6.85882 50.0365 6.31172 46.7958 6.16493C43.2885 6.0048 42.2349 5.96477 33.3265 5.96477C24.418 5.96477 23.3645 6.0048 19.8571 6.16493C16.6031 6.31172 14.8294 6.85882 13.6692 7.31252C12.1222 7.913 11.002 8.64692 9.82843 9.82119C8.65486 10.9955 7.94806 12.103 7.32127 13.6643C6.86784 14.8385 6.32106 16.6133 6.17437 19.8559C6.01434 23.3654 5.97433 24.4195 5.97433 33.3333C5.97433 42.2471 6.02767 43.3013 6.17437 46.8108Z" fill="white"/>
<path d="M33.3258 16.2C42.7944 16.2 50.4492 23.8728 50.4492 33.3337C50.4492 42.8079 42.781 50.4674 33.3258 50.4674C23.8706 50.4674 16.2024 42.7812 16.2024 33.3337C16.2024 23.8594 23.8572 16.2 33.3258 16.2ZM33.3258 44.4492C39.4604 44.4492 44.4347 39.4719 44.4347 33.3337C44.4347 27.1954 39.4604 22.2181 33.3258 22.2181C27.1912 22.2181 22.2169 27.1954 22.2169 33.3337C22.2169 39.4719 27.1912 44.4492 33.3258 44.4492Z" fill="white"/>
<path d="M15.5358 19.5357C13.3262 19.5357 11.535 17.7434 11.535 15.5325C11.535 13.3216 13.3262 11.5293 15.5358 11.5293C17.7454 11.5293 19.5366 13.3216 19.5366 15.5325C19.5366 17.7434 17.7454 19.5357 15.5358 19.5357Z" fill="white"/>
<path d="M66.6665 33.3333C66.6665 42.3939 66.6265 43.5282 66.4665 47.0777C66.3064 50.6272 65.733 53.0558 64.9195 55.1775C64.066 57.3659 62.9324 59.2341 61.0787 61.0755C59.2384 62.917 57.3713 64.0779 55.1842 64.9186C53.0638 65.7459 50.6366 66.3064 47.0893 66.4665C43.5285 66.6266 42.395 66.6667 33.3532 66.6667C24.298 66.6667 23.1645 66.6266 19.6171 66.4665C16.0697 66.3064 13.6426 65.7326 11.5221 64.9186C9.33503 64.0646 7.46799 62.9304 5.62762 61.0755C3.78726 59.2341 2.62703 57.3659 1.78686 55.1775C0.960025 53.0558 0.399912 50.6272 0.23988 47.0777C0.0798484 43.5148 0.0398404 42.3806 0.0398404 33.3333C0.0398404 24.2728 0.0798484 23.1385 0.23988 19.589C0.399912 16.0395 0.973361 13.6109 1.78686 11.4892C2.64036 9.30078 3.77392 7.43261 5.62762 5.59114C7.45466 3.73632 9.3217 2.58874 11.5088 1.74807C13.6292 0.920737 16.0564 0.360288 19.6038 0.20016C23.1645 0.040032 24.298 0 33.3398 0C42.395 0 43.5285 0.040032 47.0759 0.20016C50.6233 0.360288 53.0504 0.934081 55.1709 1.74807C57.358 2.60208 59.225 3.73632 61.0654 5.59114C62.9058 7.44596 64.066 9.30078 64.9062 11.4892C65.733 13.6109 66.3064 16.0395 66.4665 19.589C66.6265 23.1385 66.6665 24.2728 66.6665 33.3333ZM60.652 33.3333C60.652 24.4329 60.612 23.3654 60.4519 19.8559C60.3052 16.5999 59.7585 14.8252 59.305 13.6643C58.7049 12.1164 57.9714 10.9955 56.7979 9.82119C55.6243 8.64692 54.5174 7.93969 52.9571 7.31252C51.7835 6.85882 50.0098 6.31172 46.7692 6.16493C43.2618 6.0048 42.2083 5.96477 33.2998 5.96477C24.3914 5.96477 23.3378 6.0048 19.8305 6.16493C16.5765 6.31172 14.8028 6.85882 13.6426 7.31252C12.0956 7.913 10.9754 8.64692 9.8018 9.82119C8.62823 10.9955 7.92142 12.103 7.29462 13.6643C6.8412 14.8385 6.29443 16.6133 6.14773 19.8559C5.9877 23.3654 5.94769 24.4195 5.94769 33.3333C5.94769 42.2471 5.9877 43.3013 6.14773 46.8108C6.29443 50.0667 6.8412 51.8415 7.29462 53.0024C7.89474 54.5503 8.62823 55.6712 9.8018 56.8455C10.9754 58.0198 12.0822 58.727 13.6426 59.3542C14.8161 59.8079 16.5898 60.355 19.8305 60.5017C23.3378 60.6619 24.3914 60.7019 33.2998 60.7019C42.2083 60.7019 43.2618 60.6619 46.7692 60.5017C50.0232 60.355 51.7969 59.8079 52.9571 59.3542C54.5041 58.7537 55.6243 58.0198 56.7979 56.8455C57.9714 55.6712 58.6782 54.5637 59.305 53.0024C59.7585 51.8281 60.3052 50.0534 60.4519 46.8108C60.6253 43.3013 60.652 42.2338 60.652 33.3333Z" fill="white"/>
</svg>
