<svg width="67" height="65" viewBox="0 0 67 65" fill="none" xmlns="http://www.w3.org/2000/svg">
<path d="M0 7.89537C0 5.75033 0.750772 3.9807 2.25225 2.58649C3.75373 1.19222 5.70573 0.495117 8.10811 0.495117C10.4676 0.495117 12.3766 1.18148 13.8353 2.55432C15.3367 3.97002 16.0875 5.81468 16.0875 8.08842C16.0875 10.1476 15.3582 11.8636 13.8996 13.2364C12.3981 14.6521 10.4247 15.36 7.97941 15.36H7.91506C5.55553 15.36 3.64653 14.6521 2.1879 13.2364C0.729279 11.8207 0 10.0404 0 7.89537ZM0.836551 64.2017V21.2158H15.1223V64.2017H0.836551ZM23.0373 64.2017H37.323V40.1991C37.323 38.6976 37.4947 37.5393 37.8378 36.7242C38.4384 35.2656 39.3501 34.0322 40.5727 33.0241C41.7954 32.0159 43.329 31.5119 45.1738 31.5119C49.9786 31.5119 52.381 34.7508 52.381 41.2287V64.2017H66.6667V39.5556C66.6667 33.2064 65.1652 28.3909 62.1622 25.109C59.1591 21.8272 55.1909 20.1862 50.2574 20.1862C44.7233 20.1862 40.4118 22.5672 37.323 27.3291V27.4578H37.2587L37.323 27.3291V21.2158H23.0373C23.1231 22.5886 23.166 26.8572 23.166 34.0215C23.166 41.1858 23.1231 51.2458 23.0373 64.2017Z" fill="white"/>
</svg>
