<svg width="78" height="66" viewBox="0 0 78 66" fill="none" xmlns="http://www.w3.org/2000/svg">
<path fill-rule="evenodd" clip-rule="evenodd" d="M48.6094 1.4804C47.1506 2.00192 45.1358 3.05472 44.1323 3.82007C40.0746 6.91534 37.3412 13.1398 37.7698 18.3088L37.9946 21.0247L35.3891 20.7316C25.4108 19.6111 14.6107 14.0211 7.5768 6.33684L4.95635 3.4741L3.99645 5.98779C3.36149 7.64938 3.04734 9.75652 3.0689 12.2055C3.0961 15.2916 3.37432 16.464 4.73511 19.2282C5.63341 21.053 7.18053 23.2587 8.17225 24.1298C9.69678 25.468 9.81536 25.7138 8.93759 25.7138C8.36576 25.7138 6.71085 25.2626 5.25971 24.7113L2.62129 23.7089L2.93646 26.0095C3.67974 31.4311 8.16506 37.4666 12.6571 39.0913C13.7042 39.4696 14.5604 39.9639 14.5604 40.1897C14.5604 40.4151 13.1698 40.5999 11.4703 40.5999H8.37962L9.47144 42.7815C11.6797 47.1954 16.3447 50.8009 20.9691 51.6684L22.9582 52.0416L21.7124 53.0503C18.0022 56.0547 10.941 58.5283 4.55083 59.0617L0.444336 59.4046L5.3208 61.755C12.6144 65.2707 15.9777 65.9929 24.8266 65.9421C31.3293 65.9046 32.841 65.727 36.7904 64.5361C44.7832 62.1261 50.1735 58.8322 55.9154 52.8485C60.3437 48.2339 62.322 45.3804 64.8804 39.9187C67.7308 33.8324 68.9997 28.8712 69.3385 22.482L69.6326 16.9408L71.4133 15.4722C73.2243 13.9801 77.3343 9.26631 77.0623 8.99425C76.9801 8.91264 75.3042 9.29146 73.3382 9.8366C68.7256 11.1158 68.3786 11.0814 70.3338 9.54042C72.1052 8.1437 75.1312 3.87551 75.1312 2.77291C75.1312 2.24266 74.6815 2.30888 73.2063 3.05626C72.1478 3.59319 69.9524 4.44888 68.3278 4.95757L65.3747 5.88307L63.9646 4.56232C60.1235 0.962463 53.6784 -0.331082 48.6094 1.4804Z" fill="white"/>
</svg>
