<svg width="66" height="46" viewBox="0 0 66 46" fill="none" xmlns="http://www.w3.org/2000/svg">
<path fill-rule="evenodd" clip-rule="evenodd" d="M12.2916 0.460764C6.9907 0.91021 5.47178 1.37444 3.65129 3.1004C1.73943 4.91297 0.969929 7.32867 0.334051 13.5137C-0.315559 19.8313 0.0298432 32.9698 0.959366 37.2884C1.61003 40.313 3.37348 42.809 5.71578 44.02C8.01212 45.2078 17.789 45.8474 33.4171 45.8331C49.238 45.8183 57.6798 45.2522 60.0052 44.0496C62.4014 42.8106 64.1627 40.3384 64.8213 37.2884C65.7698 32.9001 66.1105 19.3222 65.4286 13.1234C64.3222 3.06818 62.5661 1.32744 52.6382 0.449145C45.8104 -0.155573 19.4685 -0.147651 12.2916 0.460764ZM35.1336 18.1032C39.5636 20.633 43.1877 22.783 43.1877 22.8813C43.1877 22.9795 39.5636 25.1296 35.1336 27.6593C30.7036 30.1891 26.9015 32.3614 26.6834 32.4865C26.4653 32.6117 26.2873 28.2894 26.2873 22.8813C26.2873 17.4731 26.4653 13.1509 26.6834 13.276C26.9015 13.4012 30.7036 15.5734 35.1336 18.1032Z" fill="white"/>
</svg>
